<?xml version="1.0" standalone="no"?>
 <!DOCTYPE svg PUBLIC "-//W3C//DTD SVG 1.1//EN" 
 "http://www.w3.org/Graphics/SVG/1.1/DTD/svg11.dtd"> 
<svg
  xmlns:svg="http://www.w3.org/2000/svg"
  xmlns="http://www.w3.org/2000/svg"
  xmlns:xlink="http://www.w3.org/1999/xlink"
  version="1.1"
  width="38.1000mm" height="25.9080mm" viewBox="0.0000 0.0000 38.1000 25.9080">
<title>SVG Image created as mask.svg date 2024/12/12 21:11:47 </title>
  <desc>Image generated by PCBNEW </desc>
<g style="fill:#000000; fill-opacity:1.0000;stroke:#000000; stroke-opacity:1.0000;
stroke-linecap:round; stroke-linejoin:round;"
 transform="translate(0 0) scale(1 1)">
</g>
<g style="fill:#848400; fill-opacity:1.0000; stroke:none;">
<circle cx="15.2400" cy="3.8100" r="1.1430" /> 
</g>
<g style="fill:#848400; fill-opacity:1.0000; stroke:none;">
<circle cx="22.8600" cy="3.8100" r="1.1430" /> 
<path style="fill:#848400; fill-opacity:1.0000; stroke:none;fill-rule:evenodd;"
d="M 5.3440,21.8440
3.5660,21.8440
3.5660,18.7960
5.3440,18.7960
Z" /> 
<path style="fill:#848400; fill-opacity:1.0000; stroke:none;fill-rule:evenodd;"
d="M 7.8840,21.8440
6.1060,21.8440
6.1060,18.7960
7.8840,18.7960
Z" /> 
<path style="fill:#848400; fill-opacity:1.0000; stroke:none;fill-rule:evenodd;"
d="M 10.4240,21.8440
8.6460,21.8440
8.6460,18.7960
10.4240,18.7960
Z" /> 
<path style="fill:#848400; fill-opacity:1.0000; stroke:none;fill-rule:evenodd;"
d="M 12.9640,21.8440
11.1860,21.8440
11.1860,18.7960
12.9640,18.7960
Z" /> 
</g>
<g style="fill:#848400; fill-opacity:1.0000; stroke:none;">
<circle cx="33.0200" cy="3.8100" r="1.1430" /> 
</g>
<g style="fill:#848400; fill-opacity:1.0000; stroke:none;">
<circle cx="25.4000" cy="3.8100" r="1.1430" /> 
</g>
<g style="fill:#848400; fill-opacity:1.0000; stroke:none;">
<circle cx="30.4800" cy="10.7950" r="1.1430" /> 
</g>
<g style="fill:#848400; fill-opacity:1.0000; stroke:none;">
<circle cx="27.9400" cy="10.7950" r="1.1430" /> 
</g>
<g style="fill:#848400; fill-opacity:1.0000; stroke:none;">
<circle cx="25.4000" cy="10.7950" r="1.1430" /> 
</g>
<g style="fill:#848400; fill-opacity:1.0000; stroke:none;">
<circle cx="22.8600" cy="10.7950" r="1.1430" /> 
</g>
<g style="fill:#848400; fill-opacity:1.0000; stroke:none;">
<circle cx="20.3200" cy="10.7950" r="1.1430" /> 
</g>
<g style="fill:#848400; fill-opacity:1.0000; stroke:none;">
<circle cx="17.7800" cy="10.7950" r="1.1430" /> 
<path style="fill:#848400; fill-opacity:1.0000; stroke:none;fill-rule:evenodd;"
d="M 4.1910,7.2540
4.1910,5.4760
7.2390,5.4760
7.2390,7.2540
Z" /> 
<path style="fill:#848400; fill-opacity:1.0000; stroke:none;fill-rule:evenodd;"
d="M 4.1910,9.7940
4.1910,8.0160
7.2390,8.0160
7.2390,9.7940
Z" /> 
<path style="fill:#848400; fill-opacity:1.0000; stroke:none;fill-rule:evenodd;"
d="M 4.1910,12.3340
4.1910,10.5560
7.2390,10.5560
7.2390,12.3340
Z" /> 
<path style="fill:#848400; fill-opacity:1.0000; stroke:none;fill-rule:evenodd;"
d="M 34.6710,7.2540
34.6710,5.4760
37.7190,5.4760
37.7190,7.2540
Z" /> 
<path style="fill:#848400; fill-opacity:1.0000; stroke:none;fill-rule:evenodd;"
d="M 34.6710,9.7940
34.6710,8.0160
37.7190,8.0160
37.7190,9.7940
Z" /> 
<path style="fill:#848400; fill-opacity:1.0000; stroke:none;fill-rule:evenodd;"
d="M 34.6710,12.3340
34.6710,10.5560
37.7190,10.5560
37.7190,12.3340
Z" /> 
<path style="fill:none; 
stroke:#C2C200; stroke-width:0.0500; stroke-opacity:1; 
stroke-linecap:round; stroke-linejoin:round;fill:none"
d="M 0.0000,0.0000
38.1000,0.0000
38.1000,25.4000
0.0000,25.4000
Z" /> 
</g> 
</svg>
