  0
SECTION
  2
HEADER
  9
$ANGBASE
  50
0.0
  9
$ANGDIR
  70
1
  9
$MEASUREMENT
  70
1
  0
ENDSEC
  0
SECTION
  2
TABLES
  0
TABLE
  2
LTYPE
  70
4
  0
LTYPE
  5
40F
  2
CONTINUOUS
  70
0
  3
Solid line
  72
65
  73
0
  40
0.0
  0
LTYPE
  5
410
  2
DASHDOT
 70
0
  3
Dash Dot ____ _ ____ _
 72
65
 73
4
 40
2.0
 49
1.25
 49
-0.25
 49
0.25
 49
-0.25
  0
LTYPE
  5
411
  2
DASHED
 70
0
  3
Dashed __ __ __ __ __
 72
65
 73
2
 40
0.75
 49
0.5
 49
-0.25
  0
LTYPE
  5
43B
  2
DOTTED
 70
0
  3
Dotted .  .  .  .
 72
65
 73
2
 40
0.2
 49
0.0
 49
-0.2
  0
ENDTAB
  0
TABLE
  2
STYLE
  70
4
  0
STYLE
  2
KICAD
  70
0
  40
0
  41
1
  42
1
  50
0
  71
0
  3
isocp.shx
  0
STYLE
  2
KICADB
  70
0
  40
0
  41
1
  42
1
  50
0
  71
0
  3
isocp.shx
  0
STYLE
  2
KICADI
  70
0
  40
0
  41
1
  42
1
  50
15
  71
0
  3
isocp.shx
  0
STYLE
  2
KICADBI
  70
0
  40
0
  41
1
  42
1
  50
15
  71
0
  3
isocp.shx
  0
ENDTAB
  0
TABLE
  2
LAYER
  70
1
  0
LAYER
  2
BLACK
  70
0
  62
7
  6
CONTINUOUS
  0
ENDTAB
  0
ENDSEC
  0
SECTION
  2
ENTITIES
0
CIRCLE
8
BLACK
10
35.5574999999999974
20
-2.5349999999999997
40
1.27
0
CIRCLE
8
BLACK
10
2.5375000000000001
20
-53.3350000000000009
40
1.27
0
LINE
8
BLACK
6
CONTINUOUS
10
0.6325
20
0.005
11
0.6325
21
-55.875
0
LINE
8
BLACK
6
CONTINUOUS
10
56.5124999999999957
20
0.005
11
56.5124999999999957
21
-35.5549999999999997
0
CIRCLE
8
BLACK
10
2.5375000000000001
20
-2.5349999999999997
40
1.27
0
LINE
8
BLACK
6
CONTINUOUS
10
0.6325
20
0.005
11
56.5124999999999957
21
0.005
0
LINE
8
BLACK
6
CONTINUOUS
10
56.5124999999999957
20
-35.5549999999999997
11
40.0024999999999977
21
-35.5549999999999997
0
LINE
8
BLACK
6
CONTINUOUS
10
40.0024999999999977
20
-55.875
11
40.0024999999999977
21
-35.5549999999999997
0
LINE
8
BLACK
6
CONTINUOUS
10
0.6325
20
-55.875
11
40.0024999999999977
21
-55.875
0
CIRCLE
8
BLACK
10
35.5574999999999974
20
-53.3350000000000009
40
1.27
0
CIRCLE
8
BLACK
10
32.3825000000000003
20
-45.7149999999999963
40
0.175
0
CIRCLE
8
BLACK
10
32.3825000000000003
20
-43.134999999999998
40
0.175
0
CIRCLE
8
BLACK
10
32.3825000000000003
20
-40.634999999999998
40
0.175
0
CIRCLE
8
BLACK
10
32.3825000000000003
20
-38.0949999999999989
40
0.175
0
CIRCLE
8
BLACK
10
32.3825000000000003
20
-35.5549999999999997
40
0.175
0
CIRCLE
8
BLACK
10
32.3825000000000003
20
-33.0150000000000006
40
0.175
0
CIRCLE
8
BLACK
10
32.3825000000000003
20
-30.4749999999999979
40
0.175
0
CIRCLE
8
BLACK
10
32.3825000000000003
20
-27.9349999999999987
40
0.175
0
CIRCLE
8
BLACK
10
32.3825000000000003
20
-25.3949999999999996
40
0.175
0
CIRCLE
8
BLACK
10
32.3825000000000003
20
-22.8550000000000004
40
0.175
0
CIRCLE
8
BLACK
10
32.3825000000000003
20
-20.3149999999999977
40
0.175
0
CIRCLE
8
BLACK
10
32.3825000000000003
20
-17.7749999999999986
40
0.175
0
CIRCLE
8
BLACK
10
32.3825000000000003
20
-15.2349999999999994
40
0.175
0
CIRCLE
8
BLACK
10
32.3825000000000003
20
-12.6950000000000003
40
0.175
0
CIRCLE
8
BLACK
10
32.3825000000000003
20
-10.1549999999999994
40
0.175
0
CIRCLE
8
BLACK
10
6.9824999999999999
20
-10.1549999999999994
40
0.175
0
CIRCLE
8
BLACK
10
6.9824999999999999
20
-12.6950000000000003
40
0.175
0
CIRCLE
8
BLACK
10
6.9824999999999999
20
-15.2349999999999994
40
0.175
0
CIRCLE
8
BLACK
10
6.9824999999999999
20
-17.7749999999999986
40
0.175
0
CIRCLE
8
BLACK
10
6.9824999999999999
20
-20.3149999999999977
40
0.175
0
CIRCLE
8
BLACK
10
6.9824999999999999
20
-22.8550000000000004
40
0.175
0
CIRCLE
8
BLACK
10
6.9824999999999999
20
-25.3949999999999996
40
0.175
0
CIRCLE
8
BLACK
10
6.9824999999999999
20
-27.9349999999999987
40
0.175
0
CIRCLE
8
BLACK
10
6.9824999999999999
20
-30.4749999999999979
40
0.175
0
CIRCLE
8
BLACK
10
6.9824999999999999
20
-33.0150000000000006
40
0.175
0
CIRCLE
8
BLACK
10
6.9824999999999999
20
-35.5549999999999997
40
0.175
0
CIRCLE
8
BLACK
10
6.9824999999999999
20
-38.0949999999999989
40
0.175
0
CIRCLE
8
BLACK
10
6.9824999999999999
20
-40.634999999999998
40
0.175
0
CIRCLE
8
BLACK
10
6.9824999999999999
20
-43.134999999999998
40
0.175
0
CIRCLE
8
BLACK
10
6.9824999999999999
20
-45.7149999999999963
40
0.175
0
CIRCLE
8
BLACK
10
32.3825000000000003
20
-45.7149999999999963
40
0.175
0
CIRCLE
8
BLACK
10
32.3825000000000003
20
-43.1749999999999972
40
0.175
0
CIRCLE
8
BLACK
10
32.3825000000000003
20
-40.634999999999998
40
0.175
0
CIRCLE
8
BLACK
10
32.3825000000000003
20
-38.0949999999999989
40
0.175
0
CIRCLE
8
BLACK
10
32.3825000000000003
20
-35.5549999999999997
40
0.175
0
CIRCLE
8
BLACK
10
32.3825000000000003
20
-33.0150000000000006
40
0.175
0
CIRCLE
8
BLACK
10
32.3825000000000003
20
-30.4749999999999979
40
0.175
0
CIRCLE
8
BLACK
10
32.3825000000000003
20
-27.9349999999999987
40
0.175
0
CIRCLE
8
BLACK
10
32.3825000000000003
20
-25.3949999999999996
40
0.175
0
CIRCLE
8
BLACK
10
32.3825000000000003
20
-22.8550000000000004
40
0.175
0
CIRCLE
8
BLACK
10
32.3825000000000003
20
-20.3149999999999977
40
0.175
0
CIRCLE
8
BLACK
10
32.3825000000000003
20
-17.7749999999999986
40
0.175
0
CIRCLE
8
BLACK
10
32.3825000000000003
20
-15.2349999999999994
40
0.175
0
CIRCLE
8
BLACK
10
32.3825000000000003
20
-12.6950000000000003
40
0.175
0
CIRCLE
8
BLACK
10
32.3825000000000003
20
-10.1549999999999994
40
0.175
0
CIRCLE
8
BLACK
10
6.9824999999999999
20
-10.1600000000000001
40
0.175
0
CIRCLE
8
BLACK
10
6.9824999999999999
20
-12.6999999999999993
40
0.175
0
CIRCLE
8
BLACK
10
6.9824999999999999
20
-15.2399999999999984
40
0.175
0
CIRCLE
8
BLACK
10
6.9824999999999999
20
-17.7799999999999976
40
0.175
0
CIRCLE
8
BLACK
10
6.9824999999999999
20
-20.3200000000000003
40
0.175
0
CIRCLE
8
BLACK
10
6.9824999999999999
20
-22.8599999999999994
40
0.175
0
CIRCLE
8
BLACK
10
6.9824999999999999
20
-25.3999999999999986
40
0.175
0
CIRCLE
8
BLACK
10
6.9824999999999999
20
-27.9399999999999977
40
0.175
0
CIRCLE
8
BLACK
10
6.9824999999999999
20
-30.4799999999999969
40
0.175
0
CIRCLE
8
BLACK
10
6.9824999999999999
20
-33.019999999999996
40
0.175
0
CIRCLE
8
BLACK
10
6.9824999999999999
20
-35.5599999999999952
40
0.175
0
CIRCLE
8
BLACK
10
6.9824999999999999
20
-38.1000000000000014
40
0.175
0
CIRCLE
8
BLACK
10
6.9824999999999999
20
-40.6400000000000006
40
0.175
0
CIRCLE
8
BLACK
10
6.9824999999999999
20
-43.1799999999999997
40
0.175
0
CIRCLE
8
BLACK
10
6.9824999999999999
20
-45.7199999999999989
40
0.175
0
CIRCLE
8
BLACK
10
41.2725000000000009
20
-11.4249999999999989
40
0.175
0
CIRCLE
8
BLACK
10
43.8125
20
-11.4249999999999989
40
0.175
0
CIRCLE
8
BLACK
10
46.3524999999999991
20
-11.4249999999999989
40
0.175
0
CIRCLE
8
BLACK
10
48.8924999999999983
20
-11.4249999999999989
40
0.175
0
CIRCLE
8
BLACK
10
51.4324999999999974
20
-11.4249999999999989
40
0.175
0
CIRCLE
8
BLACK
10
53.9724999999999966
20
-11.4249999999999989
40
0.175
0
CIRCLE
8
BLACK
10
41.2725000000000009
20
-7.6149999999999993
40
0.175
0
CIRCLE
8
BLACK
10
43.8125
20
-7.6149999999999993
40
0.175
0
CIRCLE
8
BLACK
10
46.3524999999999991
20
-7.6149999999999993
40
0.175
0
CIRCLE
8
BLACK
10
48.8924999999999983
20
-7.6149999999999993
40
0.175
0
CIRCLE
8
BLACK
10
51.4324999999999974
20
-7.6149999999999993
40
0.175
0
CIRCLE
8
BLACK
10
53.9724999999999966
20
-7.6149999999999993
40
0.175
0
CIRCLE
8
BLACK
10
22.2225000000000001
20
-44.4450000000000003
40
0.175
0
CIRCLE
8
BLACK
10
19.6824999999999974
20
-44.4450000000000003
40
0.175
0
CIRCLE
8
BLACK
10
17.1424999999999983
20
-44.4450000000000003
40
0.175
0
CIRCLE
8
BLACK
10
3.1724999999999999
20
-45.7149999999999963
40
0.175
0
CIRCLE
8
BLACK
10
3.1724999999999999
20
-43.1749999999999972
40
0.175
0
CIRCLE
8
BLACK
10
3.1724999999999999
20
-40.634999999999998
40
0.175
0
CIRCLE
8
BLACK
10
3.1724999999999999
20
-38.0949999999999989
40
0.175
0
CIRCLE
8
BLACK
10
3.1724999999999999
20
-35.5549999999999997
40
0.175
0
CIRCLE
8
BLACK
10
3.1724999999999999
20
-33.0150000000000006
40
0.175
0
CIRCLE
8
BLACK
10
3.1724999999999999
20
-30.4749999999999979
40
0.175
0
CIRCLE
8
BLACK
10
3.1724999999999999
20
-27.9349999999999987
40
0.175
0
CIRCLE
8
BLACK
10
3.1724999999999999
20
-25.3949999999999996
40
0.175
0
CIRCLE
8
BLACK
10
3.1724999999999999
20
-22.8550000000000004
40
0.175
0
CIRCLE
8
BLACK
10
3.1724999999999999
20
-20.3149999999999977
40
0.175
0
CIRCLE
8
BLACK
10
3.1724999999999999
20
-17.7749999999999986
40
0.175
0
CIRCLE
8
BLACK
10
3.1724999999999999
20
-15.2349999999999994
40
0.175
0
CIRCLE
8
BLACK
10
3.1724999999999999
20
-12.6950000000000003
40
0.175
0
CIRCLE
8
BLACK
10
3.1724999999999999
20
-10.1549999999999994
40
0.175
0
CIRCLE
8
BLACK
10
17.1574999999999989
20
-11.9900000000000002
40
0.175
0
CIRCLE
8
BLACK
10
19.697499999999998
20
-11.9900000000000002
40
0.175
0
CIRCLE
8
BLACK
10
22.2375000000000007
20
-11.9900000000000002
40
0.175
0
CIRCLE
8
BLACK
10
36.1924999999999955
20
-10.1600000000000001
40
0.175
0
CIRCLE
8
BLACK
10
36.1924999999999955
20
-12.6999999999999993
40
0.175
0
CIRCLE
8
BLACK
10
36.1924999999999955
20
-15.2399999999999984
40
0.175
0
CIRCLE
8
BLACK
10
36.1924999999999955
20
-17.7799999999999976
40
0.175
0
CIRCLE
8
BLACK
10
36.1924999999999955
20
-20.3200000000000003
40
0.175
0
CIRCLE
8
BLACK
10
36.1924999999999955
20
-22.8599999999999994
40
0.175
0
CIRCLE
8
BLACK
10
36.1924999999999955
20
-25.3999999999999986
40
0.175
0
CIRCLE
8
BLACK
10
36.1924999999999955
20
-27.9399999999999977
40
0.175
0
CIRCLE
8
BLACK
10
36.1924999999999955
20
-30.4799999999999969
40
0.175
0
CIRCLE
8
BLACK
10
36.1924999999999955
20
-33.019999999999996
40
0.175
0
CIRCLE
8
BLACK
10
36.1924999999999955
20
-35.5599999999999952
40
0.175
0
CIRCLE
8
BLACK
10
36.1924999999999955
20
-38.1000000000000014
40
0.175
0
CIRCLE
8
BLACK
10
36.1924999999999955
20
-40.6400000000000006
40
0.175
0
CIRCLE
8
BLACK
10
36.1924999999999955
20
-43.1799999999999997
40
0.175
0
CIRCLE
8
BLACK
10
36.1924999999999955
20
-45.7199999999999989
40
0.175
  0
ENDSEC
  0
EOF
