  0
SECTION
  2
HEADER
  9
$ANGBASE
  50
0.0
  9
$ANGDIR
  70
1
  9
$MEASUREMENT
  70
1
  0
ENDSEC
  0
SECTION
  2
TABLES
  0
TABLE
  2
LTYPE
  70
4
  0
LTYPE
  5
40F
  2
CONTINUOUS
  70
0
  3
Solid line
  72
65
  73
0
  40
0.0
  0
LTYPE
  5
410
  2
DASHDOT
 70
0
  3
Dash Dot ____ _ ____ _
 72
65
 73
4
 40
2.0
 49
1.25
 49
-0.25
 49
0.25
 49
-0.25
  0
LTYPE
  5
411
  2
DASHED
 70
0
  3
Dashed __ __ __ __ __
 72
65
 73
2
 40
0.75
 49
0.5
 49
-0.25
  0
LTYPE
  5
43B
  2
DOTTED
 70
0
  3
Dotted .  .  .  .
 72
65
 73
2
 40
0.2
 49
0.0
 49
-0.2
  0
ENDTAB
  0
TABLE
  2
STYLE
  70
4
  0
STYLE
  2
KICAD
  70
0
  40
0
  41
1
  42
1
  50
0
  71
0
  3
isocp.shx
  0
STYLE
  2
KICADB
  70
0
  40
0
  41
1
  42
1
  50
0
  71
0
  3
isocp.shx
  0
STYLE
  2
KICADI
  70
0
  40
0
  41
1
  42
1
  50
15
  71
0
  3
isocp.shx
  0
STYLE
  2
KICADBI
  70
0
  40
0
  41
1
  42
1
  50
15
  71
0
  3
isocp.shx
  0
ENDTAB
  0
TABLE
  2
LAYER
  70
1
  0
LAYER
  2
BLACK
  70
0
  62
7
  6
CONTINUOUS
  0
ENDTAB
  0
ENDSEC
  0
SECTION
  2
ENTITIES
0
CIRCLE
8
BLACK
10
43.1849999999999952
20
-2.54
40
1.27
0
CIRCLE
8
BLACK
10
2.5449999999999999
20
-59.6899999999999977
40
1.27
0
LINE
8
BLACK
6
CONTINUOUS
10
0.005
20
0.
11
0.005
21
-62.2299999999999969
0
CIRCLE
8
BLACK
10
2.5449999999999999
20
-2.54
40
1.27
0
LINE
8
BLACK
6
CONTINUOUS
10
0.005
20
0.
11
45.7250000000000014
21
0.
0
LINE
8
BLACK
6
CONTINUOUS
10
45.7250000000000014
20
-62.2299999999999969
11
45.7250000000000014
21
0.
0
LINE
8
BLACK
6
CONTINUOUS
10
0.005
20
-62.2299999999999969
11
45.7250000000000014
21
-62.2299999999999969
0
CIRCLE
8
BLACK
10
43.1849999999999952
20
-59.6899999999999977
40
1.27
0
CIRCLE
8
BLACK
10
10.1649999999999991
20
-14.0404289999999996
40
0.175
0
CIRCLE
8
BLACK
10
10.1649999999999991
20
-16.6204289999999979
40
0.175
0
CIRCLE
8
BLACK
10
10.1649999999999991
20
-19.1204289999999979
40
0.175
0
CIRCLE
8
BLACK
10
10.1649999999999991
20
-21.6604290000000006
40
0.175
0
CIRCLE
8
BLACK
10
10.1649999999999991
20
-24.2004289999999997
40
0.175
0
CIRCLE
8
BLACK
10
10.1649999999999991
20
-26.7404289999999989
40
0.175
0
CIRCLE
8
BLACK
10
10.1649999999999991
20
-29.280428999999998
40
0.175
0
CIRCLE
8
BLACK
10
10.1649999999999991
20
-31.8204289999999972
40
0.175
0
CIRCLE
8
BLACK
10
10.1649999999999991
20
-34.3604289999999963
40
0.175
0
CIRCLE
8
BLACK
10
10.1649999999999991
20
-36.9004289999999955
40
0.175
0
CIRCLE
8
BLACK
10
10.1649999999999991
20
-39.4404290000000017
40
0.175
0
CIRCLE
8
BLACK
10
10.1649999999999991
20
-41.9804290000000009
40
0.175
0
CIRCLE
8
BLACK
10
10.1649999999999991
20
-44.520429
40
0.175
0
CIRCLE
8
BLACK
10
10.1649999999999991
20
-47.0604289999999992
40
0.175
0
CIRCLE
8
BLACK
10
10.1649999999999991
20
-49.6004289999999983
40
0.175
0
CIRCLE
8
BLACK
10
35.5649999999999977
20
-49.6004289999999983
40
0.175
0
CIRCLE
8
BLACK
10
35.5649999999999977
20
-47.0604289999999992
40
0.175
0
CIRCLE
8
BLACK
10
35.5649999999999977
20
-44.520429
40
0.175
0
CIRCLE
8
BLACK
10
35.5649999999999977
20
-41.9804290000000009
40
0.175
0
CIRCLE
8
BLACK
10
35.5649999999999977
20
-39.4404290000000017
40
0.175
0
CIRCLE
8
BLACK
10
35.5649999999999977
20
-36.9004289999999955
40
0.175
0
CIRCLE
8
BLACK
10
35.5649999999999977
20
-34.3604289999999963
40
0.175
0
CIRCLE
8
BLACK
10
35.5649999999999977
20
-31.8204289999999972
40
0.175
0
CIRCLE
8
BLACK
10
35.5649999999999977
20
-29.280428999999998
40
0.175
0
CIRCLE
8
BLACK
10
35.5649999999999977
20
-26.7404289999999989
40
0.175
0
CIRCLE
8
BLACK
10
35.5649999999999977
20
-24.2004289999999997
40
0.175
0
CIRCLE
8
BLACK
10
35.5649999999999977
20
-21.6604290000000006
40
0.175
0
CIRCLE
8
BLACK
10
35.5649999999999977
20
-19.1204289999999979
40
0.175
0
CIRCLE
8
BLACK
10
35.5649999999999977
20
-16.6204289999999979
40
0.175
0
CIRCLE
8
BLACK
10
35.5649999999999977
20
-14.0404289999999996
40
0.175
0
CIRCLE
8
BLACK
10
43.1799999999999997
20
-46.3500000000000014
40
0.175
0
CIRCLE
8
BLACK
10
43.1799999999999997
20
-48.8900000000000006
40
0.175
0
CIRCLE
8
BLACK
10
25.3999999999999986
20
-45.7199999999999989
40
0.175
0
CIRCLE
8
BLACK
10
22.8599999999999994
20
-45.7199999999999989
40
0.175
0
CIRCLE
8
BLACK
10
20.3200000000000003
20
-45.7199999999999989
40
0.175
0
CIRCLE
8
BLACK
10
17.7799999999999976
20
-45.7199999999999989
40
0.175
0
CIRCLE
8
BLACK
10
4.4449999999999994
20
-25.3999999999999986
40
0.175
0
CIRCLE
8
BLACK
10
4.4449999999999994
20
-22.8599999999999994
40
0.175
0
CIRCLE
8
BLACK
10
4.4449999999999994
20
-20.3200000000000003
40
0.175
0
CIRCLE
8
BLACK
10
4.4449999999999994
20
-17.7799999999999976
40
0.175
0
CIRCLE
8
BLACK
10
4.4449999999999994
20
-15.2399999999999984
40
0.175
0
CIRCLE
8
BLACK
10
4.4449999999999994
20
-12.6999999999999993
40
0.175
0
CIRCLE
8
BLACK
10
40.0049999999999955
20
-31.754999999999999
40
0.175
0
CIRCLE
8
BLACK
10
40.0049999999999955
20
-29.2149999999999999
40
0.175
0
CIRCLE
8
BLACK
10
41.2749999999999986
20
-16.5
40
0.175
0
CIRCLE
8
BLACK
10
41.2749999999999986
20
-13.9599999999999991
40
0.175
0
CIRCLE
8
BLACK
10
41.2749999999999986
20
-11.4199999999999999
40
0.175
0
CIRCLE
8
BLACK
10
41.2749999999999986
20
-8.879999999999999
40
0.175
0
CIRCLE
8
BLACK
10
17.5359999999999978
20
-16.4399999999999977
40
0.175
0
CIRCLE
8
BLACK
10
20.0760000000000005
20
-16.4399999999999977
40
0.175
0
CIRCLE
8
BLACK
10
22.6159999999999997
20
-16.4399999999999977
40
0.175
0
CIRCLE
8
BLACK
10
25.1559999999999988
20
-16.4399999999999977
40
0.175
  0
ENDSEC
  0
EOF
