<?xml version="1.0" standalone="no"?>
 <!DOCTYPE svg PUBLIC "-//W3C//DTD SVG 1.1//EN" 
 "http://www.w3.org/Graphics/SVG/1.1/DTD/svg11.dtd"> 
<svg
  xmlns:svg="http://www.w3.org/2000/svg"
  xmlns="http://www.w3.org/2000/svg"
  xmlns:xlink="http://www.w3.org/1999/xlink"
  version="1.1"
  width="297.0022mm" height="210.0072mm" viewBox="0.0000 0.0000 297.0022 210.0072">
<title>SVG Image created as esp32-board-B_Mask.svg date 2024/11/20 22:04:15 </title>
  <desc>Image generated by PCBNEW </desc>
<g style="fill:#000000; fill-opacity:1.0000;stroke:#000000; stroke-opacity:1.0000;
stroke-linecap:round; stroke-linejoin:round;"
 transform="translate(0 0) scale(1 1)">
</g>
<g style="fill:none; 
stroke:#02FFEE; stroke-width:1.2700; stroke-opacity:1; 
stroke-linecap:round; stroke-linejoin:round;">
<path d="M123.8250 71.1200
L125.0950 71.1200
" />
<path d="M123.8250 73.7000
L125.0950 73.7000
" />
<path d="M123.8250 76.2000
L125.0950 76.2000
" />
<path d="M123.8250 78.7400
L125.0950 78.7400
" />
<path d="M123.8250 81.2800
L125.0950 81.2800
" />
<path d="M123.8250 83.8200
L125.0950 83.8200
" />
<path d="M123.8250 86.3600
L125.0950 86.3600
" />
<path d="M123.8250 88.9000
L125.0950 88.9000
" />
<path d="M123.8250 91.4400
L125.0950 91.4400
" />
<path d="M123.8250 93.9800
L125.0950 93.9800
" />
<path d="M123.8250 96.5200
L125.0950 96.5200
" />
<path d="M123.8250 99.0600
L125.0950 99.0600
" />
<path d="M123.8250 101.6000
L125.0950 101.6000
" />
<path d="M123.8250 104.1400
L125.0950 104.1400
" />
<path d="M123.8250 106.6800
L125.0950 106.6800
" />
<path d="M149.2250 106.6800
L150.4950 106.6800
" />
<path d="M149.2250 104.1400
L150.4950 104.1400
" />
<path d="M149.2250 101.6000
L150.4950 101.6000
" />
<path d="M149.2250 99.0600
L150.4950 99.0600
" />
<path d="M149.2250 96.5200
L150.4950 96.5200
" />
<path d="M149.2250 93.9800
L150.4950 93.9800
" />
<path d="M149.2250 91.4400
L150.4950 91.4400
" />
<path d="M149.2250 88.9000
L150.4950 88.9000
" />
<path d="M149.2250 86.3600
L150.4950 86.3600
" />
<path d="M149.2250 83.8200
L150.4950 83.8200
" />
<path d="M149.2250 81.2800
L150.4950 81.2800
" />
<path d="M149.2250 78.7400
L150.4950 78.7400
" />
<path d="M149.2250 76.2000
L150.4950 76.2000
" />
<path d="M149.2250 73.7000
L150.4950 73.7000
" />
<path d="M149.2250 71.1200
L150.4950 71.1200
" />
<path style="fill:#02FFEE; fill-opacity:0.4000; stroke:none;fill-rule:evenodd;"
d="M 123.6100,71.9700
123.6100,70.2700
125.3100,70.2700
125.3100,71.9700
Z" /> 
</g>
<g style="fill:#02FFEE; fill-opacity:0.4000; stroke:none;">
<circle cx="124.4600" cy="73.6600" r="0.8255" /> 
<circle cx="124.4600" cy="76.2000" r="0.8255" /> 
<circle cx="124.4600" cy="78.7400" r="0.8255" /> 
<circle cx="124.4600" cy="81.2800" r="0.8255" /> 
<circle cx="124.4600" cy="83.8200" r="0.8255" /> 
<circle cx="124.4600" cy="86.3600" r="0.8255" /> 
<circle cx="124.4600" cy="88.9000" r="0.8255" /> 
<circle cx="124.4600" cy="91.4400" r="0.8255" /> 
<circle cx="124.4600" cy="93.9800" r="0.8255" /> 
<circle cx="124.4600" cy="96.5200" r="0.8255" /> 
<circle cx="124.4600" cy="99.0600" r="0.8255" /> 
<circle cx="124.4600" cy="101.6000" r="0.8255" /> 
<circle cx="124.4600" cy="104.1400" r="0.8255" /> 
<circle cx="124.4600" cy="106.6800" r="0.8255" /> 
<path style="fill:#02FFEE; fill-opacity:0.4000; stroke:none;fill-rule:evenodd;"
d="M 150.7100,105.8250
150.7100,107.5250
149.0100,107.5250
149.0100,105.8250
Z" /> 
<circle cx="149.8600" cy="104.1350" r="0.8255" /> 
<circle cx="149.8600" cy="101.5950" r="0.8255" /> 
<circle cx="149.8600" cy="99.0550" r="0.8255" /> 
<circle cx="149.8600" cy="96.5150" r="0.8255" /> 
<circle cx="149.8600" cy="93.9750" r="0.8255" /> 
<circle cx="149.8600" cy="91.4350" r="0.8255" /> 
<circle cx="149.8600" cy="88.8950" r="0.8255" /> 
<circle cx="149.8600" cy="86.3550" r="0.8255" /> 
<circle cx="149.8600" cy="83.8150" r="0.8255" /> 
<circle cx="149.8600" cy="81.2750" r="0.8255" /> 
<circle cx="149.8600" cy="78.7350" r="0.8255" /> 
<circle cx="149.8600" cy="76.1950" r="0.8255" /> 
<circle cx="149.8600" cy="73.6550" r="0.8255" /> 
<circle cx="149.8600" cy="71.1150" r="0.8255" /> 
<path style="fill:#02FFEE; fill-opacity:0.4000; stroke:none;fill-rule:evenodd;"
d="M 179.4900,73.2400
179.4900,71.5400
181.1900,71.5400
181.1900,73.2400
Z" /> 
<circle cx="180.3400" cy="74.9300" r="0.8500" /> 
<circle cx="180.3400" cy="77.4700" r="0.8500" /> 
<circle cx="180.3400" cy="80.0100" r="0.8500" /> 
<circle cx="180.3400" cy="82.5500" r="0.8500" /> 
<circle cx="180.3400" cy="85.0900" r="0.8500" /> 
<path style="fill:#02FFEE; fill-opacity:0.4000; stroke:none;fill-rule:evenodd;"
d="M 160.2325,80.8600
158.5325,80.8600
158.5325,79.1600
160.2325,79.1600
Z" /> 
<circle cx="161.9225" cy="80.0100" r="0.8890" /> 
<circle cx="164.4625" cy="80.0100" r="0.8890" /> 
<circle cx="167.0025" cy="80.0100" r="0.8890" /> 
<path style="fill:#02FFEE; fill-opacity:0.4000; stroke:none;fill-rule:evenodd;"
d="M 182.0300,73.2400
182.0300,71.5400
183.7300,71.5400
183.7300,73.2400
Z" /> 
<circle cx="182.8800" cy="74.9300" r="0.8500" /> 
<circle cx="182.8800" cy="77.4700" r="0.8500" /> 
<circle cx="182.8800" cy="80.0100" r="0.8500" /> 
<circle cx="182.8800" cy="82.5500" r="0.8500" /> 
<circle cx="182.8800" cy="85.0900" r="0.8500" /> 
<path style="fill:#02FFEE; fill-opacity:0.4000; stroke:none;fill-rule:evenodd;"
d="M 151.3840,72.1360
151.3840,70.1040
153.4160,70.1040
153.4160,72.1360
Z" /> 
<circle cx="152.4000" cy="73.6600" r="0.8255" /> 
<circle cx="152.4000" cy="76.2000" r="0.8255" /> 
<circle cx="152.4000" cy="78.7400" r="0.8255" /> 
<circle cx="152.4000" cy="81.2800" r="0.8255" /> 
<circle cx="152.4000" cy="83.8200" r="0.8255" /> 
<circle cx="152.4000" cy="86.3600" r="0.8255" /> 
<circle cx="152.4000" cy="88.9000" r="0.8255" /> 
<circle cx="152.4000" cy="91.4400" r="0.8255" /> 
<circle cx="152.4000" cy="93.9800" r="0.8255" /> 
<circle cx="152.4000" cy="96.5200" r="0.8255" /> 
<circle cx="152.4000" cy="99.0600" r="0.8255" /> 
<circle cx="152.4000" cy="101.6000" r="0.8255" /> 
<circle cx="152.4000" cy="104.1400" r="0.8255" /> 
<circle cx="152.4000" cy="106.6800" r="0.8255" /> 
<path style="fill:#02FFEE; fill-opacity:0.4000; stroke:none;fill-rule:evenodd;"
d="M 178.8160,86.5990
178.8160,88.6310
176.7840,88.6310
176.7840,86.5990
Z" /> 
<circle cx="177.8000" cy="85.0750" r="0.8890" /> 
<circle cx="177.8000" cy="82.5350" r="0.8890" /> 
<circle cx="177.8000" cy="79.9950" r="0.8890" /> 
<circle cx="177.8000" cy="77.4550" r="0.8890" /> 
<circle cx="177.8000" cy="74.9150" r="0.8890" /> 
<circle cx="177.8000" cy="72.3750" r="0.8890" /> 
<circle cx="177.8000" cy="69.8350" r="1.0160" /> 
<path style="fill:#02FFEE; fill-opacity:0.4000; stroke:none;fill-rule:evenodd;"
d="M 122.7700,105.8250
122.7700,107.5250
121.0700,107.5250
121.0700,105.8250
Z" /> 
<circle cx="121.9200" cy="104.1350" r="0.8255" /> 
<circle cx="121.9200" cy="101.5950" r="0.8255" /> 
<circle cx="121.9200" cy="99.0550" r="0.8255" /> 
<circle cx="121.9200" cy="96.5150" r="0.8255" /> 
<circle cx="121.9200" cy="93.9750" r="0.8255" /> 
<circle cx="121.9200" cy="91.4350" r="0.8255" /> 
<circle cx="121.9200" cy="88.8950" r="0.8255" /> 
<circle cx="121.9200" cy="86.3550" r="0.8255" /> 
<circle cx="121.9200" cy="83.8150" r="0.8255" /> 
<circle cx="121.9200" cy="81.2750" r="0.8255" /> 
<circle cx="121.9200" cy="78.7350" r="0.8255" /> 
<circle cx="121.9200" cy="76.1950" r="0.8255" /> 
<circle cx="121.9200" cy="73.6550" r="0.8255" /> 
<circle cx="121.9200" cy="71.1150" r="0.8255" /> 
</g>
<g style="fill:#ECECEC; fill-opacity:1.0000; stroke:none;">
<circle cx="173.9900" cy="65.4050" r="0.8890" /> 
</g>
<g style="fill:#ECECEC; fill-opacity:1.0000; stroke:none;">
<circle cx="142.8725" cy="71.1200" r="0.8890" /> 
</g>
<g style="fill:#ECECEC; fill-opacity:1.0000; stroke:none;">
<circle cx="156.8425" cy="73.6600" r="0.8890" /> 
</g>
<g style="fill:#ECECEC; fill-opacity:1.0000; stroke:none;">
<circle cx="128.9025" cy="71.1200" r="0.8890" /> 
</g>
<g style="fill:#ECECEC; fill-opacity:1.0000; stroke:none;">
<circle cx="167.0025" cy="88.9000" r="0.8890" /> 
</g>
<g style="fill:#ECECEC; fill-opacity:1.0000; stroke:none;">
<circle cx="167.0025" cy="82.5500" r="0.8890" /> 
</g>
<g style="fill:#ECECEC; fill-opacity:1.0000; stroke:none;">
<circle cx="161.9225" cy="82.5500" r="0.8890" /> 
</g>
<g style="fill:#ECECEC; fill-opacity:1.0000; stroke:none;">
<circle cx="161.9225" cy="88.9000" r="0.8890" /> 
</g>
<g style="fill:#ECECEC; fill-opacity:1.0000; stroke:none;">
<circle cx="156.8425" cy="71.1200" r="0.8890" /> 
</g>
<g style="fill:#ECECEC; fill-opacity:1.0000; stroke:none;">
<circle cx="167.0025" cy="62.8650" r="0.8890" /> 
<path style="fill:#000000; fill-opacity:1.0000; 
stroke:#000000; stroke-width:0.1000; stroke-opacity:1; 
stroke-linecap:round; stroke-linejoin:round;fill-rule:evenodd;"
d="M 189.2300,93.9800
156.2100,93.9800
156.2100,116.8400
116.8400,116.8400
116.8400,60.9600
189.2300,60.9600
Z" /> 
</g>
<g style="fill:#000000; fill-opacity:1.0000; stroke:none;">
<circle cx="124.4600" cy="71.1200" r="0.3810" /> 
</g>
<g style="fill:#000000; fill-opacity:1.0000; stroke:none;">
<circle cx="124.4600" cy="73.7000" r="0.3810" /> 
</g>
<g style="fill:#000000; fill-opacity:1.0000; stroke:none;">
<circle cx="124.4600" cy="76.2000" r="0.3810" /> 
</g>
<g style="fill:#000000; fill-opacity:1.0000; stroke:none;">
<circle cx="124.4600" cy="78.7400" r="0.3810" /> 
</g>
<g style="fill:#000000; fill-opacity:1.0000; stroke:none;">
<circle cx="124.4600" cy="81.2800" r="0.3810" /> 
</g>
<g style="fill:#000000; fill-opacity:1.0000; stroke:none;">
<circle cx="124.4600" cy="83.8200" r="0.3810" /> 
</g>
<g style="fill:#000000; fill-opacity:1.0000; stroke:none;">
<circle cx="124.4600" cy="86.3600" r="0.3810" /> 
</g>
<g style="fill:#000000; fill-opacity:1.0000; stroke:none;">
<circle cx="124.4600" cy="88.9000" r="0.3810" /> 
</g>
<g style="fill:#000000; fill-opacity:1.0000; stroke:none;">
<circle cx="124.4600" cy="91.4400" r="0.3810" /> 
</g>
<g style="fill:#000000; fill-opacity:1.0000; stroke:none;">
<circle cx="124.4600" cy="93.9800" r="0.3810" /> 
</g>
<g style="fill:#000000; fill-opacity:1.0000; stroke:none;">
<circle cx="124.4600" cy="96.5200" r="0.3810" /> 
</g>
<g style="fill:#000000; fill-opacity:1.0000; stroke:none;">
<circle cx="124.4600" cy="99.0600" r="0.3810" /> 
</g>
<g style="fill:#000000; fill-opacity:1.0000; stroke:none;">
<circle cx="124.4600" cy="101.6000" r="0.3810" /> 
</g>
<g style="fill:#000000; fill-opacity:1.0000; stroke:none;">
<circle cx="124.4600" cy="104.1400" r="0.3810" /> 
</g>
<g style="fill:#000000; fill-opacity:1.0000; stroke:none;">
<circle cx="124.4600" cy="106.6800" r="0.3810" /> 
</g>
<g style="fill:#000000; fill-opacity:1.0000; stroke:none;">
<circle cx="149.8600" cy="106.6800" r="0.3810" /> 
</g>
<g style="fill:#000000; fill-opacity:1.0000; stroke:none;">
<circle cx="149.8600" cy="104.1400" r="0.3810" /> 
</g>
<g style="fill:#000000; fill-opacity:1.0000; stroke:none;">
<circle cx="149.8600" cy="101.6000" r="0.3810" /> 
</g>
<g style="fill:#000000; fill-opacity:1.0000; stroke:none;">
<circle cx="149.8600" cy="99.0600" r="0.3810" /> 
</g>
<g style="fill:#000000; fill-opacity:1.0000; stroke:none;">
<circle cx="149.8600" cy="96.5200" r="0.3810" /> 
</g>
<g style="fill:#000000; fill-opacity:1.0000; stroke:none;">
<circle cx="149.8600" cy="93.9800" r="0.3810" /> 
</g>
<g style="fill:#000000; fill-opacity:1.0000; stroke:none;">
<circle cx="149.8600" cy="91.4400" r="0.3810" /> 
</g>
<g style="fill:#000000; fill-opacity:1.0000; stroke:none;">
<circle cx="149.8600" cy="88.9000" r="0.3810" /> 
</g>
<g style="fill:#000000; fill-opacity:1.0000; stroke:none;">
<circle cx="149.8600" cy="86.3600" r="0.3810" /> 
</g>
<g style="fill:#000000; fill-opacity:1.0000; stroke:none;">
<circle cx="149.8600" cy="83.8200" r="0.3810" /> 
</g>
<g style="fill:#000000; fill-opacity:1.0000; stroke:none;">
<circle cx="149.8600" cy="81.2800" r="0.3810" /> 
</g>
<g style="fill:#000000; fill-opacity:1.0000; stroke:none;">
<circle cx="149.8600" cy="78.7400" r="0.3810" /> 
</g>
<g style="fill:#000000; fill-opacity:1.0000; stroke:none;">
<circle cx="149.8600" cy="76.2000" r="0.3810" /> 
</g>
<g style="fill:#000000; fill-opacity:1.0000; stroke:none;">
<circle cx="149.8600" cy="73.7000" r="0.3810" /> 
</g>
<g style="fill:#000000; fill-opacity:1.0000; stroke:none;">
<circle cx="149.8600" cy="71.1200" r="0.3810" /> 
</g>
<g style="fill:#000000; fill-opacity:1.0000; stroke:none;">
<circle cx="124.4600" cy="71.1200" r="0.3810" /> 
</g>
<g style="fill:#000000; fill-opacity:1.0000; stroke:none;">
<circle cx="124.4600" cy="73.6600" r="0.3810" /> 
</g>
<g style="fill:#000000; fill-opacity:1.0000; stroke:none;">
<circle cx="124.4600" cy="76.2000" r="0.3810" /> 
</g>
<g style="fill:#000000; fill-opacity:1.0000; stroke:none;">
<circle cx="124.4600" cy="78.7400" r="0.3810" /> 
</g>
<g style="fill:#000000; fill-opacity:1.0000; stroke:none;">
<circle cx="124.4600" cy="81.2800" r="0.3810" /> 
</g>
<g style="fill:#000000; fill-opacity:1.0000; stroke:none;">
<circle cx="124.4600" cy="83.8200" r="0.3810" /> 
</g>
<g style="fill:#000000; fill-opacity:1.0000; stroke:none;">
<circle cx="124.4600" cy="86.3600" r="0.3810" /> 
</g>
<g style="fill:#000000; fill-opacity:1.0000; stroke:none;">
<circle cx="124.4600" cy="88.9000" r="0.3810" /> 
</g>
<g style="fill:#000000; fill-opacity:1.0000; stroke:none;">
<circle cx="124.4600" cy="91.4400" r="0.3810" /> 
</g>
<g style="fill:#000000; fill-opacity:1.0000; stroke:none;">
<circle cx="124.4600" cy="93.9800" r="0.3810" /> 
</g>
<g style="fill:#000000; fill-opacity:1.0000; stroke:none;">
<circle cx="124.4600" cy="96.5200" r="0.3810" /> 
</g>
<g style="fill:#000000; fill-opacity:1.0000; stroke:none;">
<circle cx="124.4600" cy="99.0600" r="0.3810" /> 
</g>
<g style="fill:#000000; fill-opacity:1.0000; stroke:none;">
<circle cx="124.4600" cy="101.6000" r="0.3810" /> 
</g>
<g style="fill:#000000; fill-opacity:1.0000; stroke:none;">
<circle cx="124.4600" cy="104.1400" r="0.3810" /> 
</g>
<g style="fill:#000000; fill-opacity:1.0000; stroke:none;">
<circle cx="124.4600" cy="106.6800" r="0.3810" /> 
</g>
<g style="fill:#000000; fill-opacity:1.0000; stroke:none;">
<circle cx="149.8600" cy="106.6750" r="0.3810" /> 
</g>
<g style="fill:#000000; fill-opacity:1.0000; stroke:none;">
<circle cx="149.8600" cy="104.1350" r="0.3810" /> 
</g>
<g style="fill:#000000; fill-opacity:1.0000; stroke:none;">
<circle cx="149.8600" cy="101.5950" r="0.3810" /> 
</g>
<g style="fill:#000000; fill-opacity:1.0000; stroke:none;">
<circle cx="149.8600" cy="99.0550" r="0.3810" /> 
</g>
<g style="fill:#000000; fill-opacity:1.0000; stroke:none;">
<circle cx="149.8600" cy="96.5150" r="0.3810" /> 
</g>
<g style="fill:#000000; fill-opacity:1.0000; stroke:none;">
<circle cx="149.8600" cy="93.9750" r="0.3810" /> 
</g>
<g style="fill:#000000; fill-opacity:1.0000; stroke:none;">
<circle cx="149.8600" cy="91.4350" r="0.3810" /> 
</g>
<g style="fill:#000000; fill-opacity:1.0000; stroke:none;">
<circle cx="149.8600" cy="88.8950" r="0.3810" /> 
</g>
<g style="fill:#000000; fill-opacity:1.0000; stroke:none;">
<circle cx="149.8600" cy="86.3550" r="0.3810" /> 
</g>
<g style="fill:#000000; fill-opacity:1.0000; stroke:none;">
<circle cx="149.8600" cy="83.8150" r="0.3810" /> 
</g>
<g style="fill:#000000; fill-opacity:1.0000; stroke:none;">
<circle cx="149.8600" cy="81.2750" r="0.3810" /> 
</g>
<g style="fill:#000000; fill-opacity:1.0000; stroke:none;">
<circle cx="149.8600" cy="78.7350" r="0.3810" /> 
</g>
<g style="fill:#000000; fill-opacity:1.0000; stroke:none;">
<circle cx="149.8600" cy="76.1950" r="0.3810" /> 
</g>
<g style="fill:#000000; fill-opacity:1.0000; stroke:none;">
<circle cx="149.8600" cy="73.6550" r="0.3810" /> 
</g>
<g style="fill:#000000; fill-opacity:1.0000; stroke:none;">
<circle cx="149.8600" cy="71.1150" r="0.3810" /> 
</g>
<g style="fill:#000000; fill-opacity:1.0000; stroke:none;">
<circle cx="180.3400" cy="72.3900" r="0.5000" /> 
</g>
<g style="fill:#000000; fill-opacity:1.0000; stroke:none;">
<circle cx="180.3400" cy="74.9300" r="0.5000" /> 
</g>
<g style="fill:#000000; fill-opacity:1.0000; stroke:none;">
<circle cx="180.3400" cy="77.4700" r="0.5000" /> 
</g>
<g style="fill:#000000; fill-opacity:1.0000; stroke:none;">
<circle cx="180.3400" cy="80.0100" r="0.5000" /> 
</g>
<g style="fill:#000000; fill-opacity:1.0000; stroke:none;">
<circle cx="180.3400" cy="82.5500" r="0.5000" /> 
</g>
<g style="fill:#000000; fill-opacity:1.0000; stroke:none;">
<circle cx="180.3400" cy="85.0900" r="0.5000" /> 
</g>
<g style="fill:#000000; fill-opacity:1.0000; stroke:none;">
<circle cx="159.3825" cy="80.0100" r="0.3810" /> 
</g>
<g style="fill:#000000; fill-opacity:1.0000; stroke:none;">
<circle cx="161.9225" cy="80.0100" r="0.3810" /> 
</g>
<g style="fill:#000000; fill-opacity:1.0000; stroke:none;">
<circle cx="164.4625" cy="80.0100" r="0.3810" /> 
</g>
<g style="fill:#000000; fill-opacity:1.0000; stroke:none;">
<circle cx="167.0025" cy="80.0100" r="0.3810" /> 
</g>
<g style="fill:#000000; fill-opacity:1.0000; stroke:none;">
<circle cx="182.8800" cy="72.3900" r="0.5000" /> 
</g>
<g style="fill:#000000; fill-opacity:1.0000; stroke:none;">
<circle cx="182.8800" cy="74.9300" r="0.5000" /> 
</g>
<g style="fill:#000000; fill-opacity:1.0000; stroke:none;">
<circle cx="182.8800" cy="77.4700" r="0.5000" /> 
</g>
<g style="fill:#000000; fill-opacity:1.0000; stroke:none;">
<circle cx="182.8800" cy="80.0100" r="0.5000" /> 
</g>
<g style="fill:#000000; fill-opacity:1.0000; stroke:none;">
<circle cx="182.8800" cy="82.5500" r="0.5000" /> 
</g>
<g style="fill:#000000; fill-opacity:1.0000; stroke:none;">
<circle cx="182.8800" cy="85.0900" r="0.5000" /> 
</g>
<g style="fill:#000000; fill-opacity:1.0000; stroke:none;">
<circle cx="152.4000" cy="71.1200" r="0.3810" /> 
</g>
<g style="fill:#000000; fill-opacity:1.0000; stroke:none;">
<circle cx="152.4000" cy="73.6600" r="0.3810" /> 
</g>
<g style="fill:#000000; fill-opacity:1.0000; stroke:none;">
<circle cx="152.4000" cy="76.2000" r="0.3810" /> 
</g>
<g style="fill:#000000; fill-opacity:1.0000; stroke:none;">
<circle cx="152.4000" cy="78.7400" r="0.3810" /> 
</g>
<g style="fill:#000000; fill-opacity:1.0000; stroke:none;">
<circle cx="152.4000" cy="81.2800" r="0.3810" /> 
</g>
<g style="fill:#000000; fill-opacity:1.0000; stroke:none;">
<circle cx="152.4000" cy="83.8200" r="0.3810" /> 
</g>
<g style="fill:#000000; fill-opacity:1.0000; stroke:none;">
<circle cx="152.4000" cy="86.3600" r="0.3810" /> 
</g>
<g style="fill:#000000; fill-opacity:1.0000; stroke:none;">
<circle cx="152.4000" cy="88.9000" r="0.3810" /> 
</g>
<g style="fill:#000000; fill-opacity:1.0000; stroke:none;">
<circle cx="152.4000" cy="91.4400" r="0.3810" /> 
</g>
<g style="fill:#000000; fill-opacity:1.0000; stroke:none;">
<circle cx="152.4000" cy="93.9800" r="0.3810" /> 
</g>
<g style="fill:#000000; fill-opacity:1.0000; stroke:none;">
<circle cx="152.4000" cy="96.5200" r="0.3810" /> 
</g>
<g style="fill:#000000; fill-opacity:1.0000; stroke:none;">
<circle cx="152.4000" cy="99.0600" r="0.3810" /> 
</g>
<g style="fill:#000000; fill-opacity:1.0000; stroke:none;">
<circle cx="152.4000" cy="101.6000" r="0.3810" /> 
</g>
<g style="fill:#000000; fill-opacity:1.0000; stroke:none;">
<circle cx="152.4000" cy="104.1400" r="0.3810" /> 
</g>
<g style="fill:#000000; fill-opacity:1.0000; stroke:none;">
<circle cx="152.4000" cy="106.6800" r="0.3810" /> 
</g>
<g style="fill:#000000; fill-opacity:1.0000; stroke:none;">
<circle cx="177.8000" cy="87.6150" r="0.3810" /> 
</g>
<g style="fill:#000000; fill-opacity:1.0000; stroke:none;">
<circle cx="177.8000" cy="85.0750" r="0.3810" /> 
</g>
<g style="fill:#000000; fill-opacity:1.0000; stroke:none;">
<circle cx="177.8000" cy="82.5350" r="0.3810" /> 
</g>
<g style="fill:#000000; fill-opacity:1.0000; stroke:none;">
<circle cx="177.8000" cy="79.9950" r="0.3810" /> 
</g>
<g style="fill:#000000; fill-opacity:1.0000; stroke:none;">
<circle cx="177.8000" cy="77.4550" r="0.3810" /> 
</g>
<g style="fill:#000000; fill-opacity:1.0000; stroke:none;">
<circle cx="177.8000" cy="74.9150" r="0.3810" /> 
</g>
<g style="fill:#000000; fill-opacity:1.0000; stroke:none;">
<circle cx="177.8000" cy="72.3750" r="0.3810" /> 
</g>
<g style="fill:#000000; fill-opacity:1.0000; stroke:none;">
<circle cx="177.8000" cy="69.8350" r="0.3810" /> 
</g>
<g style="fill:#000000; fill-opacity:1.0000; stroke:none;">
<circle cx="121.9200" cy="106.6750" r="0.3810" /> 
</g>
<g style="fill:#000000; fill-opacity:1.0000; stroke:none;">
<circle cx="121.9200" cy="104.1350" r="0.3810" /> 
</g>
<g style="fill:#000000; fill-opacity:1.0000; stroke:none;">
<circle cx="121.9200" cy="101.5950" r="0.3810" /> 
</g>
<g style="fill:#000000; fill-opacity:1.0000; stroke:none;">
<circle cx="121.9200" cy="99.0550" r="0.3810" /> 
</g>
<g style="fill:#000000; fill-opacity:1.0000; stroke:none;">
<circle cx="121.9200" cy="96.5150" r="0.3810" /> 
</g>
<g style="fill:#000000; fill-opacity:1.0000; stroke:none;">
<circle cx="121.9200" cy="93.9750" r="0.3810" /> 
</g>
<g style="fill:#000000; fill-opacity:1.0000; stroke:none;">
<circle cx="121.9200" cy="91.4350" r="0.3810" /> 
</g>
<g style="fill:#000000; fill-opacity:1.0000; stroke:none;">
<circle cx="121.9200" cy="88.8950" r="0.3810" /> 
</g>
<g style="fill:#000000; fill-opacity:1.0000; stroke:none;">
<circle cx="121.9200" cy="86.3550" r="0.3810" /> 
</g>
<g style="fill:#000000; fill-opacity:1.0000; stroke:none;">
<circle cx="121.9200" cy="83.8150" r="0.3810" /> 
</g>
<g style="fill:#000000; fill-opacity:1.0000; stroke:none;">
<circle cx="121.9200" cy="81.2750" r="0.3810" /> 
</g>
<g style="fill:#000000; fill-opacity:1.0000; stroke:none;">
<circle cx="121.9200" cy="78.7350" r="0.3810" /> 
</g>
<g style="fill:#000000; fill-opacity:1.0000; stroke:none;">
<circle cx="121.9200" cy="76.1950" r="0.3810" /> 
</g>
<g style="fill:#000000; fill-opacity:1.0000; stroke:none;">
<circle cx="121.9200" cy="73.6550" r="0.3810" /> 
</g>
<g style="fill:#000000; fill-opacity:1.0000; stroke:none;">
<circle cx="121.9200" cy="71.1150" r="0.3810" /> 
</g>
<g style="fill:none; 
stroke:#00FF00; stroke-width:0.0500; stroke-opacity:1; 
stroke-linecap:round; stroke-linejoin:round;">
<path d="M118.1075 61.5950
L118.1075 116.2050
" />
<path d="M188.5925 92.7100
L188.5925 61.5950
" />
<circle cx="186.0525" cy="63.5000" r="1.2700" /> 
<circle cx="120.0125" cy="114.3000" r="1.2700" /> 
<path d="M154.9375 116.2050
L154.9375 92.7100
" />
<circle cx="120.0125" cy="63.5000" r="1.2700" /> 
<path d="M154.9375 92.7100
L188.5925 92.7100
" />
<circle cx="186.0525" cy="90.1700" r="1.2700" /> 
<path d="M118.1075 116.2050
L154.9375 116.2050
" />
<path d="M188.5925 61.5950
L118.1075 61.5950
" />
<circle cx="153.0325" cy="114.3000" r="1.2700" /> 
</g>
<g style="fill:#00FF00; fill-opacity:1.0000; stroke:none;">
<circle cx="124.4600" cy="71.1200" r="0.3810" /> 
</g>
<g style="fill:#00FF00; fill-opacity:1.0000; stroke:none;">
<circle cx="124.4600" cy="73.7000" r="0.3810" /> 
</g>
<g style="fill:#00FF00; fill-opacity:1.0000; stroke:none;">
<circle cx="124.4600" cy="76.2000" r="0.3810" /> 
</g>
<g style="fill:#00FF00; fill-opacity:1.0000; stroke:none;">
<circle cx="124.4600" cy="78.7400" r="0.3810" /> 
</g>
<g style="fill:#00FF00; fill-opacity:1.0000; stroke:none;">
<circle cx="124.4600" cy="81.2800" r="0.3810" /> 
</g>
<g style="fill:#00FF00; fill-opacity:1.0000; stroke:none;">
<circle cx="124.4600" cy="83.8200" r="0.3810" /> 
</g>
<g style="fill:#00FF00; fill-opacity:1.0000; stroke:none;">
<circle cx="124.4600" cy="86.3600" r="0.3810" /> 
</g>
<g style="fill:#00FF00; fill-opacity:1.0000; stroke:none;">
<circle cx="124.4600" cy="88.9000" r="0.3810" /> 
</g>
<g style="fill:#00FF00; fill-opacity:1.0000; stroke:none;">
<circle cx="124.4600" cy="91.4400" r="0.3810" /> 
</g>
<g style="fill:#00FF00; fill-opacity:1.0000; stroke:none;">
<circle cx="124.4600" cy="93.9800" r="0.3810" /> 
</g>
<g style="fill:#00FF00; fill-opacity:1.0000; stroke:none;">
<circle cx="124.4600" cy="96.5200" r="0.3810" /> 
</g>
<g style="fill:#00FF00; fill-opacity:1.0000; stroke:none;">
<circle cx="124.4600" cy="99.0600" r="0.3810" /> 
</g>
<g style="fill:#00FF00; fill-opacity:1.0000; stroke:none;">
<circle cx="124.4600" cy="101.6000" r="0.3810" /> 
</g>
<g style="fill:#00FF00; fill-opacity:1.0000; stroke:none;">
<circle cx="124.4600" cy="104.1400" r="0.3810" /> 
</g>
<g style="fill:#00FF00; fill-opacity:1.0000; stroke:none;">
<circle cx="124.4600" cy="106.6800" r="0.3810" /> 
</g>
<g style="fill:#00FF00; fill-opacity:1.0000; stroke:none;">
<circle cx="149.8600" cy="106.6800" r="0.3810" /> 
</g>
<g style="fill:#00FF00; fill-opacity:1.0000; stroke:none;">
<circle cx="149.8600" cy="104.1400" r="0.3810" /> 
</g>
<g style="fill:#00FF00; fill-opacity:1.0000; stroke:none;">
<circle cx="149.8600" cy="101.6000" r="0.3810" /> 
</g>
<g style="fill:#00FF00; fill-opacity:1.0000; stroke:none;">
<circle cx="149.8600" cy="99.0600" r="0.3810" /> 
</g>
<g style="fill:#00FF00; fill-opacity:1.0000; stroke:none;">
<circle cx="149.8600" cy="96.5200" r="0.3810" /> 
</g>
<g style="fill:#00FF00; fill-opacity:1.0000; stroke:none;">
<circle cx="149.8600" cy="93.9800" r="0.3810" /> 
</g>
<g style="fill:#00FF00; fill-opacity:1.0000; stroke:none;">
<circle cx="149.8600" cy="91.4400" r="0.3810" /> 
</g>
<g style="fill:#00FF00; fill-opacity:1.0000; stroke:none;">
<circle cx="149.8600" cy="88.9000" r="0.3810" /> 
</g>
<g style="fill:#00FF00; fill-opacity:1.0000; stroke:none;">
<circle cx="149.8600" cy="86.3600" r="0.3810" /> 
</g>
<g style="fill:#00FF00; fill-opacity:1.0000; stroke:none;">
<circle cx="149.8600" cy="83.8200" r="0.3810" /> 
</g>
<g style="fill:#00FF00; fill-opacity:1.0000; stroke:none;">
<circle cx="149.8600" cy="81.2800" r="0.3810" /> 
</g>
<g style="fill:#00FF00; fill-opacity:1.0000; stroke:none;">
<circle cx="149.8600" cy="78.7400" r="0.3810" /> 
</g>
<g style="fill:#00FF00; fill-opacity:1.0000; stroke:none;">
<circle cx="149.8600" cy="76.2000" r="0.3810" /> 
</g>
<g style="fill:#00FF00; fill-opacity:1.0000; stroke:none;">
<circle cx="149.8600" cy="73.7000" r="0.3810" /> 
</g>
<g style="fill:#00FF00; fill-opacity:1.0000; stroke:none;">
<circle cx="149.8600" cy="71.1200" r="0.3810" /> 
</g>
<g style="fill:#00FF00; fill-opacity:1.0000; stroke:none;">
<circle cx="124.4600" cy="71.1200" r="0.3810" /> 
</g>
<g style="fill:#00FF00; fill-opacity:1.0000; stroke:none;">
<circle cx="124.4600" cy="73.6600" r="0.3810" /> 
</g>
<g style="fill:#00FF00; fill-opacity:1.0000; stroke:none;">
<circle cx="124.4600" cy="76.2000" r="0.3810" /> 
</g>
<g style="fill:#00FF00; fill-opacity:1.0000; stroke:none;">
<circle cx="124.4600" cy="78.7400" r="0.3810" /> 
</g>
<g style="fill:#00FF00; fill-opacity:1.0000; stroke:none;">
<circle cx="124.4600" cy="81.2800" r="0.3810" /> 
</g>
<g style="fill:#00FF00; fill-opacity:1.0000; stroke:none;">
<circle cx="124.4600" cy="83.8200" r="0.3810" /> 
</g>
<g style="fill:#00FF00; fill-opacity:1.0000; stroke:none;">
<circle cx="124.4600" cy="86.3600" r="0.3810" /> 
</g>
<g style="fill:#00FF00; fill-opacity:1.0000; stroke:none;">
<circle cx="124.4600" cy="88.9000" r="0.3810" /> 
</g>
<g style="fill:#00FF00; fill-opacity:1.0000; stroke:none;">
<circle cx="124.4600" cy="91.4400" r="0.3810" /> 
</g>
<g style="fill:#00FF00; fill-opacity:1.0000; stroke:none;">
<circle cx="124.4600" cy="93.9800" r="0.3810" /> 
</g>
<g style="fill:#00FF00; fill-opacity:1.0000; stroke:none;">
<circle cx="124.4600" cy="96.5200" r="0.3810" /> 
</g>
<g style="fill:#00FF00; fill-opacity:1.0000; stroke:none;">
<circle cx="124.4600" cy="99.0600" r="0.3810" /> 
</g>
<g style="fill:#00FF00; fill-opacity:1.0000; stroke:none;">
<circle cx="124.4600" cy="101.6000" r="0.3810" /> 
</g>
<g style="fill:#00FF00; fill-opacity:1.0000; stroke:none;">
<circle cx="124.4600" cy="104.1400" r="0.3810" /> 
</g>
<g style="fill:#00FF00; fill-opacity:1.0000; stroke:none;">
<circle cx="124.4600" cy="106.6800" r="0.3810" /> 
</g>
<g style="fill:#00FF00; fill-opacity:1.0000; stroke:none;">
<circle cx="149.8600" cy="106.6750" r="0.3810" /> 
</g>
<g style="fill:#00FF00; fill-opacity:1.0000; stroke:none;">
<circle cx="149.8600" cy="104.1350" r="0.3810" /> 
</g>
<g style="fill:#00FF00; fill-opacity:1.0000; stroke:none;">
<circle cx="149.8600" cy="101.5950" r="0.3810" /> 
</g>
<g style="fill:#00FF00; fill-opacity:1.0000; stroke:none;">
<circle cx="149.8600" cy="99.0550" r="0.3810" /> 
</g>
<g style="fill:#00FF00; fill-opacity:1.0000; stroke:none;">
<circle cx="149.8600" cy="96.5150" r="0.3810" /> 
</g>
<g style="fill:#00FF00; fill-opacity:1.0000; stroke:none;">
<circle cx="149.8600" cy="93.9750" r="0.3810" /> 
</g>
<g style="fill:#00FF00; fill-opacity:1.0000; stroke:none;">
<circle cx="149.8600" cy="91.4350" r="0.3810" /> 
</g>
<g style="fill:#00FF00; fill-opacity:1.0000; stroke:none;">
<circle cx="149.8600" cy="88.8950" r="0.3810" /> 
</g>
<g style="fill:#00FF00; fill-opacity:1.0000; stroke:none;">
<circle cx="149.8600" cy="86.3550" r="0.3810" /> 
</g>
<g style="fill:#00FF00; fill-opacity:1.0000; stroke:none;">
<circle cx="149.8600" cy="83.8150" r="0.3810" /> 
</g>
<g style="fill:#00FF00; fill-opacity:1.0000; stroke:none;">
<circle cx="149.8600" cy="81.2750" r="0.3810" /> 
</g>
<g style="fill:#00FF00; fill-opacity:1.0000; stroke:none;">
<circle cx="149.8600" cy="78.7350" r="0.3810" /> 
</g>
<g style="fill:#00FF00; fill-opacity:1.0000; stroke:none;">
<circle cx="149.8600" cy="76.1950" r="0.3810" /> 
</g>
<g style="fill:#00FF00; fill-opacity:1.0000; stroke:none;">
<circle cx="149.8600" cy="73.6550" r="0.3810" /> 
</g>
<g style="fill:#00FF00; fill-opacity:1.0000; stroke:none;">
<circle cx="149.8600" cy="71.1150" r="0.3810" /> 
</g>
<g style="fill:#00FF00; fill-opacity:1.0000; stroke:none;">
<circle cx="180.3400" cy="72.3900" r="0.5000" /> 
</g>
<g style="fill:#00FF00; fill-opacity:1.0000; stroke:none;">
<circle cx="180.3400" cy="74.9300" r="0.5000" /> 
</g>
<g style="fill:#00FF00; fill-opacity:1.0000; stroke:none;">
<circle cx="180.3400" cy="77.4700" r="0.5000" /> 
</g>
<g style="fill:#00FF00; fill-opacity:1.0000; stroke:none;">
<circle cx="180.3400" cy="80.0100" r="0.5000" /> 
</g>
<g style="fill:#00FF00; fill-opacity:1.0000; stroke:none;">
<circle cx="180.3400" cy="82.5500" r="0.5000" /> 
</g>
<g style="fill:#00FF00; fill-opacity:1.0000; stroke:none;">
<circle cx="180.3400" cy="85.0900" r="0.5000" /> 
</g>
<g style="fill:#00FF00; fill-opacity:1.0000; stroke:none;">
<circle cx="159.3825" cy="80.0100" r="0.3810" /> 
</g>
<g style="fill:#00FF00; fill-opacity:1.0000; stroke:none;">
<circle cx="161.9225" cy="80.0100" r="0.3810" /> 
</g>
<g style="fill:#00FF00; fill-opacity:1.0000; stroke:none;">
<circle cx="164.4625" cy="80.0100" r="0.3810" /> 
</g>
<g style="fill:#00FF00; fill-opacity:1.0000; stroke:none;">
<circle cx="167.0025" cy="80.0100" r="0.3810" /> 
</g>
<g style="fill:#00FF00; fill-opacity:1.0000; stroke:none;">
<circle cx="182.8800" cy="72.3900" r="0.5000" /> 
</g>
<g style="fill:#00FF00; fill-opacity:1.0000; stroke:none;">
<circle cx="182.8800" cy="74.9300" r="0.5000" /> 
</g>
<g style="fill:#00FF00; fill-opacity:1.0000; stroke:none;">
<circle cx="182.8800" cy="77.4700" r="0.5000" /> 
</g>
<g style="fill:#00FF00; fill-opacity:1.0000; stroke:none;">
<circle cx="182.8800" cy="80.0100" r="0.5000" /> 
</g>
<g style="fill:#00FF00; fill-opacity:1.0000; stroke:none;">
<circle cx="182.8800" cy="82.5500" r="0.5000" /> 
</g>
<g style="fill:#00FF00; fill-opacity:1.0000; stroke:none;">
<circle cx="182.8800" cy="85.0900" r="0.5000" /> 
</g>
<g style="fill:#00FF00; fill-opacity:1.0000; stroke:none;">
<circle cx="152.4000" cy="71.1200" r="0.3810" /> 
</g>
<g style="fill:#00FF00; fill-opacity:1.0000; stroke:none;">
<circle cx="152.4000" cy="73.6600" r="0.3810" /> 
</g>
<g style="fill:#00FF00; fill-opacity:1.0000; stroke:none;">
<circle cx="152.4000" cy="76.2000" r="0.3810" /> 
</g>
<g style="fill:#00FF00; fill-opacity:1.0000; stroke:none;">
<circle cx="152.4000" cy="78.7400" r="0.3810" /> 
</g>
<g style="fill:#00FF00; fill-opacity:1.0000; stroke:none;">
<circle cx="152.4000" cy="81.2800" r="0.3810" /> 
</g>
<g style="fill:#00FF00; fill-opacity:1.0000; stroke:none;">
<circle cx="152.4000" cy="83.8200" r="0.3810" /> 
</g>
<g style="fill:#00FF00; fill-opacity:1.0000; stroke:none;">
<circle cx="152.4000" cy="86.3600" r="0.3810" /> 
</g>
<g style="fill:#00FF00; fill-opacity:1.0000; stroke:none;">
<circle cx="152.4000" cy="88.9000" r="0.3810" /> 
</g>
<g style="fill:#00FF00; fill-opacity:1.0000; stroke:none;">
<circle cx="152.4000" cy="91.4400" r="0.3810" /> 
</g>
<g style="fill:#00FF00; fill-opacity:1.0000; stroke:none;">
<circle cx="152.4000" cy="93.9800" r="0.3810" /> 
</g>
<g style="fill:#00FF00; fill-opacity:1.0000; stroke:none;">
<circle cx="152.4000" cy="96.5200" r="0.3810" /> 
</g>
<g style="fill:#00FF00; fill-opacity:1.0000; stroke:none;">
<circle cx="152.4000" cy="99.0600" r="0.3810" /> 
</g>
<g style="fill:#00FF00; fill-opacity:1.0000; stroke:none;">
<circle cx="152.4000" cy="101.6000" r="0.3810" /> 
</g>
<g style="fill:#00FF00; fill-opacity:1.0000; stroke:none;">
<circle cx="152.4000" cy="104.1400" r="0.3810" /> 
</g>
<g style="fill:#00FF00; fill-opacity:1.0000; stroke:none;">
<circle cx="152.4000" cy="106.6800" r="0.3810" /> 
</g>
<g style="fill:#00FF00; fill-opacity:1.0000; stroke:none;">
<circle cx="177.8000" cy="87.6150" r="0.3810" /> 
</g>
<g style="fill:#00FF00; fill-opacity:1.0000; stroke:none;">
<circle cx="177.8000" cy="85.0750" r="0.3810" /> 
</g>
<g style="fill:#00FF00; fill-opacity:1.0000; stroke:none;">
<circle cx="177.8000" cy="82.5350" r="0.3810" /> 
</g>
<g style="fill:#00FF00; fill-opacity:1.0000; stroke:none;">
<circle cx="177.8000" cy="79.9950" r="0.3810" /> 
</g>
<g style="fill:#00FF00; fill-opacity:1.0000; stroke:none;">
<circle cx="177.8000" cy="77.4550" r="0.3810" /> 
</g>
<g style="fill:#00FF00; fill-opacity:1.0000; stroke:none;">
<circle cx="177.8000" cy="74.9150" r="0.3810" /> 
</g>
<g style="fill:#00FF00; fill-opacity:1.0000; stroke:none;">
<circle cx="177.8000" cy="72.3750" r="0.3810" /> 
</g>
<g style="fill:#00FF00; fill-opacity:1.0000; stroke:none;">
<circle cx="177.8000" cy="69.8350" r="0.3810" /> 
</g>
<g style="fill:#00FF00; fill-opacity:1.0000; stroke:none;">
<circle cx="121.9200" cy="106.6750" r="0.3810" /> 
</g>
<g style="fill:#00FF00; fill-opacity:1.0000; stroke:none;">
<circle cx="121.9200" cy="104.1350" r="0.3810" /> 
</g>
<g style="fill:#00FF00; fill-opacity:1.0000; stroke:none;">
<circle cx="121.9200" cy="101.5950" r="0.3810" /> 
</g>
<g style="fill:#00FF00; fill-opacity:1.0000; stroke:none;">
<circle cx="121.9200" cy="99.0550" r="0.3810" /> 
</g>
<g style="fill:#00FF00; fill-opacity:1.0000; stroke:none;">
<circle cx="121.9200" cy="96.5150" r="0.3810" /> 
</g>
<g style="fill:#00FF00; fill-opacity:1.0000; stroke:none;">
<circle cx="121.9200" cy="93.9750" r="0.3810" /> 
</g>
<g style="fill:#00FF00; fill-opacity:1.0000; stroke:none;">
<circle cx="121.9200" cy="91.4350" r="0.3810" /> 
</g>
<g style="fill:#00FF00; fill-opacity:1.0000; stroke:none;">
<circle cx="121.9200" cy="88.8950" r="0.3810" /> 
</g>
<g style="fill:#00FF00; fill-opacity:1.0000; stroke:none;">
<circle cx="121.9200" cy="86.3550" r="0.3810" /> 
</g>
<g style="fill:#00FF00; fill-opacity:1.0000; stroke:none;">
<circle cx="121.9200" cy="83.8150" r="0.3810" /> 
</g>
<g style="fill:#00FF00; fill-opacity:1.0000; stroke:none;">
<circle cx="121.9200" cy="81.2750" r="0.3810" /> 
</g>
<g style="fill:#00FF00; fill-opacity:1.0000; stroke:none;">
<circle cx="121.9200" cy="78.7350" r="0.3810" /> 
</g>
<g style="fill:#00FF00; fill-opacity:1.0000; stroke:none;">
<circle cx="121.9200" cy="76.1950" r="0.3810" /> 
</g>
<g style="fill:#00FF00; fill-opacity:1.0000; stroke:none;">
<circle cx="121.9200" cy="73.6550" r="0.3810" /> 
</g>
<g style="fill:#00FF00; fill-opacity:1.0000; stroke:none;">
<circle cx="121.9200" cy="71.1150" r="0.3810" /> 
</g> 
</svg>
