<?xml version="1.0" standalone="no"?>
 <!DOCTYPE svg PUBLIC "-//W3C//DTD SVG 1.1//EN" 
 "http://www.w3.org/Graphics/SVG/1.1/DTD/svg11.dtd"> 
<svg
  xmlns:svg="http://www.w3.org/2000/svg"
  xmlns="http://www.w3.org/2000/svg"
  xmlns:xlink="http://www.w3.org/1999/xlink"
  version="1.1"
  width="297.0022mm" height="210.0072mm" viewBox="0.0000 0.0000 297.0022 210.0072">
<title>SVG Image created as esp32-board-B_Adhesive.svg date 2024/11/20 21:25:03 </title>
  <desc>Image generated by PCBNEW </desc>
<g style="fill:#000000; fill-opacity:1.0000;stroke:#000000; stroke-opacity:1.0000;
stroke-linecap:round; stroke-linejoin:round;"
 transform="translate(0 0) scale(1 1)">
</g>
<g style="fill:#000000; fill-opacity:1.0000; 
stroke:#000000; stroke-width:0.0212; stroke-opacity:1; 
stroke-linecap:round; stroke-linejoin:round;">
<rect x="111.840000" y="55.960000" width="82.390000" height="65.880000" rx="0.000000" />
</g>
<g style="fill:none; 
stroke:#2F2D31; stroke-width:0.0500; stroke-opacity:1; 
stroke-linecap:round; stroke-linejoin:round;">
<path d="M118.1075 61.5950
L118.1075 116.2050
" />
<path d="M188.5925 92.7100
L188.5925 61.5950
" />
<circle cx="186.0525" cy="63.5000" r="1.2700" /> 
<circle cx="120.0125" cy="114.3000" r="1.2700" /> 
<path d="M154.9375 116.2050
L154.9375 92.7100
" />
<circle cx="120.0125" cy="63.5000" r="1.2700" /> 
<path d="M154.9375 92.7100
L188.5925 92.7100
" />
<circle cx="186.0525" cy="90.1700" r="1.2700" /> 
<path d="M118.1075 116.2050
L154.9375 116.2050
" />
<path d="M188.5925 61.5950
L118.1075 61.5950
" />
<circle cx="153.0325" cy="114.3000" r="1.2700" /> 
</g>
<g style="fill:#2F2D31; fill-opacity:1.0000; stroke:none;">
<circle cx="124.4600" cy="71.1200" r="0.3810" /> 
</g>
<g style="fill:#2F2D31; fill-opacity:1.0000; stroke:none;">
<circle cx="124.4600" cy="73.7000" r="0.3810" /> 
</g>
<g style="fill:#2F2D31; fill-opacity:1.0000; stroke:none;">
<circle cx="124.4600" cy="76.2000" r="0.3810" /> 
</g>
<g style="fill:#2F2D31; fill-opacity:1.0000; stroke:none;">
<circle cx="124.4600" cy="78.7400" r="0.3810" /> 
</g>
<g style="fill:#2F2D31; fill-opacity:1.0000; stroke:none;">
<circle cx="124.4600" cy="81.2800" r="0.3810" /> 
</g>
<g style="fill:#2F2D31; fill-opacity:1.0000; stroke:none;">
<circle cx="124.4600" cy="83.8200" r="0.3810" /> 
</g>
<g style="fill:#2F2D31; fill-opacity:1.0000; stroke:none;">
<circle cx="124.4600" cy="86.3600" r="0.3810" /> 
</g>
<g style="fill:#2F2D31; fill-opacity:1.0000; stroke:none;">
<circle cx="124.4600" cy="88.9000" r="0.3810" /> 
</g>
<g style="fill:#2F2D31; fill-opacity:1.0000; stroke:none;">
<circle cx="124.4600" cy="91.4400" r="0.3810" /> 
</g>
<g style="fill:#2F2D31; fill-opacity:1.0000; stroke:none;">
<circle cx="124.4600" cy="93.9800" r="0.3810" /> 
</g>
<g style="fill:#2F2D31; fill-opacity:1.0000; stroke:none;">
<circle cx="124.4600" cy="96.5200" r="0.3810" /> 
</g>
<g style="fill:#2F2D31; fill-opacity:1.0000; stroke:none;">
<circle cx="124.4600" cy="99.0600" r="0.3810" /> 
</g>
<g style="fill:#2F2D31; fill-opacity:1.0000; stroke:none;">
<circle cx="124.4600" cy="101.6000" r="0.3810" /> 
</g>
<g style="fill:#2F2D31; fill-opacity:1.0000; stroke:none;">
<circle cx="124.4600" cy="104.1400" r="0.3810" /> 
</g>
<g style="fill:#2F2D31; fill-opacity:1.0000; stroke:none;">
<circle cx="124.4600" cy="106.6800" r="0.3810" /> 
</g>
<g style="fill:#2F2D31; fill-opacity:1.0000; stroke:none;">
<circle cx="149.8600" cy="106.6800" r="0.3810" /> 
</g>
<g style="fill:#2F2D31; fill-opacity:1.0000; stroke:none;">
<circle cx="149.8600" cy="104.1400" r="0.3810" /> 
</g>
<g style="fill:#2F2D31; fill-opacity:1.0000; stroke:none;">
<circle cx="149.8600" cy="101.6000" r="0.3810" /> 
</g>
<g style="fill:#2F2D31; fill-opacity:1.0000; stroke:none;">
<circle cx="149.8600" cy="99.0600" r="0.3810" /> 
</g>
<g style="fill:#2F2D31; fill-opacity:1.0000; stroke:none;">
<circle cx="149.8600" cy="96.5200" r="0.3810" /> 
</g>
<g style="fill:#2F2D31; fill-opacity:1.0000; stroke:none;">
<circle cx="149.8600" cy="93.9800" r="0.3810" /> 
</g>
<g style="fill:#2F2D31; fill-opacity:1.0000; stroke:none;">
<circle cx="149.8600" cy="91.4400" r="0.3810" /> 
</g>
<g style="fill:#2F2D31; fill-opacity:1.0000; stroke:none;">
<circle cx="149.8600" cy="88.9000" r="0.3810" /> 
</g>
<g style="fill:#2F2D31; fill-opacity:1.0000; stroke:none;">
<circle cx="149.8600" cy="86.3600" r="0.3810" /> 
</g>
<g style="fill:#2F2D31; fill-opacity:1.0000; stroke:none;">
<circle cx="149.8600" cy="83.8200" r="0.3810" /> 
</g>
<g style="fill:#2F2D31; fill-opacity:1.0000; stroke:none;">
<circle cx="149.8600" cy="81.2800" r="0.3810" /> 
</g>
<g style="fill:#2F2D31; fill-opacity:1.0000; stroke:none;">
<circle cx="149.8600" cy="78.7400" r="0.3810" /> 
</g>
<g style="fill:#2F2D31; fill-opacity:1.0000; stroke:none;">
<circle cx="149.8600" cy="76.2000" r="0.3810" /> 
</g>
<g style="fill:#2F2D31; fill-opacity:1.0000; stroke:none;">
<circle cx="149.8600" cy="73.7000" r="0.3810" /> 
</g>
<g style="fill:#2F2D31; fill-opacity:1.0000; stroke:none;">
<circle cx="149.8600" cy="71.1200" r="0.3810" /> 
</g>
<g style="fill:#2F2D31; fill-opacity:1.0000; stroke:none;">
<circle cx="124.4600" cy="71.1200" r="0.3810" /> 
</g>
<g style="fill:#2F2D31; fill-opacity:1.0000; stroke:none;">
<circle cx="124.4600" cy="73.6600" r="0.3810" /> 
</g>
<g style="fill:#2F2D31; fill-opacity:1.0000; stroke:none;">
<circle cx="124.4600" cy="76.2000" r="0.3810" /> 
</g>
<g style="fill:#2F2D31; fill-opacity:1.0000; stroke:none;">
<circle cx="124.4600" cy="78.7400" r="0.3810" /> 
</g>
<g style="fill:#2F2D31; fill-opacity:1.0000; stroke:none;">
<circle cx="124.4600" cy="81.2800" r="0.3810" /> 
</g>
<g style="fill:#2F2D31; fill-opacity:1.0000; stroke:none;">
<circle cx="124.4600" cy="83.8200" r="0.3810" /> 
</g>
<g style="fill:#2F2D31; fill-opacity:1.0000; stroke:none;">
<circle cx="124.4600" cy="86.3600" r="0.3810" /> 
</g>
<g style="fill:#2F2D31; fill-opacity:1.0000; stroke:none;">
<circle cx="124.4600" cy="88.9000" r="0.3810" /> 
</g>
<g style="fill:#2F2D31; fill-opacity:1.0000; stroke:none;">
<circle cx="124.4600" cy="91.4400" r="0.3810" /> 
</g>
<g style="fill:#2F2D31; fill-opacity:1.0000; stroke:none;">
<circle cx="124.4600" cy="93.9800" r="0.3810" /> 
</g>
<g style="fill:#2F2D31; fill-opacity:1.0000; stroke:none;">
<circle cx="124.4600" cy="96.5200" r="0.3810" /> 
</g>
<g style="fill:#2F2D31; fill-opacity:1.0000; stroke:none;">
<circle cx="124.4600" cy="99.0600" r="0.3810" /> 
</g>
<g style="fill:#2F2D31; fill-opacity:1.0000; stroke:none;">
<circle cx="124.4600" cy="101.6000" r="0.3810" /> 
</g>
<g style="fill:#2F2D31; fill-opacity:1.0000; stroke:none;">
<circle cx="124.4600" cy="104.1400" r="0.3810" /> 
</g>
<g style="fill:#2F2D31; fill-opacity:1.0000; stroke:none;">
<circle cx="124.4600" cy="106.6800" r="0.3810" /> 
</g>
<g style="fill:#2F2D31; fill-opacity:1.0000; stroke:none;">
<circle cx="149.8600" cy="106.6750" r="0.3810" /> 
</g>
<g style="fill:#2F2D31; fill-opacity:1.0000; stroke:none;">
<circle cx="149.8600" cy="104.1350" r="0.3810" /> 
</g>
<g style="fill:#2F2D31; fill-opacity:1.0000; stroke:none;">
<circle cx="149.8600" cy="101.5950" r="0.3810" /> 
</g>
<g style="fill:#2F2D31; fill-opacity:1.0000; stroke:none;">
<circle cx="149.8600" cy="99.0550" r="0.3810" /> 
</g>
<g style="fill:#2F2D31; fill-opacity:1.0000; stroke:none;">
<circle cx="149.8600" cy="96.5150" r="0.3810" /> 
</g>
<g style="fill:#2F2D31; fill-opacity:1.0000; stroke:none;">
<circle cx="149.8600" cy="93.9750" r="0.3810" /> 
</g>
<g style="fill:#2F2D31; fill-opacity:1.0000; stroke:none;">
<circle cx="149.8600" cy="91.4350" r="0.3810" /> 
</g>
<g style="fill:#2F2D31; fill-opacity:1.0000; stroke:none;">
<circle cx="149.8600" cy="88.8950" r="0.3810" /> 
</g>
<g style="fill:#2F2D31; fill-opacity:1.0000; stroke:none;">
<circle cx="149.8600" cy="86.3550" r="0.3810" /> 
</g>
<g style="fill:#2F2D31; fill-opacity:1.0000; stroke:none;">
<circle cx="149.8600" cy="83.8150" r="0.3810" /> 
</g>
<g style="fill:#2F2D31; fill-opacity:1.0000; stroke:none;">
<circle cx="149.8600" cy="81.2750" r="0.3810" /> 
</g>
<g style="fill:#2F2D31; fill-opacity:1.0000; stroke:none;">
<circle cx="149.8600" cy="78.7350" r="0.3810" /> 
</g>
<g style="fill:#2F2D31; fill-opacity:1.0000; stroke:none;">
<circle cx="149.8600" cy="76.1950" r="0.3810" /> 
</g>
<g style="fill:#2F2D31; fill-opacity:1.0000; stroke:none;">
<circle cx="149.8600" cy="73.6550" r="0.3810" /> 
</g>
<g style="fill:#2F2D31; fill-opacity:1.0000; stroke:none;">
<circle cx="149.8600" cy="71.1150" r="0.3810" /> 
</g>
<g style="fill:#2F2D31; fill-opacity:1.0000; stroke:none;">
<circle cx="180.3400" cy="72.3900" r="0.5000" /> 
</g>
<g style="fill:#2F2D31; fill-opacity:1.0000; stroke:none;">
<circle cx="180.3400" cy="74.9300" r="0.5000" /> 
</g>
<g style="fill:#2F2D31; fill-opacity:1.0000; stroke:none;">
<circle cx="180.3400" cy="77.4700" r="0.5000" /> 
</g>
<g style="fill:#2F2D31; fill-opacity:1.0000; stroke:none;">
<circle cx="180.3400" cy="80.0100" r="0.5000" /> 
</g>
<g style="fill:#2F2D31; fill-opacity:1.0000; stroke:none;">
<circle cx="180.3400" cy="82.5500" r="0.5000" /> 
</g>
<g style="fill:#2F2D31; fill-opacity:1.0000; stroke:none;">
<circle cx="180.3400" cy="85.0900" r="0.5000" /> 
</g>
<g style="fill:#2F2D31; fill-opacity:1.0000; stroke:none;">
<circle cx="159.3825" cy="80.0100" r="0.3810" /> 
</g>
<g style="fill:#2F2D31; fill-opacity:1.0000; stroke:none;">
<circle cx="161.9225" cy="80.0100" r="0.3810" /> 
</g>
<g style="fill:#2F2D31; fill-opacity:1.0000; stroke:none;">
<circle cx="164.4625" cy="80.0100" r="0.3810" /> 
</g>
<g style="fill:#2F2D31; fill-opacity:1.0000; stroke:none;">
<circle cx="167.0025" cy="80.0100" r="0.3810" /> 
</g>
<g style="fill:#2F2D31; fill-opacity:1.0000; stroke:none;">
<circle cx="182.8800" cy="72.3900" r="0.5000" /> 
</g>
<g style="fill:#2F2D31; fill-opacity:1.0000; stroke:none;">
<circle cx="182.8800" cy="74.9300" r="0.5000" /> 
</g>
<g style="fill:#2F2D31; fill-opacity:1.0000; stroke:none;">
<circle cx="182.8800" cy="77.4700" r="0.5000" /> 
</g>
<g style="fill:#2F2D31; fill-opacity:1.0000; stroke:none;">
<circle cx="182.8800" cy="80.0100" r="0.5000" /> 
</g>
<g style="fill:#2F2D31; fill-opacity:1.0000; stroke:none;">
<circle cx="182.8800" cy="82.5500" r="0.5000" /> 
</g>
<g style="fill:#2F2D31; fill-opacity:1.0000; stroke:none;">
<circle cx="182.8800" cy="85.0900" r="0.5000" /> 
</g>
<g style="fill:#2F2D31; fill-opacity:1.0000; stroke:none;">
<circle cx="152.4000" cy="71.1200" r="0.3810" /> 
</g>
<g style="fill:#2F2D31; fill-opacity:1.0000; stroke:none;">
<circle cx="152.4000" cy="73.6600" r="0.3810" /> 
</g>
<g style="fill:#2F2D31; fill-opacity:1.0000; stroke:none;">
<circle cx="152.4000" cy="76.2000" r="0.3810" /> 
</g>
<g style="fill:#2F2D31; fill-opacity:1.0000; stroke:none;">
<circle cx="152.4000" cy="78.7400" r="0.3810" /> 
</g>
<g style="fill:#2F2D31; fill-opacity:1.0000; stroke:none;">
<circle cx="152.4000" cy="81.2800" r="0.3810" /> 
</g>
<g style="fill:#2F2D31; fill-opacity:1.0000; stroke:none;">
<circle cx="152.4000" cy="83.8200" r="0.3810" /> 
</g>
<g style="fill:#2F2D31; fill-opacity:1.0000; stroke:none;">
<circle cx="152.4000" cy="86.3600" r="0.3810" /> 
</g>
<g style="fill:#2F2D31; fill-opacity:1.0000; stroke:none;">
<circle cx="152.4000" cy="88.9000" r="0.3810" /> 
</g>
<g style="fill:#2F2D31; fill-opacity:1.0000; stroke:none;">
<circle cx="152.4000" cy="91.4400" r="0.3810" /> 
</g>
<g style="fill:#2F2D31; fill-opacity:1.0000; stroke:none;">
<circle cx="152.4000" cy="93.9800" r="0.3810" /> 
</g>
<g style="fill:#2F2D31; fill-opacity:1.0000; stroke:none;">
<circle cx="152.4000" cy="96.5200" r="0.3810" /> 
</g>
<g style="fill:#2F2D31; fill-opacity:1.0000; stroke:none;">
<circle cx="152.4000" cy="99.0600" r="0.3810" /> 
</g>
<g style="fill:#2F2D31; fill-opacity:1.0000; stroke:none;">
<circle cx="152.4000" cy="101.6000" r="0.3810" /> 
</g>
<g style="fill:#2F2D31; fill-opacity:1.0000; stroke:none;">
<circle cx="152.4000" cy="104.1400" r="0.3810" /> 
</g>
<g style="fill:#2F2D31; fill-opacity:1.0000; stroke:none;">
<circle cx="152.4000" cy="106.6800" r="0.3810" /> 
</g>
<g style="fill:#2F2D31; fill-opacity:1.0000; stroke:none;">
<circle cx="177.8000" cy="87.6150" r="0.3810" /> 
</g>
<g style="fill:#2F2D31; fill-opacity:1.0000; stroke:none;">
<circle cx="177.8000" cy="85.0750" r="0.3810" /> 
</g>
<g style="fill:#2F2D31; fill-opacity:1.0000; stroke:none;">
<circle cx="177.8000" cy="82.5350" r="0.3810" /> 
</g>
<g style="fill:#2F2D31; fill-opacity:1.0000; stroke:none;">
<circle cx="177.8000" cy="79.9950" r="0.3810" /> 
</g>
<g style="fill:#2F2D31; fill-opacity:1.0000; stroke:none;">
<circle cx="177.8000" cy="77.4550" r="0.3810" /> 
</g>
<g style="fill:#2F2D31; fill-opacity:1.0000; stroke:none;">
<circle cx="177.8000" cy="74.9150" r="0.3810" /> 
</g>
<g style="fill:#2F2D31; fill-opacity:1.0000; stroke:none;">
<circle cx="177.8000" cy="72.3750" r="0.3810" /> 
</g>
<g style="fill:#2F2D31; fill-opacity:1.0000; stroke:none;">
<circle cx="177.8000" cy="69.8350" r="0.3810" /> 
</g>
<g style="fill:#2F2D31; fill-opacity:1.0000; stroke:none;">
<circle cx="121.9200" cy="106.6750" r="0.3810" /> 
</g>
<g style="fill:#2F2D31; fill-opacity:1.0000; stroke:none;">
<circle cx="121.9200" cy="104.1350" r="0.3810" /> 
</g>
<g style="fill:#2F2D31; fill-opacity:1.0000; stroke:none;">
<circle cx="121.9200" cy="101.5950" r="0.3810" /> 
</g>
<g style="fill:#2F2D31; fill-opacity:1.0000; stroke:none;">
<circle cx="121.9200" cy="99.0550" r="0.3810" /> 
</g>
<g style="fill:#2F2D31; fill-opacity:1.0000; stroke:none;">
<circle cx="121.9200" cy="96.5150" r="0.3810" /> 
</g>
<g style="fill:#2F2D31; fill-opacity:1.0000; stroke:none;">
<circle cx="121.9200" cy="93.9750" r="0.3810" /> 
</g>
<g style="fill:#2F2D31; fill-opacity:1.0000; stroke:none;">
<circle cx="121.9200" cy="91.4350" r="0.3810" /> 
</g>
<g style="fill:#2F2D31; fill-opacity:1.0000; stroke:none;">
<circle cx="121.9200" cy="88.8950" r="0.3810" /> 
</g>
<g style="fill:#2F2D31; fill-opacity:1.0000; stroke:none;">
<circle cx="121.9200" cy="86.3550" r="0.3810" /> 
</g>
<g style="fill:#2F2D31; fill-opacity:1.0000; stroke:none;">
<circle cx="121.9200" cy="83.8150" r="0.3810" /> 
</g>
<g style="fill:#2F2D31; fill-opacity:1.0000; stroke:none;">
<circle cx="121.9200" cy="81.2750" r="0.3810" /> 
</g>
<g style="fill:#2F2D31; fill-opacity:1.0000; stroke:none;">
<circle cx="121.9200" cy="78.7350" r="0.3810" /> 
</g>
<g style="fill:#2F2D31; fill-opacity:1.0000; stroke:none;">
<circle cx="121.9200" cy="76.1950" r="0.3810" /> 
</g>
<g style="fill:#2F2D31; fill-opacity:1.0000; stroke:none;">
<circle cx="121.9200" cy="73.6550" r="0.3810" /> 
</g>
<g style="fill:#2F2D31; fill-opacity:1.0000; stroke:none;">
<circle cx="121.9200" cy="71.1150" r="0.3810" /> 
</g> 
</svg>
