  0
SECTION
  2
HEADER
  9
$ANGBASE
  50
0.0
  9
$ANGDIR
  70
1
  9
$MEASUREMENT
  70
1
  0
ENDSEC
  0
SECTION
  2
TABLES
  0
TABLE
  2
LTYPE
  70
4
  0
LTYPE
  5
40F
  2
CONTINUOUS
  70
0
  3
Solid line
  72
65
  73
0
  40
0.0
  0
LTYPE
  5
410
  2
DASHDOT
 70
0
  3
Dash Dot ____ _ ____ _
 72
65
 73
4
 40
2.0
 49
1.25
 49
-0.25
 49
0.25
 49
-0.25
  0
LTYPE
  5
411
  2
DASHED
 70
0
  3
Dashed __ __ __ __ __
 72
65
 73
2
 40
0.75
 49
0.5
 49
-0.25
  0
LTYPE
  5
43B
  2
DOTTED
 70
0
  3
Dotted .  .  .  .
 72
65
 73
2
 40
0.2
 49
0.0
 49
-0.2
  0
ENDTAB
  0
TABLE
  2
STYLE
  70
4
  0
STYLE
  2
KICAD
  70
0
  40
0
  41
1
  42
1
  50
0
  71
0
  3
isocp.shx
  0
STYLE
  2
KICADB
  70
0
  40
0
  41
1
  42
1
  50
0
  71
0
  3
isocp.shx
  0
STYLE
  2
KICADI
  70
0
  40
0
  41
1
  42
1
  50
15
  71
0
  3
isocp.shx
  0
STYLE
  2
KICADBI
  70
0
  40
0
  41
1
  42
1
  50
15
  71
0
  3
isocp.shx
  0
ENDTAB
  0
TABLE
  2
LAYER
  70
1
  0
LAYER
  2
BLACK
  70
0
  62
7
  6
CONTINUOUS
  0
ENDTAB
  0
ENDSEC
  0
SECTION
  2
ENTITIES
0
LINE
8
BLACK
6
CONTINUOUS
10
120.2373739999999884
20
-113.0246739999999903
11
120.4554159999999996
21
-113.0830979999999926
0
LINE
8
BLACK
6
CONTINUOUS
10
120.4554159999999996
20
-113.0830979999999926
11
120.6599999999999966
21
-113.178496999999993
0
LINE
8
BLACK
6
CONTINUOUS
10
120.6599999999999966
20
-113.178496999999993
11
120.8449099999999987
21
-113.3079719999999924
0
LINE
8
BLACK
6
CONTINUOUS
10
120.8449099999999987
20
-113.3079719999999924
11
121.0045279999999934
21
-113.4675900000000013
0
LINE
8
BLACK
6
CONTINUOUS
10
121.0045279999999934
20
-113.4675900000000013
11
121.1340029999999928
21
-113.6524999999999892
0
LINE
8
BLACK
6
CONTINUOUS
10
121.1340029999999928
20
-113.6524999999999892
11
121.2294019999999932
21
-113.8570840000000004
0
LINE
8
BLACK
6
CONTINUOUS
10
121.2294019999999932
20
-113.8570840000000004
11
121.2878259999999955
21
-114.0751259999999974
0
LINE
8
BLACK
6
CONTINUOUS
10
121.2878259999999955
20
-114.0751259999999974
11
121.3074999999999903
21
-114.2999999999999972
0
LINE
8
BLACK
6
CONTINUOUS
10
121.3074999999999903
20
-114.2999999999999972
11
121.2878259999999955
21
-114.524873999999997
0
LINE
8
BLACK
6
CONTINUOUS
10
121.2878259999999955
20
-114.524873999999997
11
121.2294019999999932
21
-114.7429159999999939
0
LINE
8
BLACK
6
CONTINUOUS
10
121.2294019999999932
20
-114.7429159999999939
11
121.1340029999999928
21
-114.9474999999999909
0
LINE
8
BLACK
6
CONTINUOUS
10
121.1340029999999928
20
-114.9474999999999909
11
121.0045279999999934
21
-115.132409999999993
0
LINE
8
BLACK
6
CONTINUOUS
10
121.0045279999999934
20
-115.132409999999993
11
120.8449099999999987
21
-115.2920279999999877
0
LINE
8
BLACK
6
CONTINUOUS
10
120.8449099999999987
20
-115.2920279999999877
11
120.6599999999999966
21
-115.4215030000000013
0
LINE
8
BLACK
6
CONTINUOUS
10
120.6599999999999966
20
-115.4215030000000013
11
120.4554159999999996
21
-115.5169020000000017
0
LINE
8
BLACK
6
CONTINUOUS
10
120.4554159999999996
20
-115.5169020000000017
11
120.2373739999999884
21
-115.5753259999999898
0
LINE
8
BLACK
6
CONTINUOUS
10
120.2373739999999884
20
-115.5753259999999898
11
120.0124999999999886
21
-115.5949999999999989
0
LINE
8
BLACK
6
CONTINUOUS
10
120.0124999999999886
20
-115.5949999999999989
11
119.7876259999999888
21
-115.5753259999999898
0
LINE
8
BLACK
6
CONTINUOUS
10
119.7876259999999888
20
-115.5753259999999898
11
119.5695839999999919
21
-115.5169020000000017
0
LINE
8
BLACK
6
CONTINUOUS
10
119.5695839999999919
20
-115.5169020000000017
11
119.3649999999999949
21
-115.4215030000000013
0
LINE
8
BLACK
6
CONTINUOUS
10
119.3649999999999949
20
-115.4215030000000013
11
119.1800899999999928
21
-115.2920279999999877
0
LINE
8
BLACK
6
CONTINUOUS
10
119.1800899999999928
20
-115.2920279999999877
11
119.020471999999998
21
-115.132409999999993
0
LINE
8
BLACK
6
CONTINUOUS
10
119.020471999999998
20
-115.132409999999993
11
118.8909969999999987
21
-114.9474999999999909
0
LINE
8
BLACK
6
CONTINUOUS
10
118.8909969999999987
20
-114.9474999999999909
11
118.7955979999999983
21
-114.7429159999999939
0
LINE
8
BLACK
6
CONTINUOUS
10
118.7955979999999983
20
-114.7429159999999939
11
118.737173999999996
21
-114.524873999999997
0
LINE
8
BLACK
6
CONTINUOUS
10
118.737173999999996
20
-114.524873999999997
11
118.7175000000000011
21
-114.2999999999999972
0
LINE
8
BLACK
6
CONTINUOUS
10
118.7175000000000011
20
-114.2999999999999972
11
118.737173999999996
21
-114.0751259999999974
0
LINE
8
BLACK
6
CONTINUOUS
10
118.737173999999996
20
-114.0751259999999974
11
118.7955979999999983
21
-113.8570840000000004
0
LINE
8
BLACK
6
CONTINUOUS
10
118.7955979999999983
20
-113.8570840000000004
11
118.8909969999999987
21
-113.6524999999999892
0
LINE
8
BLACK
6
CONTINUOUS
10
118.8909969999999987
20
-113.6524999999999892
11
119.020471999999998
21
-113.4675900000000013
0
LINE
8
BLACK
6
CONTINUOUS
10
119.020471999999998
20
-113.4675900000000013
11
119.1800899999999928
21
-113.3079719999999924
0
LINE
8
BLACK
6
CONTINUOUS
10
119.1800899999999928
20
-113.3079719999999924
11
119.3649999999999949
21
-113.178496999999993
0
LINE
8
BLACK
6
CONTINUOUS
10
119.3649999999999949
20
-113.178496999999993
11
119.5695839999999919
21
-113.0830979999999926
0
LINE
8
BLACK
6
CONTINUOUS
10
119.5695839999999919
20
-113.0830979999999926
11
119.7876259999999888
21
-113.0246739999999903
0
LINE
8
BLACK
6
CONTINUOUS
10
119.7876259999999888
20
-113.0246739999999903
11
120.0124999999999886
21
-113.0049999999999955
0
LINE
8
BLACK
6
CONTINUOUS
10
120.0124999999999886
20
-113.0049999999999955
11
120.2373739999999884
21
-113.0246739999999903
0
LINE
8
BLACK
6
CONTINUOUS
10
118.7817309999999935
20
-114.5170179999999931
11
118.8381139999999903
21
-114.7274419999999964
0
LINE
8
BLACK
6
CONTINUOUS
10
118.8381139999999903
20
-114.7274419999999964
11
118.9301799999999929
21
-114.9248779999999925
0
LINE
8
BLACK
6
CONTINUOUS
10
118.9301799999999929
20
-114.9248779999999925
11
119.0551309999999887
21
-115.1033279999999905
0
LINE
8
BLACK
6
CONTINUOUS
10
119.0551309999999887
20
-115.1033279999999905
11
119.2091719999999953
21
-115.2573689999999971
0
LINE
8
BLACK
6
CONTINUOUS
10
119.2091719999999953
20
-115.2573689999999971
11
119.3876219999999932
21
-115.3823199999999929
0
LINE
8
BLACK
6
CONTINUOUS
10
119.3876219999999932
20
-115.3823199999999929
11
119.5850579999999894
21
-115.4743859999999955
0
LINE
8
BLACK
6
CONTINUOUS
10
119.5850579999999894
20
-115.4743859999999955
11
119.7954819999999927
21
-115.5307689999999923
0
LINE
8
BLACK
6
CONTINUOUS
10
119.7954819999999927
20
-115.5307689999999923
11
120.0124999999999886
21
-115.5497559999999879
0
LINE
8
BLACK
6
CONTINUOUS
10
120.0124999999999886
20
-115.5497559999999879
11
120.2295179999999988
21
-115.5307689999999923
0
LINE
8
BLACK
6
CONTINUOUS
10
120.2295179999999988
20
-115.5307689999999923
11
120.4399419999999878
21
-115.4743859999999955
0
LINE
8
BLACK
6
CONTINUOUS
10
120.4399419999999878
20
-115.4743859999999955
11
120.6373779999999982
21
-115.3823199999999929
0
LINE
8
BLACK
6
CONTINUOUS
10
120.6373779999999982
20
-115.3823199999999929
11
120.8158279999999962
21
-115.2573689999999971
0
LINE
8
BLACK
6
CONTINUOUS
10
120.8158279999999962
20
-115.2573689999999971
11
120.9698689999999885
21
-115.1033279999999905
0
LINE
8
BLACK
6
CONTINUOUS
10
120.9698689999999885
20
-115.1033279999999905
11
121.0948199999999986
21
-114.9248779999999925
0
LINE
8
BLACK
6
CONTINUOUS
10
121.0948199999999986
20
-114.9248779999999925
11
121.1868860000000012
21
-114.7274419999999964
0
LINE
8
BLACK
6
CONTINUOUS
10
121.1868860000000012
20
-114.7274419999999964
11
121.243268999999998
21
-114.5170179999999931
0
LINE
8
BLACK
6
CONTINUOUS
10
121.243268999999998
20
-114.5170179999999931
11
121.2622559999999936
21
-114.2999999999999972
0
LINE
8
BLACK
6
CONTINUOUS
10
121.2622559999999936
20
-114.2999999999999972
11
121.243268999999998
21
-114.0829820000000012
0
LINE
8
BLACK
6
CONTINUOUS
10
121.243268999999998
20
-114.0829820000000012
11
121.1868860000000012
21
-113.8725579999999979
0
LINE
8
BLACK
6
CONTINUOUS
10
121.1868860000000012
20
-113.8725579999999979
11
121.0948199999999986
21
-113.6751220000000018
0
LINE
8
BLACK
6
CONTINUOUS
10
121.0948199999999986
20
-113.6751220000000018
11
120.9698689999999885
21
-113.4966719999999896
0
LINE
8
BLACK
6
CONTINUOUS
10
120.9698689999999885
20
-113.4966719999999896
11
120.8158279999999962
21
-113.3426309999999972
0
LINE
8
BLACK
6
CONTINUOUS
10
120.8158279999999962
20
-113.3426309999999972
11
120.6373779999999982
21
-113.2176800000000014
0
LINE
8
BLACK
6
CONTINUOUS
10
120.6373779999999982
20
-113.2176800000000014
11
120.4399419999999878
21
-113.1256139999999988
0
LINE
8
BLACK
6
CONTINUOUS
10
120.4399419999999878
20
-113.1256139999999988
11
120.2295179999999988
21
-113.0692309999999878
0
LINE
8
BLACK
6
CONTINUOUS
10
120.2295179999999988
20
-113.0692309999999878
11
120.0124999999999886
21
-113.0502439999999922
0
LINE
8
BLACK
6
CONTINUOUS
10
120.0124999999999886
20
-113.0502439999999922
11
119.7954819999999927
21
-113.0692309999999878
0
LINE
8
BLACK
6
CONTINUOUS
10
119.7954819999999927
20
-113.0692309999999878
11
119.5850579999999894
21
-113.1256139999999988
0
LINE
8
BLACK
6
CONTINUOUS
10
119.5850579999999894
20
-113.1256139999999988
11
119.3876219999999932
21
-113.2176800000000014
0
LINE
8
BLACK
6
CONTINUOUS
10
119.3876219999999932
20
-113.2176800000000014
11
119.2091719999999953
21
-113.3426309999999972
0
LINE
8
BLACK
6
CONTINUOUS
10
119.2091719999999953
20
-113.3426309999999972
11
119.0551309999999887
21
-113.4966719999999896
0
LINE
8
BLACK
6
CONTINUOUS
10
119.0551309999999887
20
-113.4966719999999896
11
118.9301799999999929
21
-113.6751220000000018
0
LINE
8
BLACK
6
CONTINUOUS
10
118.9301799999999929
20
-113.6751220000000018
11
118.8381139999999903
21
-113.8725579999999979
0
LINE
8
BLACK
6
CONTINUOUS
10
118.8381139999999903
20
-113.8725579999999979
11
118.7817309999999935
21
-114.0829820000000012
0
LINE
8
BLACK
6
CONTINUOUS
10
118.7817309999999935
20
-114.0829820000000012
11
118.7627439999999979
21
-114.2999999999999972
0
LINE
8
BLACK
6
CONTINUOUS
10
118.7627439999999979
20
-114.2999999999999972
11
118.7817309999999935
21
-114.5170179999999931
0
LINE
8
BLACK
6
CONTINUOUS
10
153.2573739999999987
20
-113.0246739999999903
11
153.4754159999999956
21
-113.0830979999999926
0
LINE
8
BLACK
6
CONTINUOUS
10
153.4754159999999956
20
-113.0830979999999926
11
153.6800000000000068
21
-113.178496999999993
0
LINE
8
BLACK
6
CONTINUOUS
10
153.6800000000000068
20
-113.178496999999993
11
153.8649099999999805
21
-113.3079719999999924
0
LINE
8
BLACK
6
CONTINUOUS
10
153.8649099999999805
20
-113.3079719999999924
11
154.0245280000000037
21
-113.4675900000000013
0
LINE
8
BLACK
6
CONTINUOUS
10
154.0245280000000037
20
-113.4675900000000013
11
154.1540029999999888
21
-113.6524999999999892
0
LINE
8
BLACK
6
CONTINUOUS
10
154.1540029999999888
20
-113.6524999999999892
11
154.2494020000000035
21
-113.8570840000000004
0
LINE
8
BLACK
6
CONTINUOUS
10
154.2494020000000035
20
-113.8570840000000004
11
154.3078260000000057
21
-114.0751259999999974
0
LINE
8
BLACK
6
CONTINUOUS
10
154.3078260000000057
20
-114.0751259999999974
11
154.3274999999999864
21
-114.2999999999999972
0
LINE
8
BLACK
6
CONTINUOUS
10
154.3274999999999864
20
-114.2999999999999972
11
154.3078260000000057
21
-114.524873999999997
0
LINE
8
BLACK
6
CONTINUOUS
10
154.3078260000000057
20
-114.524873999999997
11
154.2494020000000035
21
-114.7429159999999939
0
LINE
8
BLACK
6
CONTINUOUS
10
154.2494020000000035
20
-114.7429159999999939
11
154.1540029999999888
21
-114.9474999999999909
0
LINE
8
BLACK
6
CONTINUOUS
10
154.1540029999999888
20
-114.9474999999999909
11
154.0245280000000037
21
-115.132409999999993
0
LINE
8
BLACK
6
CONTINUOUS
10
154.0245280000000037
20
-115.132409999999993
11
153.8649099999999805
21
-115.2920279999999877
0
LINE
8
BLACK
6
CONTINUOUS
10
153.8649099999999805
20
-115.2920279999999877
11
153.6800000000000068
21
-115.4215030000000013
0
LINE
8
BLACK
6
CONTINUOUS
10
153.6800000000000068
20
-115.4215030000000013
11
153.4754159999999956
21
-115.5169020000000017
0
LINE
8
BLACK
6
CONTINUOUS
10
153.4754159999999956
20
-115.5169020000000017
11
153.2573739999999987
21
-115.5753259999999898
0
LINE
8
BLACK
6
CONTINUOUS
10
153.2573739999999987
20
-115.5753259999999898
11
153.0324999999999989
21
-115.5949999999999989
0
LINE
8
BLACK
6
CONTINUOUS
10
153.0324999999999989
20
-115.5949999999999989
11
152.8076259999999991
21
-115.5753259999999898
0
LINE
8
BLACK
6
CONTINUOUS
10
152.8076259999999991
20
-115.5753259999999898
11
152.5895840000000021
21
-115.5169020000000017
0
LINE
8
BLACK
6
CONTINUOUS
10
152.5895840000000021
20
-115.5169020000000017
11
152.3849999999999909
21
-115.4215030000000013
0
LINE
8
BLACK
6
CONTINUOUS
10
152.3849999999999909
20
-115.4215030000000013
11
152.2000899999999888
21
-115.2920279999999877
0
LINE
8
BLACK
6
CONTINUOUS
10
152.2000899999999888
20
-115.2920279999999877
11
152.0404719999999941
21
-115.132409999999993
0
LINE
8
BLACK
6
CONTINUOUS
10
152.0404719999999941
20
-115.132409999999993
11
151.9109969999999805
21
-114.9474999999999909
0
LINE
8
BLACK
6
CONTINUOUS
10
151.9109969999999805
20
-114.9474999999999909
11
151.8155979999999943
21
-114.7429159999999939
0
LINE
8
BLACK
6
CONTINUOUS
10
151.8155979999999943
20
-114.7429159999999939
11
151.757173999999992
21
-114.524873999999997
0
LINE
8
BLACK
6
CONTINUOUS
10
151.757173999999992
20
-114.524873999999997
11
151.7374999999999829
21
-114.2999999999999972
0
LINE
8
BLACK
6
CONTINUOUS
10
151.7374999999999829
20
-114.2999999999999972
11
151.757173999999992
21
-114.0751259999999974
0
LINE
8
BLACK
6
CONTINUOUS
10
151.757173999999992
20
-114.0751259999999974
11
151.8155979999999943
21
-113.8570840000000004
0
LINE
8
BLACK
6
CONTINUOUS
10
151.8155979999999943
20
-113.8570840000000004
11
151.9109969999999805
21
-113.6524999999999892
0
LINE
8
BLACK
6
CONTINUOUS
10
151.9109969999999805
20
-113.6524999999999892
11
152.0404719999999941
21
-113.4675900000000013
0
LINE
8
BLACK
6
CONTINUOUS
10
152.0404719999999941
20
-113.4675900000000013
11
152.2000899999999888
21
-113.3079719999999924
0
LINE
8
BLACK
6
CONTINUOUS
10
152.2000899999999888
20
-113.3079719999999924
11
152.3849999999999909
21
-113.178496999999993
0
LINE
8
BLACK
6
CONTINUOUS
10
152.3849999999999909
20
-113.178496999999993
11
152.5895840000000021
21
-113.0830979999999926
0
LINE
8
BLACK
6
CONTINUOUS
10
152.5895840000000021
20
-113.0830979999999926
11
152.8076259999999991
21
-113.0246739999999903
0
LINE
8
BLACK
6
CONTINUOUS
10
152.8076259999999991
20
-113.0246739999999903
11
153.0324999999999989
21
-113.0049999999999955
0
LINE
8
BLACK
6
CONTINUOUS
10
153.0324999999999989
20
-113.0049999999999955
11
153.2573739999999987
21
-113.0246739999999903
0
LINE
8
BLACK
6
CONTINUOUS
10
151.8017309999999895
20
-114.5170179999999931
11
151.8581140000000005
21
-114.7274419999999964
0
LINE
8
BLACK
6
CONTINUOUS
10
151.8581140000000005
20
-114.7274419999999964
11
151.9501799999999889
21
-114.9248779999999925
0
LINE
8
BLACK
6
CONTINUOUS
10
151.9501799999999889
20
-114.9248779999999925
11
152.0751309999999989
21
-115.1033279999999905
0
LINE
8
BLACK
6
CONTINUOUS
10
152.0751309999999989
20
-115.1033279999999905
11
152.2291720000000055
21
-115.2573689999999971
0
LINE
8
BLACK
6
CONTINUOUS
10
152.2291720000000055
20
-115.2573689999999971
11
152.4076220000000035
21
-115.3823199999999929
0
LINE
8
BLACK
6
CONTINUOUS
10
152.4076220000000035
20
-115.3823199999999929
11
152.6050579999999854
21
-115.4743859999999955
0
LINE
8
BLACK
6
CONTINUOUS
10
152.6050579999999854
20
-115.4743859999999955
11
152.8154820000000029
21
-115.5307689999999923
0
LINE
8
BLACK
6
CONTINUOUS
10
152.8154820000000029
20
-115.5307689999999923
11
153.0324999999999989
21
-115.5497559999999879
0
LINE
8
BLACK
6
CONTINUOUS
10
153.0324999999999989
20
-115.5497559999999879
11
153.2495179999999948
21
-115.5307689999999923
0
LINE
8
BLACK
6
CONTINUOUS
10
153.2495179999999948
20
-115.5307689999999923
11
153.4599419999999839
21
-115.4743859999999955
0
LINE
8
BLACK
6
CONTINUOUS
10
153.4599419999999839
20
-115.4743859999999955
11
153.6573779999999942
21
-115.3823199999999929
0
LINE
8
BLACK
6
CONTINUOUS
10
153.6573779999999942
20
-115.3823199999999929
11
153.8358279999999922
21
-115.2573689999999971
0
LINE
8
BLACK
6
CONTINUOUS
10
153.8358279999999922
20
-115.2573689999999971
11
153.9898689999999988
21
-115.1033279999999905
0
LINE
8
BLACK
6
CONTINUOUS
10
153.9898689999999988
20
-115.1033279999999905
11
154.1148199999999804
21
-114.9248779999999925
0
LINE
8
BLACK
6
CONTINUOUS
10
154.1148199999999804
20
-114.9248779999999925
11
154.2068859999999972
21
-114.7274419999999964
0
LINE
8
BLACK
6
CONTINUOUS
10
154.2068859999999972
20
-114.7274419999999964
11
154.2632689999999798
21
-114.5170179999999931
0
LINE
8
BLACK
6
CONTINUOUS
10
154.2632689999999798
20
-114.5170179999999931
11
154.2822559999999896
21
-114.2999999999999972
0
LINE
8
BLACK
6
CONTINUOUS
10
154.2822559999999896
20
-114.2999999999999972
11
154.2632689999999798
21
-114.0829820000000012
0
LINE
8
BLACK
6
CONTINUOUS
10
154.2632689999999798
20
-114.0829820000000012
11
154.2068859999999972
21
-113.8725579999999979
0
LINE
8
BLACK
6
CONTINUOUS
10
154.2068859999999972
20
-113.8725579999999979
11
154.1148199999999804
21
-113.6751220000000018
0
LINE
8
BLACK
6
CONTINUOUS
10
154.1148199999999804
20
-113.6751220000000018
11
153.9898689999999988
21
-113.4966719999999896
0
LINE
8
BLACK
6
CONTINUOUS
10
153.9898689999999988
20
-113.4966719999999896
11
153.8358279999999922
21
-113.3426309999999972
0
LINE
8
BLACK
6
CONTINUOUS
10
153.8358279999999922
20
-113.3426309999999972
11
153.6573779999999942
21
-113.2176800000000014
0
LINE
8
BLACK
6
CONTINUOUS
10
153.6573779999999942
20
-113.2176800000000014
11
153.4599419999999839
21
-113.1256139999999988
0
LINE
8
BLACK
6
CONTINUOUS
10
153.4599419999999839
20
-113.1256139999999988
11
153.2495179999999948
21
-113.0692309999999878
0
LINE
8
BLACK
6
CONTINUOUS
10
153.2495179999999948
20
-113.0692309999999878
11
153.0324999999999989
21
-113.0502439999999922
0
LINE
8
BLACK
6
CONTINUOUS
10
153.0324999999999989
20
-113.0502439999999922
11
152.8154820000000029
21
-113.0692309999999878
0
LINE
8
BLACK
6
CONTINUOUS
10
152.8154820000000029
20
-113.0692309999999878
11
152.6050579999999854
21
-113.1256139999999988
0
LINE
8
BLACK
6
CONTINUOUS
10
152.6050579999999854
20
-113.1256139999999988
11
152.4076220000000035
21
-113.2176800000000014
0
LINE
8
BLACK
6
CONTINUOUS
10
152.4076220000000035
20
-113.2176800000000014
11
152.2291720000000055
21
-113.3426309999999972
0
LINE
8
BLACK
6
CONTINUOUS
10
152.2291720000000055
20
-113.3426309999999972
11
152.0751309999999989
21
-113.4966719999999896
0
LINE
8
BLACK
6
CONTINUOUS
10
152.0751309999999989
20
-113.4966719999999896
11
151.9501799999999889
21
-113.6751220000000018
0
LINE
8
BLACK
6
CONTINUOUS
10
151.9501799999999889
20
-113.6751220000000018
11
151.8581140000000005
21
-113.8725579999999979
0
LINE
8
BLACK
6
CONTINUOUS
10
151.8581140000000005
20
-113.8725579999999979
11
151.8017309999999895
21
-114.0829820000000012
0
LINE
8
BLACK
6
CONTINUOUS
10
151.8017309999999895
20
-114.0829820000000012
11
151.7827439999999797
21
-114.2999999999999972
0
LINE
8
BLACK
6
CONTINUOUS
10
151.7827439999999797
20
-114.2999999999999972
11
151.8017309999999895
21
-114.5170179999999931
0
LINE
8
BLACK
6
CONTINUOUS
10
186.2773739999999805
20
-88.8946739999999949
11
186.4954159999999774
21
-88.9530979999999971
0
LINE
8
BLACK
6
CONTINUOUS
10
186.4954159999999774
20
-88.9530979999999971
11
186.6999999999999886
21
-89.0484969999999976
0
LINE
8
BLACK
6
CONTINUOUS
10
186.6999999999999886
20
-89.0484969999999976
11
186.8849099999999908
21
-89.1779719999999969
0
LINE
8
BLACK
6
CONTINUOUS
10
186.8849099999999908
20
-89.1779719999999969
11
187.0445279999999855
21
-89.3375899999999916
0
LINE
8
BLACK
6
CONTINUOUS
10
187.0445279999999855
20
-89.3375899999999916
11
187.174002999999999
21
-89.5224999999999937
0
LINE
8
BLACK
6
CONTINUOUS
10
187.174002999999999
20
-89.5224999999999937
11
187.2694019999999853
21
-89.7270839999999907
0
LINE
8
BLACK
6
CONTINUOUS
10
187.2694019999999853
20
-89.7270839999999907
11
187.3278259999999875
21
-89.9451260000000019
0
LINE
8
BLACK
6
CONTINUOUS
10
187.3278259999999875
20
-89.9451260000000019
11
187.3474999999999966
21
-90.1700000000000017
0
LINE
8
BLACK
6
CONTINUOUS
10
187.3474999999999966
20
-90.1700000000000017
11
187.3278259999999875
21
-90.3948740000000015
0
LINE
8
BLACK
6
CONTINUOUS
10
187.3278259999999875
20
-90.3948740000000015
11
187.2694019999999853
21
-90.6129159999999985
0
LINE
8
BLACK
6
CONTINUOUS
10
187.2694019999999853
20
-90.6129159999999985
11
187.174002999999999
21
-90.8174999999999955
0
LINE
8
BLACK
6
CONTINUOUS
10
187.174002999999999
20
-90.8174999999999955
11
187.0445279999999855
21
-91.0024099999999976
0
LINE
8
BLACK
6
CONTINUOUS
10
187.0445279999999855
20
-91.0024099999999976
11
186.8849099999999908
21
-91.1620279999999923
0
LINE
8
BLACK
6
CONTINUOUS
10
186.8849099999999908
20
-91.1620279999999923
11
186.6999999999999886
21
-91.2915029999999916
0
LINE
8
BLACK
6
CONTINUOUS
10
186.6999999999999886
20
-91.2915029999999916
11
186.4954159999999774
21
-91.3869019999999921
0
LINE
8
BLACK
6
CONTINUOUS
10
186.4954159999999774
20
-91.3869019999999921
11
186.2773739999999805
21
-91.4453259999999943
0
LINE
8
BLACK
6
CONTINUOUS
10
186.2773739999999805
20
-91.4453259999999943
11
186.0524999999999807
21
-91.4649999999999892
0
LINE
8
BLACK
6
CONTINUOUS
10
186.0524999999999807
20
-91.4649999999999892
11
185.8276259999999809
21
-91.4453259999999943
0
LINE
8
BLACK
6
CONTINUOUS
10
185.8276259999999809
20
-91.4453259999999943
11
185.6095839999999839
21
-91.3869019999999921
0
LINE
8
BLACK
6
CONTINUOUS
10
185.6095839999999839
20
-91.3869019999999921
11
185.4050000000000011
21
-91.2915029999999916
0
LINE
8
BLACK
6
CONTINUOUS
10
185.4050000000000011
20
-91.2915029999999916
11
185.220089999999999
21
-91.1620279999999923
0
LINE
8
BLACK
6
CONTINUOUS
10
185.220089999999999
20
-91.1620279999999923
11
185.0604720000000043
21
-91.0024099999999976
0
LINE
8
BLACK
6
CONTINUOUS
10
185.0604720000000043
20
-91.0024099999999976
11
184.9309969999999907
21
-90.8174999999999955
0
LINE
8
BLACK
6
CONTINUOUS
10
184.9309969999999907
20
-90.8174999999999955
11
184.8355980000000045
21
-90.6129159999999985
0
LINE
8
BLACK
6
CONTINUOUS
10
184.8355980000000045
20
-90.6129159999999985
11
184.7771740000000023
21
-90.3948740000000015
0
LINE
8
BLACK
6
CONTINUOUS
10
184.7771740000000023
20
-90.3948740000000015
11
184.7574999999999932
21
-90.1700000000000017
0
LINE
8
BLACK
6
CONTINUOUS
10
184.7574999999999932
20
-90.1700000000000017
11
184.7771740000000023
21
-89.9451260000000019
0
LINE
8
BLACK
6
CONTINUOUS
10
184.7771740000000023
20
-89.9451260000000019
11
184.8355980000000045
21
-89.7270839999999907
0
LINE
8
BLACK
6
CONTINUOUS
10
184.8355980000000045
20
-89.7270839999999907
11
184.9309969999999907
21
-89.5224999999999937
0
LINE
8
BLACK
6
CONTINUOUS
10
184.9309969999999907
20
-89.5224999999999937
11
185.0604720000000043
21
-89.3375899999999916
0
LINE
8
BLACK
6
CONTINUOUS
10
185.0604720000000043
20
-89.3375899999999916
11
185.220089999999999
21
-89.1779719999999969
0
LINE
8
BLACK
6
CONTINUOUS
10
185.220089999999999
20
-89.1779719999999969
11
185.4050000000000011
21
-89.0484969999999976
0
LINE
8
BLACK
6
CONTINUOUS
10
185.4050000000000011
20
-89.0484969999999976
11
185.6095839999999839
21
-88.9530979999999971
0
LINE
8
BLACK
6
CONTINUOUS
10
185.6095839999999839
20
-88.9530979999999971
11
185.8276259999999809
21
-88.8946739999999949
0
LINE
8
BLACK
6
CONTINUOUS
10
185.8276259999999809
20
-88.8946739999999949
11
186.0524999999999807
21
-88.875
0
LINE
8
BLACK
6
CONTINUOUS
10
186.0524999999999807
20
-88.875
11
186.2773739999999805
21
-88.8946739999999949
0
LINE
8
BLACK
6
CONTINUOUS
10
184.8217309999999998
20
-90.3870179999999976
11
184.8781139999999823
21
-90.5974420000000009
0
LINE
8
BLACK
6
CONTINUOUS
10
184.8781139999999823
20
-90.5974420000000009
11
184.9701799999999992
21
-90.7948779999999971
0
LINE
8
BLACK
6
CONTINUOUS
10
184.9701799999999992
20
-90.7948779999999971
11
185.0951309999999808
21
-90.9733279999999951
0
LINE
8
BLACK
6
CONTINUOUS
10
185.0951309999999808
20
-90.9733279999999951
11
185.2491719999999873
21
-91.1273690000000016
0
LINE
8
BLACK
6
CONTINUOUS
10
185.2491719999999873
20
-91.1273690000000016
11
185.4276219999999853
21
-91.2523199999999974
0
LINE
8
BLACK
6
CONTINUOUS
10
185.4276219999999853
20
-91.2523199999999974
11
185.6250579999999957
21
-91.3443860000000001
0
LINE
8
BLACK
6
CONTINUOUS
10
185.6250579999999957
20
-91.3443860000000001
11
185.8354819999999847
21
-91.4007689999999968
0
LINE
8
BLACK
6
CONTINUOUS
10
185.8354819999999847
20
-91.4007689999999968
11
186.0524999999999807
21
-91.4197559999999925
0
LINE
8
BLACK
6
CONTINUOUS
10
186.0524999999999807
20
-91.4197559999999925
11
186.269518000000005
21
-91.4007689999999968
0
LINE
8
BLACK
6
CONTINUOUS
10
186.269518000000005
20
-91.4007689999999968
11
186.4799419999999941
21
-91.3443860000000001
0
LINE
8
BLACK
6
CONTINUOUS
10
186.4799419999999941
20
-91.3443860000000001
11
186.6773780000000045
21
-91.2523199999999974
0
LINE
8
BLACK
6
CONTINUOUS
10
186.6773780000000045
20
-91.2523199999999974
11
186.8558280000000025
21
-91.1273690000000016
0
LINE
8
BLACK
6
CONTINUOUS
10
186.8558280000000025
20
-91.1273690000000016
11
187.0098689999999806
21
-90.9733279999999951
0
LINE
8
BLACK
6
CONTINUOUS
10
187.0098689999999806
20
-90.9733279999999951
11
187.1348199999999906
21
-90.7948779999999971
0
LINE
8
BLACK
6
CONTINUOUS
10
187.1348199999999906
20
-90.7948779999999971
11
187.226885999999979
21
-90.5974420000000009
0
LINE
8
BLACK
6
CONTINUOUS
10
187.226885999999979
20
-90.5974420000000009
11
187.28326899999999
21
-90.3870179999999976
0
LINE
8
BLACK
6
CONTINUOUS
10
187.28326899999999
20
-90.3870179999999976
11
187.3022559999999999
21
-90.1700000000000017
0
LINE
8
BLACK
6
CONTINUOUS
10
187.3022559999999999
20
-90.1700000000000017
11
187.28326899999999
21
-89.9529819999999916
0
LINE
8
BLACK
6
CONTINUOUS
10
187.28326899999999
20
-89.9529819999999916
11
187.226885999999979
21
-89.7425580000000025
0
LINE
8
BLACK
6
CONTINUOUS
10
187.226885999999979
20
-89.7425580000000025
11
187.1348199999999906
21
-89.5451219999999921
0
LINE
8
BLACK
6
CONTINUOUS
10
187.1348199999999906
20
-89.5451219999999921
11
187.0098689999999806
21
-89.3666719999999941
0
LINE
8
BLACK
6
CONTINUOUS
10
187.0098689999999806
20
-89.3666719999999941
11
186.8558280000000025
21
-89.2126310000000018
0
LINE
8
BLACK
6
CONTINUOUS
10
186.8558280000000025
20
-89.2126310000000018
11
186.6773780000000045
21
-89.0876799999999918
0
LINE
8
BLACK
6
CONTINUOUS
10
186.6773780000000045
20
-89.0876799999999918
11
186.4799419999999941
21
-88.9956139999999891
0
LINE
8
BLACK
6
CONTINUOUS
10
186.4799419999999941
20
-88.9956139999999891
11
186.269518000000005
21
-88.9392309999999924
0
LINE
8
BLACK
6
CONTINUOUS
10
186.269518000000005
20
-88.9392309999999924
11
186.0524999999999807
21
-88.9202439999999967
0
LINE
8
BLACK
6
CONTINUOUS
10
186.0524999999999807
20
-88.9202439999999967
11
185.8354819999999847
21
-88.9392309999999924
0
LINE
8
BLACK
6
CONTINUOUS
10
185.8354819999999847
20
-88.9392309999999924
11
185.6250579999999957
21
-88.9956139999999891
0
LINE
8
BLACK
6
CONTINUOUS
10
185.6250579999999957
20
-88.9956139999999891
11
185.4276219999999853
21
-89.0876799999999918
0
LINE
8
BLACK
6
CONTINUOUS
10
185.4276219999999853
20
-89.0876799999999918
11
185.2491719999999873
21
-89.2126310000000018
0
LINE
8
BLACK
6
CONTINUOUS
10
185.2491719999999873
20
-89.2126310000000018
11
185.0951309999999808
21
-89.3666719999999941
0
LINE
8
BLACK
6
CONTINUOUS
10
185.0951309999999808
20
-89.3666719999999941
11
184.9701799999999992
21
-89.5451219999999921
0
LINE
8
BLACK
6
CONTINUOUS
10
184.9701799999999992
20
-89.5451219999999921
11
184.8781139999999823
21
-89.7425580000000025
0
LINE
8
BLACK
6
CONTINUOUS
10
184.8781139999999823
20
-89.7425580000000025
11
184.8217309999999998
21
-89.9529819999999916
0
LINE
8
BLACK
6
CONTINUOUS
10
184.8217309999999998
20
-89.9529819999999916
11
184.8027439999999899
21
-90.1700000000000017
0
LINE
8
BLACK
6
CONTINUOUS
10
184.8027439999999899
20
-90.1700000000000017
11
184.8217309999999998
21
-90.3870179999999976
0
LINE
8
BLACK
6
CONTINUOUS
10
120.2373739999999884
20
-62.2246740000000003
11
120.4554159999999996
21
-62.2830979999999954
0
LINE
8
BLACK
6
CONTINUOUS
10
120.4554159999999996
20
-62.2830979999999954
11
120.6599999999999966
21
-62.3784969999999959
0
LINE
8
BLACK
6
CONTINUOUS
10
120.6599999999999966
20
-62.3784969999999959
11
120.8449099999999987
21
-62.5079719999999952
0
LINE
8
BLACK
6
CONTINUOUS
10
120.8449099999999987
20
-62.5079719999999952
11
121.0045279999999934
21
-62.667589999999997
0
LINE
8
BLACK
6
CONTINUOUS
10
121.0045279999999934
20
-62.667589999999997
11
121.1340029999999928
21
-62.8524999999999991
0
LINE
8
BLACK
6
CONTINUOUS
10
121.1340029999999928
20
-62.8524999999999991
11
121.2294019999999932
21
-63.0570839999999961
0
LINE
8
BLACK
6
CONTINUOUS
10
121.2294019999999932
20
-63.0570839999999961
11
121.2878259999999955
21
-63.2751260000000002
0
LINE
8
BLACK
6
CONTINUOUS
10
121.2878259999999955
20
-63.2751260000000002
11
121.3074999999999903
21
-63.5
0
LINE
8
BLACK
6
CONTINUOUS
10
121.3074999999999903
20
-63.5
11
121.2878259999999955
21
-63.7248739999999998
0
LINE
8
BLACK
6
CONTINUOUS
10
121.2878259999999955
20
-63.7248739999999998
11
121.2294019999999932
21
-63.9429159999999968
0
LINE
8
BLACK
6
CONTINUOUS
10
121.2294019999999932
20
-63.9429159999999968
11
121.1340029999999928
21
-64.1474999999999937
0
LINE
8
BLACK
6
CONTINUOUS
10
121.1340029999999928
20
-64.1474999999999937
11
121.0045279999999934
21
-64.3324099999999959
0
LINE
8
BLACK
6
CONTINUOUS
10
121.0045279999999934
20
-64.3324099999999959
11
120.8449099999999987
21
-64.4920279999999906
0
LINE
8
BLACK
6
CONTINUOUS
10
120.8449099999999987
20
-64.4920279999999906
11
120.6599999999999966
21
-64.6215030000000041
0
LINE
8
BLACK
6
CONTINUOUS
10
120.6599999999999966
20
-64.6215030000000041
11
120.4554159999999996
21
-64.7169019999999904
0
LINE
8
BLACK
6
CONTINUOUS
10
120.4554159999999996
20
-64.7169019999999904
11
120.2373739999999884
21
-64.7753259999999926
0
LINE
8
BLACK
6
CONTINUOUS
10
120.2373739999999884
20
-64.7753259999999926
11
120.0124999999999886
21
-64.7950000000000017
0
LINE
8
BLACK
6
CONTINUOUS
10
120.0124999999999886
20
-64.7950000000000017
11
119.7876259999999888
21
-64.7753259999999926
0
LINE
8
BLACK
6
CONTINUOUS
10
119.7876259999999888
20
-64.7753259999999926
11
119.5695839999999919
21
-64.7169019999999904
0
LINE
8
BLACK
6
CONTINUOUS
10
119.5695839999999919
20
-64.7169019999999904
11
119.3649999999999949
21
-64.6215030000000041
0
LINE
8
BLACK
6
CONTINUOUS
10
119.3649999999999949
20
-64.6215030000000041
11
119.1800899999999928
21
-64.4920279999999906
0
LINE
8
BLACK
6
CONTINUOUS
10
119.1800899999999928
20
-64.4920279999999906
11
119.020471999999998
21
-64.3324099999999959
0
LINE
8
BLACK
6
CONTINUOUS
10
119.020471999999998
20
-64.3324099999999959
11
118.8909969999999987
21
-64.1474999999999937
0
LINE
8
BLACK
6
CONTINUOUS
10
118.8909969999999987
20
-64.1474999999999937
11
118.7955979999999983
21
-63.9429159999999968
0
LINE
8
BLACK
6
CONTINUOUS
10
118.7955979999999983
20
-63.9429159999999968
11
118.737173999999996
21
-63.7248739999999998
0
LINE
8
BLACK
6
CONTINUOUS
10
118.737173999999996
20
-63.7248739999999998
11
118.7175000000000011
21
-63.5
0
LINE
8
BLACK
6
CONTINUOUS
10
118.7175000000000011
20
-63.5
11
118.737173999999996
21
-63.2751260000000002
0
LINE
8
BLACK
6
CONTINUOUS
10
118.737173999999996
20
-63.2751260000000002
11
118.7955979999999983
21
-63.0570839999999961
0
LINE
8
BLACK
6
CONTINUOUS
10
118.7955979999999983
20
-63.0570839999999961
11
118.8909969999999987
21
-62.8524999999999991
0
LINE
8
BLACK
6
CONTINUOUS
10
118.8909969999999987
20
-62.8524999999999991
11
119.020471999999998
21
-62.667589999999997
0
LINE
8
BLACK
6
CONTINUOUS
10
119.020471999999998
20
-62.667589999999997
11
119.1800899999999928
21
-62.5079719999999952
0
LINE
8
BLACK
6
CONTINUOUS
10
119.1800899999999928
20
-62.5079719999999952
11
119.3649999999999949
21
-62.3784969999999959
0
LINE
8
BLACK
6
CONTINUOUS
10
119.3649999999999949
20
-62.3784969999999959
11
119.5695839999999919
21
-62.2830979999999954
0
LINE
8
BLACK
6
CONTINUOUS
10
119.5695839999999919
20
-62.2830979999999954
11
119.7876259999999888
21
-62.2246740000000003
0
LINE
8
BLACK
6
CONTINUOUS
10
119.7876259999999888
20
-62.2246740000000003
11
120.0124999999999886
21
-62.2049999999999983
0
LINE
8
BLACK
6
CONTINUOUS
10
120.0124999999999886
20
-62.2049999999999983
11
120.2373739999999884
21
-62.2246740000000003
0
LINE
8
BLACK
6
CONTINUOUS
10
118.7817309999999935
20
-63.7170179999999959
11
118.8381139999999903
21
-63.9274419999999992
0
LINE
8
BLACK
6
CONTINUOUS
10
118.8381139999999903
20
-63.9274419999999992
11
118.9301799999999929
21
-64.1248779999999954
0
LINE
8
BLACK
6
CONTINUOUS
10
118.9301799999999929
20
-64.1248779999999954
11
119.0551309999999887
21
-64.3033279999999934
0
LINE
8
BLACK
6
CONTINUOUS
10
119.0551309999999887
20
-64.3033279999999934
11
119.2091719999999953
21
-64.4573689999999999
0
LINE
8
BLACK
6
CONTINUOUS
10
119.2091719999999953
20
-64.4573689999999999
11
119.3876219999999932
21
-64.5823199999999957
0
LINE
8
BLACK
6
CONTINUOUS
10
119.3876219999999932
20
-64.5823199999999957
11
119.5850579999999894
21
-64.6743859999999984
0
LINE
8
BLACK
6
CONTINUOUS
10
119.5850579999999894
20
-64.6743859999999984
11
119.7954819999999927
21
-64.7307689999999951
0
LINE
8
BLACK
6
CONTINUOUS
10
119.7954819999999927
20
-64.7307689999999951
11
120.0124999999999886
21
-64.7497559999999908
0
LINE
8
BLACK
6
CONTINUOUS
10
120.0124999999999886
20
-64.7497559999999908
11
120.2295179999999988
21
-64.7307689999999951
0
LINE
8
BLACK
6
CONTINUOUS
10
120.2295179999999988
20
-64.7307689999999951
11
120.4399419999999878
21
-64.6743859999999984
0
LINE
8
BLACK
6
CONTINUOUS
10
120.4399419999999878
20
-64.6743859999999984
11
120.6373779999999982
21
-64.5823199999999957
0
LINE
8
BLACK
6
CONTINUOUS
10
120.6373779999999982
20
-64.5823199999999957
11
120.8158279999999962
21
-64.4573689999999999
0
LINE
8
BLACK
6
CONTINUOUS
10
120.8158279999999962
20
-64.4573689999999999
11
120.9698689999999885
21
-64.3033279999999934
0
LINE
8
BLACK
6
CONTINUOUS
10
120.9698689999999885
20
-64.3033279999999934
11
121.0948199999999986
21
-64.1248779999999954
0
LINE
8
BLACK
6
CONTINUOUS
10
121.0948199999999986
20
-64.1248779999999954
11
121.1868860000000012
21
-63.9274419999999992
0
LINE
8
BLACK
6
CONTINUOUS
10
121.1868860000000012
20
-63.9274419999999992
11
121.243268999999998
21
-63.7170179999999959
0
LINE
8
BLACK
6
CONTINUOUS
10
121.243268999999998
20
-63.7170179999999959
11
121.2622559999999936
21
-63.5
0
LINE
8
BLACK
6
CONTINUOUS
10
121.2622559999999936
20
-63.5
11
121.243268999999998
21
-63.282981999999997
0
LINE
8
BLACK
6
CONTINUOUS
10
121.243268999999998
20
-63.282981999999997
11
121.1868860000000012
21
-63.0725579999999937
0
LINE
8
BLACK
6
CONTINUOUS
10
121.1868860000000012
20
-63.0725579999999937
11
121.0948199999999986
21
-62.8751219999999975
0
LINE
8
BLACK
6
CONTINUOUS
10
121.0948199999999986
20
-62.8751219999999975
11
120.9698689999999885
21
-62.6966719999999995
0
LINE
8
BLACK
6
CONTINUOUS
10
120.9698689999999885
20
-62.6966719999999995
11
120.8158279999999962
21
-62.5426310000000001
0
LINE
8
BLACK
6
CONTINUOUS
10
120.8158279999999962
20
-62.5426310000000001
11
120.6373779999999982
21
-62.4176799999999972
0
LINE
8
BLACK
6
CONTINUOUS
10
120.6373779999999982
20
-62.4176799999999972
11
120.4399419999999878
21
-62.3256139999999945
0
LINE
8
BLACK
6
CONTINUOUS
10
120.4399419999999878
20
-62.3256139999999945
11
120.2295179999999988
21
-62.2692309999999978
0
LINE
8
BLACK
6
CONTINUOUS
10
120.2295179999999988
20
-62.2692309999999978
11
120.0124999999999886
21
-62.250243999999995
0
LINE
8
BLACK
6
CONTINUOUS
10
120.0124999999999886
20
-62.250243999999995
11
119.7954819999999927
21
-62.2692309999999978
0
LINE
8
BLACK
6
CONTINUOUS
10
119.7954819999999927
20
-62.2692309999999978
11
119.5850579999999894
21
-62.3256139999999945
0
LINE
8
BLACK
6
CONTINUOUS
10
119.5850579999999894
20
-62.3256139999999945
11
119.3876219999999932
21
-62.4176799999999972
0
LINE
8
BLACK
6
CONTINUOUS
10
119.3876219999999932
20
-62.4176799999999972
11
119.2091719999999953
21
-62.5426310000000001
0
LINE
8
BLACK
6
CONTINUOUS
10
119.2091719999999953
20
-62.5426310000000001
11
119.0551309999999887
21
-62.6966719999999995
0
LINE
8
BLACK
6
CONTINUOUS
10
119.0551309999999887
20
-62.6966719999999995
11
118.9301799999999929
21
-62.8751219999999975
0
LINE
8
BLACK
6
CONTINUOUS
10
118.9301799999999929
20
-62.8751219999999975
11
118.8381139999999903
21
-63.0725579999999937
0
LINE
8
BLACK
6
CONTINUOUS
10
118.8381139999999903
20
-63.0725579999999937
11
118.7817309999999935
21
-63.282981999999997
0
LINE
8
BLACK
6
CONTINUOUS
10
118.7817309999999935
20
-63.282981999999997
11
118.7627439999999979
21
-63.5
0
LINE
8
BLACK
6
CONTINUOUS
10
118.7627439999999979
20
-63.5
11
118.7817309999999935
21
-63.7170179999999959
0
LINE
8
BLACK
6
CONTINUOUS
10
186.2773739999999805
20
-62.2246740000000003
11
186.4954159999999774
21
-62.2830979999999954
0
LINE
8
BLACK
6
CONTINUOUS
10
186.4954159999999774
20
-62.2830979999999954
11
186.6999999999999886
21
-62.3784969999999959
0
LINE
8
BLACK
6
CONTINUOUS
10
186.6999999999999886
20
-62.3784969999999959
11
186.8849099999999908
21
-62.5079719999999952
0
LINE
8
BLACK
6
CONTINUOUS
10
186.8849099999999908
20
-62.5079719999999952
11
187.0445279999999855
21
-62.667589999999997
0
LINE
8
BLACK
6
CONTINUOUS
10
187.0445279999999855
20
-62.667589999999997
11
187.174002999999999
21
-62.8524999999999991
0
LINE
8
BLACK
6
CONTINUOUS
10
187.174002999999999
20
-62.8524999999999991
11
187.2694019999999853
21
-63.0570839999999961
0
LINE
8
BLACK
6
CONTINUOUS
10
187.2694019999999853
20
-63.0570839999999961
11
187.3278259999999875
21
-63.2751260000000002
0
LINE
8
BLACK
6
CONTINUOUS
10
187.3278259999999875
20
-63.2751260000000002
11
187.3474999999999966
21
-63.5
0
LINE
8
BLACK
6
CONTINUOUS
10
187.3474999999999966
20
-63.5
11
187.3278259999999875
21
-63.7248739999999998
0
LINE
8
BLACK
6
CONTINUOUS
10
187.3278259999999875
20
-63.7248739999999998
11
187.2694019999999853
21
-63.9429159999999968
0
LINE
8
BLACK
6
CONTINUOUS
10
187.2694019999999853
20
-63.9429159999999968
11
187.174002999999999
21
-64.1474999999999937
0
LINE
8
BLACK
6
CONTINUOUS
10
187.174002999999999
20
-64.1474999999999937
11
187.0445279999999855
21
-64.3324099999999959
0
LINE
8
BLACK
6
CONTINUOUS
10
187.0445279999999855
20
-64.3324099999999959
11
186.8849099999999908
21
-64.4920279999999906
0
LINE
8
BLACK
6
CONTINUOUS
10
186.8849099999999908
20
-64.4920279999999906
11
186.6999999999999886
21
-64.6215030000000041
0
LINE
8
BLACK
6
CONTINUOUS
10
186.6999999999999886
20
-64.6215030000000041
11
186.4954159999999774
21
-64.7169019999999904
0
LINE
8
BLACK
6
CONTINUOUS
10
186.4954159999999774
20
-64.7169019999999904
11
186.2773739999999805
21
-64.7753259999999926
0
LINE
8
BLACK
6
CONTINUOUS
10
186.2773739999999805
20
-64.7753259999999926
11
186.0524999999999807
21
-64.7950000000000017
0
LINE
8
BLACK
6
CONTINUOUS
10
186.0524999999999807
20
-64.7950000000000017
11
185.8276259999999809
21
-64.7753259999999926
0
LINE
8
BLACK
6
CONTINUOUS
10
185.8276259999999809
20
-64.7753259999999926
11
185.6095839999999839
21
-64.7169019999999904
0
LINE
8
BLACK
6
CONTINUOUS
10
185.6095839999999839
20
-64.7169019999999904
11
185.4050000000000011
21
-64.6215030000000041
0
LINE
8
BLACK
6
CONTINUOUS
10
185.4050000000000011
20
-64.6215030000000041
11
185.220089999999999
21
-64.4920279999999906
0
LINE
8
BLACK
6
CONTINUOUS
10
185.220089999999999
20
-64.4920279999999906
11
185.0604720000000043
21
-64.3324099999999959
0
LINE
8
BLACK
6
CONTINUOUS
10
185.0604720000000043
20
-64.3324099999999959
11
184.9309969999999907
21
-64.1474999999999937
0
LINE
8
BLACK
6
CONTINUOUS
10
184.9309969999999907
20
-64.1474999999999937
11
184.8355980000000045
21
-63.9429159999999968
0
LINE
8
BLACK
6
CONTINUOUS
10
184.8355980000000045
20
-63.9429159999999968
11
184.7771740000000023
21
-63.7248739999999998
0
LINE
8
BLACK
6
CONTINUOUS
10
184.7771740000000023
20
-63.7248739999999998
11
184.7574999999999932
21
-63.5
0
LINE
8
BLACK
6
CONTINUOUS
10
184.7574999999999932
20
-63.5
11
184.7771740000000023
21
-63.2751260000000002
0
LINE
8
BLACK
6
CONTINUOUS
10
184.7771740000000023
20
-63.2751260000000002
11
184.8355980000000045
21
-63.0570839999999961
0
LINE
8
BLACK
6
CONTINUOUS
10
184.8355980000000045
20
-63.0570839999999961
11
184.9309969999999907
21
-62.8524999999999991
0
LINE
8
BLACK
6
CONTINUOUS
10
184.9309969999999907
20
-62.8524999999999991
11
185.0604720000000043
21
-62.667589999999997
0
LINE
8
BLACK
6
CONTINUOUS
10
185.0604720000000043
20
-62.667589999999997
11
185.220089999999999
21
-62.5079719999999952
0
LINE
8
BLACK
6
CONTINUOUS
10
185.220089999999999
20
-62.5079719999999952
11
185.4050000000000011
21
-62.3784969999999959
0
LINE
8
BLACK
6
CONTINUOUS
10
185.4050000000000011
20
-62.3784969999999959
11
185.6095839999999839
21
-62.2830979999999954
0
LINE
8
BLACK
6
CONTINUOUS
10
185.6095839999999839
20
-62.2830979999999954
11
185.8276259999999809
21
-62.2246740000000003
0
LINE
8
BLACK
6
CONTINUOUS
10
185.8276259999999809
20
-62.2246740000000003
11
186.0524999999999807
21
-62.2049999999999983
0
LINE
8
BLACK
6
CONTINUOUS
10
186.0524999999999807
20
-62.2049999999999983
11
186.2773739999999805
21
-62.2246740000000003
0
LINE
8
BLACK
6
CONTINUOUS
10
184.8217309999999998
20
-63.7170179999999959
11
184.8781139999999823
21
-63.9274419999999992
0
LINE
8
BLACK
6
CONTINUOUS
10
184.8781139999999823
20
-63.9274419999999992
11
184.9701799999999992
21
-64.1248779999999954
0
LINE
8
BLACK
6
CONTINUOUS
10
184.9701799999999992
20
-64.1248779999999954
11
185.0951309999999808
21
-64.3033279999999934
0
LINE
8
BLACK
6
CONTINUOUS
10
185.0951309999999808
20
-64.3033279999999934
11
185.2491719999999873
21
-64.4573689999999999
0
LINE
8
BLACK
6
CONTINUOUS
10
185.2491719999999873
20
-64.4573689999999999
11
185.4276219999999853
21
-64.5823199999999957
0
LINE
8
BLACK
6
CONTINUOUS
10
185.4276219999999853
20
-64.5823199999999957
11
185.6250579999999957
21
-64.6743859999999984
0
LINE
8
BLACK
6
CONTINUOUS
10
185.6250579999999957
20
-64.6743859999999984
11
185.8354819999999847
21
-64.7307689999999951
0
LINE
8
BLACK
6
CONTINUOUS
10
185.8354819999999847
20
-64.7307689999999951
11
186.0524999999999807
21
-64.7497559999999908
0
LINE
8
BLACK
6
CONTINUOUS
10
186.0524999999999807
20
-64.7497559999999908
11
186.269518000000005
21
-64.7307689999999951
0
LINE
8
BLACK
6
CONTINUOUS
10
186.269518000000005
20
-64.7307689999999951
11
186.4799419999999941
21
-64.6743859999999984
0
LINE
8
BLACK
6
CONTINUOUS
10
186.4799419999999941
20
-64.6743859999999984
11
186.6773780000000045
21
-64.5823199999999957
0
LINE
8
BLACK
6
CONTINUOUS
10
186.6773780000000045
20
-64.5823199999999957
11
186.8558280000000025
21
-64.4573689999999999
0
LINE
8
BLACK
6
CONTINUOUS
10
186.8558280000000025
20
-64.4573689999999999
11
187.0098689999999806
21
-64.3033279999999934
0
LINE
8
BLACK
6
CONTINUOUS
10
187.0098689999999806
20
-64.3033279999999934
11
187.1348199999999906
21
-64.1248779999999954
0
LINE
8
BLACK
6
CONTINUOUS
10
187.1348199999999906
20
-64.1248779999999954
11
187.226885999999979
21
-63.9274419999999992
0
LINE
8
BLACK
6
CONTINUOUS
10
187.226885999999979
20
-63.9274419999999992
11
187.28326899999999
21
-63.7170179999999959
0
LINE
8
BLACK
6
CONTINUOUS
10
187.28326899999999
20
-63.7170179999999959
11
187.3022559999999999
21
-63.5
0
LINE
8
BLACK
6
CONTINUOUS
10
187.3022559999999999
20
-63.5
11
187.28326899999999
21
-63.282981999999997
0
LINE
8
BLACK
6
CONTINUOUS
10
187.28326899999999
20
-63.282981999999997
11
187.226885999999979
21
-63.0725579999999937
0
LINE
8
BLACK
6
CONTINUOUS
10
187.226885999999979
20
-63.0725579999999937
11
187.1348199999999906
21
-62.8751219999999975
0
LINE
8
BLACK
6
CONTINUOUS
10
187.1348199999999906
20
-62.8751219999999975
11
187.0098689999999806
21
-62.6966719999999995
0
LINE
8
BLACK
6
CONTINUOUS
10
187.0098689999999806
20
-62.6966719999999995
11
186.8558280000000025
21
-62.5426310000000001
0
LINE
8
BLACK
6
CONTINUOUS
10
186.8558280000000025
20
-62.5426310000000001
11
186.6773780000000045
21
-62.4176799999999972
0
LINE
8
BLACK
6
CONTINUOUS
10
186.6773780000000045
20
-62.4176799999999972
11
186.4799419999999941
21
-62.3256139999999945
0
LINE
8
BLACK
6
CONTINUOUS
10
186.4799419999999941
20
-62.3256139999999945
11
186.269518000000005
21
-62.2692309999999978
0
LINE
8
BLACK
6
CONTINUOUS
10
186.269518000000005
20
-62.2692309999999978
11
186.0524999999999807
21
-62.250243999999995
0
LINE
8
BLACK
6
CONTINUOUS
10
186.0524999999999807
20
-62.250243999999995
11
185.8354819999999847
21
-62.2692309999999978
0
LINE
8
BLACK
6
CONTINUOUS
10
185.8354819999999847
20
-62.2692309999999978
11
185.6250579999999957
21
-62.3256139999999945
0
LINE
8
BLACK
6
CONTINUOUS
10
185.6250579999999957
20
-62.3256139999999945
11
185.4276219999999853
21
-62.4176799999999972
0
LINE
8
BLACK
6
CONTINUOUS
10
185.4276219999999853
20
-62.4176799999999972
11
185.2491719999999873
21
-62.5426310000000001
0
LINE
8
BLACK
6
CONTINUOUS
10
185.2491719999999873
20
-62.5426310000000001
11
185.0951309999999808
21
-62.6966719999999995
0
LINE
8
BLACK
6
CONTINUOUS
10
185.0951309999999808
20
-62.6966719999999995
11
184.9701799999999992
21
-62.8751219999999975
0
LINE
8
BLACK
6
CONTINUOUS
10
184.9701799999999992
20
-62.8751219999999975
11
184.8781139999999823
21
-63.0725579999999937
0
LINE
8
BLACK
6
CONTINUOUS
10
184.8781139999999823
20
-63.0725579999999937
11
184.8217309999999998
21
-63.282981999999997
0
LINE
8
BLACK
6
CONTINUOUS
10
184.8217309999999998
20
-63.282981999999997
11
184.8027439999999899
21
-63.5
0
LINE
8
BLACK
6
CONTINUOUS
10
184.8027439999999899
20
-63.5
11
184.8217309999999998
21
-63.7170179999999959
0
LINE
8
BLACK
6
CONTINUOUS
10
188.6020670000000052
20
-61.5719029999999989
11
188.6155969999999797
21
-61.5854329999999948
0
LINE
8
BLACK
6
CONTINUOUS
10
188.6155969999999797
20
-61.5854329999999948
11
188.6174999999999784
21
-61.5949999999999989
0
LINE
8
BLACK
6
CONTINUOUS
10
188.6174999999999784
20
-61.5949999999999989
11
188.6174999999999784
21
-92.7099999999999937
0
LINE
8
BLACK
6
CONTINUOUS
10
188.6174999999999784
20
-92.7099999999999937
11
188.6155969999999797
21
-92.7195669999999978
0
LINE
8
BLACK
6
CONTINUOUS
10
188.6155969999999797
20
-92.7195669999999978
11
188.6020670000000052
21
-92.7330970000000008
0
LINE
8
BLACK
6
CONTINUOUS
10
188.6020670000000052
20
-92.7330970000000008
11
188.5925000000000011
21
-92.7349999999999994
0
LINE
8
BLACK
6
CONTINUOUS
10
188.5925000000000011
20
-92.7349999999999994
11
154.9625000000000057
21
-92.7349999999999994
0
LINE
8
BLACK
6
CONTINUOUS
10
154.9625000000000057
20
-92.7349999999999994
11
154.9625000000000057
21
-116.2049999999999983
0
LINE
8
BLACK
6
CONTINUOUS
10
154.9625000000000057
20
-116.2049999999999983
11
154.960597000000007
21
-116.2145669999999882
0
LINE
8
BLACK
6
CONTINUOUS
10
154.960597000000007
20
-116.2145669999999882
11
154.9470670000000041
21
-116.2280969999999911
0
LINE
8
BLACK
6
CONTINUOUS
10
154.9470670000000041
20
-116.2280969999999911
11
154.9375
21
-116.2299999999999898
0
LINE
8
BLACK
6
CONTINUOUS
10
154.9375
20
-116.2299999999999898
11
118.1075000000000017
21
-116.2299999999999898
0
LINE
8
BLACK
6
CONTINUOUS
10
118.1075000000000017
20
-116.2299999999999898
11
118.0979329999999976
21
-116.2280969999999911
0
LINE
8
BLACK
6
CONTINUOUS
10
118.0979329999999976
20
-116.2280969999999911
11
118.0844029999999947
21
-116.2145669999999882
0
LINE
8
BLACK
6
CONTINUOUS
10
118.0844029999999947
20
-116.2145669999999882
11
118.082499999999996
21
-116.2049999999999983
0
LINE
8
BLACK
6
CONTINUOUS
10
118.082499999999996
20
-116.2049999999999983
11
118.082499999999996
21
-61.5949999999999989
0
LINE
8
BLACK
6
CONTINUOUS
10
118.082499999999996
20
-61.5949999999999989
11
118.0844029999999947
21
-61.5854329999999948
0
LINE
8
BLACK
6
CONTINUOUS
10
118.0844029999999947
20
-61.5854329999999948
11
118.0979329999999976
21
-61.5719029999999989
0
LINE
8
BLACK
6
CONTINUOUS
10
118.0979329999999976
20
-61.5719029999999989
11
118.1075000000000017
21
-61.5700000000000003
0
LINE
8
BLACK
6
CONTINUOUS
10
118.1075000000000017
20
-61.5700000000000003
11
188.5925000000000011
21
-61.5700000000000003
0
LINE
8
BLACK
6
CONTINUOUS
10
188.5925000000000011
20
-61.5700000000000003
11
188.6020670000000052
21
-61.5719029999999989
0
LINE
8
BLACK
6
CONTINUOUS
10
118.1324999999999932
20
-61.6199999999999974
11
118.1324999999999932
21
-116.1799999999999926
0
LINE
8
BLACK
6
CONTINUOUS
10
118.1324999999999932
20
-116.1799999999999926
11
154.9124999999999943
21
-116.1799999999999926
0
LINE
8
BLACK
6
CONTINUOUS
10
154.9124999999999943
20
-116.1799999999999926
11
154.9124999999999943
21
-92.7099999999999937
0
LINE
8
BLACK
6
CONTINUOUS
10
154.9124999999999943
20
-92.7099999999999937
11
154.914402999999993
21
-92.7004329999999896
0
LINE
8
BLACK
6
CONTINUOUS
10
154.914402999999993
20
-92.7004329999999896
11
154.9279329999999959
21
-92.6869030000000009
0
LINE
8
BLACK
6
CONTINUOUS
10
154.9279329999999959
20
-92.6869030000000009
11
154.9375
21
-92.6850000000000023
0
LINE
8
BLACK
6
CONTINUOUS
10
154.9375
20
-92.6850000000000023
11
188.5674999999999955
21
-92.6850000000000023
0
LINE
8
BLACK
6
CONTINUOUS
10
188.5674999999999955
20
-92.6850000000000023
11
188.5674999999999955
21
-61.6199999999999974
0
LINE
8
BLACK
6
CONTINUOUS
10
188.5674999999999955
20
-61.6199999999999974
11
118.1324999999999932
21
-61.6199999999999974
0
CIRCLE
8
BLACK
10
182.8799999999999955
20
-85.0899999999999892
40
0.5
0
CIRCLE
8
BLACK
10
182.8799999999999955
20
-82.5499999999999972
40
0.5
0
CIRCLE
8
BLACK
10
182.8799999999999955
20
-80.0099999999999909
40
0.5
0
CIRCLE
8
BLACK
10
182.8799999999999955
20
-77.4699999999999989
40
0.5
0
CIRCLE
8
BLACK
10
182.8799999999999955
20
-74.9299999999999926
40
0.5
0
CIRCLE
8
BLACK
10
182.8799999999999955
20
-72.3900000000000006
40
0.5
0
CIRCLE
8
BLACK
10
180.3400000000000034
20
-85.0899999999999892
40
0.5
0
CIRCLE
8
BLACK
10
180.3400000000000034
20
-82.5499999999999972
40
0.5
0
CIRCLE
8
BLACK
10
180.3400000000000034
20
-80.0099999999999909
40
0.5
0
CIRCLE
8
BLACK
10
180.3400000000000034
20
-77.4699999999999989
40
0.5
0
CIRCLE
8
BLACK
10
180.3400000000000034
20
-74.9299999999999926
40
0.5
0
CIRCLE
8
BLACK
10
180.3400000000000034
20
-72.3900000000000006
40
0.5
0
CIRCLE
8
BLACK
10
149.8599999999999852
20
-71.1199999999999903
40
0.381
0
CIRCLE
8
BLACK
10
149.8599999999999852
20
-73.7000000000000028
40
0.381
0
CIRCLE
8
BLACK
10
149.8599999999999852
20
-76.2000000000000028
40
0.381
0
CIRCLE
8
BLACK
10
149.8599999999999852
20
-78.7399999999999949
40
0.381
0
CIRCLE
8
BLACK
10
149.8599999999999852
20
-81.2800000000000011
40
0.381
0
CIRCLE
8
BLACK
10
149.8599999999999852
20
-83.8199999999999932
40
0.381
0
CIRCLE
8
BLACK
10
149.8599999999999852
20
-86.3599999999999994
40
0.381
0
CIRCLE
8
BLACK
10
149.8599999999999852
20
-88.8999999999999915
40
0.381
0
CIRCLE
8
BLACK
10
149.8599999999999852
20
-91.4399999999999977
40
0.381
0
CIRCLE
8
BLACK
10
149.8599999999999852
20
-93.9799999999999898
40
0.381
0
CIRCLE
8
BLACK
10
149.8599999999999852
20
-96.519999999999996
40
0.381
0
CIRCLE
8
BLACK
10
149.8599999999999852
20
-99.0600000000000023
40
0.381
0
CIRCLE
8
BLACK
10
149.8599999999999852
20
-101.5999999999999943
40
0.381
0
CIRCLE
8
BLACK
10
149.8599999999999852
20
-104.1400000000000006
40
0.381
0
CIRCLE
8
BLACK
10
149.8599999999999852
20
-106.6799999999999926
40
0.381
0
CIRCLE
8
BLACK
10
124.4599999999999937
20
-106.6799999999999926
40
0.381
0
CIRCLE
8
BLACK
10
124.4599999999999937
20
-104.1400000000000006
40
0.381
0
CIRCLE
8
BLACK
10
124.4599999999999937
20
-101.5999999999999943
40
0.381
0
CIRCLE
8
BLACK
10
124.4599999999999937
20
-99.0600000000000023
40
0.381
0
CIRCLE
8
BLACK
10
124.4599999999999937
20
-96.519999999999996
40
0.381
0
CIRCLE
8
BLACK
10
124.4599999999999937
20
-93.9799999999999898
40
0.381
0
CIRCLE
8
BLACK
10
124.4599999999999937
20
-91.4399999999999977
40
0.381
0
CIRCLE
8
BLACK
10
124.4599999999999937
20
-88.8999999999999915
40
0.381
0
CIRCLE
8
BLACK
10
124.4599999999999937
20
-86.3599999999999994
40
0.381
0
CIRCLE
8
BLACK
10
124.4599999999999937
20
-83.8199999999999932
40
0.381
0
CIRCLE
8
BLACK
10
124.4599999999999937
20
-81.2800000000000011
40
0.381
0
CIRCLE
8
BLACK
10
124.4599999999999937
20
-78.7399999999999949
40
0.381
0
CIRCLE
8
BLACK
10
124.4599999999999937
20
-76.2000000000000028
40
0.381
0
CIRCLE
8
BLACK
10
124.4599999999999937
20
-73.7000000000000028
40
0.381
0
CIRCLE
8
BLACK
10
124.4599999999999937
20
-71.1199999999999903
40
0.381
0
CIRCLE
8
BLACK
10
149.8599999999999852
20
-106.6749999999999972
40
0.381
0
CIRCLE
8
BLACK
10
149.8599999999999852
20
-104.1349999999999909
40
0.381
0
CIRCLE
8
BLACK
10
149.8599999999999852
20
-101.5949999999999989
40
0.381
0
CIRCLE
8
BLACK
10
149.8599999999999852
20
-99.0549999999999926
40
0.381
0
CIRCLE
8
BLACK
10
149.8599999999999852
20
-96.5150000000000006
40
0.381
0
CIRCLE
8
BLACK
10
149.8599999999999852
20
-93.9749999999999943
40
0.381
0
CIRCLE
8
BLACK
10
149.8599999999999852
20
-91.4350000000000023
40
0.381
0
CIRCLE
8
BLACK
10
149.8599999999999852
20
-88.894999999999996
40
0.381
0
CIRCLE
8
BLACK
10
149.8599999999999852
20
-86.3549999999999898
40
0.381
0
CIRCLE
8
BLACK
10
149.8599999999999852
20
-83.8149999999999977
40
0.381
0
CIRCLE
8
BLACK
10
149.8599999999999852
20
-81.2749999999999915
40
0.381
0
CIRCLE
8
BLACK
10
149.8599999999999852
20
-78.7349999999999994
40
0.381
0
CIRCLE
8
BLACK
10
149.8599999999999852
20
-76.1949999999999932
40
0.381
0
CIRCLE
8
BLACK
10
149.8599999999999852
20
-73.6550000000000011
40
0.381
0
CIRCLE
8
BLACK
10
149.8599999999999852
20
-71.1149999999999949
40
0.381
0
CIRCLE
8
BLACK
10
152.4000000000000057
20
-106.6799999999999926
40
0.381
0
CIRCLE
8
BLACK
10
152.4000000000000057
20
-104.1400000000000006
40
0.381
0
CIRCLE
8
BLACK
10
152.4000000000000057
20
-101.5999999999999943
40
0.381
0
CIRCLE
8
BLACK
10
152.4000000000000057
20
-99.0600000000000023
40
0.381
0
CIRCLE
8
BLACK
10
152.4000000000000057
20
-96.519999999999996
40
0.381
0
CIRCLE
8
BLACK
10
152.4000000000000057
20
-93.9799999999999898
40
0.381
0
CIRCLE
8
BLACK
10
152.4000000000000057
20
-91.4399999999999977
40
0.381
0
CIRCLE
8
BLACK
10
152.4000000000000057
20
-88.8999999999999915
40
0.381
0
CIRCLE
8
BLACK
10
152.4000000000000057
20
-86.3599999999999994
40
0.381
0
CIRCLE
8
BLACK
10
152.4000000000000057
20
-83.8199999999999932
40
0.381
0
CIRCLE
8
BLACK
10
152.4000000000000057
20
-81.2800000000000011
40
0.381
0
CIRCLE
8
BLACK
10
152.4000000000000057
20
-78.7399999999999949
40
0.381
0
CIRCLE
8
BLACK
10
152.4000000000000057
20
-76.2000000000000028
40
0.381
0
CIRCLE
8
BLACK
10
152.4000000000000057
20
-73.6599999999999966
40
0.381
0
CIRCLE
8
BLACK
10
152.4000000000000057
20
-71.1199999999999903
40
0.381
0
CIRCLE
8
BLACK
10
167.0024999999999977
20
-80.0099999999999909
40
0.381
0
CIRCLE
8
BLACK
10
164.4625000000000057
20
-80.0099999999999909
40
0.381
0
CIRCLE
8
BLACK
10
161.9224999999999852
20
-80.0099999999999909
40
0.381
0
CIRCLE
8
BLACK
10
159.3824999999999932
20
-80.0099999999999909
40
0.381
0
CIRCLE
8
BLACK
10
177.7999999999999829
20
-69.8349999999999937
40
0.381
0
CIRCLE
8
BLACK
10
177.7999999999999829
20
-72.375
40
0.381
0
CIRCLE
8
BLACK
10
177.7999999999999829
20
-74.914999999999992
40
0.381
0
CIRCLE
8
BLACK
10
177.7999999999999829
20
-77.4549999999999983
40
0.381
0
CIRCLE
8
BLACK
10
177.7999999999999829
20
-79.9949999999999903
40
0.381
0
CIRCLE
8
BLACK
10
177.7999999999999829
20
-82.5349999999999966
40
0.381
0
CIRCLE
8
BLACK
10
177.7999999999999829
20
-85.0750000000000028
40
0.381
0
CIRCLE
8
BLACK
10
177.7999999999999829
20
-87.6149999999999949
40
0.381
0
CIRCLE
8
BLACK
10
121.9199999999999875
20
-71.1149999999999949
40
0.381
0
CIRCLE
8
BLACK
10
121.9199999999999875
20
-73.6550000000000011
40
0.381
0
CIRCLE
8
BLACK
10
121.9199999999999875
20
-76.1949999999999932
40
0.381
0
CIRCLE
8
BLACK
10
121.9199999999999875
20
-78.7349999999999994
40
0.381
0
CIRCLE
8
BLACK
10
121.9199999999999875
20
-81.2749999999999915
40
0.381
0
CIRCLE
8
BLACK
10
121.9199999999999875
20
-83.8149999999999977
40
0.381
0
CIRCLE
8
BLACK
10
121.9199999999999875
20
-86.3549999999999898
40
0.381
0
CIRCLE
8
BLACK
10
121.9199999999999875
20
-88.894999999999996
40
0.381
0
CIRCLE
8
BLACK
10
121.9199999999999875
20
-91.4350000000000023
40
0.381
0
CIRCLE
8
BLACK
10
121.9199999999999875
20
-93.9749999999999943
40
0.381
0
CIRCLE
8
BLACK
10
121.9199999999999875
20
-96.5150000000000006
40
0.381
0
CIRCLE
8
BLACK
10
121.9199999999999875
20
-99.0549999999999926
40
0.381
0
CIRCLE
8
BLACK
10
121.9199999999999875
20
-101.5949999999999989
40
0.381
0
CIRCLE
8
BLACK
10
121.9199999999999875
20
-104.1349999999999909
40
0.381
0
CIRCLE
8
BLACK
10
121.9199999999999875
20
-106.6749999999999972
40
0.381
0
CIRCLE
8
BLACK
10
124.4599999999999937
20
-106.6799999999999926
40
0.381
0
CIRCLE
8
BLACK
10
124.4599999999999937
20
-104.1400000000000006
40
0.381
0
CIRCLE
8
BLACK
10
124.4599999999999937
20
-101.5999999999999943
40
0.381
0
CIRCLE
8
BLACK
10
124.4599999999999937
20
-99.0600000000000023
40
0.381
0
CIRCLE
8
BLACK
10
124.4599999999999937
20
-96.519999999999996
40
0.381
0
CIRCLE
8
BLACK
10
124.4599999999999937
20
-93.9799999999999898
40
0.381
0
CIRCLE
8
BLACK
10
124.4599999999999937
20
-91.4399999999999977
40
0.381
0
CIRCLE
8
BLACK
10
124.4599999999999937
20
-88.8999999999999915
40
0.381
0
CIRCLE
8
BLACK
10
124.4599999999999937
20
-86.3599999999999994
40
0.381
0
CIRCLE
8
BLACK
10
124.4599999999999937
20
-83.8199999999999932
40
0.381
0
CIRCLE
8
BLACK
10
124.4599999999999937
20
-81.2800000000000011
40
0.381
0
CIRCLE
8
BLACK
10
124.4599999999999937
20
-78.7399999999999949
40
0.381
0
CIRCLE
8
BLACK
10
124.4599999999999937
20
-76.2000000000000028
40
0.381
0
CIRCLE
8
BLACK
10
124.4599999999999937
20
-73.6599999999999966
40
0.381
0
CIRCLE
8
BLACK
10
124.4599999999999937
20
-71.1199999999999903
40
0.381
  0
ENDSEC
  0
EOF
