<?xml version="1.0" standalone="no"?>
 <!DOCTYPE svg PUBLIC "-//W3C//DTD SVG 1.1//EN" 
 "http://www.w3.org/Graphics/SVG/1.1/DTD/svg11.dtd"> 
<svg
  xmlns:svg="http://www.w3.org/2000/svg"
  xmlns="http://www.w3.org/2000/svg"
  xmlns:xlink="http://www.w3.org/1999/xlink"
  version="1.1"
  width="45.7200mm" height="62.2300mm" viewBox="0.0000 0.0000 45.7200 62.2300">
<title>SVG Image created as mask.svg date 2024/12/15 15:42:03 </title>
  <desc>Image generated by PCBNEW </desc>
<g style="fill:#000000; fill-opacity:1.0000;stroke:#000000; stroke-opacity:1.0000;
stroke-linecap:round; stroke-linejoin:round;"
 transform="translate(0 0) scale(1 1)">
<path style="fill:#000084; fill-opacity:1.0000; 
stroke:#000084; stroke-width:0.1000; stroke-opacity:1; 
stroke-linecap:round; stroke-linejoin:round;fill-rule:evenodd;"
d="M 45.7200,15.8750
45.7200,63.5000
0.0000,63.5000
0.0000,0.0000
45.7200,0.0000
Z" /> 
</g>
<g style="fill:#848400; fill-opacity:1.0000; stroke:none;">
<circle cx="10.1650" cy="14.0404" r="1.1430" /> 
</g>
<g style="fill:#848400; fill-opacity:1.0000; stroke:none;">
<circle cx="10.1650" cy="16.6204" r="1.1430" /> 
</g>
<g style="fill:#848400; fill-opacity:1.0000; stroke:none;">
<circle cx="10.1650" cy="19.1204" r="1.1430" /> 
</g>
<g style="fill:#848400; fill-opacity:1.0000; stroke:none;">
<circle cx="10.1650" cy="21.6604" r="1.1430" /> 
</g>
<g style="fill:#848400; fill-opacity:1.0000; stroke:none;">
<circle cx="10.1650" cy="24.2004" r="1.1430" /> 
</g>
<g style="fill:#848400; fill-opacity:1.0000; stroke:none;">
<circle cx="10.1650" cy="26.7404" r="1.1430" /> 
</g>
<g style="fill:#848400; fill-opacity:1.0000; stroke:none;">
<circle cx="10.1650" cy="29.2804" r="1.1430" /> 
</g>
<g style="fill:#848400; fill-opacity:1.0000; stroke:none;">
<circle cx="10.1650" cy="31.8204" r="1.1430" /> 
</g>
<g style="fill:#848400; fill-opacity:1.0000; stroke:none;">
<circle cx="10.1650" cy="34.3604" r="1.1430" /> 
</g>
<g style="fill:#848400; fill-opacity:1.0000; stroke:none;">
<circle cx="10.1650" cy="36.9004" r="1.1430" /> 
</g>
<g style="fill:#848400; fill-opacity:1.0000; stroke:none;">
<circle cx="10.1650" cy="39.4404" r="1.1430" /> 
</g>
<g style="fill:#848400; fill-opacity:1.0000; stroke:none;">
<circle cx="10.1650" cy="41.9804" r="1.1430" /> 
</g>
<g style="fill:#848400; fill-opacity:1.0000; stroke:none;">
<circle cx="10.1650" cy="44.5204" r="1.1430" /> 
</g>
<g style="fill:#848400; fill-opacity:1.0000; stroke:none;">
<circle cx="10.1650" cy="47.0604" r="1.1430" /> 
</g>
<g style="fill:#848400; fill-opacity:1.0000; stroke:none;">
<circle cx="10.1650" cy="49.6004" r="1.1430" /> 
</g>
<g style="fill:#848400; fill-opacity:1.0000; stroke:none;">
<circle cx="35.5650" cy="49.6004" r="1.1430" /> 
</g>
<g style="fill:#848400; fill-opacity:1.0000; stroke:none;">
<circle cx="35.5650" cy="47.0604" r="1.1430" /> 
</g>
<g style="fill:#848400; fill-opacity:1.0000; stroke:none;">
<circle cx="35.5650" cy="44.5204" r="1.1430" /> 
</g>
<g style="fill:#848400; fill-opacity:1.0000; stroke:none;">
<circle cx="35.5650" cy="41.9804" r="1.1430" /> 
</g>
<g style="fill:#848400; fill-opacity:1.0000; stroke:none;">
<circle cx="35.5650" cy="39.4404" r="1.1430" /> 
</g>
<g style="fill:#848400; fill-opacity:1.0000; stroke:none;">
<circle cx="35.5650" cy="36.9004" r="1.1430" /> 
</g>
<g style="fill:#848400; fill-opacity:1.0000; stroke:none;">
<circle cx="35.5650" cy="34.3604" r="1.1430" /> 
</g>
<g style="fill:#848400; fill-opacity:1.0000; stroke:none;">
<circle cx="35.5650" cy="31.8204" r="1.1430" /> 
</g>
<g style="fill:#848400; fill-opacity:1.0000; stroke:none;">
<circle cx="35.5650" cy="29.2804" r="1.1430" /> 
</g>
<g style="fill:#848400; fill-opacity:1.0000; stroke:none;">
<circle cx="35.5650" cy="26.7404" r="1.1430" /> 
</g>
<g style="fill:#848400; fill-opacity:1.0000; stroke:none;">
<circle cx="35.5650" cy="24.2004" r="1.1430" /> 
</g>
<g style="fill:#848400; fill-opacity:1.0000; stroke:none;">
<circle cx="35.5650" cy="21.6604" r="1.1430" /> 
</g>
<g style="fill:#848400; fill-opacity:1.0000; stroke:none;">
<circle cx="35.5650" cy="19.1204" r="1.1430" /> 
</g>
<g style="fill:#848400; fill-opacity:1.0000; stroke:none;">
<circle cx="35.5650" cy="16.6204" r="1.1430" /> 
</g>
<g style="fill:#848400; fill-opacity:1.0000; stroke:none;">
<circle cx="35.5650" cy="14.0404" r="1.1430" /> 
</g>
<g style="fill:#848400; fill-opacity:1.0000; stroke:none;">
<circle cx="43.1800" cy="46.3500" r="1.1430" /> 
</g>
<g style="fill:#848400; fill-opacity:1.0000; stroke:none;">
<circle cx="43.1800" cy="48.8900" r="1.1430" /> 
</g>
<g style="fill:#848400; fill-opacity:1.0000; stroke:none;">
<circle cx="25.4000" cy="45.7200" r="1.1430" /> 
</g>
<g style="fill:#848400; fill-opacity:1.0000; stroke:none;">
<circle cx="22.8600" cy="45.7200" r="1.1430" /> 
</g>
<g style="fill:#848400; fill-opacity:1.0000; stroke:none;">
<circle cx="20.3200" cy="45.7200" r="1.1430" /> 
</g>
<g style="fill:#848400; fill-opacity:1.0000; stroke:none;">
<circle cx="17.7800" cy="45.7200" r="1.1430" /> 
</g>
<g style="fill:#848400; fill-opacity:1.0000; stroke:none;">
<circle cx="4.4450" cy="25.4000" r="1.1430" /> 
</g>
<g style="fill:#848400; fill-opacity:1.0000; stroke:none;">
<circle cx="4.4450" cy="22.8600" r="1.1430" /> 
</g>
<g style="fill:#848400; fill-opacity:1.0000; stroke:none;">
<circle cx="4.4450" cy="20.3200" r="1.1430" /> 
</g>
<g style="fill:#848400; fill-opacity:1.0000; stroke:none;">
<circle cx="4.4450" cy="17.7800" r="1.1430" /> 
</g>
<g style="fill:#848400; fill-opacity:1.0000; stroke:none;">
<circle cx="4.4450" cy="15.2400" r="1.1430" /> 
</g>
<g style="fill:#848400; fill-opacity:1.0000; stroke:none;">
<circle cx="4.4450" cy="12.7000" r="1.1430" /> 
</g>
<g style="fill:#848400; fill-opacity:1.0000; stroke:none;">
<circle cx="40.0050" cy="31.7550" r="1.1430" /> 
</g>
<g style="fill:#848400; fill-opacity:1.0000; stroke:none;">
<circle cx="40.0050" cy="29.2150" r="1.1430" /> 
</g>
<g style="fill:#848400; fill-opacity:1.0000; stroke:none;">
<circle cx="41.2750" cy="16.5000" r="1.1430" /> 
</g>
<g style="fill:#848400; fill-opacity:1.0000; stroke:none;">
<circle cx="41.2750" cy="13.9600" r="1.1430" /> 
</g>
<g style="fill:#848400; fill-opacity:1.0000; stroke:none;">
<circle cx="41.2750" cy="11.4200" r="1.1430" /> 
</g>
<g style="fill:#848400; fill-opacity:1.0000; stroke:none;">
<circle cx="41.2750" cy="8.8800" r="1.1430" /> 
</g>
<g style="fill:#848400; fill-opacity:1.0000; stroke:none;">
<circle cx="17.5360" cy="16.4400" r="1.1430" /> 
</g>
<g style="fill:#848400; fill-opacity:1.0000; stroke:none;">
<circle cx="20.0760" cy="16.4400" r="1.1430" /> 
</g>
<g style="fill:#848400; fill-opacity:1.0000; stroke:none;">
<circle cx="22.6160" cy="16.4400" r="1.1430" /> 
</g>
<g style="fill:#848400; fill-opacity:1.0000; stroke:none;">
<circle cx="25.1560" cy="16.4400" r="1.1430" /> 
</g>
<g style="fill:#C2C2C2; fill-opacity:1.0000; stroke:none;">
<circle cx="6.9850" cy="39.3700" r="1.0160" /> 
</g>
<g style="fill:#C2C2C2; fill-opacity:1.0000; stroke:none;">
<circle cx="6.9850" cy="5.7150" r="1.0160" /> 
</g>
<g style="fill:#C2C2C2; fill-opacity:1.0000; stroke:none;">
<circle cx="13.9700" cy="46.9900" r="1.0160" /> 
</g>
<g style="fill:#C2C2C2; fill-opacity:1.0000; stroke:none;">
<circle cx="12.7000" cy="2.5400" r="1.0160" /> 
</g>
<g style="fill:#C2C2C2; fill-opacity:1.0000; stroke:none;">
<circle cx="19.0500" cy="27.3050" r="1.0160" /> 
</g>
<g style="fill:#C2C2C2; fill-opacity:1.0000; stroke:none;">
<circle cx="31.1723" cy="24.0727" r="1.0160" /> 
</g>
<g style="fill:none; 
stroke:#C2C200; stroke-width:0.0500; stroke-opacity:1; 
stroke-linecap:round; stroke-linejoin:round;">
<circle cx="43.1850" cy="2.5400" r="1.2700" /> 
<circle cx="2.5450" cy="59.6900" r="1.2700" /> 
<path d="M0.0050 0.0000
L0.0050 62.2300
" />
<circle cx="2.5450" cy="2.5400" r="1.2700" /> 
<path d="M0.0050 0.0000
L45.7250 0.0000
" />
<path d="M45.7250 62.2300
L45.7250 0.0000
" />
<path d="M0.0050 62.2300
L45.7250 62.2300
" />
<circle cx="43.1850" cy="59.6900" r="1.2700" /> 
</g> 
</svg>
