<?xml version="1.0" standalone="no"?>
 <!DOCTYPE svg PUBLIC "-//W3C//DTD SVG 1.1//EN" 
 "http://www.w3.org/Graphics/SVG/1.1/DTD/svg11.dtd"> 
<svg
  xmlns:svg="http://www.w3.org/2000/svg"
  xmlns="http://www.w3.org/2000/svg"
  xmlns:xlink="http://www.w3.org/1999/xlink"
  version="1.1"
  width="45.7200mm" height="62.2300mm" viewBox="0.0000 0.0000 45.7200 62.2300">
<title>SVG Image created as step0.svg date 2024/12/15 15:42:02 </title>
  <desc>Image generated by PCBNEW </desc>
<g style="fill:#000000; fill-opacity:1.0000;stroke:#000000; stroke-opacity:1.0000;
stroke-linecap:round; stroke-linejoin:round;"
 transform="translate(0 0) scale(1 1)">
<path style="fill:#000084; fill-opacity:1.0000; 
stroke:#000084; stroke-width:0.1000; stroke-opacity:1; 
stroke-linecap:round; stroke-linejoin:round;fill-rule:evenodd;"
d="M 45.7200,15.8750
45.7200,63.5000
0.0000,63.5000
0.0000,0.0000
45.7200,0.0000
Z" /> 
</g>
<g style="fill:#000084; fill-opacity:1.0000; stroke:none;">
<circle cx="10.1650" cy="14.0404" r="0.2286" /> 
</g>
<g style="fill:#000084; fill-opacity:1.0000; stroke:none;">
<circle cx="10.1650" cy="16.6204" r="0.2286" /> 
</g>
<g style="fill:#000084; fill-opacity:1.0000; stroke:none;">
<circle cx="10.1650" cy="19.1204" r="0.2286" /> 
</g>
<g style="fill:#000084; fill-opacity:1.0000; stroke:none;">
<circle cx="10.1650" cy="21.6604" r="0.2286" /> 
</g>
<g style="fill:#000084; fill-opacity:1.0000; stroke:none;">
<circle cx="10.1650" cy="24.2004" r="0.2286" /> 
</g>
<g style="fill:#000084; fill-opacity:1.0000; stroke:none;">
<circle cx="10.1650" cy="26.7404" r="0.2286" /> 
</g>
<g style="fill:#000084; fill-opacity:1.0000; stroke:none;">
<circle cx="10.1650" cy="29.2804" r="0.2286" /> 
</g>
<g style="fill:#000084; fill-opacity:1.0000; stroke:none;">
<circle cx="10.1650" cy="31.8204" r="0.2286" /> 
</g>
<g style="fill:#000084; fill-opacity:1.0000; stroke:none;">
<circle cx="10.1650" cy="34.3604" r="0.2286" /> 
</g>
<g style="fill:#000084; fill-opacity:1.0000; stroke:none;">
<circle cx="10.1650" cy="36.9004" r="0.2286" /> 
</g>
<g style="fill:#000084; fill-opacity:1.0000; stroke:none;">
<circle cx="10.1650" cy="39.4404" r="0.2286" /> 
</g>
<g style="fill:#000084; fill-opacity:1.0000; stroke:none;">
<circle cx="10.1650" cy="41.9804" r="0.2286" /> 
</g>
<g style="fill:#000084; fill-opacity:1.0000; stroke:none;">
<circle cx="10.1650" cy="44.5204" r="0.2286" /> 
</g>
<g style="fill:#000084; fill-opacity:1.0000; stroke:none;">
<circle cx="10.1650" cy="47.0604" r="0.2286" /> 
</g>
<g style="fill:#000084; fill-opacity:1.0000; stroke:none;">
<circle cx="10.1650" cy="49.6004" r="0.2286" /> 
</g>
<g style="fill:#000084; fill-opacity:1.0000; stroke:none;">
<circle cx="35.5650" cy="49.6004" r="0.2286" /> 
</g>
<g style="fill:#000084; fill-opacity:1.0000; stroke:none;">
<circle cx="35.5650" cy="47.0604" r="0.2286" /> 
</g>
<g style="fill:#000084; fill-opacity:1.0000; stroke:none;">
<circle cx="35.5650" cy="44.5204" r="0.2286" /> 
</g>
<g style="fill:#000084; fill-opacity:1.0000; stroke:none;">
<circle cx="35.5650" cy="41.9804" r="0.2286" /> 
</g>
<g style="fill:#000084; fill-opacity:1.0000; stroke:none;">
<circle cx="35.5650" cy="39.4404" r="0.2286" /> 
</g>
<g style="fill:#000084; fill-opacity:1.0000; stroke:none;">
<circle cx="35.5650" cy="36.9004" r="0.2286" /> 
</g>
<g style="fill:#000084; fill-opacity:1.0000; stroke:none;">
<circle cx="35.5650" cy="34.3604" r="0.2286" /> 
</g>
<g style="fill:#000084; fill-opacity:1.0000; stroke:none;">
<circle cx="35.5650" cy="31.8204" r="0.2286" /> 
</g>
<g style="fill:#000084; fill-opacity:1.0000; stroke:none;">
<circle cx="35.5650" cy="29.2804" r="0.2286" /> 
</g>
<g style="fill:#000084; fill-opacity:1.0000; stroke:none;">
<circle cx="35.5650" cy="26.7404" r="0.2286" /> 
</g>
<g style="fill:#000084; fill-opacity:1.0000; stroke:none;">
<circle cx="35.5650" cy="24.2004" r="0.2286" /> 
</g>
<g style="fill:#000084; fill-opacity:1.0000; stroke:none;">
<circle cx="35.5650" cy="21.6604" r="0.2286" /> 
</g>
<g style="fill:#000084; fill-opacity:1.0000; stroke:none;">
<circle cx="35.5650" cy="19.1204" r="0.2286" /> 
</g>
<g style="fill:#000084; fill-opacity:1.0000; stroke:none;">
<circle cx="35.5650" cy="16.6204" r="0.2286" /> 
</g>
<g style="fill:#000084; fill-opacity:1.0000; stroke:none;">
<circle cx="35.5650" cy="14.0404" r="0.2286" /> 
</g>
<g style="fill:#000084; fill-opacity:1.0000; stroke:none;">
<circle cx="43.1800" cy="46.3500" r="0.2286" /> 
</g>
<g style="fill:#000084; fill-opacity:1.0000; stroke:none;">
<circle cx="43.1800" cy="48.8900" r="0.2286" /> 
</g>
<g style="fill:#000084; fill-opacity:1.0000; stroke:none;">
<circle cx="25.4000" cy="45.7200" r="0.2286" /> 
</g>
<g style="fill:#000084; fill-opacity:1.0000; stroke:none;">
<circle cx="22.8600" cy="45.7200" r="0.2286" /> 
</g>
<g style="fill:#000084; fill-opacity:1.0000; stroke:none;">
<circle cx="20.3200" cy="45.7200" r="0.2286" /> 
</g>
<g style="fill:#000084; fill-opacity:1.0000; stroke:none;">
<circle cx="17.7800" cy="45.7200" r="0.2286" /> 
</g>
<g style="fill:#000084; fill-opacity:1.0000; stroke:none;">
<circle cx="4.4450" cy="25.4000" r="0.2286" /> 
</g>
<g style="fill:#000084; fill-opacity:1.0000; stroke:none;">
<circle cx="4.4450" cy="22.8600" r="0.2286" /> 
</g>
<g style="fill:#000084; fill-opacity:1.0000; stroke:none;">
<circle cx="4.4450" cy="20.3200" r="0.2286" /> 
</g>
<g style="fill:#000084; fill-opacity:1.0000; stroke:none;">
<circle cx="4.4450" cy="17.7800" r="0.2286" /> 
</g>
<g style="fill:#000084; fill-opacity:1.0000; stroke:none;">
<circle cx="4.4450" cy="15.2400" r="0.2286" /> 
</g>
<g style="fill:#000084; fill-opacity:1.0000; stroke:none;">
<circle cx="4.4450" cy="12.7000" r="0.2286" /> 
</g>
<g style="fill:#000084; fill-opacity:1.0000; stroke:none;">
<circle cx="40.0050" cy="31.7550" r="0.2286" /> 
</g>
<g style="fill:#000084; fill-opacity:1.0000; stroke:none;">
<circle cx="40.0050" cy="29.2150" r="0.2286" /> 
</g>
<g style="fill:#000084; fill-opacity:1.0000; stroke:none;">
<circle cx="41.2750" cy="16.5000" r="0.2286" /> 
</g>
<g style="fill:#000084; fill-opacity:1.0000; stroke:none;">
<circle cx="41.2750" cy="13.9600" r="0.2286" /> 
</g>
<g style="fill:#000084; fill-opacity:1.0000; stroke:none;">
<circle cx="41.2750" cy="11.4200" r="0.2286" /> 
</g>
<g style="fill:#000084; fill-opacity:1.0000; stroke:none;">
<circle cx="41.2750" cy="8.8800" r="0.2286" /> 
</g>
<g style="fill:#000084; fill-opacity:1.0000; stroke:none;">
<circle cx="17.5360" cy="16.4400" r="0.2286" /> 
</g>
<g style="fill:#000084; fill-opacity:1.0000; stroke:none;">
<circle cx="20.0760" cy="16.4400" r="0.2286" /> 
</g>
<g style="fill:#000084; fill-opacity:1.0000; stroke:none;">
<circle cx="22.6160" cy="16.4400" r="0.2286" /> 
</g>
<g style="fill:#000084; fill-opacity:1.0000; stroke:none;">
<circle cx="25.1560" cy="16.4400" r="0.2286" /> 
</g>
<g style="fill:none; 
stroke:#C2C200; stroke-width:0.0500; stroke-opacity:1; 
stroke-linecap:round; stroke-linejoin:round;">
<circle cx="43.1850" cy="2.5400" r="1.2700" /> 
<circle cx="2.5450" cy="59.6900" r="1.2700" /> 
<path d="M0.0050 0.0000
L0.0050 62.2300
" />
<circle cx="2.5450" cy="2.5400" r="1.2700" /> 
<path d="M0.0050 0.0000
L45.7250 0.0000
" />
<path d="M45.7250 62.2300
L45.7250 0.0000
" />
<path d="M0.0050 62.2300
L45.7250 62.2300
" />
<circle cx="43.1850" cy="59.6900" r="1.2700" /> 
</g>
<g style="fill:#C2C200; fill-opacity:1.0000; stroke:none;">
<circle cx="10.1650" cy="14.0404" r="0.2286" /> 
</g>
<g style="fill:#C2C200; fill-opacity:1.0000; stroke:none;">
<circle cx="10.1650" cy="16.6204" r="0.2286" /> 
</g>
<g style="fill:#C2C200; fill-opacity:1.0000; stroke:none;">
<circle cx="10.1650" cy="19.1204" r="0.2286" /> 
</g>
<g style="fill:#C2C200; fill-opacity:1.0000; stroke:none;">
<circle cx="10.1650" cy="21.6604" r="0.2286" /> 
</g>
<g style="fill:#C2C200; fill-opacity:1.0000; stroke:none;">
<circle cx="10.1650" cy="24.2004" r="0.2286" /> 
</g>
<g style="fill:#C2C200; fill-opacity:1.0000; stroke:none;">
<circle cx="10.1650" cy="26.7404" r="0.2286" /> 
</g>
<g style="fill:#C2C200; fill-opacity:1.0000; stroke:none;">
<circle cx="10.1650" cy="29.2804" r="0.2286" /> 
</g>
<g style="fill:#C2C200; fill-opacity:1.0000; stroke:none;">
<circle cx="10.1650" cy="31.8204" r="0.2286" /> 
</g>
<g style="fill:#C2C200; fill-opacity:1.0000; stroke:none;">
<circle cx="10.1650" cy="34.3604" r="0.2286" /> 
</g>
<g style="fill:#C2C200; fill-opacity:1.0000; stroke:none;">
<circle cx="10.1650" cy="36.9004" r="0.2286" /> 
</g>
<g style="fill:#C2C200; fill-opacity:1.0000; stroke:none;">
<circle cx="10.1650" cy="39.4404" r="0.2286" /> 
</g>
<g style="fill:#C2C200; fill-opacity:1.0000; stroke:none;">
<circle cx="10.1650" cy="41.9804" r="0.2286" /> 
</g>
<g style="fill:#C2C200; fill-opacity:1.0000; stroke:none;">
<circle cx="10.1650" cy="44.5204" r="0.2286" /> 
</g>
<g style="fill:#C2C200; fill-opacity:1.0000; stroke:none;">
<circle cx="10.1650" cy="47.0604" r="0.2286" /> 
</g>
<g style="fill:#C2C200; fill-opacity:1.0000; stroke:none;">
<circle cx="10.1650" cy="49.6004" r="0.2286" /> 
</g>
<g style="fill:#C2C200; fill-opacity:1.0000; stroke:none;">
<circle cx="35.5650" cy="49.6004" r="0.2286" /> 
</g>
<g style="fill:#C2C200; fill-opacity:1.0000; stroke:none;">
<circle cx="35.5650" cy="47.0604" r="0.2286" /> 
</g>
<g style="fill:#C2C200; fill-opacity:1.0000; stroke:none;">
<circle cx="35.5650" cy="44.5204" r="0.2286" /> 
</g>
<g style="fill:#C2C200; fill-opacity:1.0000; stroke:none;">
<circle cx="35.5650" cy="41.9804" r="0.2286" /> 
</g>
<g style="fill:#C2C200; fill-opacity:1.0000; stroke:none;">
<circle cx="35.5650" cy="39.4404" r="0.2286" /> 
</g>
<g style="fill:#C2C200; fill-opacity:1.0000; stroke:none;">
<circle cx="35.5650" cy="36.9004" r="0.2286" /> 
</g>
<g style="fill:#C2C200; fill-opacity:1.0000; stroke:none;">
<circle cx="35.5650" cy="34.3604" r="0.2286" /> 
</g>
<g style="fill:#C2C200; fill-opacity:1.0000; stroke:none;">
<circle cx="35.5650" cy="31.8204" r="0.2286" /> 
</g>
<g style="fill:#C2C200; fill-opacity:1.0000; stroke:none;">
<circle cx="35.5650" cy="29.2804" r="0.2286" /> 
</g>
<g style="fill:#C2C200; fill-opacity:1.0000; stroke:none;">
<circle cx="35.5650" cy="26.7404" r="0.2286" /> 
</g>
<g style="fill:#C2C200; fill-opacity:1.0000; stroke:none;">
<circle cx="35.5650" cy="24.2004" r="0.2286" /> 
</g>
<g style="fill:#C2C200; fill-opacity:1.0000; stroke:none;">
<circle cx="35.5650" cy="21.6604" r="0.2286" /> 
</g>
<g style="fill:#C2C200; fill-opacity:1.0000; stroke:none;">
<circle cx="35.5650" cy="19.1204" r="0.2286" /> 
</g>
<g style="fill:#C2C200; fill-opacity:1.0000; stroke:none;">
<circle cx="35.5650" cy="16.6204" r="0.2286" /> 
</g>
<g style="fill:#C2C200; fill-opacity:1.0000; stroke:none;">
<circle cx="35.5650" cy="14.0404" r="0.2286" /> 
</g>
<g style="fill:#C2C200; fill-opacity:1.0000; stroke:none;">
<circle cx="43.1800" cy="46.3500" r="0.2286" /> 
</g>
<g style="fill:#C2C200; fill-opacity:1.0000; stroke:none;">
<circle cx="43.1800" cy="48.8900" r="0.2286" /> 
</g>
<g style="fill:#C2C200; fill-opacity:1.0000; stroke:none;">
<circle cx="25.4000" cy="45.7200" r="0.2286" /> 
</g>
<g style="fill:#C2C200; fill-opacity:1.0000; stroke:none;">
<circle cx="22.8600" cy="45.7200" r="0.2286" /> 
</g>
<g style="fill:#C2C200; fill-opacity:1.0000; stroke:none;">
<circle cx="20.3200" cy="45.7200" r="0.2286" /> 
</g>
<g style="fill:#C2C200; fill-opacity:1.0000; stroke:none;">
<circle cx="17.7800" cy="45.7200" r="0.2286" /> 
</g>
<g style="fill:#C2C200; fill-opacity:1.0000; stroke:none;">
<circle cx="4.4450" cy="25.4000" r="0.2286" /> 
</g>
<g style="fill:#C2C200; fill-opacity:1.0000; stroke:none;">
<circle cx="4.4450" cy="22.8600" r="0.2286" /> 
</g>
<g style="fill:#C2C200; fill-opacity:1.0000; stroke:none;">
<circle cx="4.4450" cy="20.3200" r="0.2286" /> 
</g>
<g style="fill:#C2C200; fill-opacity:1.0000; stroke:none;">
<circle cx="4.4450" cy="17.7800" r="0.2286" /> 
</g>
<g style="fill:#C2C200; fill-opacity:1.0000; stroke:none;">
<circle cx="4.4450" cy="15.2400" r="0.2286" /> 
</g>
<g style="fill:#C2C200; fill-opacity:1.0000; stroke:none;">
<circle cx="4.4450" cy="12.7000" r="0.2286" /> 
</g>
<g style="fill:#C2C200; fill-opacity:1.0000; stroke:none;">
<circle cx="40.0050" cy="31.7550" r="0.2286" /> 
</g>
<g style="fill:#C2C200; fill-opacity:1.0000; stroke:none;">
<circle cx="40.0050" cy="29.2150" r="0.2286" /> 
</g>
<g style="fill:#C2C200; fill-opacity:1.0000; stroke:none;">
<circle cx="41.2750" cy="16.5000" r="0.2286" /> 
</g>
<g style="fill:#C2C200; fill-opacity:1.0000; stroke:none;">
<circle cx="41.2750" cy="13.9600" r="0.2286" /> 
</g>
<g style="fill:#C2C200; fill-opacity:1.0000; stroke:none;">
<circle cx="41.2750" cy="11.4200" r="0.2286" /> 
</g>
<g style="fill:#C2C200; fill-opacity:1.0000; stroke:none;">
<circle cx="41.2750" cy="8.8800" r="0.2286" /> 
</g>
<g style="fill:#C2C200; fill-opacity:1.0000; stroke:none;">
<circle cx="17.5360" cy="16.4400" r="0.2286" /> 
</g>
<g style="fill:#C2C200; fill-opacity:1.0000; stroke:none;">
<circle cx="20.0760" cy="16.4400" r="0.2286" /> 
</g>
<g style="fill:#C2C200; fill-opacity:1.0000; stroke:none;">
<circle cx="22.6160" cy="16.4400" r="0.2286" /> 
</g>
<g style="fill:#C2C200; fill-opacity:1.0000; stroke:none;">
<circle cx="25.1560" cy="16.4400" r="0.2286" /> 
</g>
<g style="fill:#008400; fill-opacity:1.0000; stroke:none;">
<circle cx="10.1650" cy="14.0404" r="1.1430" /> 
</g>
<g style="fill:#008400; fill-opacity:1.0000; stroke:none;">
<circle cx="10.1650" cy="16.6204" r="1.1430" /> 
</g>
<g style="fill:#008400; fill-opacity:1.0000; stroke:none;">
<circle cx="10.1650" cy="19.1204" r="1.1430" /> 
</g>
<g style="fill:#008400; fill-opacity:1.0000; stroke:none;">
<circle cx="10.1650" cy="21.6604" r="1.1430" /> 
</g>
<g style="fill:#008400; fill-opacity:1.0000; stroke:none;">
<circle cx="10.1650" cy="24.2004" r="1.1430" /> 
</g>
<g style="fill:#008400; fill-opacity:1.0000; stroke:none;">
<circle cx="10.1650" cy="26.7404" r="1.1430" /> 
</g>
<g style="fill:#008400; fill-opacity:1.0000; stroke:none;">
<circle cx="10.1650" cy="29.2804" r="1.1430" /> 
</g>
<g style="fill:#008400; fill-opacity:1.0000; stroke:none;">
<circle cx="10.1650" cy="31.8204" r="1.1430" /> 
</g>
<g style="fill:#008400; fill-opacity:1.0000; stroke:none;">
<circle cx="10.1650" cy="34.3604" r="1.1430" /> 
</g>
<g style="fill:#008400; fill-opacity:1.0000; stroke:none;">
<circle cx="10.1650" cy="36.9004" r="1.1430" /> 
</g>
<g style="fill:#008400; fill-opacity:1.0000; stroke:none;">
<circle cx="10.1650" cy="39.4404" r="1.1430" /> 
</g>
<g style="fill:#008400; fill-opacity:1.0000; stroke:none;">
<circle cx="10.1650" cy="41.9804" r="1.1430" /> 
</g>
<g style="fill:#008400; fill-opacity:1.0000; stroke:none;">
<circle cx="10.1650" cy="44.5204" r="1.1430" /> 
</g>
<g style="fill:#008400; fill-opacity:1.0000; stroke:none;">
<circle cx="10.1650" cy="47.0604" r="1.1430" /> 
</g>
<g style="fill:#008400; fill-opacity:1.0000; stroke:none;">
<circle cx="10.1650" cy="49.6004" r="1.1430" /> 
</g>
<g style="fill:#008400; fill-opacity:1.0000; stroke:none;">
<circle cx="35.5650" cy="49.6004" r="1.1430" /> 
</g>
<g style="fill:#008400; fill-opacity:1.0000; stroke:none;">
<circle cx="35.5650" cy="47.0604" r="1.1430" /> 
</g>
<g style="fill:#008400; fill-opacity:1.0000; stroke:none;">
<circle cx="35.5650" cy="44.5204" r="1.1430" /> 
</g>
<g style="fill:#008400; fill-opacity:1.0000; stroke:none;">
<circle cx="35.5650" cy="41.9804" r="1.1430" /> 
</g>
<g style="fill:#008400; fill-opacity:1.0000; stroke:none;">
<circle cx="35.5650" cy="39.4404" r="1.1430" /> 
</g>
<g style="fill:#008400; fill-opacity:1.0000; stroke:none;">
<circle cx="35.5650" cy="36.9004" r="1.1430" /> 
</g>
<g style="fill:#008400; fill-opacity:1.0000; stroke:none;">
<circle cx="35.5650" cy="34.3604" r="1.1430" /> 
</g>
<g style="fill:#008400; fill-opacity:1.0000; stroke:none;">
<circle cx="35.5650" cy="31.8204" r="1.1430" /> 
</g>
<g style="fill:#008400; fill-opacity:1.0000; stroke:none;">
<circle cx="35.5650" cy="29.2804" r="1.1430" /> 
</g>
<g style="fill:#008400; fill-opacity:1.0000; stroke:none;">
<circle cx="35.5650" cy="26.7404" r="1.1430" /> 
</g>
<g style="fill:#008400; fill-opacity:1.0000; stroke:none;">
<circle cx="35.5650" cy="24.2004" r="1.1430" /> 
</g>
<g style="fill:#008400; fill-opacity:1.0000; stroke:none;">
<circle cx="35.5650" cy="21.6604" r="1.1430" /> 
</g>
<g style="fill:#008400; fill-opacity:1.0000; stroke:none;">
<circle cx="35.5650" cy="19.1204" r="1.1430" /> 
</g>
<g style="fill:#008400; fill-opacity:1.0000; stroke:none;">
<circle cx="35.5650" cy="16.6204" r="1.1430" /> 
</g>
<g style="fill:#008400; fill-opacity:1.0000; stroke:none;">
<circle cx="35.5650" cy="14.0404" r="1.1430" /> 
</g>
<g style="fill:#008400; fill-opacity:1.0000; stroke:none;">
<circle cx="43.1800" cy="46.3500" r="1.1430" /> 
</g>
<g style="fill:#008400; fill-opacity:1.0000; stroke:none;">
<circle cx="43.1800" cy="48.8900" r="1.1430" /> 
</g>
<g style="fill:#008400; fill-opacity:1.0000; stroke:none;">
<circle cx="25.4000" cy="45.7200" r="1.1430" /> 
</g>
<g style="fill:#008400; fill-opacity:1.0000; stroke:none;">
<circle cx="22.8600" cy="45.7200" r="1.1430" /> 
</g>
<g style="fill:#008400; fill-opacity:1.0000; stroke:none;">
<circle cx="20.3200" cy="45.7200" r="1.1430" /> 
</g>
<g style="fill:#008400; fill-opacity:1.0000; stroke:none;">
<circle cx="17.7800" cy="45.7200" r="1.1430" /> 
</g>
<g style="fill:#008400; fill-opacity:1.0000; stroke:none;">
<circle cx="4.4450" cy="25.4000" r="1.1430" /> 
</g>
<g style="fill:#008400; fill-opacity:1.0000; stroke:none;">
<circle cx="4.4450" cy="22.8600" r="1.1430" /> 
</g>
<g style="fill:#008400; fill-opacity:1.0000; stroke:none;">
<circle cx="4.4450" cy="20.3200" r="1.1430" /> 
</g>
<g style="fill:#008400; fill-opacity:1.0000; stroke:none;">
<circle cx="4.4450" cy="17.7800" r="1.1430" /> 
</g>
<g style="fill:#008400; fill-opacity:1.0000; stroke:none;">
<circle cx="4.4450" cy="15.2400" r="1.1430" /> 
</g>
<g style="fill:#008400; fill-opacity:1.0000; stroke:none;">
<circle cx="4.4450" cy="12.7000" r="1.1430" /> 
</g>
<g style="fill:#008400; fill-opacity:1.0000; stroke:none;">
<circle cx="40.0050" cy="31.7550" r="1.1430" /> 
</g>
<g style="fill:#008400; fill-opacity:1.0000; stroke:none;">
<circle cx="40.0050" cy="29.2150" r="1.1430" /> 
</g>
<g style="fill:#008400; fill-opacity:1.0000; stroke:none;">
<circle cx="41.2750" cy="16.5000" r="1.1430" /> 
</g>
<g style="fill:#008400; fill-opacity:1.0000; stroke:none;">
<circle cx="41.2750" cy="13.9600" r="1.1430" /> 
</g>
<g style="fill:#008400; fill-opacity:1.0000; stroke:none;">
<circle cx="41.2750" cy="11.4200" r="1.1430" /> 
</g>
<g style="fill:#008400; fill-opacity:1.0000; stroke:none;">
<circle cx="41.2750" cy="8.8800" r="1.1430" /> 
</g>
<g style="fill:#008400; fill-opacity:1.0000; stroke:none;">
<circle cx="17.5360" cy="16.4400" r="1.1430" /> 
</g>
<g style="fill:#008400; fill-opacity:1.0000; stroke:none;">
<circle cx="20.0760" cy="16.4400" r="1.1430" /> 
</g>
<g style="fill:#008400; fill-opacity:1.0000; stroke:none;">
<circle cx="22.6160" cy="16.4400" r="1.1430" /> 
</g>
<g style="fill:#008400; fill-opacity:1.0000; stroke:none;">
<circle cx="25.1560" cy="16.4400" r="1.1430" /> 
</g>
<g style="fill:#C2C2C2; fill-opacity:1.0000; stroke:none;">
<circle cx="6.9850" cy="39.3700" r="1.0160" /> 
</g>
<g style="fill:#C2C2C2; fill-opacity:1.0000; stroke:none;">
<circle cx="6.9850" cy="5.7150" r="1.0160" /> 
</g>
<g style="fill:#C2C2C2; fill-opacity:1.0000; stroke:none;">
<circle cx="13.9700" cy="46.9900" r="1.0160" /> 
</g>
<g style="fill:#C2C2C2; fill-opacity:1.0000; stroke:none;">
<circle cx="12.7000" cy="2.5400" r="1.0160" /> 
</g>
<g style="fill:#C2C2C2; fill-opacity:1.0000; stroke:none;">
<circle cx="19.0500" cy="27.3050" r="1.0160" /> 
</g>
<g style="fill:#C2C2C2; fill-opacity:1.0000; stroke:none;">
<circle cx="31.1723" cy="24.0727" r="1.0160" /> 
</g>
<g style="fill:none; 
stroke:#008400; stroke-width:1.2700; stroke-opacity:1; 
stroke-linecap:round; stroke-linejoin:round;">
<path d="M41.2750 27.9450
L40.0050 29.2150
" />
<path d="M41.1546 16.6204
L41.2750 16.5000
" />
<path d="M14.7320 13.2080
L19.0500 13.2080
" />
<path d="M22.8600 45.7200
L22.8600 58.4200
" />
<path d="M43.1800 48.8900
L43.1800 52.0700
" />
<path d="M1.2700 13.9700
L1.2700 45.7200
" />
<path d="M22.6160 16.4400
L20.4100 14.2340
" />
<path d="M11.3196 16.6204
L14.7320 13.2080
" />
<path d="M22.8600 58.4200
L23.4950 59.0550
" />
<path d="M20.3200 45.7200
L22.8600 45.7200
" />
<path d="M19.0500 13.2080
L20.0760 14.2340
" />
<path d="M22.8600 26.2401
L13.2403 16.6204
" />
<path d="M5.0800 12.7000
L3.4636 12.7000
" />
<path d="M20.0760 14.2340
L20.4100 14.2340
" />
<path d="M20.0760 16.4400
L22.6160 16.4400
" />
<path d="M20.0760 14.2340
L20.0760 16.4400
" />
<path d="M3.4636 12.7000
L1.2700 13.9700
" />
<path d="M23.4950 59.0550
L36.1950 59.0550
" />
<path d="M30.5361 13.2080
L19.0500 13.2080
" />
<path d="M33.9486 16.6204
L30.5361 13.2080
" />
<path d="M43.1800 52.0700
L36.1950 59.0550
" />
<path d="M41.2750 16.5000
L41.2750 27.9450
" />
<path d="M35.5650 16.6204
L33.9486 16.6204
" />
<path d="M22.8600 45.7200
L22.8600 26.2401
" />
<path d="M35.5650 16.6204
L41.1546 16.6204
" />
<path d="M13.2403 16.6204
L10.1650 16.6204
" />
<path d="M10.1650 16.6204
L11.3196 16.6204
" />
<path d="M10.1600 59.0550
L23.4950 59.0550
" />
<path d="M1.2700 45.7200
L10.1600 59.0550
" />
<path d="M35.6854 16.5000
L35.5650 16.6204
" />
</g>
<g style="fill:none; 
stroke:#008400; stroke-width:1.0160; stroke-opacity:1; 
stroke-linecap:round; stroke-linejoin:round;">
<path d="M6.9850 39.3700
L10.0946 39.3700
" />
<path d="M6.9850 5.7150
L31.1150 5.7150
" />
<path d="M31.1150 5.7150
L40.0050 11.4200
" />
<path d="M10.0946 39.3700
L10.1650 39.4404
" />
<path d="M13.9700 46.9900
L10.7246 47.0604
" />
<path d="M37.4750 6.3500
L41.2750 8.8800
" />
<path d="M10.1650 47.0604
L10.6783 47.0604
" />
<path d="M10.7246 47.0604
L10.1650 47.0604
" />
<path d="M32.3850 2.5400
L37.4750 6.3500
" />
<path d="M12.7000 2.5400
L32.3850 2.5400
" />
<path d="M5.0800 22.8600
L6.6964 22.8600
" />
<path d="M7.3660 23.5296
L7.3660 24.4547
" />
<path d="M9.6517 26.7404
L10.1650 26.7404
" />
<path d="M6.6964 22.8600
L7.3660 23.5296
" />
<path d="M7.3660 24.4547
L9.6517 26.7404
" />
<path d="M8.9604 29.2804
L10.1650 29.2804
" />
<path d="M5.0800 25.4000
L8.9604 29.2804
" />
</g>
<g style="fill:none; 
stroke:#008400; stroke-width:1.2700; stroke-opacity:1; 
stroke-linecap:round; stroke-linejoin:round;">
<path d="M7.8790 10.1550
L8.1280 9.9060
" />
<path d="M31.4306 9.9060
L35.5650 14.0404
" />
<path d="M41.2750 13.9600
L42.8914 13.9600
" />
<path d="M39.9246 14.0404
L40.0050 13.9600
" />
<path d="M6.6964 15.2400
L7.8790 14.0574
" />
<path d="M44.3230 45.2070
L43.1800 46.3500
" />
<path d="M7.8790 14.0574
L7.8790 10.1550
" />
<path d="M5.0800 15.2400
L6.6964 15.2400
" />
<path d="M35.5650 14.0404
L39.9246 14.0404
" />
<path d="M42.8914 13.9600
L44.3230 15.3916
" />
<path d="M44.3230 15.3916
L44.3230 45.2070
" />
<path d="M8.1280 9.9060
L31.4306 9.9060
" />
<path d="M35.6454 13.9600
L35.5650 14.0404
" />
</g>
<g style="fill:none; 
stroke:#008400; stroke-width:1.0160; stroke-opacity:1; 
stroke-linecap:round; stroke-linejoin:round;">
<path d="M33.8400 26.7404
L35.5650 26.7404
" />
<path d="M19.0500 27.3050
L17.7800 28.5750
" />
<path d="M31.1723 24.0727
L33.8400 26.7404
" />
<path d="M17.7800 28.5750
L17.7800 45.7200
" />
<path d="M25.1560 16.4400
L25.1560 18.0564
" />
<path d="M25.1560 18.0564
L31.1723 24.0727
" />
<path d="M31.7500 29.2804
L34.2900 29.2804
" />
<path d="M25.4000 45.7200
L25.4000 35.6304
" />
<path d="M28.6323 29.1527
L28.7600 29.2804
" />
<path d="M17.5360 16.4400
L17.5360 18.0564
" />
<path d="M17.5360 18.0564
L28.6323 29.1527
" />
<path d="M28.7600 29.2804
L31.7500 29.2804
" />
<path d="M25.4000 35.6304
L31.7500 29.2804
" />
<path d="M34.2900 29.2804
L35.5650 29.2804
" />
<path d="M39.9396 31.8204
L40.0050 31.7550
" />
<path d="M35.5650 31.8204
L39.9396 31.8204
" />
<path style="fill:#008400; fill-opacity:1.0000; stroke:none;fill-rule:evenodd;"
d="M 1.9585,0.6547
2.0043,0.7075
2.0142,0.7766
1.9852,0.8402
1.9280,0.8775
1.8964,0.8873
1.8963,0.8873
1.6573,1.0024
1.6573,1.0024
1.4380,1.1519
1.2435,1.3324
1.2435,1.3324
1.0780,1.5398
0.9454,1.7697
0.8484,2.0167
0.8484,2.0167
0.7894,2.2754
0.7894,2.2754
0.7695,2.5400
0.7695,2.5400
0.7894,2.8046
0.7894,2.8046
0.8484,3.0633
0.8484,3.0633
0.8484,3.0633
0.9454,3.3103
1.0780,3.5402
1.2435,3.7476
1.4380,3.9281
1.6573,4.0776
1.8963,4.1927
2.1499,4.2710
2.1499,4.2710
2.1499,4.2710
2.4123,4.3105
2.4123,4.3105
2.4123,4.3105
2.4123,4.3105
2.6777,4.3105
2.6777,4.3105
2.7193,4.3042
2.9401,4.2710
2.9401,4.2710
2.9401,4.2710
3.1936,4.1927
3.4327,4.0776
3.6520,3.9281
3.8465,3.7476
4.0120,3.5402
4.1446,3.3103
4.2416,3.0633
4.3006,2.8046
4.3006,2.8046
4.3205,2.5400
4.3205,2.5400
4.3006,2.2754
4.3006,2.2754
4.3006,2.2754
4.2416,2.0167
4.1446,1.7697
4.0120,1.5398
3.8465,1.3324
3.6520,1.1519
3.6282,1.1357
3.4327,1.0024
3.4327,1.0024
3.1937,0.8873
3.1936,0.8873
3.1620,0.8775
3.1037,0.8389
3.0755,0.7750
3.0864,0.7060
3.1329,0.6538
3.1985,0.6350
11.4783,0.6350
11.5453,0.6547
11.5911,0.7075
11.6010,0.7766
11.5720,0.8402
11.5427,0.8649
11.5252,0.8756
11.5252,0.8756
11.3095,1.0511
11.3095,1.0511
11.3095,1.0511
11.1367,1.2361
11.1197,1.2543
10.9593,1.4815
10.8314,1.7284
10.7383,1.9904
10.7383,1.9904
10.6817,2.2626
10.6817,2.2626
10.6628,2.5400
10.6817,2.8174
10.6817,2.8174
10.7383,3.0896
10.7383,3.0896
10.8167,3.3103
10.8314,3.3516
10.9593,3.5985
11.1197,3.8257
11.1197,3.8257
11.1197,3.8257
11.1939,3.9052
11.2655,3.9819
11.2969,4.0443
11.2896,4.1138
11.2458,4.1682
11.1795,4.1904
11.1749,4.1905
8.3758,4.1905
8.3088,4.1708
8.2976,4.1627
8.1598,4.0506
8.1598,4.0506
7.9223,3.9062
7.6672,3.7954
7.6672,3.7954
7.6672,3.7954
7.5911,3.7740
7.3995,3.7204
7.3995,3.7204
7.3995,3.7204
7.2618,3.7014
7.1240,3.6825
7.1240,3.6825
6.8460,3.6825
6.8460,3.6825
6.5705,3.7204
6.5705,3.7204
6.3028,3.7954
6.0477,3.9062
5.8102,4.0506
5.8102,4.0506
5.5945,4.2261
5.5945,4.2261
5.5945,4.2261
5.4047,4.4293
5.2443,4.6565
5.1164,4.9034
5.0233,5.1654
5.0233,5.1654
4.9667,5.4376
4.9667,5.4376
4.9478,5.7150
4.9667,5.9924
4.9667,5.9924
5.0233,6.2646
5.0233,6.2646
5.1164,6.5266
5.1164,6.5266
5.2443,6.7735
5.4047,7.0007
5.5945,7.2039
5.5945,7.2039
5.5945,7.2039
5.8102,7.3794
5.8102,7.3794
5.8102,7.3794
5.9348,7.4552
6.0477,7.5238
6.2219,7.5995
6.3028,7.6346
6.5705,7.7096
6.8127,7.7429
6.8460,7.7475
6.8460,7.7475
7.1240,7.7475
7.1537,7.7434
7.3995,7.7096
7.6672,7.6346
7.9223,7.5238
8.1598,7.3794
8.1858,7.3583
8.2976,7.2673
8.3620,7.2403
8.3758,7.2395
30.6315,7.2395
30.6985,7.2591
32.0116,8.1018
32.0574,8.1546
32.0674,8.2237
32.0384,8.2873
31.9797,8.3251
31.9098,8.3252
31.9063,8.3241
31.8173,8.2952
31.5606,8.2545
31.5605,8.2545
8.2580,8.2545
7.9980,8.2545
7.9980,8.2545
7.7413,8.2952
7.4940,8.3755
7.2624,8.4935
7.1424,8.5807
7.0521,8.6463
7.0521,8.6463
7.0521,8.6463
6.6193,9.0791
6.6193,9.0791
6.6193,9.0791
6.5537,9.1694
6.4665,9.2894
6.3485,9.5210
6.2682,9.7683
6.2275,10.0250
6.2275,12.0866
6.2078,12.1536
6.1550,12.1994
6.0859,12.2093
6.0223,12.1803
5.9889,12.1340
5.9135,11.9518
5.7783,11.7313
5.7732,11.7253
4.5327,12.9659
4.4714,12.9994
4.4017,12.9944
4.3573,12.9659
4.0460,12.6545
4.2164,12.6545
4.2164,12.7455
4.2512,12.8295
4.3155,12.8938
4.3995,12.9286
4.4905,12.9286
4.5745,12.8938
4.6388,12.8295
4.6736,12.7455
4.6736,12.6545
4.6388,12.5705
4.5745,12.5062
4.4905,12.4714
4.3995,12.4714
4.3155,12.5062
4.2512,12.5705
4.2164,12.6545
4.0460,12.6545
3.1168,11.7253
3.1168,11.7253
3.1117,11.7313
3.1117,11.7313
2.9765,11.9518
2.8776,12.1907
2.8172,12.4422
2.7969,12.7000
2.8172,12.9578
2.8776,13.2093
2.9765,13.4482
3.0027,13.4909
3.0209,13.5583
2.9998,13.6249
2.9752,13.6519
2.9676,13.6581
2.7659,13.8740
2.5956,14.1153
2.5956,14.1153
2.4597,14.3776
2.3607,14.6560
2.3607,14.6560
2.3006,14.9453
2.2805,15.2400
2.3006,15.5347
2.3006,15.5347
2.3006,15.5347
2.3188,15.6224
2.3607,15.8240
2.3607,15.8240
2.4597,16.1024
2.4597,16.1024
2.5956,16.3647
2.6477,16.4385
2.6703,16.5046
2.6535,16.5724
2.6477,16.5815
2.5956,16.6553
2.4597,16.9176
2.3607,17.1960
2.3607,17.1960
2.3006,17.4853
2.2805,17.7800
2.3006,18.0747
2.3607,18.3640
2.3607,18.3640
2.4597,18.6424
2.4597,18.6424
2.5956,18.9047
2.6477,18.9785
2.6703,19.0446
2.6535,19.1124
2.6477,19.1215
2.5956,19.1953
2.4597,19.4576
2.3607,19.7360
2.3607,19.7360
2.3006,20.0253
2.2805,20.3200
2.3006,20.6147
2.3607,20.9040
2.3607,20.9040
2.4597,21.1824
2.4597,21.1824
2.5956,21.4447
2.6477,21.5185
2.6703,21.5846
2.6535,21.6524
2.6477,21.6615
2.5956,21.7353
2.4597,21.9976
2.3607,22.2760
2.3607,22.2760
2.3006,22.5653
2.2805,22.8600
2.3006,23.1547
2.3607,23.4440
2.3607,23.4440
2.4597,23.7224
2.4597,23.7224
2.5956,23.9847
2.6477,24.0585
2.6703,24.1246
2.6535,24.1924
2.6477,24.2015
2.5956,24.2753
2.4597,24.5376
2.3607,24.8160
2.3607,24.8160
2.3006,25.1053
2.2805,25.4000
2.3006,25.6947
2.3006,25.6947
2.3006,25.6947
2.3094,25.7371
2.3607,25.9840
2.3607,25.9840
2.4597,26.2624
2.4597,26.2624
2.5956,26.5247
2.5956,26.5247
2.7659,26.7660
2.9676,26.9819
3.1967,27.1684
3.1967,27.1684
3.1967,27.1684
3.2659,27.2104
3.4492,27.3219
3.6342,27.4023
3.7201,27.4396
4.0046,27.5193
4.2619,27.5546
4.2973,27.5595
4.2973,27.5595
4.5927,27.5595
4.6243,27.5552
4.8854,27.5193
4.9389,27.5043
5.0088,27.5051
5.0600,27.5360
6.5452,29.0212
7.9673,30.4433
8.1614,30.5843
8.2178,30.6130
8.2686,30.6610
8.2854,30.7288
8.2716,30.7806
8.1797,30.9581
8.0807,31.2364
8.0807,31.2364
8.0206,31.5257
8.0005,31.8204
8.0206,32.1152
8.0807,32.4044
8.0807,32.4044
8.1797,32.6828
8.1797,32.6828
8.3156,32.9451
8.3677,33.0189
8.3903,33.0850
8.3735,33.1529
8.3677,33.1619
8.3156,33.2358
8.1797,33.4981
8.0807,33.7764
8.0807,33.7764
8.0206,34.0657
8.0005,34.3604
8.0206,34.6552
8.0807,34.9444
8.0807,34.9444
8.1797,35.2228
8.1797,35.2228
8.3156,35.4851
8.3677,35.5589
8.3903,35.6250
8.3735,35.6929
8.3677,35.7019
8.3156,35.7758
8.1797,36.0381
8.0807,36.3164
8.0807,36.3164
8.0206,36.6057
8.0005,36.9004
8.0206,37.1952
8.0653,37.4101
8.0596,37.4798
8.0173,37.5353
7.9516,37.5591
7.8945,37.5491
7.6672,37.4504
7.6672,37.4504
7.6672,37.4504
7.5236,37.4101
7.3995,37.3754
7.3995,37.3754
7.3995,37.3754
7.2618,37.3564
7.1240,37.3375
7.1240,37.3375
6.8460,37.3375
6.8460,37.3375
6.5705,37.3754
6.5705,37.3754
6.3028,37.4504
6.0477,37.5612
5.8102,37.7056
5.8102,37.7056
5.5945,37.8811
5.4047,38.0843
5.2443,38.3115
5.1164,38.5584
5.0233,38.8204
5.0233,38.8204
4.9667,39.0926
4.9667,39.0926
4.9478,39.3700
4.9667,39.6474
4.9667,39.6474
5.0233,39.9196
5.0233,39.9196
5.0605,40.0244
5.1164,40.1816
5.2443,40.4285
5.4047,40.6557
5.5945,40.8589
5.5945,40.8589
5.5945,40.8589
5.8102,41.0344
5.8102,41.0344
5.8102,41.0344
5.9348,41.1102
6.0477,41.1788
6.1757,41.2344
6.3028,41.2896
6.5705,41.3646
6.8019,41.3964
6.8460,41.4025
6.8460,41.4025
7.1240,41.4025
7.1681,41.3964
7.3995,41.3646
7.6672,41.2896
7.9223,41.1788
7.9249,41.1772
7.9259,41.1770
7.9260,41.1769
7.9260,41.1769
7.9924,41.1592
8.0590,41.1805
8.1034,41.2344
8.1116,41.3038
8.1062,41.3247
8.0807,41.3964
8.0807,41.3964
8.0206,41.6857
8.0005,41.9804
8.0206,42.2752
8.0807,42.5644
8.0807,42.5644
8.1797,42.8428
8.1797,42.8428
8.3156,43.1051
8.3677,43.1789
8.3903,43.2450
8.3735,43.3129
8.3677,43.3219
8.3156,43.3958
8.1797,43.6581
8.0807,43.9364
8.0807,43.9364
8.0526,44.0719
8.0209,44.2242
8.0206,44.2257
8.0005,44.5204
8.0206,44.8152
8.0807,45.1044
8.0807,45.1044
8.1797,45.3828
8.1797,45.3828
8.3156,45.6451
8.3677,45.7189
8.3903,45.7850
8.3735,45.8529
8.3677,45.8619
8.3156,45.9358
8.1797,46.1981
8.0807,46.4764
8.0807,46.4764
8.0206,46.7657
8.0005,47.0604
8.0206,47.3552
8.0807,47.6444
8.0807,47.6444
8.1797,47.9228
8.1797,47.9228
8.3156,48.1851
8.3677,48.2589
8.3903,48.3250
8.3735,48.3929
8.3677,48.4019
8.3156,48.4758
8.1797,48.7381
8.0807,49.0164
8.0807,49.0164
8.0206,49.3057
8.0005,49.6004
8.0206,49.8952
8.0807,50.1844
8.0807,50.1844
8.1797,50.4628
8.1797,50.4628
8.3156,50.7251
8.3156,50.7251
8.4859,50.9664
8.6876,51.1824
8.9167,51.3688
8.9167,51.3688
8.9167,51.3688
9.0492,51.4493
9.1692,51.5223
9.3542,51.6027
9.4401,51.6400
9.7246,51.7197
9.9819,51.7551
10.0173,51.7599
10.0173,51.7599
10.3127,51.7599
10.3443,51.7556
10.6054,51.7197
10.8899,51.6400
11.1608,51.5223
11.4133,51.3688
11.6424,51.1824
11.8441,50.9664
12.0144,50.7251
12.1503,50.4628
12.2493,50.1844
12.3094,49.8952
12.3295,49.6004
12.3094,49.3057
12.2493,49.0164
12.2380,48.9846
12.1504,48.7381
12.1503,48.7381
12.1503,48.7381
12.1478,48.7331
12.1344,48.6645
12.1602,48.5996
12.2171,48.5589
12.2552,48.5521
12.6131,48.5443
12.6805,48.5625
12.6940,48.5721
12.7952,48.6544
12.8067,48.6614
13.0327,48.7988
13.2069,48.8745
13.2878,48.9096
13.5555,48.9846
13.7869,49.0164
13.8310,49.0225
13.8310,49.0225
14.1090,49.0225
14.1531,49.0164
14.3845,48.9846
14.6522,48.9096
14.9073,48.7988
15.1448,48.6544
15.3605,48.4789
15.5503,48.2757
15.7107,48.0485
15.8386,47.8016
15.9317,47.5396
15.9317,47.5396
15.9317,47.5396
15.9580,47.4133
15.9883,47.2674
15.9883,47.2674
15.9889,47.2632
15.9908,47.2635
16.0122,47.2053
16.0680,47.1632
16.1377,47.1580
16.1991,47.1913
16.2023,47.1946
16.3026,47.3019
16.3026,47.3019
16.3026,47.3019
16.5317,47.4884
16.5317,47.4884
16.5317,47.4884
16.6160,47.5396
16.7842,47.6419
16.9692,47.7223
17.0551,47.7596
17.3396,47.8393
17.5969,47.8746
17.6323,47.8795
17.6323,47.8795
17.9277,47.8795
17.9593,47.8752
18.2204,47.8393
18.5049,47.7596
18.7758,47.6419
19.0283,47.4884
19.2574,47.3019
19.3702,47.1812
19.4303,47.1457
19.5001,47.1483
19.5256,47.1601
19.5718,47.1885
19.8107,47.2874
20.0622,47.3478
20.3200,47.3681
20.5778,47.3478
20.8293,47.2874
21.0682,47.1884
21.2887,47.0533
21.2887,47.0533
21.2947,47.0482
21.2947,47.0482
20.0541,45.8077
20.0206,45.7464
20.0256,45.6767
20.0270,45.6745
20.0914,45.6745
20.0914,45.7655
20.1262,45.8495
20.1905,45.9138
20.2745,45.9486
20.3655,45.9486
20.4495,45.9138
20.5138,45.8495
20.5486,45.7655
20.5486,45.7200
20.6736,45.7200
21.5900,46.6364
22.5064,45.7200
22.5064,45.7200
22.4610,45.6745
22.6314,45.6745
22.6314,45.7655
22.6662,45.8495
22.7305,45.9138
22.8145,45.9486
22.9055,45.9486
22.9895,45.9138
23.0538,45.8495
23.0886,45.7655
23.0886,45.6745
23.0538,45.5905
22.9895,45.5262
22.9055,45.4914
22.8145,45.4914
22.7305,45.5262
22.6662,45.5905
22.6314,45.6745
22.4610,45.6745
21.5900,44.8036
21.5900,44.8036
20.6736,45.7200
20.5486,45.7200
20.5486,45.6745
20.5138,45.5905
20.4495,45.5262
20.3655,45.4914
20.2745,45.4914
20.1905,45.5262
20.1262,45.5905
20.0914,45.6745
20.0270,45.6745
20.0541,45.6323
21.2947,44.3918
21.2947,44.3918
21.2887,44.3867
21.2887,44.3867
21.0682,44.2515
20.8293,44.1526
20.5778,44.0922
20.3200,44.0719
20.0622,44.0922
19.8107,44.1526
19.5718,44.2515
19.5718,44.2515
19.5256,44.2799
19.4581,44.2981
19.3915,44.2770
19.3702,44.2588
19.3379,44.2242
19.3065,44.1618
19.3045,44.1396
19.3045,29.4297
19.3242,29.3627
19.3770,29.3170
19.4116,29.3069
19.4645,29.2996
19.7322,29.2246
19.9873,29.1138
20.2248,28.9694
20.4405,28.7939
20.6303,28.5907
20.7907,28.3635
20.9186,28.1166
21.0117,27.8546
21.0117,27.8546
21.0117,27.8546
21.0635,27.6056
21.0683,27.5824
21.0872,27.3050
21.0683,27.0276
21.0139,26.7660
21.0117,26.7554
21.0117,26.7554
20.9297,26.5247
20.9186,26.4934
20.7907,26.2465
20.6303,26.0193
20.4405,25.8161
20.4405,25.8161
20.4405,25.8161
20.2248,25.6406
20.2248,25.6406
19.9873,25.4962
19.7322,25.3854
19.7322,25.3854
19.7322,25.3854
19.6360,25.3584
19.4645,25.3104
19.4645,25.3104
19.4645,25.3104
19.3268,25.2914
19.1890,25.2725
19.1890,25.2725
18.9110,25.2725
18.9110,25.2725
18.6355,25.3104
18.6355,25.3104
18.3678,25.3854
18.1127,25.4962
17.8752,25.6406
17.8752,25.6406
17.6595,25.8161
17.6595,25.8161
17.6595,25.8161
17.4697,26.0193
17.4358,26.0674
17.3093,26.2465
17.1814,26.4934
17.0883,26.7554
17.0883,26.7554
17.0317,27.0276
17.0317,27.0276
17.0246,27.1312
17.0004,27.1967
16.9886,27.2104
16.6172,27.5819
16.6172,27.5819
16.6172,27.5819
16.5566,27.6652
16.4761,27.7760
16.4056,27.9144
16.4056,27.9144
16.3672,27.9898
16.3672,27.9898
16.2930,28.2180
16.2555,28.4550
16.2555,44.1396
16.2358,44.2066
16.2221,44.2242
16.1009,44.3540
15.9306,44.5953
15.9306,44.5953
15.7947,44.8576
15.6957,45.1360
15.6957,45.1360
15.6356,45.4253
15.6315,45.4856
15.6073,45.5511
15.5515,45.5931
15.4818,45.5983
15.4204,45.5651
15.4172,45.5618
15.3605,45.5011
15.3605,45.5011
15.3605,45.5011
15.1448,45.3256
15.1448,45.3256
14.9073,45.1812
14.6522,45.0704
14.6522,45.0704
14.6522,45.0704
14.5761,45.0490
14.3845,44.9954
14.3845,44.9954
14.3845,44.9954
14.2468,44.9764
14.1090,44.9575
14.1090,44.9575
13.8310,44.9575
13.8310,44.9575
13.5555,44.9954
13.5555,44.9954
13.2878,45.0704
13.0327,45.1812
12.7952,45.3256
12.7952,45.3256
12.6198,45.4683
12.5554,45.4953
12.5442,45.4961
12.2864,45.5017
12.2190,45.4834
12.1721,45.4316
12.1607,45.3627
12.1669,45.3362
12.2493,45.1044
12.3094,44.8152
12.3295,44.5204
12.3094,44.2257
12.2493,43.9364
12.1503,43.6581
12.1503,43.6581
12.0144,43.3958
11.9623,43.3219
11.9397,43.2558
11.9565,43.1880
11.9623,43.1789
12.0144,43.1051
12.1503,42.8428
12.2493,42.5644
12.3094,42.2752
12.3295,41.9804
12.3094,41.6857
12.2493,41.3964
12.2380,41.3646
12.1719,41.1788
12.1503,41.1181
12.1503,41.1181
12.0144,40.8558
11.9623,40.7819
11.9397,40.7158
11.9565,40.6480
11.9623,40.6389
12.0144,40.5651
12.1503,40.3028
12.2493,40.0244
12.3094,39.7352
12.3295,39.4404
12.3094,39.1457
12.2493,38.8564
12.1503,38.5781
12.1503,38.5781
12.0144,38.3158
12.0114,38.3115
11.9623,38.2419
11.9397,38.1758
11.9565,38.1080
11.9623,38.0989
12.0144,38.0251
12.1503,37.7628
12.2493,37.4844
12.3094,37.1952
12.3295,36.9004
12.3094,36.6057
12.2493,36.3164
12.2481,36.3133
12.1503,36.0381
12.1503,36.0381
12.0144,35.7758
11.9623,35.7019
11.9397,35.6358
11.9565,35.5680
11.9623,35.5589
12.0144,35.4851
12.1503,35.2228
12.2493,34.9444
12.3094,34.6552
12.3295,34.3604
12.3094,34.0657
12.2493,33.7764
12.1503,33.4981
12.1503,33.4981
12.0144,33.2358
11.9623,33.1619
11.9397,33.0958
11.9565,33.0280
11.9623,33.0189
12.0144,32.9451
12.1503,32.6828
12.2493,32.4044
12.3094,32.1152
12.3295,31.8204
12.3094,31.5257
12.2493,31.2364
12.1503,30.9581
12.1503,30.9581
12.0584,30.7806
12.0144,30.6958
11.9623,30.6219
11.9397,30.5558
11.9565,30.4880
11.9623,30.4789
12.0144,30.4051
12.1503,30.1428
12.2493,29.8644
12.3094,29.5752
12.3295,29.2804
12.3094,28.9857
12.2493,28.6964
12.1503,28.4181
12.1503,28.4181
12.0467,28.2180
12.0144,28.1558
11.9623,28.0819
11.9397,28.0158
11.9565,27.9480
11.9623,27.9389
12.0144,27.8651
12.1503,27.6028
12.2493,27.3244
12.3094,27.0352
12.3295,26.7404
12.3094,26.4457
12.2493,26.1564
12.2424,26.1372
12.1503,25.8781
12.1503,25.8781
12.0773,25.7371
12.0144,25.6158
11.9623,25.5419
11.9397,25.4758
11.9565,25.4080
11.9623,25.3989
12.0144,25.3251
12.1503,25.0628
12.2493,24.7844
12.3094,24.4952
12.3295,24.2004
12.3094,23.9057
12.2493,23.6164
12.1503,23.3381
12.1503,23.3381
12.0850,23.2121
12.0144,23.0758
11.9623,23.0019
11.9397,22.9358
11.9565,22.8680
11.9623,22.8589
12.0144,22.7851
12.1503,22.5228
12.2493,22.2444
12.3094,21.9552
12.3295,21.6604
12.3094,21.3657
12.2493,21.0764
12.1503,20.7981
12.1503,20.7981
12.0850,20.6721
12.0144,20.5358
11.9623,20.4619
11.9397,20.3958
11.9565,20.3280
11.9623,20.3189
12.0144,20.2451
12.1503,19.9828
12.2493,19.7044
12.3094,19.4152
12.3295,19.1204
12.3094,18.8257
12.2493,18.5364
12.1503,18.2581
12.1503,18.2581
12.0144,17.9958
12.0144,17.9958
11.8441,17.7544
11.7992,17.7064
11.6424,17.5385
11.6424,17.5385
11.6395,17.5354
11.6408,17.5342
11.6089,17.4803
11.6115,17.4105
11.6234,17.3850
11.6334,17.3686
11.7324,17.1297
11.7928,16.8782
11.8131,16.6204
11.7928,16.3626
11.7324,16.1111
11.6335,15.8722
11.5909,15.8029
11.5727,15.7354
11.5938,15.6688
11.6184,15.6419
11.6424,15.6224
11.8441,15.4064
12.0144,15.1651
12.1503,14.9028
12.2493,14.6244
12.3094,14.3352
12.3295,14.0404
12.3094,13.7457
12.2493,13.4564
12.1503,13.1781
12.1503,13.1781
12.0144,12.9158
12.0144,12.9158
11.8441,12.6744
11.7255,12.5475
11.6424,12.4585
11.6424,12.4585
11.6424,12.4585
11.4133,12.2721
11.4132,12.2721
11.1608,12.1186
10.8899,12.0009
10.8899,12.0009
10.8899,12.0009
10.7995,11.9755
10.6054,11.9212
10.6054,11.9212
10.6054,11.9212
10.3937,11.8921
10.3127,11.8809
10.3127,11.8809
10.0173,11.8809
10.0173,11.8809
9.7246,11.9212
9.7246,11.9212
9.6880,11.9314
9.6181,11.9306
9.5598,11.8921
9.5316,11.8281
9.5305,11.8120
9.5305,11.6815
9.5502,11.6145
9.6030,11.5687
9.6545,11.5575
30.6951,11.5575
30.7622,11.5772
30.7828,11.5938
33.3802,14.1912
33.4136,14.2525
33.4162,14.2704
33.4206,14.3352
33.4807,14.6244
33.4807,14.6244
33.5797,14.9028
33.5797,14.9028
33.7156,15.1651
33.7156,15.1651
33.8859,15.4064
33.8859,15.4064
33.8859,15.4064
34.0876,15.6224
34.1069,15.6381
34.1116,15.6419
34.1512,15.6995
34.1533,15.7693
34.1391,15.8029
34.0965,15.8722
33.9976,16.1111
33.9372,16.3626
33.9169,16.6204
33.9372,16.8782
33.9976,17.1297
34.0965,17.3686
34.0965,17.3686
34.1066,17.3850
34.1248,17.4525
34.1037,17.5191
34.0901,17.5351
34.0905,17.5354
34.0876,17.5385
34.0876,17.5385
34.0631,17.5647
33.8859,17.7544
33.7156,17.9958
33.7156,17.9958
33.5797,18.2581
33.4807,18.5364
33.4807,18.5364
33.4206,18.8257
33.4005,19.1204
33.4206,19.4152
33.4807,19.7044
33.4807,19.7044
33.5797,19.9828
33.5797,19.9828
33.7156,20.2451
33.7677,20.3189
33.7903,20.3850
33.7735,20.4529
33.7677,20.4619
33.7156,20.5358
33.5797,20.7981
33.4807,21.0764
33.4807,21.0764
33.4206,21.3657
33.4005,21.6604
33.4206,21.9552
33.4807,22.2444
33.4807,22.2444
33.5797,22.5228
33.5797,22.5228
33.7156,22.7851
33.7677,22.8589
33.7903,22.9250
33.7735,22.9929
33.7677,23.0019
33.7156,23.0758
33.5797,23.3381
33.4807,23.6164
33.4807,23.6164
33.4368,23.8280
33.4038,23.8896
33.3428,23.9237
33.2731,23.9194
33.2168,23.8780
33.1918,23.8128
33.1916,23.8112
33.1906,23.7953
33.1906,23.7953
33.1340,23.5231
33.1340,23.5231
33.1059,23.4440
33.0409,23.2611
32.9129,23.0142
32.7526,22.7870
32.5628,22.5838
32.5628,22.5838
32.5628,22.5838
32.3471,22.4084
32.3471,22.4083
32.1095,22.2639
31.8545,22.1531
31.8545,22.1531
31.8545,22.1531
31.7783,22.1318
31.5868,22.0781
31.5868,22.0781
31.5868,22.0781
31.5450,22.0723
31.3346,22.0434
31.2708,22.0148
31.2638,22.0083
27.0026,17.7471
26.9691,17.6858
26.9741,17.6161
26.9890,17.5879
27.0054,17.5647
27.1413,17.3024
27.2403,17.0240
27.3004,16.7347
27.3205,16.4400
27.3004,16.1453
27.2403,15.8560
27.2216,15.8036
27.1642,15.6419
27.1413,15.5776
27.1413,15.5776
27.0054,15.3153
27.0054,15.3153
26.8351,15.0740
26.7394,14.9715
26.6334,14.8581
26.6334,14.8581
26.6334,14.8581
26.4043,14.6716
26.4042,14.6716
26.1518,14.5181
25.8809,14.4004
25.8809,14.4004
25.8809,14.4004
25.7995,14.3776
25.5964,14.3207
25.5964,14.3207
25.5964,14.3207
25.4501,14.3006
25.3037,14.2805
25.3037,14.2805
25.0083,14.2805
25.0083,14.2805
24.7156,14.3207
24.7156,14.3207
24.4311,14.4004
24.1602,14.5181
23.9078,14.6716
23.9077,14.6716
23.6786,14.8581
23.6786,14.8581
23.5658,14.9788
23.5057,15.0143
23.4359,15.0117
23.4104,14.9999
23.3642,14.9715
23.1253,14.8726
22.8738,14.8122
22.6160,14.7919
22.3582,14.8122
22.1067,14.8726
21.8678,14.9715
21.6473,15.1067
21.6473,15.1067
21.6413,15.1118
21.6413,15.1118
22.8819,16.3523
22.9154,16.4136
22.9104,16.4833
22.8819,16.5277
21.6413,17.7682
21.6413,17.7682
21.6473,17.7733
21.8678,17.9084
22.1067,18.0074
22.3582,18.0678
22.6160,18.0881
22.8738,18.0678
23.1253,18.0074
23.3642,17.9084
23.4104,17.8801
23.4779,17.8619
23.5445,17.8830
23.5658,17.9012
23.5981,17.9358
23.6295,17.9982
23.6315,18.0204
23.6315,18.1764
23.6690,18.4134
23.7432,18.6416
23.8370,18.8257
23.8521,18.8555
23.9932,19.0496
23.9932,19.0496
29.1109,24.1673
29.1444,24.2286
29.1469,24.2465
29.1540,24.3501
29.1540,24.3501
29.2106,24.6224
29.2106,24.6224
29.2682,24.7844
29.3037,24.8844
29.4316,25.1312
29.5920,25.3584
29.7817,25.5616
29.7818,25.5616
29.7818,25.5616
29.9974,25.7371
29.9974,25.7371
29.9974,25.7371
30.1221,25.8129
30.2350,25.8816
30.4092,25.9572
30.4900,25.9923
30.7578,26.0674
31.0100,26.1020
31.0737,26.1307
31.0808,26.1372
32.4878,27.5442
32.5213,27.6056
32.5163,27.6753
32.4745,27.7312
32.4090,27.7556
32.4002,27.7559
29.4428,27.7559
29.3758,27.7362
29.3551,27.7196
19.9312,18.2956
19.8977,18.2343
19.9027,18.1646
19.9445,18.1087
20.0100,18.0843
20.0286,18.0843
20.0760,18.0881
20.3338,18.0678
20.5853,18.0074
20.8242,17.9084
21.0447,17.7733
21.0447,17.7733
21.0507,17.7682
21.0507,17.7682
19.8101,16.5277
19.7766,16.4664
19.7816,16.3967
19.7830,16.3945
19.8474,16.3945
19.8474,16.4855
19.8822,16.5695
19.9465,16.6338
20.0305,16.6686
20.1215,16.6686
20.2055,16.6338
20.2698,16.5695
20.3046,16.4855
20.3046,16.4400
20.4296,16.4400
21.3460,17.3564
22.2624,16.4400
22.2624,16.4400
22.2170,16.3945
22.3874,16.3945
22.3874,16.4855
22.4222,16.5695
22.4865,16.6338
22.5705,16.6686
22.6615,16.6686
22.7455,16.6338
22.8098,16.5695
22.8446,16.4855
22.8446,16.3945
22.8098,16.3105
22.7455,16.2462
22.6615,16.2114
22.5705,16.2114
22.4865,16.2462
22.4222,16.3105
22.3874,16.3945
22.2170,16.3945
21.3460,15.5236
21.3460,15.5236
20.4296,16.4400
20.3046,16.4400
20.3046,16.3945
20.2698,16.3105
20.2055,16.2462
20.1215,16.2114
20.0305,16.2114
19.9465,16.2462
19.8822,16.3105
19.8474,16.3945
19.7830,16.3945
19.8101,16.3523
21.0507,15.1118
21.0507,15.1118
21.0447,15.1067
21.0447,15.1067
20.8242,14.9715
20.5853,14.8726
20.3338,14.8122
20.0760,14.7919
19.8182,14.8122
19.5667,14.8726
19.3278,14.9715
19.3278,14.9715
19.2816,14.9999
19.2141,15.0181
19.1475,14.9970
19.1262,14.9788
19.0849,14.9347
19.0134,14.8581
18.9321,14.7919
18.7843,14.6716
18.7842,14.6716
18.5318,14.5181
18.2609,14.4004
18.2609,14.4004
18.2609,14.4004
18.1795,14.3776
17.9764,14.3207
17.9764,14.3207
17.9764,14.3207
17.8301,14.3006
17.6837,14.2805
17.6837,14.2805
17.3883,14.2805
17.3883,14.2805
17.0956,14.3207
17.0956,14.3207
16.8111,14.4004
16.5402,14.5181
16.2878,14.6716
16.2877,14.6716
16.0586,14.8581
15.8569,15.0740
15.6866,15.3153
15.6866,15.3153
15.5507,15.5776
15.4517,15.8560
15.4517,15.8560
15.3916,16.1453
15.3715,16.4400
15.3916,16.7347
15.4517,17.0240
15.4517,17.0240
15.5507,17.3024
15.5507,17.3024
15.6866,17.5647
15.6866,17.5647
15.8569,17.8060
15.8569,17.8060
15.8569,17.8060
15.9288,17.8830
15.9781,17.9358
16.0095,17.9982
16.0115,18.0204
16.0115,18.1764
16.0490,18.4134
16.1232,18.6416
16.2170,18.8257
16.2321,18.8555
16.3732,19.0496
16.3732,19.0496
16.3732,19.0496
27.4663,30.1427
27.4664,30.1428
27.6195,30.2959
27.7668,30.4433
27.9610,30.5843
28.0174,30.6130
28.0270,30.6179
28.0778,30.6659
28.0946,30.7337
28.0720,30.7999
28.0584,30.8161
24.2372,34.6373
24.2372,34.6373
24.2242,34.6552
24.0961,34.8314
24.0036,35.0130
23.9872,35.0452
23.9130,35.2734
23.8755,35.5104
23.8755,44.1396
23.8558,44.2066
23.8421,44.2242
23.8098,44.2588
23.7497,44.2943
23.6799,44.2917
23.6544,44.2799
23.6082,44.2515
23.3693,44.1526
23.1178,44.0922
22.8600,44.0719
22.6022,44.0922
22.3507,44.1526
22.1118,44.2515
21.8913,44.3867
21.8913,44.3867
21.8853,44.3918
21.8853,44.3918
23.1259,45.6323
23.1594,45.6936
23.1544,45.7633
23.1259,45.8077
21.8853,47.0482
21.8853,47.0482
21.8913,47.0533
22.1118,47.1884
22.3507,47.2874
22.6022,47.3478
22.8600,47.3681
23.1178,47.3478
23.3693,47.2874
23.6082,47.1884
23.6082,47.1884
23.6544,47.1601
23.7219,47.1419
23.7885,47.1630
23.8098,47.1812
23.9226,47.3019
23.9226,47.3019
23.9226,47.3019
23.9226,47.3019
23.9226,47.3019
24.1517,47.4884
24.1517,47.4884
24.1517,47.4884
24.2360,47.5396
24.4042,47.6419
24.5892,47.7223
24.6751,47.7596
24.9596,47.8393
25.2169,47.8746
25.2523,47.8795
25.2523,47.8795
25.5477,47.8795
25.5793,47.8752
25.8404,47.8393
26.1249,47.7596
26.3958,47.6419
26.6483,47.4884
26.8774,47.3019
27.0791,47.0860
27.2494,46.8447
27.3853,46.5824
27.4843,46.3040
27.5444,46.0147
27.5645,45.7200
27.5444,45.4253
27.4843,45.1360
27.4730,45.1044
27.3853,44.8576
27.3853,44.8576
27.2494,44.5953
27.2494,44.5953
27.0791,44.3540
26.9579,44.2242
26.9265,44.1618
26.9245,44.1396
26.9245,36.3133
26.9442,36.2462
26.9608,36.2256
32.3451,30.8412
32.4065,30.8078
32.4328,30.8049
33.4584,30.8049
33.5255,30.8246
33.5712,30.8774
33.5812,30.9466
33.5753,30.9705
33.4807,31.2364
33.4807,31.2364
33.4206,31.5257
33.4005,31.8204
33.4206,32.1152
33.4807,32.4044
33.4807,32.4044
33.5797,32.6828
33.5797,32.6828
33.7156,32.9451
33.7677,33.0189
33.7903,33.0850
33.7735,33.1529
33.7677,33.1619
33.7156,33.2358
33.5797,33.4981
33.4807,33.7764
33.4807,33.7764
33.4206,34.0657
33.4005,34.3604
33.4206,34.6552
33.4807,34.9444
33.4807,34.9444
33.5797,35.2228
33.5797,35.2228
33.7156,35.4851
33.7677,35.5589
33.7903,35.6250
33.7735,35.6929
33.7677,35.7019
33.7156,35.7758
33.5797,36.0381
33.4807,36.3164
33.4807,36.3164
33.4206,36.6057
33.4005,36.9004
33.4206,37.1952
33.4807,37.4844
33.4807,37.4844
33.5797,37.7628
33.5797,37.7628
33.7156,38.0251
33.7677,38.0989
33.7903,38.1650
33.7735,38.2329
33.7677,38.2419
33.7156,38.3158
33.5797,38.5781
33.4807,38.8564
33.4807,38.8564
33.4206,39.1457
33.4005,39.4404
33.4206,39.7352
33.4807,40.0244
33.4807,40.0244
33.5797,40.3028
33.5797,40.3028
33.7156,40.5651
33.7677,40.6389
33.7903,40.7050
33.7735,40.7729
33.7677,40.7819
33.7156,40.8558
33.5797,41.1181
33.4807,41.3964
33.4807,41.3964
33.4206,41.6857
33.4005,41.9804
33.4206,42.2752
33.4807,42.5644
33.4807,42.5644
33.5797,42.8428
33.5797,42.8428
33.7156,43.1051
33.7677,43.1789
33.7903,43.2450
33.7735,43.3129
33.7677,43.3219
33.7156,43.3958
33.5797,43.6581
33.4807,43.9364
33.4807,43.9364
33.4526,44.0719
33.4209,44.2242
33.4206,44.2257
33.4005,44.5204
33.4206,44.8152
33.4807,45.1044
33.4807,45.1044
33.5797,45.3828
33.5797,45.3828
33.7156,45.6451
33.7677,45.7189
33.7903,45.7850
33.7735,45.8529
33.7677,45.8619
33.7156,45.9358
33.5797,46.1981
33.4807,46.4764
33.4807,46.4764
33.4206,46.7657
33.4005,47.0604
33.4206,47.3552
33.4807,47.6444
33.4807,47.6444
33.5797,47.9228
33.5797,47.9228
33.7156,48.1851
33.7677,48.2589
33.7903,48.3250
33.7735,48.3929
33.7677,48.4019
33.7156,48.4758
33.5797,48.7381
33.4807,49.0164
33.4807,49.0164
33.4206,49.3057
33.4005,49.6004
33.4206,49.8952
33.4807,50.1844
33.4807,50.1844
33.5797,50.4628
33.5797,50.4628
33.7156,50.7251
33.7156,50.7251
33.8859,50.9664
34.0876,51.1824
34.3167,51.3688
34.3167,51.3688
34.3167,51.3688
34.4492,51.4493
34.5692,51.5223
34.7542,51.6027
34.8401,51.6400
35.1246,51.7197
35.3819,51.7551
35.4173,51.7599
35.4173,51.7599
35.7127,51.7599
35.7443,51.7556
36.0054,51.7197
36.2899,51.6400
36.5608,51.5223
36.8133,51.3688
37.0424,51.1824
37.2441,50.9664
37.4144,50.7251
37.5503,50.4628
37.6373,50.2182
42.2053,50.2182
42.2113,50.2233
42.4318,50.3584
42.6707,50.4574
42.9222,50.5178
43.1800,50.5381
43.4378,50.5178
43.6893,50.4574
43.9282,50.3584
44.1487,50.2233
44.1487,50.2233
44.1547,50.2182
44.1547,50.2182
43.1800,49.2436
42.2053,50.2182
37.6373,50.2182
37.6493,50.1844
37.7094,49.8952
37.7295,49.6004
37.7094,49.3057
37.6493,49.0164
37.6380,48.9846
37.5833,48.8309
37.5503,48.7381
37.5503,48.7381
37.4740,48.5906
37.4144,48.4758
37.3623,48.4019
37.3397,48.3358
37.3565,48.2680
37.3623,48.2589
37.4144,48.1851
37.5503,47.9228
37.6493,47.6444
37.7094,47.3552
37.7295,47.0604
37.7094,46.7657
37.6493,46.4764
37.5503,46.1981
37.5503,46.1981
37.4763,46.0553
37.4144,45.9358
37.3623,45.8619
37.3397,45.7958
37.3565,45.7280
37.3623,45.7189
37.4144,45.6451
37.5503,45.3828
37.6493,45.1044
37.7094,44.8152
37.7295,44.5204
37.7094,44.2257
37.6493,43.9364
37.5503,43.6581
37.5503,43.6581
37.4144,43.3958
37.3623,43.3219
37.3397,43.2558
37.3565,43.1880
37.3623,43.1789
37.4144,43.1051
37.5503,42.8428
37.6493,42.5644
37.7094,42.2752
37.7295,41.9804
37.7094,41.6857
37.6493,41.3964
37.6380,41.3646
37.5719,41.1788
37.5503,41.1181
37.5503,41.1181
37.4144,40.8558
37.3623,40.7819
37.3397,40.7158
37.3565,40.6480
37.3623,40.6389
37.4144,40.5651
37.5503,40.3028
37.6493,40.0244
37.7094,39.7352
37.7295,39.4404
37.7094,39.1457
37.6493,38.8564
37.5503,38.5781
37.5503,38.5781
37.4144,38.3158
37.4114,38.3115
37.3623,38.2419
37.3397,38.1758
37.3565,38.1080
37.3623,38.0989
37.4144,38.0251
37.5503,37.7628
37.6493,37.4844
37.7094,37.1952
37.7295,36.9004
37.7094,36.6057
37.6493,36.3164
37.6481,36.3133
37.5503,36.0381
37.5503,36.0381
37.4144,35.7758
37.3623,35.7019
37.3397,35.6358
37.3565,35.5680
37.3623,35.5589
37.4144,35.4851
37.5503,35.2228
37.6493,34.9444
37.7094,34.6552
37.7295,34.3604
37.7094,34.0657
37.6493,33.7764
37.6139,33.6769
37.5547,33.5105
37.5508,33.4407
37.5853,33.3799
37.6471,33.3474
37.6716,33.3449
38.4933,33.3449
38.5604,33.3646
38.5716,33.3727
38.7567,33.5234
38.7568,33.5234
38.7568,33.5234
39.0092,33.6769
39.1942,33.7573
39.2801,33.7946
39.5646,33.8743
39.8219,33.9096
39.8573,33.9145
39.8573,33.9145
40.1527,33.9145
40.1843,33.9102
40.4454,33.8743
40.7299,33.7946
41.0008,33.6769
41.2533,33.5234
41.4824,33.3369
41.6841,33.1210
41.8544,32.8797
41.9903,32.6174
42.0893,32.3390
42.1494,32.0497
42.1695,31.7550
42.1494,31.4603
42.0893,31.1710
41.9903,30.8926
41.9903,30.8926
41.8544,30.6303
41.8544,30.6303
41.6841,30.3890
41.5295,30.2234
41.4824,30.1731
41.4824,30.1731
41.4824,30.1731
41.4748,30.1669
41.4352,30.1093
41.4330,30.0394
41.4473,30.0059
41.4734,29.9632
41.4734,29.9632
41.5724,29.7243
41.6328,29.4728
41.6531,29.2150
41.6328,28.9572
41.5724,28.7057
41.4734,28.4668
41.3383,28.2463
41.3332,28.2403
40.0927,29.4809
40.0314,29.5144
39.9617,29.5094
39.9173,29.4809
39.6060,29.1695
39.7764,29.1695
39.7764,29.2605
39.8112,29.3445
39.8755,29.4088
39.9595,29.4436
40.0505,29.4436
40.1345,29.4088
40.1988,29.3445
40.2336,29.2605
40.2336,29.1695
40.1988,29.0855
40.1345,29.0212
40.0505,28.9864
39.9595,28.9864
39.8755,29.0212
39.8112,29.0855
39.7764,29.1695
39.6060,29.1695
38.6768,28.2403
38.6768,28.2403
38.6717,28.2463
38.6717,28.2463
38.5365,28.4668
38.4376,28.7057
38.3772,28.9572
38.3569,29.2150
38.3772,29.4728
38.4376,29.7243
38.5365,29.9632
38.5627,30.0059
38.5809,30.0733
38.5598,30.1399
38.5352,30.1669
38.5276,30.1731
38.4496,30.2566
38.3895,30.2921
38.3590,30.2959
37.6716,30.2959
37.6045,30.2762
37.5588,30.2234
37.5488,30.1543
37.5547,30.1304
37.6493,29.8644
37.6493,29.8644
37.6493,29.8644
37.7094,29.5752
37.7295,29.2804
37.7094,28.9857
37.6493,28.6964
37.5503,28.4181
37.5503,28.4181
37.4467,28.2180
37.4144,28.1558
37.3623,28.0819
37.3397,28.0158
37.3565,27.9480
37.3623,27.9389
37.3991,27.8868
39.0303,27.8868
40.0050,28.8614
40.9797,27.8868
40.9797,27.8868
40.9737,27.8817
40.9737,27.8817
40.7532,27.7465
40.5143,27.6476
40.2628,27.5872
40.0050,27.5669
39.7472,27.5872
39.4957,27.6476
39.2568,27.7465
39.0363,27.8817
39.0363,27.8817
39.0303,27.8868
37.3991,27.8868
37.4144,27.8651
37.5503,27.6028
37.6493,27.3244
37.7094,27.0352
37.7295,26.7404
37.7094,26.4457
37.6493,26.1564
37.6424,26.1372
37.5503,25.8781
37.5503,25.8781
37.4773,25.7371
37.4144,25.6158
37.3623,25.5419
37.3397,25.4758
37.3565,25.4080
37.3623,25.3989
37.4144,25.3251
37.5503,25.0628
37.6493,24.7844
37.7094,24.4952
37.7295,24.2004
37.7094,23.9057
37.6493,23.6164
37.5503,23.3381
37.5503,23.3381
37.4850,23.2121
37.4144,23.0758
37.3623,23.0019
37.3397,22.9358
37.3565,22.8680
37.3623,22.8589
37.4144,22.7851
37.5503,22.5228
37.6493,22.2444
37.7094,21.9552
37.7295,21.6604
37.7094,21.3657
37.6493,21.0764
37.5503,20.7981
37.5503,20.7981
37.4850,20.6721
37.4144,20.5358
37.3623,20.4619
37.3397,20.3958
37.3565,20.3280
37.3623,20.3189
37.4144,20.2451
37.5503,19.9828
37.6493,19.7044
37.7094,19.4152
37.7295,19.1204
37.7094,18.8257
37.6493,18.5364
37.5503,18.2581
37.5503,18.2581
37.4144,17.9958
37.4144,17.9958
37.2962,17.8282
40.3003,17.8282
40.3063,17.8333
40.5268,17.9685
40.7657,18.0674
41.0172,18.1278
41.2750,18.1481
41.5328,18.1278
41.7843,18.0674
42.0232,17.9685
42.2437,17.8333
42.2437,17.8333
42.2497,17.8282
42.2497,17.8282
41.2750,16.8536
40.3003,17.8282
37.2962,17.8282
37.2441,17.7544
37.1992,17.7064
37.0424,17.5385
37.0424,17.5385
37.0395,17.5354
37.0408,17.5342
37.0089,17.4803
37.0115,17.4105
37.0234,17.3850
37.0334,17.3686
37.1324,17.1297
37.1928,16.8782
37.2131,16.6204
37.1928,16.3626
37.1324,16.1111
37.0316,15.8677
37.0325,15.8673
37.0206,15.8036
37.0468,15.7388
37.1039,15.6986
37.1439,15.6919
39.6458,15.6919
39.7128,15.7116
39.7586,15.7644
39.7685,15.8336
39.7603,15.8634
39.7076,15.9907
39.7076,15.9907
39.6472,16.2422
39.6269,16.5000
39.6472,16.7578
39.7076,17.0093
39.8065,17.2482
39.9417,17.4687
39.9417,17.4687
39.9468,17.4747
40.9669,16.4545
41.0464,16.4545
41.0464,16.5455
41.0812,16.6295
41.1455,16.6938
41.2295,16.7286
41.3205,16.7286
41.4045,16.6938
41.4688,16.6295
41.5036,16.5455
41.5036,16.4545
41.4688,16.3705
41.4045,16.3062
41.3205,16.2714
41.2295,16.2714
41.1455,16.3062
41.0812,16.3705
41.0464,16.4545
40.9669,16.4545
41.1873,16.2341
41.2486,16.2006
41.3183,16.2056
41.3627,16.2341
42.6352,17.5066
42.6687,17.5680
42.6715,17.5943
42.6715,44.1558
42.6518,44.2228
42.5990,44.2686
42.5810,44.2752
42.5467,44.2848
42.4551,44.3104
42.1842,44.4281
41.9318,44.5816
41.9317,44.5816
41.7026,44.7681
41.5009,44.9840
41.3306,45.2253
41.3306,45.2253
41.1947,45.4876
41.0957,45.7660
41.0957,45.7660
41.0356,46.0553
41.0155,46.3500
41.0356,46.6447
41.0957,46.9340
41.0957,46.9340
41.1947,47.2124
41.1947,47.2124
41.3306,47.4747
41.3306,47.4747
41.5009,47.7160
41.7026,47.9319
41.7102,47.9381
41.7498,47.9957
41.7520,48.0656
41.7377,48.0991
41.7115,48.1418
41.7115,48.1418
41.6126,48.3807
41.5522,48.6322
41.5319,48.8900
41.5522,49.1478
41.6126,49.3993
41.7115,49.6382
41.8467,49.8587
41.8467,49.8587
41.8518,49.8647
42.8719,48.8445
42.9514,48.8445
42.9514,48.9355
42.9862,49.0195
43.0505,49.0838
43.1345,49.1186
43.2255,49.1186
43.3095,49.0838
43.3738,49.0195
43.4086,48.9355
43.4086,48.8445
43.3738,48.7605
43.3095,48.6962
43.2255,48.6614
43.1345,48.6614
43.0505,48.6962
42.9862,48.7605
42.9514,48.8445
42.8719,48.8445
43.0923,48.6241
43.1536,48.5906
43.2233,48.5956
43.2677,48.6241
44.5082,49.8647
44.5082,49.8647
44.5133,49.8587
44.5133,49.8587
44.6484,49.6382
44.7474,49.3993
44.8078,49.1478
44.8281,48.8900
44.8078,48.6322
44.7474,48.3807
44.6484,48.1418
44.6223,48.0991
44.6041,48.0317
44.6252,47.9651
44.6498,47.9381
44.6574,47.9319
44.8591,47.7160
44.8789,47.6879
44.9992,47.5175
45.0539,47.4741
45.1235,47.4671
45.1857,47.4989
45.2209,47.5593
45.2245,47.5890
45.2245,61.6055
45.2048,61.6725
45.1520,61.7183
45.1005,61.7295
0.6295,61.7295
0.5625,61.7098
0.5167,61.6570
0.5055,61.6055
0.5055,59.6900
0.7695,59.6900
0.7695,59.6900
0.7894,59.9546
0.7894,59.9546
0.8484,60.2133
0.8484,60.2133
0.8484,60.2133
0.9454,60.4603
1.0780,60.6902
1.2435,60.8976
1.4380,61.0781
1.6573,61.2276
1.8963,61.3427
2.1499,61.4209
2.1499,61.4209
2.1499,61.4210
2.4123,61.4605
2.4123,61.4605
2.4123,61.4605
2.4123,61.4605
2.6777,61.4605
2.6777,61.4605
2.6777,61.4605
2.9401,61.4210
2.9401,61.4209
2.9401,61.4209
3.1936,61.3427
3.4327,61.2276
3.6520,61.0781
3.8465,60.8976
4.0120,60.6902
4.1446,60.4603
4.2416,60.2133
4.3006,59.9546
4.3006,59.9546
4.3205,59.6900
4.3205,59.6900
41.4095,59.6900
41.4095,59.6900
41.4294,59.9546
41.4294,59.9546
41.4884,60.2133
41.4884,60.2133
41.4884,60.2133
41.5854,60.4603
41.7180,60.6902
41.8835,60.8976
42.0780,61.0781
42.2973,61.2276
42.5363,61.3427
42.7899,61.4209
42.7899,61.4209
42.7899,61.4210
43.0523,61.4605
43.0523,61.4605
43.0523,61.4605
43.0523,61.4605
43.3177,61.4605
43.3177,61.4605
43.3177,61.4605
43.5801,61.4210
43.5801,61.4209
43.5801,61.4209
43.8336,61.3427
44.0727,61.2276
44.2920,61.0781
44.4865,60.8976
44.6520,60.6902
44.7846,60.4603
44.8816,60.2133
44.9406,59.9546
44.9406,59.9546
44.9605,59.6900
44.9605,59.6900
44.9406,59.4254
44.9406,59.4254
44.9406,59.4254
44.8816,59.1667
44.7846,58.9197
44.6520,58.6898
44.4865,58.4824
44.2920,58.3019
44.0727,58.1524
44.0727,58.1524
44.0727,58.1524
43.8337,58.0373
43.8336,58.0373
43.5801,57.9591
43.5801,57.9590
43.3177,57.9195
43.3177,57.9195
43.0523,57.9195
43.0523,57.9195
42.7899,57.9590
42.7899,57.9591
42.5364,58.0373
42.5363,58.0373
42.2973,58.1524
42.2973,58.1524
42.0780,58.3019
41.8835,58.4824
41.8835,58.4824
41.7180,58.6898
41.5854,58.9197
41.4884,59.1667
41.4884,59.1667
41.4294,59.4254
41.4294,59.4254
41.4095,59.6900
4.3205,59.6900
4.3006,59.4254
4.3006,59.4254
4.3006,59.4254
4.2416,59.1667
4.1446,58.9197
4.0120,58.6898
3.8465,58.4824
3.6520,58.3019
3.4327,58.1524
3.4327,58.1524
3.4327,58.1524
3.1937,58.0373
3.1936,58.0373
2.9401,57.9591
2.9401,57.9590
2.6777,57.9195
2.6777,57.9195
2.4123,57.9195
2.4123,57.9195
2.1499,57.9590
2.1499,57.9591
1.8964,58.0373
1.8963,58.0373
1.6573,58.1524
1.6573,58.1524
1.4380,58.3019
1.2435,58.4824
1.2435,58.4824
1.0780,58.6898
0.9454,58.9197
0.8484,59.1667
0.8484,59.1667
0.7894,59.4254
0.7894,59.4254
0.7695,59.6900
0.5055,59.6900
0.5055,11.3718
3.4703,11.3718
4.4450,12.3464
5.4197,11.3718
5.4197,11.3718
5.4137,11.3667
5.4137,11.3667
5.1932,11.2315
4.9543,11.1326
4.7028,11.0722
4.4450,11.0519
4.1872,11.0722
3.9357,11.1326
3.6968,11.2315
3.4763,11.3667
3.4763,11.3667
3.4703,11.3718
0.5055,11.3718
0.5055,0.7590
0.5252,0.6920
0.5780,0.6462
0.6295,0.6350
1.8915,0.6350
Z" /> 
</g>
<g style="fill:#FFFFFF; fill-opacity:1.0000; stroke:none;">
<circle cx="6.9850" cy="39.3700" r="0.3175" /> 
</g>
<g style="fill:#FFFFFF; fill-opacity:1.0000; stroke:none;">
<circle cx="6.9850" cy="5.7150" r="0.3175" /> 
</g>
<g style="fill:#FFFFFF; fill-opacity:1.0000; stroke:none;">
<circle cx="13.9700" cy="46.9900" r="0.3175" /> 
</g>
<g style="fill:#FFFFFF; fill-opacity:1.0000; stroke:none;">
<circle cx="12.7000" cy="2.5400" r="0.3175" /> 
</g>
<g style="fill:#FFFFFF; fill-opacity:1.0000; stroke:none;">
<circle cx="19.0500" cy="27.3050" r="0.3175" /> 
</g>
<g style="fill:#FFFFFF; fill-opacity:1.0000; stroke:none;">
<circle cx="31.1723" cy="24.0727" r="0.3175" /> 
</g>
<g style="fill:#FFFFFF; fill-opacity:1.0000; stroke:none;">
<circle cx="10.1650" cy="14.0404" r="0.2286" /> 
</g>
<g style="fill:#FFFFFF; fill-opacity:1.0000; stroke:none;">
<circle cx="10.1650" cy="16.6204" r="0.2286" /> 
</g>
<g style="fill:#FFFFFF; fill-opacity:1.0000; stroke:none;">
<circle cx="10.1650" cy="19.1204" r="0.2286" /> 
</g>
<g style="fill:#FFFFFF; fill-opacity:1.0000; stroke:none;">
<circle cx="10.1650" cy="21.6604" r="0.2286" /> 
</g>
<g style="fill:#FFFFFF; fill-opacity:1.0000; stroke:none;">
<circle cx="10.1650" cy="24.2004" r="0.2286" /> 
</g>
<g style="fill:#FFFFFF; fill-opacity:1.0000; stroke:none;">
<circle cx="10.1650" cy="26.7404" r="0.2286" /> 
</g>
<g style="fill:#FFFFFF; fill-opacity:1.0000; stroke:none;">
<circle cx="10.1650" cy="29.2804" r="0.2286" /> 
</g>
<g style="fill:#FFFFFF; fill-opacity:1.0000; stroke:none;">
<circle cx="10.1650" cy="31.8204" r="0.2286" /> 
</g>
<g style="fill:#FFFFFF; fill-opacity:1.0000; stroke:none;">
<circle cx="10.1650" cy="34.3604" r="0.2286" /> 
</g>
<g style="fill:#FFFFFF; fill-opacity:1.0000; stroke:none;">
<circle cx="10.1650" cy="36.9004" r="0.2286" /> 
</g>
<g style="fill:#FFFFFF; fill-opacity:1.0000; stroke:none;">
<circle cx="10.1650" cy="39.4404" r="0.2286" /> 
</g>
<g style="fill:#FFFFFF; fill-opacity:1.0000; stroke:none;">
<circle cx="10.1650" cy="41.9804" r="0.2286" /> 
</g>
<g style="fill:#FFFFFF; fill-opacity:1.0000; stroke:none;">
<circle cx="10.1650" cy="44.5204" r="0.2286" /> 
</g>
<g style="fill:#FFFFFF; fill-opacity:1.0000; stroke:none;">
<circle cx="10.1650" cy="47.0604" r="0.2286" /> 
</g>
<g style="fill:#FFFFFF; fill-opacity:1.0000; stroke:none;">
<circle cx="10.1650" cy="49.6004" r="0.2286" /> 
</g>
<g style="fill:#FFFFFF; fill-opacity:1.0000; stroke:none;">
<circle cx="35.5650" cy="49.6004" r="0.2286" /> 
</g>
<g style="fill:#FFFFFF; fill-opacity:1.0000; stroke:none;">
<circle cx="35.5650" cy="47.0604" r="0.2286" /> 
</g>
<g style="fill:#FFFFFF; fill-opacity:1.0000; stroke:none;">
<circle cx="35.5650" cy="44.5204" r="0.2286" /> 
</g>
<g style="fill:#FFFFFF; fill-opacity:1.0000; stroke:none;">
<circle cx="35.5650" cy="41.9804" r="0.2286" /> 
</g>
<g style="fill:#FFFFFF; fill-opacity:1.0000; stroke:none;">
<circle cx="35.5650" cy="39.4404" r="0.2286" /> 
</g>
<g style="fill:#FFFFFF; fill-opacity:1.0000; stroke:none;">
<circle cx="35.5650" cy="36.9004" r="0.2286" /> 
</g>
<g style="fill:#FFFFFF; fill-opacity:1.0000; stroke:none;">
<circle cx="35.5650" cy="34.3604" r="0.2286" /> 
</g>
<g style="fill:#FFFFFF; fill-opacity:1.0000; stroke:none;">
<circle cx="35.5650" cy="31.8204" r="0.2286" /> 
</g>
<g style="fill:#FFFFFF; fill-opacity:1.0000; stroke:none;">
<circle cx="35.5650" cy="29.2804" r="0.2286" /> 
</g>
<g style="fill:#FFFFFF; fill-opacity:1.0000; stroke:none;">
<circle cx="35.5650" cy="26.7404" r="0.2286" /> 
</g>
<g style="fill:#FFFFFF; fill-opacity:1.0000; stroke:none;">
<circle cx="35.5650" cy="24.2004" r="0.2286" /> 
</g>
<g style="fill:#FFFFFF; fill-opacity:1.0000; stroke:none;">
<circle cx="35.5650" cy="21.6604" r="0.2286" /> 
</g>
<g style="fill:#FFFFFF; fill-opacity:1.0000; stroke:none;">
<circle cx="35.5650" cy="19.1204" r="0.2286" /> 
</g>
<g style="fill:#FFFFFF; fill-opacity:1.0000; stroke:none;">
<circle cx="35.5650" cy="16.6204" r="0.2286" /> 
</g>
<g style="fill:#FFFFFF; fill-opacity:1.0000; stroke:none;">
<circle cx="35.5650" cy="14.0404" r="0.2286" /> 
</g>
<g style="fill:#FFFFFF; fill-opacity:1.0000; stroke:none;">
<circle cx="43.1800" cy="46.3500" r="0.2286" /> 
</g>
<g style="fill:#FFFFFF; fill-opacity:1.0000; stroke:none;">
<circle cx="43.1800" cy="48.8900" r="0.2286" /> 
</g>
<g style="fill:#FFFFFF; fill-opacity:1.0000; stroke:none;">
<circle cx="25.4000" cy="45.7200" r="0.2286" /> 
</g>
<g style="fill:#FFFFFF; fill-opacity:1.0000; stroke:none;">
<circle cx="22.8600" cy="45.7200" r="0.2286" /> 
</g>
<g style="fill:#FFFFFF; fill-opacity:1.0000; stroke:none;">
<circle cx="20.3200" cy="45.7200" r="0.2286" /> 
</g>
<g style="fill:#FFFFFF; fill-opacity:1.0000; stroke:none;">
<circle cx="17.7800" cy="45.7200" r="0.2286" /> 
</g>
<g style="fill:#FFFFFF; fill-opacity:1.0000; stroke:none;">
<circle cx="4.4450" cy="25.4000" r="0.2286" /> 
</g>
<g style="fill:#FFFFFF; fill-opacity:1.0000; stroke:none;">
<circle cx="4.4450" cy="22.8600" r="0.2286" /> 
</g>
<g style="fill:#FFFFFF; fill-opacity:1.0000; stroke:none;">
<circle cx="4.4450" cy="20.3200" r="0.2286" /> 
</g>
<g style="fill:#FFFFFF; fill-opacity:1.0000; stroke:none;">
<circle cx="4.4450" cy="17.7800" r="0.2286" /> 
</g>
<g style="fill:#FFFFFF; fill-opacity:1.0000; stroke:none;">
<circle cx="4.4450" cy="15.2400" r="0.2286" /> 
</g>
<g style="fill:#FFFFFF; fill-opacity:1.0000; stroke:none;">
<circle cx="4.4450" cy="12.7000" r="0.2286" /> 
</g>
<g style="fill:#FFFFFF; fill-opacity:1.0000; stroke:none;">
<circle cx="40.0050" cy="31.7550" r="0.2286" /> 
</g>
<g style="fill:#FFFFFF; fill-opacity:1.0000; stroke:none;">
<circle cx="40.0050" cy="29.2150" r="0.2286" /> 
</g>
<g style="fill:#FFFFFF; fill-opacity:1.0000; stroke:none;">
<circle cx="41.2750" cy="16.5000" r="0.2286" /> 
</g>
<g style="fill:#FFFFFF; fill-opacity:1.0000; stroke:none;">
<circle cx="41.2750" cy="13.9600" r="0.2286" /> 
</g>
<g style="fill:#FFFFFF; fill-opacity:1.0000; stroke:none;">
<circle cx="41.2750" cy="11.4200" r="0.2286" /> 
</g>
<g style="fill:#FFFFFF; fill-opacity:1.0000; stroke:none;">
<circle cx="41.2750" cy="8.8800" r="0.2286" /> 
</g>
<g style="fill:#FFFFFF; fill-opacity:1.0000; stroke:none;">
<circle cx="17.5360" cy="16.4400" r="0.2286" /> 
</g>
<g style="fill:#FFFFFF; fill-opacity:1.0000; stroke:none;">
<circle cx="20.0760" cy="16.4400" r="0.2286" /> 
</g>
<g style="fill:#FFFFFF; fill-opacity:1.0000; stroke:none;">
<circle cx="22.6160" cy="16.4400" r="0.2286" /> 
</g>
<g style="fill:#FFFFFF; fill-opacity:1.0000; stroke:none;">
<circle cx="25.1560" cy="16.4400" r="0.2286" /> 
</g> 
</svg>
