  0
SECTION
  2
HEADER
  9
$ANGBASE
  50
0.0
  9
$ANGDIR
  70
1
  9
$MEASUREMENT
  70
1
  0
ENDSEC
  0
SECTION
  2
TABLES
  0
TABLE
  2
LTYPE
  70
4
  0
LTYPE
  5
40F
  2
CONTINUOUS
  70
0
  3
Solid line
  72
65
  73
0
  40
0.0
  0
LTYPE
  5
410
  2
DASHDOT
 70
0
  3
Dash Dot ____ _ ____ _
 72
65
 73
4
 40
2.0
 49
1.25
 49
-0.25
 49
0.25
 49
-0.25
  0
LTYPE
  5
411
  2
DASHED
 70
0
  3
Dashed __ __ __ __ __
 72
65
 73
2
 40
0.75
 49
0.5
 49
-0.25
  0
LTYPE
  5
43B
  2
DOTTED
 70
0
  3
Dotted .  .  .  .
 72
65
 73
2
 40
0.2
 49
0.0
 49
-0.2
  0
ENDTAB
  0
TABLE
  2
STYLE
  70
4
  0
STYLE
  2
KICAD
  70
0
  40
0
  41
1
  42
1
  50
0
  71
0
  3
isocp.shx
  0
STYLE
  2
KICADB
  70
0
  40
0
  41
1
  42
1
  50
0
  71
0
  3
isocp.shx
  0
STYLE
  2
KICADI
  70
0
  40
0
  41
1
  42
1
  50
15
  71
0
  3
isocp.shx
  0
STYLE
  2
KICADBI
  70
0
  40
0
  41
1
  42
1
  50
15
  71
0
  3
isocp.shx
  0
ENDTAB
  0
TABLE
  2
LAYER
  70
35
  0
LAYER
  2
BLACK
  70
0
  62
7
  6
CONTINUOUS
  0
LAYER
  2
GRAY1
  70
0
  62
251
  6
CONTINUOUS
  0
LAYER
  2
GRAY2
  70
0
  62
8
  6
CONTINUOUS
  0
LAYER
  2
GRAY3
  70
0
  62
9
  6
CONTINUOUS
  0
LAYER
  2
WHITE
  70
0
  62
7
  6
CONTINUOUS
  0
LAYER
  2
LYELLOW
  70
0
  62
51
  6
CONTINUOUS
  0
LAYER
  2
LORANGE
  70
0
  62
41
  6
CONTINUOUS
  0
LAYER
  2
BLUE1
  70
0
  62
178
  6
CONTINUOUS
  0
LAYER
  2
GREEN1
  70
0
  62
98
  6
CONTINUOUS
  0
LAYER
  2
CYAN1
  70
0
  62
138
  6
CONTINUOUS
  0
LAYER
  2
RED1
  70
0
  62
18
  6
CONTINUOUS
  0
LAYER
  2
MAGENTA1
  70
0
  62
228
  6
CONTINUOUS
  0
LAYER
  2
BROWN1
  70
0
  62
58
  6
CONTINUOUS
  0
LAYER
  2
ORANGE1
  70
0
  62
34
  6
CONTINUOUS
  0
LAYER
  2
BLUE2
  70
0
  62
5
  6
CONTINUOUS
  0
LAYER
  2
GREEN2
  70
0
  62
3
  6
CONTINUOUS
  0
LAYER
  2
CYAN2
  70
0
  62
4
  6
CONTINUOUS
  0
LAYER
  2
RED2
  70
0
  62
1
  6
CONTINUOUS
  0
LAYER
  2
MAGENTA2
  70
0
  62
6
  6
CONTINUOUS
  0
LAYER
  2
BROWN2
  70
0
  62
54
  6
CONTINUOUS
  0
LAYER
  2
ORANGE2
  70
0
  62
42
  6
CONTINUOUS
  0
LAYER
  2
BLUE3
  70
0
  62
171
  6
CONTINUOUS
  0
LAYER
  2
GREEN3
  70
0
  62
91
  6
CONTINUOUS
  0
LAYER
  2
CYAN3
  70
0
  62
131
  6
CONTINUOUS
  0
LAYER
  2
RED3
  70
0
  62
11
  6
CONTINUOUS
  0
LAYER
  2
MAGENTA3
  70
0
  62
221
  6
CONTINUOUS
  0
LAYER
  2
YELLOW3
  70
0
  62
2
  6
CONTINUOUS
  0
LAYER
  2
ORANGE3
  70
0
  62
32
  6
CONTINUOUS
  0
LAYER
  2
BLUE4
  70
0
  62
5
  6
CONTINUOUS
  0
LAYER
  2
GREEN4
  70
0
  62
3
  6
CONTINUOUS
  0
LAYER
  2
CYAN4
  70
0
  62
4
  6
CONTINUOUS
  0
LAYER
  2
RED4
  70
0
  62
1
  6
CONTINUOUS
  0
LAYER
  2
MAGENTA4
  70
0
  62
6
  6
CONTINUOUS
  0
LAYER
  2
YELLOW4
  70
0
  62
2
  6
CONTINUOUS
  0
LAYER
  2
ORANGE4
  70
0
  62
40
  6
CONTINUOUS
  0
ENDTAB
  0
ENDSEC
  0
SECTION
  2
ENTITIES
0
LINE
8
LYELLOW
6
CONTINUOUS
10
12.2816659999999995
20
-10.8048190000000002
11
12.2816659999999995
21
-11.5191039999999987
0
LINE
8
LYELLOW
6
CONTINUOUS
10
12.2816659999999995
20
-11.5191039999999987
11
12.2340469999999986
21
-11.6619609999999998
0
LINE
8
LYELLOW
6
CONTINUOUS
10
12.2340469999999986
20
-11.6619609999999998
11
12.1388090000000002
21
-11.7571999999999992
0
LINE
8
LYELLOW
6
CONTINUOUS
10
12.1388090000000002
20
-11.7571999999999992
11
11.9959519999999991
21
-11.8048190000000002
0
LINE
8
LYELLOW
6
CONTINUOUS
10
11.9959519999999991
20
-11.8048190000000002
11
11.9007139999999989
21
-11.8048190000000002
0
LINE
8
LYELLOW
6
CONTINUOUS
10
13.1864279999999994
20
-10.8048190000000002
11
12.9959519999999991
21
-10.8048190000000002
0
LINE
8
LYELLOW
6
CONTINUOUS
10
12.9959519999999991
20
-10.8048190000000002
11
12.9007139999999989
21
-10.8524379999999994
0
LINE
8
LYELLOW
6
CONTINUOUS
10
12.9007139999999989
20
-10.8524379999999994
11
12.8530949999999997
21
-10.9000570000000003
0
LINE
8
LYELLOW
6
CONTINUOUS
10
12.8530949999999997
20
-10.9000570000000003
11
12.7578569999999996
21
-11.0429139999999997
0
LINE
8
LYELLOW
6
CONTINUOUS
10
12.7578569999999996
20
-11.0429139999999997
11
12.7102379999999986
21
-11.23339
0
LINE
8
LYELLOW
6
CONTINUOUS
10
12.7102379999999986
20
-11.23339
11
12.7102379999999986
21
-11.6143419999999988
0
LINE
8
LYELLOW
6
CONTINUOUS
10
12.7102379999999986
20
-11.6143419999999988
11
12.7578569999999996
21
-11.709579999999999
0
LINE
8
LYELLOW
6
CONTINUOUS
10
12.7578569999999996
20
-11.709579999999999
11
12.8054759999999987
21
-11.7571999999999992
0
LINE
8
LYELLOW
6
CONTINUOUS
10
12.8054759999999987
20
-11.7571999999999992
11
12.9007139999999989
21
-11.8048190000000002
0
LINE
8
LYELLOW
6
CONTINUOUS
10
12.9007139999999989
20
-11.8048190000000002
11
13.0911899999999992
21
-11.8048190000000002
0
LINE
8
LYELLOW
6
CONTINUOUS
10
13.0911899999999992
20
-11.8048190000000002
11
13.1864279999999994
21
-11.7571999999999992
0
LINE
8
LYELLOW
6
CONTINUOUS
10
13.1864279999999994
20
-11.7571999999999992
11
13.2340469999999986
21
-11.709579999999999
0
LINE
8
LYELLOW
6
CONTINUOUS
10
13.2340469999999986
20
-11.709579999999999
11
13.2816659999999995
21
-11.6143419999999988
0
LINE
8
LYELLOW
6
CONTINUOUS
10
13.2816659999999995
20
-11.6143419999999988
11
13.2816659999999995
21
-11.3762469999999993
0
LINE
8
LYELLOW
6
CONTINUOUS
10
13.2816659999999995
20
-11.3762469999999993
11
13.2340469999999986
21
-11.2810089999999992
0
LINE
8
LYELLOW
6
CONTINUOUS
10
13.2340469999999986
20
-11.2810089999999992
11
13.1864279999999994
21
-11.23339
0
LINE
8
LYELLOW
6
CONTINUOUS
10
13.1864279999999994
20
-11.23339
11
13.0911899999999992
21
-11.185770999999999
0
LINE
8
LYELLOW
6
CONTINUOUS
10
13.0911899999999992
20
-11.185770999999999
11
12.9007139999999989
21
-11.185770999999999
0
LINE
8
LYELLOW
6
CONTINUOUS
10
12.9007139999999989
20
-11.185770999999999
11
12.8054759999999987
21
-11.23339
0
LINE
8
LYELLOW
6
CONTINUOUS
10
12.8054759999999987
20
-11.23339
11
12.7578569999999996
21
-11.2810089999999992
0
LINE
8
LYELLOW
6
CONTINUOUS
10
12.7578569999999996
20
-11.2810089999999992
11
12.7102379999999986
21
-11.3762469999999993
0
LINE
8
LYELLOW
6
CONTINUOUS
10
27.5516659999999973
20
-3.9448189999999999
11
27.5516659999999973
21
-4.6591040000000001
0
LINE
8
LYELLOW
6
CONTINUOUS
10
27.5516659999999973
20
-4.6591040000000001
11
27.5040469999999999
21
-4.8019609999999995
0
LINE
8
LYELLOW
6
CONTINUOUS
10
27.5040469999999999
20
-4.8019609999999995
11
27.408808999999998
21
-4.8971999999999998
0
LINE
8
LYELLOW
6
CONTINUOUS
10
27.408808999999998
20
-4.8971999999999998
11
27.2659519999999986
21
-4.9448189999999999
0
LINE
8
LYELLOW
6
CONTINUOUS
10
27.2659519999999986
20
-4.9448189999999999
11
27.1707140000000003
21
-4.9448189999999999
0
LINE
8
LYELLOW
6
CONTINUOUS
10
28.5516659999999973
20
-4.9448189999999999
11
27.9802379999999999
21
-4.9448189999999999
0
LINE
8
LYELLOW
6
CONTINUOUS
10
28.2659519999999986
20
-4.9448189999999999
11
28.2659519999999986
21
-3.9448189999999999
0
LINE
8
LYELLOW
6
CONTINUOUS
10
28.2659519999999986
20
-3.9448189999999999
11
28.1707140000000003
21
-4.0876760000000001
0
LINE
8
LYELLOW
6
CONTINUOUS
10
28.1707140000000003
20
-4.0876760000000001
11
28.0754759999999983
21
-4.1829140000000002
0
LINE
8
LYELLOW
6
CONTINUOUS
10
28.0754759999999983
20
-4.1829140000000002
11
27.9802379999999999
21
-4.2305329999999994
0
LINE
8
LYELLOW
6
CONTINUOUS
10
11.6666659999999993
20
-30.6098189999999981
11
11.6666659999999993
21
-31.3241039999999984
0
LINE
8
LYELLOW
6
CONTINUOUS
10
11.6666659999999993
20
-31.3241039999999984
11
11.6190470000000001
21
-31.4669609999999977
0
LINE
8
LYELLOW
6
CONTINUOUS
10
11.6190470000000001
20
-31.4669609999999977
11
11.523809
21
-31.5621999999999971
0
LINE
8
LYELLOW
6
CONTINUOUS
10
11.523809
20
-31.5621999999999971
11
11.3809519999999988
21
-31.6098189999999981
0
LINE
8
LYELLOW
6
CONTINUOUS
10
11.3809519999999988
20
-31.6098189999999981
11
11.2857139999999987
21
-31.6098189999999981
0
LINE
8
LYELLOW
6
CONTINUOUS
10
12.6190470000000001
20
-30.6098189999999981
11
12.1428569999999993
21
-30.6098189999999981
0
LINE
8
LYELLOW
6
CONTINUOUS
10
12.1428569999999993
20
-30.6098189999999981
11
12.0952380000000002
21
-31.0860089999999971
0
LINE
8
LYELLOW
6
CONTINUOUS
10
12.0952380000000002
20
-31.0860089999999971
11
12.1428569999999993
21
-31.0383899999999997
0
LINE
8
LYELLOW
6
CONTINUOUS
10
12.1428569999999993
20
-31.0383899999999997
11
12.2380949999999995
21
-30.9907709999999987
0
LINE
8
LYELLOW
6
CONTINUOUS
10
12.2380949999999995
20
-30.9907709999999987
11
12.476189999999999
21
-30.9907709999999987
0
LINE
8
LYELLOW
6
CONTINUOUS
10
12.476189999999999
20
-30.9907709999999987
11
12.5714279999999992
21
-31.0383899999999997
0
LINE
8
LYELLOW
6
CONTINUOUS
10
12.5714279999999992
20
-31.0383899999999997
11
12.6190470000000001
21
-31.0860089999999971
0
LINE
8
LYELLOW
6
CONTINUOUS
10
12.6190470000000001
20
-31.0860089999999971
11
12.6666659999999993
21
-31.181246999999999
0
LINE
8
LYELLOW
6
CONTINUOUS
10
12.6666659999999993
20
-31.181246999999999
11
12.6666659999999993
21
-31.4193420000000003
0
LINE
8
LYELLOW
6
CONTINUOUS
10
12.6666659999999993
20
-31.4193420000000003
11
12.6190470000000001
21
-31.5145799999999987
0
LINE
8
LYELLOW
6
CONTINUOUS
10
12.6190470000000001
20
-31.5145799999999987
11
12.5714279999999992
21
-31.5621999999999971
0
LINE
8
LYELLOW
6
CONTINUOUS
10
12.5714279999999992
20
-31.5621999999999971
11
12.476189999999999
21
-31.6098189999999981
0
LINE
8
LYELLOW
6
CONTINUOUS
10
12.476189999999999
20
-31.6098189999999981
11
12.2380949999999995
21
-31.6098189999999981
0
LINE
8
LYELLOW
6
CONTINUOUS
10
12.2380949999999995
20
-31.6098189999999981
11
12.1428569999999993
21
-31.5621999999999971
0
LINE
8
LYELLOW
6
CONTINUOUS
10
12.1428569999999993
20
-31.5621999999999971
11
12.0952380000000002
21
-31.5145799999999987
0
LINE
8
LYELLOW
6
CONTINUOUS
10
6.8499999999999996
20
-3.5699999999999998
11
12.8499999999999996
21
-3.5699999999999998
0
LINE
8
LYELLOW
6
CONTINUOUS
10
6.8499999999999996
20
-4.4299999999999997
11
6.8499999999999996
21
-3.5699999999999998
0
LINE
8
LYELLOW
6
CONTINUOUS
10
6.8499999999999996
20
-6.1099999999999994
11
12.8499999999999996
21
-6.1099999999999994
0
LINE
8
LYELLOW
6
CONTINUOUS
10
6.8499999999999996
20
-6.9699999999999998
11
6.8499999999999996
21
-6.1099999999999994
0
LINE
8
LYELLOW
6
CONTINUOUS
10
12.8499999999999996
20
-2.6199999999999997
11
12.8499999999999996
21
-10.4599999999999991
0
LINE
8
LYELLOW
6
CONTINUOUS
10
12.8499999999999996
20
-4.4299999999999997
11
6.8499999999999996
21
-4.4299999999999997
0
LINE
8
LYELLOW
6
CONTINUOUS
10
12.8499999999999996
20
-6.9699999999999998
11
6.8499999999999996
21
-6.9699999999999998
0
LINE
8
LYELLOW
6
CONTINUOUS
10
12.8499999999999996
20
-10.4599999999999991
11
15.6099999999999994
21
-10.4599999999999991
0
LINE
8
LYELLOW
6
CONTINUOUS
10
15.6099999999999994
20
-2.6199999999999997
11
12.8499999999999996
21
-2.6199999999999997
0
LINE
8
LYELLOW
6
CONTINUOUS
10
15.6099999999999994
20
-5.2699999999999996
11
12.8499999999999996
21
-5.2699999999999996
0
LINE
8
LYELLOW
6
CONTINUOUS
10
15.6099999999999994
20
-7.8099999999999996
11
12.8499999999999996
21
-7.8099999999999996
0
LINE
8
LYELLOW
6
CONTINUOUS
10
15.6099999999999994
20
-10.4599999999999991
11
15.6099999999999994
21
-2.6199999999999997
0
LINE
8
LYELLOW
6
CONTINUOUS
10
15.8399999999999999
20
-8.6500000000000004
11
15.6099999999999994
21
-8.6500000000000004
0
LINE
8
LYELLOW
6
CONTINUOUS
10
15.8399999999999999
20
-9.5099999999999998
11
15.6099999999999994
21
-9.5099999999999998
0
LINE
8
LYELLOW
6
CONTINUOUS
10
15.9226419999999997
20
-3.5699999999999998
11
15.6099999999999994
21
-3.5699999999999998
0
LINE
8
LYELLOW
6
CONTINUOUS
10
15.9226419999999997
20
-4.4299999999999997
11
15.6099999999999994
21
-4.4299999999999997
0
LINE
8
LYELLOW
6
CONTINUOUS
10
15.9226419999999997
20
-6.1099999999999994
11
15.6099999999999994
21
-6.1099999999999994
0
LINE
8
LYELLOW
6
CONTINUOUS
10
15.9226419999999997
20
-6.9699999999999998
11
15.6099999999999994
21
-6.9699999999999998
0
LINE
8
LYELLOW
6
CONTINUOUS
10
18.2699999999999996
20
-9.0800000000000001
11
18.2699999999999996
21
-10.3499999999999996
0
LINE
8
LYELLOW
6
CONTINUOUS
10
18.2699999999999996
20
-10.3499999999999996
11
17.
21
-10.3499999999999996
0
LINE
8
LYELLOW
6
CONTINUOUS
10
12.8729610000000001
20
-8.5945669999999996
11
12.9054329999999986
21
-8.6270389999999999
0
LINE
8
LYELLOW
6
CONTINUOUS
10
12.9054329999999986
20
-8.6270389999999999
11
12.9100000000000001
21
-8.6500000000000004
0
LINE
8
LYELLOW
6
CONTINUOUS
10
12.9100000000000001
20
-8.6500000000000004
11
12.9100000000000001
21
-9.5099999999999998
0
LINE
8
LYELLOW
6
CONTINUOUS
10
12.9100000000000001
20
-9.5099999999999998
11
12.9054329999999986
21
-9.5329610000000002
0
LINE
8
LYELLOW
6
CONTINUOUS
10
12.9054329999999986
20
-9.5329610000000002
11
12.8729610000000001
21
-9.5654329999999987
0
LINE
8
LYELLOW
6
CONTINUOUS
10
12.8729610000000001
20
-9.5654329999999987
11
12.8499999999999996
21
-9.5700000000000003
0
LINE
8
LYELLOW
6
CONTINUOUS
10
12.8499999999999996
20
-9.5700000000000003
11
6.8499999999999996
21
-9.5700000000000003
0
LINE
8
LYELLOW
6
CONTINUOUS
10
6.8499999999999996
20
-9.5700000000000003
11
6.8270390000000001
21
-9.5654329999999987
0
LINE
8
LYELLOW
6
CONTINUOUS
10
6.8270390000000001
20
-9.5654329999999987
11
6.7945669999999998
21
-9.5329610000000002
0
LINE
8
LYELLOW
6
CONTINUOUS
10
6.7945669999999998
20
-9.5329610000000002
11
6.79
21
-9.5099999999999998
0
LINE
8
LYELLOW
6
CONTINUOUS
10
6.79
20
-9.5099999999999998
11
6.79
21
-8.6500000000000004
0
LINE
8
LYELLOW
6
CONTINUOUS
10
6.79
20
-8.6500000000000004
11
6.7945669999999998
21
-8.6270389999999999
0
LINE
8
LYELLOW
6
CONTINUOUS
10
6.7945669999999998
20
-8.6270389999999999
11
6.8270390000000001
21
-8.5945669999999996
0
LINE
8
LYELLOW
6
CONTINUOUS
10
6.8270390000000001
20
-8.5945669999999996
11
6.8499999999999996
21
-8.5899999999999999
0
LINE
8
LYELLOW
6
CONTINUOUS
10
6.8499999999999996
20
-8.5899999999999999
11
12.8499999999999996
21
-8.5899999999999999
0
LINE
8
LYELLOW
6
CONTINUOUS
10
12.8499999999999996
20
-8.5899999999999999
11
12.8729610000000001
21
-8.5945669999999996
0
LINE
8
LYELLOW
6
CONTINUOUS
10
22.2300000000000004
20
-5.4899999999999993
11
23.5
21
-5.4899999999999993
0
LINE
8
LYELLOW
6
CONTINUOUS
10
22.2300000000000004
20
-6.7599999999999998
11
22.2300000000000004
21
-5.4899999999999993
0
LINE
8
LYELLOW
6
CONTINUOUS
10
24.5773580000000003
20
-8.8699999999999992
11
24.8900000000000006
21
-8.8699999999999992
0
LINE
8
LYELLOW
6
CONTINUOUS
10
24.5773580000000003
20
-9.7300000000000004
11
24.8900000000000006
21
-9.7300000000000004
0
LINE
8
LYELLOW
6
CONTINUOUS
10
24.5773580000000003
20
-11.4100000000000001
11
24.8900000000000006
21
-11.4100000000000001
0
LINE
8
LYELLOW
6
CONTINUOUS
10
24.5773580000000003
20
-12.2699999999999996
11
24.8900000000000006
21
-12.2699999999999996
0
LINE
8
LYELLOW
6
CONTINUOUS
10
24.5773580000000003
20
-13.9499999999999993
11
24.8900000000000006
21
-13.9499999999999993
0
LINE
8
LYELLOW
6
CONTINUOUS
10
24.5773580000000003
20
-14.8099999999999987
11
24.8900000000000006
21
-14.8099999999999987
0
LINE
8
LYELLOW
6
CONTINUOUS
10
24.5773580000000003
20
-16.4899999999999984
11
24.8900000000000006
21
-16.4899999999999984
0
LINE
8
LYELLOW
6
CONTINUOUS
10
24.5773580000000003
20
-17.3499999999999979
11
24.8900000000000006
21
-17.3499999999999979
0
LINE
8
LYELLOW
6
CONTINUOUS
10
24.5773580000000003
20
-19.0299999999999976
11
24.8900000000000006
21
-19.0299999999999976
0
LINE
8
LYELLOW
6
CONTINUOUS
10
24.5773580000000003
20
-19.8900000000000006
11
24.8900000000000006
21
-19.8900000000000006
0
LINE
8
LYELLOW
6
CONTINUOUS
10
24.5773580000000003
20
-21.5700000000000003
11
24.8900000000000006
21
-21.5700000000000003
0
LINE
8
LYELLOW
6
CONTINUOUS
10
24.5773580000000003
20
-22.4299999999999997
11
24.8900000000000006
21
-22.4299999999999997
0
LINE
8
LYELLOW
6
CONTINUOUS
10
24.6600000000000001
20
-6.3300000000000001
11
24.8900000000000006
21
-6.3300000000000001
0
LINE
8
LYELLOW
6
CONTINUOUS
10
24.6600000000000001
20
-7.1899999999999995
11
24.8900000000000006
21
-7.1899999999999995
0
LINE
8
LYELLOW
6
CONTINUOUS
10
24.8900000000000006
20
-5.3799999999999999
11
24.8900000000000006
21
-23.379999999999999
0
LINE
8
LYELLOW
6
CONTINUOUS
10
24.8900000000000006
20
-8.0299999999999994
11
27.6499999999999986
21
-8.0299999999999994
0
LINE
8
LYELLOW
6
CONTINUOUS
10
24.8900000000000006
20
-10.5700000000000003
11
27.6499999999999986
21
-10.5700000000000003
0
LINE
8
LYELLOW
6
CONTINUOUS
10
24.8900000000000006
20
-13.1099999999999994
11
27.6499999999999986
21
-13.1099999999999994
0
LINE
8
LYELLOW
6
CONTINUOUS
10
24.8900000000000006
20
-15.6499999999999986
11
27.6499999999999986
21
-15.6499999999999986
0
LINE
8
LYELLOW
6
CONTINUOUS
10
24.8900000000000006
20
-18.1899999999999977
11
27.6499999999999986
21
-18.1899999999999977
0
LINE
8
LYELLOW
6
CONTINUOUS
10
24.8900000000000006
20
-20.7300000000000004
11
27.6499999999999986
21
-20.7300000000000004
0
LINE
8
LYELLOW
6
CONTINUOUS
10
24.8900000000000006
20
-23.379999999999999
11
27.6499999999999986
21
-23.379999999999999
0
LINE
8
LYELLOW
6
CONTINUOUS
10
27.6499999999999986
20
-5.3799999999999999
11
24.8900000000000006
21
-5.3799999999999999
0
LINE
8
LYELLOW
6
CONTINUOUS
10
27.6499999999999986
20
-8.8699999999999992
11
33.6499999999999986
21
-8.8699999999999992
0
LINE
8
LYELLOW
6
CONTINUOUS
10
27.6499999999999986
20
-11.4100000000000001
11
33.6499999999999986
21
-11.4100000000000001
0
LINE
8
LYELLOW
6
CONTINUOUS
10
27.6499999999999986
20
-13.9499999999999993
11
33.6499999999999986
21
-13.9499999999999993
0
LINE
8
LYELLOW
6
CONTINUOUS
10
27.6499999999999986
20
-16.4899999999999984
11
33.6499999999999986
21
-16.4899999999999984
0
LINE
8
LYELLOW
6
CONTINUOUS
10
27.6499999999999986
20
-19.0299999999999976
11
33.6499999999999986
21
-19.0299999999999976
0
LINE
8
LYELLOW
6
CONTINUOUS
10
27.6499999999999986
20
-21.5700000000000003
11
33.6499999999999986
21
-21.5700000000000003
0
LINE
8
LYELLOW
6
CONTINUOUS
10
27.6499999999999986
20
-23.379999999999999
11
27.6499999999999986
21
-5.3799999999999999
0
LINE
8
LYELLOW
6
CONTINUOUS
10
33.6499999999999986
20
-8.8699999999999992
11
33.6499999999999986
21
-9.7300000000000004
0
LINE
8
LYELLOW
6
CONTINUOUS
10
33.6499999999999986
20
-9.7300000000000004
11
27.6499999999999986
21
-9.7300000000000004
0
LINE
8
LYELLOW
6
CONTINUOUS
10
33.6499999999999986
20
-11.4100000000000001
11
33.6499999999999986
21
-12.2699999999999996
0
LINE
8
LYELLOW
6
CONTINUOUS
10
33.6499999999999986
20
-12.2699999999999996
11
27.6499999999999986
21
-12.2699999999999996
0
LINE
8
LYELLOW
6
CONTINUOUS
10
33.6499999999999986
20
-13.9499999999999993
11
33.6499999999999986
21
-14.8099999999999987
0
LINE
8
LYELLOW
6
CONTINUOUS
10
33.6499999999999986
20
-14.8099999999999987
11
27.6499999999999986
21
-14.8099999999999987
0
LINE
8
LYELLOW
6
CONTINUOUS
10
33.6499999999999986
20
-16.4899999999999984
11
33.6499999999999986
21
-17.3499999999999979
0
LINE
8
LYELLOW
6
CONTINUOUS
10
33.6499999999999986
20
-17.3499999999999979
11
27.6499999999999986
21
-17.3499999999999979
0
LINE
8
LYELLOW
6
CONTINUOUS
10
33.6499999999999986
20
-19.0299999999999976
11
33.6499999999999986
21
-19.8900000000000006
0
LINE
8
LYELLOW
6
CONTINUOUS
10
33.6499999999999986
20
-19.8900000000000006
11
27.6499999999999986
21
-19.8900000000000006
0
LINE
8
LYELLOW
6
CONTINUOUS
10
33.6499999999999986
20
-21.5700000000000003
11
33.6499999999999986
21
-22.4299999999999997
0
LINE
8
LYELLOW
6
CONTINUOUS
10
33.6499999999999986
20
-22.4299999999999997
11
27.6499999999999986
21
-22.4299999999999997
0
LINE
8
LYELLOW
6
CONTINUOUS
10
33.6729610000000008
20
-6.2745669999999993
11
33.7054329999999993
21
-6.3070389999999996
0
LINE
8
LYELLOW
6
CONTINUOUS
10
33.7054329999999993
20
-6.3070389999999996
11
33.7100000000000009
21
-6.3300000000000001
0
LINE
8
LYELLOW
6
CONTINUOUS
10
33.7100000000000009
20
-6.3300000000000001
11
33.7100000000000009
21
-7.1899999999999995
0
LINE
8
LYELLOW
6
CONTINUOUS
10
33.7100000000000009
20
-7.1899999999999995
11
33.7054329999999993
21
-7.212961
0
LINE
8
LYELLOW
6
CONTINUOUS
10
33.7054329999999993
20
-7.212961
11
33.6729610000000008
21
-7.2454329999999993
0
LINE
8
LYELLOW
6
CONTINUOUS
10
33.6729610000000008
20
-7.2454329999999993
11
33.6499999999999986
21
-7.25
0
LINE
8
LYELLOW
6
CONTINUOUS
10
33.6499999999999986
20
-7.25
11
27.6499999999999986
21
-7.25
0
LINE
8
LYELLOW
6
CONTINUOUS
10
27.6499999999999986
20
-7.25
11
27.6270389999999999
21
-7.2454329999999993
0
LINE
8
LYELLOW
6
CONTINUOUS
10
27.6270389999999999
20
-7.2454329999999993
11
27.5945669999999978
21
-7.212961
0
LINE
8
LYELLOW
6
CONTINUOUS
10
27.5945669999999978
20
-7.212961
11
27.5899999999999999
21
-7.1899999999999995
0
LINE
8
LYELLOW
6
CONTINUOUS
10
27.5899999999999999
20
-7.1899999999999995
11
27.5899999999999999
21
-6.3300000000000001
0
LINE
8
LYELLOW
6
CONTINUOUS
10
27.5899999999999999
20
-6.3300000000000001
11
27.5945669999999978
21
-6.3070389999999996
0
LINE
8
LYELLOW
6
CONTINUOUS
10
27.5945669999999978
20
-6.3070389999999996
11
27.6270389999999999
21
-6.2745669999999993
0
LINE
8
LYELLOW
6
CONTINUOUS
10
27.6270389999999999
20
-6.2745669999999993
11
27.6499999999999986
21
-6.2699999999999996
0
LINE
8
LYELLOW
6
CONTINUOUS
10
27.6499999999999986
20
-6.2699999999999996
11
33.6499999999999986
21
-6.2699999999999996
0
LINE
8
LYELLOW
6
CONTINUOUS
10
33.6499999999999986
20
-6.2699999999999996
11
33.6729610000000008
21
-6.2745669999999993
0
LINE
8
LYELLOW
6
CONTINUOUS
10
15.6199999999999992
20
-21.7300000000000004
11
15.6199999999999992
21
-14.
0
LINE
8
LYELLOW
6
CONTINUOUS
10
18.379999999999999
20
-14.
11
15.6199999999999992
21
-14.
0
LINE
8
LYELLOW
6
CONTINUOUS
10
18.379999999999999
20
-21.7300000000000004
11
15.6199999999999992
21
-21.7300000000000004
0
LINE
8
LYELLOW
6
CONTINUOUS
10
18.379999999999999
20
-21.7300000000000004
11
18.379999999999999
21
-14.
0
LINE
8
LYELLOW
6
CONTINUOUS
10
18.379999999999999
20
-23.
11
18.379999999999999
21
-24.379999999999999
0
LINE
8
LYELLOW
6
CONTINUOUS
10
18.379999999999999
20
-24.379999999999999
11
17.
21
-24.379999999999999
0
LINE
8
LYELLOW
6
CONTINUOUS
10
10.6199999999999992
20
-27.504999999999999
11
10.6199999999999992
21
-24.8550000000000004
0
LINE
8
LYELLOW
6
CONTINUOUS
10
13.379999999999999
20
-24.8550000000000004
11
10.6199999999999992
21
-24.8550000000000004
0
LINE
8
LYELLOW
6
CONTINUOUS
10
13.379999999999999
20
-27.504999999999999
11
10.6199999999999992
21
-27.504999999999999
0
LINE
8
LYELLOW
6
CONTINUOUS
10
13.379999999999999
20
-27.504999999999999
11
13.379999999999999
21
-24.8550000000000004
0
LINE
8
LYELLOW
6
CONTINUOUS
10
13.379999999999999
20
-28.7749999999999986
11
13.379999999999999
21
-30.1549999999999976
0
LINE
8
LYELLOW
6
CONTINUOUS
10
13.379999999999999
20
-30.1549999999999976
11
12.
21
-30.1549999999999976
0
CIRCLE
8
BLACK
10
17.
20
-9.0800000000000001
40
0.5
0
CIRCLE
8
BLACK
10
17.
20
-6.54
40
0.5
0
CIRCLE
8
BLACK
10
17.
20
-4.
40
0.5
0
CIRCLE
8
BLACK
10
23.5
20
-6.7599999999999998
40
0.5
0
CIRCLE
8
BLACK
10
23.5
20
-9.2999999999999989
40
0.5
0
CIRCLE
8
BLACK
10
23.5
20
-11.8399999999999999
40
0.5
0
CIRCLE
8
BLACK
10
23.5
20
-14.379999999999999
40
0.5
0
CIRCLE
8
BLACK
10
23.5
20
-16.9199999999999982
40
0.5
0
CIRCLE
8
BLACK
10
23.5
20
-19.4600000000000009
40
0.5
0
CIRCLE
8
BLACK
10
23.5
20
-22.
40
0.5
0
CIRCLE
8
BLACK
10
17.
20
-23.
40
0.5
0
CIRCLE
8
BLACK
10
17.
20
-20.4599999999999973
40
0.5
0
CIRCLE
8
BLACK
10
17.
20
-17.9199999999999982
40
0.5
0
CIRCLE
8
BLACK
10
17.
20
-15.379999999999999
40
0.5
0
CIRCLE
8
BLACK
10
12.
20
-28.7749999999999986
40
0.5
0
CIRCLE
8
BLACK
10
12.
20
-26.2349999999999994
40
0.5
  0
ENDSEC
  0
EOF
