  0
SECTION
  2
HEADER
  9
$ANGBASE
  50
0.0
  9
$ANGDIR
  70
1
  9
$MEASUREMENT
  70
1
  0
ENDSEC
  0
SECTION
  2
TABLES
  0
TABLE
  2
LTYPE
  70
4
  0
LTYPE
  5
40F
  2
CONTINUOUS
  70
0
  3
Solid line
  72
65
  73
0
  40
0.0
  0
LTYPE
  5
410
  2
DASHDOT
 70
0
  3
Dash Dot ____ _ ____ _
 72
65
 73
4
 40
2.0
 49
1.25
 49
-0.25
 49
0.25
 49
-0.25
  0
LTYPE
  5
411
  2
DASHED
 70
0
  3
Dashed __ __ __ __ __
 72
65
 73
2
 40
0.75
 49
0.5
 49
-0.25
  0
LTYPE
  5
43B
  2
DOTTED
 70
0
  3
Dotted .  .  .  .
 72
65
 73
2
 40
0.2
 49
0.0
 49
-0.2
  0
ENDTAB
  0
TABLE
  2
STYLE
  70
4
  0
STYLE
  2
KICAD
  70
0
  40
0
  41
1
  42
1
  50
0
  71
0
  3
isocp.shx
  0
STYLE
  2
KICADB
  70
0
  40
0
  41
1
  42
1
  50
0
  71
0
  3
isocp.shx
  0
STYLE
  2
KICADI
  70
0
  40
0
  41
1
  42
1
  50
15
  71
0
  3
isocp.shx
  0
STYLE
  2
KICADBI
  70
0
  40
0
  41
1
  42
1
  50
15
  71
0
  3
isocp.shx
  0
ENDTAB
  0
TABLE
  2
LAYER
  70
35
  0
LAYER
  2
BLACK
  70
0
  62
7
  6
CONTINUOUS
  0
LAYER
  2
GRAY1
  70
0
  62
251
  6
CONTINUOUS
  0
LAYER
  2
GRAY2
  70
0
  62
8
  6
CONTINUOUS
  0
LAYER
  2
GRAY3
  70
0
  62
9
  6
CONTINUOUS
  0
LAYER
  2
WHITE
  70
0
  62
7
  6
CONTINUOUS
  0
LAYER
  2
LYELLOW
  70
0
  62
51
  6
CONTINUOUS
  0
LAYER
  2
LORANGE
  70
0
  62
41
  6
CONTINUOUS
  0
LAYER
  2
BLUE1
  70
0
  62
178
  6
CONTINUOUS
  0
LAYER
  2
GREEN1
  70
0
  62
98
  6
CONTINUOUS
  0
LAYER
  2
CYAN1
  70
0
  62
138
  6
CONTINUOUS
  0
LAYER
  2
RED1
  70
0
  62
18
  6
CONTINUOUS
  0
LAYER
  2
MAGENTA1
  70
0
  62
228
  6
CONTINUOUS
  0
LAYER
  2
BROWN1
  70
0
  62
58
  6
CONTINUOUS
  0
LAYER
  2
ORANGE1
  70
0
  62
34
  6
CONTINUOUS
  0
LAYER
  2
BLUE2
  70
0
  62
5
  6
CONTINUOUS
  0
LAYER
  2
GREEN2
  70
0
  62
3
  6
CONTINUOUS
  0
LAYER
  2
CYAN2
  70
0
  62
4
  6
CONTINUOUS
  0
LAYER
  2
RED2
  70
0
  62
1
  6
CONTINUOUS
  0
LAYER
  2
MAGENTA2
  70
0
  62
6
  6
CONTINUOUS
  0
LAYER
  2
BROWN2
  70
0
  62
54
  6
CONTINUOUS
  0
LAYER
  2
ORANGE2
  70
0
  62
42
  6
CONTINUOUS
  0
LAYER
  2
BLUE3
  70
0
  62
171
  6
CONTINUOUS
  0
LAYER
  2
GREEN3
  70
0
  62
91
  6
CONTINUOUS
  0
LAYER
  2
CYAN3
  70
0
  62
131
  6
CONTINUOUS
  0
LAYER
  2
RED3
  70
0
  62
11
  6
CONTINUOUS
  0
LAYER
  2
MAGENTA3
  70
0
  62
221
  6
CONTINUOUS
  0
LAYER
  2
YELLOW3
  70
0
  62
2
  6
CONTINUOUS
  0
LAYER
  2
ORANGE3
  70
0
  62
32
  6
CONTINUOUS
  0
LAYER
  2
BLUE4
  70
0
  62
5
  6
CONTINUOUS
  0
LAYER
  2
GREEN4
  70
0
  62
3
  6
CONTINUOUS
  0
LAYER
  2
CYAN4
  70
0
  62
4
  6
CONTINUOUS
  0
LAYER
  2
RED4
  70
0
  62
1
  6
CONTINUOUS
  0
LAYER
  2
MAGENTA4
  70
0
  62
6
  6
CONTINUOUS
  0
LAYER
  2
YELLOW4
  70
0
  62
2
  6
CONTINUOUS
  0
LAYER
  2
ORANGE4
  70
0
  62
40
  6
CONTINUOUS
  0
ENDTAB
  0
ENDSEC
  0
SECTION
  2
ENTITIES
0
LINE
8
LYELLOW
6
CONTINUOUS
10
39.2380950000000013
20
-19.9548190000000005
11
39.2380950000000013
21
-20.7643419999999992
0
LINE
8
LYELLOW
6
CONTINUOUS
10
39.2380950000000013
20
-20.7643419999999992
11
39.2857139999999987
21
-20.8595799999999976
0
LINE
8
LYELLOW
6
CONTINUOUS
10
39.2857139999999987
20
-20.8595799999999976
11
39.3333329999999961
21
-20.9071999999999996
0
LINE
8
LYELLOW
6
CONTINUOUS
10
39.3333329999999961
20
-20.9071999999999996
11
39.428570999999998
21
-20.9548190000000005
0
LINE
8
LYELLOW
6
CONTINUOUS
10
39.428570999999998
20
-20.9548190000000005
11
39.6190469999999948
21
-20.9548190000000005
0
LINE
8
LYELLOW
6
CONTINUOUS
10
39.6190469999999948
20
-20.9548190000000005
11
39.7142849999999967
21
-20.9071999999999996
0
LINE
8
LYELLOW
6
CONTINUOUS
10
39.7142849999999967
20
-20.9071999999999996
11
39.7619040000000012
21
-20.8595799999999976
0
LINE
8
LYELLOW
6
CONTINUOUS
10
39.7619040000000012
20
-20.8595799999999976
11
39.8095229999999987
21
-20.7643419999999992
0
LINE
8
LYELLOW
6
CONTINUOUS
10
39.8095229999999987
20
-20.7643419999999992
11
39.8095229999999987
21
-19.9548190000000005
0
LINE
8
LYELLOW
6
CONTINUOUS
10
40.8095229999999987
20
-20.9548190000000005
11
40.2380950000000013
21
-20.9548190000000005
0
LINE
8
LYELLOW
6
CONTINUOUS
10
40.523809
20
-20.9548190000000005
11
40.523809
21
-19.9548190000000005
0
LINE
8
LYELLOW
6
CONTINUOUS
10
40.523809
20
-19.9548190000000005
11
40.428570999999998
21
-20.0976759999999999
0
LINE
8
LYELLOW
6
CONTINUOUS
10
40.428570999999998
20
-20.0976759999999999
11
40.3333329999999961
21
-20.1929139999999983
0
LINE
8
LYELLOW
6
CONTINUOUS
10
40.3333329999999961
20
-20.1929139999999983
11
40.2380950000000013
21
-20.2405329999999992
0
LINE
8
LYELLOW
6
CONTINUOUS
10
18.1766660000000009
20
-5.7548189999999995
11
18.1766660000000009
21
-6.4691039999999997
0
LINE
8
LYELLOW
6
CONTINUOUS
10
18.1766660000000009
20
-6.4691039999999997
11
18.1290469999999999
21
-6.611961
0
LINE
8
LYELLOW
6
CONTINUOUS
10
18.1290469999999999
20
-6.611961
11
18.033808999999998
21
-6.7071999999999994
0
LINE
8
LYELLOW
6
CONTINUOUS
10
18.033808999999998
20
-6.7071999999999994
11
17.8909519999999986
21
-6.7548189999999995
0
LINE
8
LYELLOW
6
CONTINUOUS
10
17.8909519999999986
20
-6.7548189999999995
11
17.7957140000000003
21
-6.7548189999999995
0
LINE
8
LYELLOW
6
CONTINUOUS
10
18.557618999999999
20
-5.7548189999999995
11
19.1766660000000009
21
-5.7548189999999995
0
LINE
8
LYELLOW
6
CONTINUOUS
10
19.1766660000000009
20
-5.7548189999999995
11
18.8433329999999977
21
-6.1357710000000001
0
LINE
8
LYELLOW
6
CONTINUOUS
10
18.8433329999999977
20
-6.1357710000000001
11
18.9861900000000006
21
-6.1357710000000001
0
LINE
8
LYELLOW
6
CONTINUOUS
10
18.9861900000000006
20
-6.1357710000000001
11
19.0814279999999989
21
-6.1833900000000002
0
LINE
8
LYELLOW
6
CONTINUOUS
10
19.0814279999999989
20
-6.1833900000000002
11
19.1290469999999999
21
-6.2310089999999994
0
LINE
8
LYELLOW
6
CONTINUOUS
10
19.1290469999999999
20
-6.2310089999999994
11
19.1766660000000009
21
-6.3262469999999995
0
LINE
8
LYELLOW
6
CONTINUOUS
10
19.1766660000000009
20
-6.3262469999999995
11
19.1766660000000009
21
-6.5643419999999999
0
LINE
8
LYELLOW
6
CONTINUOUS
10
19.1766660000000009
20
-6.5643419999999999
11
19.1290469999999999
21
-6.6595800000000001
0
LINE
8
LYELLOW
6
CONTINUOUS
10
19.1290469999999999
20
-6.6595800000000001
11
19.0814279999999989
21
-6.7071999999999994
0
LINE
8
LYELLOW
6
CONTINUOUS
10
19.0814279999999989
20
-6.7071999999999994
11
18.9861900000000006
21
-6.7548189999999995
0
LINE
8
LYELLOW
6
CONTINUOUS
10
18.9861900000000006
20
-6.7548189999999995
11
18.7004759999999983
21
-6.7548189999999995
0
LINE
8
LYELLOW
6
CONTINUOUS
10
18.7004759999999983
20
-6.7548189999999995
11
18.6052379999999999
21
-6.7071999999999994
0
LINE
8
LYELLOW
6
CONTINUOUS
10
18.6052379999999999
20
-6.7071999999999994
11
18.557618999999999
21
-6.6595800000000001
0
LINE
8
LYELLOW
6
CONTINUOUS
10
12.2528919999999992
20
-7.0305919999999995
11
12.2528919999999992
21
-7.6803399999999993
0
LINE
8
LYELLOW
6
CONTINUOUS
10
12.2528919999999992
20
-7.6803399999999993
11
12.291112
21
-7.7567809999999993
0
LINE
8
LYELLOW
6
CONTINUOUS
10
12.291112
20
-7.7567809999999993
11
12.3293330000000001
21
-7.7950019999999993
0
LINE
8
LYELLOW
6
CONTINUOUS
10
12.3293330000000001
20
-7.7950019999999993
11
12.4057739999999992
21
-7.8332219999999992
0
LINE
8
LYELLOW
6
CONTINUOUS
10
12.4057739999999992
20
-7.8332219999999992
11
12.5586559999999992
21
-7.8332219999999992
0
LINE
8
LYELLOW
6
CONTINUOUS
10
12.5586559999999992
20
-7.8332219999999992
11
12.635097
21
-7.7950019999999993
0
LINE
8
LYELLOW
6
CONTINUOUS
10
12.635097
20
-7.7950019999999993
11
12.6733169999999991
21
-7.7567809999999993
0
LINE
8
LYELLOW
6
CONTINUOUS
10
12.6733169999999991
20
-7.7567809999999993
11
12.7115379999999991
21
-7.6803399999999993
0
LINE
8
LYELLOW
6
CONTINUOUS
10
12.7115379999999991
20
-7.6803399999999993
11
12.7115379999999991
21
-7.0305919999999995
0
LINE
8
LYELLOW
6
CONTINUOUS
10
13.0555209999999988
20
-7.1070329999999995
11
13.0937419999999989
21
-7.0688119999999994
0
LINE
8
LYELLOW
6
CONTINUOUS
10
13.0937419999999989
20
-7.0688119999999994
11
13.1701829999999998
21
-7.0305919999999995
0
LINE
8
LYELLOW
6
CONTINUOUS
10
13.1701829999999998
20
-7.0305919999999995
11
13.3612849999999987
21
-7.0305919999999995
0
LINE
8
LYELLOW
6
CONTINUOUS
10
13.3612849999999987
20
-7.0305919999999995
11
13.4377259999999996
21
-7.0688119999999994
0
LINE
8
LYELLOW
6
CONTINUOUS
10
13.4377259999999996
20
-7.0688119999999994
11
13.4759469999999997
21
-7.1070329999999995
0
LINE
8
LYELLOW
6
CONTINUOUS
10
13.4759469999999997
20
-7.1070329999999995
11
13.5141669999999987
21
-7.1834739999999995
0
LINE
8
LYELLOW
6
CONTINUOUS
10
13.5141669999999987
20
-7.1834739999999995
11
13.5141669999999987
21
-7.2599149999999995
0
LINE
8
LYELLOW
6
CONTINUOUS
10
13.5141669999999987
20
-7.2599149999999995
11
13.4759469999999997
21
-7.3745759999999994
0
LINE
8
LYELLOW
6
CONTINUOUS
10
13.4759469999999997
20
-7.3745759999999994
11
13.0173009999999998
21
-7.8332219999999992
0
LINE
8
LYELLOW
6
CONTINUOUS
10
13.0173009999999998
20
-7.8332219999999992
11
13.5141669999999987
21
-7.8332219999999992
0
LINE
8
LYELLOW
6
CONTINUOUS
10
10.0333329999999989
20
-8.3895800000000005
11
9.9857139999999998
21
-8.4371999999999989
0
LINE
8
LYELLOW
6
CONTINUOUS
10
9.9857139999999998
20
-8.4371999999999989
11
9.8428570000000004
21
-8.4848189999999999
0
LINE
8
LYELLOW
6
CONTINUOUS
10
9.8428570000000004
20
-8.4848189999999999
11
9.7476190000000003
21
-8.4848189999999999
0
LINE
8
LYELLOW
6
CONTINUOUS
10
9.7476190000000003
20
-8.4848189999999999
11
9.6047619999999991
21
-8.4371999999999989
0
LINE
8
LYELLOW
6
CONTINUOUS
10
9.6047619999999991
20
-8.4371999999999989
11
9.509523999999999
21
-8.3419609999999995
0
LINE
8
LYELLOW
6
CONTINUOUS
10
9.509523999999999
20
-8.3419609999999995
11
9.4619049999999998
21
-8.2467229999999994
0
LINE
8
LYELLOW
6
CONTINUOUS
10
9.4619049999999998
20
-8.2467229999999994
11
9.4142859999999988
21
-8.056246999999999
0
LINE
8
LYELLOW
6
CONTINUOUS
10
9.4142859999999988
20
-8.056246999999999
11
9.4142859999999988
21
-7.9133899999999997
0
LINE
8
LYELLOW
6
CONTINUOUS
10
9.4142859999999988
20
-7.9133899999999997
11
9.4619049999999998
21
-7.7229139999999994
0
LINE
8
LYELLOW
6
CONTINUOUS
10
9.4619049999999998
20
-7.7229139999999994
11
9.509523999999999
21
-7.6276759999999992
0
LINE
8
LYELLOW
6
CONTINUOUS
10
9.509523999999999
20
-7.6276759999999992
11
9.6047619999999991
21
-7.532438
0
LINE
8
LYELLOW
6
CONTINUOUS
10
9.6047619999999991
20
-7.532438
11
9.7476190000000003
21
-7.4848189999999999
0
LINE
8
LYELLOW
6
CONTINUOUS
10
9.7476190000000003
20
-7.4848189999999999
11
9.8428570000000004
21
-7.4848189999999999
0
LINE
8
LYELLOW
6
CONTINUOUS
10
9.8428570000000004
20
-7.4848189999999999
11
9.9857139999999998
21
-7.532438
0
LINE
8
LYELLOW
6
CONTINUOUS
10
9.9857139999999998
20
-7.532438
11
10.0333329999999989
21
-7.580057
0
LINE
8
LYELLOW
6
CONTINUOUS
10
10.9857139999999998
20
-8.4848189999999999
11
10.4142859999999988
21
-8.4848189999999999
0
LINE
8
LYELLOW
6
CONTINUOUS
10
10.6999999999999993
20
-8.4848189999999999
11
10.6999999999999993
21
-7.4848189999999999
0
LINE
8
LYELLOW
6
CONTINUOUS
10
10.6999999999999993
20
-7.4848189999999999
11
10.6047619999999991
21
-7.6276759999999992
0
LINE
8
LYELLOW
6
CONTINUOUS
10
10.6047619999999991
20
-7.6276759999999992
11
10.509523999999999
21
-7.7229139999999994
0
LINE
8
LYELLOW
6
CONTINUOUS
10
10.509523999999999
20
-7.7229139999999994
11
10.4142859999999988
21
-7.7705329999999995
0
LINE
8
LYELLOW
6
CONTINUOUS
10
8.7548189999999995
20
-22.5333329999999989
11
9.4691039999999997
21
-22.5333329999999989
0
LINE
8
LYELLOW
6
CONTINUOUS
10
9.4691039999999997
20
-22.5333329999999989
11
9.6119609999999991
21
-22.5809519999999999
0
LINE
8
LYELLOW
6
CONTINUOUS
10
9.6119609999999991
20
-22.5809519999999999
11
9.7072000000000003
21
-22.6761899999999983
0
LINE
8
LYELLOW
6
CONTINUOUS
10
9.7072000000000003
20
-22.6761899999999983
11
9.7548189999999995
21
-22.8190469999999976
0
LINE
8
LYELLOW
6
CONTINUOUS
10
9.7548189999999995
20
-22.8190469999999976
11
9.7548189999999995
21
-22.9142849999999996
0
LINE
8
LYELLOW
6
CONTINUOUS
10
8.7548189999999995
20
-21.5809519999999999
11
8.7548189999999995
21
-22.0571419999999989
0
LINE
8
LYELLOW
6
CONTINUOUS
10
8.7548189999999995
20
-22.0571419999999989
11
9.2310090000000002
21
-22.1047609999999999
0
LINE
8
LYELLOW
6
CONTINUOUS
10
9.2310090000000002
20
-22.1047609999999999
11
9.1833899999999993
21
-22.0571419999999989
0
LINE
8
LYELLOW
6
CONTINUOUS
10
9.1833899999999993
20
-22.0571419999999989
11
9.1357710000000001
21
-21.9619040000000005
0
LINE
8
LYELLOW
6
CONTINUOUS
10
9.1357710000000001
20
-21.9619040000000005
11
9.1357710000000001
21
-21.7238089999999993
0
LINE
8
LYELLOW
6
CONTINUOUS
10
9.1357710000000001
20
-21.7238089999999993
11
9.1833899999999993
21
-21.6285709999999973
0
LINE
8
LYELLOW
6
CONTINUOUS
10
9.1833899999999993
20
-21.6285709999999973
11
9.2310090000000002
21
-21.5809519999999999
0
LINE
8
LYELLOW
6
CONTINUOUS
10
9.2310090000000002
20
-21.5809519999999999
11
9.3262470000000004
21
-21.5333329999999989
0
LINE
8
LYELLOW
6
CONTINUOUS
10
9.3262470000000004
20
-21.5333329999999989
11
9.5643419999999999
21
-21.5333329999999989
0
LINE
8
LYELLOW
6
CONTINUOUS
10
9.5643419999999999
20
-21.5333329999999989
11
9.6595800000000001
21
-21.5809519999999999
0
LINE
8
LYELLOW
6
CONTINUOUS
10
9.6595800000000001
20
-21.5809519999999999
11
9.7072000000000003
21
-21.6285709999999973
0
LINE
8
LYELLOW
6
CONTINUOUS
10
9.7072000000000003
20
-21.6285709999999973
11
9.7548189999999995
21
-21.7238089999999993
0
LINE
8
LYELLOW
6
CONTINUOUS
10
9.7548189999999995
20
-21.7238089999999993
11
9.7548189999999995
21
-21.9619040000000005
0
LINE
8
LYELLOW
6
CONTINUOUS
10
9.7548189999999995
20
-21.9619040000000005
11
9.7072000000000003
21
-22.0571419999999989
0
LINE
8
LYELLOW
6
CONTINUOUS
10
9.7072000000000003
20
-22.0571419999999989
11
9.6595800000000001
21
-22.1047609999999999
0
LINE
8
LYELLOW
6
CONTINUOUS
10
15.5348189999999988
20
-6.7428559999999997
11
16.5348189999999988
21
-6.4095230000000001
0
LINE
8
LYELLOW
6
CONTINUOUS
10
16.5348189999999988
20
-6.4095230000000001
11
15.5348189999999988
21
-6.0761899999999995
0
LINE
8
LYELLOW
6
CONTINUOUS
10
16.4871999999999979
20
-5.7904749999999998
11
16.5348189999999988
21
-5.6476179999999996
0
LINE
8
LYELLOW
6
CONTINUOUS
10
16.5348189999999988
20
-5.6476179999999996
11
16.5348189999999988
21
-5.4095230000000001
0
LINE
8
LYELLOW
6
CONTINUOUS
10
16.5348189999999988
20
-5.4095230000000001
11
16.4871999999999979
21
-5.3142849999999999
0
LINE
8
LYELLOW
6
CONTINUOUS
10
16.4871999999999979
20
-5.3142849999999999
11
16.4395799999999994
21
-5.2666659999999998
0
LINE
8
LYELLOW
6
CONTINUOUS
10
16.4395799999999994
20
-5.2666659999999998
11
16.344342000000001
21
-5.2190469999999998
0
LINE
8
LYELLOW
6
CONTINUOUS
10
16.344342000000001
20
-5.2190469999999998
11
16.2491039999999991
21
-5.2190469999999998
0
LINE
8
LYELLOW
6
CONTINUOUS
10
16.2491039999999991
20
-5.2190469999999998
11
16.1538660000000007
21
-5.2666659999999998
0
LINE
8
LYELLOW
6
CONTINUOUS
10
16.1538660000000007
20
-5.2666659999999998
11
16.1062469999999998
21
-5.3142849999999999
0
LINE
8
LYELLOW
6
CONTINUOUS
10
16.1062469999999998
20
-5.3142849999999999
11
16.0586279999999988
21
-5.4095230000000001
0
LINE
8
LYELLOW
6
CONTINUOUS
10
16.0586279999999988
20
-5.4095230000000001
11
16.0110089999999978
21
-5.5999989999999995
0
LINE
8
LYELLOW
6
CONTINUOUS
10
16.0110089999999978
20
-5.5999989999999995
11
15.9633899999999986
21
-5.6952369999999997
0
LINE
8
LYELLOW
6
CONTINUOUS
10
15.9633899999999986
20
-5.6952369999999997
11
15.9157709999999994
21
-5.7428559999999997
0
LINE
8
LYELLOW
6
CONTINUOUS
10
15.9157709999999994
20
-5.7428559999999997
11
15.8205329999999993
21
-5.7904749999999998
0
LINE
8
LYELLOW
6
CONTINUOUS
10
15.8205329999999993
20
-5.7904749999999998
11
15.7252949999999991
21
-5.7904749999999998
0
LINE
8
LYELLOW
6
CONTINUOUS
10
15.7252949999999991
20
-5.7904749999999998
11
15.630056999999999
21
-5.7428559999999997
0
LINE
8
LYELLOW
6
CONTINUOUS
10
15.630056999999999
20
-5.7428559999999997
11
15.5824379999999998
21
-5.6952369999999997
0
LINE
8
LYELLOW
6
CONTINUOUS
10
15.5824379999999998
20
-5.6952369999999997
11
15.5348189999999988
21
-5.5999989999999995
0
LINE
8
LYELLOW
6
CONTINUOUS
10
15.5348189999999988
20
-5.5999989999999995
11
15.5348189999999988
21
-5.361904
0
LINE
8
LYELLOW
6
CONTINUOUS
10
15.5348189999999988
20
-5.361904
11
15.5824379999999998
21
-5.2190469999999998
0
LINE
8
LYELLOW
6
CONTINUOUS
10
16.0110089999999978
20
-4.7904749999999998
11
16.0110089999999978
21
-4.4571420000000002
0
LINE
8
LYELLOW
6
CONTINUOUS
10
16.5348189999999988
20
-4.3142849999999999
11
16.5348189999999988
21
-4.7904749999999998
0
LINE
8
LYELLOW
6
CONTINUOUS
10
16.5348189999999988
20
-4.7904749999999998
11
15.5348189999999988
21
-4.7904749999999998
0
LINE
8
LYELLOW
6
CONTINUOUS
10
15.5348189999999988
20
-4.7904749999999998
11
15.5348189999999988
21
-4.3142849999999999
0
LINE
8
LYELLOW
6
CONTINUOUS
10
16.5348189999999988
20
-3.4095229999999996
11
16.5348189999999988
21
-3.885713
0
LINE
8
LYELLOW
6
CONTINUOUS
10
16.5348189999999988
20
-3.885713
11
15.5348189999999988
21
-3.885713
0
LINE
8
LYELLOW
6
CONTINUOUS
10
16.5348189999999988
20
-2.5523799999999999
11
16.5348189999999988
21
-3.1238079999999999
0
LINE
8
LYELLOW
6
CONTINUOUS
10
16.5348189999999988
20
-2.8380939999999999
11
15.5348189999999988
21
-2.8380939999999999
0
LINE
8
LYELLOW
6
CONTINUOUS
10
15.5348189999999988
20
-2.8380939999999999
11
15.6776759999999999
21
-2.9333320000000001
0
LINE
8
LYELLOW
6
CONTINUOUS
10
15.6776759999999999
20
-2.9333320000000001
11
15.7729140000000001
21
-3.0285699999999998
0
LINE
8
LYELLOW
6
CONTINUOUS
10
15.7729140000000001
20
-3.0285699999999998
11
15.8205329999999993
21
-3.1238079999999999
0
LINE
8
LYELLOW
6
CONTINUOUS
10
4.9166660000000002
20
-4.7048189999999996
11
4.9166660000000002
21
-5.4191039999999999
0
LINE
8
LYELLOW
6
CONTINUOUS
10
4.9166660000000002
20
-5.4191039999999999
11
4.8690470000000001
21
-5.5619610000000002
0
LINE
8
LYELLOW
6
CONTINUOUS
10
4.8690470000000001
20
-5.5619610000000002
11
4.773809
21
-5.6571999999999996
0
LINE
8
LYELLOW
6
CONTINUOUS
10
4.773809
20
-5.6571999999999996
11
4.6309519999999997
21
-5.7048189999999996
0
LINE
8
LYELLOW
6
CONTINUOUS
10
4.6309519999999997
20
-5.7048189999999996
11
4.5357139999999996
21
-5.7048189999999996
0
LINE
8
LYELLOW
6
CONTINUOUS
10
5.9166659999999993
20
-5.7048189999999996
11
5.3452380000000002
21
-5.7048189999999996
0
LINE
8
LYELLOW
6
CONTINUOUS
10
5.6309519999999997
20
-5.7048189999999996
11
5.6309519999999997
21
-4.7048189999999996
0
LINE
8
LYELLOW
6
CONTINUOUS
10
5.6309519999999997
20
-4.7048189999999996
11
5.5357139999999996
21
-4.8476759999999999
0
LINE
8
LYELLOW
6
CONTINUOUS
10
5.5357139999999996
20
-4.8476759999999999
11
5.4404759999999994
21
-4.942914
0
LINE
8
LYELLOW
6
CONTINUOUS
10
5.4404759999999994
20
-4.942914
11
5.3452380000000002
21
-4.9905330000000001
0
LINE
8
LYELLOW
6
CONTINUOUS
10
51.9166659999999993
20
-18.9548190000000005
11
51.9166659999999993
21
-19.6691040000000008
0
LINE
8
LYELLOW
6
CONTINUOUS
10
51.9166659999999993
20
-19.6691040000000008
11
51.8690469999999948
21
-19.8119610000000002
0
LINE
8
LYELLOW
6
CONTINUOUS
10
51.8690469999999948
20
-19.8119610000000002
11
51.773809
21
-19.9071999999999996
0
LINE
8
LYELLOW
6
CONTINUOUS
10
51.773809
20
-19.9071999999999996
11
51.6309520000000006
21
-19.9548190000000005
0
LINE
8
LYELLOW
6
CONTINUOUS
10
51.6309520000000006
20
-19.9548190000000005
11
51.5357139999999987
21
-19.9548190000000005
0
LINE
8
LYELLOW
6
CONTINUOUS
10
52.8214279999999974
20
-19.2881520000000002
11
52.8214279999999974
21
-19.9548190000000005
0
LINE
8
LYELLOW
6
CONTINUOUS
10
52.5833329999999961
20
-18.9071999999999996
11
52.3452379999999948
21
-19.6214849999999998
0
LINE
8
LYELLOW
6
CONTINUOUS
10
52.3452379999999948
20
-19.6214849999999998
11
52.9642849999999967
21
-19.6214849999999998
0
LINE
8
LYELLOW
6
CONTINUOUS
10
10.0333329999999989
20
-4.9895800000000001
11
9.9857139999999998
21
-5.0371999999999995
0
LINE
8
LYELLOW
6
CONTINUOUS
10
9.9857139999999998
20
-5.0371999999999995
11
9.8428570000000004
21
-5.0848189999999995
0
LINE
8
LYELLOW
6
CONTINUOUS
10
9.8428570000000004
20
-5.0848189999999995
11
9.7476190000000003
21
-5.0848189999999995
0
LINE
8
LYELLOW
6
CONTINUOUS
10
9.7476190000000003
20
-5.0848189999999995
11
9.6047619999999991
21
-5.0371999999999995
0
LINE
8
LYELLOW
6
CONTINUOUS
10
9.6047619999999991
20
-5.0371999999999995
11
9.509523999999999
21
-4.941961
0
LINE
8
LYELLOW
6
CONTINUOUS
10
9.509523999999999
20
-4.941961
11
9.4619049999999998
21
-4.8467229999999999
0
LINE
8
LYELLOW
6
CONTINUOUS
10
9.4619049999999998
20
-4.8467229999999999
11
9.4142859999999988
21
-4.6562469999999996
0
LINE
8
LYELLOW
6
CONTINUOUS
10
9.4142859999999988
20
-4.6562469999999996
11
9.4142859999999988
21
-4.5133900000000002
0
LINE
8
LYELLOW
6
CONTINUOUS
10
9.4142859999999988
20
-4.5133900000000002
11
9.4619049999999998
21
-4.3229139999999999
0
LINE
8
LYELLOW
6
CONTINUOUS
10
9.4619049999999998
20
-4.3229139999999999
11
9.509523999999999
21
-4.2276759999999998
0
LINE
8
LYELLOW
6
CONTINUOUS
10
9.509523999999999
20
-4.2276759999999998
11
9.6047619999999991
21
-4.1324379999999996
0
LINE
8
LYELLOW
6
CONTINUOUS
10
9.6047619999999991
20
-4.1324379999999996
11
9.7476190000000003
21
-4.0848189999999995
0
LINE
8
LYELLOW
6
CONTINUOUS
10
9.7476190000000003
20
-4.0848189999999995
11
9.8428570000000004
21
-4.0848189999999995
0
LINE
8
LYELLOW
6
CONTINUOUS
10
9.8428570000000004
20
-4.0848189999999995
11
9.9857139999999998
21
-4.1324379999999996
0
LINE
8
LYELLOW
6
CONTINUOUS
10
9.9857139999999998
20
-4.1324379999999996
11
10.0333329999999989
21
-4.1800569999999997
0
LINE
8
LYELLOW
6
CONTINUOUS
10
10.4142859999999988
20
-4.1800569999999997
11
10.4619049999999998
21
-4.1324379999999996
0
LINE
8
LYELLOW
6
CONTINUOUS
10
10.4619049999999998
20
-4.1324379999999996
11
10.5571429999999999
21
-4.0848189999999995
0
LINE
8
LYELLOW
6
CONTINUOUS
10
10.5571429999999999
20
-4.0848189999999995
11
10.7952379999999994
21
-4.0848189999999995
0
LINE
8
LYELLOW
6
CONTINUOUS
10
10.7952379999999994
20
-4.0848189999999995
11
10.8904759999999996
21
-4.1324379999999996
0
LINE
8
LYELLOW
6
CONTINUOUS
10
10.8904759999999996
20
-4.1324379999999996
11
10.9380949999999988
21
-4.1800569999999997
0
LINE
8
LYELLOW
6
CONTINUOUS
10
10.9380949999999988
20
-4.1800569999999997
11
10.9857139999999998
21
-4.2752949999999998
0
LINE
8
LYELLOW
6
CONTINUOUS
10
10.9857139999999998
20
-4.2752949999999998
11
10.9857139999999998
21
-4.370533
0
LINE
8
LYELLOW
6
CONTINUOUS
10
10.9857139999999998
20
-4.370533
11
10.9380949999999988
21
-4.5133900000000002
0
LINE
8
LYELLOW
6
CONTINUOUS
10
10.9380949999999988
20
-4.5133900000000002
11
10.3666669999999996
21
-5.0848189999999995
0
LINE
8
LYELLOW
6
CONTINUOUS
10
10.3666669999999996
20
-5.0848189999999995
11
10.9857139999999998
21
-5.0848189999999995
0
LINE
8
LYELLOW
6
CONTINUOUS
10
16.4166659999999993
20
-20.7048190000000005
11
16.4166659999999993
21
-21.4191039999999973
0
LINE
8
LYELLOW
6
CONTINUOUS
10
16.4166659999999993
20
-21.4191039999999973
11
16.3690469999999983
21
-21.5619610000000002
0
LINE
8
LYELLOW
6
CONTINUOUS
10
16.3690469999999983
20
-21.5619610000000002
11
16.273809
21
-21.6571999999999996
0
LINE
8
LYELLOW
6
CONTINUOUS
10
16.273809
20
-21.6571999999999996
11
16.1309520000000006
21
-21.7048190000000005
0
LINE
8
LYELLOW
6
CONTINUOUS
10
16.1309520000000006
20
-21.7048190000000005
11
16.0357139999999987
21
-21.7048190000000005
0
LINE
8
LYELLOW
6
CONTINUOUS
10
16.8452379999999984
20
-20.8000569999999989
11
16.8928569999999993
21
-20.7524379999999979
0
LINE
8
LYELLOW
6
CONTINUOUS
10
16.8928569999999993
20
-20.7524379999999979
11
16.9880949999999977
21
-20.7048190000000005
0
LINE
8
LYELLOW
6
CONTINUOUS
10
16.9880949999999977
20
-20.7048190000000005
11
17.226189999999999
21
-20.7048190000000005
0
LINE
8
LYELLOW
6
CONTINUOUS
10
17.226189999999999
20
-20.7048190000000005
11
17.3214280000000009
21
-20.7524379999999979
0
LINE
8
LYELLOW
6
CONTINUOUS
10
17.3214280000000009
20
-20.7524379999999979
11
17.3690469999999983
21
-20.8000569999999989
0
LINE
8
LYELLOW
6
CONTINUOUS
10
17.3690469999999983
20
-20.8000569999999989
11
17.4166659999999993
21
-20.8952949999999973
0
LINE
8
LYELLOW
6
CONTINUOUS
10
17.4166659999999993
20
-20.8952949999999973
11
17.4166659999999993
21
-20.9905329999999992
0
LINE
8
LYELLOW
6
CONTINUOUS
10
17.4166659999999993
20
-20.9905329999999992
11
17.3690469999999983
21
-21.1333899999999986
0
LINE
8
LYELLOW
6
CONTINUOUS
10
17.3690469999999983
20
-21.1333899999999986
11
16.797619000000001
21
-21.7048190000000005
0
LINE
8
LYELLOW
6
CONTINUOUS
10
16.797619000000001
20
-21.7048190000000005
11
17.4166659999999993
21
-21.7048190000000005
0
LINE
8
LYELLOW
6
CONTINUOUS
10
29.25
20
-3.5
11
29.25
21
-5.8499999999999996
0
LINE
8
LYELLOW
6
CONTINUOUS
10
29.25
20
-3.5
11
47.25
21
-3.5
0
LINE
8
LYELLOW
6
CONTINUOUS
10
29.25
20
-25.8999999999999986
11
29.25
21
-26.1999999999999993
0
LINE
8
LYELLOW
6
CONTINUOUS
10
29.25
20
-26.1999999999999993
11
33.75
21
-26.1999999999999993
0
LINE
8
LYELLOW
6
CONTINUOUS
10
33.75
20
-27.5
11
33.75
21
-26.1999999999999993
0
LINE
8
LYELLOW
6
CONTINUOUS
10
33.75
20
-27.5
11
42.75
21
-27.5
0
LINE
8
LYELLOW
6
CONTINUOUS
10
42.75
20
-26.1999999999999993
11
47.25
21
-26.1999999999999993
0
LINE
8
LYELLOW
6
CONTINUOUS
10
42.75
20
-27.5
11
42.75
21
-26.1999999999999993
0
LINE
8
LYELLOW
6
CONTINUOUS
10
47.25
20
-3.5
11
47.25
21
-5.8499999999999996
0
LINE
8
LYELLOW
6
CONTINUOUS
10
47.25
20
-25.8999999999999986
11
47.25
21
-26.1999999999999993
0
LINE
8
LYELLOW
6
CONTINUOUS
10
16.879999999999999
20
-8.4199999999999999
11
16.879999999999999
21
-11.1799999999999997
0
LINE
8
LYELLOW
6
CONTINUOUS
10
22.0700000000000003
20
-8.4199999999999999
11
16.879999999999999
21
-8.4199999999999999
0
LINE
8
LYELLOW
6
CONTINUOUS
10
22.0700000000000003
20
-8.4199999999999999
11
22.0700000000000003
21
-11.1799999999999997
0
LINE
8
LYELLOW
6
CONTINUOUS
10
22.0700000000000003
20
-11.1799999999999997
11
16.879999999999999
21
-11.1799999999999997
0
LINE
8
LYELLOW
6
CONTINUOUS
10
23.3399999999999999
20
-8.4199999999999999
11
24.7199999999999989
21
-8.4199999999999999
0
LINE
8
LYELLOW
6
CONTINUOUS
10
24.7199999999999989
20
-8.4199999999999999
11
24.7199999999999989
21
-9.7999999999999989
0
LINE
8
LYELLOW
6
CONTINUOUS
10
11.3499999999999996
20
-8.4499999999999993
11
11.3499999999999996
21
-8.5499999999999989
0
LINE
8
LYELLOW
6
CONTINUOUS
10
11.3499999999999996
20
-11.5499999999999989
11
11.3499999999999996
21
-11.4499999999999993
0
LINE
8
LYELLOW
6
CONTINUOUS
10
13.0499999999999989
20
-8.4499999999999993
11
11.3499999999999996
21
-8.4499999999999993
0
LINE
8
LYELLOW
6
CONTINUOUS
10
13.0499999999999989
20
-8.4499999999999993
11
13.0499999999999989
21
-8.5499999999999989
0
LINE
8
LYELLOW
6
CONTINUOUS
10
13.0499999999999989
20
-11.5499999999999989
11
11.3499999999999996
21
-11.5499999999999989
0
LINE
8
LYELLOW
6
CONTINUOUS
10
13.0499999999999989
20
-11.5499999999999989
11
13.0499999999999989
21
-11.4499999999999993
0
CIRCLE
8
LYELLOW
10
9.7309999999999999
20
-9.0499999999999989
40
0.1
0
LINE
8
LYELLOW
6
CONTINUOUS
10
10.3405799999999992
20
-6.0899999999999999
11
10.0594199999999994
21
-6.0899999999999999
0
LINE
8
LYELLOW
6
CONTINUOUS
10
10.3405799999999992
20
-7.1099999999999994
11
10.0594199999999994
21
-7.1099999999999994
0
LINE
8
LYELLOW
6
CONTINUOUS
10
2.9899999999999998
20
-17.1149999999999984
11
2.9899999999999998
21
-19.4399999999999977
0
LINE
8
LYELLOW
6
CONTINUOUS
10
2.9899999999999998
20
-19.4399999999999977
11
0.6
21
-19.4399999999999977
0
LINE
8
LYELLOW
6
CONTINUOUS
10
2.9899999999999998
20
-27.2850000000000001
11
2.9899999999999998
21
-24.9599999999999973
0
LINE
8
LYELLOW
6
CONTINUOUS
10
3.8399999999999999
20
-17.1149999999999984
11
2.9899999999999998
21
-17.1149999999999984
0
LINE
8
LYELLOW
6
CONTINUOUS
10
3.8399999999999999
20
-27.2850000000000001
11
2.9899999999999998
21
-27.2850000000000001
0
LINE
8
LYELLOW
6
CONTINUOUS
10
7.3599999999999994
20
-17.1149999999999984
11
8.2099999999999991
21
-17.1149999999999984
0
LINE
8
LYELLOW
6
CONTINUOUS
10
8.2099999999999991
20
-17.1149999999999984
11
8.2099999999999991
21
-27.2850000000000001
0
LINE
8
LYELLOW
6
CONTINUOUS
10
8.2099999999999991
20
-27.2850000000000001
11
7.3599999999999994
21
-27.2850000000000001
0
LINE
8
LYELLOW
6
CONTINUOUS
10
17.0799999999999983
20
-5.9799999999999995
11
17.0799999999999983
21
-4.5999999999999996
0
LINE
8
LYELLOW
6
CONTINUOUS
10
18.4600000000000009
20
-5.9799999999999995
11
17.0799999999999983
21
-5.9799999999999995
0
LINE
8
LYELLOW
6
CONTINUOUS
10
19.7300000000000004
20
-3.2199999999999998
11
24.9199999999999982
21
-3.2199999999999998
0
LINE
8
LYELLOW
6
CONTINUOUS
10
19.7300000000000004
20
-5.9799999999999995
11
19.7300000000000004
21
-3.2199999999999998
0
LINE
8
LYELLOW
6
CONTINUOUS
10
19.7300000000000004
20
-5.9799999999999995
11
24.9199999999999982
21
-5.9799999999999995
0
LINE
8
LYELLOW
6
CONTINUOUS
10
24.9199999999999982
20
-5.9799999999999995
11
24.9199999999999982
21
-3.2199999999999998
0
LINE
8
LYELLOW
6
CONTINUOUS
10
2.8899999999999997
20
-6.915
11
2.8899999999999997
21
-9.2400000000000002
0
LINE
8
LYELLOW
6
CONTINUOUS
10
2.8899999999999997
20
-9.2400000000000002
11
0.5
21
-9.2400000000000002
0
LINE
8
LYELLOW
6
CONTINUOUS
10
2.8899999999999997
20
-15.0849999999999991
11
2.8899999999999997
21
-12.7599999999999998
0
LINE
8
LYELLOW
6
CONTINUOUS
10
3.7399999999999998
20
-6.915
11
2.8899999999999997
21
-6.915
0
LINE
8
LYELLOW
6
CONTINUOUS
10
3.7399999999999998
20
-15.0849999999999991
11
2.8899999999999997
21
-15.0849999999999991
0
LINE
8
LYELLOW
6
CONTINUOUS
10
7.2599999999999998
20
-6.915
11
8.1099999999999994
21
-6.915
0
LINE
8
LYELLOW
6
CONTINUOUS
10
8.1099999999999994
20
-6.915
11
8.1099999999999994
21
-15.0849999999999991
0
LINE
8
LYELLOW
6
CONTINUOUS
10
8.1099999999999994
20
-15.0849999999999991
11
7.2599999999999998
21
-15.0849999999999991
0
LINE
8
LYELLOW
6
CONTINUOUS
10
50.8699999999999974
20
-15.8499999999999996
11
50.8699999999999974
21
-8.1199999999999992
0
LINE
8
LYELLOW
6
CONTINUOUS
10
53.6299999999999955
20
-8.1199999999999992
11
50.8699999999999974
21
-8.1199999999999992
0
LINE
8
LYELLOW
6
CONTINUOUS
10
53.6299999999999955
20
-15.8499999999999996
11
50.8699999999999974
21
-15.8499999999999996
0
LINE
8
LYELLOW
6
CONTINUOUS
10
53.6299999999999955
20
-15.8499999999999996
11
53.6299999999999955
21
-8.1199999999999992
0
LINE
8
LYELLOW
6
CONTINUOUS
10
53.6299999999999955
20
-17.120000000000001
11
53.6299999999999955
21
-18.5
0
LINE
8
LYELLOW
6
CONTINUOUS
10
53.6299999999999955
20
-18.5
11
52.25
21
-18.5
0
LINE
8
LYELLOW
6
CONTINUOUS
10
10.3405799999999992
20
-2.6899999999999999
11
10.0594199999999994
21
-2.6899999999999999
0
LINE
8
LYELLOW
6
CONTINUOUS
10
10.3405799999999992
20
-3.71
11
10.0594199999999994
21
-3.71
0
LINE
8
LYELLOW
6
CONTINUOUS
10
23.1199999999999974
20
-18.8299999999999983
11
24.5
21
-18.8299999999999983
0
LINE
8
LYELLOW
6
CONTINUOUS
10
23.1199999999999974
20
-20.2100000000000009
11
23.1199999999999974
21
-18.8299999999999983
0
LINE
8
LYELLOW
6
CONTINUOUS
10
23.1199999999999974
20
-21.4800000000000004
11
23.1199999999999974
21
-26.6699999999999982
0
LINE
8
LYELLOW
6
CONTINUOUS
10
23.1199999999999974
20
-21.4800000000000004
11
25.879999999999999
21
-21.4800000000000004
0
LINE
8
LYELLOW
6
CONTINUOUS
10
23.1199999999999974
20
-26.6699999999999982
11
25.879999999999999
21
-26.6699999999999982
0
LINE
8
LYELLOW
6
CONTINUOUS
10
25.879999999999999
20
-21.4800000000000004
11
25.879999999999999
21
-26.6699999999999982
0
CIRCLE
8
BLACK
10
23.3399999999999999
20
-9.7999999999999989
40
0.0635
0
CIRCLE
8
BLACK
10
20.8000000000000007
20
-9.7999999999999989
40
0.0635
0
CIRCLE
8
BLACK
10
18.259999999999998
20
-9.7999999999999989
40
0.0635
0
CIRCLE
8
BLACK
10
18.4600000000000009
20
-4.5999999999999996
40
0.127
0
CIRCLE
8
BLACK
10
21.
20
-4.5999999999999996
40
0.127
0
CIRCLE
8
BLACK
10
23.5399999999999991
20
-4.5999999999999996
40
0.127
0
CIRCLE
8
BLACK
10
52.25
20
-17.120000000000001
40
0.0635
0
CIRCLE
8
BLACK
10
52.25
20
-14.5800000000000001
40
0.0635
0
CIRCLE
8
BLACK
10
52.25
20
-12.0399999999999991
40
0.0635
0
CIRCLE
8
BLACK
10
52.25
20
-9.5
40
0.0635
0
CIRCLE
8
BLACK
10
24.5
20
-20.2100000000000009
40
0.0635
0
CIRCLE
8
BLACK
10
24.5
20
-22.75
40
0.0635
0
CIRCLE
8
BLACK
10
24.5
20
-25.2899999999999991
40
0.0635
  0
ENDSEC
  0
EOF
