  0
SECTION
  2
HEADER
  9
$ANGBASE
  50
0.0
  9
$ANGDIR
  70
1
  9
$MEASUREMENT
  70
1
  0
ENDSEC
  0
SECTION
  2
TABLES
  0
TABLE
  2
LTYPE
  70
4
  0
LTYPE
  5
40F
  2
CONTINUOUS
  70
0
  3
Solid line
  72
65
  73
0
  40
0.0
  0
LTYPE
  5
410
  2
DASHDOT
 70
0
  3
Dash Dot ____ _ ____ _
 72
65
 73
4
 40
2.0
 49
1.25
 49
-0.25
 49
0.25
 49
-0.25
  0
LTYPE
  5
411
  2
DASHED
 70
0
  3
Dashed __ __ __ __ __
 72
65
 73
2
 40
0.75
 49
0.5
 49
-0.25
  0
LTYPE
  5
43B
  2
DOTTED
 70
0
  3
Dotted .  .  .  .
 72
65
 73
2
 40
0.2
 49
0.0
 49
-0.2
  0
ENDTAB
  0
TABLE
  2
STYLE
  70
4
  0
STYLE
  2
KICAD
  70
0
  40
0
  41
1
  42
1
  50
0
  71
0
  3
isocp.shx
  0
STYLE
  2
KICADB
  70
0
  40
0
  41
1
  42
1
  50
0
  71
0
  3
isocp.shx
  0
STYLE
  2
KICADI
  70
0
  40
0
  41
1
  42
1
  50
15
  71
0
  3
isocp.shx
  0
STYLE
  2
KICADBI
  70
0
  40
0
  41
1
  42
1
  50
15
  71
0
  3
isocp.shx
  0
ENDTAB
  0
TABLE
  2
LAYER
  70
35
  0
LAYER
  2
BLACK
  70
0
  62
7
  6
CONTINUOUS
  0
LAYER
  2
GRAY1
  70
0
  62
251
  6
CONTINUOUS
  0
LAYER
  2
GRAY2
  70
0
  62
8
  6
CONTINUOUS
  0
LAYER
  2
GRAY3
  70
0
  62
9
  6
CONTINUOUS
  0
LAYER
  2
WHITE
  70
0
  62
7
  6
CONTINUOUS
  0
LAYER
  2
LYELLOW
  70
0
  62
51
  6
CONTINUOUS
  0
LAYER
  2
LORANGE
  70
0
  62
41
  6
CONTINUOUS
  0
LAYER
  2
BLUE1
  70
0
  62
178
  6
CONTINUOUS
  0
LAYER
  2
GREEN1
  70
0
  62
98
  6
CONTINUOUS
  0
LAYER
  2
CYAN1
  70
0
  62
138
  6
CONTINUOUS
  0
LAYER
  2
RED1
  70
0
  62
18
  6
CONTINUOUS
  0
LAYER
  2
MAGENTA1
  70
0
  62
228
  6
CONTINUOUS
  0
LAYER
  2
BROWN1
  70
0
  62
58
  6
CONTINUOUS
  0
LAYER
  2
ORANGE1
  70
0
  62
34
  6
CONTINUOUS
  0
LAYER
  2
BLUE2
  70
0
  62
5
  6
CONTINUOUS
  0
LAYER
  2
GREEN2
  70
0
  62
3
  6
CONTINUOUS
  0
LAYER
  2
CYAN2
  70
0
  62
4
  6
CONTINUOUS
  0
LAYER
  2
RED2
  70
0
  62
1
  6
CONTINUOUS
  0
LAYER
  2
MAGENTA2
  70
0
  62
6
  6
CONTINUOUS
  0
LAYER
  2
BROWN2
  70
0
  62
54
  6
CONTINUOUS
  0
LAYER
  2
ORANGE2
  70
0
  62
42
  6
CONTINUOUS
  0
LAYER
  2
BLUE3
  70
0
  62
171
  6
CONTINUOUS
  0
LAYER
  2
GREEN3
  70
0
  62
91
  6
CONTINUOUS
  0
LAYER
  2
CYAN3
  70
0
  62
131
  6
CONTINUOUS
  0
LAYER
  2
RED3
  70
0
  62
11
  6
CONTINUOUS
  0
LAYER
  2
MAGENTA3
  70
0
  62
221
  6
CONTINUOUS
  0
LAYER
  2
YELLOW3
  70
0
  62
2
  6
CONTINUOUS
  0
LAYER
  2
ORANGE3
  70
0
  62
32
  6
CONTINUOUS
  0
LAYER
  2
BLUE4
  70
0
  62
5
  6
CONTINUOUS
  0
LAYER
  2
GREEN4
  70
0
  62
3
  6
CONTINUOUS
  0
LAYER
  2
CYAN4
  70
0
  62
4
  6
CONTINUOUS
  0
LAYER
  2
RED4
  70
0
  62
1
  6
CONTINUOUS
  0
LAYER
  2
MAGENTA4
  70
0
  62
6
  6
CONTINUOUS
  0
LAYER
  2
YELLOW4
  70
0
  62
2
  6
CONTINUOUS
  0
LAYER
  2
ORANGE4
  70
0
  62
40
  6
CONTINUOUS
  0
ENDTAB
  0
ENDSEC
  0
SECTION
  2
ENTITIES
0
LINE
8
LYELLOW
6
CONTINUOUS
10
39.0030949999999947
20
-23.2048190000000005
11
39.0030949999999947
21
-24.0143419999999992
0
LINE
8
LYELLOW
6
CONTINUOUS
10
39.0030949999999947
20
-24.0143419999999992
11
39.0507139999999993
21
-24.1095799999999976
0
LINE
8
LYELLOW
6
CONTINUOUS
10
39.0507139999999993
20
-24.1095799999999976
11
39.0983329999999967
21
-24.1571999999999996
0
LINE
8
LYELLOW
6
CONTINUOUS
10
39.0983329999999967
20
-24.1571999999999996
11
39.1935709999999986
21
-24.2048190000000005
0
LINE
8
LYELLOW
6
CONTINUOUS
10
39.1935709999999986
20
-24.2048190000000005
11
39.3840469999999954
21
-24.2048190000000005
0
LINE
8
LYELLOW
6
CONTINUOUS
10
39.3840469999999954
20
-24.2048190000000005
11
39.4792849999999973
21
-24.1571999999999996
0
LINE
8
LYELLOW
6
CONTINUOUS
10
39.4792849999999973
20
-24.1571999999999996
11
39.5269039999999947
21
-24.1095799999999976
0
LINE
8
LYELLOW
6
CONTINUOUS
10
39.5269039999999947
20
-24.1095799999999976
11
39.5745229999999992
21
-24.0143419999999992
0
LINE
8
LYELLOW
6
CONTINUOUS
10
39.5745229999999992
20
-24.0143419999999992
11
39.5745229999999992
21
-23.2048190000000005
0
LINE
8
LYELLOW
6
CONTINUOUS
10
40.5745229999999992
20
-24.2048190000000005
11
40.0030949999999947
21
-24.2048190000000005
0
LINE
8
LYELLOW
6
CONTINUOUS
10
40.2888090000000005
20
-24.2048190000000005
11
40.2888090000000005
21
-23.2048190000000005
0
LINE
8
LYELLOW
6
CONTINUOUS
10
40.2888090000000005
20
-23.2048190000000005
11
40.1935709999999986
21
-23.3476759999999999
0
LINE
8
LYELLOW
6
CONTINUOUS
10
40.1935709999999986
20
-23.3476759999999999
11
40.0983329999999967
21
-23.4429139999999983
0
LINE
8
LYELLOW
6
CONTINUOUS
10
40.0983329999999967
20
-23.4429139999999983
11
40.0030949999999947
21
-23.4905329999999992
0
LINE
8
LYELLOW
6
CONTINUOUS
10
11.136666
20
-13.7548189999999995
11
11.136666
21
-14.4691039999999997
0
LINE
8
LYELLOW
6
CONTINUOUS
10
11.136666
20
-14.4691039999999997
11
11.089046999999999
21
-14.6119609999999991
0
LINE
8
LYELLOW
6
CONTINUOUS
10
11.089046999999999
20
-14.6119609999999991
11
10.9938089999999988
21
-14.7071999999999985
0
LINE
8
LYELLOW
6
CONTINUOUS
10
10.9938089999999988
20
-14.7071999999999985
11
10.8509519999999995
21
-14.7548189999999995
0
LINE
8
LYELLOW
6
CONTINUOUS
10
10.8509519999999995
20
-14.7548189999999995
11
10.7557139999999993
21
-14.7548189999999995
0
LINE
8
LYELLOW
6
CONTINUOUS
10
11.5176189999999998
20
-13.7548189999999995
11
12.136666
21
-13.7548189999999995
0
LINE
8
LYELLOW
6
CONTINUOUS
10
12.136666
20
-13.7548189999999995
11
11.8033330000000003
21
-14.1357710000000001
0
LINE
8
LYELLOW
6
CONTINUOUS
10
11.8033330000000003
20
-14.1357710000000001
11
11.9461899999999996
21
-14.1357710000000001
0
LINE
8
LYELLOW
6
CONTINUOUS
10
11.9461899999999996
20
-14.1357710000000001
11
12.0414279999999998
21
-14.1833899999999993
0
LINE
8
LYELLOW
6
CONTINUOUS
10
12.0414279999999998
20
-14.1833899999999993
11
12.089046999999999
21
-14.2310090000000002
0
LINE
8
LYELLOW
6
CONTINUOUS
10
12.089046999999999
20
-14.2310090000000002
11
12.136666
21
-14.3262469999999986
0
LINE
8
LYELLOW
6
CONTINUOUS
10
12.136666
20
-14.3262469999999986
11
12.136666
21
-14.5643419999999999
0
LINE
8
LYELLOW
6
CONTINUOUS
10
12.136666
20
-14.5643419999999999
11
12.089046999999999
21
-14.6595800000000001
0
LINE
8
LYELLOW
6
CONTINUOUS
10
12.089046999999999
20
-14.6595800000000001
11
12.0414279999999998
21
-14.7071999999999985
0
LINE
8
LYELLOW
6
CONTINUOUS
10
12.0414279999999998
20
-14.7071999999999985
11
11.9461899999999996
21
-14.7548189999999995
0
LINE
8
LYELLOW
6
CONTINUOUS
10
11.9461899999999996
20
-14.7548189999999995
11
11.6604759999999992
21
-14.7548189999999995
0
LINE
8
LYELLOW
6
CONTINUOUS
10
11.6604759999999992
20
-14.7548189999999995
11
11.565237999999999
21
-14.7071999999999985
0
LINE
8
LYELLOW
6
CONTINUOUS
10
11.565237999999999
20
-14.7071999999999985
11
11.5176189999999998
21
-14.6595800000000001
0
LINE
8
LYELLOW
6
CONTINUOUS
10
15.637891999999999
20
-8.2805920000000004
11
15.637891999999999
21
-8.9303399999999993
0
LINE
8
LYELLOW
6
CONTINUOUS
10
15.637891999999999
20
-8.9303399999999993
11
15.6761119999999998
21
-9.0067810000000001
0
LINE
8
LYELLOW
6
CONTINUOUS
10
15.6761119999999998
20
-9.0067810000000001
11
15.7143329999999999
21
-9.0450020000000002
0
LINE
8
LYELLOW
6
CONTINUOUS
10
15.7143329999999999
20
-9.0450020000000002
11
15.790773999999999
21
-9.0832219999999992
0
LINE
8
LYELLOW
6
CONTINUOUS
10
15.790773999999999
20
-9.0832219999999992
11
15.9436559999999989
21
-9.0832219999999992
0
LINE
8
LYELLOW
6
CONTINUOUS
10
15.9436559999999989
20
-9.0832219999999992
11
16.0200969999999998
21
-9.0450020000000002
0
LINE
8
LYELLOW
6
CONTINUOUS
10
16.0200969999999998
20
-9.0450020000000002
11
16.0583169999999988
21
-9.0067810000000001
0
LINE
8
LYELLOW
6
CONTINUOUS
10
16.0583169999999988
20
-9.0067810000000001
11
16.0965379999999989
21
-8.9303399999999993
0
LINE
8
LYELLOW
6
CONTINUOUS
10
16.0965379999999989
20
-8.9303399999999993
11
16.0965379999999989
21
-8.2805920000000004
0
LINE
8
LYELLOW
6
CONTINUOUS
10
16.4405210000000004
20
-8.3570329999999995
11
16.4787420000000004
21
-8.3188119999999994
0
LINE
8
LYELLOW
6
CONTINUOUS
10
16.4787420000000004
20
-8.3188119999999994
11
16.5551829999999995
21
-8.2805920000000004
0
LINE
8
LYELLOW
6
CONTINUOUS
10
16.5551829999999995
20
-8.2805920000000004
11
16.7462850000000003
21
-8.2805920000000004
0
LINE
8
LYELLOW
6
CONTINUOUS
10
16.7462850000000003
20
-8.2805920000000004
11
16.8227259999999994
21
-8.3188119999999994
0
LINE
8
LYELLOW
6
CONTINUOUS
10
16.8227259999999994
20
-8.3188119999999994
11
16.8609469999999995
21
-8.3570329999999995
0
LINE
8
LYELLOW
6
CONTINUOUS
10
16.8609469999999995
20
-8.3570329999999995
11
16.8991669999999985
21
-8.4334740000000004
0
LINE
8
LYELLOW
6
CONTINUOUS
10
16.8991669999999985
20
-8.4334740000000004
11
16.8991669999999985
21
-8.5099149999999995
0
LINE
8
LYELLOW
6
CONTINUOUS
10
16.8991669999999985
20
-8.5099149999999995
11
16.8609469999999995
21
-8.6245759999999994
0
LINE
8
LYELLOW
6
CONTINUOUS
10
16.8609469999999995
20
-8.6245759999999994
11
16.4023009999999978
21
-9.0832219999999992
0
LINE
8
LYELLOW
6
CONTINUOUS
10
16.4023009999999978
20
-9.0832219999999992
11
16.8991669999999985
21
-9.0832219999999992
0
LINE
8
LYELLOW
6
CONTINUOUS
10
10.5333329999999989
20
-9.8895799999999987
11
10.4857139999999998
21
-9.9371999999999989
0
LINE
8
LYELLOW
6
CONTINUOUS
10
10.4857139999999998
20
-9.9371999999999989
11
10.3428570000000004
21
-9.9848189999999999
0
LINE
8
LYELLOW
6
CONTINUOUS
10
10.3428570000000004
20
-9.9848189999999999
11
10.2476190000000003
21
-9.9848189999999999
0
LINE
8
LYELLOW
6
CONTINUOUS
10
10.2476190000000003
20
-9.9848189999999999
11
10.1047619999999991
21
-9.9371999999999989
0
LINE
8
LYELLOW
6
CONTINUOUS
10
10.1047619999999991
20
-9.9371999999999989
11
10.009523999999999
21
-9.8419609999999995
0
LINE
8
LYELLOW
6
CONTINUOUS
10
10.009523999999999
20
-9.8419609999999995
11
9.9619049999999998
21
-9.7467229999999994
0
LINE
8
LYELLOW
6
CONTINUOUS
10
9.9619049999999998
20
-9.7467229999999994
11
9.9142859999999988
21
-9.556246999999999
0
LINE
8
LYELLOW
6
CONTINUOUS
10
9.9142859999999988
20
-9.556246999999999
11
9.9142859999999988
21
-9.4133899999999997
0
LINE
8
LYELLOW
6
CONTINUOUS
10
9.9142859999999988
20
-9.4133899999999997
11
9.9619049999999998
21
-9.2229139999999994
0
LINE
8
LYELLOW
6
CONTINUOUS
10
9.9619049999999998
20
-9.2229139999999994
11
10.009523999999999
21
-9.1276759999999992
0
LINE
8
LYELLOW
6
CONTINUOUS
10
10.009523999999999
20
-9.1276759999999992
11
10.1047619999999991
21
-9.0324379999999991
0
LINE
8
LYELLOW
6
CONTINUOUS
10
10.1047619999999991
20
-9.0324379999999991
11
10.2476190000000003
21
-8.9848189999999999
0
LINE
8
LYELLOW
6
CONTINUOUS
10
10.2476190000000003
20
-8.9848189999999999
11
10.3428570000000004
21
-8.9848189999999999
0
LINE
8
LYELLOW
6
CONTINUOUS
10
10.3428570000000004
20
-8.9848189999999999
11
10.4857139999999998
21
-9.0324379999999991
0
LINE
8
LYELLOW
6
CONTINUOUS
10
10.4857139999999998
20
-9.0324379999999991
11
10.5333329999999989
21
-9.080057
0
LINE
8
LYELLOW
6
CONTINUOUS
10
11.4857139999999998
20
-9.9848189999999999
11
10.9142859999999988
21
-9.9848189999999999
0
LINE
8
LYELLOW
6
CONTINUOUS
10
11.1999999999999993
20
-9.9848189999999999
11
11.1999999999999993
21
-8.9848189999999999
0
LINE
8
LYELLOW
6
CONTINUOUS
10
11.1999999999999993
20
-8.9848189999999999
11
11.1047619999999991
21
-9.1276759999999992
0
LINE
8
LYELLOW
6
CONTINUOUS
10
11.1047619999999991
20
-9.1276759999999992
11
11.009523999999999
21
-9.2229139999999994
0
LINE
8
LYELLOW
6
CONTINUOUS
10
11.009523999999999
20
-9.2229139999999994
11
10.9142859999999988
21
-9.2705330000000004
0
LINE
8
LYELLOW
6
CONTINUOUS
10
8.7548189999999995
20
-22.5333329999999989
11
9.4691039999999997
21
-22.5333329999999989
0
LINE
8
LYELLOW
6
CONTINUOUS
10
9.4691039999999997
20
-22.5333329999999989
11
9.6119609999999991
21
-22.5809519999999999
0
LINE
8
LYELLOW
6
CONTINUOUS
10
9.6119609999999991
20
-22.5809519999999999
11
9.7072000000000003
21
-22.6761899999999983
0
LINE
8
LYELLOW
6
CONTINUOUS
10
9.7072000000000003
20
-22.6761899999999983
11
9.7548189999999995
21
-22.8190469999999976
0
LINE
8
LYELLOW
6
CONTINUOUS
10
9.7548189999999995
20
-22.8190469999999976
11
9.7548189999999995
21
-22.9142849999999996
0
LINE
8
LYELLOW
6
CONTINUOUS
10
8.7548189999999995
20
-21.5809519999999999
11
8.7548189999999995
21
-22.0571419999999989
0
LINE
8
LYELLOW
6
CONTINUOUS
10
8.7548189999999995
20
-22.0571419999999989
11
9.2310090000000002
21
-22.1047609999999999
0
LINE
8
LYELLOW
6
CONTINUOUS
10
9.2310090000000002
20
-22.1047609999999999
11
9.1833899999999993
21
-22.0571419999999989
0
LINE
8
LYELLOW
6
CONTINUOUS
10
9.1833899999999993
20
-22.0571419999999989
11
9.1357710000000001
21
-21.9619040000000005
0
LINE
8
LYELLOW
6
CONTINUOUS
10
9.1357710000000001
20
-21.9619040000000005
11
9.1357710000000001
21
-21.7238089999999993
0
LINE
8
LYELLOW
6
CONTINUOUS
10
9.1357710000000001
20
-21.7238089999999993
11
9.1833899999999993
21
-21.6285709999999973
0
LINE
8
LYELLOW
6
CONTINUOUS
10
9.1833899999999993
20
-21.6285709999999973
11
9.2310090000000002
21
-21.5809519999999999
0
LINE
8
LYELLOW
6
CONTINUOUS
10
9.2310090000000002
20
-21.5809519999999999
11
9.3262470000000004
21
-21.5333329999999989
0
LINE
8
LYELLOW
6
CONTINUOUS
10
9.3262470000000004
20
-21.5333329999999989
11
9.5643419999999999
21
-21.5333329999999989
0
LINE
8
LYELLOW
6
CONTINUOUS
10
9.5643419999999999
20
-21.5333329999999989
11
9.6595800000000001
21
-21.5809519999999999
0
LINE
8
LYELLOW
6
CONTINUOUS
10
9.6595800000000001
20
-21.5809519999999999
11
9.7072000000000003
21
-21.6285709999999973
0
LINE
8
LYELLOW
6
CONTINUOUS
10
9.7072000000000003
20
-21.6285709999999973
11
9.7548189999999995
21
-21.7238089999999993
0
LINE
8
LYELLOW
6
CONTINUOUS
10
9.7548189999999995
20
-21.7238089999999993
11
9.7548189999999995
21
-21.9619040000000005
0
LINE
8
LYELLOW
6
CONTINUOUS
10
9.7548189999999995
20
-21.9619040000000005
11
9.7072000000000003
21
-22.0571419999999989
0
LINE
8
LYELLOW
6
CONTINUOUS
10
9.7072000000000003
20
-22.0571419999999989
11
9.6595800000000001
21
-22.1047609999999999
0
LINE
8
LYELLOW
6
CONTINUOUS
10
20.7571429999999992
20
-11.9148189999999996
11
21.0904759999999989
21
-12.9148189999999996
0
LINE
8
LYELLOW
6
CONTINUOUS
10
21.0904759999999989
20
-12.9148189999999996
11
21.4238089999999985
21
-11.9148189999999996
0
LINE
8
LYELLOW
6
CONTINUOUS
10
21.7095239999999983
20
-12.8671999999999986
11
21.8523809999999976
21
-12.9148189999999996
0
LINE
8
LYELLOW
6
CONTINUOUS
10
21.8523809999999976
20
-12.9148189999999996
11
22.0904759999999989
21
-12.9148189999999996
0
LINE
8
LYELLOW
6
CONTINUOUS
10
22.0904759999999989
20
-12.9148189999999996
11
22.1857139999999973
21
-12.8671999999999986
0
LINE
8
LYELLOW
6
CONTINUOUS
10
22.1857139999999973
20
-12.8671999999999986
11
22.2333329999999982
21
-12.8195800000000002
0
LINE
8
LYELLOW
6
CONTINUOUS
10
22.2333329999999982
20
-12.8195800000000002
11
22.2809519999999992
21
-12.724342
0
LINE
8
LYELLOW
6
CONTINUOUS
10
22.2809519999999992
20
-12.724342
11
22.2809519999999992
21
-12.6291039999999999
0
LINE
8
LYELLOW
6
CONTINUOUS
10
22.2809519999999992
20
-12.6291039999999999
11
22.2333329999999982
21
-12.5338659999999997
0
LINE
8
LYELLOW
6
CONTINUOUS
10
22.2333329999999982
20
-12.5338659999999997
11
22.1857139999999973
21
-12.4862469999999988
0
LINE
8
LYELLOW
6
CONTINUOUS
10
22.1857139999999973
20
-12.4862469999999988
11
22.0904759999999989
21
-12.4386279999999996
0
LINE
8
LYELLOW
6
CONTINUOUS
10
22.0904759999999989
20
-12.4386279999999996
11
21.8999999999999986
21
-12.3910089999999986
0
LINE
8
LYELLOW
6
CONTINUOUS
10
21.8999999999999986
20
-12.3910089999999986
11
21.8047620000000002
21
-12.3433899999999994
0
LINE
8
LYELLOW
6
CONTINUOUS
10
21.8047620000000002
20
-12.3433899999999994
11
21.7571429999999992
21
-12.2957710000000002
0
LINE
8
LYELLOW
6
CONTINUOUS
10
21.7571429999999992
20
-12.2957710000000002
11
21.7095239999999983
21
-12.2005330000000001
0
LINE
8
LYELLOW
6
CONTINUOUS
10
21.7095239999999983
20
-12.2005330000000001
11
21.7095239999999983
21
-12.1052949999999999
0
LINE
8
LYELLOW
6
CONTINUOUS
10
21.7095239999999983
20
-12.1052949999999999
11
21.7571429999999992
21
-12.0100569999999998
0
LINE
8
LYELLOW
6
CONTINUOUS
10
21.7571429999999992
20
-12.0100569999999998
11
21.8047620000000002
21
-11.9624379999999988
0
LINE
8
LYELLOW
6
CONTINUOUS
10
21.8047620000000002
20
-11.9624379999999988
11
21.8999999999999986
21
-11.9148189999999996
0
LINE
8
LYELLOW
6
CONTINUOUS
10
21.8999999999999986
20
-11.9148189999999996
11
22.1380949999999999
21
-11.9148189999999996
0
LINE
8
LYELLOW
6
CONTINUOUS
10
22.1380949999999999
20
-11.9148189999999996
11
22.2809519999999992
21
-11.9624379999999988
0
LINE
8
LYELLOW
6
CONTINUOUS
10
22.7095239999999983
20
-12.3910089999999986
11
23.0428569999999979
21
-12.3910089999999986
0
LINE
8
LYELLOW
6
CONTINUOUS
10
23.1857139999999973
20
-12.9148189999999996
11
22.7095239999999983
21
-12.9148189999999996
0
LINE
8
LYELLOW
6
CONTINUOUS
10
22.7095239999999983
20
-12.9148189999999996
11
22.7095239999999983
21
-11.9148189999999996
0
LINE
8
LYELLOW
6
CONTINUOUS
10
22.7095239999999983
20
-11.9148189999999996
11
23.1857139999999973
21
-11.9148189999999996
0
LINE
8
LYELLOW
6
CONTINUOUS
10
24.0904759999999989
20
-12.9148189999999996
11
23.6142859999999999
21
-12.9148189999999996
0
LINE
8
LYELLOW
6
CONTINUOUS
10
23.6142859999999999
20
-12.9148189999999996
11
23.6142859999999999
21
-11.9148189999999996
0
LINE
8
LYELLOW
6
CONTINUOUS
10
24.9476189999999995
20
-12.9148189999999996
11
24.3761909999999986
21
-12.9148189999999996
0
LINE
8
LYELLOW
6
CONTINUOUS
10
24.6619049999999973
20
-12.9148189999999996
11
24.6619049999999973
21
-11.9148189999999996
0
LINE
8
LYELLOW
6
CONTINUOUS
10
24.6619049999999973
20
-11.9148189999999996
11
24.5666669999999989
21
-12.057675999999999
0
LINE
8
LYELLOW
6
CONTINUOUS
10
24.5666669999999989
20
-12.057675999999999
11
24.4714290000000005
21
-12.1529139999999991
0
LINE
8
LYELLOW
6
CONTINUOUS
10
24.4714290000000005
20
-12.1529139999999991
11
24.3761909999999986
21
-12.2005330000000001
0
LINE
8
LYELLOW
6
CONTINUOUS
10
4.9166660000000002
20
-4.7048189999999996
11
4.9166660000000002
21
-5.4191039999999999
0
LINE
8
LYELLOW
6
CONTINUOUS
10
4.9166660000000002
20
-5.4191039999999999
11
4.8690470000000001
21
-5.5619610000000002
0
LINE
8
LYELLOW
6
CONTINUOUS
10
4.8690470000000001
20
-5.5619610000000002
11
4.773809
21
-5.6571999999999996
0
LINE
8
LYELLOW
6
CONTINUOUS
10
4.773809
20
-5.6571999999999996
11
4.6309519999999997
21
-5.7048189999999996
0
LINE
8
LYELLOW
6
CONTINUOUS
10
4.6309519999999997
20
-5.7048189999999996
11
4.5357139999999996
21
-5.7048189999999996
0
LINE
8
LYELLOW
6
CONTINUOUS
10
5.9166659999999993
20
-5.7048189999999996
11
5.3452380000000002
21
-5.7048189999999996
0
LINE
8
LYELLOW
6
CONTINUOUS
10
5.6309519999999997
20
-5.7048189999999996
11
5.6309519999999997
21
-4.7048189999999996
0
LINE
8
LYELLOW
6
CONTINUOUS
10
5.6309519999999997
20
-4.7048189999999996
11
5.5357139999999996
21
-4.8476759999999999
0
LINE
8
LYELLOW
6
CONTINUOUS
10
5.5357139999999996
20
-4.8476759999999999
11
5.4404759999999994
21
-4.942914
0
LINE
8
LYELLOW
6
CONTINUOUS
10
5.4404759999999994
20
-4.942914
11
5.3452380000000002
21
-4.9905330000000001
0
LINE
8
LYELLOW
6
CONTINUOUS
10
51.9166659999999993
20
-18.9548190000000005
11
51.9166659999999993
21
-19.6691040000000008
0
LINE
8
LYELLOW
6
CONTINUOUS
10
51.9166659999999993
20
-19.6691040000000008
11
51.8690469999999948
21
-19.8119610000000002
0
LINE
8
LYELLOW
6
CONTINUOUS
10
51.8690469999999948
20
-19.8119610000000002
11
51.773809
21
-19.9071999999999996
0
LINE
8
LYELLOW
6
CONTINUOUS
10
51.773809
20
-19.9071999999999996
11
51.6309520000000006
21
-19.9548190000000005
0
LINE
8
LYELLOW
6
CONTINUOUS
10
51.6309520000000006
20
-19.9548190000000005
11
51.5357139999999987
21
-19.9548190000000005
0
LINE
8
LYELLOW
6
CONTINUOUS
10
52.8214279999999974
20
-19.2881520000000002
11
52.8214279999999974
21
-19.9548190000000005
0
LINE
8
LYELLOW
6
CONTINUOUS
10
52.5833329999999961
20
-18.9071999999999996
11
52.3452379999999948
21
-19.6214849999999998
0
LINE
8
LYELLOW
6
CONTINUOUS
10
52.3452379999999948
20
-19.6214849999999998
11
52.9642849999999967
21
-19.6214849999999998
0
LINE
8
LYELLOW
6
CONTINUOUS
10
10.5333329999999989
20
-6.9895800000000001
11
10.4857139999999998
21
-7.0371999999999995
0
LINE
8
LYELLOW
6
CONTINUOUS
10
10.4857139999999998
20
-7.0371999999999995
11
10.3428570000000004
21
-7.0848189999999995
0
LINE
8
LYELLOW
6
CONTINUOUS
10
10.3428570000000004
20
-7.0848189999999995
11
10.2476190000000003
21
-7.0848189999999995
0
LINE
8
LYELLOW
6
CONTINUOUS
10
10.2476190000000003
20
-7.0848189999999995
11
10.1047619999999991
21
-7.0371999999999995
0
LINE
8
LYELLOW
6
CONTINUOUS
10
10.1047619999999991
20
-7.0371999999999995
11
10.009523999999999
21
-6.941961
0
LINE
8
LYELLOW
6
CONTINUOUS
10
10.009523999999999
20
-6.941961
11
9.9619049999999998
21
-6.8467229999999999
0
LINE
8
LYELLOW
6
CONTINUOUS
10
9.9619049999999998
20
-6.8467229999999999
11
9.9142859999999988
21
-6.6562469999999996
0
LINE
8
LYELLOW
6
CONTINUOUS
10
9.9142859999999988
20
-6.6562469999999996
11
9.9142859999999988
21
-6.5133899999999993
0
LINE
8
LYELLOW
6
CONTINUOUS
10
9.9142859999999988
20
-6.5133899999999993
11
9.9619049999999998
21
-6.3229139999999999
0
LINE
8
LYELLOW
6
CONTINUOUS
10
9.9619049999999998
20
-6.3229139999999999
11
10.009523999999999
21
-6.2276759999999998
0
LINE
8
LYELLOW
6
CONTINUOUS
10
10.009523999999999
20
-6.2276759999999998
11
10.1047619999999991
21
-6.1324379999999996
0
LINE
8
LYELLOW
6
CONTINUOUS
10
10.1047619999999991
20
-6.1324379999999996
11
10.2476190000000003
21
-6.0848189999999995
0
LINE
8
LYELLOW
6
CONTINUOUS
10
10.2476190000000003
20
-6.0848189999999995
11
10.3428570000000004
21
-6.0848189999999995
0
LINE
8
LYELLOW
6
CONTINUOUS
10
10.3428570000000004
20
-6.0848189999999995
11
10.4857139999999998
21
-6.1324379999999996
0
LINE
8
LYELLOW
6
CONTINUOUS
10
10.4857139999999998
20
-6.1324379999999996
11
10.5333329999999989
21
-6.1800569999999997
0
LINE
8
LYELLOW
6
CONTINUOUS
10
10.9142859999999988
20
-6.1800569999999997
11
10.9619049999999998
21
-6.1324379999999996
0
LINE
8
LYELLOW
6
CONTINUOUS
10
10.9619049999999998
20
-6.1324379999999996
11
11.0571429999999999
21
-6.0848189999999995
0
LINE
8
LYELLOW
6
CONTINUOUS
10
11.0571429999999999
20
-6.0848189999999995
11
11.2952379999999994
21
-6.0848189999999995
0
LINE
8
LYELLOW
6
CONTINUOUS
10
11.2952379999999994
20
-6.0848189999999995
11
11.3904759999999996
21
-6.1324379999999996
0
LINE
8
LYELLOW
6
CONTINUOUS
10
11.3904759999999996
20
-6.1324379999999996
11
11.4380949999999988
21
-6.1800569999999997
0
LINE
8
LYELLOW
6
CONTINUOUS
10
11.4380949999999988
20
-6.1800569999999997
11
11.4857139999999998
21
-6.2752949999999998
0
LINE
8
LYELLOW
6
CONTINUOUS
10
11.4857139999999998
20
-6.2752949999999998
11
11.4857139999999998
21
-6.370533
0
LINE
8
LYELLOW
6
CONTINUOUS
10
11.4857139999999998
20
-6.370533
11
11.4380949999999988
21
-6.5133899999999993
0
LINE
8
LYELLOW
6
CONTINUOUS
10
11.4380949999999988
20
-6.5133899999999993
11
10.8666669999999996
21
-7.0848189999999995
0
LINE
8
LYELLOW
6
CONTINUOUS
10
10.8666669999999996
20
-7.0848189999999995
11
11.4857139999999998
21
-7.0848189999999995
0
LINE
8
LYELLOW
6
CONTINUOUS
10
23.3666659999999986
20
-20.0548189999999984
11
23.3666659999999986
21
-20.7691039999999987
0
LINE
8
LYELLOW
6
CONTINUOUS
10
23.3666659999999986
20
-20.7691039999999987
11
23.3190469999999976
21
-20.911960999999998
0
LINE
8
LYELLOW
6
CONTINUOUS
10
23.3190469999999976
20
-20.911960999999998
11
23.2238089999999993
21
-21.0071999999999974
0
LINE
8
LYELLOW
6
CONTINUOUS
10
23.2238089999999993
20
-21.0071999999999974
11
23.0809519999999999
21
-21.0548189999999984
0
LINE
8
LYELLOW
6
CONTINUOUS
10
23.0809519999999999
20
-21.0548189999999984
11
22.985713999999998
21
-21.0548189999999984
0
LINE
8
LYELLOW
6
CONTINUOUS
10
23.7952379999999977
20
-20.1500570000000003
11
23.8428569999999986
21
-20.1024379999999994
0
LINE
8
LYELLOW
6
CONTINUOUS
10
23.8428569999999986
20
-20.1024379999999994
11
23.9380950000000006
21
-20.0548189999999984
0
LINE
8
LYELLOW
6
CONTINUOUS
10
23.9380950000000006
20
-20.0548189999999984
11
24.1761899999999983
21
-20.0548189999999984
0
LINE
8
LYELLOW
6
CONTINUOUS
10
24.1761899999999983
20
-20.0548189999999984
11
24.2714280000000002
21
-20.1024379999999994
0
LINE
8
LYELLOW
6
CONTINUOUS
10
24.2714280000000002
20
-20.1024379999999994
11
24.3190469999999976
21
-20.1500570000000003
0
LINE
8
LYELLOW
6
CONTINUOUS
10
24.3190469999999976
20
-20.1500570000000003
11
24.3666659999999986
21
-20.2452949999999987
0
LINE
8
LYELLOW
6
CONTINUOUS
10
24.3666659999999986
20
-20.2452949999999987
11
24.3666659999999986
21
-20.3405330000000006
0
LINE
8
LYELLOW
6
CONTINUOUS
10
24.3666659999999986
20
-20.3405330000000006
11
24.3190469999999976
21
-20.48339
0
LINE
8
LYELLOW
6
CONTINUOUS
10
24.3190469999999976
20
-20.48339
11
23.7476190000000003
21
-21.0548189999999984
0
LINE
8
LYELLOW
6
CONTINUOUS
10
23.7476190000000003
20
-21.0548189999999984
11
24.3666659999999986
21
-21.0548189999999984
0
LINE
8
LYELLOW
6
CONTINUOUS
10
29.014999999999997
20
-6.75
11
29.014999999999997
21
-9.0999999999999996
0
LINE
8
LYELLOW
6
CONTINUOUS
10
29.014999999999997
20
-6.75
11
47.0150000000000006
21
-6.75
0
LINE
8
LYELLOW
6
CONTINUOUS
10
29.014999999999997
20
-29.1499999999999986
11
29.014999999999997
21
-29.4499999999999993
0
LINE
8
LYELLOW
6
CONTINUOUS
10
29.014999999999997
20
-29.4499999999999993
11
33.5150000000000006
21
-29.4499999999999993
0
LINE
8
LYELLOW
6
CONTINUOUS
10
33.5150000000000006
20
-30.75
11
33.5150000000000006
21
-29.4499999999999993
0
LINE
8
LYELLOW
6
CONTINUOUS
10
33.5150000000000006
20
-30.75
11
42.5150000000000006
21
-30.75
0
LINE
8
LYELLOW
6
CONTINUOUS
10
42.5150000000000006
20
-29.4499999999999993
11
47.0150000000000006
21
-29.4499999999999993
0
LINE
8
LYELLOW
6
CONTINUOUS
10
42.5150000000000006
20
-30.75
11
42.5150000000000006
21
-29.4499999999999993
0
LINE
8
LYELLOW
6
CONTINUOUS
10
47.0150000000000006
20
-6.75
11
47.0150000000000006
21
-9.0999999999999996
0
LINE
8
LYELLOW
6
CONTINUOUS
10
47.0150000000000006
20
-29.1499999999999986
11
47.0150000000000006
21
-29.4499999999999993
0
LINE
8
LYELLOW
6
CONTINUOUS
10
9.8399999999999999
20
-16.4199999999999982
11
9.8399999999999999
21
-19.1799999999999997
0
LINE
8
LYELLOW
6
CONTINUOUS
10
15.0299999999999994
20
-16.4199999999999982
11
9.8399999999999999
21
-16.4199999999999982
0
LINE
8
LYELLOW
6
CONTINUOUS
10
15.0299999999999994
20
-16.4199999999999982
11
15.0299999999999994
21
-19.1799999999999997
0
LINE
8
LYELLOW
6
CONTINUOUS
10
15.0299999999999994
20
-19.1799999999999997
11
9.8399999999999999
21
-19.1799999999999997
0
LINE
8
LYELLOW
6
CONTINUOUS
10
16.3000000000000007
20
-16.4199999999999982
11
17.6799999999999997
21
-16.4199999999999982
0
LINE
8
LYELLOW
6
CONTINUOUS
10
17.6799999999999997
20
-16.4199999999999982
11
17.6799999999999997
21
-17.8000000000000007
0
LINE
8
LYELLOW
6
CONTINUOUS
10
14.7349999999999994
20
-9.6999999999999993
11
14.7349999999999994
21
-9.7999999999999989
0
LINE
8
LYELLOW
6
CONTINUOUS
10
14.7349999999999994
20
-12.7999999999999989
11
14.7349999999999994
21
-12.6999999999999993
0
LINE
8
LYELLOW
6
CONTINUOUS
10
16.4349999999999987
20
-9.6999999999999993
11
14.7349999999999994
21
-9.6999999999999993
0
LINE
8
LYELLOW
6
CONTINUOUS
10
16.4349999999999987
20
-9.6999999999999993
11
16.4349999999999987
21
-9.7999999999999989
0
LINE
8
LYELLOW
6
CONTINUOUS
10
16.4349999999999987
20
-12.7999999999999989
11
14.7349999999999994
21
-12.7999999999999989
0
LINE
8
LYELLOW
6
CONTINUOUS
10
16.4349999999999987
20
-12.7999999999999989
11
16.4349999999999987
21
-12.6999999999999993
0
CIRCLE
8
LYELLOW
10
13.1159999999999997
20
-10.2999999999999989
40
0.1
0
LINE
8
LYELLOW
6
CONTINUOUS
10
10.8405799999999992
20
-7.5899999999999999
11
10.5594199999999994
21
-7.5899999999999999
0
LINE
8
LYELLOW
6
CONTINUOUS
10
10.8405799999999992
20
-8.6099999999999994
11
10.5594199999999994
21
-8.6099999999999994
0
LINE
8
LYELLOW
6
CONTINUOUS
10
2.9899999999999998
20
-17.1149999999999984
11
2.9899999999999998
21
-19.4399999999999977
0
LINE
8
LYELLOW
6
CONTINUOUS
10
2.9899999999999998
20
-19.4399999999999977
11
0.6
21
-19.4399999999999977
0
LINE
8
LYELLOW
6
CONTINUOUS
10
2.9899999999999998
20
-27.2850000000000001
11
2.9899999999999998
21
-24.9599999999999973
0
LINE
8
LYELLOW
6
CONTINUOUS
10
3.8399999999999999
20
-17.1149999999999984
11
2.9899999999999998
21
-17.1149999999999984
0
LINE
8
LYELLOW
6
CONTINUOUS
10
3.8399999999999999
20
-27.2850000000000001
11
2.9899999999999998
21
-27.2850000000000001
0
LINE
8
LYELLOW
6
CONTINUOUS
10
7.3599999999999994
20
-17.1149999999999984
11
8.2099999999999991
21
-17.1149999999999984
0
LINE
8
LYELLOW
6
CONTINUOUS
10
8.2099999999999991
20
-17.1149999999999984
11
8.2099999999999991
21
-27.2850000000000001
0
LINE
8
LYELLOW
6
CONTINUOUS
10
8.2099999999999991
20
-27.2850000000000001
11
7.3599999999999994
21
-27.2850000000000001
0
LINE
8
LYELLOW
6
CONTINUOUS
10
21.5199999999999996
20
-8.8099999999999987
11
21.5199999999999996
21
-3.6199999999999997
0
LINE
8
LYELLOW
6
CONTINUOUS
10
24.2799999999999976
20
-3.6199999999999997
11
21.5199999999999996
21
-3.6199999999999997
0
LINE
8
LYELLOW
6
CONTINUOUS
10
24.2799999999999976
20
-8.8099999999999987
11
21.5199999999999996
21
-8.8099999999999987
0
LINE
8
LYELLOW
6
CONTINUOUS
10
24.2799999999999976
20
-8.8099999999999987
11
24.2799999999999976
21
-3.6199999999999997
0
LINE
8
LYELLOW
6
CONTINUOUS
10
24.2799999999999976
20
-10.0800000000000001
11
24.2799999999999976
21
-11.4599999999999991
0
LINE
8
LYELLOW
6
CONTINUOUS
10
24.2799999999999976
20
-11.4599999999999991
11
22.8999999999999986
21
-11.4599999999999991
0
LINE
8
LYELLOW
6
CONTINUOUS
10
2.8899999999999997
20
-6.915
11
2.8899999999999997
21
-9.2400000000000002
0
LINE
8
LYELLOW
6
CONTINUOUS
10
2.8899999999999997
20
-9.2400000000000002
11
0.5
21
-9.2400000000000002
0
LINE
8
LYELLOW
6
CONTINUOUS
10
2.8899999999999997
20
-15.0849999999999991
11
2.8899999999999997
21
-12.7599999999999998
0
LINE
8
LYELLOW
6
CONTINUOUS
10
3.7399999999999998
20
-6.915
11
2.8899999999999997
21
-6.915
0
LINE
8
LYELLOW
6
CONTINUOUS
10
3.7399999999999998
20
-15.0849999999999991
11
2.8899999999999997
21
-15.0849999999999991
0
LINE
8
LYELLOW
6
CONTINUOUS
10
7.2599999999999998
20
-6.915
11
8.1099999999999994
21
-6.915
0
LINE
8
LYELLOW
6
CONTINUOUS
10
8.1099999999999994
20
-6.915
11
8.1099999999999994
21
-15.0849999999999991
0
LINE
8
LYELLOW
6
CONTINUOUS
10
8.1099999999999994
20
-15.0849999999999991
11
7.2599999999999998
21
-15.0849999999999991
0
LINE
8
LYELLOW
6
CONTINUOUS
10
50.8699999999999974
20
-15.8499999999999996
11
50.8699999999999974
21
-8.1199999999999992
0
LINE
8
LYELLOW
6
CONTINUOUS
10
53.6299999999999955
20
-8.1199999999999992
11
50.8699999999999974
21
-8.1199999999999992
0
LINE
8
LYELLOW
6
CONTINUOUS
10
53.6299999999999955
20
-15.8499999999999996
11
50.8699999999999974
21
-15.8499999999999996
0
LINE
8
LYELLOW
6
CONTINUOUS
10
53.6299999999999955
20
-15.8499999999999996
11
53.6299999999999955
21
-8.1199999999999992
0
LINE
8
LYELLOW
6
CONTINUOUS
10
53.6299999999999955
20
-17.120000000000001
11
53.6299999999999955
21
-18.5
0
LINE
8
LYELLOW
6
CONTINUOUS
10
53.6299999999999955
20
-18.5
11
52.25
21
-18.5
0
LINE
8
LYELLOW
6
CONTINUOUS
10
10.8405799999999992
20
-4.6899999999999995
11
10.5594199999999994
21
-4.6899999999999995
0
LINE
8
LYELLOW
6
CONTINUOUS
10
10.8405799999999992
20
-5.71
11
10.5594199999999994
21
-5.71
0
LINE
8
LYELLOW
6
CONTINUOUS
10
22.4199999999999982
20
-21.8200000000000003
11
23.7999999999999972
21
-21.8200000000000003
0
LINE
8
LYELLOW
6
CONTINUOUS
10
22.4199999999999982
20
-23.1999999999999993
11
22.4199999999999982
21
-21.8200000000000003
0
LINE
8
LYELLOW
6
CONTINUOUS
10
22.4199999999999982
20
-24.4699999999999989
11
22.4199999999999982
21
-29.6600000000000001
0
LINE
8
LYELLOW
6
CONTINUOUS
10
22.4199999999999982
20
-24.4699999999999989
11
25.1799999999999997
21
-24.4699999999999989
0
LINE
8
LYELLOW
6
CONTINUOUS
10
22.4199999999999982
20
-29.6600000000000001
11
25.1799999999999997
21
-29.6600000000000001
0
LINE
8
LYELLOW
6
CONTINUOUS
10
25.1799999999999997
20
-24.4699999999999989
11
25.1799999999999997
21
-29.6600000000000001
0
CIRCLE
8
BLACK
10
16.3000000000000007
20
-17.8000000000000007
40
0.0635
0
CIRCLE
8
BLACK
10
13.7599999999999998
20
-17.8000000000000007
40
0.0635
0
CIRCLE
8
BLACK
10
11.2199999999999989
20
-17.8000000000000007
40
0.0635
0
CIRCLE
8
BLACK
10
22.8999999999999986
20
-10.0800000000000001
40
0.127
0
CIRCLE
8
BLACK
10
22.8999999999999986
20
-7.54
40
0.127
0
CIRCLE
8
BLACK
10
22.8999999999999986
20
-5.
40
0.127
0
CIRCLE
8
BLACK
10
52.25
20
-17.120000000000001
40
0.0635
0
CIRCLE
8
BLACK
10
52.25
20
-14.5800000000000001
40
0.0635
0
CIRCLE
8
BLACK
10
52.25
20
-12.0399999999999991
40
0.0635
0
CIRCLE
8
BLACK
10
52.25
20
-9.5
40
0.0635
0
CIRCLE
8
BLACK
10
23.7999999999999972
20
-23.1999999999999993
40
0.0635
0
CIRCLE
8
BLACK
10
23.7999999999999972
20
-25.7399999999999984
40
0.0635
0
CIRCLE
8
BLACK
10
23.7999999999999972
20
-28.2799999999999976
40
0.0635
  0
ENDSEC
  0
EOF
