  0
SECTION
  2
HEADER
  9
$ANGBASE
  50
0.0
  9
$ANGDIR
  70
1
  9
$MEASUREMENT
  70
1
  0
ENDSEC
  0
SECTION
  2
TABLES
  0
TABLE
  2
LTYPE
  70
4
  0
LTYPE
  5
40F
  2
CONTINUOUS
  70
0
  3
Solid line
  72
65
  73
0
  40
0.0
  0
LTYPE
  5
410
  2
DASHDOT
 70
0
  3
Dash Dot ____ _ ____ _
 72
65
 73
4
 40
2.0
 49
1.25
 49
-0.25
 49
0.25
 49
-0.25
  0
LTYPE
  5
411
  2
DASHED
 70
0
  3
Dashed __ __ __ __ __
 72
65
 73
2
 40
0.75
 49
0.5
 49
-0.25
  0
LTYPE
  5
43B
  2
DOTTED
 70
0
  3
Dotted .  .  .  .
 72
65
 73
2
 40
0.2
 49
0.0
 49
-0.2
  0
ENDTAB
  0
TABLE
  2
STYLE
  70
4
  0
STYLE
  2
KICAD
  70
0
  40
0
  41
1
  42
1
  50
0
  71
0
  3
isocp.shx
  0
STYLE
  2
KICADB
  70
0
  40
0
  41
1
  42
1
  50
0
  71
0
  3
isocp.shx
  0
STYLE
  2
KICADI
  70
0
  40
0
  41
1
  42
1
  50
15
  71
0
  3
isocp.shx
  0
STYLE
  2
KICADBI
  70
0
  40
0
  41
1
  42
1
  50
15
  71
0
  3
isocp.shx
  0
ENDTAB
  0
TABLE
  2
LAYER
  70
35
  0
LAYER
  2
BLACK
  70
0
  62
7
  6
CONTINUOUS
  0
LAYER
  2
GRAY1
  70
0
  62
251
  6
CONTINUOUS
  0
LAYER
  2
GRAY2
  70
0
  62
8
  6
CONTINUOUS
  0
LAYER
  2
GRAY3
  70
0
  62
9
  6
CONTINUOUS
  0
LAYER
  2
WHITE
  70
0
  62
7
  6
CONTINUOUS
  0
LAYER
  2
LYELLOW
  70
0
  62
51
  6
CONTINUOUS
  0
LAYER
  2
LORANGE
  70
0
  62
41
  6
CONTINUOUS
  0
LAYER
  2
BLUE1
  70
0
  62
178
  6
CONTINUOUS
  0
LAYER
  2
GREEN1
  70
0
  62
98
  6
CONTINUOUS
  0
LAYER
  2
CYAN1
  70
0
  62
138
  6
CONTINUOUS
  0
LAYER
  2
RED1
  70
0
  62
18
  6
CONTINUOUS
  0
LAYER
  2
MAGENTA1
  70
0
  62
228
  6
CONTINUOUS
  0
LAYER
  2
BROWN1
  70
0
  62
58
  6
CONTINUOUS
  0
LAYER
  2
ORANGE1
  70
0
  62
34
  6
CONTINUOUS
  0
LAYER
  2
BLUE2
  70
0
  62
5
  6
CONTINUOUS
  0
LAYER
  2
GREEN2
  70
0
  62
3
  6
CONTINUOUS
  0
LAYER
  2
CYAN2
  70
0
  62
4
  6
CONTINUOUS
  0
LAYER
  2
RED2
  70
0
  62
1
  6
CONTINUOUS
  0
LAYER
  2
MAGENTA2
  70
0
  62
6
  6
CONTINUOUS
  0
LAYER
  2
BROWN2
  70
0
  62
54
  6
CONTINUOUS
  0
LAYER
  2
ORANGE2
  70
0
  62
42
  6
CONTINUOUS
  0
LAYER
  2
BLUE3
  70
0
  62
171
  6
CONTINUOUS
  0
LAYER
  2
GREEN3
  70
0
  62
91
  6
CONTINUOUS
  0
LAYER
  2
CYAN3
  70
0
  62
131
  6
CONTINUOUS
  0
LAYER
  2
RED3
  70
0
  62
11
  6
CONTINUOUS
  0
LAYER
  2
MAGENTA3
  70
0
  62
221
  6
CONTINUOUS
  0
LAYER
  2
YELLOW3
  70
0
  62
2
  6
CONTINUOUS
  0
LAYER
  2
ORANGE3
  70
0
  62
32
  6
CONTINUOUS
  0
LAYER
  2
BLUE4
  70
0
  62
5
  6
CONTINUOUS
  0
LAYER
  2
GREEN4
  70
0
  62
3
  6
CONTINUOUS
  0
LAYER
  2
CYAN4
  70
0
  62
4
  6
CONTINUOUS
  0
LAYER
  2
RED4
  70
0
  62
1
  6
CONTINUOUS
  0
LAYER
  2
MAGENTA4
  70
0
  62
6
  6
CONTINUOUS
  0
LAYER
  2
YELLOW4
  70
0
  62
2
  6
CONTINUOUS
  0
LAYER
  2
ORANGE4
  70
0
  62
40
  6
CONTINUOUS
  0
ENDTAB
  0
ENDSEC
  0
SECTION
  2
ENTITIES
0
LINE
8
LYELLOW
6
CONTINUOUS
10
36.8809520000000006
20
-20.4310089999999995
11
37.2142849999999967
21
-20.4310089999999995
0
LINE
8
LYELLOW
6
CONTINUOUS
10
37.3571419999999961
20
-20.9548190000000005
11
36.8809520000000006
21
-20.9548190000000005
0
LINE
8
LYELLOW
6
CONTINUOUS
10
36.8809520000000006
20
-20.9548190000000005
11
36.8809520000000006
21
-19.9548190000000005
0
LINE
8
LYELLOW
6
CONTINUOUS
10
36.8809520000000006
20
-19.9548190000000005
11
37.3571419999999961
21
-19.9548190000000005
0
LINE
8
LYELLOW
6
CONTINUOUS
10
37.7380950000000013
20
-20.9071999999999996
11
37.8809520000000006
21
-20.9548190000000005
0
LINE
8
LYELLOW
6
CONTINUOUS
10
37.8809520000000006
20
-20.9548190000000005
11
38.1190469999999948
21
-20.9548190000000005
0
LINE
8
LYELLOW
6
CONTINUOUS
10
38.1190469999999948
20
-20.9548190000000005
11
38.2142849999999967
21
-20.9071999999999996
0
LINE
8
LYELLOW
6
CONTINUOUS
10
38.2142849999999967
20
-20.9071999999999996
11
38.2619040000000012
21
-20.8595799999999976
0
LINE
8
LYELLOW
6
CONTINUOUS
10
38.2619040000000012
20
-20.8595799999999976
11
38.3095229999999987
21
-20.7643419999999992
0
LINE
8
LYELLOW
6
CONTINUOUS
10
38.3095229999999987
20
-20.7643419999999992
11
38.3095229999999987
21
-20.6691040000000008
0
LINE
8
LYELLOW
6
CONTINUOUS
10
38.3095229999999987
20
-20.6691040000000008
11
38.2619040000000012
21
-20.5738659999999989
0
LINE
8
LYELLOW
6
CONTINUOUS
10
38.2619040000000012
20
-20.5738659999999989
11
38.2142849999999967
21
-20.5262469999999979
0
LINE
8
LYELLOW
6
CONTINUOUS
10
38.2142849999999967
20
-20.5262469999999979
11
38.1190469999999948
21
-20.4786280000000005
0
LINE
8
LYELLOW
6
CONTINUOUS
10
38.1190469999999948
20
-20.4786280000000005
11
37.928570999999998
21
-20.4310089999999995
0
LINE
8
LYELLOW
6
CONTINUOUS
10
37.928570999999998
20
-20.4310089999999995
11
37.8333329999999961
21
-20.3833899999999986
0
LINE
8
LYELLOW
6
CONTINUOUS
10
37.8333329999999961
20
-20.3833899999999986
11
37.7857139999999987
21
-20.3357709999999976
0
LINE
8
LYELLOW
6
CONTINUOUS
10
37.7857139999999987
20
-20.3357709999999976
11
37.7380950000000013
21
-20.2405329999999992
0
LINE
8
LYELLOW
6
CONTINUOUS
10
37.7380950000000013
20
-20.2405329999999992
11
37.7380950000000013
21
-20.1452950000000008
0
LINE
8
LYELLOW
6
CONTINUOUS
10
37.7380950000000013
20
-20.1452950000000008
11
37.7857139999999987
21
-20.0500569999999989
0
LINE
8
LYELLOW
6
CONTINUOUS
10
37.7857139999999987
20
-20.0500569999999989
11
37.8333329999999961
21
-20.0024379999999979
0
LINE
8
LYELLOW
6
CONTINUOUS
10
37.8333329999999961
20
-20.0024379999999979
11
37.928570999999998
21
-19.9548190000000005
0
LINE
8
LYELLOW
6
CONTINUOUS
10
37.928570999999998
20
-19.9548190000000005
11
38.1666659999999993
21
-19.9548190000000005
0
LINE
8
LYELLOW
6
CONTINUOUS
10
38.1666659999999993
20
-19.9548190000000005
11
38.3095229999999987
21
-20.0024379999999979
0
LINE
8
LYELLOW
6
CONTINUOUS
10
38.7380950000000013
20
-20.9548190000000005
11
38.7380950000000013
21
-19.9548190000000005
0
LINE
8
LYELLOW
6
CONTINUOUS
10
38.7380950000000013
20
-19.9548190000000005
11
39.1190469999999948
21
-19.9548190000000005
0
LINE
8
LYELLOW
6
CONTINUOUS
10
39.1190469999999948
20
-19.9548190000000005
11
39.2142849999999967
21
-20.0024379999999979
0
LINE
8
LYELLOW
6
CONTINUOUS
10
39.2142849999999967
20
-20.0024379999999979
11
39.2619040000000012
21
-20.0500569999999989
0
LINE
8
LYELLOW
6
CONTINUOUS
10
39.2619040000000012
20
-20.0500569999999989
11
39.3095229999999987
21
-20.1452950000000008
0
LINE
8
LYELLOW
6
CONTINUOUS
10
39.3095229999999987
20
-20.1452950000000008
11
39.3095229999999987
21
-20.2881520000000002
0
LINE
8
LYELLOW
6
CONTINUOUS
10
39.3095229999999987
20
-20.2881520000000002
11
39.2619040000000012
21
-20.3833899999999986
0
LINE
8
LYELLOW
6
CONTINUOUS
10
39.2619040000000012
20
-20.3833899999999986
11
39.2142849999999967
21
-20.4310089999999995
0
LINE
8
LYELLOW
6
CONTINUOUS
10
39.2142849999999967
20
-20.4310089999999995
11
39.1190469999999948
21
-20.4786280000000005
0
LINE
8
LYELLOW
6
CONTINUOUS
10
39.1190469999999948
20
-20.4786280000000005
11
38.7380950000000013
21
-20.4786280000000005
0
LINE
8
LYELLOW
6
CONTINUOUS
10
39.6428569999999993
20
-19.9548190000000005
11
40.2619040000000012
21
-19.9548190000000005
0
LINE
8
LYELLOW
6
CONTINUOUS
10
40.2619040000000012
20
-19.9548190000000005
11
39.928570999999998
21
-20.3357709999999976
0
LINE
8
LYELLOW
6
CONTINUOUS
10
39.928570999999998
20
-20.3357709999999976
11
40.0714279999999974
21
-20.3357709999999976
0
LINE
8
LYELLOW
6
CONTINUOUS
10
40.0714279999999974
20
-20.3357709999999976
11
40.1666659999999993
21
-20.3833899999999986
0
LINE
8
LYELLOW
6
CONTINUOUS
10
40.1666659999999993
20
-20.3833899999999986
11
40.2142849999999967
21
-20.4310089999999995
0
LINE
8
LYELLOW
6
CONTINUOUS
10
40.2142849999999967
20
-20.4310089999999995
11
40.2619040000000012
21
-20.5262469999999979
0
LINE
8
LYELLOW
6
CONTINUOUS
10
40.2619040000000012
20
-20.5262469999999979
11
40.2619040000000012
21
-20.7643419999999992
0
LINE
8
LYELLOW
6
CONTINUOUS
10
40.2619040000000012
20
-20.7643419999999992
11
40.2142849999999967
21
-20.8595799999999976
0
LINE
8
LYELLOW
6
CONTINUOUS
10
40.2142849999999967
20
-20.8595799999999976
11
40.1666659999999993
21
-20.9071999999999996
0
LINE
8
LYELLOW
6
CONTINUOUS
10
40.1666659999999993
20
-20.9071999999999996
11
40.0714279999999974
21
-20.9548190000000005
0
LINE
8
LYELLOW
6
CONTINUOUS
10
40.0714279999999974
20
-20.9548190000000005
11
39.7857139999999987
21
-20.9548190000000005
0
LINE
8
LYELLOW
6
CONTINUOUS
10
39.7857139999999987
20
-20.9548190000000005
11
39.6904759999999968
21
-20.9071999999999996
0
LINE
8
LYELLOW
6
CONTINUOUS
10
39.6904759999999968
20
-20.9071999999999996
11
39.6428569999999993
21
-20.8595799999999976
0
LINE
8
LYELLOW
6
CONTINUOUS
10
40.6428569999999993
20
-20.0500569999999989
11
40.6904759999999968
21
-20.0024379999999979
0
LINE
8
LYELLOW
6
CONTINUOUS
10
40.6904759999999968
20
-20.0024379999999979
11
40.7857139999999987
21
-19.9548190000000005
0
LINE
8
LYELLOW
6
CONTINUOUS
10
40.7857139999999987
20
-19.9548190000000005
11
41.023809
21
-19.9548190000000005
0
LINE
8
LYELLOW
6
CONTINUOUS
10
41.023809
20
-19.9548190000000005
11
41.1190469999999948
21
-20.0024379999999979
0
LINE
8
LYELLOW
6
CONTINUOUS
10
41.1190469999999948
20
-20.0024379999999979
11
41.1666659999999993
21
-20.0500569999999989
0
LINE
8
LYELLOW
6
CONTINUOUS
10
41.1666659999999993
20
-20.0500569999999989
11
41.2142849999999967
21
-20.1452950000000008
0
LINE
8
LYELLOW
6
CONTINUOUS
10
41.2142849999999967
20
-20.1452950000000008
11
41.2142849999999967
21
-20.2405329999999992
0
LINE
8
LYELLOW
6
CONTINUOUS
10
41.2142849999999967
20
-20.2405329999999992
11
41.1666659999999993
21
-20.3833899999999986
0
LINE
8
LYELLOW
6
CONTINUOUS
10
41.1666659999999993
20
-20.3833899999999986
11
40.5952379999999948
21
-20.9548190000000005
0
LINE
8
LYELLOW
6
CONTINUOUS
10
40.5952379999999948
20
-20.9548190000000005
11
41.2142849999999967
21
-20.9548190000000005
0
LINE
8
LYELLOW
6
CONTINUOUS
10
42.2142849999999967
20
-20.8595799999999976
11
42.1666659999999993
21
-20.9071999999999996
0
LINE
8
LYELLOW
6
CONTINUOUS
10
42.1666659999999993
20
-20.9071999999999996
11
42.023809
21
-20.9548190000000005
0
LINE
8
LYELLOW
6
CONTINUOUS
10
42.023809
20
-20.9548190000000005
11
41.928570999999998
21
-20.9548190000000005
0
LINE
8
LYELLOW
6
CONTINUOUS
10
41.928570999999998
20
-20.9548190000000005
11
41.7857139999999987
21
-20.9071999999999996
0
LINE
8
LYELLOW
6
CONTINUOUS
10
41.7857139999999987
20
-20.9071999999999996
11
41.6904759999999968
21
-20.8119610000000002
0
LINE
8
LYELLOW
6
CONTINUOUS
10
41.6904759999999968
20
-20.8119610000000002
11
41.6428569999999993
21
-20.7167229999999982
0
LINE
8
LYELLOW
6
CONTINUOUS
10
41.6428569999999993
20
-20.7167229999999982
11
41.5952379999999948
21
-20.5262469999999979
0
LINE
8
LYELLOW
6
CONTINUOUS
10
41.5952379999999948
20
-20.5262469999999979
11
41.5952379999999948
21
-20.3833899999999986
0
LINE
8
LYELLOW
6
CONTINUOUS
10
41.5952379999999948
20
-20.3833899999999986
11
41.6428569999999993
21
-20.1929139999999983
0
LINE
8
LYELLOW
6
CONTINUOUS
10
41.6428569999999993
20
-20.1929139999999983
11
41.6904759999999968
21
-20.0976759999999999
0
LINE
8
LYELLOW
6
CONTINUOUS
10
41.6904759999999968
20
-20.0976759999999999
11
41.7857139999999987
21
-20.0024379999999979
0
LINE
8
LYELLOW
6
CONTINUOUS
10
41.7857139999999987
20
-20.0024379999999979
11
41.928570999999998
21
-19.9548190000000005
0
LINE
8
LYELLOW
6
CONTINUOUS
10
41.928570999999998
20
-19.9548190000000005
11
42.023809
21
-19.9548190000000005
0
LINE
8
LYELLOW
6
CONTINUOUS
10
42.023809
20
-19.9548190000000005
11
42.1666659999999993
21
-20.0024379999999979
0
LINE
8
LYELLOW
6
CONTINUOUS
10
42.1666659999999993
20
-20.0024379999999979
11
42.2142849999999967
21
-20.0500569999999989
0
LINE
8
LYELLOW
6
CONTINUOUS
10
42.5476189999999974
20
-19.9548190000000005
11
43.1666659999999993
21
-19.9548190000000005
0
LINE
8
LYELLOW
6
CONTINUOUS
10
43.1666659999999993
20
-19.9548190000000005
11
42.8333329999999961
21
-20.3357709999999976
0
LINE
8
LYELLOW
6
CONTINUOUS
10
42.8333329999999961
20
-20.3357709999999976
11
42.9761899999999955
21
-20.3357709999999976
0
LINE
8
LYELLOW
6
CONTINUOUS
10
42.9761899999999955
20
-20.3357709999999976
11
43.0714279999999974
21
-20.3833899999999986
0
LINE
8
LYELLOW
6
CONTINUOUS
10
43.0714279999999974
20
-20.3833899999999986
11
43.1190469999999948
21
-20.4310089999999995
0
LINE
8
LYELLOW
6
CONTINUOUS
10
43.1190469999999948
20
-20.4310089999999995
11
43.1666659999999993
21
-20.5262469999999979
0
LINE
8
LYELLOW
6
CONTINUOUS
10
43.1666659999999993
20
-20.5262469999999979
11
43.1666659999999993
21
-20.7643419999999992
0
LINE
8
LYELLOW
6
CONTINUOUS
10
43.1666659999999993
20
-20.7643419999999992
11
43.1190469999999948
21
-20.8595799999999976
0
LINE
8
LYELLOW
6
CONTINUOUS
10
43.1190469999999948
20
-20.8595799999999976
11
43.0714279999999974
21
-20.9071999999999996
0
LINE
8
LYELLOW
6
CONTINUOUS
10
43.0714279999999974
20
-20.9071999999999996
11
42.9761899999999955
21
-20.9548190000000005
0
LINE
8
LYELLOW
6
CONTINUOUS
10
42.9761899999999955
20
-20.9548190000000005
11
42.6904759999999968
21
-20.9548190000000005
0
LINE
8
LYELLOW
6
CONTINUOUS
10
42.6904759999999968
20
-20.9548190000000005
11
42.5952379999999948
21
-20.9071999999999996
0
LINE
8
LYELLOW
6
CONTINUOUS
10
42.5952379999999948
20
-20.9071999999999996
11
42.5476189999999974
21
-20.8595799999999976
0
LINE
8
LYELLOW
6
CONTINUOUS
10
12.2380949999999995
20
-8.9548189999999988
11
12.2380949999999995
21
-7.9548189999999996
0
LINE
8
LYELLOW
6
CONTINUOUS
10
12.2380949999999995
20
-7.9548189999999996
11
12.6190470000000001
21
-7.9548189999999996
0
LINE
8
LYELLOW
6
CONTINUOUS
10
12.6190470000000001
20
-7.9548189999999996
11
12.7142850000000003
21
-8.0024379999999997
0
LINE
8
LYELLOW
6
CONTINUOUS
10
12.7142850000000003
20
-8.0024379999999997
11
12.7619039999999995
21
-8.0500569999999989
0
LINE
8
LYELLOW
6
CONTINUOUS
10
12.7619039999999995
20
-8.0500569999999989
11
12.8095229999999987
21
-8.1452949999999991
0
LINE
8
LYELLOW
6
CONTINUOUS
10
12.8095229999999987
20
-8.1452949999999991
11
12.8095229999999987
21
-8.2881520000000002
0
LINE
8
LYELLOW
6
CONTINUOUS
10
12.8095229999999987
20
-8.2881520000000002
11
12.7619039999999995
21
-8.3833900000000003
0
LINE
8
LYELLOW
6
CONTINUOUS
10
12.7619039999999995
20
-8.3833900000000003
11
12.7142850000000003
21
-8.4310089999999995
0
LINE
8
LYELLOW
6
CONTINUOUS
10
12.7142850000000003
20
-8.4310089999999995
11
12.6190470000000001
21
-8.4786280000000005
0
LINE
8
LYELLOW
6
CONTINUOUS
10
12.6190470000000001
20
-8.4786280000000005
11
12.2380949999999995
21
-8.4786280000000005
0
LINE
8
LYELLOW
6
CONTINUOUS
10
13.1428569999999993
20
-7.9548189999999996
11
13.3809519999999988
21
-8.9548189999999988
0
LINE
8
LYELLOW
6
CONTINUOUS
10
13.3809519999999988
20
-8.9548189999999988
11
13.5714279999999992
21
-8.2405329999999992
0
LINE
8
LYELLOW
6
CONTINUOUS
10
13.5714279999999992
20
-8.2405329999999992
11
13.7619039999999995
21
-8.9548189999999988
0
LINE
8
LYELLOW
6
CONTINUOUS
10
13.7619039999999995
20
-8.9548189999999988
11
14.
21
-7.9548189999999996
0
LINE
8
LYELLOW
6
CONTINUOUS
10
14.9523799999999998
20
-8.9548189999999988
11
14.6190470000000001
21
-8.4786280000000005
0
LINE
8
LYELLOW
6
CONTINUOUS
10
14.3809519999999988
20
-8.9548189999999988
11
14.3809519999999988
21
-7.9548189999999996
0
LINE
8
LYELLOW
6
CONTINUOUS
10
14.3809519999999988
20
-7.9548189999999996
11
14.7619039999999995
21
-7.9548189999999996
0
LINE
8
LYELLOW
6
CONTINUOUS
10
14.7619039999999995
20
-7.9548189999999996
11
14.8571419999999996
21
-8.0024379999999997
0
LINE
8
LYELLOW
6
CONTINUOUS
10
14.8571419999999996
20
-8.0024379999999997
11
14.9047609999999988
21
-8.0500569999999989
0
LINE
8
LYELLOW
6
CONTINUOUS
10
14.9047609999999988
20
-8.0500569999999989
11
14.9523799999999998
21
-8.1452949999999991
0
LINE
8
LYELLOW
6
CONTINUOUS
10
14.9523799999999998
20
-8.1452949999999991
11
14.9523799999999998
21
-8.2881520000000002
0
LINE
8
LYELLOW
6
CONTINUOUS
10
14.9523799999999998
20
-8.2881520000000002
11
14.9047609999999988
21
-8.3833900000000003
0
LINE
8
LYELLOW
6
CONTINUOUS
10
14.9047609999999988
20
-8.3833900000000003
11
14.8571419999999996
21
-8.4310089999999995
0
LINE
8
LYELLOW
6
CONTINUOUS
10
14.8571419999999996
20
-8.4310089999999995
11
14.7619039999999995
21
-8.4786280000000005
0
LINE
8
LYELLOW
6
CONTINUOUS
10
14.7619039999999995
20
-8.4786280000000005
11
14.3809519999999988
21
-8.4786280000000005
0
LINE
8
LYELLOW
6
CONTINUOUS
10
15.1428569999999993
20
-9.0500569999999989
11
15.9047609999999988
21
-9.0500569999999989
0
LINE
8
LYELLOW
6
CONTINUOUS
10
16.0952379999999984
20
-8.9071999999999996
11
16.2380949999999977
21
-8.9548189999999988
0
LINE
8
LYELLOW
6
CONTINUOUS
10
16.2380949999999977
20
-8.9548189999999988
11
16.476189999999999
21
-8.9548189999999988
0
LINE
8
LYELLOW
6
CONTINUOUS
10
16.476189999999999
20
-8.9548189999999988
11
16.5714280000000009
21
-8.9071999999999996
0
LINE
8
LYELLOW
6
CONTINUOUS
10
16.5714280000000009
20
-8.9071999999999996
11
16.6190469999999983
21
-8.8595799999999993
0
LINE
8
LYELLOW
6
CONTINUOUS
10
16.6190469999999983
20
-8.8595799999999993
11
16.6666659999999993
21
-8.7643419999999992
0
LINE
8
LYELLOW
6
CONTINUOUS
10
16.6666659999999993
20
-8.7643419999999992
11
16.6666659999999993
21
-8.669103999999999
0
LINE
8
LYELLOW
6
CONTINUOUS
10
16.6666659999999993
20
-8.669103999999999
11
16.6190469999999983
21
-8.5738659999999989
0
LINE
8
LYELLOW
6
CONTINUOUS
10
16.6190469999999983
20
-8.5738659999999989
11
16.5714280000000009
21
-8.5262469999999997
0
LINE
8
LYELLOW
6
CONTINUOUS
10
16.5714280000000009
20
-8.5262469999999997
11
16.476189999999999
21
-8.4786280000000005
0
LINE
8
LYELLOW
6
CONTINUOUS
10
16.476189999999999
20
-8.4786280000000005
11
16.2857139999999987
21
-8.4310089999999995
0
LINE
8
LYELLOW
6
CONTINUOUS
10
16.2857139999999987
20
-8.4310089999999995
11
16.1904760000000003
21
-8.3833900000000003
0
LINE
8
LYELLOW
6
CONTINUOUS
10
16.1904760000000003
20
-8.3833900000000003
11
16.1428569999999993
21
-8.3357709999999994
0
LINE
8
LYELLOW
6
CONTINUOUS
10
16.1428569999999993
20
-8.3357709999999994
11
16.0952379999999984
21
-8.2405329999999992
0
LINE
8
LYELLOW
6
CONTINUOUS
10
16.0952379999999984
20
-8.2405329999999992
11
16.0952379999999984
21
-8.1452949999999991
0
LINE
8
LYELLOW
6
CONTINUOUS
10
16.0952379999999984
20
-8.1452949999999991
11
16.1428569999999993
21
-8.0500569999999989
0
LINE
8
LYELLOW
6
CONTINUOUS
10
16.1428569999999993
20
-8.0500569999999989
11
16.1904760000000003
21
-8.0024379999999997
0
LINE
8
LYELLOW
6
CONTINUOUS
10
16.1904760000000003
20
-8.0024379999999997
11
16.2857139999999987
21
-7.9548189999999996
0
LINE
8
LYELLOW
6
CONTINUOUS
10
16.2857139999999987
20
-7.9548189999999996
11
16.523809
21
-7.9548189999999996
0
LINE
8
LYELLOW
6
CONTINUOUS
10
16.523809
20
-7.9548189999999996
11
16.6666659999999993
21
-8.0024379999999997
0
LINE
8
LYELLOW
6
CONTINUOUS
10
17.
20
-7.9548189999999996
11
17.2380949999999977
21
-8.9548189999999988
0
LINE
8
LYELLOW
6
CONTINUOUS
10
17.2380949999999977
20
-8.9548189999999988
11
17.428570999999998
21
-8.2405329999999992
0
LINE
8
LYELLOW
6
CONTINUOUS
10
17.428570999999998
20
-8.2405329999999992
11
17.6190469999999983
21
-8.9548189999999988
0
LINE
8
LYELLOW
6
CONTINUOUS
10
17.6190469999999983
20
-8.9548189999999988
11
17.8571430000000007
21
-7.9548189999999996
0
LINE
8
LYELLOW
6
CONTINUOUS
10
3.976191
20
-16.9548190000000005
11
4.5476190000000001
21
-16.9548190000000005
0
LINE
8
LYELLOW
6
CONTINUOUS
10
4.2619049999999996
20
-17.9548190000000005
11
4.2619049999999996
21
-16.9548190000000005
0
LINE
8
LYELLOW
6
CONTINUOUS
10
5.4523809999999999
20
-17.9548190000000005
11
5.1190479999999994
21
-17.4786280000000005
0
LINE
8
LYELLOW
6
CONTINUOUS
10
4.8809529999999999
20
-17.9548190000000005
11
4.8809529999999999
21
-16.9548190000000005
0
LINE
8
LYELLOW
6
CONTINUOUS
10
4.8809529999999999
20
-16.9548190000000005
11
5.2619049999999996
21
-16.9548190000000005
0
LINE
8
LYELLOW
6
CONTINUOUS
10
5.2619049999999996
20
-16.9548190000000005
11
5.3571429999999998
21
-17.0024379999999979
0
LINE
8
LYELLOW
6
CONTINUOUS
10
5.3571429999999998
20
-17.0024379999999979
11
5.4047619999999998
21
-17.0500569999999989
0
LINE
8
LYELLOW
6
CONTINUOUS
10
5.4047619999999998
20
-17.0500569999999989
11
5.4523809999999999
21
-17.1452950000000008
0
LINE
8
LYELLOW
6
CONTINUOUS
10
5.4523809999999999
20
-17.1452950000000008
11
5.4523809999999999
21
-17.2881520000000002
0
LINE
8
LYELLOW
6
CONTINUOUS
10
5.4523809999999999
20
-17.2881520000000002
11
5.4047619999999998
21
-17.3833899999999986
0
LINE
8
LYELLOW
6
CONTINUOUS
10
5.4047619999999998
20
-17.3833899999999986
11
5.3571429999999998
21
-17.4310089999999995
0
LINE
8
LYELLOW
6
CONTINUOUS
10
5.3571429999999998
20
-17.4310089999999995
11
5.2619049999999996
21
-17.4786280000000005
0
LINE
8
LYELLOW
6
CONTINUOUS
10
5.2619049999999996
20
-17.4786280000000005
11
4.8809529999999999
21
-17.4786280000000005
0
LINE
8
LYELLOW
6
CONTINUOUS
10
5.8809529999999999
20
-17.9548190000000005
11
5.8809529999999999
21
-16.9548190000000005
0
LINE
8
LYELLOW
6
CONTINUOUS
10
6.8809519999999997
20
-17.0024379999999979
11
6.7857139999999996
21
-16.9548190000000005
0
LINE
8
LYELLOW
6
CONTINUOUS
10
6.7857139999999996
20
-16.9548190000000005
11
6.6428569999999993
21
-16.9548190000000005
0
LINE
8
LYELLOW
6
CONTINUOUS
10
6.6428569999999993
20
-16.9548190000000005
11
6.5
21
-17.0024379999999979
0
LINE
8
LYELLOW
6
CONTINUOUS
10
6.5
20
-17.0024379999999979
11
6.4047619999999998
21
-17.0976759999999999
0
LINE
8
LYELLOW
6
CONTINUOUS
10
6.4047619999999998
20
-17.0976759999999999
11
6.3571429999999998
21
-17.1929139999999983
0
LINE
8
LYELLOW
6
CONTINUOUS
10
6.3571429999999998
20
-17.1929139999999983
11
6.3095239999999997
21
-17.3833899999999986
0
LINE
8
LYELLOW
6
CONTINUOUS
10
6.3095239999999997
20
-17.3833899999999986
11
6.3095239999999997
21
-17.5262469999999979
0
LINE
8
LYELLOW
6
CONTINUOUS
10
6.3095239999999997
20
-17.5262469999999979
11
6.3571429999999998
21
-17.7167229999999982
0
LINE
8
LYELLOW
6
CONTINUOUS
10
6.3571429999999998
20
-17.7167229999999982
11
6.4047619999999998
21
-17.8119610000000002
0
LINE
8
LYELLOW
6
CONTINUOUS
10
6.4047619999999998
20
-17.8119610000000002
11
6.5
21
-17.9071999999999996
0
LINE
8
LYELLOW
6
CONTINUOUS
10
6.5
20
-17.9071999999999996
11
6.6428569999999993
21
-17.9548190000000005
0
LINE
8
LYELLOW
6
CONTINUOUS
10
6.6428569999999993
20
-17.9548190000000005
11
6.7380949999999995
21
-17.9548190000000005
0
LINE
8
LYELLOW
6
CONTINUOUS
10
6.7380949999999995
20
-17.9548190000000005
11
6.8809519999999997
21
-17.9071999999999996
0
LINE
8
LYELLOW
6
CONTINUOUS
10
6.8809519999999997
20
-17.9071999999999996
11
6.9285709999999998
21
-17.8595799999999976
0
LINE
8
LYELLOW
6
CONTINUOUS
10
6.9285709999999998
20
-17.8595799999999976
11
6.9285709999999998
21
-17.5262469999999979
0
LINE
8
LYELLOW
6
CONTINUOUS
10
6.9285709999999998
20
-17.5262469999999979
11
6.7380949999999995
21
-17.5262469999999979
0
LINE
8
LYELLOW
6
CONTINUOUS
10
4.5119039999999995
20
-5.1810089999999995
11
4.6547609999999997
21
-5.2286279999999996
0
LINE
8
LYELLOW
6
CONTINUOUS
10
4.6547609999999997
20
-5.2286279999999996
11
4.7023799999999998
21
-5.2762469999999997
0
LINE
8
LYELLOW
6
CONTINUOUS
10
4.7023799999999998
20
-5.2762469999999997
11
4.7499989999999999
21
-5.3714849999999998
0
LINE
8
LYELLOW
6
CONTINUOUS
10
4.7499989999999999
20
-5.3714849999999998
11
4.7499989999999999
21
-5.5143420000000001
0
LINE
8
LYELLOW
6
CONTINUOUS
10
4.7499989999999999
20
-5.5143420000000001
11
4.7023799999999998
21
-5.6095799999999993
0
LINE
8
LYELLOW
6
CONTINUOUS
10
4.7023799999999998
20
-5.6095799999999993
11
4.6547609999999997
21
-5.6571999999999996
0
LINE
8
LYELLOW
6
CONTINUOUS
10
4.6547609999999997
20
-5.6571999999999996
11
4.5595229999999995
21
-5.7048189999999996
0
LINE
8
LYELLOW
6
CONTINUOUS
10
4.5595229999999995
20
-5.7048189999999996
11
4.1785709999999998
21
-5.7048189999999996
0
LINE
8
LYELLOW
6
CONTINUOUS
10
4.1785709999999998
20
-5.7048189999999996
11
4.1785709999999998
21
-4.7048189999999996
0
LINE
8
LYELLOW
6
CONTINUOUS
10
4.1785709999999998
20
-4.7048189999999996
11
4.5119039999999995
21
-4.7048189999999996
0
LINE
8
LYELLOW
6
CONTINUOUS
10
4.5119039999999995
20
-4.7048189999999996
11
4.6071419999999996
21
-4.7524379999999997
0
LINE
8
LYELLOW
6
CONTINUOUS
10
4.6071419999999996
20
-4.7524379999999997
11
4.6547609999999997
21
-4.8000569999999998
0
LINE
8
LYELLOW
6
CONTINUOUS
10
4.6547609999999997
20
-4.8000569999999998
11
4.7023799999999998
21
-4.895295
0
LINE
8
LYELLOW
6
CONTINUOUS
10
4.7023799999999998
20
-4.895295
11
4.7023799999999998
21
-4.9905330000000001
0
LINE
8
LYELLOW
6
CONTINUOUS
10
4.7023799999999998
20
-4.9905330000000001
11
4.6547609999999997
21
-5.0857709999999994
0
LINE
8
LYELLOW
6
CONTINUOUS
10
4.6547609999999997
20
-5.0857709999999994
11
4.6071419999999996
21
-5.1333899999999995
0
LINE
8
LYELLOW
6
CONTINUOUS
10
4.6071419999999996
20
-5.1333899999999995
11
4.5119039999999995
21
-5.1810089999999995
0
LINE
8
LYELLOW
6
CONTINUOUS
10
4.5119039999999995
20
-5.1810089999999995
11
4.1785709999999998
21
-5.1810089999999995
0
LINE
8
LYELLOW
6
CONTINUOUS
10
5.1309519999999997
20
-5.4191039999999999
11
5.6071419999999996
21
-5.4191039999999999
0
LINE
8
LYELLOW
6
CONTINUOUS
10
5.0357139999999996
20
-5.7048189999999996
11
5.3690470000000001
21
-4.7048189999999996
0
LINE
8
LYELLOW
6
CONTINUOUS
10
5.3690470000000001
20
-4.7048189999999996
11
5.7023799999999998
21
-5.7048189999999996
0
LINE
8
LYELLOW
6
CONTINUOUS
10
5.8928569999999993
20
-4.7048189999999996
11
6.4642849999999994
21
-4.7048189999999996
0
LINE
8
LYELLOW
6
CONTINUOUS
10
6.1785709999999998
20
-5.7048189999999996
11
6.1785709999999998
21
-4.7048189999999996
0
LINE
8
LYELLOW
6
CONTINUOUS
10
51.5595229999999987
20
-20.0500569999999989
11
51.4642849999999967
21
-20.0024379999999979
0
LINE
8
LYELLOW
6
CONTINUOUS
10
51.4642849999999967
20
-20.0024379999999979
11
51.3690469999999948
21
-19.9071999999999996
0
LINE
8
LYELLOW
6
CONTINUOUS
10
51.3690469999999948
20
-19.9071999999999996
11
51.2261899999999955
21
-19.7643419999999992
0
LINE
8
LYELLOW
6
CONTINUOUS
10
51.2261899999999955
20
-19.7643419999999992
11
51.1309520000000006
21
-19.7167229999999982
0
LINE
8
LYELLOW
6
CONTINUOUS
10
51.1309520000000006
20
-19.7167229999999982
11
51.0357139999999987
21
-19.7167229999999982
0
LINE
8
LYELLOW
6
CONTINUOUS
10
51.0833329999999961
20
-19.9548190000000005
11
50.9880949999999942
21
-19.9071999999999996
0
LINE
8
LYELLOW
6
CONTINUOUS
10
50.9880949999999942
20
-19.9071999999999996
11
50.8928569999999993
21
-19.8119610000000002
0
LINE
8
LYELLOW
6
CONTINUOUS
10
50.8928569999999993
20
-19.8119610000000002
11
50.8452379999999948
21
-19.6214849999999998
0
LINE
8
LYELLOW
6
CONTINUOUS
10
50.8452379999999948
20
-19.6214849999999998
11
50.8452379999999948
21
-19.2881520000000002
0
LINE
8
LYELLOW
6
CONTINUOUS
10
50.8452379999999948
20
-19.2881520000000002
11
50.8928569999999993
21
-19.0976759999999999
0
LINE
8
LYELLOW
6
CONTINUOUS
10
50.8928569999999993
20
-19.0976759999999999
11
50.9880949999999942
21
-19.0024379999999979
0
LINE
8
LYELLOW
6
CONTINUOUS
10
50.9880949999999942
20
-19.0024379999999979
11
51.0833329999999961
21
-18.9548190000000005
0
LINE
8
LYELLOW
6
CONTINUOUS
10
51.0833329999999961
20
-18.9548190000000005
11
51.273809
21
-18.9548190000000005
0
LINE
8
LYELLOW
6
CONTINUOUS
10
51.273809
20
-18.9548190000000005
11
51.3690469999999948
21
-19.0024379999999979
0
LINE
8
LYELLOW
6
CONTINUOUS
10
51.3690469999999948
20
-19.0024379999999979
11
51.4642849999999967
21
-19.0976759999999999
0
LINE
8
LYELLOW
6
CONTINUOUS
10
51.4642849999999967
20
-19.0976759999999999
11
51.5119039999999941
21
-19.2881520000000002
0
LINE
8
LYELLOW
6
CONTINUOUS
10
51.5119039999999941
20
-19.2881520000000002
11
51.5119039999999941
21
-19.6214849999999998
0
LINE
8
LYELLOW
6
CONTINUOUS
10
51.5119039999999941
20
-19.6214849999999998
11
51.4642849999999967
21
-19.8119610000000002
0
LINE
8
LYELLOW
6
CONTINUOUS
10
51.4642849999999967
20
-19.8119610000000002
11
51.3690469999999948
21
-19.9071999999999996
0
LINE
8
LYELLOW
6
CONTINUOUS
10
51.3690469999999948
20
-19.9071999999999996
11
51.273809
21
-19.9548190000000005
0
LINE
8
LYELLOW
6
CONTINUOUS
10
51.273809
20
-19.9548190000000005
11
51.0833329999999961
21
-19.9548190000000005
0
LINE
8
LYELLOW
6
CONTINUOUS
10
51.9404759999999968
20
-19.9548190000000005
11
51.9404759999999968
21
-18.9548190000000005
0
LINE
8
LYELLOW
6
CONTINUOUS
10
51.9404759999999968
20
-18.9548190000000005
11
52.273809
21
-19.6691040000000008
0
LINE
8
LYELLOW
6
CONTINUOUS
10
52.273809
20
-19.6691040000000008
11
52.6071419999999961
21
-18.9548190000000005
0
LINE
8
LYELLOW
6
CONTINUOUS
10
52.6071419999999961
20
-18.9548190000000005
11
52.6071419999999961
21
-19.9548190000000005
0
LINE
8
LYELLOW
6
CONTINUOUS
10
53.6547610000000006
20
-19.8595799999999976
11
53.6071419999999961
21
-19.9071999999999996
0
LINE
8
LYELLOW
6
CONTINUOUS
10
53.6071419999999961
20
-19.9071999999999996
11
53.4642849999999967
21
-19.9548190000000005
0
LINE
8
LYELLOW
6
CONTINUOUS
10
53.4642849999999967
20
-19.9548190000000005
11
53.3690469999999948
21
-19.9548190000000005
0
LINE
8
LYELLOW
6
CONTINUOUS
10
53.3690469999999948
20
-19.9548190000000005
11
53.2261899999999955
21
-19.9071999999999996
0
LINE
8
LYELLOW
6
CONTINUOUS
10
53.2261899999999955
20
-19.9071999999999996
11
53.1309520000000006
21
-19.8119610000000002
0
LINE
8
LYELLOW
6
CONTINUOUS
10
53.1309520000000006
20
-19.8119610000000002
11
53.0833329999999961
21
-19.7167229999999982
0
LINE
8
LYELLOW
6
CONTINUOUS
10
53.0833329999999961
20
-19.7167229999999982
11
53.0357139999999987
21
-19.5262469999999979
0
LINE
8
LYELLOW
6
CONTINUOUS
10
53.0357139999999987
20
-19.5262469999999979
11
53.0357139999999987
21
-19.3833899999999986
0
LINE
8
LYELLOW
6
CONTINUOUS
10
53.0357139999999987
20
-19.3833899999999986
11
53.0833329999999961
21
-19.1929139999999983
0
LINE
8
LYELLOW
6
CONTINUOUS
10
53.0833329999999961
20
-19.1929139999999983
11
53.1309520000000006
21
-19.0976759999999999
0
LINE
8
LYELLOW
6
CONTINUOUS
10
53.1309520000000006
20
-19.0976759999999999
11
53.2261899999999955
21
-19.0024379999999979
0
LINE
8
LYELLOW
6
CONTINUOUS
10
53.2261899999999955
20
-19.0024379999999979
11
53.3690469999999948
21
-18.9548190000000005
0
LINE
8
LYELLOW
6
CONTINUOUS
10
53.3690469999999948
20
-18.9548190000000005
11
53.4642849999999967
21
-18.9548190000000005
0
LINE
8
LYELLOW
6
CONTINUOUS
10
53.4642849999999967
20
-18.9548190000000005
11
53.6071419999999961
21
-19.0024379999999979
0
LINE
8
LYELLOW
6
CONTINUOUS
10
53.6071419999999961
20
-19.0024379999999979
11
53.6547610000000006
21
-19.0500569999999989
0
LINE
8
LYELLOW
6
CONTINUOUS
10
16.1071419999999996
20
-21.7048190000000005
11
15.6309519999999988
21
-21.7048190000000005
0
LINE
8
LYELLOW
6
CONTINUOUS
10
15.6309519999999988
20
-21.7048190000000005
11
15.6309519999999988
21
-20.7048190000000005
0
LINE
8
LYELLOW
6
CONTINUOUS
10
16.4404760000000003
20
-21.1810089999999995
11
16.773809
21
-21.1810089999999995
0
LINE
8
LYELLOW
6
CONTINUOUS
10
16.9166659999999993
20
-21.7048190000000005
11
16.4404760000000003
21
-21.7048190000000005
0
LINE
8
LYELLOW
6
CONTINUOUS
10
16.4404760000000003
20
-21.7048190000000005
11
16.4404760000000003
21
-20.7048190000000005
0
LINE
8
LYELLOW
6
CONTINUOUS
10
16.4404760000000003
20
-20.7048190000000005
11
16.9166659999999993
21
-20.7048190000000005
0
LINE
8
LYELLOW
6
CONTINUOUS
10
17.3452379999999984
20
-21.7048190000000005
11
17.3452379999999984
21
-20.7048190000000005
0
LINE
8
LYELLOW
6
CONTINUOUS
10
17.3452379999999984
20
-20.7048190000000005
11
17.5833329999999997
21
-20.7048190000000005
0
LINE
8
LYELLOW
6
CONTINUOUS
10
17.5833329999999997
20
-20.7048190000000005
11
17.726189999999999
21
-20.7524379999999979
0
LINE
8
LYELLOW
6
CONTINUOUS
10
17.726189999999999
20
-20.7524379999999979
11
17.8214280000000009
21
-20.8476759999999999
0
LINE
8
LYELLOW
6
CONTINUOUS
10
17.8214280000000009
20
-20.8476759999999999
11
17.8690469999999983
21
-20.9429139999999983
0
LINE
8
LYELLOW
6
CONTINUOUS
10
17.8690469999999983
20
-20.9429139999999983
11
17.9166659999999993
21
-21.1333899999999986
0
LINE
8
LYELLOW
6
CONTINUOUS
10
17.9166659999999993
20
-21.1333899999999986
11
17.9166659999999993
21
-21.2762469999999979
0
LINE
8
LYELLOW
6
CONTINUOUS
10
17.9166659999999993
20
-21.2762469999999979
11
17.8690469999999983
21
-21.4667229999999982
0
LINE
8
LYELLOW
6
CONTINUOUS
10
17.8690469999999983
20
-21.4667229999999982
11
17.8214280000000009
21
-21.5619610000000002
0
LINE
8
LYELLOW
6
CONTINUOUS
10
17.8214280000000009
20
-21.5619610000000002
11
17.726189999999999
21
-21.6571999999999996
0
LINE
8
LYELLOW
6
CONTINUOUS
10
17.726189999999999
20
-21.6571999999999996
11
17.5833329999999997
21
-21.7048190000000005
0
LINE
8
LYELLOW
6
CONTINUOUS
10
17.5833329999999997
20
-21.7048190000000005
11
17.3452379999999984
21
-21.7048190000000005
0
LINE
8
LYELLOW
6
CONTINUOUS
10
29.25
20
-3.5
11
29.25
21
-5.8499999999999996
0
LINE
8
LYELLOW
6
CONTINUOUS
10
29.25
20
-3.5
11
47.25
21
-3.5
0
LINE
8
LYELLOW
6
CONTINUOUS
10
29.25
20
-25.8999999999999986
11
29.25
21
-26.1999999999999993
0
LINE
8
LYELLOW
6
CONTINUOUS
10
29.25
20
-26.1999999999999993
11
33.75
21
-26.1999999999999993
0
LINE
8
LYELLOW
6
CONTINUOUS
10
33.75
20
-27.5
11
33.75
21
-26.1999999999999993
0
LINE
8
LYELLOW
6
CONTINUOUS
10
33.75
20
-27.5
11
42.75
21
-27.5
0
LINE
8
LYELLOW
6
CONTINUOUS
10
42.75
20
-26.1999999999999993
11
47.25
21
-26.1999999999999993
0
LINE
8
LYELLOW
6
CONTINUOUS
10
42.75
20
-27.5
11
42.75
21
-26.1999999999999993
0
LINE
8
LYELLOW
6
CONTINUOUS
10
47.25
20
-3.5
11
47.25
21
-5.8499999999999996
0
LINE
8
LYELLOW
6
CONTINUOUS
10
47.25
20
-25.8999999999999986
11
47.25
21
-26.1999999999999993
0
LINE
8
LYELLOW
6
CONTINUOUS
10
13.3699999999999992
20
-10.6199999999999992
11
13.3699999999999992
21
-13.379999999999999
0
LINE
8
LYELLOW
6
CONTINUOUS
10
18.5599999999999987
20
-10.6199999999999992
11
13.3699999999999992
21
-10.6199999999999992
0
LINE
8
LYELLOW
6
CONTINUOUS
10
18.5599999999999987
20
-10.6199999999999992
11
18.5599999999999987
21
-13.379999999999999
0
LINE
8
LYELLOW
6
CONTINUOUS
10
18.5599999999999987
20
-13.379999999999999
11
13.3699999999999992
21
-13.379999999999999
0
LINE
8
LYELLOW
6
CONTINUOUS
10
19.8299999999999983
20
-10.6199999999999992
11
21.2099999999999973
21
-10.6199999999999992
0
LINE
8
LYELLOW
6
CONTINUOUS
10
21.2099999999999973
20
-10.6199999999999992
11
21.2099999999999973
21
-12.
0
LINE
8
LYELLOW
6
CONTINUOUS
10
2.8899999999999997
20
-19.1649999999999991
11
2.8899999999999997
21
-21.4899999999999984
0
LINE
8
LYELLOW
6
CONTINUOUS
10
2.8899999999999997
20
-21.4899999999999984
11
0.5
21
-21.4899999999999984
0
LINE
8
LYELLOW
6
CONTINUOUS
10
2.8899999999999997
20
-27.3349999999999973
11
2.8899999999999997
21
-25.009999999999998
0
LINE
8
LYELLOW
6
CONTINUOUS
10
3.7399999999999998
20
-19.1649999999999991
11
2.8899999999999997
21
-19.1649999999999991
0
LINE
8
LYELLOW
6
CONTINUOUS
10
3.7399999999999998
20
-27.3349999999999973
11
2.8899999999999997
21
-27.3349999999999973
0
LINE
8
LYELLOW
6
CONTINUOUS
10
7.2599999999999998
20
-19.1649999999999991
11
8.1099999999999994
21
-19.1649999999999991
0
LINE
8
LYELLOW
6
CONTINUOUS
10
8.1099999999999994
20
-19.1649999999999991
11
8.1099999999999994
21
-27.3349999999999973
0
LINE
8
LYELLOW
6
CONTINUOUS
10
8.1099999999999994
20
-27.3349999999999973
11
7.2599999999999998
21
-27.3349999999999973
0
LINE
8
LYELLOW
6
CONTINUOUS
10
2.8899999999999997
20
-6.915
11
2.8899999999999997
21
-9.2400000000000002
0
LINE
8
LYELLOW
6
CONTINUOUS
10
2.8899999999999997
20
-9.2400000000000002
11
0.5
21
-9.2400000000000002
0
LINE
8
LYELLOW
6
CONTINUOUS
10
2.8899999999999997
20
-15.0849999999999991
11
2.8899999999999997
21
-12.7599999999999998
0
LINE
8
LYELLOW
6
CONTINUOUS
10
3.7399999999999998
20
-6.915
11
2.8899999999999997
21
-6.915
0
LINE
8
LYELLOW
6
CONTINUOUS
10
3.7399999999999998
20
-15.0849999999999991
11
2.8899999999999997
21
-15.0849999999999991
0
LINE
8
LYELLOW
6
CONTINUOUS
10
7.2599999999999998
20
-6.915
11
8.1099999999999994
21
-6.915
0
LINE
8
LYELLOW
6
CONTINUOUS
10
8.1099999999999994
20
-6.915
11
8.1099999999999994
21
-15.0849999999999991
0
LINE
8
LYELLOW
6
CONTINUOUS
10
8.1099999999999994
20
-15.0849999999999991
11
7.2599999999999998
21
-15.0849999999999991
0
LINE
8
LYELLOW
6
CONTINUOUS
10
50.8699999999999974
20
-15.8499999999999996
11
50.8699999999999974
21
-8.1199999999999992
0
LINE
8
LYELLOW
6
CONTINUOUS
10
53.6299999999999955
20
-8.1199999999999992
11
50.8699999999999974
21
-8.1199999999999992
0
LINE
8
LYELLOW
6
CONTINUOUS
10
53.6299999999999955
20
-15.8499999999999996
11
50.8699999999999974
21
-15.8499999999999996
0
LINE
8
LYELLOW
6
CONTINUOUS
10
53.6299999999999955
20
-15.8499999999999996
11
53.6299999999999955
21
-8.1199999999999992
0
LINE
8
LYELLOW
6
CONTINUOUS
10
53.6299999999999955
20
-17.120000000000001
11
53.6299999999999955
21
-18.5
0
LINE
8
LYELLOW
6
CONTINUOUS
10
53.6299999999999955
20
-18.5
11
52.25
21
-18.5
0
LINE
8
LYELLOW
6
CONTINUOUS
10
23.1199999999999974
20
-18.8299999999999983
11
24.5
21
-18.8299999999999983
0
LINE
8
LYELLOW
6
CONTINUOUS
10
23.1199999999999974
20
-20.2100000000000009
11
23.1199999999999974
21
-18.8299999999999983
0
LINE
8
LYELLOW
6
CONTINUOUS
10
23.1199999999999974
20
-21.4800000000000004
11
23.1199999999999974
21
-26.6699999999999982
0
LINE
8
LYELLOW
6
CONTINUOUS
10
23.1199999999999974
20
-21.4800000000000004
11
25.879999999999999
21
-21.4800000000000004
0
LINE
8
LYELLOW
6
CONTINUOUS
10
23.1199999999999974
20
-26.6699999999999982
11
25.879999999999999
21
-26.6699999999999982
0
LINE
8
LYELLOW
6
CONTINUOUS
10
25.879999999999999
20
-21.4800000000000004
11
25.879999999999999
21
-26.6699999999999982
0
CIRCLE
8
BLACK
10
19.8299999999999983
20
-12.
40
0.0635
0
CIRCLE
8
BLACK
10
17.2899999999999991
20
-12.
40
0.0635
0
CIRCLE
8
BLACK
10
14.75
20
-12.
40
0.0635
0
CIRCLE
8
BLACK
10
52.25
20
-17.120000000000001
40
0.0635
0
CIRCLE
8
BLACK
10
52.25
20
-14.5800000000000001
40
0.0635
0
CIRCLE
8
BLACK
10
52.25
20
-12.0399999999999991
40
0.0635
0
CIRCLE
8
BLACK
10
52.25
20
-9.5
40
0.0635
0
CIRCLE
8
BLACK
10
24.5
20
-20.2100000000000009
40
0.0635
0
CIRCLE
8
BLACK
10
24.5
20
-22.75
40
0.0635
0
CIRCLE
8
BLACK
10
24.5
20
-25.2899999999999991
40
0.0635
  0
ENDSEC
  0
EOF
