<?xml version="1.0" standalone="no"?>
 <!DOCTYPE svg PUBLIC "-//W3C//DTD SVG 1.1//EN" 
 "http://www.w3.org/Graphics/SVG/1.1/DTD/svg11.dtd"> 
<svg
  xmlns:svg="http://www.w3.org/2000/svg"
  xmlns="http://www.w3.org/2000/svg"
  xmlns:xlink="http://www.w3.org/1999/xlink"
  version="1.1"
  width="63.5000mm" height="31.7500mm" viewBox="0.0000 0.0000 63.5000 31.7500">
<title>SVG Image created as front.svg date 2025/11/14 13:02:16 </title>
  <desc>Image generated by PCBNEW </desc>
<g style="fill:#000000; fill-opacity:1.0000;stroke:#000000; stroke-opacity:1.0000;
stroke-linecap:round; stroke-linejoin:round;"
 transform="translate(0 0) scale(1 1)">
</g>
<g style="fill:#000000; fill-opacity:1.0000; 
stroke:#000000; stroke-width:0.0212; stroke-opacity:1; 
stroke-linecap:round; stroke-linejoin:round;">
<rect x="-6.448250" y="-5.025000" width="74.973250" height="41.800000" rx="0.000000" />
<path style="fill:#FFFFFF; fill-opacity:1.0000; stroke:none;fill-rule:evenodd;"
d="M 31.5425,9.4580
31.5425,10.9820
28.5175,10.9820
28.5175,9.4580
Z" /> 
<path style="fill:#FFFFFF; fill-opacity:1.0000; stroke:none;fill-rule:evenodd;"
d="M 31.5425,11.9980
31.5425,13.5220
28.5175,13.5220
28.5175,11.9980
Z" /> 
<path style="fill:#FFFFFF; fill-opacity:1.0000; stroke:none;fill-rule:evenodd;"
d="M 31.5425,14.5380
31.5425,16.0620
28.5175,16.0620
28.5175,14.5380
Z" /> 
<path style="fill:#FFFFFF; fill-opacity:1.0000; stroke:none;fill-rule:evenodd;"
d="M 31.5425,17.0780
31.5425,18.6020
28.5175,18.6020
28.5175,17.0780
Z" /> 
<path style="fill:#FFFFFF; fill-opacity:1.0000; stroke:none;fill-rule:evenodd;"
d="M 31.5425,22.1580
31.5425,23.6820
28.5175,23.6820
28.5175,22.1580
Z" /> 
<path style="fill:#FFFFFF; fill-opacity:1.0000; stroke:none;fill-rule:evenodd;"
d="M 31.5425,19.6180
31.5425,21.1420
28.5175,21.1420
28.5175,19.6180
Z" /> 
<path style="fill:#FFFFFF; fill-opacity:1.0000; stroke:none;fill-rule:evenodd;"
d="M 47.5125,27.2380
47.5125,28.7620
44.4875,28.7620
44.4875,27.2380
Z" /> 
<path style="fill:#FFFFFF; fill-opacity:1.0000; stroke:none;fill-rule:evenodd;"
d="M 31.5425,27.2380
31.5425,28.7620
28.5175,28.7620
28.5175,27.2380
Z" /> 
<path style="fill:#FFFFFF; fill-opacity:1.0000; stroke:none;fill-rule:evenodd;"
d="M 47.5125,24.6980
47.5125,26.2220
44.4875,26.2220
44.4875,24.6980
Z" /> 
<path style="fill:#FFFFFF; fill-opacity:1.0000; stroke:none;fill-rule:evenodd;"
d="M 47.5125,22.1580
47.5125,23.6820
44.4875,23.6820
44.4875,22.1580
Z" /> 
<path style="fill:#FFFFFF; fill-opacity:1.0000; stroke:none;fill-rule:evenodd;"
d="M 47.5125,19.6180
47.5125,21.1420
44.4875,21.1420
44.4875,19.6180
Z" /> 
<path style="fill:#FFFFFF; fill-opacity:1.0000; stroke:none;fill-rule:evenodd;"
d="M 47.5125,17.0780
47.5125,18.6020
44.4875,18.6020
44.4875,17.0780
Z" /> 
<path style="fill:#FFFFFF; fill-opacity:1.0000; stroke:none;fill-rule:evenodd;"
d="M 47.5125,14.5380
47.5125,16.0620
44.4875,16.0620
44.4875,14.5380
Z" /> 
<path style="fill:#FFFFFF; fill-opacity:1.0000; stroke:none;fill-rule:evenodd;"
d="M 47.5125,11.9980
47.5125,13.5220
44.4875,13.5220
44.4875,11.9980
Z" /> 
<path style="fill:#FFFFFF; fill-opacity:1.0000; stroke:none;fill-rule:evenodd;"
d="M 47.5125,9.4580
47.5125,10.9820
44.4875,10.9820
44.4875,9.4580
Z" /> 
<path style="fill:#FFFFFF; fill-opacity:1.0000; stroke:none;fill-rule:evenodd;"
d="M 31.5425,24.6980
31.5425,26.2220
28.5175,26.2220
28.5175,24.6980
Z" /> 
<path style="fill:#FFFFFF; fill-opacity:1.0000; stroke:none;fill-rule:evenodd;"
d="M 15.4110,15.8950
17.1890,15.8950
17.1890,19.7050
15.4110,19.7050
Z" /> 
<path style="fill:#FFFFFF; fill-opacity:1.0000; stroke:none;fill-rule:evenodd;"
d="M 12.8710,15.8950
14.6490,15.8950
14.6490,19.7050
12.8710,19.7050
Z" /> 
<path style="fill:#FFFFFF; fill-opacity:1.0000; stroke:none;fill-rule:evenodd;"
d="M 10.3310,15.8950
12.1090,15.8950
12.1090,19.7050
10.3310,19.7050
Z" /> 
<path style="fill:#FFFFFF; fill-opacity:1.0000; stroke:none;fill-rule:evenodd;"
d="M 13.7250,10.0450
13.7284,10.0278
13.7382,10.0132
13.7528,10.0034
13.7700,10.0000
15.0300,10.0000
15.0472,10.0034
15.0618,10.0132
15.0716,10.0278
15.0750,10.0450
15.0750,10.5550
15.0716,10.5722
15.0618,10.5868
15.0472,10.5966
15.0300,10.6000
13.7700,10.6000
13.7528,10.5966
13.7382,10.5868
13.7284,10.5722
13.7250,10.5550
Z" /> 
<path style="fill:#FFFFFF; fill-opacity:1.0000; stroke:none;fill-rule:evenodd;"
d="M 13.7250,10.9950
13.7284,10.9778
13.7382,10.9632
13.7528,10.9534
13.7700,10.9500
15.0300,10.9500
15.0472,10.9534
15.0618,10.9632
15.0716,10.9778
15.0750,10.9950
15.0750,11.5050
15.0716,11.5222
15.0618,11.5368
15.0472,11.5466
15.0300,11.5500
13.7700,11.5500
13.7528,11.5466
13.7382,11.5368
13.7284,11.5222
13.7250,11.5050
Z" /> 
<path style="fill:#FFFFFF; fill-opacity:1.0000; stroke:none;fill-rule:evenodd;"
d="M 13.7250,11.9450
13.7284,11.9278
13.7382,11.9132
13.7528,11.9034
13.7700,11.9000
15.0300,11.9000
15.0472,11.9034
15.0618,11.9132
15.0716,11.9278
15.0750,11.9450
15.0750,12.4550
15.0716,12.4722
15.0618,12.4868
15.0472,12.4966
15.0300,12.5000
13.7700,12.5000
13.7528,12.4966
13.7382,12.4868
13.7284,12.4722
13.7250,12.4550
Z" /> 
<path style="fill:#FFFFFF; fill-opacity:1.0000; stroke:none;fill-rule:evenodd;"
d="M 16.0950,11.9450
16.0984,11.9278
16.1082,11.9132
16.1228,11.9034
16.1400,11.9000
17.4000,11.9000
17.4172,11.9034
17.4318,11.9132
17.4416,11.9278
17.4450,11.9450
17.4450,12.4550
17.4416,12.4722
17.4318,12.4868
17.4172,12.4966
17.4000,12.5000
16.1400,12.5000
16.1228,12.4966
16.1082,12.4868
16.0984,12.4722
16.0950,12.4550
Z" /> 
<path style="fill:#FFFFFF; fill-opacity:1.0000; stroke:none;fill-rule:evenodd;"
d="M 16.0950,10.0450
16.0984,10.0278
16.1082,10.0132
16.1228,10.0034
16.1400,10.0000
17.4000,10.0000
17.4172,10.0034
17.4318,10.0132
17.4416,10.0278
17.4450,10.0450
17.4450,10.5550
17.4416,10.5722
17.4318,10.5868
17.4172,10.5966
17.4000,10.6000
16.1400,10.6000
16.1228,10.5966
16.1082,10.5868
16.0984,10.5722
16.0950,10.5550
Z" /> 
<path style="fill:#FFFFFF; fill-opacity:1.0000; stroke:none;fill-rule:evenodd;"
d="M 11.9250,8.3500
11.9079,8.4361
11.8591,8.5091
11.7861,8.5579
11.7000,8.5750
11.2500,8.5750
11.1639,8.5579
11.0909,8.5091
11.0421,8.4361
11.0250,8.3500
11.0250,7.8500
11.0421,7.7639
11.0909,7.6909
11.1639,7.6421
11.2500,7.6250
11.7000,7.6250
11.7861,7.6421
11.8591,7.6909
11.9079,7.7639
11.9250,7.8500
Z" /> 
<path style="fill:#FFFFFF; fill-opacity:1.0000; stroke:none;fill-rule:evenodd;"
d="M 10.3750,8.3500
10.3579,8.4361
10.3091,8.5091
10.2361,8.5579
10.1500,8.5750
9.7000,8.5750
9.6139,8.5579
9.5409,8.5091
9.4921,8.4361
9.4750,8.3500
9.4750,7.8500
9.4921,7.7639
9.5409,7.6909
9.6139,7.6421
9.7000,7.6250
10.1500,7.6250
10.2361,7.6421
10.3091,7.6909
10.3579,7.7639
10.3750,7.8500
Z" /> 
<path style="fill:#FFFFFF; fill-opacity:1.0000; stroke:none;fill-rule:evenodd;"
d="M 5.8500,19.7000
5.9457,19.7190
6.0268,19.7732
6.0810,19.8543
6.1000,19.9500
6.1000,20.4500
6.0810,20.5457
6.0268,20.6268
5.9457,20.6810
5.8500,20.7000
0.8500,20.7000
0.7543,20.6810
0.6732,20.6268
0.6190,20.5457
0.6000,20.4500
0.6000,19.9500
0.6190,19.8543
0.6732,19.7732
0.7543,19.7190
0.8500,19.7000
Z" /> 
<path style="fill:#FFFFFF; fill-opacity:1.0000; stroke:none;fill-rule:evenodd;"
d="M 5.8500,21.7000
5.9457,21.7190
6.0268,21.7732
6.0810,21.8543
6.1000,21.9500
6.1000,22.4500
6.0810,22.5457
6.0268,22.6268
5.9457,22.6810
5.8500,22.7000
0.8500,22.7000
0.7543,22.6810
0.6732,22.6268
0.6190,22.5457
0.6000,22.4500
0.6000,21.9500
0.6190,21.8543
0.6732,21.7732
0.7543,21.7190
0.8500,21.7000
Z" /> 
<path style="fill:#FFFFFF; fill-opacity:1.0000; stroke:none;fill-rule:evenodd;"
d="M 5.8500,23.7000
5.9457,23.7190
6.0268,23.7732
6.0810,23.8543
6.1000,23.9500
6.1000,24.4500
6.0810,24.5457
6.0268,24.6268
5.9457,24.6810
5.8500,24.7000
0.8500,24.7000
0.7543,24.6810
0.6732,24.6268
0.6190,24.5457
0.6000,24.4500
0.6000,23.9500
0.6190,23.8543
0.6732,23.7732
0.7543,23.7190
0.8500,23.7000
Z" /> 
<path style="fill:#FFFFFF; fill-opacity:1.0000; stroke:none;fill-rule:evenodd;"
d="M 6.8500,17.0000
6.9457,17.0190
7.0268,17.0732
7.0810,17.1543
7.1000,17.2500
7.1000,18.3500
7.0810,18.4457
7.0268,18.5268
6.9457,18.5810
6.8500,18.6000
4.3500,18.6000
4.2543,18.5810
4.1732,18.5268
4.1190,18.4457
4.1000,18.3500
4.1000,17.2500
4.1190,17.1543
4.1732,17.0732
4.2543,17.0190
4.3500,17.0000
Z" /> 
<path style="fill:#FFFFFF; fill-opacity:1.0000; stroke:none;fill-rule:evenodd;"
d="M 6.8500,25.8000
6.9457,25.8190
7.0268,25.8732
7.0810,25.9543
7.1000,26.0500
7.1000,27.1500
7.0810,27.2457
7.0268,27.3268
6.9457,27.3810
6.8500,27.4000
4.3500,27.4000
4.2543,27.3810
4.1732,27.3268
4.1190,27.2457
4.1000,27.1500
4.1000,26.0500
4.1190,25.9543
4.1732,25.8732
4.2543,25.8190
4.3500,25.8000
Z" /> 
<path style="fill:#FFFFFF; fill-opacity:1.0000; stroke:none;fill-rule:evenodd;"
d="M 24.9320,9.3180
24.9320,10.8420
22.3920,10.8420
22.3920,9.3180
Z" /> 
<path style="fill:#FFFFFF; fill-opacity:1.0000; stroke:none;fill-rule:evenodd;"
d="M 24.9320,6.7780
24.9320,8.3020
22.3920,8.3020
22.3920,6.7780
Z" /> 
<path style="fill:#FFFFFF; fill-opacity:1.0000; stroke:none;fill-rule:evenodd;"
d="M 24.4240,4.2380
24.4240,5.7620
21.8840,5.7620
21.8840,4.2380
Z" /> 
<path style="fill:#FFFFFF; fill-opacity:1.0000; stroke:none;fill-rule:evenodd;"
d="M 6.1750,9.5000
6.2707,9.5190
6.3518,9.5732
6.4060,9.6543
6.4250,9.7500
6.4250,10.2500
6.4060,10.3457
6.3518,10.4268
6.2707,10.4810
6.1750,10.5000
0.3250,10.5000
0.2293,10.4810
0.1482,10.4268
0.0940,10.3457
0.0750,10.2500
0.0750,9.7500
0.0940,9.6543
0.1482,9.5732
0.2293,9.5190
0.3250,9.5000
Z" /> 
<path style="fill:#FFFFFF; fill-opacity:1.0000; stroke:none;fill-rule:evenodd;"
d="M 6.1750,11.5000
6.2707,11.5190
6.3518,11.5732
6.4060,11.6543
6.4250,11.7500
6.4250,12.2500
6.4060,12.3457
6.3518,12.4268
6.2707,12.4810
6.1750,12.5000
0.3250,12.5000
0.2293,12.4810
0.1482,12.4268
0.0940,12.3457
0.0750,12.2500
0.0750,11.7500
0.0940,11.6543
0.1482,11.5732
0.2293,11.5190
0.3250,11.5000
Z" /> 
<path style="fill:#FFFFFF; fill-opacity:1.0000; stroke:none;fill-rule:evenodd;"
d="M 6.7500,6.8000
6.8457,6.8190
6.9268,6.8732
6.9810,6.9543
7.0000,7.0500
7.0000,8.1500
6.9810,8.2457
6.9268,8.3268
6.8457,8.3810
6.7500,8.4000
4.2500,8.4000
4.1543,8.3810
4.0732,8.3268
4.0190,8.2457
4.0000,8.1500
4.0000,7.0500
4.0190,6.9543
4.0732,6.8732
4.1543,6.8190
4.2500,6.8000
Z" /> 
<path style="fill:#FFFFFF; fill-opacity:1.0000; stroke:none;fill-rule:evenodd;"
d="M 6.7500,13.6000
6.8457,13.6190
6.9268,13.6732
6.9810,13.7543
7.0000,13.8500
7.0000,14.9500
6.9810,15.0457
6.9268,15.1268
6.8457,15.1810
6.7500,15.2000
4.2500,15.2000
4.1543,15.1810
4.0732,15.1268
4.0190,15.0457
4.0000,14.9500
4.0000,13.8500
4.0190,13.7543
4.0732,13.6732
4.1543,13.6190
4.2500,13.6000
Z" /> 
<path style="fill:#FFFFFF; fill-opacity:1.0000; stroke:none;fill-rule:evenodd;"
d="M 54.1550,16.2310
54.1550,18.0090
50.3450,18.0090
50.3450,16.2310
Z" /> 
<path style="fill:#FFFFFF; fill-opacity:1.0000; stroke:none;fill-rule:evenodd;"
d="M 54.1550,13.6910
54.1550,15.4690
50.3450,15.4690
50.3450,13.6910
Z" /> 
<path style="fill:#FFFFFF; fill-opacity:1.0000; stroke:none;fill-rule:evenodd;"
d="M 54.1550,11.1510
54.1550,12.9290
50.3450,12.9290
50.3450,11.1510
Z" /> 
<path style="fill:#FFFFFF; fill-opacity:1.0000; stroke:none;fill-rule:evenodd;"
d="M 54.1550,8.6110
54.1550,10.3890
50.3450,10.3890
50.3450,8.6110
Z" /> 
<path style="fill:#FFFFFF; fill-opacity:1.0000; stroke:none;fill-rule:evenodd;"
d="M 11.9250,5.4500
11.9079,5.5361
11.8591,5.6091
11.7861,5.6579
11.7000,5.6750
11.2500,5.6750
11.1639,5.6579
11.0909,5.6091
11.0421,5.5361
11.0250,5.4500
11.0250,4.9500
11.0421,4.8639
11.0909,4.7909
11.1639,4.7421
11.2500,4.7250
11.7000,4.7250
11.7861,4.7421
11.8591,4.7909
11.9079,4.8639
11.9250,4.9500
Z" /> 
<path style="fill:#FFFFFF; fill-opacity:1.0000; stroke:none;fill-rule:evenodd;"
d="M 10.3750,5.4500
10.3579,5.5361
10.3091,5.6091
10.2361,5.6579
10.1500,5.6750
9.7000,5.6750
9.6139,5.6579
9.5409,5.6091
9.4921,5.5361
9.4750,5.4500
9.4750,4.9500
9.4921,4.8639
9.5409,4.7909
9.6139,4.7421
9.7000,4.7250
10.1500,4.7250
10.2361,4.7421
10.3091,4.7909
10.3579,4.8639
10.3750,4.9500
Z" /> 
<path style="fill:#FFFFFF; fill-opacity:1.0000; stroke:none;fill-rule:evenodd;"
d="M 21.8950,24.0890
21.8950,22.3110
25.7050,22.3110
25.7050,24.0890
Z" /> 
<path style="fill:#FFFFFF; fill-opacity:1.0000; stroke:none;fill-rule:evenodd;"
d="M 21.8950,26.6290
21.8950,24.8510
25.7050,24.8510
25.7050,26.6290
Z" /> 
<path style="fill:#FFFFFF; fill-opacity:1.0000; stroke:none;fill-rule:evenodd;"
d="M 21.8950,29.1690
21.8950,27.3910
25.7050,27.3910
25.7050,29.1690
Z" /> 
</g>
<g style="fill:#FFFFFF; fill-opacity:1.0000; stroke:none;">
<circle cx="18.7000" cy="10.3000" r="0.7620" /> 
</g>
<g style="fill:#FFFFFF; fill-opacity:1.0000; stroke:none;">
<circle cx="18.7000" cy="5.0000" r="0.7620" /> 
</g>
<g style="fill:none; 
stroke:#FFFFFF; stroke-width:1.0160; stroke-opacity:1; 
stroke-linecap:round; stroke-linejoin:round;">
<path d="M16.0000 28.4000
L16.1200 28.2800
" />
<path d="M12.8900 25.2900
L16.0000 28.4000
" />
</g>
<g style="fill:none; 
stroke:#FFFFFF; stroke-width:1.2700; stroke-opacity:1; 
stroke-linecap:round; stroke-linejoin:round;">
<path d="M27.1195 28.0105
L26.8500 28.2800
" />
</g>
<g style="fill:none; 
stroke:#FFFFFF; stroke-width:1.7780; stroke-opacity:1; 
stroke-linecap:round; stroke-linejoin:round;">
<path d="M52.6400 30.3600
L41.5600 30.3600
" />
</g>
<g style="fill:none; 
stroke:#FFFFFF; stroke-width:1.2700; stroke-opacity:1; 
stroke-linecap:round; stroke-linejoin:round;">
<path d="M27.1195 25.8400
L27.1195 28.0105
" />
</g>
<g style="fill:none; 
stroke:#FFFFFF; stroke-width:1.7780; stroke-opacity:1; 
stroke-linecap:round; stroke-linejoin:round;">
<path d="M58.5400 12.0400
L52.2500 12.0400
" />
<path d="M58.7500 24.2500
L52.6400 30.3600
" />
<path d="M36.6600 25.4600
L30.0300 25.4600
" />
</g>
<g style="fill:none; 
stroke:#FFFFFF; stroke-width:1.2700; stroke-opacity:1; 
stroke-linecap:round; stroke-linejoin:round;">
<path d="M26.8500 28.2800
L23.8000 28.2800
" />
</g>
<g style="fill:none; 
stroke:#FFFFFF; stroke-width:1.0160; stroke-opacity:1; 
stroke-linecap:round; stroke-linejoin:round;">
<path d="M8.5577 25.2900
L7.4677 24.2000
" />
</g>
<g style="fill:none; 
stroke:#FFFFFF; stroke-width:0.2540; stroke-opacity:1; 
stroke-linecap:round; stroke-linejoin:round;">
<path d="M12.2500 11.2500
L11.9419 11.5581
" />
</g>
<g style="fill:none; 
stroke:#FFFFFF; stroke-width:1.7780; stroke-opacity:1; 
stroke-linecap:round; stroke-linejoin:round;">
<path d="M9.9000 2.0000
L9.2000 2.7000
" />
</g>
<g style="fill:none; 
stroke:#FFFFFF; stroke-width:1.2700; stroke-opacity:1; 
stroke-linecap:round; stroke-linejoin:round;">
<path d="M1.7000 5.4000
L6.5000 5.4000
" />
</g>
<g style="fill:none; 
stroke:#FFFFFF; stroke-width:1.0160; stroke-opacity:1; 
stroke-linecap:round; stroke-linejoin:round;">
<path d="M9.2000 6.6000
L9.4350 6.6000
" />
</g>
<g style="fill:none; 
stroke:#FFFFFF; stroke-width:1.7780; stroke-opacity:1; 
stroke-linecap:round; stroke-linejoin:round;">
<path d="M58.7500 12.2500
L58.7500 24.2500
" />
</g>
<g style="fill:none; 
stroke:#FFFFFF; stroke-width:1.2700; stroke-opacity:1; 
stroke-linecap:round; stroke-linejoin:round;">
<path d="M30.0300 25.4600
L27.4995 25.4600
" />
</g>
<g style="fill:none; 
stroke:#FFFFFF; stroke-width:1.0160; stroke-opacity:1; 
stroke-linecap:round; stroke-linejoin:round;">
<path d="M9.2000 11.5581
L11.9419 11.5581
" />
</g>
<g style="fill:none; 
stroke:#FFFFFF; stroke-width:0.6350; stroke-opacity:1; 
stroke-linecap:round; stroke-linejoin:round;">
<path d="M14.4000 11.2500
L12.2500 11.2500
" />
</g>
<g style="fill:none; 
stroke:#FFFFFF; stroke-width:1.0160; stroke-opacity:1; 
stroke-linecap:round; stroke-linejoin:round;">
<path d="M9.2000 6.6000
L9.2000 10.0000
" />
<path d="M11.9419 11.5581
L12.5000 11.3000
" />
</g>
<g style="fill:none; 
stroke:#FFFFFF; stroke-width:1.7780; stroke-opacity:1; 
stroke-linecap:round; stroke-linejoin:round;">
<path d="M58.7500 6.3710
L53.7500 2.0000
" />
<path d="M58.7500 12.2500
L58.5400 12.0400
" />
<path d="M41.5600 30.3600
L36.6600 25.4600
" />
</g>
<g style="fill:none; 
stroke:#FFFFFF; stroke-width:1.2700; stroke-opacity:1; 
stroke-linecap:round; stroke-linejoin:round;">
<path d="M1.7000 8.4500
L1.7000 5.4000
" />
</g>
<g style="fill:none; 
stroke:#FFFFFF; stroke-width:1.0160; stroke-opacity:1; 
stroke-linecap:round; stroke-linejoin:round;">
<path d="M3.2500 10.0000
L9.2000 10.0000
" />
<path d="M8.5577 25.2900
L12.8900 25.2900
" />
<path d="M9.2000 10.0000
L9.2000 11.5581
" />
</g>
<g style="fill:none; 
stroke:#FFFFFF; stroke-width:1.2700; stroke-opacity:1; 
stroke-linecap:round; stroke-linejoin:round;">
<path d="M27.4995 25.4600
L27.1195 25.8400
" />
</g>
<g style="fill:none; 
stroke:#FFFFFF; stroke-width:1.7780; stroke-opacity:1; 
stroke-linecap:round; stroke-linejoin:round;">
<path d="M53.7500 2.0000
L9.9000 2.0000
" />
</g>
<g style="fill:none; 
stroke:#FFFFFF; stroke-width:1.0160; stroke-opacity:1; 
stroke-linecap:round; stroke-linejoin:round;">
<path d="M7.4677 24.2000
L3.3500 24.2000
" />
</g>
<g style="fill:none; 
stroke:#FFFFFF; stroke-width:1.2700; stroke-opacity:1; 
stroke-linecap:round; stroke-linejoin:round;">
<path d="M6.5000 5.4000
L9.2000 2.7000
" />
</g>
<g style="fill:none; 
stroke:#FFFFFF; stroke-width:1.0160; stroke-opacity:1; 
stroke-linecap:round; stroke-linejoin:round;">
<path d="M9.2000 2.7000
L9.2000 6.6000
" />
</g>
<g style="fill:none; 
stroke:#FFFFFF; stroke-width:1.7780; stroke-opacity:1; 
stroke-linecap:round; stroke-linejoin:round;">
<path d="M58.7500 12.2500
L58.7500 6.3710
" />
</g>
<g style="fill:none; 
stroke:#FFFFFF; stroke-width:1.0160; stroke-opacity:1; 
stroke-linecap:round; stroke-linejoin:round;">
<path d="M16.1200 28.2800
L23.8000 28.2800
" />
</g>
<g style="fill:none; 
stroke:#FFFFFF; stroke-width:1.2700; stroke-opacity:1; 
stroke-linecap:round; stroke-linejoin:round;">
<path d="M3.2500 10.0000
L1.7000 8.4500
" />
</g>
<g style="fill:none; 
stroke:#FFFFFF; stroke-width:1.7780; stroke-opacity:1; 
stroke-linecap:round; stroke-linejoin:round;">
<path d="M40.8750 4.6250
L38.5000 7.0000
" />
</g>
<g style="fill:none; 
stroke:#FFFFFF; stroke-width:1.5240; stroke-opacity:1; 
stroke-linecap:round; stroke-linejoin:round;">
<path d="M34.6800 22.9200
L38.5000 19.1000
" />
</g>
<g style="fill:none; 
stroke:#FFFFFF; stroke-width:1.7780; stroke-opacity:1; 
stroke-linecap:round; stroke-linejoin:round;">
<path d="M50.2500 4.7500
L40.8750 4.6250
" />
<path d="M28.0000 5.1000
L23.0000 5.1000
" />
<path d="M38.5000 7.0000
L29.9000 7.0000
" />
<path d="M22.9000 5.0000
L13.7000 5.0000
" />
<path d="M52.2500 9.5000
L52.2500 6.0000
" />
<path d="M52.2500 6.0000
L50.2500 4.7500
" />
</g>
<g style="fill:none; 
stroke:#FFFFFF; stroke-width:1.0160; stroke-opacity:1; 
stroke-linecap:round; stroke-linejoin:round;">
<path d="M11.7730 5.0000
L11.7730 5.2000
" />
</g>
<g style="fill:none; 
stroke:#FFFFFF; stroke-width:1.7780; stroke-opacity:1; 
stroke-linecap:round; stroke-linejoin:round;">
<path d="M29.9000 7.0000
L28.0000 5.1000
" />
</g>
<g style="fill:none; 
stroke:#FFFFFF; stroke-width:1.0160; stroke-opacity:1; 
stroke-linecap:round; stroke-linejoin:round;">
<path d="M11.7730 5.0000
L13.7000 5.0000
" />
</g>
<g style="fill:none; 
stroke:#FFFFFF; stroke-width:1.7780; stroke-opacity:1; 
stroke-linecap:round; stroke-linejoin:round;">
<path d="M23.0000 5.1000
L22.9000 5.0000
" />
</g>
<g style="fill:none; 
stroke:#FFFFFF; stroke-width:1.5240; stroke-opacity:1; 
stroke-linecap:round; stroke-linejoin:round;">
<path d="M38.5000 19.1000
L38.5000 16.0000
" />
</g>
<g style="fill:none; 
stroke:#FFFFFF; stroke-width:1.2700; stroke-opacity:1; 
stroke-linecap:round; stroke-linejoin:round;">
<path d="M30.0300 22.9200
L24.0800 22.9200
" />
</g>
<g style="fill:none; 
stroke:#FFFFFF; stroke-width:1.0160; stroke-opacity:1; 
stroke-linecap:round; stroke-linejoin:round;">
<path d="M16.7700 10.3000
L18.7000 10.3000
" />
</g>
<g style="fill:none; 
stroke:#FFFFFF; stroke-width:1.7780; stroke-opacity:1; 
stroke-linecap:round; stroke-linejoin:round;">
<path d="M38.5000 7.0000
L38.5000 16.0000
" />
</g>
<g style="fill:none; 
stroke:#FFFFFF; stroke-width:1.5240; stroke-opacity:1; 
stroke-linecap:round; stroke-linejoin:round;">
<path d="M30.0300 22.9200
L34.6800 22.9200
" />
</g>
<g style="fill:none; 
stroke:#FFFFFF; stroke-width:1.0160; stroke-opacity:1; 
stroke-linecap:round; stroke-linejoin:round;">
<path d="M26.8000 21.0000
L24.3000 21.0000
" />
<path d="M26.8000 19.2000
L26.8000 21.0000
" />
<path d="M30.0300 17.8400
L28.1600 17.8400
" />
<path d="M21.1330 25.7400
L23.8000 25.7400
" />
<path d="M24.3000 21.0000
L21.0050 21.5000
" />
<path d="M21.0050 21.5000
L21.0050 25.6120
" />
</g>
<g style="fill:none; 
stroke:#FFFFFF; stroke-width:0.7620; stroke-opacity:1; 
stroke-linecap:round; stroke-linejoin:round;">
<path d="M21.0050 25.6120
L21.1330 25.7400
" />
</g>
<g style="fill:none; 
stroke:#FFFFFF; stroke-width:1.0160; stroke-opacity:1; 
stroke-linecap:round; stroke-linejoin:round;">
<path d="M28.1600 17.8400
L26.8000 19.2000
" />
<path d="M49.5830 14.5800
L49.1000 15.0630
" />
<path d="M48.9600 17.8400
L46.0000 17.8400
" />
</g>
<g style="fill:none; 
stroke:#FFFFFF; stroke-width:0.7620; stroke-opacity:1; 
stroke-linecap:round; stroke-linejoin:round;">
<path d="M49.1000 17.7000
L48.9600 17.8400
" />
</g>
<g style="fill:none; 
stroke:#FFFFFF; stroke-width:1.0160; stroke-opacity:1; 
stroke-linecap:round; stroke-linejoin:round;">
<path d="M52.2500 14.5800
L49.5830 14.5800
" />
<path d="M49.1000 15.0630
L49.1000 17.7000
" />
</g>
<g style="fill:none; 
stroke:#FFFFFF; stroke-width:0.7620; stroke-opacity:1; 
stroke-linecap:round; stroke-linejoin:round;">
<path d="M50.8000 20.4000
L50.7800 20.3800
" />
</g>
<g style="fill:none; 
stroke:#FFFFFF; stroke-width:1.0160; stroke-opacity:1; 
stroke-linecap:round; stroke-linejoin:round;">
<path d="M50.7800 20.3800
L46.0000 20.3800
" />
<path d="M52.2500 18.9500
L50.8000 20.4000
" />
<path d="M52.2500 17.1200
L52.2500 18.9500
" />
</g>
<g style="fill:none; 
stroke:#FFFFFF; stroke-width:0.7620; stroke-opacity:1; 
stroke-linecap:round; stroke-linejoin:round;">
<path d="M21.2710 19.3290
L18.6000 22.0000
" />
<path d="M30.0300 15.3000
L28.5155 15.3000
" />
<path d="M28.5155 15.3000
L24.4865 19.3290
" />
<path d="M17.6000 22.2000
L3.3500 22.2000
" />
<path d="M18.6000 22.0000
L18.6000 22.2000
" />
<path d="M24.4865 19.3290
L21.2710 19.3290
" />
<path d="M18.6000 22.2000
L17.8000 22.2000
" />
</g>
<g style="fill:none; 
stroke:#FFFFFF; stroke-width:1.0160; stroke-opacity:1; 
stroke-linecap:round; stroke-linejoin:round;">
<path d="M7.4000 12.0000
L10.2780 14.8780
" />
<path d="M3.2500 12.0000
L7.4000 12.0000
" />
<path d="M13.7600 15.5120
L13.7600 17.8000
" />
<path d="M13.1260 14.8780
L13.7600 15.5120
" />
<path d="M10.2780 14.8780
L13.1260 14.8780
" />
</g>
<g style="fill:none; 
stroke:#FFFFFF; stroke-width:0.7620; stroke-opacity:1; 
stroke-linecap:round; stroke-linejoin:round;">
<path d="M27.4000 13.6045
L27.4000 14.6000
" />
<path d="M20.7445 18.0580
L17.8735 20.9290
" />
<path d="M30.0300 12.7600
L28.2445 12.7600
" />
<path d="M17.8735 20.9290
L7.8000 20.9290
" />
<path d="M7.8000 20.9290
L7.0710 20.2000
" />
<path d="M23.9420 18.0580
L20.7445 18.0580
" />
<path d="M28.2445 12.7600
L27.4000 13.6045
" />
<path d="M27.4000 14.6000
L23.9420 18.0580
" />
<path d="M7.0710 20.2000
L3.3500 20.2000
" />
<path d="M26.2400 7.5400
L26.3000 7.6000
" />
</g>
<g style="fill:none; 
stroke:#FFFFFF; stroke-width:1.2700; stroke-opacity:1; 
stroke-linecap:round; stroke-linejoin:round;">
<path d="M26.3000 7.6000
L26.3000 11.5000
" />
<path d="M22.9000 7.5400
L26.2400 7.5400
" />
<path d="M25.8220 13.1780
L22.6000 16.4000
" />
<path d="M22.6000 16.4000
L19.5000 16.4000
" />
<path d="M18.1000 17.8000
L16.3000 17.8000
" />
<path d="M26.1000 12.1000
L25.8220 13.1780
" />
<path d="M19.5000 16.4000
L18.1000 17.8000
" />
<path d="M26.3000 11.5000
L26.1000 12.1000
" />
<path d="M22.9000 10.0800
L21.1800 10.0800
" />
<path d="M22.9000 10.0800
L22.9000 10.6000
" />
</g>
<g style="fill:none; 
stroke:#FFFFFF; stroke-width:0.5334; stroke-opacity:1; 
stroke-linecap:round; stroke-linejoin:round;">
<path d="M15.1000 13.7000
L15.0000 13.8000
" />
</g>
<g style="fill:none; 
stroke:#FFFFFF; stroke-width:1.2700; stroke-opacity:1; 
stroke-linecap:round; stroke-linejoin:round;">
<path d="M19.8000 13.7000
L18.0000 13.7000
" />
</g>
<g style="fill:none; 
stroke:#FFFFFF; stroke-width:0.5334; stroke-opacity:1; 
stroke-linecap:round; stroke-linejoin:round;">
<path d="M15.0000 13.8000
L14.7000 13.5000
" />
</g>
<g style="fill:none; 
stroke:#FFFFFF; stroke-width:1.0160; stroke-opacity:1; 
stroke-linecap:round; stroke-linejoin:round;">
<path d="M11.4750 8.1000
L13.1157 9.0157
" />
</g>
<g style="fill:none; 
stroke:#FFFFFF; stroke-width:0.5334; stroke-opacity:1; 
stroke-linecap:round; stroke-linejoin:round;">
<path d="M18.0000 13.7000
L15.1000 13.7000
" />
</g>
<g style="fill:none; 
stroke:#FFFFFF; stroke-width:1.2700; stroke-opacity:1; 
stroke-linecap:round; stroke-linejoin:round;">
<path d="M21.1800 10.0800
L19.2000 8.1000
" />
</g>
<g style="fill:none; 
stroke:#FFFFFF; stroke-width:0.5334; stroke-opacity:1; 
stroke-linecap:round; stroke-linejoin:round;">
<path d="M14.7000 12.5000
L14.4000 12.2000
" />
</g>
<g style="fill:none; 
stroke:#FFFFFF; stroke-width:1.2700; stroke-opacity:1; 
stroke-linecap:round; stroke-linejoin:round;">
<path d="M22.9000 10.6000
L19.8000 13.7000
" />
</g>
<g style="fill:none; 
stroke:#FFFFFF; stroke-width:0.5334; stroke-opacity:1; 
stroke-linecap:round; stroke-linejoin:round;">
<path d="M14.7000 13.5000
L14.7000 12.5000
" />
</g>
<g style="fill:none; 
stroke:#FFFFFF; stroke-width:1.2700; stroke-opacity:1; 
stroke-linecap:round; stroke-linejoin:round;">
<path d="M19.2000 8.1000
L11.4750 8.1000
" />
</g>
<g style="fill:none; 
stroke:#FFFFFF; stroke-width:0.7620; stroke-opacity:1; 
stroke-linecap:round; stroke-linejoin:round;">
<path d="M13.1157 9.0157
L14.1600 10.0600
" />
<path style="fill:#FFFFFF; fill-opacity:1.0000; stroke:none;fill-rule:evenodd;"
d="M 59.0924,1.0244
59.1892,1.0437
59.2712,1.0986
59.3260,1.1807
59.3453,1.2775
59.3260,1.3742
59.2746,1.4983
59.2746,1.4983
59.2040,1.7619
59.2040,1.7619
59.1684,2.0324
59.1684,2.3053
59.2040,2.5758
59.2040,2.5758
59.2746,2.8394
59.2746,2.8394
59.2746,2.8394
59.2746,2.8394
59.2769,2.8450
59.3790,3.0915
59.3790,3.0915
59.5005,3.3019
59.5155,3.3278
59.6816,3.5443
59.8745,3.7373
60.0910,3.9034
60.1479,3.9362
60.3273,4.0398
60.3273,4.0398
60.3273,4.0398
60.3273,4.0398
60.5794,4.1443
60.5794,4.1443
60.5795,4.1443
60.8430,4.2149
60.8430,4.2149
61.1136,4.2505
61.1136,4.2505
61.3864,4.2505
61.3864,4.2505
61.6570,4.2149
61.9206,4.1443
62.1272,4.0587
62.2240,4.0394
62.3208,4.0587
62.4029,4.1135
62.4577,4.1956
62.4770,4.2922
62.4971,27.3845
62.4779,27.4814
62.4231,27.5635
62.3411,27.6184
62.2443,27.6378
62.1475,27.6186
62.1473,27.6185
61.9206,27.5246
61.9205,27.5246
61.6570,27.4540
61.3864,27.4184
61.1136,27.4184
61.1136,27.4184
60.8430,27.4540
60.8430,27.4540
60.5795,27.5246
60.5794,27.5246
60.3273,27.6290
60.3273,27.6290
60.0910,27.7655
60.0910,27.7655
59.8745,27.9316
59.6816,28.1245
59.5155,28.3410
59.5155,28.3410
59.3790,28.5773
59.3790,28.5773
59.2746,28.8294
59.2746,28.8295
59.2040,29.0930
59.2040,29.0930
59.1684,29.3636
59.1684,29.6364
59.2040,29.9070
59.2040,29.9070
59.2746,30.1705
59.2746,30.1706
59.2746,30.1706
59.2746,30.1706
59.3372,30.3217
59.3760,30.4154
59.3953,30.5123
59.3760,30.6091
59.3212,30.6912
59.2391,30.7460
59.1434,30.7653
4.0184,31.0160
3.9215,30.9971
3.8392,30.9427
3.7840,30.8609
3.7643,30.7641
3.7831,30.6672
3.7944,30.6441
3.7944,30.6441
3.7980,30.6367
3.7980,30.6367
3.7980,30.6367
3.8984,30.3944
3.9012,30.3841
3.9663,30.1411
3.9663,30.1411
3.9663,30.1411
3.9875,29.9795
4.0005,29.8811
4.0005,29.8811
4.0005,29.6189
4.0005,29.6189
3.9737,29.4150
3.9663,29.3589
3.9584,29.3295
3.9284,29.2176
21.3870,29.2176
21.3935,29.2781
21.3935,29.2781
21.4446,29.4150
21.4446,29.4150
21.5321,29.5319
21.5321,29.5319
21.6490,29.6194
21.6490,29.6194
21.7859,29.6705
21.7859,29.6705
21.8464,29.6770
21.8464,29.6770
23.5460,29.6770
24.0540,29.6770
25.7536,29.6770
25.7536,29.6770
25.8141,29.6705
25.8141,29.6705
25.9510,29.6194
25.9510,29.6194
26.0679,29.5319
26.0679,29.5319
26.1554,29.4150
26.1554,29.4150
26.2065,29.2781
26.2065,29.2781
26.2130,29.2176
26.2130,29.2176
26.2130,28.5340
24.0540,28.5340
24.0540,29.6770
23.5460,29.6770
23.5460,28.5340
21.3870,28.5340
21.3870,29.2176
3.9284,29.2176
3.8984,29.1056
3.8984,29.1056
3.8984,29.1056
3.7980,28.8633
3.7280,28.7420
3.6963,28.6485
3.7027,28.5500
3.7464,28.4615
3.8206,28.3964
3.9141,28.3646
4.0089,28.3701
4.1511,28.4060
4.2744,28.4157
4.2850,28.4165
4.2850,28.4165
6.9150,28.4165
6.9248,28.4157
7.0489,28.4060
7.0489,28.4060
7.0489,28.4060
7.2700,28.3503
7.2700,28.3503
7.2700,28.3503
7.2700,28.3503
7.2700,28.3503
7.3668,28.3063
7.4776,28.2560
7.4808,28.2537
23.7365,28.2537
23.7365,28.3063
23.7737,28.3435
23.8263,28.3435
23.8635,28.3063
23.8635,28.2537
23.8263,28.2165
23.7737,28.2165
23.7365,28.2537
7.4808,28.2537
7.6649,28.1262
7.8262,27.9649
7.9560,27.7776
8.0068,27.6657
8.0503,27.5700
8.0503,27.5700
8.1060,27.3489
8.1060,27.3489
8.1060,27.3489
8.1165,27.2150
8.1165,25.9850
8.1060,25.8511
8.1060,25.8511
8.1060,25.8511
8.0503,25.6300
8.0503,25.6300
7.9560,25.4225
7.9560,25.4224
7.9156,25.3642
7.8586,25.2819
7.8262,25.2350
7.6649,25.0738
7.6477,25.0619
7.4776,24.9440
7.4775,24.9440
7.2700,24.8497
7.2700,24.8497
7.0489,24.7940
7.0489,24.7940
6.9150,24.7835
6.9150,24.7835
6.8593,24.7835
6.7624,24.7642
6.6804,24.7094
6.6255,24.6273
6.6063,24.5305
6.6076,24.5048
6.6080,24.5005
6.6080,24.5005
6.6080,24.4540
3.6030,24.4540
3.5062,24.4347
3.4241,24.3799
3.3693,24.2978
3.3500,24.2010
3.3500,24.1990
3.3693,24.1022
3.4241,24.0201
3.5062,23.9653
3.6030,23.9460
6.6080,23.9460
6.6080,23.8995
6.6080,23.8995
6.6056,23.8762
6.6149,23.7779
6.6612,23.6907
6.7372,23.6278
6.8316,23.5988
6.8573,23.5975
18.7100,23.5975
18.7100,23.5975
18.9272,23.5631
19.1365,23.4951
19.1365,23.4951
19.1459,23.4920
19.1466,23.4943
19.2275,23.4782
19.3243,23.4975
19.4064,23.5523
19.4612,23.6344
19.4805,23.7312
19.4805,25.7320
19.4994,25.8511
19.5180,25.9690
19.5668,26.1191
19.5922,26.1972
19.7011,26.4110
19.7011,26.4110
19.8422,26.6051
20.1399,26.9028
20.3269,27.0387
20.3340,27.0439
20.5478,27.1528
20.7760,27.2270
21.0130,27.2645
21.0198,27.2656
21.1124,27.2997
21.1445,27.3230
21.1616,27.3376
21.1727,27.3513
21.2964,27.4527
21.2983,27.4543
21.3273,27.4912
21.3571,27.5275
21.3578,27.5299
21.3594,27.5318
21.3722,27.5770
21.3858,27.6219
21.3860,27.6260
21.3862,27.6268
21.3861,27.6280
21.3870,27.6467
21.3870,28.0260
26.2130,28.0260
26.2130,27.6467
26.2323,27.5499
26.2871,27.4678
26.3055,27.4512
26.4273,27.3513
26.5543,27.1965
26.5588,27.1881
27.5010,27.1881
27.5010,28.8119
27.5157,28.9613
27.5738,29.1529
27.5738,29.1529
27.6084,29.2176
27.6682,29.3295
27.7952,29.4843
27.9500,29.6113
28.1266,29.7057
28.3182,29.7638
28.3182,29.7638
28.3472,29.7666
28.4676,29.7785
28.4676,29.7785
31.5924,29.7785
31.5924,29.7785
31.7418,29.7638
31.9334,29.7057
32.1100,29.6113
32.2648,29.4843
32.3918,29.3295
32.4862,29.1529
32.5443,28.9613
32.5590,28.8119
32.5590,27.1881
32.5443,27.0387
32.4862,26.8471
32.3918,26.6705
32.2648,26.5157
32.2648,26.5157
32.1430,26.4158
32.0804,26.3395
32.0517,26.2451
32.0505,26.2203
32.0505,25.7140
28.0095,25.7140
28.0095,26.2203
27.9902,26.3171
27.9354,26.3992
27.9170,26.4158
27.7952,26.5157
27.7952,26.5157
27.6682,26.6705
27.5738,26.8471
27.5738,26.8471
27.5157,27.0387
27.5010,27.1881
26.5588,27.1881
26.6487,27.0199
26.7068,26.8283
26.7215,26.6789
26.7215,24.8245
26.7408,24.7277
26.7956,24.6456
26.8777,24.5908
26.9745,24.5715
27.7565,24.5715
27.8533,24.5908
27.9354,24.6456
27.9902,24.7277
28.0095,24.8245
28.0095,25.2060
32.0505,25.2060
32.0505,24.9515
32.0698,24.8547
32.1246,24.7726
32.2067,24.7178
32.3035,24.6985
34.7966,24.6985
34.7966,24.6985
35.0277,24.6681
35.2529,24.6077
35.4683,24.5185
35.5861,24.4505
35.6702,24.4019
35.8552,24.2600
36.0200,24.0952
39.8400,20.2752
39.8442,20.2697
39.8516,20.2600
39.8516,20.2600
39.9819,20.0902
40.0668,19.9431
40.0985,19.8883
40.0985,19.8883
40.1877,19.6729
40.1877,19.6729
40.1877,19.6729
40.1877,19.6729
40.1902,19.6635
40.2481,19.4477
40.2785,19.2166
40.2785,18.9834
40.2785,16.7360
40.2978,16.6391
40.3082,16.6138
40.3729,16.3725
40.4055,16.1249
40.4055,9.4081
43.4710,9.4081
43.4710,11.0319
43.4857,11.1813
43.5438,11.3729
43.5486,11.3844
43.5470,11.3850
43.5713,11.4652
43.5617,11.5634
43.5484,11.5955
43.5486,11.5956
43.5438,11.6071
43.4857,11.7987
43.4710,11.9481
43.4710,13.5719
43.4857,13.7213
43.5438,13.9129
43.5486,13.9244
43.5470,13.9250
43.5713,14.0052
43.5617,14.1034
43.5484,14.1355
43.5486,14.1356
43.5438,14.1471
43.4857,14.3387
43.4710,14.4881
43.4710,16.1119
43.4857,16.2613
43.5438,16.4529
43.5486,16.4644
43.5470,16.4650
43.5713,16.5452
43.5617,16.6434
43.5484,16.6755
43.5486,16.6756
43.5438,16.6871
43.4857,16.8787
43.4710,17.0281
43.4710,18.6519
43.4857,18.8013
43.5438,18.9929
43.5486,19.0044
43.5470,19.0050
43.5713,19.0852
43.5617,19.1834
43.5484,19.2155
43.5486,19.2156
43.5438,19.2271
43.4857,19.4187
43.4710,19.5681
43.4710,21.1919
43.4857,21.3413
43.5438,21.5329
43.5486,21.5444
43.5470,21.5450
43.5713,21.6252
43.5617,21.7234
43.5484,21.7555
43.5486,21.7556
43.5438,21.7671
43.4857,21.9587
43.4710,22.1081
43.4710,23.7319
43.4857,23.8813
43.5438,24.0729
43.5486,24.0844
43.5470,24.0850
43.5713,24.1652
43.5617,24.2634
43.5484,24.2955
43.5486,24.2956
43.5438,24.3071
43.4857,24.4987
43.4710,24.6481
43.4710,26.2719
43.4857,26.4213
43.5438,26.6129
43.5486,26.6244
43.5470,26.6250
43.5713,26.7052
43.5617,26.8034
43.5484,26.8355
43.5486,26.8356
43.5438,26.8471
43.4857,27.0387
43.4710,27.1881
43.4710,28.8119
43.4857,28.9613
43.5438,29.1529
43.5438,29.1529
43.5784,29.2176
43.6382,29.3295
43.7652,29.4843
43.9200,29.6113
44.0966,29.7057
44.2882,29.7638
44.2882,29.7638
44.3172,29.7666
44.4376,29.7785
44.4376,29.7785
47.5624,29.7785
47.5624,29.7785
47.7118,29.7638
47.9034,29.7057
48.0800,29.6113
48.2348,29.4843
48.3618,29.3295
48.4562,29.1529
48.5143,28.9613
48.5290,28.8119
48.5290,27.1881
48.5143,27.0387
48.4562,26.8471
48.4562,26.8471
48.4514,26.8356
48.4530,26.8350
48.4287,26.7548
48.4383,26.6566
48.4516,26.6245
48.4514,26.6244
48.4562,26.6129
48.4562,26.6129
48.5143,26.4213
48.5290,26.2719
48.5290,24.6481
48.5143,24.4987
48.4562,24.3071
48.4562,24.3071
48.4514,24.2956
48.4530,24.2950
48.4287,24.2148
48.4383,24.1166
48.4516,24.0845
48.4514,24.0844
48.4562,24.0729
48.4562,24.0729
48.5143,23.8813
48.5290,23.7319
48.5290,22.1575
48.5483,22.0607
48.6031,21.9786
48.6852,21.9238
48.7820,21.9045
50.5338,21.9045
50.5734,21.9076
50.5985,21.9116
50.6800,21.9245
50.6800,21.9245
50.9200,21.9245
50.9200,21.9245
51.1570,21.8870
51.3852,21.8128
51.5990,21.7039
51.7931,21.5628
53.4128,19.9431
53.5539,19.7490
53.6628,19.5352
53.7370,19.3070
53.7477,19.2389
53.7819,19.1463
53.8489,19.0738
53.9386,19.0325
53.9976,19.0255
54.2049,19.0255
54.2049,19.0255
54.3543,19.0108
54.5459,18.9527
54.7225,18.8583
54.8773,18.7313
55.0043,18.5765
55.0987,18.3999
55.1568,18.2083
55.1715,18.0589
55.1715,16.1811
55.1568,16.0317
55.1239,15.9234
55.1143,15.8252
55.1239,15.7766
55.1275,15.7650
55.1568,15.6683
55.1715,15.5189
55.1715,13.6411
55.1568,13.4917
55.0987,13.3001
55.0043,13.1235
54.8773,12.9687
54.8773,12.9687
54.7555,12.8688
54.6929,12.7925
54.6642,12.6981
54.6630,12.6733
54.6630,12.2940
49.8370,12.2940
49.8370,12.6733
49.8350,12.6831
49.8362,12.6932
49.8255,12.7313
49.8177,12.7701
49.8121,12.7785
49.8094,12.7882
49.7873,12.8156
49.7629,12.8522
49.7483,12.8657
49.7464,12.8673
49.6227,12.9687
49.6116,12.9824
49.5945,12.9970
49.5706,13.0103
49.5494,13.0277
49.5248,13.0359
49.5083,13.0452
49.4914,13.0472
49.4698,13.0544
49.2260,13.0930
49.0112,13.1628
48.9978,13.1672
48.9978,13.1672
48.8969,13.2186
48.8018,13.2454
48.7038,13.2338
48.6177,13.1856
48.5566,13.1081
48.5298,13.0130
48.5290,12.9932
48.5290,12.0137
52.1865,12.0137
52.1865,12.0663
52.2237,12.1035
52.2763,12.1035
52.3135,12.0663
52.3135,12.0137
52.2763,11.9765
52.2237,11.9765
52.1865,12.0137
48.5290,12.0137
48.5290,11.9481
48.5290,11.9481
48.5265,11.9227
48.5143,11.7987
48.4562,11.6071
48.4562,11.6071
48.4514,11.5956
48.4530,11.5950
48.4287,11.5148
48.4383,11.4166
48.4516,11.3845
48.4514,11.3844
48.4562,11.3729
48.4562,11.3729
48.5143,11.1813
48.5290,11.0319
48.5290,9.4081
48.5143,9.2587
48.4562,9.0671
48.3618,8.8905
48.2348,8.7357
48.2326,8.7340
48.1448,8.6619
48.0800,8.6087
47.9034,8.5143
47.7118,8.4562
47.7118,8.4562
47.7118,8.4562
47.5624,8.4415
47.5624,8.4415
44.4376,8.4415
44.4376,8.4415
44.2882,8.4562
44.0966,8.5143
44.0966,8.5143
43.9200,8.6087
43.7652,8.7357
43.7652,8.7357
43.6382,8.8905
43.5438,9.0671
43.5438,9.0671
43.4857,9.2587
43.4710,9.4081
40.4055,9.4081
40.4055,7.8941
40.4248,7.7973
40.4796,7.7152
41.5782,6.6166
41.6603,6.5617
41.7571,6.5425
41.7604,6.5425
49.6211,6.6473
49.7177,6.6678
49.7519,6.6857
50.2256,6.9818
50.2465,7.0015
50.2704,7.0174
50.2821,7.0350
50.2975,7.0494
50.3093,7.0756
50.3252,7.0995
50.3294,7.1202
50.3380,7.1395
50.3445,7.1963
50.3445,7.3620
50.3252,7.4589
50.2704,7.5409
50.1883,7.5958
50.1575,7.6051
50.1576,7.6056
49.9541,7.6673
49.9541,7.6673
49.7775,7.7617
49.6227,7.8887
49.6227,7.8887
49.4957,8.0435
49.4013,8.2201
49.4013,8.2201
49.3432,8.4117
49.3285,8.5611
49.3285,10.4389
49.3432,10.5883
49.4013,10.7799
49.4013,10.7799
49.4320,10.8372
49.4957,10.9565
49.6227,11.1113
49.7081,11.1813
49.7445,11.2112
49.8071,11.2875
49.8358,11.3819
49.8370,11.4067
49.8370,11.7860
54.6630,11.7860
54.6630,11.4067
54.6823,11.3099
54.7371,11.2278
54.7555,11.2112
54.7919,11.1813
54.8773,11.1113
55.0043,10.9565
55.0987,10.7799
55.1568,10.5883
55.1715,10.4389
55.1715,8.5611
55.1568,8.4117
55.0987,8.2201
55.0043,8.0435
54.8773,7.8887
54.7225,7.7617
54.5459,7.6673
54.3543,7.6092
54.3543,7.6092
54.3424,7.6056
54.3430,7.6035
54.2679,7.5724
54.1981,7.5026
54.1604,7.4114
54.1555,7.3620
54.1555,6.0333
54.1587,5.9419
54.1555,5.9086
54.1555,5.8751
54.1441,5.7887
54.1431,5.7799
54.1348,5.6932
54.1300,5.6725
54.1300,5.6725
54.1273,5.6606
54.1229,5.6275
54.0992,5.5390
54.0786,5.4498
54.0669,5.4185
54.0582,5.3862
54.0232,5.3016
53.9912,5.2159
53.9812,5.1970
53.9708,5.1751
53.9627,5.1554
53.9627,5.1554
53.9191,5.0799
53.9169,5.0761
53.8739,4.9953
53.8545,4.9681
53.8378,4.9391
53.7820,4.8665
53.7289,4.7919
53.7061,4.7675
53.6857,4.7409
53.6210,4.6762
53.5585,4.6092
53.5327,4.5880
53.5091,4.5643
53.4400,4.5113
53.4330,4.5058
53.3658,4.4503
53.3658,4.4503
53.3658,4.4503
53.3375,4.4326
53.3109,4.4122
53.2316,4.3665
51.3600,3.1967
51.3374,3.1808
51.3320,3.1765
51.2490,3.1271
51.2448,3.1246
51.2401,3.1218
51.1540,3.0679
51.1540,3.0679
51.1540,3.0679
51.1477,3.0651
51.1233,3.0523
51.1173,3.0488
51.0241,3.0087
51.0216,3.0076
50.9267,2.9643
50.9069,2.9583
50.8879,2.9501
50.8879,2.9501
50.8879,2.9501
50.7902,2.9225
50.7849,2.9210
50.7204,2.9012
50.6879,2.8913
50.6879,2.8913
50.6878,2.8913
50.6878,2.8913
50.6811,2.8901
50.6541,2.8841
50.6475,2.8822
50.6475,2.8822
50.5470,2.8676
50.5470,2.8676
50.5442,2.8672
50.4415,2.8500
50.4208,2.8493
50.4203,2.8492
50.4071,2.8473
50.4071,2.8473
50.4037,2.8468
50.4003,2.8463
50.4003,2.8463
50.2960,2.8449
50.1919,2.8413
50.1712,2.8433
50.1574,2.8431
41.0274,2.7214
41.0082,2.7200
41.0082,2.7200
40.9999,2.7195
40.9999,2.7195
40.9999,2.7195
40.8876,2.7195
40.7755,2.7180
40.7629,2.7195
40.7501,2.7195
40.7501,2.7195
40.6404,2.7339
40.6404,2.7339
40.6387,2.7342
40.5275,2.7473
40.5151,2.7504
40.5025,2.7521
40.5024,2.7521
40.3957,2.7807
40.3957,2.7807
40.3940,2.7812
40.2853,2.8087
40.2735,2.8135
40.2612,2.8167
40.2612,2.8168
40.1591,2.8590
40.1591,2.8590
40.1576,2.8597
40.0533,2.9012
40.0422,2.9075
40.0390,2.9088
40.0304,2.9123
40.0128,2.9225
39.9540,2.9565
39.9347,2.9676
39.9318,2.9692
39.8354,3.0232
39.8353,3.0232
39.8311,3.0264
39.8251,3.0309
39.8141,3.0372
39.7251,3.1055
39.7237,3.1065
39.7237,3.1065
39.6352,3.1726
39.6352,3.1726
39.6312,3.1765
39.6260,3.1815
39.6159,3.1893
39.5366,3.2686
39.5354,3.2698
39.5354,3.2698
39.4562,3.3469
39.4507,3.3530
39.4506,3.3530
39.4378,3.3674
37.7848,5.0204
37.7027,5.0752
37.6059,5.0945
30.7941,5.0945
30.6973,5.0752
30.6152,5.0204
29.4421,3.8473
29.4421,3.8473
29.2591,3.6643
29.2591,3.6643
29.0609,3.5122
29.0609,3.5122
28.8446,3.3873
28.8446,3.3873
28.7965,3.3674
28.6138,3.2918
28.6138,3.2918
28.3726,3.2271
28.3725,3.2271
28.1249,3.1945
28.1249,3.1945
27.8751,3.1945
27.8673,3.1945
27.8672,3.1945
23.5574,3.1945
23.4948,3.1866
23.4934,3.1863
23.2725,3.1271
23.2648,3.1261
23.2498,3.1241
23.2498,3.1241
23.0249,3.0945
23.0249,3.0945
22.7751,3.0945
22.7673,3.0945
22.7672,3.0945
13.5751,3.0945
13.3275,3.1271
13.0862,3.1918
13.0862,3.1918
13.0189,3.2196
12.8554,3.2873
12.8554,3.2873
12.6391,3.4122
12.6391,3.4122
12.6248,3.4232
12.5362,3.4669
12.4708,3.4755
11.6530,3.4755
11.4160,3.5130
11.4160,3.5130
11.4160,3.5130
11.1878,3.5872
11.0828,3.6407
10.9740,3.6961
10.9227,3.7334
10.8485,3.7681
10.8490,3.7697
10.8383,3.7734
10.6348,3.8659
10.6348,3.8659
10.4511,3.9931
10.4511,3.9931
10.3180,4.1263
10.3180,4.1263
10.2931,4.1511
10.1659,4.3348
10.1472,4.3758
10.1348,4.3940
10.1189,4.4096
10.0968,4.4403
10.0712,4.4562
10.0642,4.4630
10.0529,4.4676
10.0129,4.4924
9.9759,4.4985
9.9726,4.4998
9.9681,4.4997
9.9155,4.5084
9.8742,4.4987
9.8739,4.4987
9.8736,4.4986
9.8194,4.4859
9.7834,4.4600
9.7831,4.4599
9.7829,4.4597
9.7392,4.4283
9.7166,4.3919
9.7141,4.3894
9.7124,4.3852
9.6871,4.3444
9.6798,4.3038
9.6773,4.2977
9.6774,4.2908
9.6710,4.2555
9.6710,4.2170
9.6511,4.2170
9.5508,4.2273
9.3881,4.2812
9.3881,4.2812
9.2423,4.3711
9.2423,4.3711
9.1211,4.4923
9.1211,4.4923
9.0312,4.6381
9.0312,4.6381
8.9773,4.8008
8.9670,4.9011
8.9670,4.9460
9.7555,4.9460
9.8523,4.9653
9.9344,5.0201
9.9892,5.1022
10.0085,5.1990
10.0085,5.2010
9.9892,5.2978
9.9344,5.3799
9.8523,5.4347
9.7555,5.4540
8.9670,5.4540
8.9670,5.4989
8.9773,5.5992
9.0312,5.7619
9.0312,5.7619
9.1211,5.9077
9.1211,5.9077
9.2423,6.0289
9.2423,6.0289
9.3881,6.1188
9.3881,6.1188
9.5508,6.1727
9.5508,6.1727
9.6511,6.1830
9.6512,6.1830
9.6710,6.1830
9.6710,6.1445
9.6798,6.1002
9.6871,6.0556
9.6894,6.0519
9.6903,6.0477
9.7154,6.0101
9.7392,5.9717
9.7427,5.9692
9.7451,5.9656
9.7827,5.9405
9.8194,5.9141
9.8236,5.9131
9.8272,5.9107
9.8715,5.9019
9.9155,5.8916
9.9198,5.8923
9.9240,5.8915
9.9683,5.9003
10.0129,5.9076
10.0166,5.9099
10.0208,5.9107
10.0584,5.9358
10.0968,5.9597
10.0993,5.9632
10.1029,5.9656
10.1543,6.0398
10.1563,6.0442
10.1789,6.1404
10.1790,6.1489
10.1790,6.1830
10.1929,6.1969
10.2178,6.2017
10.2185,6.2021
10.2193,6.2023
10.3002,6.2560
10.3008,6.2565
10.4511,6.4069
10.4575,6.4113
10.4709,6.4246
10.4928,6.4568
10.5173,6.4872
10.5203,6.4974
10.5263,6.5063
10.5341,6.5445
10.5451,6.5819
10.5440,6.5925
10.5461,6.6030
10.5388,6.6413
10.5346,6.6800
10.5295,6.6894
10.5275,6.6999
10.5060,6.7325
10.4874,6.7667
10.4772,6.7762
10.4732,6.7823
10.4640,6.7885
10.4419,6.8092
10.3991,6.8403
10.2153,7.0241
10.2153,7.0241
10.1455,7.1202
10.1213,7.1535
10.0488,7.2205
9.9562,7.2547
9.8575,7.2508
9.7679,7.2095
9.7377,7.1837
9.6710,7.1170
9.6511,7.1170
9.5508,7.1273
9.3881,7.1812
9.3881,7.1812
9.2423,7.2711
9.2423,7.2711
9.1211,7.3923
9.1211,7.3923
9.0312,7.5381
9.0312,7.5381
8.9773,7.7008
8.9670,7.8011
8.9670,7.8460
9.5705,7.8460
9.6673,7.8653
9.7494,7.9201
9.8042,8.0022
9.8235,8.0990
9.8235,8.1010
9.8042,8.1978
9.7494,8.2799
9.6673,8.3347
9.5705,8.3540
8.9670,8.3540
8.9670,8.3988
8.9773,8.4992
9.0312,8.6619
9.0312,8.6619
9.1211,8.8077
9.1211,8.8077
9.2423,8.9289
9.2423,8.9289
9.3881,9.0188
9.3881,9.0188
9.5508,9.0727
9.5508,9.0727
9.6511,9.0830
9.6512,9.0830
9.6710,9.0830
9.7377,9.0163
9.8198,8.9614
9.9166,8.9422
10.0134,8.9614
10.0955,9.0163
10.1213,9.0465
10.2153,9.1759
10.3991,9.3597
10.6094,9.5125
10.6094,9.5125
10.8410,9.6305
11.0883,9.7108
11.2460,9.7358
11.3297,9.7648
11.5759,9.9022
12.4775,10.4054
12.5066,10.4161
12.5111,10.4188
12.5162,10.4198
12.5531,10.4444
12.5909,10.4675
12.5983,10.4747
12.6421,10.5184
12.6969,10.6005
12.7149,10.6725
12.7239,10.7631
12.7846,10.9632
12.7846,10.9632
12.8741,11.1307
12.9028,11.2252
12.8931,11.3234
12.8741,11.3693
12.7846,11.5368
12.7846,11.5368
12.7239,11.7369
12.7239,11.7369
12.7239,11.7369
12.7113,11.8647
12.7085,11.8929
12.7085,12.5071
12.7085,12.5072
12.7239,12.6631
12.7812,12.8522
12.7846,12.8632
12.8477,12.9812
12.8763,13.0757
12.8666,13.1739
12.8201,13.2610
12.7438,13.3236
12.6493,13.3523
12.6245,13.3535
11.0143,13.3535
10.9174,13.3342
10.8354,13.2794
8.3931,10.8372
8.1990,10.6961
8.1990,10.6961
7.9852,10.5872
7.9852,10.5872
7.9631,10.5800
7.7570,10.5130
7.5200,10.4755
7.5200,10.4755
7.1860,10.4755
7.0892,10.4562
7.0071,10.4014
6.9523,10.3193
6.9408,10.2618
6.9330,10.2540
3.5030,10.2540
3.4062,10.2347
3.3241,10.1799
3.2693,10.0978
3.2500,10.0010
3.2500,9.9990
3.2693,9.9022
3.3241,9.8201
3.4062,9.7653
3.5030,9.7460
6.9330,9.7460
6.9330,9.6995
6.9330,9.6995
6.9264,9.6348
6.9357,9.5366
6.9819,9.4493
7.0580,9.3864
7.1163,9.3638
7.1700,9.3503
7.1700,9.3503
7.1700,9.3503
7.2657,9.3068
7.3776,9.2560
7.5649,9.1262
7.7262,8.9649
7.8560,8.7776
7.9330,8.6079
7.9503,8.5700
7.9503,8.5700
8.0060,8.3489
8.0060,8.3489
8.0060,8.3489
8.0165,8.2150
8.0165,6.9850
8.0163,6.9818
8.0102,6.9055
8.0060,6.8511
8.0060,6.8511
8.0060,6.8511
7.9503,6.6300
7.9503,6.6300
7.8560,6.4225
7.8560,6.4224
7.7262,6.2350
7.5649,6.0738
7.4175,5.9717
7.3776,5.9440
7.3775,5.9440
7.1700,5.8497
7.1700,5.8497
6.9489,5.7940
6.9489,5.7940
6.8150,5.7835
6.8150,5.7835
4.1850,5.7835
4.1850,5.7835
4.0511,5.7940
4.0511,5.7940
3.8300,5.8497
3.8300,5.8497
3.6225,5.9440
3.6224,5.9440
3.4351,6.0738
3.4350,6.0739
3.2739,6.2350
3.2738,6.2351
3.1440,6.4224
3.1440,6.4225
3.0497,6.6300
3.0497,6.6300
2.9940,6.8511
2.9940,6.8511
2.9835,6.9850
2.9835,8.2150
2.9940,8.3489
2.9940,8.3489
3.0497,8.5700
3.0497,8.5700
3.0790,8.6344
3.1015,8.7305
3.0855,8.8279
3.0334,8.9118
2.9533,8.9694
2.8571,8.9919
2.8486,8.9920
0.9950,8.9920
0.8982,8.9727
0.8161,8.9179
0.7613,8.8358
0.7420,8.7390
0.7420,8.7387
0.7420,8.7305
0.7469,4.0239
0.7662,3.9271
0.8212,3.8451
0.9033,3.7904
1.0001,3.7712
1.0969,3.7906
1.1118,3.7973
1.1133,3.7980
1.1133,3.7980
1.1133,3.7980
1.3556,3.8984
1.3556,3.8984
1.3556,3.8984
1.6089,3.9663
1.6089,3.9663
1.7257,3.9817
1.8689,4.0005
1.8689,4.0005
1.8689,4.0005
1.8689,4.0005
2.1311,4.0005
2.1311,4.0005
2.1311,4.0005
2.1311,4.0005
2.2295,3.9875
2.3911,3.9663
2.6258,3.9034
2.6444,3.8984
2.6444,3.8984
2.6444,3.8984
2.8867,3.7980
3.1138,3.6669
3.3219,3.5073
3.5073,3.3219
3.6669,3.1138
3.7980,2.8867
3.8984,2.6444
3.9663,2.3911
4.0005,2.1311
4.0005,1.8689
4.0005,1.8689
4.0005,1.8689
3.9796,1.7099
3.9663,1.6089
3.9366,1.4983
3.8984,1.3556
3.8984,1.3556
3.8984,1.3556
3.8966,1.3512
3.8961,1.3489
3.8957,1.3477
3.8959,1.3477
3.8773,1.2544
3.8966,1.1576
3.9514,1.0755
4.0335,1.0207
4.1303,1.0014
Z" /> 
</g>
<g style="fill:none; 
stroke:#FFFFFF; stroke-width:0.0500; stroke-opacity:1; 
stroke-linecap:round; stroke-linejoin:round;">
<circle cx="2.0000" cy="29.7500" r="1.5000" /> 
<circle cx="2.0000" cy="2.0000" r="1.5000" /> 
<circle cx="61.2500" cy="2.1689" r="1.5811" /> 
<path style="fill:none; 
stroke:#FFFFFF; stroke-width:0.0500; stroke-opacity:1; 
stroke-linecap:round; stroke-linejoin:round;fill:none"
d="M 0.0000,0.0000
63.5000,0.0000
63.5000,31.7500
0.0000,31.7500
Z" /> 
<circle cx="61.2500" cy="29.5000" r="1.5811" /> 
</g>
<g style="fill:#000000; fill-opacity:1.0000; stroke:none;">
<circle cx="18.7000" cy="10.3000" r="0.1500" /> 
</g>
<g style="fill:#000000; fill-opacity:1.0000; stroke:none;">
<circle cx="18.7000" cy="5.0000" r="0.1500" /> 
</g>
<g style="fill:#000000; fill-opacity:1.0000; stroke:none;">
<circle cx="16.3000" cy="17.8000" r="0.0635" /> 
</g>
<g style="fill:#000000; fill-opacity:1.0000; stroke:none;">
<circle cx="13.7600" cy="17.8000" r="0.0635" /> 
</g>
<g style="fill:#000000; fill-opacity:1.0000; stroke:none;">
<circle cx="11.2200" cy="17.8000" r="0.0635" /> 
</g>
<g style="fill:#000000; fill-opacity:1.0000; stroke:none;">
<circle cx="22.9000" cy="10.0800" r="0.1270" /> 
</g>
<g style="fill:#000000; fill-opacity:1.0000; stroke:none;">
<circle cx="22.9000" cy="7.5400" r="0.1270" /> 
</g>
<g style="fill:#000000; fill-opacity:1.0000; stroke:none;">
<circle cx="22.9000" cy="5.0000" r="0.1270" /> 
</g>
<g style="fill:#000000; fill-opacity:1.0000; stroke:none;">
<circle cx="52.2500" cy="17.1200" r="0.0635" /> 
</g>
<g style="fill:#000000; fill-opacity:1.0000; stroke:none;">
<circle cx="52.2500" cy="14.5800" r="0.0635" /> 
</g>
<g style="fill:#000000; fill-opacity:1.0000; stroke:none;">
<circle cx="52.2500" cy="12.0400" r="0.0635" /> 
</g>
<g style="fill:#000000; fill-opacity:1.0000; stroke:none;">
<circle cx="52.2500" cy="9.5000" r="0.0635" /> 
</g>
<g style="fill:#000000; fill-opacity:1.0000; stroke:none;">
<circle cx="23.8000" cy="23.2000" r="0.0635" /> 
</g>
<g style="fill:#000000; fill-opacity:1.0000; stroke:none;">
<circle cx="23.8000" cy="25.7400" r="0.0635" /> 
</g>
<g style="fill:#000000; fill-opacity:1.0000; stroke:none;">
<circle cx="23.8000" cy="28.2800" r="0.0635" /> 
</g> 
</svg>
