<?xml version="1.0" standalone="no"?>
 <!DOCTYPE svg PUBLIC "-//W3C//DTD SVG 1.1//EN" 
 "http://www.w3.org/Graphics/SVG/1.1/DTD/svg11.dtd"> 
<svg
  xmlns:svg="http://www.w3.org/2000/svg"
  xmlns="http://www.w3.org/2000/svg"
  xmlns:xlink="http://www.w3.org/1999/xlink"
  version="1.1"
  width="63.5000mm" height="31.7500mm" viewBox="0.0000 0.0000 63.5000 31.7500">
<title>SVG Image created as front.svg date 2025/11/13 07:43:45 </title>
  <desc>Image generated by PCBNEW </desc>
<g style="fill:#000000; fill-opacity:1.0000;stroke:#000000; stroke-opacity:1.0000;
stroke-linecap:round; stroke-linejoin:round;"
 transform="translate(0 0) scale(1 1)">
</g>
<g style="fill:#000000; fill-opacity:1.0000; 
stroke:#000000; stroke-width:0.0212; stroke-opacity:1; 
stroke-linecap:round; stroke-linejoin:round;">
<rect x="-5.025000" y="-5.025000" width="74.973250" height="41.800000" rx="0.000000" />
<path style="fill:#FFFFFF; fill-opacity:1.0000; stroke:none;fill-rule:evenodd;"
d="M 31.7225,6.2080
31.7225,7.7320
34.7475,7.7320
34.7475,6.2080
Z" /> 
<path style="fill:#FFFFFF; fill-opacity:1.0000; stroke:none;fill-rule:evenodd;"
d="M 31.7225,8.7480
31.7225,10.2720
34.7475,10.2720
34.7475,8.7480
Z" /> 
<path style="fill:#FFFFFF; fill-opacity:1.0000; stroke:none;fill-rule:evenodd;"
d="M 31.7225,11.2880
31.7225,12.8120
34.7475,12.8120
34.7475,11.2880
Z" /> 
<path style="fill:#FFFFFF; fill-opacity:1.0000; stroke:none;fill-rule:evenodd;"
d="M 31.7225,13.8280
31.7225,15.3520
34.7475,15.3520
34.7475,13.8280
Z" /> 
<path style="fill:#FFFFFF; fill-opacity:1.0000; stroke:none;fill-rule:evenodd;"
d="M 31.7225,18.9080
31.7225,20.4320
34.7475,20.4320
34.7475,18.9080
Z" /> 
<path style="fill:#FFFFFF; fill-opacity:1.0000; stroke:none;fill-rule:evenodd;"
d="M 31.7225,16.3680
31.7225,17.8920
34.7475,17.8920
34.7475,16.3680
Z" /> 
<path style="fill:#FFFFFF; fill-opacity:1.0000; stroke:none;fill-rule:evenodd;"
d="M 15.7525,23.9880
15.7525,25.5120
18.7775,25.5120
18.7775,23.9880
Z" /> 
<path style="fill:#FFFFFF; fill-opacity:1.0000; stroke:none;fill-rule:evenodd;"
d="M 31.7225,23.9880
31.7225,25.5120
34.7475,25.5120
34.7475,23.9880
Z" /> 
<path style="fill:#FFFFFF; fill-opacity:1.0000; stroke:none;fill-rule:evenodd;"
d="M 15.7525,21.4480
15.7525,22.9720
18.7775,22.9720
18.7775,21.4480
Z" /> 
<path style="fill:#FFFFFF; fill-opacity:1.0000; stroke:none;fill-rule:evenodd;"
d="M 15.7525,18.9080
15.7525,20.4320
18.7775,20.4320
18.7775,18.9080
Z" /> 
<path style="fill:#FFFFFF; fill-opacity:1.0000; stroke:none;fill-rule:evenodd;"
d="M 15.7525,16.3680
15.7525,17.8920
18.7775,17.8920
18.7775,16.3680
Z" /> 
<path style="fill:#FFFFFF; fill-opacity:1.0000; stroke:none;fill-rule:evenodd;"
d="M 15.7525,13.8280
15.7525,15.3520
18.7775,15.3520
18.7775,13.8280
Z" /> 
<path style="fill:#FFFFFF; fill-opacity:1.0000; stroke:none;fill-rule:evenodd;"
d="M 15.7525,11.2880
15.7525,12.8120
18.7775,12.8120
18.7775,11.2880
Z" /> 
<path style="fill:#FFFFFF; fill-opacity:1.0000; stroke:none;fill-rule:evenodd;"
d="M 15.7525,8.7480
15.7525,10.2720
18.7775,10.2720
18.7775,8.7480
Z" /> 
<path style="fill:#FFFFFF; fill-opacity:1.0000; stroke:none;fill-rule:evenodd;"
d="M 15.7525,6.2080
15.7525,7.7320
18.7775,7.7320
18.7775,6.2080
Z" /> 
<path style="fill:#FFFFFF; fill-opacity:1.0000; stroke:none;fill-rule:evenodd;"
d="M 31.7225,21.4480
31.7225,22.9720
34.7475,22.9720
34.7475,21.4480
Z" /> 
<path style="fill:#FFFFFF; fill-opacity:1.0000; stroke:none;fill-rule:evenodd;"
d="M 41.0490,7.8950
39.2710,7.8950
39.2710,11.7050
41.0490,11.7050
Z" /> 
<path style="fill:#FFFFFF; fill-opacity:1.0000; stroke:none;fill-rule:evenodd;"
d="M 43.5890,7.8950
41.8110,7.8950
41.8110,11.7050
43.5890,11.7050
Z" /> 
<path style="fill:#FFFFFF; fill-opacity:1.0000; stroke:none;fill-rule:evenodd;"
d="M 46.1290,7.8950
44.3510,7.8950
44.3510,11.7050
46.1290,11.7050
Z" /> 
<path style="fill:#FFFFFF; fill-opacity:1.0000; stroke:none;fill-rule:evenodd;"
d="M 53.1600,8.7950
53.1566,8.7778
53.1468,8.7632
53.1322,8.7534
53.1150,8.7500
51.8550,8.7500
51.8378,8.7534
51.8232,8.7632
51.8134,8.7778
51.8100,8.7950
51.8100,9.3050
51.8134,9.3222
51.8232,9.3368
51.8378,9.3466
51.8550,9.3500
53.1150,9.3500
53.1322,9.3466
53.1468,9.3368
53.1566,9.3222
53.1600,9.3050
Z" /> 
<path style="fill:#FFFFFF; fill-opacity:1.0000; stroke:none;fill-rule:evenodd;"
d="M 53.1600,9.7450
53.1566,9.7278
53.1468,9.7132
53.1322,9.7034
53.1150,9.7000
51.8550,9.7000
51.8378,9.7034
51.8232,9.7132
51.8134,9.7278
51.8100,9.7450
51.8100,10.2550
51.8134,10.2722
51.8232,10.2868
51.8378,10.2966
51.8550,10.3000
53.1150,10.3000
53.1322,10.2966
53.1468,10.2868
53.1566,10.2722
53.1600,10.2550
Z" /> 
<path style="fill:#FFFFFF; fill-opacity:1.0000; stroke:none;fill-rule:evenodd;"
d="M 53.1600,10.6950
53.1566,10.6778
53.1468,10.6632
53.1322,10.6534
53.1150,10.6500
51.8550,10.6500
51.8378,10.6534
51.8232,10.6632
51.8134,10.6778
51.8100,10.6950
51.8100,11.2050
51.8134,11.2222
51.8232,11.2368
51.8378,11.2466
51.8550,11.2500
53.1150,11.2500
53.1322,11.2466
53.1468,11.2368
53.1566,11.2222
53.1600,11.2050
Z" /> 
<path style="fill:#FFFFFF; fill-opacity:1.0000; stroke:none;fill-rule:evenodd;"
d="M 50.7900,10.6950
50.7866,10.6778
50.7768,10.6632
50.7622,10.6534
50.7450,10.6500
49.4850,10.6500
49.4678,10.6534
49.4532,10.6632
49.4434,10.6778
49.4400,10.6950
49.4400,11.2050
49.4434,11.2222
49.4532,11.2368
49.4678,11.2466
49.4850,11.2500
50.7450,11.2500
50.7622,11.2466
50.7768,11.2368
50.7866,11.2222
50.7900,11.2050
Z" /> 
<path style="fill:#FFFFFF; fill-opacity:1.0000; stroke:none;fill-rule:evenodd;"
d="M 50.7900,8.7950
50.7866,8.7778
50.7768,8.7632
50.7622,8.7534
50.7450,8.7500
49.4850,8.7500
49.4678,8.7534
49.4532,8.7632
49.4434,8.7778
49.4400,8.7950
49.4400,9.3050
49.4434,9.3222
49.4532,9.3368
49.4678,9.3466
49.4850,9.3500
50.7450,9.3500
50.7622,9.3466
50.7768,9.3368
50.7866,9.3222
50.7900,9.3050
Z" /> 
<path style="fill:#FFFFFF; fill-opacity:1.0000; stroke:none;fill-rule:evenodd;"
d="M 52.0750,6.8500
52.0921,6.9361
52.1409,7.0091
52.2139,7.0579
52.3000,7.0750
52.7500,7.0750
52.8361,7.0579
52.9091,7.0091
52.9579,6.9361
52.9750,6.8500
52.9750,6.3500
52.9579,6.2639
52.9091,6.1909
52.8361,6.1421
52.7500,6.1250
52.3000,6.1250
52.2139,6.1421
52.1409,6.1909
52.0921,6.2639
52.0750,6.3500
Z" /> 
<path style="fill:#FFFFFF; fill-opacity:1.0000; stroke:none;fill-rule:evenodd;"
d="M 53.6250,6.8500
53.6421,6.9361
53.6909,7.0091
53.7639,7.0579
53.8500,7.0750
54.3000,7.0750
54.3861,7.0579
54.4591,7.0091
54.5079,6.9361
54.5250,6.8500
54.5250,6.3500
54.5079,6.2639
54.4591,6.1909
54.3861,6.1421
54.3000,6.1250
53.8500,6.1250
53.7639,6.1421
53.6909,6.1909
53.6421,6.2639
53.6250,6.3500
Z" /> 
<path style="fill:#FFFFFF; fill-opacity:1.0000; stroke:none;fill-rule:evenodd;"
d="M 57.6500,19.7000
57.5543,19.7190
57.4732,19.7732
57.4190,19.8543
57.4000,19.9500
57.4000,20.4500
57.4190,20.5457
57.4732,20.6268
57.5543,20.6810
57.6500,20.7000
62.6500,20.7000
62.7457,20.6810
62.8268,20.6268
62.8810,20.5457
62.9000,20.4500
62.9000,19.9500
62.8810,19.8543
62.8268,19.7732
62.7457,19.7190
62.6500,19.7000
Z" /> 
<path style="fill:#FFFFFF; fill-opacity:1.0000; stroke:none;fill-rule:evenodd;"
d="M 57.6500,21.7000
57.5543,21.7190
57.4732,21.7732
57.4190,21.8543
57.4000,21.9500
57.4000,22.4500
57.4190,22.5457
57.4732,22.6268
57.5543,22.6810
57.6500,22.7000
62.6500,22.7000
62.7457,22.6810
62.8268,22.6268
62.8810,22.5457
62.9000,22.4500
62.9000,21.9500
62.8810,21.8543
62.8268,21.7732
62.7457,21.7190
62.6500,21.7000
Z" /> 
<path style="fill:#FFFFFF; fill-opacity:1.0000; stroke:none;fill-rule:evenodd;"
d="M 57.6500,23.7000
57.5543,23.7190
57.4732,23.7732
57.4190,23.8543
57.4000,23.9500
57.4000,24.4500
57.4190,24.5457
57.4732,24.6268
57.5543,24.6810
57.6500,24.7000
62.6500,24.7000
62.7457,24.6810
62.8268,24.6268
62.8810,24.5457
62.9000,24.4500
62.9000,23.9500
62.8810,23.8543
62.8268,23.7732
62.7457,23.7190
62.6500,23.7000
Z" /> 
<path style="fill:#FFFFFF; fill-opacity:1.0000; stroke:none;fill-rule:evenodd;"
d="M 56.6500,17.0000
56.5543,17.0190
56.4732,17.0732
56.4190,17.1543
56.4000,17.2500
56.4000,18.3500
56.4190,18.4457
56.4732,18.5268
56.5543,18.5810
56.6500,18.6000
59.1500,18.6000
59.2457,18.5810
59.3268,18.5268
59.3810,18.4457
59.4000,18.3500
59.4000,17.2500
59.3810,17.1543
59.3268,17.0732
59.2457,17.0190
59.1500,17.0000
Z" /> 
<path style="fill:#FFFFFF; fill-opacity:1.0000; stroke:none;fill-rule:evenodd;"
d="M 56.6500,25.8000
56.5543,25.8190
56.4732,25.8732
56.4190,25.9543
56.4000,26.0500
56.4000,27.1500
56.4190,27.2457
56.4732,27.3268
56.5543,27.3810
56.6500,27.4000
59.1500,27.4000
59.2457,27.3810
59.3268,27.3268
59.3810,27.2457
59.4000,27.1500
59.4000,26.0500
59.3810,25.9543
59.3268,25.8732
59.2457,25.8190
59.1500,25.8000
Z" /> 
<path style="fill:#FFFFFF; fill-opacity:1.0000; stroke:none;fill-rule:evenodd;"
d="M 44.2780,6.6320
45.8020,6.6320
45.8020,4.0920
44.2780,4.0920
Z" /> 
<path style="fill:#FFFFFF; fill-opacity:1.0000; stroke:none;fill-rule:evenodd;"
d="M 41.7380,6.6320
43.2620,6.6320
43.2620,4.0920
41.7380,4.0920
Z" /> 
<path style="fill:#FFFFFF; fill-opacity:1.0000; stroke:none;fill-rule:evenodd;"
d="M 39.1980,6.1240
40.7220,6.1240
40.7220,3.5840
39.1980,3.5840
Z" /> 
<path style="fill:#FFFFFF; fill-opacity:1.0000; stroke:none;fill-rule:evenodd;"
d="M 57.3250,9.5000
57.2293,9.5190
57.1482,9.5732
57.0940,9.6543
57.0750,9.7500
57.0750,10.2500
57.0940,10.3457
57.1482,10.4268
57.2293,10.4810
57.3250,10.5000
63.1750,10.5000
63.2707,10.4810
63.3518,10.4268
63.4060,10.3457
63.4250,10.2500
63.4250,9.7500
63.4060,9.6543
63.3518,9.5732
63.2707,9.5190
63.1750,9.5000
Z" /> 
<path style="fill:#FFFFFF; fill-opacity:1.0000; stroke:none;fill-rule:evenodd;"
d="M 57.3250,11.5000
57.2293,11.5190
57.1482,11.5732
57.0940,11.6543
57.0750,11.7500
57.0750,12.2500
57.0940,12.3457
57.1482,12.4268
57.2293,12.4810
57.3250,12.5000
63.1750,12.5000
63.2707,12.4810
63.3518,12.4268
63.4060,12.3457
63.4250,12.2500
63.4250,11.7500
63.4060,11.6543
63.3518,11.5732
63.2707,11.5190
63.1750,11.5000
Z" /> 
<path style="fill:#FFFFFF; fill-opacity:1.0000; stroke:none;fill-rule:evenodd;"
d="M 56.7500,6.8000
56.6543,6.8190
56.5732,6.8732
56.5190,6.9543
56.5000,7.0500
56.5000,8.1500
56.5190,8.2457
56.5732,8.3268
56.6543,8.3810
56.7500,8.4000
59.2500,8.4000
59.3457,8.3810
59.4268,8.3268
59.4810,8.2457
59.5000,8.1500
59.5000,7.0500
59.4810,6.9543
59.4268,6.8732
59.3457,6.8190
59.2500,6.8000
Z" /> 
<path style="fill:#FFFFFF; fill-opacity:1.0000; stroke:none;fill-rule:evenodd;"
d="M 56.7500,13.6000
56.6543,13.6190
56.5732,13.6732
56.5190,13.7543
56.5000,13.8500
56.5000,14.9500
56.5190,15.0457
56.5732,15.1268
56.6543,15.1810
56.7500,15.2000
59.2500,15.2000
59.3457,15.1810
59.4268,15.1268
59.4810,15.0457
59.5000,14.9500
59.5000,13.8500
59.4810,13.7543
59.4268,13.6732
59.3457,13.6190
59.2500,13.6000
Z" /> 
<path style="fill:#FFFFFF; fill-opacity:1.0000; stroke:none;fill-rule:evenodd;"
d="M 9.3450,16.2310
9.3450,18.0090
13.1550,18.0090
13.1550,16.2310
Z" /> 
<path style="fill:#FFFFFF; fill-opacity:1.0000; stroke:none;fill-rule:evenodd;"
d="M 9.3450,13.6910
9.3450,15.4690
13.1550,15.4690
13.1550,13.6910
Z" /> 
<path style="fill:#FFFFFF; fill-opacity:1.0000; stroke:none;fill-rule:evenodd;"
d="M 9.3450,11.1510
9.3450,12.9290
13.1550,12.9290
13.1550,11.1510
Z" /> 
<path style="fill:#FFFFFF; fill-opacity:1.0000; stroke:none;fill-rule:evenodd;"
d="M 9.3450,8.6110
9.3450,10.3890
13.1550,10.3890
13.1550,8.6110
Z" /> 
<path style="fill:#FFFFFF; fill-opacity:1.0000; stroke:none;fill-rule:evenodd;"
d="M 52.0750,3.4500
52.0921,3.5361
52.1409,3.6091
52.2139,3.6579
52.3000,3.6750
52.7500,3.6750
52.8361,3.6579
52.9091,3.6091
52.9579,3.5361
52.9750,3.4500
52.9750,2.9500
52.9579,2.8639
52.9091,2.7909
52.8361,2.7421
52.7500,2.7250
52.3000,2.7250
52.2139,2.7421
52.1409,2.7909
52.0921,2.8639
52.0750,2.9500
Z" /> 
<path style="fill:#FFFFFF; fill-opacity:1.0000; stroke:none;fill-rule:evenodd;"
d="M 53.6250,3.4500
53.6421,3.5361
53.6909,3.6091
53.7639,3.6579
53.8500,3.6750
54.3000,3.6750
54.3861,3.6579
54.4591,3.6091
54.5079,3.5361
54.5250,3.4500
54.5250,2.9500
54.5079,2.8639
54.4591,2.7909
54.3861,2.7421
54.3000,2.7250
53.8500,2.7250
53.7639,2.7421
53.6909,2.7909
53.6421,2.8639
53.6250,2.9500
Z" /> 
<path style="fill:#FFFFFF; fill-opacity:1.0000; stroke:none;fill-rule:evenodd;"
d="M 40.9050,21.0990
40.9050,19.3210
37.0950,19.3210
37.0950,21.0990
Z" /> 
<path style="fill:#FFFFFF; fill-opacity:1.0000; stroke:none;fill-rule:evenodd;"
d="M 40.9050,23.6390
40.9050,21.8610
37.0950,21.8610
37.0950,23.6390
Z" /> 
<path style="fill:#FFFFFF; fill-opacity:1.0000; stroke:none;fill-rule:evenodd;"
d="M 40.9050,26.1790
40.9050,24.4010
37.0950,24.4010
37.0950,26.1790
Z" /> 
</g>
<g style="fill:#FFFFFF; fill-opacity:1.0000; stroke:none;">
<circle cx="50.1000" cy="2.0000" r="0.7620" /> 
</g>
<g style="fill:#FFFFFF; fill-opacity:1.0000; stroke:none;">
<circle cx="50.1000" cy="6.8000" r="0.7620" /> 
</g>
<g style="fill:none; 
stroke:#FFFFFF; stroke-width:0.7620; stroke-opacity:1; 
stroke-linecap:round; stroke-linejoin:round;">
<path d="M52.4850 10.0000
L54.1000 10.0000
" />
</g>
<g style="fill:none; 
stroke:#FFFFFF; stroke-width:1.0160; stroke-opacity:1; 
stroke-linecap:round; stroke-linejoin:round;">
<path d="M54.1000 10.0000
L54.7000 9.4000
" />
<path d="M55.3000 10.0000
L54.7000 9.4000
" />
</g>
<g style="fill:none; 
stroke:#FFFFFF; stroke-width:1.7780; stroke-opacity:1; 
stroke-linecap:round; stroke-linejoin:round;">
<path d="M4.7500 24.2500
L4.7500 12.2500
" />
<path d="M4.9600 12.0400
L11.2500 12.0400
" />
</g>
<g style="fill:none; 
stroke:#FFFFFF; stroke-width:1.0160; stroke-opacity:1; 
stroke-linecap:round; stroke-linejoin:round;">
<path d="M54.9423 25.2900
L56.0323 24.2000
" />
<path d="M54.7000 3.2000
L54.4650 3.2000
" />
</g>
<g style="fill:none; 
stroke:#FFFFFF; stroke-width:1.7780; stroke-opacity:1; 
stroke-linecap:round; stroke-linejoin:round;">
<path d="M4.7500 12.2500
L4.7500 6.3710
" />
<path d="M4.7500 6.3710
L9.7500 2.0000
" />
<path d="M23.7500 26.0000
L27.5400 22.2100
" />
<path d="M23.7500 29.7500
L23.7500 26.0000
" />
</g>
<g style="fill:none; 
stroke:#FFFFFF; stroke-width:1.0160; stroke-opacity:1; 
stroke-linecap:round; stroke-linejoin:round;">
<path d="M54.7000 9.4000
L54.7000 3.2000
" />
</g>
<g style="fill:none; 
stroke:#FFFFFF; stroke-width:1.7780; stroke-opacity:1; 
stroke-linecap:round; stroke-linejoin:round;">
<path d="M4.7500 12.2500
L4.9600 12.0400
" />
<path d="M34.5400 29.7500
L39.0000 25.2900
" />
</g>
<g style="fill:none; 
stroke:#FFFFFF; stroke-width:1.0160; stroke-opacity:1; 
stroke-linecap:round; stroke-linejoin:round;">
<path d="M56.0323 24.2000
L60.1500 24.2000
" />
</g>
<g style="fill:none; 
stroke:#FFFFFF; stroke-width:1.7780; stroke-opacity:1; 
stroke-linecap:round; stroke-linejoin:round;">
<path d="M23.7500 29.7500
L10.2500 29.7500
" />
<path d="M23.7500 29.7500
L34.5400 29.7500
" />
<path d="M39.0000 25.2900
L54.9423 25.2900
" />
<path d="M10.2500 29.7500
L4.7500 24.2500
" />
</g>
<g style="fill:none; 
stroke:#FFFFFF; stroke-width:1.0160; stroke-opacity:1; 
stroke-linecap:round; stroke-linejoin:round;">
<path d="M60.2500 10.0000
L55.3000 10.0000
" />
</g>
<g style="fill:none; 
stroke:#FFFFFF; stroke-width:1.7780; stroke-opacity:1; 
stroke-linecap:round; stroke-linejoin:round;">
<path d="M27.5400 22.2100
L33.2350 22.2100
" />
<path d="M22.6250 4.6250
L25.0000 7.0000
" />
<path d="M25.0000 16.0000
L28.7500 19.7500
" />
<path d="M13.2500 4.7500
L22.6250 4.6250
" />
<path d="M25.1000 7.0000
L25.0000 7.0000
" />
<path d="M28.7500 19.7500
L28.8300 19.6700
" />
<path d="M11.2500 9.5000
L11.2500 6.0000
" />
<path d="M11.2500 6.0000
L13.2500 4.7500
" />
<path d="M28.8300 19.6700
L33.2350 19.6700
" />
<path d="M38.4600 19.6700
L33.2350 19.6700
" />
</g>
<g style="fill:none; 
stroke:#FFFFFF; stroke-width:1.5240; stroke-opacity:1; 
stroke-linecap:round; stroke-linejoin:round;">
<path d="M50.1150 7.6150
L50.1150 9.0500
" />
</g>
<g style="fill:none; 
stroke:#FFFFFF; stroke-width:1.7780; stroke-opacity:1; 
stroke-linecap:round; stroke-linejoin:round;">
<path d="M39.9600 4.6000
L38.5600 3.2000
" />
<path d="M38.5600 3.2000
L28.9000 3.2000
" />
<path d="M39.7600 2.0000
L50.1000 2.0000
" />
<path d="M39.0000 20.2100
L38.4600 19.6700
" />
<path d="M25.0000 7.0000
L25.0000 16.0000
" />
<path d="M28.9000 3.2000
L25.1000 7.0000
" />
</g>
<g style="fill:none; 
stroke:#FFFFFF; stroke-width:1.0160; stroke-opacity:1; 
stroke-linecap:round; stroke-linejoin:round;">
<path d="M50.1000 2.0000
L52.2270 3.2000
" />
</g>
<g style="fill:none; 
stroke:#FFFFFF; stroke-width:1.7780; stroke-opacity:1; 
stroke-linecap:round; stroke-linejoin:round;">
<path d="M38.5600 3.2000
L39.7600 2.0000
" />
</g>
<g style="fill:none; 
stroke:#FFFFFF; stroke-width:1.5240; stroke-opacity:1; 
stroke-linecap:round; stroke-linejoin:round;">
<path d="M50.1000 6.8000
L50.1150 7.6150
" />
</g>
<g style="fill:none; 
stroke:#FFFFFF; stroke-width:0.7620; stroke-opacity:1; 
stroke-linecap:round; stroke-linejoin:round;">
<path d="M42.1000 18.4000
L41.1000 17.4000
" />
<path d="M42.1000 22.3170
L42.1000 18.4000
" />
<path d="M34.8900 14.5900
L33.2350 14.5900
" />
<path d="M39.0000 22.7500
L41.6670 22.7500
" />
<path d="M37.7000 17.4000
L34.8900 14.5900
" />
<path d="M41.6670 22.7500
L42.1000 22.3170
" />
<path d="M41.1000 17.4000
L37.7000 17.4000
" />
<path d="M17.1950 14.5200
L17.2650 14.5900
" />
<path d="M17.2550 14.5800
L17.2650 14.5900
" />
<path d="M11.2500 14.5800
L17.2550 14.5800
" />
<path d="M11.2500 17.1200
L17.2550 17.1200
" />
<path d="M17.1950 17.0600
L17.2650 17.1300
" />
<path d="M17.2550 17.1200
L17.2650 17.1300
" />
<path d="M41.2975 15.8000
L43.7000 18.2025
" />
<path d="M43.7000 18.2025
L43.7000 22.2000
" />
<path d="M43.7000 22.2000
L60.1500 22.2000
" />
<path d="M34.3500 12.0500
L38.1000 15.8000
" />
<path d="M33.2350 12.0500
L34.3500 12.0500
" />
<path d="M38.1000 15.8000
L41.2975 15.8000
" />
<path d="M42.7000 12.8000
L43.9000 14.0000
" />
<path d="M43.9000 14.0000
L53.5000 14.0000
" />
<path d="M55.5000 12.0000
L60.2500 12.0000
" />
<path d="M53.5000 14.0000
L55.5000 12.0000
" />
<path d="M42.7000 9.8000
L42.7000 12.8000
" />
<path d="M41.8239 14.5290
L44.9710 17.6761
" />
<path d="M36.7000 12.0000
L38.6265 14.5290
" />
<path d="M44.9710 20.2000
L60.1500 20.2000
" />
<path d="M34.0100 9.5100
L34.9000 9.6000
" />
<path d="M38.6265 14.5290
L41.8239 14.5290
" />
<path d="M44.9710 17.6761
L44.9710 20.2000
" />
<path d="M36.7000 9.6000
L36.7000 12.0000
" />
<path d="M34.9000 9.6000
L36.7000 9.6000
" />
<path d="M33.2350 9.5100
L34.0100 9.5100
" />
<path d="M40.1600 7.7660
L40.1600 9.8000
" />
<path d="M42.5000 4.6000
L42.5000 6.8000
" />
<path d="M40.9210 7.0050
L40.1600 7.7660
" />
<path d="M42.5000 6.8000
L42.2950 7.0050
" />
<path d="M42.2950 7.0050
L40.9210 7.0050
" />
<path d="M52.5250 5.4250
L51.9000 4.8000
" />
<path d="M52.5250 8.6780
L52.4850 8.7180
" />
<path d="M52.1000 12.6000
L52.5000 12.2000
" />
<path d="M47.1000 4.6000
L46.7000 4.6000
" />
<path d="M52.5250 6.6000
L52.5250 8.6780
" />
<path d="M46.9000 4.8000
L46.7000 4.6000
" />
<path d="M48.1000 12.6000
L48.1000 5.6000
" />
<path d="M48.1000 12.6000
L52.1000 12.6000
" />
<path d="M48.1000 5.6000
L47.1000 4.6000
" />
<path d="M52.5000 11.6000
L52.4850 11.5850
" />
<path d="M46.7000 4.6000
L45.0400 4.6000
" />
<path d="M52.5250 6.6000
L52.5250 5.4250
" />
<path d="M52.5000 12.2000
L52.5000 11.6000
" />
<path d="M51.9000 4.8000
L46.9000 4.8000
" />
<path d="M52.4850 11.5850
L52.4850 11.2820
" />
<path style="fill:#FFFFFF; fill-opacity:1.0000; stroke:none;fill-rule:evenodd;"
d="M 4.4076,1.0244
4.3108,1.0437
4.2288,1.0986
4.1740,1.1807
4.1547,1.2775
4.1740,1.3742
4.2254,1.4983
4.2254,1.4983
4.2960,1.7619
4.2960,1.7619
4.3316,2.0324
4.3316,2.3053
4.2960,2.5758
4.2960,2.5758
4.2254,2.8394
4.2254,2.8394
4.2254,2.8394
4.2254,2.8394
4.2231,2.8450
4.1210,3.0915
4.1210,3.0915
4.0181,3.2698
3.9845,3.3278
3.8184,3.5443
3.6255,3.7373
3.4090,3.9034
3.3528,3.9358
3.1727,4.0398
3.1727,4.0398
3.1727,4.0398
3.1727,4.0398
2.9206,4.1443
2.9206,4.1443
2.9205,4.1443
2.6570,4.2149
2.6570,4.2149
2.3864,4.2505
2.3864,4.2505
2.1136,4.2505
2.1136,4.2505
1.8430,4.2149
1.7959,4.2023
1.5795,4.1443
1.5795,4.1443
1.5794,4.1443
1.3728,4.0587
1.2760,4.0394
1.1792,4.0587
1.0971,4.1135
1.0423,4.1956
1.0230,4.2922
1.0029,27.3845
1.0221,27.4814
1.0769,27.5635
1.1589,27.6184
1.2557,27.6378
1.3525,27.6186
1.3527,27.6185
1.5794,27.5246
1.5795,27.5246
1.8430,27.4540
2.1136,27.4184
2.3864,27.4184
2.3864,27.4184
2.6570,27.4540
2.6570,27.4540
2.9205,27.5246
2.9206,27.5246
3.1727,27.6290
3.1727,27.6290
3.4090,27.7655
3.4090,27.7655
3.6255,27.9316
3.8184,28.1245
3.9845,28.3410
3.9845,28.3410
4.1210,28.5773
4.1210,28.5773
4.2254,28.8294
4.2254,28.8295
4.2960,29.0930
4.2960,29.0930
4.3316,29.3636
4.3316,29.6364
4.2960,29.9070
4.2960,29.9070
4.2254,30.1705
4.2254,30.1706
4.2254,30.1706
4.2254,30.1706
4.1628,30.3217
4.1240,30.4154
4.1047,30.5123
4.1240,30.6091
4.1788,30.6912
4.2609,30.7460
4.3566,30.7653
59.4816,31.0160
59.5785,30.9971
59.6608,30.9427
59.7160,30.8609
59.7357,30.7641
59.7169,30.6672
59.7056,30.6441
59.7056,30.6441
59.7020,30.6367
59.7020,30.6367
59.7020,30.6367
59.6016,30.3944
59.5988,30.3841
59.5337,30.1411
59.5337,30.1411
59.5337,30.1411
59.5124,29.9795
59.4995,29.8811
59.4995,29.8811
59.4995,29.6189
59.4995,29.6189
59.5263,29.4152
59.5337,29.3589
59.5988,29.1159
59.6016,29.1056
59.6016,29.1056
59.6016,29.1056
59.7020,28.8633
59.7720,28.7420
59.8037,28.6485
59.7973,28.5500
59.7536,28.4615
59.6794,28.3964
59.5859,28.3646
59.4911,28.3701
59.3489,28.4060
59.2256,28.4157
59.2150,28.4165
59.2150,28.4165
56.5850,28.4165
56.5752,28.4157
56.4511,28.4060
56.4511,28.4060
56.4511,28.4060
56.2300,28.3503
56.2300,28.3503
56.2300,28.3503
56.2300,28.3503
56.2300,28.3503
56.1343,28.3068
56.0224,28.2560
55.8350,28.1262
55.6738,27.9649
55.5440,27.7776
55.4718,27.6186
55.4497,27.5700
55.4497,27.5700
55.3940,27.3489
55.3940,27.3489
55.3940,27.3489
55.3835,27.2150
55.3835,26.2276
41.4130,26.2276
41.4065,26.2881
41.4065,26.2881
41.3554,26.4250
41.3554,26.4250
41.2679,26.5419
41.2679,26.5419
41.1510,26.6294
41.1510,26.6294
41.0141,26.6805
41.0141,26.6805
40.9536,26.6870
40.9536,26.6870
39.2540,26.6870
38.7460,26.6870
37.0464,26.6870
37.0464,26.6870
36.9859,26.6805
36.9859,26.6805
36.8490,26.6294
36.8490,26.6294
36.7321,26.5419
36.7321,26.5419
36.6446,26.4250
36.6446,26.4250
36.5935,26.2881
36.5935,26.2881
36.5870,26.2276
36.5870,26.2276
36.5870,25.5440
38.7460,25.5440
38.7460,26.6870
39.2540,26.6870
39.2540,25.5440
41.4130,25.5440
41.4130,26.2276
55.3835,26.2276
55.3835,25.9850
55.3940,25.8511
55.3940,25.8511
55.3940,25.8511
55.4497,25.6300
55.4497,25.6300
55.4889,25.5438
55.4889,25.5438
55.5440,25.4224
55.5440,25.4224
55.5844,25.3642
55.6540,25.2637
39.0635,25.2637
39.0635,25.3163
39.0263,25.3535
38.9737,25.3535
38.9365,25.3163
38.9365,25.2637
38.9737,25.2265
39.0263,25.2265
39.0635,25.2637
55.6540,25.2637
55.6738,25.2351
55.6738,25.2350
55.8350,25.0738
55.8897,25.0360
56.0224,24.9440
56.0225,24.9440
56.2300,24.8497
56.2300,24.8497
56.4511,24.7940
56.4511,24.7940
56.5850,24.7835
56.5850,24.7835
56.6407,24.7835
56.7376,24.7642
56.8196,24.7094
56.8745,24.6273
56.8937,24.5305
56.8924,24.5048
56.8920,24.5005
56.8920,24.5005
56.8920,24.4540
59.8970,24.4540
59.9938,24.4347
60.0759,24.3799
60.1307,24.2978
60.1500,24.2010
60.1500,24.1990
60.1307,24.1022
60.0759,24.0201
59.9938,23.9653
59.8970,23.9460
56.8920,23.9460
56.8920,23.8995
56.8920,23.8995
56.8944,23.8762
56.8851,23.7779
56.8388,23.6907
56.7628,23.6278
56.6684,23.5988
56.6427,23.5975
43.5900,23.5975
43.5900,23.5975
43.3728,23.5631
43.1635,23.4951
43.1516,23.4890
43.0566,23.4622
42.9585,23.4738
42.8724,23.5221
42.8578,23.5355
42.7656,23.6278
42.5774,23.8160
42.3994,23.9452
42.3434,23.9738
42.3434,23.9738
42.2693,24.0116
42.2035,24.0451
41.9942,24.1131
41.9015,24.1278
41.8727,24.1384
41.8426,24.1446
41.8296,24.1543
41.8089,24.1619
41.7609,24.2001
41.7528,24.2083
41.6273,24.3613
41.4952,24.4696
41.4858,24.4791
41.4659,24.5094
41.4429,24.5375
41.4390,24.5504
41.4316,24.5616
41.4247,24.5972
41.4142,24.6319
41.4130,24.6567
41.4130,25.0360
36.5870,25.0360
36.5870,24.6567
36.5783,24.6128
36.5712,24.5687
36.5688,24.5654
36.5677,24.5599
36.5194,24.4846
36.5078,24.4720
36.3727,24.3613
36.2457,24.2065
36.2247,24.1671
36.2024,24.1431
36.1884,24.1330
36.1775,24.1197
36.1488,24.1044
36.1224,24.0853
36.1057,24.0813
36.0904,24.0732
36.0581,24.0700
36.0264,24.0624
36.0094,24.0652
35.9922,24.0635
35.9611,24.0729
35.9289,24.0781
35.9142,24.0871
35.8977,24.0921
35.8726,24.1128
35.8449,24.1298
35.8348,24.1438
35.8214,24.1548
35.8061,24.1835
35.7870,24.2098
35.7830,24.2266
35.7749,24.2418
35.7674,24.2922
35.7642,24.3059
35.7648,24.3098
35.7640,24.3153
35.7640,25.5619
35.7493,25.7113
35.6912,25.9029
35.6912,25.9029
35.6076,26.0593
35.5968,26.0795
35.4698,26.2343
35.3150,26.3613
35.1384,26.4557
34.9468,26.5138
34.9468,26.5138
34.9178,26.5166
34.7974,26.5285
34.7974,26.5285
31.6726,26.5285
31.6726,26.5285
31.5232,26.5138
31.3316,26.4557
31.1550,26.3613
31.0002,26.2343
30.8732,26.0795
30.7788,25.9029
30.7207,25.7113
30.7060,25.5619
30.7060,23.9381
30.7207,23.7887
30.7788,23.5971
30.8732,23.4205
31.0002,23.2657
31.0002,23.2657
31.1220,23.1658
31.1846,23.0895
31.2133,22.9951
31.2145,22.9703
31.2145,22.4640
35.2555,22.4640
35.2555,22.9703
35.2642,23.0142
35.2713,23.0583
35.2737,23.0616
35.2748,23.0671
35.3231,23.1424
35.3347,23.1550
35.4698,23.2657
35.5968,23.4205
35.6178,23.4599
35.6401,23.4839
35.6541,23.4940
35.6650,23.5073
35.6937,23.5226
35.7201,23.5417
35.7368,23.5457
35.7521,23.5538
35.7844,23.5570
35.8161,23.5646
35.8331,23.5618
35.8503,23.5635
35.8814,23.5541
35.9136,23.5489
35.9283,23.5399
35.9448,23.5349
35.9699,23.5142
35.9976,23.4972
36.0077,23.4832
36.0211,23.4722
36.0364,23.4435
36.0555,23.4172
36.0595,23.4004
36.0676,23.3852
36.0751,23.3348
36.0783,23.3211
36.0777,23.3172
36.0785,23.3117
36.0785,21.8285
36.0592,21.7317
36.0044,21.6496
35.9223,21.5948
35.8255,21.5755
35.5085,21.5755
35.4117,21.5948
35.3296,21.6496
35.2748,21.7317
35.2555,21.8285
35.2555,21.9560
31.2145,21.9560
31.2145,21.8285
31.1952,21.7317
31.1404,21.6496
31.0583,21.5948
30.9615,21.5755
29.3327,21.5755
29.2673,21.5841
29.1226,21.6229
29.1225,21.6229
29.1225,21.6229
29.0435,21.6333
28.8749,21.6555
28.8749,21.6555
28.8749,21.6555
28.8749,21.6555
28.6251,21.6555
28.6251,21.6555
28.6251,21.6555
28.6251,21.6555
28.4828,21.6368
28.3775,21.6229
28.3775,21.6229
28.3774,21.6229
28.1362,21.5582
28.0680,21.5300
27.9501,21.4812
27.9054,21.4627
27.6891,21.3378
27.4909,21.1857
23.7519,17.4467
23.7519,17.4467
23.7409,17.4357
23.7409,17.4357
23.5643,17.2591
23.4122,17.0609
23.2873,16.8446
23.2318,16.7104
23.1918,16.6138
23.1439,16.4350
23.1271,16.3726
23.1271,16.3725
23.1271,16.3725
23.1042,16.1983
23.0945,16.1249
23.0945,16.1249
23.0945,15.8672
23.0945,15.8672
23.0945,7.8941
23.0752,7.7973
23.0204,7.7152
21.9218,6.6166
21.8397,6.5617
21.7429,6.5425
21.7396,6.5425
20.0436,6.5651
19.9471,6.5856
19.8657,6.6416
19.8120,6.7244
19.7940,6.8181
19.7940,7.7819
19.7793,7.9313
19.7212,8.1229
19.7164,8.1344
19.7180,8.1350
19.6937,8.2152
19.7033,8.3134
19.7166,8.3455
19.7164,8.3456
19.7212,8.3571
19.7793,8.5487
19.7940,8.6981
19.7940,10.3219
19.7793,10.4713
19.7212,10.6629
19.7164,10.6744
19.7180,10.6750
19.6937,10.7552
19.7033,10.8534
19.7166,10.8855
19.7164,10.8856
19.7212,10.8971
19.7793,11.0887
19.7940,11.2381
19.7940,12.8619
19.7793,13.0113
19.7212,13.2029
19.7164,13.2144
19.7180,13.2150
19.6937,13.2952
19.7033,13.3934
19.7166,13.4255
19.7164,13.4256
19.7212,13.4371
19.7793,13.6287
19.7940,13.7781
19.7940,15.4019
19.7793,15.5513
19.7212,15.7429
19.7164,15.7544
19.7180,15.7550
19.6937,15.8352
19.7033,15.9334
19.7166,15.9655
19.7164,15.9656
19.7212,15.9771
19.7793,16.1687
19.7940,16.3181
19.7940,17.9419
19.7793,18.0913
19.7212,18.2829
19.7164,18.2944
19.7180,18.2950
19.6937,18.3752
19.7033,18.4734
19.7166,18.5055
19.7164,18.5056
19.7212,18.5171
19.7793,18.7087
19.7940,18.8581
19.7940,20.4819
19.7793,20.6313
19.7212,20.8229
19.7164,20.8344
19.7180,20.8350
19.6937,20.9152
19.7033,21.0134
19.7166,21.0455
19.7164,21.0456
19.7212,21.0571
19.7793,21.2487
19.7940,21.3981
19.7940,23.0219
19.7793,23.1713
19.7212,23.3629
19.7164,23.3744
19.7180,23.3750
19.6937,23.4552
19.7033,23.5534
19.7166,23.5855
19.7164,23.5856
19.7212,23.5971
19.7793,23.7887
19.7940,23.9381
19.7940,25.5619
19.7793,25.7113
19.7212,25.9029
19.7212,25.9029
19.6376,26.0593
19.6268,26.0795
19.4998,26.2343
19.3450,26.3613
19.1684,26.4557
18.9768,26.5138
18.9768,26.5138
18.9478,26.5166
18.8274,26.5285
18.8274,26.5285
15.7026,26.5285
15.7026,26.5285
15.5532,26.5138
15.3616,26.4557
15.1850,26.3613
15.0302,26.2343
14.9032,26.0795
14.8088,25.9029
14.7507,25.7113
14.7360,25.5619
14.7360,23.9381
14.7507,23.7887
14.8088,23.5971
14.8088,23.5971
14.8136,23.5856
14.8120,23.5850
14.8363,23.5048
14.8267,23.4066
14.8134,23.3745
14.8136,23.3744
14.8088,23.3629
14.8088,23.3629
14.7507,23.1713
14.7360,23.0219
14.7360,21.3981
14.7507,21.2487
14.8088,21.0571
14.8088,21.0571
14.8136,21.0456
14.8120,21.0450
14.8363,20.9648
14.8267,20.8666
14.8134,20.8345
14.8136,20.8344
14.8088,20.8229
14.8088,20.8229
14.7507,20.6313
14.7360,20.4819
14.7360,18.8581
14.7422,18.7953
14.7410,18.7828
14.7434,18.7705
14.7361,18.7340
14.7325,18.6971
14.7266,18.6860
14.7241,18.6737
14.7035,18.6428
14.6860,18.6100
14.6763,18.6020
14.6693,18.5916
14.6384,18.5710
14.6097,18.5474
14.5977,18.5437
14.5872,18.5368
14.5508,18.5295
14.5152,18.5187
14.4904,18.5175
14.1723,18.5175
14.0755,18.5368
13.9934,18.5916
13.9768,18.6100
13.8957,18.7087
13.8773,18.7313
13.7225,18.8583
13.5459,18.9527
13.3543,19.0108
13.3543,19.0108
13.3253,19.0136
13.2049,19.0255
13.2049,19.0255
9.2951,19.0255
9.2951,19.0255
9.1457,19.0108
8.9541,18.9527
8.7775,18.8583
8.6227,18.7313
8.4957,18.5765
8.4013,18.3999
8.3432,18.2083
8.3285,18.0589
8.3285,16.1811
8.3432,16.0317
8.3761,15.9234
8.3857,15.8252
8.3761,15.7766
8.3725,15.7650
8.3432,15.6683
8.3285,15.5189
8.3285,13.6411
8.3432,13.4917
8.4013,13.3001
8.4957,13.1235
8.6227,12.9687
8.6944,12.9100
8.7445,12.8688
8.8071,12.7925
8.8358,12.6981
8.8370,12.6733
8.8370,12.2940
13.6630,12.2940
13.6630,12.6733
13.6630,12.6733
13.6630,12.6733
13.6725,12.7209
13.6823,12.7701
13.6823,12.7701
13.6823,12.7701
13.6824,12.7702
13.7371,12.8522
13.7371,12.8522
13.7459,12.8610
13.8773,12.9687
13.9847,13.0996
13.9935,13.1084
14.0244,13.1291
14.0531,13.1526
14.0651,13.1563
14.0756,13.1633
14.1120,13.1705
14.1475,13.1813
14.1723,13.1825
14.4884,13.1825
14.5852,13.1632
14.6673,13.1084
14.7222,13.0263
14.7414,12.9295
14.7402,12.9047
14.7389,12.8918
14.7360,12.8619
14.7360,12.0137
11.3135,12.0137
11.3135,12.0663
11.2763,12.1035
11.2237,12.1035
11.1865,12.0663
11.1865,12.0137
11.2237,11.9765
11.2763,11.9765
11.3135,12.0137
14.7360,12.0137
14.7360,11.2381
14.7507,11.0887
14.8088,10.8971
14.8088,10.8971
14.8136,10.8856
14.8120,10.8850
14.8363,10.8048
14.8267,10.7066
14.8134,10.6745
14.8136,10.6744
14.8088,10.6629
14.8088,10.6629
14.7507,10.4713
14.7360,10.3219
14.7360,8.6981
14.7507,8.5487
14.8088,8.3571
14.8088,8.3571
14.8136,8.3456
14.8120,8.3450
14.8363,8.2648
14.8267,8.1666
14.8134,8.1345
14.8136,8.1344
14.8088,8.1229
14.8088,8.1229
14.7507,7.9313
14.7360,7.7819
14.7360,6.8923
14.7167,6.7954
14.6619,6.7134
14.5798,6.6585
14.4830,6.6393
14.4796,6.6393
13.8789,6.6473
13.7823,6.6678
13.7481,6.6857
13.2819,6.9771
13.2744,6.9818
13.2535,7.0015
13.2296,7.0174
13.2179,7.0350
13.2025,7.0494
13.1907,7.0756
13.1748,7.0995
13.1706,7.1202
13.1620,7.1395
13.1555,7.1963
13.1555,7.3620
13.1748,7.4589
13.2296,7.5409
13.3117,7.5958
13.3425,7.6051
13.3424,7.6056
13.5459,7.6673
13.5459,7.6673
13.7225,7.7617
13.8773,7.8887
13.8773,7.8887
14.0043,8.0435
14.0987,8.2201
14.0987,8.2201
14.1568,8.4117
14.1715,8.5611
14.1715,10.4389
14.1568,10.5883
14.0987,10.7799
14.0987,10.7799
14.0425,10.8850
14.0043,10.9565
13.9050,11.0774
13.8773,11.1113
13.7555,11.2112
13.6929,11.2875
13.6642,11.3819
13.6630,11.4067
13.6630,11.7860
8.8370,11.7860
8.8370,11.4067
8.8177,11.3099
8.7629,11.2278
8.7445,11.2112
8.6227,11.1113
8.4957,10.9565
8.4013,10.7799
8.3432,10.5883
8.3285,10.4389
8.3285,8.5611
8.3432,8.4117
8.4013,8.2201
8.4957,8.0435
8.6227,7.8887
8.7775,7.7617
8.9541,7.6673
9.1457,7.6092
9.1457,7.6092
9.1576,7.6056
9.1570,7.6035
9.2321,7.5724
9.3019,7.5026
9.3396,7.4114
9.3445,7.3620
9.3445,6.0333
9.3413,5.9419
9.3445,5.9086
9.3445,5.8751
9.3559,5.7887
9.3569,5.7799
9.3652,5.6932
9.3700,5.6725
9.3700,5.6725
9.3727,5.6606
9.3771,5.6275
9.4008,5.5390
9.4214,5.4498
9.4331,5.4185
9.4418,5.3862
9.4768,5.3016
9.5088,5.2159
9.5188,5.1970
9.5292,5.1751
9.5302,5.1726
9.5373,5.1554
9.5620,5.1128
9.5809,5.0799
9.5831,5.0761
9.6261,4.9953
9.6455,4.9681
9.6622,4.9391
9.7180,4.8665
9.7711,4.7919
9.7939,4.7675
9.8143,4.7409
9.8790,4.6762
9.9415,4.6092
9.9673,4.5880
9.9909,4.5643
10.0600,4.5113
10.0670,4.5058
10.1342,4.4503
10.1342,4.4503
10.1342,4.4503
10.1625,4.4326
10.1891,4.4122
10.2684,4.3665
12.1400,3.1967
12.1626,3.1808
12.1680,3.1765
12.2552,3.1246
12.2599,3.1218
12.3460,3.0679
12.3460,3.0679
12.3460,3.0679
12.3523,3.0651
12.3767,3.0523
12.3827,3.0488
12.4759,3.0087
12.4784,3.0076
12.5733,2.9643
12.5931,2.9583
12.6121,2.9501
12.6121,2.9501
12.6121,2.9501
12.7098,2.9225
12.7151,2.9210
12.7799,2.9011
12.8121,2.8913
12.8121,2.8913
12.8122,2.8913
12.8122,2.8913
12.8189,2.8901
12.8459,2.8841
12.8525,2.8822
12.8525,2.8822
12.9530,2.8676
12.9530,2.8676
12.9558,2.8672
13.0585,2.8500
13.0792,2.8493
13.0797,2.8492
13.0929,2.8473
13.0929,2.8473
13.0963,2.8468
13.0997,2.8463
13.0997,2.8463
13.2040,2.8449
13.3081,2.8413
13.3288,2.8433
13.3426,2.8431
22.4726,2.7214
22.4918,2.7200
22.4918,2.7200
22.5001,2.7195
22.5001,2.7195
22.5001,2.7195
22.6124,2.7195
22.7245,2.7180
22.7371,2.7195
22.7499,2.7195
22.7499,2.7195
22.8596,2.7339
22.8596,2.7339
22.8613,2.7342
22.9725,2.7473
22.9849,2.7504
22.9975,2.7521
22.9976,2.7521
23.1043,2.7807
23.1043,2.7807
23.1060,2.7812
23.2147,2.8087
23.2265,2.8135
23.2388,2.8167
23.2388,2.8168
23.3409,2.8590
23.3409,2.8590
23.3424,2.8597
23.4467,2.9012
23.4578,2.9075
23.4610,2.9088
23.4696,2.9123
23.4872,2.9225
23.5460,2.9565
23.5653,2.9676
23.5682,2.9692
23.6646,3.0232
23.6647,3.0232
23.6689,3.0264
23.6749,3.0309
23.6859,3.0372
23.7749,3.1055
23.7763,3.1065
23.7763,3.1065
23.8648,3.1726
23.8648,3.1726
23.8688,3.1765
23.8740,3.1815
23.8841,3.1893
23.9634,3.2686
23.9646,3.2698
23.9646,3.2698
24.0438,3.3469
24.0493,3.3530
24.0494,3.3530
24.0622,3.3674
24.8711,4.1763
24.9532,4.2312
25.0500,4.2504
25.1468,4.2312
25.2289,4.1763
27.4579,1.9473
27.4579,1.9473
27.6409,1.7643
27.6409,1.7643
27.8391,1.6122
27.8391,1.6122
28.0566,1.4867
28.1308,1.4216
28.1744,1.3331
28.1809,1.2345
28.1492,1.1411
28.0841,1.0669
27.9955,1.0232
27.9300,1.0146
Z" /> 
<path style="fill:#FFFFFF; fill-opacity:1.0000; stroke:none;fill-rule:evenodd;"
d="M 52.4010,1.0043
52.3673,1.0110
52.3332,1.0136
52.3193,1.0206
52.3041,1.0236
52.2757,1.0427
52.2451,1.0582
52.2350,1.0699
52.2221,1.0785
52.2031,1.1070
52.1807,1.1330
52.1759,1.1477
52.1673,1.1606
52.1606,1.1942
52.1499,1.2268
52.1511,1.2422
52.1481,1.2574
52.1548,1.2911
52.1573,1.3252
52.1643,1.3391
52.1674,1.3542
52.1864,1.3827
52.2019,1.4133
52.2136,1.4234
52.2222,1.4363
52.2767,1.4777
52.3674,1.5288
52.6280,1.6759
52.7218,1.7067
52.7523,1.7085
52.8138,1.7085
52.8575,1.7119
52.9450,1.7188
53.1617,1.7734
53.1617,1.7734
53.1617,1.7734
53.3652,1.8659
53.3652,1.8659
53.5489,1.9931
53.5489,1.9931
53.6820,2.1263
53.6820,2.1263
53.7069,2.1511
53.8341,2.3348
53.8528,2.3758
53.8652,2.3940
53.8811,2.4096
53.9032,2.4403
53.9288,2.4562
53.9358,2.4630
53.9471,2.4676
53.9871,2.4924
54.0241,2.4985
54.0274,2.4998
54.0319,2.4997
54.0845,2.5084
54.1258,2.4987
54.1261,2.4987
54.1264,2.4986
54.1806,2.4859
54.2166,2.4600
54.2169,2.4599
54.2171,2.4597
54.2608,2.4283
54.2834,2.3919
54.2859,2.3894
54.2876,2.3852
54.3129,2.3444
54.3202,2.3038
54.3227,2.2977
54.3226,2.2908
54.3290,2.2555
54.3290,2.2170
54.3489,2.2170
54.4492,2.2273
54.6119,2.2812
54.6119,2.2812
54.7577,2.3711
54.7577,2.3711
54.8789,2.4923
54.8789,2.4923
54.9688,2.6381
54.9688,2.6381
55.0227,2.8008
55.0330,2.9011
55.0330,2.9460
54.2445,2.9460
54.1477,2.9653
54.0656,3.0201
54.0108,3.1022
53.9915,3.1990
53.9915,3.2010
54.0108,3.2978
54.0656,3.3799
54.1477,3.4347
54.2445,3.4540
55.0330,3.4540
55.0330,3.4989
55.0227,3.5992
54.9688,3.7619
54.9688,3.7619
54.8789,3.9077
54.8789,3.9077
54.7577,4.0289
54.7577,4.0289
54.6119,4.1188
54.6119,4.1188
54.4492,4.1727
54.4492,4.1727
54.3489,4.1830
54.3488,4.1830
54.3290,4.1830
54.3290,4.1445
54.3202,4.1002
54.3129,4.0556
54.3106,4.0519
54.3097,4.0477
54.2846,4.0101
54.2608,3.9717
54.2573,3.9692
54.2549,3.9656
54.2173,3.9405
54.1806,3.9141
54.1764,3.9131
54.1728,3.9107
54.1285,3.9019
54.0845,3.8916
54.0802,3.8923
54.0760,3.8915
54.0317,3.9003
53.9871,3.9076
53.9834,3.9099
53.9792,3.9107
53.9416,3.9358
53.9032,3.9597
53.9007,3.9632
53.8971,3.9656
53.8457,4.0398
53.8436,4.0442
53.8211,4.1404
53.8210,4.1489
53.8210,4.1830
53.8070,4.1970
53.7807,4.2023
53.6986,4.2571
53.6807,4.2750
53.6259,4.3571
53.6066,4.4539
53.6259,4.5508
53.6549,4.6026
53.7194,4.6914
53.7195,4.6915
53.7202,4.6925
53.7203,4.6926
53.8201,4.8885
53.8201,4.8885
53.8881,5.0977
53.9225,5.3150
53.9225,5.4127
53.9418,5.5095
53.9966,5.5916
54.0787,5.6464
54.1755,5.6657
54.2723,5.6464
54.3164,5.6170
54.3489,5.6170
54.4492,5.6273
54.6119,5.6812
54.6119,5.6812
54.7577,5.7711
54.7577,5.7711
54.8789,5.8923
54.8789,5.8923
54.9688,6.0381
54.9688,6.0381
55.0227,6.2008
55.0330,6.3011
55.0330,6.3460
54.2445,6.3460
54.1477,6.3653
54.0656,6.4201
54.0108,6.5022
53.9915,6.5990
53.9915,6.6010
54.0108,6.6978
54.0656,6.7799
54.1477,6.8347
54.2445,6.8540
55.0330,6.8540
55.0854,6.9064
55.1385,6.9419
55.1337,6.9429
55.0516,6.9977
54.9968,7.0798
54.9903,7.0970
54.9688,7.1619
54.9688,7.1619
54.8789,7.3077
54.8789,7.3077
54.7577,7.4289
54.7577,7.4289
54.6119,7.5188
54.6119,7.5188
54.4492,7.5727
54.4492,7.5727
54.3489,7.5830
54.3488,7.5830
54.3164,7.5830
54.2723,7.5536
54.1755,7.5343
54.0787,7.5536
53.9966,7.6084
53.9418,7.6905
53.9225,7.7873
53.9225,8.0152
53.9418,8.1120
53.9799,8.1757
54.0019,8.2024
54.1004,8.3868
54.1611,8.5869
54.1611,8.5869
54.1611,8.5869
54.1658,8.6344
54.1765,8.7429
54.1765,9.3571
54.1765,9.3572
54.1611,9.5131
54.1004,9.7132
54.1004,9.7132
54.0109,9.8807
53.9822,9.9752
53.9919,10.0734
54.0109,10.1193
54.1004,10.2868
54.1004,10.2868
54.1611,10.4869
54.1611,10.4869
54.1611,10.4869
54.1746,10.6237
54.1765,10.6429
54.1765,10.7381
54.1958,10.8349
54.2506,10.9170
54.3327,10.9718
54.4295,10.9911
54.5263,10.9718
54.5806,10.9386
54.5815,10.9399
54.7676,10.8048
54.9635,10.7049
54.9635,10.7049
54.9635,10.7049
55.1728,10.6369
55.3900,10.6025
55.3900,10.6025
56.3177,10.6025
56.4145,10.5832
56.4966,10.5284
56.5514,10.4463
56.5707,10.3495
56.5694,10.3238
56.5670,10.3005
56.5670,10.3005
56.5670,10.2540
59.9970,10.2540
60.0938,10.2347
60.1759,10.1799
60.2307,10.0978
60.2500,10.0010
60.2500,9.9990
60.2307,9.9022
60.1759,9.8201
60.0938,9.7653
59.9970,9.7460
56.5670,9.7460
56.5670,9.6995
56.5670,9.6995
56.5736,9.6348
56.5643,9.5366
56.5181,9.4493
56.4420,9.3864
56.3837,9.3638
56.3300,9.3503
56.3300,9.3503
56.3300,9.3503
56.1594,9.2728
56.1224,9.2560
55.9350,9.1262
55.7738,8.9649
55.6440,8.7776
55.5790,8.6344
55.5497,8.5700
55.5497,8.5700
55.4940,8.3489
55.4940,8.3489
55.4940,8.3489
55.4835,8.2150
55.4835,7.1766
55.4642,7.0798
55.4094,6.9977
55.3562,6.9622
55.3611,6.9612
55.4432,6.9064
55.4980,6.8243
55.5096,6.7893
55.5497,6.6300
55.5497,6.6300
55.6385,6.4346
55.6440,6.4224
55.6456,6.4201
55.7281,6.3011
55.7738,6.2350
55.9350,6.0738
55.9866,6.0381
56.1224,5.9440
56.1225,5.9440
56.3300,5.8497
56.3300,5.8497
56.5511,5.7940
56.5511,5.7940
56.6850,5.7835
56.6850,5.7835
59.3150,5.7835
59.3150,5.7835
59.4489,5.7940
59.4489,5.7940
59.6700,5.8497
59.6700,5.8497
59.8775,5.9440
59.8776,5.9440
60.0649,6.0738
60.0650,6.0739
60.2261,6.2350
60.2262,6.2351
60.3560,6.4224
60.3560,6.4225
60.4503,6.6300
60.4503,6.6300
60.5060,6.8511
60.5060,6.8511
60.5165,6.9850
60.5165,8.2150
60.5060,8.3489
60.5060,8.3489
60.4503,8.5700
60.4503,8.5700
60.4210,8.6344
60.3985,8.7305
60.4145,8.8279
60.4665,8.9118
60.5467,8.9694
60.6429,8.9919
60.6514,8.9920
62.5050,8.9920
62.6018,8.9727
62.6839,8.9179
62.7387,8.8358
62.7580,8.7390
62.7580,8.7387
62.7579,8.6344
62.7531,4.0239
62.7338,3.9271
62.6788,3.8451
62.5967,3.7904
62.4999,3.7712
62.4031,3.7906
62.3882,3.7973
62.3867,3.7980
62.3867,3.7980
62.3867,3.7980
62.1444,3.8984
62.1444,3.8984
62.1444,3.8984
61.9027,3.9632
61.8911,3.9663
61.7743,3.9817
61.6311,4.0005
61.6311,4.0005
61.6311,4.0005
61.6311,4.0005
61.3689,4.0005
61.3689,4.0005
61.3689,4.0005
61.3689,4.0005
61.2705,3.9875
61.1089,3.9663
60.8742,3.9034
60.8556,3.8984
60.8556,3.8984
60.8556,3.8984
60.6133,3.7980
60.3862,3.6669
60.1781,3.5073
59.9927,3.3219
59.8331,3.1138
59.7020,2.8867
59.6016,2.6444
59.5625,2.4986
59.5337,2.3911
59.5337,2.3911
59.5337,2.3911
59.4995,2.1311
59.4995,1.8689
59.4995,1.8689
59.4995,1.8689
59.5206,1.7085
59.5337,1.6089
59.5634,1.4983
59.6016,1.3556
59.6016,1.3556
59.6016,1.3556
59.6034,1.3512
59.6039,1.3489
59.6043,1.3477
59.6041,1.3477
59.6227,1.2544
59.6034,1.1576
59.5486,1.0755
59.4665,1.0207
59.3697,1.0014
Z" /> 
</g>
<g style="fill:none; 
stroke:#FFFFFF; stroke-width:0.0500; stroke-opacity:1; 
stroke-linecap:round; stroke-linejoin:round;">
<circle cx="61.5000" cy="29.7500" r="1.5000" /> 
<circle cx="61.5000" cy="2.0000" r="1.5000" /> 
<circle cx="2.2500" cy="2.1689" r="1.5811" /> 
<path style="fill:none; 
stroke:#FFFFFF; stroke-width:0.0500; stroke-opacity:1; 
stroke-linecap:round; stroke-linejoin:round;fill:none"
d="M 63.5000,0.0000
0.0000,0.0000
0.0000,31.7500
63.5000,31.7500
Z" /> 
<circle cx="2.2500" cy="29.5000" r="1.5811" /> 
</g>
<g style="fill:#000000; fill-opacity:1.0000; stroke:none;">
<circle cx="50.1000" cy="2.0000" r="0.2540" /> 
</g>
<g style="fill:#000000; fill-opacity:1.0000; stroke:none;">
<circle cx="50.1000" cy="6.8000" r="0.2540" /> 
</g>
<g style="fill:#000000; fill-opacity:1.0000; stroke:none;">
<circle cx="40.1600" cy="9.8000" r="0.0635" /> 
</g>
<g style="fill:#000000; fill-opacity:1.0000; stroke:none;">
<circle cx="42.7000" cy="9.8000" r="0.0635" /> 
</g>
<g style="fill:#000000; fill-opacity:1.0000; stroke:none;">
<circle cx="45.2400" cy="9.8000" r="0.0635" /> 
</g>
<g style="fill:#000000; fill-opacity:1.0000; stroke:none;">
<circle cx="45.0400" cy="4.6000" r="0.1270" /> 
</g>
<g style="fill:#000000; fill-opacity:1.0000; stroke:none;">
<circle cx="42.5000" cy="4.6000" r="0.1270" /> 
</g>
<g style="fill:#000000; fill-opacity:1.0000; stroke:none;">
<circle cx="39.9600" cy="4.6000" r="0.1270" /> 
</g>
<g style="fill:#000000; fill-opacity:1.0000; stroke:none;">
<circle cx="11.2500" cy="17.1200" r="0.0635" /> 
</g>
<g style="fill:#000000; fill-opacity:1.0000; stroke:none;">
<circle cx="11.2500" cy="14.5800" r="0.0635" /> 
</g>
<g style="fill:#000000; fill-opacity:1.0000; stroke:none;">
<circle cx="11.2500" cy="12.0400" r="0.0635" /> 
</g>
<g style="fill:#000000; fill-opacity:1.0000; stroke:none;">
<circle cx="11.2500" cy="9.5000" r="0.0635" /> 
</g>
<g style="fill:#000000; fill-opacity:1.0000; stroke:none;">
<circle cx="39.0000" cy="20.2100" r="0.0635" /> 
</g>
<g style="fill:#000000; fill-opacity:1.0000; stroke:none;">
<circle cx="39.0000" cy="22.7500" r="0.0635" /> 
</g>
<g style="fill:#000000; fill-opacity:1.0000; stroke:none;">
<circle cx="39.0000" cy="25.2900" r="0.0635" /> 
</g> 
</svg>
