<?xml version="1.0" standalone="no"?>
 <!DOCTYPE svg PUBLIC "-//W3C//DTD SVG 1.1//EN" 
 "http://www.w3.org/Graphics/SVG/1.1/DTD/svg11.dtd"> 
<svg
  xmlns:svg="http://www.w3.org/2000/svg"
  xmlns="http://www.w3.org/2000/svg"
  xmlns:xlink="http://www.w3.org/1999/xlink"
  version="1.1"
  width="63.5000mm" height="31.7500mm" viewBox="0.0000 0.0000 63.5000 31.7500">
<title>SVG Image created as front.svg date 2025/11/13 19:33:25 </title>
  <desc>Image generated by PCBNEW </desc>
<g style="fill:#000000; fill-opacity:1.0000;stroke:#000000; stroke-opacity:1.0000;
stroke-linecap:round; stroke-linejoin:round;"
 transform="translate(0 0) scale(1 1)">
</g>
<g style="fill:#000000; fill-opacity:1.0000; 
stroke:#000000; stroke-width:0.0212; stroke-opacity:1; 
stroke-linecap:round; stroke-linejoin:round;">
<rect x="-6.448250" y="-5.025000" width="74.973250" height="41.800000" rx="0.000000" />
<path style="fill:#FFFFFF; fill-opacity:1.0000; stroke:none;fill-rule:evenodd;"
d="M 31.7775,6.2080
31.7775,7.7320
28.7525,7.7320
28.7525,6.2080
Z" /> 
<path style="fill:#FFFFFF; fill-opacity:1.0000; stroke:none;fill-rule:evenodd;"
d="M 31.7775,8.7480
31.7775,10.2720
28.7525,10.2720
28.7525,8.7480
Z" /> 
<path style="fill:#FFFFFF; fill-opacity:1.0000; stroke:none;fill-rule:evenodd;"
d="M 31.7775,11.2880
31.7775,12.8120
28.7525,12.8120
28.7525,11.2880
Z" /> 
<path style="fill:#FFFFFF; fill-opacity:1.0000; stroke:none;fill-rule:evenodd;"
d="M 31.7775,13.8280
31.7775,15.3520
28.7525,15.3520
28.7525,13.8280
Z" /> 
<path style="fill:#FFFFFF; fill-opacity:1.0000; stroke:none;fill-rule:evenodd;"
d="M 31.7775,18.9080
31.7775,20.4320
28.7525,20.4320
28.7525,18.9080
Z" /> 
<path style="fill:#FFFFFF; fill-opacity:1.0000; stroke:none;fill-rule:evenodd;"
d="M 31.7775,16.3680
31.7775,17.8920
28.7525,17.8920
28.7525,16.3680
Z" /> 
<path style="fill:#FFFFFF; fill-opacity:1.0000; stroke:none;fill-rule:evenodd;"
d="M 47.7475,23.9880
47.7475,25.5120
44.7225,25.5120
44.7225,23.9880
Z" /> 
<path style="fill:#FFFFFF; fill-opacity:1.0000; stroke:none;fill-rule:evenodd;"
d="M 31.7775,23.9880
31.7775,25.5120
28.7525,25.5120
28.7525,23.9880
Z" /> 
<path style="fill:#FFFFFF; fill-opacity:1.0000; stroke:none;fill-rule:evenodd;"
d="M 47.7475,21.4480
47.7475,22.9720
44.7225,22.9720
44.7225,21.4480
Z" /> 
<path style="fill:#FFFFFF; fill-opacity:1.0000; stroke:none;fill-rule:evenodd;"
d="M 47.7475,18.9080
47.7475,20.4320
44.7225,20.4320
44.7225,18.9080
Z" /> 
<path style="fill:#FFFFFF; fill-opacity:1.0000; stroke:none;fill-rule:evenodd;"
d="M 47.7475,16.3680
47.7475,17.8920
44.7225,17.8920
44.7225,16.3680
Z" /> 
<path style="fill:#FFFFFF; fill-opacity:1.0000; stroke:none;fill-rule:evenodd;"
d="M 47.7475,13.8280
47.7475,15.3520
44.7225,15.3520
44.7225,13.8280
Z" /> 
<path style="fill:#FFFFFF; fill-opacity:1.0000; stroke:none;fill-rule:evenodd;"
d="M 47.7475,11.2880
47.7475,12.8120
44.7225,12.8120
44.7225,11.2880
Z" /> 
<path style="fill:#FFFFFF; fill-opacity:1.0000; stroke:none;fill-rule:evenodd;"
d="M 47.7475,8.7480
47.7475,10.2720
44.7225,10.2720
44.7225,8.7480
Z" /> 
<path style="fill:#FFFFFF; fill-opacity:1.0000; stroke:none;fill-rule:evenodd;"
d="M 47.7475,6.2080
47.7475,7.7320
44.7225,7.7320
44.7225,6.2080
Z" /> 
<path style="fill:#FFFFFF; fill-opacity:1.0000; stroke:none;fill-rule:evenodd;"
d="M 31.7775,21.4480
31.7775,22.9720
28.7525,22.9720
28.7525,21.4480
Z" /> 
<path style="fill:#FFFFFF; fill-opacity:1.0000; stroke:none;fill-rule:evenodd;"
d="M 22.4510,7.8950
24.2290,7.8950
24.2290,11.7050
22.4510,11.7050
Z" /> 
<path style="fill:#FFFFFF; fill-opacity:1.0000; stroke:none;fill-rule:evenodd;"
d="M 19.9110,7.8950
21.6890,7.8950
21.6890,11.7050
19.9110,11.7050
Z" /> 
<path style="fill:#FFFFFF; fill-opacity:1.0000; stroke:none;fill-rule:evenodd;"
d="M 17.3710,7.8950
19.1490,7.8950
19.1490,11.7050
17.3710,11.7050
Z" /> 
<path style="fill:#FFFFFF; fill-opacity:1.0000; stroke:none;fill-rule:evenodd;"
d="M 10.3400,8.7950
10.3434,8.7778
10.3532,8.7632
10.3678,8.7534
10.3850,8.7500
11.6450,8.7500
11.6622,8.7534
11.6768,8.7632
11.6866,8.7778
11.6900,8.7950
11.6900,9.3050
11.6866,9.3222
11.6768,9.3368
11.6622,9.3466
11.6450,9.3500
10.3850,9.3500
10.3678,9.3466
10.3532,9.3368
10.3434,9.3222
10.3400,9.3050
Z" /> 
<path style="fill:#FFFFFF; fill-opacity:1.0000; stroke:none;fill-rule:evenodd;"
d="M 10.3400,9.7450
10.3434,9.7278
10.3532,9.7132
10.3678,9.7034
10.3850,9.7000
11.6450,9.7000
11.6622,9.7034
11.6768,9.7132
11.6866,9.7278
11.6900,9.7450
11.6900,10.2550
11.6866,10.2722
11.6768,10.2868
11.6622,10.2966
11.6450,10.3000
10.3850,10.3000
10.3678,10.2966
10.3532,10.2868
10.3434,10.2722
10.3400,10.2550
Z" /> 
<path style="fill:#FFFFFF; fill-opacity:1.0000; stroke:none;fill-rule:evenodd;"
d="M 10.3400,10.6950
10.3434,10.6778
10.3532,10.6632
10.3678,10.6534
10.3850,10.6500
11.6450,10.6500
11.6622,10.6534
11.6768,10.6632
11.6866,10.6778
11.6900,10.6950
11.6900,11.2050
11.6866,11.2222
11.6768,11.2368
11.6622,11.2466
11.6450,11.2500
10.3850,11.2500
10.3678,11.2466
10.3532,11.2368
10.3434,11.2222
10.3400,11.2050
Z" /> 
<path style="fill:#FFFFFF; fill-opacity:1.0000; stroke:none;fill-rule:evenodd;"
d="M 12.7100,10.6950
12.7134,10.6778
12.7232,10.6632
12.7378,10.6534
12.7550,10.6500
14.0150,10.6500
14.0322,10.6534
14.0468,10.6632
14.0566,10.6778
14.0600,10.6950
14.0600,11.2050
14.0566,11.2222
14.0468,11.2368
14.0322,11.2466
14.0150,11.2500
12.7550,11.2500
12.7378,11.2466
12.7232,11.2368
12.7134,11.2222
12.7100,11.2050
Z" /> 
<path style="fill:#FFFFFF; fill-opacity:1.0000; stroke:none;fill-rule:evenodd;"
d="M 12.7100,8.7950
12.7134,8.7778
12.7232,8.7632
12.7378,8.7534
12.7550,8.7500
14.0150,8.7500
14.0322,8.7534
14.0468,8.7632
14.0566,8.7778
14.0600,8.7950
14.0600,9.3050
14.0566,9.3222
14.0468,9.3368
14.0322,9.3466
14.0150,9.3500
12.7550,9.3500
12.7378,9.3466
12.7232,9.3368
12.7134,9.3222
12.7100,9.3050
Z" /> 
<path style="fill:#FFFFFF; fill-opacity:1.0000; stroke:none;fill-rule:evenodd;"
d="M 11.4250,6.8500
11.4079,6.9361
11.3591,7.0091
11.2861,7.0579
11.2000,7.0750
10.7500,7.0750
10.6639,7.0579
10.5909,7.0091
10.5421,6.9361
10.5250,6.8500
10.5250,6.3500
10.5421,6.2639
10.5909,6.1909
10.6639,6.1421
10.7500,6.1250
11.2000,6.1250
11.2861,6.1421
11.3591,6.1909
11.4079,6.2639
11.4250,6.3500
Z" /> 
<path style="fill:#FFFFFF; fill-opacity:1.0000; stroke:none;fill-rule:evenodd;"
d="M 9.8750,6.8500
9.8579,6.9361
9.8091,7.0091
9.7361,7.0579
9.6500,7.0750
9.2000,7.0750
9.1139,7.0579
9.0409,7.0091
8.9921,6.9361
8.9750,6.8500
8.9750,6.3500
8.9921,6.2639
9.0409,6.1909
9.1139,6.1421
9.2000,6.1250
9.6500,6.1250
9.7361,6.1421
9.8091,6.1909
9.8579,6.2639
9.8750,6.3500
Z" /> 
<path style="fill:#FFFFFF; fill-opacity:1.0000; stroke:none;fill-rule:evenodd;"
d="M 5.8500,19.7000
5.9457,19.7190
6.0268,19.7732
6.0810,19.8543
6.1000,19.9500
6.1000,20.4500
6.0810,20.5457
6.0268,20.6268
5.9457,20.6810
5.8500,20.7000
0.8500,20.7000
0.7543,20.6810
0.6732,20.6268
0.6190,20.5457
0.6000,20.4500
0.6000,19.9500
0.6190,19.8543
0.6732,19.7732
0.7543,19.7190
0.8500,19.7000
Z" /> 
<path style="fill:#FFFFFF; fill-opacity:1.0000; stroke:none;fill-rule:evenodd;"
d="M 5.8500,21.7000
5.9457,21.7190
6.0268,21.7732
6.0810,21.8543
6.1000,21.9500
6.1000,22.4500
6.0810,22.5457
6.0268,22.6268
5.9457,22.6810
5.8500,22.7000
0.8500,22.7000
0.7543,22.6810
0.6732,22.6268
0.6190,22.5457
0.6000,22.4500
0.6000,21.9500
0.6190,21.8543
0.6732,21.7732
0.7543,21.7190
0.8500,21.7000
Z" /> 
<path style="fill:#FFFFFF; fill-opacity:1.0000; stroke:none;fill-rule:evenodd;"
d="M 5.8500,23.7000
5.9457,23.7190
6.0268,23.7732
6.0810,23.8543
6.1000,23.9500
6.1000,24.4500
6.0810,24.5457
6.0268,24.6268
5.9457,24.6810
5.8500,24.7000
0.8500,24.7000
0.7543,24.6810
0.6732,24.6268
0.6190,24.5457
0.6000,24.4500
0.6000,23.9500
0.6190,23.8543
0.6732,23.7732
0.7543,23.7190
0.8500,23.7000
Z" /> 
<path style="fill:#FFFFFF; fill-opacity:1.0000; stroke:none;fill-rule:evenodd;"
d="M 6.8500,17.0000
6.9457,17.0190
7.0268,17.0732
7.0810,17.1543
7.1000,17.2500
7.1000,18.3500
7.0810,18.4457
7.0268,18.5268
6.9457,18.5810
6.8500,18.6000
4.3500,18.6000
4.2543,18.5810
4.1732,18.5268
4.1190,18.4457
4.1000,18.3500
4.1000,17.2500
4.1190,17.1543
4.1732,17.0732
4.2543,17.0190
4.3500,17.0000
Z" /> 
<path style="fill:#FFFFFF; fill-opacity:1.0000; stroke:none;fill-rule:evenodd;"
d="M 6.8500,25.8000
6.9457,25.8190
7.0268,25.8732
7.0810,25.9543
7.1000,26.0500
7.1000,27.1500
7.0810,27.2457
7.0268,27.3268
6.9457,27.3810
6.8500,27.4000
4.3500,27.4000
4.2543,27.3810
4.1732,27.3268
4.1190,27.2457
4.1000,27.1500
4.1000,26.0500
4.1190,25.9543
4.1732,25.8732
4.2543,25.8190
4.3500,25.8000
Z" /> 
<path style="fill:#FFFFFF; fill-opacity:1.0000; stroke:none;fill-rule:evenodd;"
d="M 19.2220,6.6320
17.6980,6.6320
17.6980,4.0920
19.2220,4.0920
Z" /> 
<path style="fill:#FFFFFF; fill-opacity:1.0000; stroke:none;fill-rule:evenodd;"
d="M 21.7620,6.6320
20.2380,6.6320
20.2380,4.0920
21.7620,4.0920
Z" /> 
<path style="fill:#FFFFFF; fill-opacity:1.0000; stroke:none;fill-rule:evenodd;"
d="M 24.3020,6.1240
22.7780,6.1240
22.7780,3.5840
24.3020,3.5840
Z" /> 
<path style="fill:#FFFFFF; fill-opacity:1.0000; stroke:none;fill-rule:evenodd;"
d="M 6.1750,9.5000
6.2707,9.5190
6.3518,9.5732
6.4060,9.6543
6.4250,9.7500
6.4250,10.2500
6.4060,10.3457
6.3518,10.4268
6.2707,10.4810
6.1750,10.5000
0.3250,10.5000
0.2293,10.4810
0.1482,10.4268
0.0940,10.3457
0.0750,10.2500
0.0750,9.7500
0.0940,9.6543
0.1482,9.5732
0.2293,9.5190
0.3250,9.5000
Z" /> 
<path style="fill:#FFFFFF; fill-opacity:1.0000; stroke:none;fill-rule:evenodd;"
d="M 6.1750,11.5000
6.2707,11.5190
6.3518,11.5732
6.4060,11.6543
6.4250,11.7500
6.4250,12.2500
6.4060,12.3457
6.3518,12.4268
6.2707,12.4810
6.1750,12.5000
0.3250,12.5000
0.2293,12.4810
0.1482,12.4268
0.0940,12.3457
0.0750,12.2500
0.0750,11.7500
0.0940,11.6543
0.1482,11.5732
0.2293,11.5190
0.3250,11.5000
Z" /> 
<path style="fill:#FFFFFF; fill-opacity:1.0000; stroke:none;fill-rule:evenodd;"
d="M 6.7500,6.8000
6.8457,6.8190
6.9268,6.8732
6.9810,6.9543
7.0000,7.0500
7.0000,8.1500
6.9810,8.2457
6.9268,8.3268
6.8457,8.3810
6.7500,8.4000
4.2500,8.4000
4.1543,8.3810
4.0732,8.3268
4.0190,8.2457
4.0000,8.1500
4.0000,7.0500
4.0190,6.9543
4.0732,6.8732
4.1543,6.8190
4.2500,6.8000
Z" /> 
<path style="fill:#FFFFFF; fill-opacity:1.0000; stroke:none;fill-rule:evenodd;"
d="M 6.7500,13.6000
6.8457,13.6190
6.9268,13.6732
6.9810,13.7543
7.0000,13.8500
7.0000,14.9500
6.9810,15.0457
6.9268,15.1268
6.8457,15.1810
6.7500,15.2000
4.2500,15.2000
4.1543,15.1810
4.0732,15.1268
4.0190,15.0457
4.0000,14.9500
4.0000,13.8500
4.0190,13.7543
4.0732,13.6732
4.1543,13.6190
4.2500,13.6000
Z" /> 
<path style="fill:#FFFFFF; fill-opacity:1.0000; stroke:none;fill-rule:evenodd;"
d="M 54.1550,16.2310
54.1550,18.0090
50.3450,18.0090
50.3450,16.2310
Z" /> 
<path style="fill:#FFFFFF; fill-opacity:1.0000; stroke:none;fill-rule:evenodd;"
d="M 54.1550,13.6910
54.1550,15.4690
50.3450,15.4690
50.3450,13.6910
Z" /> 
<path style="fill:#FFFFFF; fill-opacity:1.0000; stroke:none;fill-rule:evenodd;"
d="M 54.1550,11.1510
54.1550,12.9290
50.3450,12.9290
50.3450,11.1510
Z" /> 
<path style="fill:#FFFFFF; fill-opacity:1.0000; stroke:none;fill-rule:evenodd;"
d="M 54.1550,8.6110
54.1550,10.3890
50.3450,10.3890
50.3450,8.6110
Z" /> 
<path style="fill:#FFFFFF; fill-opacity:1.0000; stroke:none;fill-rule:evenodd;"
d="M 11.4250,3.4500
11.4079,3.5361
11.3591,3.6091
11.2861,3.6579
11.2000,3.6750
10.7500,3.6750
10.6639,3.6579
10.5909,3.6091
10.5421,3.5361
10.5250,3.4500
10.5250,2.9500
10.5421,2.8639
10.5909,2.7909
10.6639,2.7421
10.7500,2.7250
11.2000,2.7250
11.2861,2.7421
11.3591,2.7909
11.4079,2.8639
11.4250,2.9500
Z" /> 
<path style="fill:#FFFFFF; fill-opacity:1.0000; stroke:none;fill-rule:evenodd;"
d="M 9.8750,3.4500
9.8579,3.5361
9.8091,3.6091
9.7361,3.6579
9.6500,3.6750
9.2000,3.6750
9.1139,3.6579
9.0409,3.6091
8.9921,3.5361
8.9750,3.4500
8.9750,2.9500
8.9921,2.8639
9.0409,2.7909
9.1139,2.7421
9.2000,2.7250
9.6500,2.7250
9.7361,2.7421
9.8091,2.7909
9.8579,2.8639
9.8750,2.9500
Z" /> 
<path style="fill:#FFFFFF; fill-opacity:1.0000; stroke:none;fill-rule:evenodd;"
d="M 22.5950,21.0990
22.5950,19.3210
26.4050,19.3210
26.4050,21.0990
Z" /> 
<path style="fill:#FFFFFF; fill-opacity:1.0000; stroke:none;fill-rule:evenodd;"
d="M 22.5950,23.6390
22.5950,21.8610
26.4050,21.8610
26.4050,23.6390
Z" /> 
<path style="fill:#FFFFFF; fill-opacity:1.0000; stroke:none;fill-rule:evenodd;"
d="M 22.5950,26.1790
22.5950,24.4010
26.4050,24.4010
26.4050,26.1790
Z" /> 
</g>
<g style="fill:#FFFFFF; fill-opacity:1.0000; stroke:none;">
<circle cx="13.4000" cy="2.0000" r="0.7620" /> 
</g>
<g style="fill:#FFFFFF; fill-opacity:1.0000; stroke:none;">
<circle cx="13.4000" cy="6.8000" r="0.7620" /> 
</g>
<g style="fill:none; 
stroke:#FFFFFF; stroke-width:0.7620; stroke-opacity:1; 
stroke-linecap:round; stroke-linejoin:round;">
<path d="M11.0150 10.0000
L9.4000 10.0000
" />
</g>
<g style="fill:none; 
stroke:#FFFFFF; stroke-width:1.0160; stroke-opacity:1; 
stroke-linecap:round; stroke-linejoin:round;">
<path d="M9.4000 10.0000
L8.8000 9.4000
" />
<path d="M8.2000 10.0000
L8.8000 9.4000
" />
</g>
<g style="fill:none; 
stroke:#FFFFFF; stroke-width:1.7780; stroke-opacity:1; 
stroke-linecap:round; stroke-linejoin:round;">
<path d="M58.7500 24.2500
L58.7500 12.2500
" />
<path d="M58.5400 12.0400
L52.2500 12.0400
" />
</g>
<g style="fill:none; 
stroke:#FFFFFF; stroke-width:1.0160; stroke-opacity:1; 
stroke-linecap:round; stroke-linejoin:round;">
<path d="M8.5577 25.2900
L7.4677 24.2000
" />
<path d="M8.8000 3.2000
L9.0350 3.2000
" />
</g>
<g style="fill:none; 
stroke:#FFFFFF; stroke-width:1.7780; stroke-opacity:1; 
stroke-linecap:round; stroke-linejoin:round;">
<path d="M58.7500 12.2500
L58.7500 6.3710
" />
<path d="M58.7500 6.3710
L53.7500 2.0000
" />
<path d="M39.7500 26.0000
L35.9600 22.2100
" />
<path d="M39.7500 29.7500
L39.7500 26.0000
" />
</g>
<g style="fill:none; 
stroke:#FFFFFF; stroke-width:1.0160; stroke-opacity:1; 
stroke-linecap:round; stroke-linejoin:round;">
<path d="M8.8000 9.4000
L8.8000 3.2000
" />
</g>
<g style="fill:none; 
stroke:#FFFFFF; stroke-width:1.7780; stroke-opacity:1; 
stroke-linecap:round; stroke-linejoin:round;">
<path d="M58.7500 12.2500
L58.5400 12.0400
" />
<path d="M28.9600 29.7500
L24.5000 25.2900
" />
</g>
<g style="fill:none; 
stroke:#FFFFFF; stroke-width:1.0160; stroke-opacity:1; 
stroke-linecap:round; stroke-linejoin:round;">
<path d="M7.4677 24.2000
L3.3500 24.2000
" />
</g>
<g style="fill:none; 
stroke:#FFFFFF; stroke-width:1.7780; stroke-opacity:1; 
stroke-linecap:round; stroke-linejoin:round;">
<path d="M39.7500 29.7500
L53.2500 29.7500
" />
<path d="M39.7500 29.7500
L28.9600 29.7500
" />
<path d="M24.5000 25.2900
L8.5577 25.2900
" />
<path d="M53.2500 29.7500
L58.7500 24.2500
" />
</g>
<g style="fill:none; 
stroke:#FFFFFF; stroke-width:1.0160; stroke-opacity:1; 
stroke-linecap:round; stroke-linejoin:round;">
<path d="M3.2500 10.0000
L8.2000 10.0000
" />
</g>
<g style="fill:none; 
stroke:#FFFFFF; stroke-width:1.7780; stroke-opacity:1; 
stroke-linecap:round; stroke-linejoin:round;">
<path d="M35.9600 22.2100
L30.2650 22.2100
" />
<path d="M40.8750 4.6250
L38.5000 7.0000
" />
<path d="M38.5000 16.0000
L34.7500 19.7500
" />
<path d="M50.2500 4.7500
L40.8750 4.6250
" />
<path d="M38.4000 7.0000
L38.5000 7.0000
" />
<path d="M34.7500 19.7500
L34.6700 19.6700
" />
<path d="M52.2500 9.5000
L52.2500 6.0000
" />
<path d="M52.2500 6.0000
L50.2500 4.7500
" />
<path d="M34.6700 19.6700
L30.2650 19.6700
" />
<path d="M25.0400 19.6700
L30.2650 19.6700
" />
</g>
<g style="fill:none; 
stroke:#FFFFFF; stroke-width:1.5240; stroke-opacity:1; 
stroke-linecap:round; stroke-linejoin:round;">
<path d="M13.3850 7.6150
L13.3850 9.0500
" />
</g>
<g style="fill:none; 
stroke:#FFFFFF; stroke-width:1.7780; stroke-opacity:1; 
stroke-linecap:round; stroke-linejoin:round;">
<path d="M23.5400 4.6000
L24.9400 3.2000
" />
<path d="M24.9400 3.2000
L34.6000 3.2000
" />
<path d="M23.7400 2.0000
L13.4000 2.0000
" />
<path d="M24.5000 20.2100
L25.0400 19.6700
" />
<path d="M38.5000 7.0000
L38.5000 16.0000
" />
<path d="M34.6000 3.2000
L38.4000 7.0000
" />
</g>
<g style="fill:none; 
stroke:#FFFFFF; stroke-width:1.0160; stroke-opacity:1; 
stroke-linecap:round; stroke-linejoin:round;">
<path d="M13.4000 2.0000
L11.2730 3.2000
" />
</g>
<g style="fill:none; 
stroke:#FFFFFF; stroke-width:1.7780; stroke-opacity:1; 
stroke-linecap:round; stroke-linejoin:round;">
<path d="M24.9400 3.2000
L23.7400 2.0000
" />
</g>
<g style="fill:none; 
stroke:#FFFFFF; stroke-width:1.5240; stroke-opacity:1; 
stroke-linecap:round; stroke-linejoin:round;">
<path d="M13.4000 6.8000
L13.3850 7.6150
" />
</g>
<g style="fill:none; 
stroke:#FFFFFF; stroke-width:0.7620; stroke-opacity:1; 
stroke-linecap:round; stroke-linejoin:round;">
<path d="M21.4000 18.4000
L22.4000 17.4000
" />
<path d="M21.4000 22.3170
L21.4000 18.4000
" />
<path d="M28.6100 14.5900
L30.2650 14.5900
" />
<path d="M24.5000 22.7500
L21.8330 22.7500
" />
<path d="M25.8000 17.4000
L28.6100 14.5900
" />
<path d="M21.8330 22.7500
L21.4000 22.3170
" />
<path d="M22.4000 17.4000
L25.8000 17.4000
" />
<path d="M46.3050 14.5200
L46.2350 14.5900
" />
<path d="M46.2450 14.5800
L46.2350 14.5900
" />
<path d="M52.2500 14.5800
L46.2450 14.5800
" />
<path d="M52.2500 17.1200
L46.2450 17.1200
" />
<path d="M46.3050 17.0600
L46.2350 17.1300
" />
<path d="M46.2450 17.1200
L46.2350 17.1300
" />
<path d="M22.2025 15.8000
L19.8000 18.2025
" />
<path d="M19.8000 18.2025
L19.8000 22.2000
" />
<path d="M19.8000 22.2000
L3.3500 22.2000
" />
<path d="M29.1500 12.0500
L25.4000 15.8000
" />
<path d="M30.2650 12.0500
L29.1500 12.0500
" />
<path d="M25.4000 15.8000
L22.2025 15.8000
" />
<path d="M20.8000 12.8000
L19.6000 14.0000
" />
<path d="M19.6000 14.0000
L10.0000 14.0000
" />
<path d="M8.0000 12.0000
L3.2500 12.0000
" />
<path d="M10.0000 14.0000
L8.0000 12.0000
" />
<path d="M20.8000 9.8000
L20.8000 12.8000
" />
<path d="M21.6761 14.5290
L18.5290 17.6761
" />
<path d="M26.8000 12.0000
L24.8735 14.5290
" />
<path d="M18.5290 20.2000
L3.3500 20.2000
" />
<path d="M29.4900 9.5100
L28.6000 9.6000
" />
<path d="M24.8735 14.5290
L21.6761 14.5290
" />
<path d="M18.5290 17.6761
L18.5290 20.2000
" />
<path d="M26.8000 9.6000
L26.8000 12.0000
" />
<path d="M28.6000 9.6000
L26.8000 9.6000
" />
<path d="M30.2650 9.5100
L29.4900 9.5100
" />
<path d="M23.3400 7.7660
L23.3400 9.8000
" />
<path d="M21.0000 4.6000
L21.0000 6.8000
" />
<path d="M22.5790 7.0050
L23.3400 7.7660
" />
<path d="M21.0000 6.8000
L21.2050 7.0050
" />
<path d="M21.2050 7.0050
L22.5790 7.0050
" />
<path d="M10.9750 5.4250
L11.6000 4.8000
" />
<path d="M10.9750 8.6780
L11.0150 8.7180
" />
<path d="M11.4000 12.6000
L11.0000 12.2000
" />
<path d="M16.4000 4.6000
L16.8000 4.6000
" />
<path d="M10.9750 6.6000
L10.9750 8.6780
" />
<path d="M16.6000 4.8000
L16.8000 4.6000
" />
<path d="M15.4000 12.6000
L15.4000 5.6000
" />
<path d="M15.4000 12.6000
L11.4000 12.6000
" />
<path d="M15.4000 5.6000
L16.4000 4.6000
" />
<path d="M11.0000 11.6000
L11.0150 11.5850
" />
<path d="M16.8000 4.6000
L18.4600 4.6000
" />
<path d="M10.9750 6.6000
L10.9750 5.4250
" />
<path d="M11.0000 12.2000
L11.0000 11.6000
" />
<path d="M11.6000 4.8000
L16.6000 4.8000
" />
<path d="M11.0150 11.5850
L11.0150 11.2820
" />
<path style="fill:#FFFFFF; fill-opacity:1.0000; stroke:none;fill-rule:evenodd;"
d="M 59.0924,1.0244
59.1892,1.0437
59.2712,1.0986
59.3260,1.1807
59.3453,1.2775
59.3260,1.3742
59.2746,1.4983
59.2746,1.4983
59.2040,1.7619
59.2040,1.7619
59.1684,2.0324
59.1684,2.3053
59.2040,2.5758
59.2040,2.5758
59.2746,2.8394
59.2746,2.8394
59.2746,2.8394
59.2746,2.8394
59.2769,2.8450
59.3790,3.0915
59.3790,3.0915
59.4819,3.2698
59.5155,3.3278
59.6816,3.5443
59.8745,3.7373
60.0910,3.9034
60.1472,3.9358
60.3273,4.0398
60.3273,4.0398
60.3273,4.0398
60.3273,4.0398
60.5794,4.1443
60.5794,4.1443
60.5795,4.1443
60.8430,4.2149
60.8430,4.2149
61.1136,4.2505
61.1136,4.2505
61.3864,4.2505
61.3864,4.2505
61.6570,4.2149
61.7041,4.2023
61.9205,4.1443
61.9205,4.1443
61.9206,4.1443
62.1272,4.0587
62.2240,4.0394
62.3208,4.0587
62.4029,4.1135
62.4577,4.1956
62.4770,4.2922
62.4971,27.3845
62.4779,27.4814
62.4231,27.5635
62.3411,27.6184
62.2443,27.6378
62.1475,27.6186
62.1473,27.6185
61.9206,27.5246
61.9205,27.5246
61.6570,27.4540
61.3864,27.4184
61.1136,27.4184
61.1136,27.4184
60.8430,27.4540
60.8430,27.4540
60.5795,27.5246
60.5794,27.5246
60.3273,27.6290
60.3273,27.6290
60.0910,27.7655
60.0910,27.7655
59.8745,27.9316
59.6816,28.1245
59.5155,28.3410
59.5155,28.3410
59.3790,28.5773
59.3790,28.5773
59.2746,28.8294
59.2746,28.8295
59.2040,29.0930
59.2040,29.0930
59.1684,29.3636
59.1684,29.6364
59.2040,29.9070
59.2040,29.9070
59.2746,30.1705
59.2746,30.1706
59.2746,30.1706
59.2746,30.1706
59.3372,30.3217
59.3760,30.4154
59.3953,30.5123
59.3760,30.6091
59.3212,30.6912
59.2391,30.7460
59.1434,30.7653
4.0184,31.0160
3.9215,30.9971
3.8392,30.9427
3.7840,30.8609
3.7643,30.7641
3.7831,30.6672
3.7944,30.6441
3.7944,30.6441
3.7980,30.6367
3.7980,30.6367
3.7980,30.6367
3.8984,30.3944
3.9012,30.3841
3.9663,30.1411
3.9663,30.1411
3.9663,30.1411
3.9875,29.9795
4.0005,29.8811
4.0005,29.8811
4.0005,29.6189
4.0005,29.6189
3.9737,29.4152
3.9663,29.3589
3.9012,29.1159
3.8984,29.1056
3.8984,29.1056
3.8984,29.1056
3.7980,28.8633
3.7280,28.7420
3.6963,28.6485
3.7027,28.5500
3.7464,28.4615
3.8206,28.3964
3.9141,28.3646
4.0089,28.3701
4.1511,28.4060
4.2744,28.4157
4.2850,28.4165
4.2850,28.4165
6.9150,28.4165
6.9248,28.4157
7.0489,28.4060
7.0489,28.4060
7.0489,28.4060
7.2700,28.3503
7.2700,28.3503
7.2700,28.3503
7.2700,28.3503
7.2700,28.3503
7.3657,28.3068
7.4776,28.2560
7.6649,28.1262
7.8262,27.9649
7.9560,27.7776
8.0282,27.6186
8.0503,27.5700
8.0503,27.5700
8.1060,27.3489
8.1060,27.3489
8.1060,27.3489
8.1165,27.2150
8.1165,26.2276
22.0870,26.2276
22.0935,26.2881
22.0935,26.2881
22.1446,26.4250
22.1446,26.4250
22.2321,26.5419
22.2321,26.5419
22.3490,26.6294
22.3490,26.6294
22.4859,26.6805
22.4859,26.6805
22.5464,26.6870
22.5464,26.6870
24.2460,26.6870
24.7540,26.6870
26.4536,26.6870
26.4536,26.6870
26.5141,26.6805
26.5141,26.6805
26.6510,26.6294
26.6510,26.6294
26.7679,26.5419
26.7679,26.5419
26.8554,26.4250
26.8554,26.4250
26.9065,26.2881
26.9065,26.2881
26.9130,26.2276
26.9130,26.2276
26.9130,25.5440
24.7540,25.5440
24.7540,26.6870
24.2460,26.6870
24.2460,25.5440
22.0870,25.5440
22.0870,26.2276
8.1165,26.2276
8.1165,25.9850
8.1060,25.8511
8.1060,25.8511
8.1060,25.8511
8.0503,25.6300
8.0503,25.6300
8.0111,25.5438
8.0111,25.5438
7.9560,25.4224
7.9560,25.4224
7.9156,25.3642
7.8460,25.2637
24.4365,25.2637
24.4365,25.3163
24.4737,25.3535
24.5263,25.3535
24.5635,25.3163
24.5635,25.2637
24.5263,25.2265
24.4737,25.2265
24.4365,25.2637
7.8460,25.2637
7.8262,25.2351
7.8262,25.2350
7.6649,25.0738
7.6103,25.0360
7.4776,24.9440
7.4775,24.9440
7.2700,24.8497
7.2700,24.8497
7.0489,24.7940
7.0489,24.7940
6.9150,24.7835
6.9150,24.7835
6.8593,24.7835
6.7624,24.7642
6.6804,24.7094
6.6255,24.6273
6.6063,24.5305
6.6076,24.5048
6.6080,24.5005
6.6080,24.5005
6.6080,24.4540
3.6030,24.4540
3.5062,24.4347
3.4241,24.3799
3.3693,24.2978
3.3500,24.2010
3.3500,24.1990
3.3693,24.1022
3.4241,24.0201
3.5062,23.9653
3.6030,23.9460
6.6080,23.9460
6.6080,23.8995
6.6080,23.8995
6.6056,23.8762
6.6149,23.7779
6.6612,23.6907
6.7372,23.6278
6.8316,23.5988
6.8573,23.5975
19.9100,23.5975
19.9100,23.5975
20.1272,23.5631
20.3365,23.4951
20.3484,23.4890
20.4434,23.4622
20.5415,23.4738
20.6276,23.5221
20.6422,23.5355
20.7344,23.6278
20.9226,23.8160
21.1005,23.9452
21.1566,23.9738
21.1566,23.9738
21.2307,24.0116
21.2965,24.0451
21.5058,24.1131
21.5985,24.1278
21.6273,24.1384
21.6574,24.1446
21.6704,24.1543
21.6911,24.1619
21.7391,24.2001
21.7472,24.2083
21.8727,24.3613
22.0048,24.4696
22.0142,24.4791
22.0341,24.5094
22.0571,24.5375
22.0610,24.5504
22.0684,24.5616
22.0753,24.5972
22.0858,24.6319
22.0870,24.6567
22.0870,25.0360
26.9130,25.0360
26.9130,24.6567
26.9217,24.6128
26.9288,24.5687
26.9312,24.5654
26.9323,24.5599
26.9806,24.4846
26.9922,24.4720
27.1273,24.3613
27.2543,24.2065
27.2753,24.1671
27.2976,24.1431
27.3116,24.1330
27.3225,24.1197
27.3512,24.1044
27.3776,24.0853
27.3943,24.0813
27.4096,24.0732
27.4419,24.0700
27.4736,24.0624
27.4906,24.0652
27.5078,24.0635
27.5389,24.0729
27.5711,24.0781
27.5858,24.0871
27.6023,24.0921
27.6274,24.1128
27.6551,24.1298
27.6652,24.1438
27.6786,24.1548
27.6939,24.1835
27.7130,24.2098
27.7170,24.2266
27.7251,24.2418
27.7326,24.2922
27.7358,24.3059
27.7352,24.3098
27.7360,24.3153
27.7360,25.5619
27.7507,25.7113
27.8088,25.9029
27.8088,25.9029
27.8924,26.0593
27.9032,26.0795
28.0302,26.2343
28.1850,26.3613
28.3616,26.4557
28.5532,26.5138
28.5532,26.5138
28.5822,26.5166
28.7026,26.5285
28.7026,26.5285
31.8274,26.5285
31.8274,26.5285
31.9768,26.5138
32.1684,26.4557
32.3450,26.3613
32.4998,26.2343
32.6268,26.0795
32.7212,25.9029
32.7793,25.7113
32.7940,25.5619
32.7940,23.9381
32.7793,23.7887
32.7212,23.5971
32.6268,23.4205
32.4998,23.2657
32.4998,23.2657
32.3780,23.1658
32.3154,23.0895
32.2867,22.9951
32.2855,22.9703
32.2855,22.4640
28.2445,22.4640
28.2445,22.9703
28.2358,23.0142
28.2287,23.0583
28.2263,23.0616
28.2252,23.0671
28.1769,23.1424
28.1653,23.1550
28.0302,23.2657
27.9032,23.4205
27.8822,23.4599
27.8599,23.4839
27.8459,23.4940
27.8350,23.5073
27.8063,23.5226
27.7799,23.5417
27.7632,23.5457
27.7479,23.5538
27.7156,23.5570
27.6839,23.5646
27.6669,23.5618
27.6497,23.5635
27.6186,23.5541
27.5864,23.5489
27.5717,23.5399
27.5552,23.5349
27.5301,23.5142
27.5024,23.4972
27.4923,23.4832
27.4789,23.4722
27.4636,23.4435
27.4445,23.4172
27.4405,23.4004
27.4324,23.3852
27.4249,23.3348
27.4217,23.3211
27.4223,23.3172
27.4215,23.3117
27.4215,21.8285
27.4408,21.7317
27.4956,21.6496
27.5777,21.5948
27.6745,21.5755
27.9915,21.5755
28.0883,21.5948
28.1704,21.6496
28.2252,21.7317
28.2445,21.8285
28.2445,21.9560
32.2855,21.9560
32.2855,21.8285
32.3048,21.7317
32.3596,21.6496
32.4417,21.5948
32.5385,21.5755
34.1673,21.5755
34.2327,21.5841
34.3774,21.6229
34.3775,21.6229
34.3775,21.6229
34.4565,21.6333
34.6251,21.6555
34.6251,21.6555
34.6251,21.6555
34.6251,21.6555
34.8749,21.6555
34.8749,21.6555
34.8749,21.6555
34.8749,21.6555
35.0172,21.6368
35.1225,21.6229
35.1225,21.6229
35.1225,21.6229
35.3638,21.5582
35.4320,21.5300
35.5499,21.4812
35.5946,21.4627
35.8109,21.3378
36.0091,21.1857
39.7481,17.4467
39.7481,17.4467
39.7591,17.4357
39.7591,17.4357
39.9357,17.2591
40.0878,17.0609
40.2127,16.8446
40.2682,16.7104
40.3082,16.6138
40.3561,16.4350
40.3729,16.3726
40.3729,16.3725
40.3729,16.3725
40.3958,16.1983
40.4055,16.1249
40.4055,16.1249
40.4055,15.8672
40.4055,15.8672
40.4055,7.8941
40.4248,7.7973
40.4796,7.7152
41.5782,6.6166
41.6603,6.5617
41.7571,6.5425
41.7604,6.5425
43.4564,6.5651
43.5529,6.5856
43.6343,6.6416
43.6880,6.7244
43.7060,6.8181
43.7060,7.7819
43.7207,7.9313
43.7788,8.1229
43.7836,8.1344
43.7820,8.1350
43.8063,8.2152
43.7967,8.3134
43.7834,8.3455
43.7836,8.3456
43.7788,8.3571
43.7207,8.5487
43.7060,8.6981
43.7060,10.3219
43.7207,10.4713
43.7788,10.6629
43.7836,10.6744
43.7820,10.6750
43.8063,10.7552
43.7967,10.8534
43.7834,10.8855
43.7836,10.8856
43.7788,10.8971
43.7207,11.0887
43.7060,11.2381
43.7060,12.8619
43.7207,13.0113
43.7788,13.2029
43.7836,13.2144
43.7820,13.2150
43.8063,13.2952
43.7967,13.3934
43.7834,13.4255
43.7836,13.4256
43.7788,13.4371
43.7207,13.6287
43.7060,13.7781
43.7060,15.4019
43.7207,15.5513
43.7788,15.7429
43.7836,15.7544
43.7820,15.7550
43.8063,15.8352
43.7967,15.9334
43.7834,15.9655
43.7836,15.9656
43.7788,15.9771
43.7207,16.1687
43.7060,16.3181
43.7060,17.9419
43.7207,18.0913
43.7788,18.2829
43.7836,18.2944
43.7820,18.2950
43.8063,18.3752
43.7967,18.4734
43.7834,18.5055
43.7836,18.5056
43.7788,18.5171
43.7207,18.7087
43.7060,18.8581
43.7060,20.4819
43.7207,20.6313
43.7788,20.8229
43.7836,20.8344
43.7820,20.8350
43.8063,20.9152
43.7967,21.0134
43.7834,21.0455
43.7836,21.0456
43.7788,21.0571
43.7207,21.2487
43.7060,21.3981
43.7060,23.0219
43.7207,23.1713
43.7788,23.3629
43.7836,23.3744
43.7820,23.3750
43.8063,23.4552
43.7967,23.5534
43.7834,23.5855
43.7836,23.5856
43.7788,23.5971
43.7207,23.7887
43.7060,23.9381
43.7060,25.5619
43.7207,25.7113
43.7788,25.9029
43.7788,25.9029
43.8624,26.0593
43.8732,26.0795
44.0002,26.2343
44.1550,26.3613
44.3316,26.4557
44.5232,26.5138
44.5232,26.5138
44.5522,26.5166
44.6726,26.5285
44.6726,26.5285
47.7974,26.5285
47.7974,26.5285
47.9468,26.5138
48.1384,26.4557
48.3150,26.3613
48.4698,26.2343
48.5968,26.0795
48.6912,25.9029
48.7493,25.7113
48.7640,25.5619
48.7640,23.9381
48.7493,23.7887
48.6912,23.5971
48.6912,23.5971
48.6864,23.5856
48.6880,23.5850
48.6637,23.5048
48.6733,23.4066
48.6866,23.3745
48.6864,23.3744
48.6912,23.3629
48.6912,23.3629
48.7493,23.1713
48.7640,23.0219
48.7640,21.3981
48.7493,21.2487
48.6912,21.0571
48.6912,21.0571
48.6864,21.0456
48.6880,21.0450
48.6637,20.9648
48.6733,20.8666
48.6866,20.8345
48.6864,20.8344
48.6912,20.8229
48.6912,20.8229
48.7493,20.6313
48.7640,20.4819
48.7640,18.8581
48.7578,18.7953
48.7590,18.7828
48.7566,18.7705
48.7638,18.7340
48.7675,18.6971
48.7734,18.6860
48.7759,18.6737
48.7965,18.6428
48.8140,18.6100
48.8237,18.6020
48.8307,18.5916
48.8616,18.5710
48.8903,18.5474
48.9023,18.5437
48.9128,18.5368
48.9492,18.5295
48.9848,18.5187
49.0096,18.5175
49.3277,18.5175
49.4245,18.5368
49.5066,18.5916
49.5232,18.6100
49.6043,18.7087
49.6227,18.7313
49.7775,18.8583
49.9541,18.9527
50.1457,19.0108
50.1457,19.0108
50.1747,19.0136
50.2951,19.0255
50.2951,19.0255
54.2049,19.0255
54.2049,19.0255
54.3543,19.0108
54.5459,18.9527
54.7225,18.8583
54.8773,18.7313
55.0043,18.5765
55.0987,18.3999
55.1568,18.2083
55.1715,18.0589
55.1715,16.1811
55.1568,16.0317
55.1239,15.9234
55.1143,15.8252
55.1239,15.7766
55.1275,15.7650
55.1568,15.6683
55.1715,15.5189
55.1715,13.6411
55.1568,13.4917
55.0987,13.3001
55.0043,13.1235
54.8773,12.9687
54.8056,12.9100
54.7555,12.8688
54.6929,12.7925
54.6642,12.6981
54.6630,12.6733
54.6630,12.2940
49.8370,12.2940
49.8370,12.6733
49.8370,12.6733
49.8370,12.6733
49.8275,12.7209
49.8177,12.7701
49.8177,12.7701
49.8177,12.7701
49.8176,12.7702
49.7629,12.8522
49.7629,12.8522
49.7541,12.8610
49.6227,12.9687
49.5153,13.0996
49.5065,13.1084
49.4756,13.1291
49.4469,13.1526
49.4349,13.1563
49.4244,13.1633
49.3880,13.1705
49.3525,13.1813
49.3277,13.1825
49.0116,13.1825
48.9148,13.1632
48.8327,13.1084
48.7778,13.0263
48.7586,12.9295
48.7598,12.9047
48.7611,12.8918
48.7640,12.8619
48.7640,12.0137
52.1865,12.0137
52.1865,12.0663
52.2237,12.1035
52.2763,12.1035
52.3135,12.0663
52.3135,12.0137
52.2763,11.9765
52.2237,11.9765
52.1865,12.0137
48.7640,12.0137
48.7640,11.2381
48.7493,11.0887
48.6912,10.8971
48.6912,10.8971
48.6864,10.8856
48.6880,10.8850
48.6637,10.8048
48.6733,10.7066
48.6866,10.6745
48.6864,10.6744
48.6912,10.6629
48.6912,10.6629
48.7493,10.4713
48.7640,10.3219
48.7640,8.6981
48.7493,8.5487
48.6912,8.3571
48.6912,8.3571
48.6864,8.3456
48.6880,8.3450
48.6637,8.2648
48.6733,8.1666
48.6866,8.1345
48.6864,8.1344
48.6912,8.1229
48.6912,8.1229
48.7493,7.9313
48.7640,7.7819
48.7640,6.8923
48.7833,6.7954
48.8381,6.7134
48.9202,6.6585
49.0170,6.6393
49.0204,6.6393
49.6211,6.6473
49.7177,6.6678
49.7519,6.6857
50.2181,6.9771
50.2256,6.9818
50.2465,7.0015
50.2704,7.0174
50.2821,7.0350
50.2975,7.0494
50.3093,7.0756
50.3252,7.0995
50.3294,7.1202
50.3380,7.1395
50.3445,7.1963
50.3445,7.3620
50.3252,7.4589
50.2704,7.5409
50.1883,7.5958
50.1575,7.6051
50.1576,7.6056
49.9541,7.6673
49.9541,7.6673
49.7775,7.7617
49.6227,7.8887
49.6227,7.8887
49.4957,8.0435
49.4013,8.2201
49.4013,8.2201
49.3432,8.4117
49.3285,8.5611
49.3285,10.4389
49.3432,10.5883
49.4013,10.7799
49.4013,10.7799
49.4575,10.8850
49.4957,10.9565
49.5950,11.0774
49.6227,11.1113
49.7445,11.2112
49.8071,11.2875
49.8358,11.3819
49.8370,11.4067
49.8370,11.7860
54.6630,11.7860
54.6630,11.4067
54.6823,11.3099
54.7371,11.2278
54.7555,11.2112
54.8773,11.1113
55.0043,10.9565
55.0987,10.7799
55.1568,10.5883
55.1715,10.4389
55.1715,8.5611
55.1568,8.4117
55.0987,8.2201
55.0043,8.0435
54.8773,7.8887
54.7225,7.7617
54.5459,7.6673
54.3543,7.6092
54.3543,7.6092
54.3424,7.6056
54.3430,7.6035
54.2679,7.5724
54.1981,7.5026
54.1604,7.4114
54.1555,7.3620
54.1555,6.0333
54.1587,5.9419
54.1555,5.9086
54.1555,5.8751
54.1441,5.7887
54.1431,5.7799
54.1348,5.6932
54.1300,5.6725
54.1300,5.6725
54.1273,5.6606
54.1229,5.6275
54.0992,5.5390
54.0786,5.4498
54.0669,5.4185
54.0582,5.3862
54.0232,5.3016
53.9912,5.2159
53.9812,5.1970
53.9708,5.1751
53.9698,5.1726
53.9627,5.1554
53.9380,5.1128
53.9191,5.0799
53.9169,5.0761
53.8739,4.9953
53.8545,4.9681
53.8378,4.9391
53.7820,4.8665
53.7289,4.7919
53.7061,4.7675
53.6857,4.7409
53.6210,4.6762
53.5585,4.6092
53.5327,4.5880
53.5091,4.5643
53.4400,4.5113
53.4330,4.5058
53.3658,4.4503
53.3658,4.4503
53.3658,4.4503
53.3375,4.4326
53.3109,4.4122
53.2316,4.3665
51.3600,3.1967
51.3374,3.1808
51.3320,3.1765
51.2448,3.1246
51.2401,3.1218
51.1540,3.0679
51.1540,3.0679
51.1540,3.0679
51.1477,3.0651
51.1233,3.0523
51.1173,3.0488
51.0241,3.0087
51.0216,3.0076
50.9267,2.9643
50.9069,2.9583
50.8879,2.9501
50.8879,2.9501
50.8879,2.9501
50.7902,2.9225
50.7849,2.9210
50.7201,2.9011
50.6879,2.8913
50.6879,2.8913
50.6878,2.8913
50.6878,2.8913
50.6811,2.8901
50.6541,2.8841
50.6475,2.8822
50.6475,2.8822
50.5470,2.8676
50.5470,2.8676
50.5442,2.8672
50.4415,2.8500
50.4208,2.8493
50.4203,2.8492
50.4071,2.8473
50.4071,2.8473
50.4037,2.8468
50.4003,2.8463
50.4003,2.8463
50.2960,2.8449
50.1919,2.8413
50.1712,2.8433
50.1574,2.8431
41.0274,2.7214
41.0082,2.7200
41.0082,2.7200
40.9999,2.7195
40.9999,2.7195
40.9999,2.7195
40.8876,2.7195
40.7755,2.7180
40.7629,2.7195
40.7501,2.7195
40.7501,2.7195
40.6404,2.7339
40.6404,2.7339
40.6387,2.7342
40.5275,2.7473
40.5151,2.7504
40.5025,2.7521
40.5024,2.7521
40.3957,2.7807
40.3957,2.7807
40.3940,2.7812
40.2853,2.8087
40.2735,2.8135
40.2612,2.8167
40.2612,2.8168
40.1591,2.8590
40.1591,2.8590
40.1576,2.8597
40.0533,2.9012
40.0422,2.9075
40.0390,2.9088
40.0304,2.9123
40.0128,2.9225
39.9540,2.9565
39.9347,2.9676
39.9318,2.9692
39.8354,3.0232
39.8353,3.0232
39.8311,3.0264
39.8251,3.0309
39.8141,3.0372
39.7251,3.1055
39.7237,3.1065
39.7237,3.1065
39.6352,3.1726
39.6352,3.1726
39.6312,3.1765
39.6260,3.1815
39.6159,3.1893
39.5366,3.2686
39.5354,3.2698
39.5354,3.2698
39.4562,3.3469
39.4507,3.3530
39.4506,3.3530
39.4378,3.3674
38.6289,4.1763
38.5468,4.2312
38.4500,4.2504
38.3532,4.2312
38.2711,4.1763
36.0421,1.9473
36.0421,1.9473
35.8591,1.7643
35.8591,1.7643
35.6609,1.6122
35.6609,1.6122
35.4434,1.4867
35.3692,1.4216
35.3256,1.3331
35.3191,1.2345
35.3508,1.1411
35.4159,1.0669
35.5045,1.0232
35.5700,1.0146
Z" /> 
<path style="fill:#FFFFFF; fill-opacity:1.0000; stroke:none;fill-rule:evenodd;"
d="M 11.0990,1.0043
11.1327,1.0110
11.1668,1.0136
11.1807,1.0206
11.1959,1.0236
11.2243,1.0427
11.2549,1.0582
11.2650,1.0699
11.2779,1.0785
11.2969,1.1070
11.3193,1.1330
11.3241,1.1477
11.3327,1.1606
11.3394,1.1942
11.3501,1.2268
11.3489,1.2422
11.3519,1.2574
11.3452,1.2911
11.3427,1.3252
11.3357,1.3391
11.3326,1.3542
11.3136,1.3827
11.2981,1.4133
11.2864,1.4234
11.2778,1.4363
11.2233,1.4777
11.1326,1.5288
10.8720,1.6759
10.7782,1.7067
10.7477,1.7085
10.6862,1.7085
10.6425,1.7119
10.5550,1.7188
10.3383,1.7734
10.3383,1.7734
10.3383,1.7734
10.1348,1.8659
10.1348,1.8659
9.9511,1.9931
9.9511,1.9931
9.8180,2.1263
9.8180,2.1263
9.7931,2.1511
9.6659,2.3348
9.6472,2.3758
9.6348,2.3940
9.6189,2.4096
9.5968,2.4403
9.5712,2.4562
9.5642,2.4630
9.5529,2.4676
9.5129,2.4924
9.4759,2.4985
9.4726,2.4998
9.4681,2.4997
9.4155,2.5084
9.3742,2.4987
9.3739,2.4987
9.3736,2.4986
9.3194,2.4859
9.2834,2.4600
9.2831,2.4599
9.2829,2.4597
9.2392,2.4283
9.2166,2.3919
9.2141,2.3894
9.2124,2.3852
9.1871,2.3444
9.1798,2.3038
9.1773,2.2977
9.1774,2.2908
9.1710,2.2555
9.1710,2.2170
9.1511,2.2170
9.0508,2.2273
8.8881,2.2812
8.8881,2.2812
8.7423,2.3711
8.7423,2.3711
8.6211,2.4923
8.6211,2.4923
8.5312,2.6381
8.5312,2.6381
8.4773,2.8008
8.4670,2.9011
8.4670,2.9460
9.2555,2.9460
9.3523,2.9653
9.4344,3.0201
9.4892,3.1022
9.5085,3.1990
9.5085,3.2010
9.4892,3.2978
9.4344,3.3799
9.3523,3.4347
9.2555,3.4540
8.4670,3.4540
8.4670,3.4989
8.4773,3.5992
8.5312,3.7619
8.5312,3.7619
8.6211,3.9077
8.6211,3.9077
8.7423,4.0289
8.7423,4.0289
8.8881,4.1188
8.8881,4.1188
9.0508,4.1727
9.0508,4.1727
9.1511,4.1830
9.1512,4.1830
9.1710,4.1830
9.1710,4.1445
9.1798,4.1002
9.1871,4.0556
9.1894,4.0519
9.1903,4.0477
9.2154,4.0101
9.2392,3.9717
9.2427,3.9692
9.2451,3.9656
9.2827,3.9405
9.3194,3.9141
9.3236,3.9131
9.3272,3.9107
9.3715,3.9019
9.4155,3.8916
9.4198,3.8923
9.4240,3.8915
9.4683,3.9003
9.5129,3.9076
9.5166,3.9099
9.5208,3.9107
9.5584,3.9358
9.5968,3.9597
9.5993,3.9632
9.6029,3.9656
9.6543,4.0398
9.6563,4.0442
9.6789,4.1404
9.6790,4.1489
9.6790,4.1830
9.6930,4.1970
9.7193,4.2023
9.8014,4.2571
9.8193,4.2750
9.8741,4.3571
9.8934,4.4539
9.8741,4.5508
9.8451,4.6026
9.7806,4.6914
9.7805,4.6915
9.7798,4.6925
9.7797,4.6926
9.6799,4.8885
9.6799,4.8885
9.6119,5.0977
9.5775,5.3150
9.5775,5.4127
9.5582,5.5095
9.5034,5.5916
9.4213,5.6464
9.3245,5.6657
9.2277,5.6464
9.1836,5.6170
9.1511,5.6170
9.0508,5.6273
8.8881,5.6812
8.8881,5.6812
8.7423,5.7711
8.7423,5.7711
8.6211,5.8923
8.6211,5.8923
8.5312,6.0381
8.5312,6.0381
8.4773,6.2008
8.4670,6.3011
8.4670,6.3460
9.2555,6.3460
9.3523,6.3653
9.4344,6.4201
9.4892,6.5022
9.5085,6.5990
9.5085,6.6010
9.4892,6.6978
9.4344,6.7799
9.3523,6.8347
9.2555,6.8540
8.4670,6.8540
8.4146,6.9064
8.3615,6.9419
8.3663,6.9429
8.4484,6.9977
8.5032,7.0798
8.5097,7.0970
8.5312,7.1619
8.5312,7.1619
8.6211,7.3077
8.6211,7.3077
8.7423,7.4289
8.7423,7.4289
8.8881,7.5188
8.8881,7.5188
9.0508,7.5727
9.0508,7.5727
9.1511,7.5830
9.1512,7.5830
9.1836,7.5830
9.2277,7.5536
9.3245,7.5343
9.4213,7.5536
9.5034,7.6084
9.5582,7.6905
9.5775,7.7873
9.5775,8.0152
9.5582,8.1120
9.5201,8.1757
9.4981,8.2024
9.3996,8.3868
9.3389,8.5869
9.3389,8.5869
9.3389,8.5869
9.3342,8.6344
9.3235,8.7429
9.3235,9.3571
9.3235,9.3572
9.3389,9.5131
9.3996,9.7132
9.3996,9.7132
9.4891,9.8807
9.5178,9.9752
9.5081,10.0734
9.4891,10.1193
9.3996,10.2868
9.3996,10.2868
9.3389,10.4869
9.3389,10.4869
9.3389,10.4869
9.3254,10.6237
9.3235,10.6429
9.3235,10.7381
9.3042,10.8349
9.2494,10.9170
9.1673,10.9718
9.0705,10.9911
8.9737,10.9718
8.9194,10.9386
8.9185,10.9399
8.7324,10.8048
8.5365,10.7049
8.5365,10.7049
8.5365,10.7049
8.3272,10.6369
8.1100,10.6025
8.1100,10.6025
7.1823,10.6025
7.0855,10.5832
7.0034,10.5284
6.9486,10.4463
6.9293,10.3495
6.9306,10.3238
6.9330,10.3005
6.9330,10.3005
6.9330,10.2540
3.5030,10.2540
3.4062,10.2347
3.3241,10.1799
3.2693,10.0978
3.2500,10.0010
3.2500,9.9990
3.2693,9.9022
3.3241,9.8201
3.4062,9.7653
3.5030,9.7460
6.9330,9.7460
6.9330,9.6995
6.9330,9.6995
6.9264,9.6348
6.9357,9.5366
6.9819,9.4493
7.0580,9.3864
7.1163,9.3638
7.1700,9.3503
7.1700,9.3503
7.1700,9.3503
7.3406,9.2728
7.3776,9.2560
7.5649,9.1262
7.7262,8.9649
7.8560,8.7776
7.9210,8.6344
7.9503,8.5700
7.9503,8.5700
8.0060,8.3489
8.0060,8.3489
8.0060,8.3489
8.0165,8.2150
8.0165,7.1766
8.0358,7.0798
8.0906,6.9977
8.1438,6.9622
8.1389,6.9612
8.0568,6.9064
8.0020,6.8243
7.9904,6.7893
7.9503,6.6300
7.9503,6.6300
7.8615,6.4346
7.8560,6.4224
7.8544,6.4201
7.7719,6.3011
7.7262,6.2350
7.5649,6.0738
7.5134,6.0381
7.3776,5.9440
7.3775,5.9440
7.1700,5.8497
7.1700,5.8497
6.9489,5.7940
6.9489,5.7940
6.8150,5.7835
6.8150,5.7835
4.1850,5.7835
4.1850,5.7835
4.0511,5.7940
4.0511,5.7940
3.8300,5.8497
3.8300,5.8497
3.6225,5.9440
3.6224,5.9440
3.4351,6.0738
3.4350,6.0739
3.2739,6.2350
3.2738,6.2351
3.1440,6.4224
3.1440,6.4225
3.0497,6.6300
3.0497,6.6300
2.9940,6.8511
2.9940,6.8511
2.9835,6.9850
2.9835,8.2150
2.9940,8.3489
2.9940,8.3489
3.0497,8.5700
3.0497,8.5700
3.0790,8.6344
3.1015,8.7305
3.0855,8.8279
3.0334,8.9118
2.9533,8.9694
2.8571,8.9919
2.8486,8.9920
0.9950,8.9920
0.8982,8.9727
0.8161,8.9179
0.7613,8.8358
0.7420,8.7390
0.7420,8.7387
0.7421,8.6344
0.7469,4.0239
0.7662,3.9271
0.8212,3.8451
0.9033,3.7904
1.0001,3.7712
1.0969,3.7906
1.1118,3.7973
1.1133,3.7980
1.1133,3.7980
1.1133,3.7980
1.3556,3.8984
1.3556,3.8984
1.3556,3.8984
1.5973,3.9632
1.6089,3.9663
1.7257,3.9817
1.8689,4.0005
1.8689,4.0005
1.8689,4.0005
1.8689,4.0005
2.1311,4.0005
2.1311,4.0005
2.1311,4.0005
2.1311,4.0005
2.2295,3.9875
2.3911,3.9663
2.6258,3.9034
2.6444,3.8984
2.6444,3.8984
2.6444,3.8984
2.8867,3.7980
3.1138,3.6669
3.3219,3.5073
3.5073,3.3219
3.6669,3.1138
3.7980,2.8867
3.8984,2.6444
3.9375,2.4986
3.9663,2.3911
3.9663,2.3911
3.9663,2.3911
4.0005,2.1311
4.0005,1.8689
4.0005,1.8689
4.0005,1.8689
3.9794,1.7085
3.9663,1.6089
3.9366,1.4983
3.8984,1.3556
3.8984,1.3556
3.8984,1.3556
3.8966,1.3512
3.8961,1.3489
3.8957,1.3477
3.8959,1.3477
3.8773,1.2544
3.8966,1.1576
3.9514,1.0755
4.0335,1.0207
4.1303,1.0014
Z" /> 
</g>
<g style="fill:none; 
stroke:#FFFFFF; stroke-width:0.0500; stroke-opacity:1; 
stroke-linecap:round; stroke-linejoin:round;">
<circle cx="2.0000" cy="29.7500" r="1.5000" /> 
<circle cx="2.0000" cy="2.0000" r="1.5000" /> 
<circle cx="61.2500" cy="2.1689" r="1.5811" /> 
<path style="fill:none; 
stroke:#FFFFFF; stroke-width:0.0500; stroke-opacity:1; 
stroke-linecap:round; stroke-linejoin:round;fill:none"
d="M 0.0000,0.0000
63.5000,0.0000
63.5000,31.7500
0.0000,31.7500
Z" /> 
<circle cx="61.2500" cy="29.5000" r="1.5811" /> 
</g>
<g style="fill:#000000; fill-opacity:1.0000; stroke:none;">
<circle cx="13.4000" cy="2.0000" r="0.2540" /> 
</g>
<g style="fill:#000000; fill-opacity:1.0000; stroke:none;">
<circle cx="13.4000" cy="6.8000" r="0.2540" /> 
</g>
<g style="fill:#000000; fill-opacity:1.0000; stroke:none;">
<circle cx="23.3400" cy="9.8000" r="0.0635" /> 
</g>
<g style="fill:#000000; fill-opacity:1.0000; stroke:none;">
<circle cx="20.8000" cy="9.8000" r="0.0635" /> 
</g>
<g style="fill:#000000; fill-opacity:1.0000; stroke:none;">
<circle cx="18.2600" cy="9.8000" r="0.0635" /> 
</g>
<g style="fill:#000000; fill-opacity:1.0000; stroke:none;">
<circle cx="18.4600" cy="4.6000" r="0.1270" /> 
</g>
<g style="fill:#000000; fill-opacity:1.0000; stroke:none;">
<circle cx="21.0000" cy="4.6000" r="0.1270" /> 
</g>
<g style="fill:#000000; fill-opacity:1.0000; stroke:none;">
<circle cx="23.5400" cy="4.6000" r="0.1270" /> 
</g>
<g style="fill:#000000; fill-opacity:1.0000; stroke:none;">
<circle cx="52.2500" cy="17.1200" r="0.0635" /> 
</g>
<g style="fill:#000000; fill-opacity:1.0000; stroke:none;">
<circle cx="52.2500" cy="14.5800" r="0.0635" /> 
</g>
<g style="fill:#000000; fill-opacity:1.0000; stroke:none;">
<circle cx="52.2500" cy="12.0400" r="0.0635" /> 
</g>
<g style="fill:#000000; fill-opacity:1.0000; stroke:none;">
<circle cx="52.2500" cy="9.5000" r="0.0635" /> 
</g>
<g style="fill:#000000; fill-opacity:1.0000; stroke:none;">
<circle cx="24.5000" cy="20.2100" r="0.0635" /> 
</g>
<g style="fill:#000000; fill-opacity:1.0000; stroke:none;">
<circle cx="24.5000" cy="22.7500" r="0.0635" /> 
</g>
<g style="fill:#000000; fill-opacity:1.0000; stroke:none;">
<circle cx="24.5000" cy="25.2900" r="0.0635" /> 
</g> 
</svg>
