<?xml version="1.0" standalone="no"?>
 <!DOCTYPE svg PUBLIC "-//W3C//DTD SVG 1.1//EN" 
 "http://www.w3.org/Graphics/SVG/1.1/DTD/svg11.dtd"> 
<svg
  xmlns:svg="http://www.w3.org/2000/svg"
  xmlns="http://www.w3.org/2000/svg"
  xmlns:xlink="http://www.w3.org/1999/xlink"
  version="1.1"
  width="63.5000mm" height="31.7500mm" viewBox="0.0000 0.0000 63.5000 31.7500">
<title>SVG Image created as front.svg date 2025/11/12 16:54:17 </title>
  <desc>Image generated by PCBNEW </desc>
<g style="fill:#000000; fill-opacity:1.0000;stroke:#000000; stroke-opacity:1.0000;
stroke-linecap:round; stroke-linejoin:round;"
 transform="translate(0 0) scale(1 1)">
</g>
<g style="fill:#000000; fill-opacity:1.0000; 
stroke:#000000; stroke-width:0.0212; stroke-opacity:1; 
stroke-linecap:round; stroke-linejoin:round;">
<rect x="-5.025000" y="-5.025000" width="74.973250" height="41.800000" rx="0.000000" />
<path style="fill:#FFFFFF; fill-opacity:1.0000; stroke:none;fill-rule:evenodd;"
d="M 31.7225,6.2080
31.7225,7.7320
34.7475,7.7320
34.7475,6.2080
Z" /> 
<path style="fill:#FFFFFF; fill-opacity:1.0000; stroke:none;fill-rule:evenodd;"
d="M 31.7225,8.7480
31.7225,10.2720
34.7475,10.2720
34.7475,8.7480
Z" /> 
<path style="fill:#FFFFFF; fill-opacity:1.0000; stroke:none;fill-rule:evenodd;"
d="M 31.7225,11.2880
31.7225,12.8120
34.7475,12.8120
34.7475,11.2880
Z" /> 
<path style="fill:#FFFFFF; fill-opacity:1.0000; stroke:none;fill-rule:evenodd;"
d="M 31.7225,13.8280
31.7225,15.3520
34.7475,15.3520
34.7475,13.8280
Z" /> 
<path style="fill:#FFFFFF; fill-opacity:1.0000; stroke:none;fill-rule:evenodd;"
d="M 31.7225,18.9080
31.7225,20.4320
34.7475,20.4320
34.7475,18.9080
Z" /> 
<path style="fill:#FFFFFF; fill-opacity:1.0000; stroke:none;fill-rule:evenodd;"
d="M 31.7225,16.3680
31.7225,17.8920
34.7475,17.8920
34.7475,16.3680
Z" /> 
<path style="fill:#FFFFFF; fill-opacity:1.0000; stroke:none;fill-rule:evenodd;"
d="M 15.7525,23.9880
15.7525,25.5120
18.7775,25.5120
18.7775,23.9880
Z" /> 
<path style="fill:#FFFFFF; fill-opacity:1.0000; stroke:none;fill-rule:evenodd;"
d="M 31.7225,23.9880
31.7225,25.5120
34.7475,25.5120
34.7475,23.9880
Z" /> 
<path style="fill:#FFFFFF; fill-opacity:1.0000; stroke:none;fill-rule:evenodd;"
d="M 15.7525,21.4480
15.7525,22.9720
18.7775,22.9720
18.7775,21.4480
Z" /> 
<path style="fill:#FFFFFF; fill-opacity:1.0000; stroke:none;fill-rule:evenodd;"
d="M 15.7525,18.9080
15.7525,20.4320
18.7775,20.4320
18.7775,18.9080
Z" /> 
<path style="fill:#FFFFFF; fill-opacity:1.0000; stroke:none;fill-rule:evenodd;"
d="M 15.7525,16.3680
15.7525,17.8920
18.7775,17.8920
18.7775,16.3680
Z" /> 
<path style="fill:#FFFFFF; fill-opacity:1.0000; stroke:none;fill-rule:evenodd;"
d="M 15.7525,13.8280
15.7525,15.3520
18.7775,15.3520
18.7775,13.8280
Z" /> 
<path style="fill:#FFFFFF; fill-opacity:1.0000; stroke:none;fill-rule:evenodd;"
d="M 15.7525,11.2880
15.7525,12.8120
18.7775,12.8120
18.7775,11.2880
Z" /> 
<path style="fill:#FFFFFF; fill-opacity:1.0000; stroke:none;fill-rule:evenodd;"
d="M 15.7525,8.7480
15.7525,10.2720
18.7775,10.2720
18.7775,8.7480
Z" /> 
<path style="fill:#FFFFFF; fill-opacity:1.0000; stroke:none;fill-rule:evenodd;"
d="M 15.7525,6.2080
15.7525,7.7320
18.7775,7.7320
18.7775,6.2080
Z" /> 
<path style="fill:#FFFFFF; fill-opacity:1.0000; stroke:none;fill-rule:evenodd;"
d="M 31.7225,21.4480
31.7225,22.9720
34.7475,22.9720
34.7475,21.4480
Z" /> 
<path style="fill:#FFFFFF; fill-opacity:1.0000; stroke:none;fill-rule:evenodd;"
d="M 42.7090,6.0950
40.9310,6.0950
40.9310,9.9050
42.7090,9.9050
Z" /> 
<path style="fill:#FFFFFF; fill-opacity:1.0000; stroke:none;fill-rule:evenodd;"
d="M 45.2490,6.0950
43.4710,6.0950
43.4710,9.9050
45.2490,9.9050
Z" /> 
<path style="fill:#FFFFFF; fill-opacity:1.0000; stroke:none;fill-rule:evenodd;"
d="M 47.7890,6.0950
46.0110,6.0950
46.0110,9.9050
47.7890,9.9050
Z" /> 
<path style="fill:#FFFFFF; fill-opacity:1.0000; stroke:none;fill-rule:evenodd;"
d="M 57.6500,19.7000
57.5543,19.7190
57.4732,19.7732
57.4190,19.8543
57.4000,19.9500
57.4000,20.4500
57.4190,20.5457
57.4732,20.6268
57.5543,20.6810
57.6500,20.7000
62.6500,20.7000
62.7457,20.6810
62.8268,20.6268
62.8810,20.5457
62.9000,20.4500
62.9000,19.9500
62.8810,19.8543
62.8268,19.7732
62.7457,19.7190
62.6500,19.7000
Z" /> 
<path style="fill:#FFFFFF; fill-opacity:1.0000; stroke:none;fill-rule:evenodd;"
d="M 57.6500,21.7000
57.5543,21.7190
57.4732,21.7732
57.4190,21.8543
57.4000,21.9500
57.4000,22.4500
57.4190,22.5457
57.4732,22.6268
57.5543,22.6810
57.6500,22.7000
62.6500,22.7000
62.7457,22.6810
62.8268,22.6268
62.8810,22.5457
62.9000,22.4500
62.9000,21.9500
62.8810,21.8543
62.8268,21.7732
62.7457,21.7190
62.6500,21.7000
Z" /> 
<path style="fill:#FFFFFF; fill-opacity:1.0000; stroke:none;fill-rule:evenodd;"
d="M 57.6500,23.7000
57.5543,23.7190
57.4732,23.7732
57.4190,23.8543
57.4000,23.9500
57.4000,24.4500
57.4190,24.5457
57.4732,24.6268
57.5543,24.6810
57.6500,24.7000
62.6500,24.7000
62.7457,24.6810
62.8268,24.6268
62.8810,24.5457
62.9000,24.4500
62.9000,23.9500
62.8810,23.8543
62.8268,23.7732
62.7457,23.7190
62.6500,23.7000
Z" /> 
<path style="fill:#FFFFFF; fill-opacity:1.0000; stroke:none;fill-rule:evenodd;"
d="M 56.6500,17.0000
56.5543,17.0190
56.4732,17.0732
56.4190,17.1543
56.4000,17.2500
56.4000,18.3500
56.4190,18.4457
56.4732,18.5268
56.5543,18.5810
56.6500,18.6000
59.1500,18.6000
59.2457,18.5810
59.3268,18.5268
59.3810,18.4457
59.4000,18.3500
59.4000,17.2500
59.3810,17.1543
59.3268,17.0732
59.2457,17.0190
59.1500,17.0000
Z" /> 
<path style="fill:#FFFFFF; fill-opacity:1.0000; stroke:none;fill-rule:evenodd;"
d="M 56.6500,25.8000
56.5543,25.8190
56.4732,25.8732
56.4190,25.9543
56.4000,26.0500
56.4000,27.1500
56.4190,27.2457
56.4732,27.3268
56.5543,27.3810
56.6500,27.4000
59.1500,27.4000
59.2457,27.3810
59.3268,27.3268
59.3810,27.2457
59.4000,27.1500
59.4000,26.0500
59.3810,25.9543
59.3268,25.8732
59.2457,25.8190
59.1500,25.8000
Z" /> 
<path style="fill:#FFFFFF; fill-opacity:1.0000; stroke:none;fill-rule:evenodd;"
d="M 57.3250,9.5000
57.2293,9.5190
57.1482,9.5732
57.0940,9.6543
57.0750,9.7500
57.0750,10.2500
57.0940,10.3457
57.1482,10.4268
57.2293,10.4810
57.3250,10.5000
63.1750,10.5000
63.2707,10.4810
63.3518,10.4268
63.4060,10.3457
63.4250,10.2500
63.4250,9.7500
63.4060,9.6543
63.3518,9.5732
63.2707,9.5190
63.1750,9.5000
Z" /> 
<path style="fill:#FFFFFF; fill-opacity:1.0000; stroke:none;fill-rule:evenodd;"
d="M 57.3250,11.5000
57.2293,11.5190
57.1482,11.5732
57.0940,11.6543
57.0750,11.7500
57.0750,12.2500
57.0940,12.3457
57.1482,12.4268
57.2293,12.4810
57.3250,12.5000
63.1750,12.5000
63.2707,12.4810
63.3518,12.4268
63.4060,12.3457
63.4250,12.2500
63.4250,11.7500
63.4060,11.6543
63.3518,11.5732
63.2707,11.5190
63.1750,11.5000
Z" /> 
<path style="fill:#FFFFFF; fill-opacity:1.0000; stroke:none;fill-rule:evenodd;"
d="M 56.7500,6.8000
56.6543,6.8190
56.5732,6.8732
56.5190,6.9543
56.5000,7.0500
56.5000,8.1500
56.5190,8.2457
56.5732,8.3268
56.6543,8.3810
56.7500,8.4000
59.2500,8.4000
59.3457,8.3810
59.4268,8.3268
59.4810,8.2457
59.5000,8.1500
59.5000,7.0500
59.4810,6.9543
59.4268,6.8732
59.3457,6.8190
59.2500,6.8000
Z" /> 
<path style="fill:#FFFFFF; fill-opacity:1.0000; stroke:none;fill-rule:evenodd;"
d="M 56.7500,13.6000
56.6543,13.6190
56.5732,13.6732
56.5190,13.7543
56.5000,13.8500
56.5000,14.9500
56.5190,15.0457
56.5732,15.1268
56.6543,15.1810
56.7500,15.2000
59.2500,15.2000
59.3457,15.1810
59.4268,15.1268
59.4810,15.0457
59.5000,14.9500
59.5000,13.8500
59.4810,13.7543
59.4268,13.6732
59.3457,13.6190
59.2500,13.6000
Z" /> 
<path style="fill:#FFFFFF; fill-opacity:1.0000; stroke:none;fill-rule:evenodd;"
d="M 9.3450,16.2310
9.3450,18.0090
13.1550,18.0090
13.1550,16.2310
Z" /> 
<path style="fill:#FFFFFF; fill-opacity:1.0000; stroke:none;fill-rule:evenodd;"
d="M 9.3450,13.6910
9.3450,15.4690
13.1550,15.4690
13.1550,13.6910
Z" /> 
<path style="fill:#FFFFFF; fill-opacity:1.0000; stroke:none;fill-rule:evenodd;"
d="M 9.3450,11.1510
9.3450,12.9290
13.1550,12.9290
13.1550,11.1510
Z" /> 
<path style="fill:#FFFFFF; fill-opacity:1.0000; stroke:none;fill-rule:evenodd;"
d="M 9.3450,8.6110
9.3450,10.3890
13.1550,10.3890
13.1550,8.6110
Z" /> 
<path style="fill:#FFFFFF; fill-opacity:1.0000; stroke:none;fill-rule:evenodd;"
d="M 40.9050,21.0990
40.9050,19.3210
37.0950,19.3210
37.0950,21.0990
Z" /> 
<path style="fill:#FFFFFF; fill-opacity:1.0000; stroke:none;fill-rule:evenodd;"
d="M 40.9050,23.6390
40.9050,21.8610
37.0950,21.8610
37.0950,23.6390
Z" /> 
<path style="fill:#FFFFFF; fill-opacity:1.0000; stroke:none;fill-rule:evenodd;"
d="M 40.9050,26.1790
40.9050,24.4010
37.0950,24.4010
37.0950,26.1790
Z" /> 
</g>
<g style="fill:none; 
stroke:#FFFFFF; stroke-width:1.7780; stroke-opacity:1; 
stroke-linecap:round; stroke-linejoin:round;">
<path d="M56.0323 24.2000
L60.1500 24.2000
" />
<path d="M4.7500 24.2500
L4.7500 12.2500
" />
<path d="M54.7500 10.0000
L60.2500 10.0000
" />
<path d="M4.9600 12.0400
L11.2500 12.0400
" />
<path d="M54.9423 25.2900
L56.0323 24.2000
" />
<path d="M54.7000 5.6000
L54.7500 10.0000
" />
<path d="M4.7500 12.2500
L4.7500 6.3710
" />
<path d="M4.7500 6.3710
L9.7500 2.0000
" />
<path d="M23.7500 26.0000
L27.5400 22.2100
" />
<path d="M23.7500 29.7500
L23.7500 26.0000
" />
<path d="M4.7500 12.2500
L4.9600 12.0400
" />
<path d="M39.0000 25.2900
L54.9423 25.2900
" />
<path d="M34.5400 29.7500
L39.0000 25.2900
" />
<path d="M23.7500 29.7500
L10.2500 29.7500
" />
<path d="M51.0000 2.0000
L54.7000 5.6000
" />
<path d="M23.7500 29.7500
L34.5400 29.7500
" />
<path d="M9.7500 2.0000
L51.0000 2.0000
" />
<path d="M10.2500 29.7500
L4.7500 24.2500
" />
<path d="M27.5400 22.2100
L33.2350 22.2100
" />
<path d="M22.6250 4.6250
L25.0000 7.0000
" />
<path d="M25.0000 16.0000
L28.7500 19.7500
" />
<path d="M13.2500 4.7500
L22.6250 4.6250
" />
<path d="M28.7500 19.7500
L28.8300 19.6700
" />
<path d="M11.2500 9.5000
L11.2500 6.0000
" />
<path d="M11.2500 6.0000
L13.2500 4.7500
" />
<path d="M28.8300 19.6700
L33.2350 19.6700
" />
<path d="M37.8750 4.6250
L37.9000 4.6000
" />
<path d="M38.4600 19.6700
L33.2350 19.6700
" />
<path d="M37.9000 4.6000
L41.3000 8.0000
" />
<path d="M22.6250 4.6250
L37.8750 4.6250
" />
<path d="M39.0000 20.2100
L38.4600 19.6700
" />
<path d="M25.0000 7.0000
L25.0000 16.0000
" />
<path d="M41.3000 8.0000
L41.8200 8.0000
" />
</g>
<g style="fill:none; 
stroke:#FFFFFF; stroke-width:0.7620; stroke-opacity:1; 
stroke-linecap:round; stroke-linejoin:round;">
<path d="M42.1000 18.4000
L41.1000 17.4000
" />
<path d="M42.1000 22.3170
L42.1000 18.4000
" />
<path d="M34.8900 14.5900
L33.2350 14.5900
" />
<path d="M39.0000 22.7500
L41.6670 22.7500
" />
<path d="M37.7000 17.4000
L34.8900 14.5900
" />
<path d="M41.6670 22.7500
L42.1000 22.3170
" />
<path d="M41.1000 17.4000
L37.7000 17.4000
" />
<path d="M17.1950 14.5200
L17.2650 14.5900
" />
<path d="M17.2550 14.5800
L17.2650 14.5900
" />
<path d="M11.2500 14.5800
L17.2550 14.5800
" />
<path d="M11.2500 17.1200
L17.2550 17.1200
" />
<path d="M17.1950 17.0600
L17.2650 17.1300
" />
<path d="M17.2550 17.1200
L17.2650 17.1300
" />
<path d="M51.5000 22.2000
L60.1500 22.2000
" />
<path d="M44.1000 14.8000
L51.5000 22.2000
" />
<path d="M33.2350 12.0500
L35.7500 12.0500
" />
<path d="M35.7500 12.0500
L38.5000 14.8000
" />
<path d="M38.5000 14.8000
L44.1000 14.8000
" />
<path d="M50.1000 4.6000
L51.9000 6.4000
" />
<path d="M45.7260 4.6000
L50.1000 4.6000
" />
<path d="M51.9000 6.4000
L51.9000 12.0000
" />
<path d="M44.3600 8.0000
L44.3600 5.9660
" />
<path d="M51.9000 12.0000
L60.2500 12.0000
" />
<path d="M44.3600 5.9660
L45.7260 4.6000
" />
<path d="M60.1500 20.2000
L56.5000 20.2000
" />
<path d="M56.5000 20.2000
L47.9000 11.6000
" />
<path d="M38.7000 11.6000
L36.6100 9.5100
" />
<path d="M36.6100 9.5100
L33.2350 9.5100
" />
<path d="M47.9000 11.6000
L38.7000 11.6000
" />
</g>
<g style="fill:none; 
stroke:#FFFFFF; stroke-width:0.0500; stroke-opacity:1; 
stroke-linecap:round; stroke-linejoin:round;">
<circle cx="61.5000" cy="29.7500" r="1.5000" /> 
<circle cx="61.5000" cy="2.0000" r="1.5000" /> 
<circle cx="2.2500" cy="2.1689" r="1.5811" /> 
<path style="fill:none; 
stroke:#FFFFFF; stroke-width:0.0500; stroke-opacity:1; 
stroke-linecap:round; stroke-linejoin:round;fill:none"
d="M 63.5000,0.0000
0.0000,0.0000
0.0000,31.7500
63.5000,31.7500
Z" /> 
<circle cx="2.2500" cy="29.5000" r="1.5811" /> 
</g>
<g style="fill:#000000; fill-opacity:1.0000; stroke:none;">
<circle cx="41.8200" cy="8.0000" r="0.0635" /> 
</g>
<g style="fill:#000000; fill-opacity:1.0000; stroke:none;">
<circle cx="44.3600" cy="8.0000" r="0.0635" /> 
</g>
<g style="fill:#000000; fill-opacity:1.0000; stroke:none;">
<circle cx="46.9000" cy="8.0000" r="0.0635" /> 
</g>
<g style="fill:#000000; fill-opacity:1.0000; stroke:none;">
<circle cx="11.2500" cy="17.1200" r="0.0635" /> 
</g>
<g style="fill:#000000; fill-opacity:1.0000; stroke:none;">
<circle cx="11.2500" cy="14.5800" r="0.0635" /> 
</g>
<g style="fill:#000000; fill-opacity:1.0000; stroke:none;">
<circle cx="11.2500" cy="12.0400" r="0.0635" /> 
</g>
<g style="fill:#000000; fill-opacity:1.0000; stroke:none;">
<circle cx="11.2500" cy="9.5000" r="0.0635" /> 
</g>
<g style="fill:#000000; fill-opacity:1.0000; stroke:none;">
<circle cx="39.0000" cy="20.2100" r="0.0635" /> 
</g>
<g style="fill:#000000; fill-opacity:1.0000; stroke:none;">
<circle cx="39.0000" cy="22.7500" r="0.0635" /> 
</g>
<g style="fill:#000000; fill-opacity:1.0000; stroke:none;">
<circle cx="39.0000" cy="25.2900" r="0.0635" /> 
</g> 
</svg>
