<?xml version="1.0" standalone="no"?>
 <!DOCTYPE svg PUBLIC "-//W3C//DTD SVG 1.1//EN" 
 "http://www.w3.org/Graphics/SVG/1.1/DTD/svg11.dtd"> 
<svg
  xmlns:svg="http://www.w3.org/2000/svg"
  xmlns="http://www.w3.org/2000/svg"
  xmlns:xlink="http://www.w3.org/1999/xlink"
  version="1.1"
  width="25.4000mm" height="30.8102mm" viewBox="0.0000 0.0000 25.4000 30.8102">
<title>SVG Image created as front.svg date 2025/11/07 17:40:19 </title>
  <desc>Image generated by PCBNEW </desc>
<g style="fill:#000000; fill-opacity:1.0000;stroke:#000000; stroke-opacity:1.0000;
stroke-linecap:round; stroke-linejoin:round;"
 transform="translate(0 0) scale(1 1)">
</g>
<g style="fill:#000000; fill-opacity:1.0000; 
stroke:#000000; stroke-width:0.0212; stroke-opacity:1; 
stroke-linecap:round; stroke-linejoin:round;">
<rect x="-13.665000" y="-4.848721" width="43.913721" height="41.851971" rx="0.000000" />
<path style="fill:#FFFFFF; fill-opacity:1.0000; stroke:none;fill-rule:evenodd;"
d="M 7.1500,8.3300
7.1500,9.8300
9.6500,9.8300
9.6500,8.3300
Z" /> 
<path style="fill:#FFFFFF; fill-opacity:1.0000; stroke:none;fill-rule:evenodd;"
d="M 7.1500,5.7900
7.1500,7.2900
9.6500,7.2900
9.6500,5.7900
Z" /> 
<path style="fill:#FFFFFF; fill-opacity:1.0000; stroke:none;fill-rule:evenodd;"
d="M 7.1500,3.2500
7.1500,4.7500
9.6500,4.7500
9.6500,3.2500
Z" /> 
<path style="fill:#FFFFFF; fill-opacity:1.0000; stroke:none;fill-rule:evenodd;"
d="M 3.1500,7.5100
3.1500,6.0100
0.6500,6.0100
0.6500,7.5100
Z" /> 
<path style="fill:#FFFFFF; fill-opacity:1.0000; stroke:none;fill-rule:evenodd;"
d="M 3.1500,10.0500
3.1500,8.5500
0.6500,8.5500
0.6500,10.0500
Z" /> 
<path style="fill:#FFFFFF; fill-opacity:1.0000; stroke:none;fill-rule:evenodd;"
d="M 3.1500,12.5900
3.1500,11.0900
0.6500,11.0900
0.6500,12.5900
Z" /> 
<path style="fill:#FFFFFF; fill-opacity:1.0000; stroke:none;fill-rule:evenodd;"
d="M 3.1500,15.1300
3.1500,13.6300
0.6500,13.6300
0.6500,15.1300
Z" /> 
<path style="fill:#FFFFFF; fill-opacity:1.0000; stroke:none;fill-rule:evenodd;"
d="M 3.1500,17.6700
3.1500,16.1700
0.6500,16.1700
0.6500,17.6700
Z" /> 
<path style="fill:#FFFFFF; fill-opacity:1.0000; stroke:none;fill-rule:evenodd;"
d="M 3.1500,20.2100
3.1500,18.7100
0.6500,18.7100
0.6500,20.2100
Z" /> 
<path style="fill:#FFFFFF; fill-opacity:1.0000; stroke:none;fill-rule:evenodd;"
d="M 3.1500,22.7500
3.1500,21.2500
0.6500,21.2500
0.6500,22.7500
Z" /> 
<path style="fill:#FFFFFF; fill-opacity:1.0000; stroke:none;fill-rule:evenodd;"
d="M 7.5500,22.1500
7.5500,23.8500
9.2500,23.8500
9.2500,22.1500
Z" /> 
<path style="fill:#FFFFFF; fill-opacity:1.0000; stroke:none;fill-rule:evenodd;"
d="M 7.1500,19.7100
7.1500,21.2100
9.6500,21.2100
9.6500,19.7100
Z" /> 
<path style="fill:#FFFFFF; fill-opacity:1.0000; stroke:none;fill-rule:evenodd;"
d="M 7.1500,17.1700
7.1500,18.6700
9.6500,18.6700
9.6500,17.1700
Z" /> 
<path style="fill:#FFFFFF; fill-opacity:1.0000; stroke:none;fill-rule:evenodd;"
d="M 7.1500,14.6300
7.1500,16.1300
9.6500,16.1300
9.6500,14.6300
Z" /> 
<path style="fill:#FFFFFF; fill-opacity:1.0000; stroke:none;fill-rule:evenodd;"
d="M 12.1500,28.0250
12.1500,29.5250
14.6500,29.5250
14.6500,28.0250
Z" /> 
<path style="fill:#FFFFFF; fill-opacity:1.0000; stroke:none;fill-rule:evenodd;"
d="M 12.1500,25.4850
12.1500,26.9850
14.6500,26.9850
14.6500,25.4850
Z" /> 
</g>
<g style="fill:none; 
stroke:#FFFFFF; stroke-width:0.7000; stroke-opacity:1; 
stroke-linecap:round; stroke-linejoin:round;">
<path d="M4.9000 11.0000
L3.9000 12.0000
" />
<path d="M2.0600 12.0000
L1.9000 11.8400
" />
<path d="M3.9000 12.0000
L3.7400 11.8400
" />
<path d="M4.9000 7.5000
L4.9000 11.0000
" />
<path d="M3.7400 11.8400
L1.9000 11.8400
" />
<path d="M8.4000 6.5400
L5.8600 6.5400
" />
<path d="M5.8600 6.5400
L4.9000 7.5000
" />
<path d="M3.8200 19.4600
L1.9000 19.4600
" />
<path d="M8.4000 15.3800
L7.9000 15.3800
" />
<path d="M7.9000 15.3800
L3.8200 19.4600
" />
<path d="M12.4000 15.5000
L9.9800 17.9200
" />
<path d="M1.9000 16.9200
L3.4800 16.9200
" />
<path d="M9.9800 17.9200
L8.4000 17.9200
" />
<path d="M5.4000 15.0000
L5.4000 13.5000
" />
<path d="M10.9000 12.5000
L12.4000 14.0000
" />
<path d="M12.4000 14.0000
L12.4000 15.5000
" />
<path d="M5.4000 13.5000
L6.4000 12.5000
" />
<path d="M6.4000 12.5000
L10.9000 12.5000
" />
<path d="M3.4800 16.9200
L5.4000 15.0000
" />
</g>
<g style="fill:none; 
stroke:#FFFFFF; stroke-width:2.0000; stroke-opacity:1; 
stroke-linecap:round; stroke-linejoin:round;">
<path d="M9.6110 20.4600
L13.4000 24.2490
" />
<path d="M8.4000 20.4600
L9.6110 20.4600
" />
<path d="M13.4000 24.2490
L13.4000 26.2350
" />
<path d="M16.4000 14.0000
L16.4000 25.0000
" />
<path d="M16.4000 25.0000
L15.1650 26.2350
" />
<path d="M11.4800 9.0800
L16.4000 14.0000
" />
<path d="M15.1650 26.2350
L13.4000 26.2350
" />
<path d="M8.4000 9.0800
L11.4800 9.0800
" />
<path d="M20.1750 28.7750
L13.4000 28.7750
" />
<path d="M22.4000 27.0000
L20.4000 29.0000
" />
<path d="M22.4000 7.0000
L22.4000 27.0000
" />
<path d="M8.4000 4.0000
L19.4000 4.0000
" />
<path d="M19.4000 4.0000
L22.4000 7.0000
" />
<path d="M8.4000 28.5000
L8.4000 23.0000
" />
<path d="M13.4000 28.7750
L8.6750 28.7750
" />
<path d="M20.4000 29.0000
L20.1750 28.7750
" />
<path d="M8.6750 28.7750
L8.4000 28.5000
" />
<path style="fill:#FFFFFF; fill-opacity:1.0000; stroke:none;fill-rule:evenodd;"
d="M 6.0881,19.1040
6.0729,19.1170
4.6998,20.4901
4.6998,20.4901
4.5278,20.6150
4.5278,20.6150
4.5278,20.6151
4.3384,20.7116
4.1761,20.7643
4.1184,20.8037
4.0912,20.8681
4.0952,20.9163
4.1399,21.0726
4.1399,21.0726
4.1505,21.1920
4.1505,22.8080
4.1505,22.8080
4.1399,22.9274
4.0839,23.1230
4.0839,23.1230
4.0839,23.1230
3.9897,23.3034
3.9897,23.3034
3.8611,23.4611
3.7672,23.5377
3.7034,23.5897
3.5230,23.6839
3.3274,23.7399
3.2080,23.7505
0.5920,23.7505
0.5355,23.7455
0.4670,23.7591
0.4167,23.8077
0.4005,23.8690
0.4005,30.3755
0.4202,30.4425
0.4730,30.4883
0.5245,30.4995
7.2714,30.4995
7.3384,30.4798
7.3842,30.4270
7.3941,30.3579
7.3651,30.2943
7.3560,30.2852
7.3560,30.2852
6.8927,29.8219
6.8927,29.8219
6.7566,29.6444
6.7331,29.6138
6.6020,29.3867
6.5016,29.1444
6.4377,28.9061
6.4337,28.8911
6.4189,28.7782
6.3995,28.6311
6.3995,22.8689
6.4337,22.6089
6.5016,22.3556
6.5016,22.3556
6.5016,22.3556
6.5401,22.2627
6.5495,22.2153
6.5495,22.0920
6.5495,22.0920
6.5601,21.9726
6.6161,21.7770
6.7103,21.5966
6.7103,21.5966
6.7113,21.5951
6.7116,21.5942
6.7132,21.5910
6.7126,21.5907
6.7317,21.5283
6.7128,21.4610
6.7070,21.4526
6.7066,21.4521
6.6564,21.3174
6.6564,21.3174
6.6500,21.2578
6.6500,21.2578
6.6500,20.7100
7.9670,20.7100
7.9341,20.6530
7.9000,20.5258
7.9000,20.3942
7.9341,20.2670
7.9670,20.2100
6.6500,20.2100
6.6500,19.6622
6.6500,19.6622
6.6537,19.6278
6.6413,19.5591
6.6012,19.5140
6.6015,19.5137
6.5997,19.5122
6.5986,19.5110
6.5966,19.5097
6.5966,19.5097
6.4389,19.3811
6.3103,19.2234
6.2705,19.1472
6.2220,19.0969
6.1540,19.0808
Z" /> 
<path style="fill:#FFFFFF; fill-opacity:1.0000; stroke:none;fill-rule:evenodd;"
d="M 10.7075,6.0202
10.6617,6.0730
10.6505,6.1245
10.6505,7.3480
10.6505,7.3480
10.6399,7.4674
10.5839,7.6630
10.5839,7.6630
10.5839,7.6630
10.4897,7.8434
10.4897,7.8434
10.3611,8.0011
10.2034,8.1297
10.2014,8.1310
10.2005,8.1321
10.1985,8.1337
10.1988,8.1340
10.1562,8.1844
10.1463,8.2478
10.1500,8.2822
10.1500,8.8300
8.8330,8.8300
8.8659,8.8870
8.9000,9.0142
8.9000,9.1458
8.8659,9.2730
8.8330,9.3300
10.1500,9.3300
10.1500,9.8778
10.1436,9.9374
10.1436,9.9374
10.0934,10.0721
10.0934,10.0721
10.0072,10.1872
10.0072,10.1872
9.8921,10.2733
9.8921,10.2734
9.7574,10.3236
9.7574,10.3236
9.6978,10.3300
9.6978,10.3300
8.6500,10.3300
8.6500,9.5130
8.5930,9.5459
8.4658,9.5800
8.3342,9.5800
8.2070,9.5459
8.1500,9.5130
8.1500,10.3300
7.1022,10.3300
7.1022,10.3300
7.0426,10.3236
7.0426,10.3236
6.9079,10.2734
6.9079,10.2733
6.7928,10.1872
6.7928,10.1872
6.7066,10.0721
6.7066,10.0721
6.6564,9.9374
6.6564,9.9374
6.6500,9.8778
6.6500,9.8778
6.6500,9.3300
7.9670,9.3300
7.9341,9.2730
7.9000,9.1458
7.9000,9.0142
7.9341,8.8870
7.9670,8.8300
6.6500,8.8300
6.6500,8.2822
6.6500,8.2822
6.6537,8.2478
6.6521,8.2390
6.6543,8.2303
6.6460,8.2052
6.6413,8.1791
6.6346,8.1708
6.6324,8.1640
6.6174,8.1493
6.6083,8.1381
6.6003,8.1316
6.5966,8.1297
6.4538,8.0132
6.4536,8.0131
6.4215,7.9998
6.3897,7.9864
6.3894,7.9864
6.3891,7.9863
6.3550,7.9924
6.3208,7.9984
6.3205,7.9986
6.3203,7.9986
6.3198,7.9991
6.2880,8.0219
6.2868,8.0231
6.2794,8.0366
6.2691,8.0462
6.2646,8.0637
6.2533,8.0844
6.2505,8.1108
6.2505,11.0255
6.2702,11.0925
6.3230,11.1383
6.3745,11.1495
10.7937,11.1495
11.0063,11.1495
11.0550,11.1572
11.2162,11.1828
11.4184,11.2484
11.6078,11.3450
11.7798,11.4699
13.4301,13.1202
13.5550,13.2922
13.6516,13.4816
13.7172,13.6838
13.7505,13.8937
13.7505,15.6063
13.7172,15.8162
13.6516,16.0184
13.5550,16.2078
13.4301,16.3798
13.4301,16.3798
13.4301,16.3798
13.2798,16.5301
13.2755,16.5344
13.2755,16.5344
11.0132,18.7967
11.0132,18.7967
11.0101,18.7998
11.0101,18.7998
10.8598,18.9501
10.8598,18.9501
10.8598,18.9501
10.8060,18.9892
10.7319,19.0430
10.6878,19.0751
10.5562,19.1421
10.5537,19.1435
10.5313,19.1667
10.5079,19.1888
10.5052,19.1938
10.5052,19.1938
10.5052,19.1938
10.5051,19.1939
10.4897,19.2234
10.3611,19.3811
10.2034,19.5097
10.2014,19.5110
10.2005,19.5121
10.1985,19.5137
10.1988,19.5140
10.1562,19.5644
10.1463,19.6278
10.1500,19.6622
10.1500,20.2100
8.8330,20.2100
8.8659,20.2670
8.9000,20.3942
8.9000,20.5258
8.8659,20.6530
8.8330,20.7100
10.1500,20.7100
10.1500,21.2578
10.1436,21.3174
10.1436,21.3174
10.0934,21.4521
10.0930,21.4526
10.0928,21.4531
10.0891,21.4599
10.0901,21.4604
10.0686,21.5180
10.0834,21.5863
10.0887,21.5951
10.0897,21.5966
10.0897,21.5966
10.0897,21.5966
10.1514,21.7147
10.1839,21.7770
10.2399,21.9726
10.2399,21.9726
10.2505,22.0920
10.2505,22.2153
10.2599,22.2627
10.2984,22.3556
10.2984,22.3556
10.3663,22.6089
10.4005,22.8689
10.4005,26.6505
10.4202,26.7175
10.4730,26.7633
10.5245,26.7745
11.5260,26.7745
11.5930,26.7548
11.6388,26.7020
11.6500,26.6505
11.6500,26.4850
12.9670,26.4850
12.9341,26.4280
12.9000,26.3008
12.9000,26.1692
12.9341,26.0420
12.9670,25.9850
11.6500,25.9850
11.6500,25.4372
11.6500,25.4372
11.6564,25.3776
11.6564,25.3776
11.7066,25.2429
11.7066,25.2429
11.7928,25.1278
11.7928,25.1278
11.9079,25.0416
11.9079,25.0416
12.0426,24.9914
12.0426,24.9914
12.1022,24.9850
13.1500,24.9850
13.1500,25.8020
13.2070,25.7691
13.3342,25.7350
13.4658,25.7350
13.5930,25.7691
13.6500,25.8020
13.6500,24.9850
14.6978,24.9850
14.7574,24.9914
14.7574,24.9914
14.8921,25.0416
14.8921,25.0416
15.0072,25.1278
15.0072,25.1278
15.0934,25.2429
15.0934,25.2429
15.1436,25.3776
15.1436,25.3776
15.1500,25.4372
15.1500,25.9850
13.8330,25.9850
13.8659,26.0420
13.9000,26.1692
13.9000,26.3008
13.8659,26.4280
13.8330,26.4850
15.1500,26.4850
15.1500,26.6505
15.1697,26.7175
15.2225,26.7633
15.2740,26.7745
19.7450,26.7745
19.8120,26.7548
19.8327,26.7382
20.3632,26.2077
20.3967,26.1464
20.3995,26.1200
20.3995,7.8800
20.3798,7.8130
20.3632,7.7923
18.6077,6.0368
18.5464,6.0033
18.5200,6.0005
10.7745,6.0005
Z" /> 
<path style="fill:none; 
stroke:#FFFFFF; stroke-width:0.0500; stroke-opacity:1; 
stroke-linecap:round; stroke-linejoin:round;fill:none"
d="M 25.2237,0.1763
-0.1000,0.1763
-0.1000,31.0000
25.2237,31.0000
Z" /> 
</g>
<g style="fill:#000000; fill-opacity:1.0000; stroke:none;">
<circle cx="8.4000" cy="9.0800" r="0.5000" /> 
</g>
<g style="fill:#000000; fill-opacity:1.0000; stroke:none;">
<circle cx="8.4000" cy="6.5400" r="0.5000" /> 
</g>
<g style="fill:#000000; fill-opacity:1.0000; stroke:none;">
<circle cx="8.4000" cy="4.0000" r="0.5000" /> 
</g>
<g style="fill:#000000; fill-opacity:1.0000; stroke:none;">
<circle cx="1.9000" cy="6.7600" r="0.5000" /> 
</g>
<g style="fill:#000000; fill-opacity:1.0000; stroke:none;">
<circle cx="1.9000" cy="9.3000" r="0.5000" /> 
</g>
<g style="fill:#000000; fill-opacity:1.0000; stroke:none;">
<circle cx="1.9000" cy="11.8400" r="0.5000" /> 
</g>
<g style="fill:#000000; fill-opacity:1.0000; stroke:none;">
<circle cx="1.9000" cy="14.3800" r="0.5000" /> 
</g>
<g style="fill:#000000; fill-opacity:1.0000; stroke:none;">
<circle cx="1.9000" cy="16.9200" r="0.5000" /> 
</g>
<g style="fill:#000000; fill-opacity:1.0000; stroke:none;">
<circle cx="1.9000" cy="19.4600" r="0.5000" /> 
</g>
<g style="fill:#000000; fill-opacity:1.0000; stroke:none;">
<circle cx="1.9000" cy="22.0000" r="0.5000" /> 
</g>
<g style="fill:#000000; fill-opacity:1.0000; stroke:none;">
<circle cx="8.4000" cy="23.0000" r="0.5000" /> 
</g>
<g style="fill:#000000; fill-opacity:1.0000; stroke:none;">
<circle cx="8.4000" cy="20.4600" r="0.5000" /> 
</g>
<g style="fill:#000000; fill-opacity:1.0000; stroke:none;">
<circle cx="8.4000" cy="17.9200" r="0.5000" /> 
</g>
<g style="fill:#000000; fill-opacity:1.0000; stroke:none;">
<circle cx="8.4000" cy="15.3800" r="0.5000" /> 
</g>
<g style="fill:#000000; fill-opacity:1.0000; stroke:none;">
<circle cx="13.4000" cy="28.7750" r="0.5000" /> 
</g>
<g style="fill:#000000; fill-opacity:1.0000; stroke:none;">
<circle cx="13.4000" cy="26.2350" r="0.5000" /> 
</g> 
</svg>
