<?xml version="1.0" standalone="no"?>
 <!DOCTYPE svg PUBLIC "-//W3C//DTD SVG 1.1//EN" 
 "http://www.w3.org/Graphics/SVG/1.1/DTD/svg11.dtd"> 
<svg
  xmlns:svg="http://www.w3.org/2000/svg"
  xmlns="http://www.w3.org/2000/svg"
  xmlns:xlink="http://www.w3.org/1999/xlink"
  version="1.1"
  width="63.5000mm" height="31.7500mm" viewBox="0.0000 0.0000 63.5000 31.7500">
<title>SVG Image created as front.svg date 2025/11/11 20:05:09 </title>
  <desc>Image generated by PCBNEW </desc>
<g style="fill:#000000; fill-opacity:1.0000;stroke:#000000; stroke-opacity:1.0000;
stroke-linecap:round; stroke-linejoin:round;"
 transform="translate(0 0) scale(1 1)">
</g>
<g style="fill:#000000; fill-opacity:1.0000; 
stroke:#000000; stroke-width:0.0212; stroke-opacity:1; 
stroke-linecap:round; stroke-linejoin:round;">
<rect x="-5.025000" y="-5.025000" width="73.550000" height="41.800000" rx="0.000000" />
<path style="fill:#FFFFFF; fill-opacity:1.0000; stroke:none;fill-rule:evenodd;"
d="M 31.7225,6.2080
31.7225,7.7320
34.7475,7.7320
34.7475,6.2080
Z" /> 
<path style="fill:#FFFFFF; fill-opacity:1.0000; stroke:none;fill-rule:evenodd;"
d="M 31.7225,8.7480
31.7225,10.2720
34.7475,10.2720
34.7475,8.7480
Z" /> 
<path style="fill:#FFFFFF; fill-opacity:1.0000; stroke:none;fill-rule:evenodd;"
d="M 31.7225,11.2880
31.7225,12.8120
34.7475,12.8120
34.7475,11.2880
Z" /> 
<path style="fill:#FFFFFF; fill-opacity:1.0000; stroke:none;fill-rule:evenodd;"
d="M 31.7225,13.8280
31.7225,15.3520
34.7475,15.3520
34.7475,13.8280
Z" /> 
<path style="fill:#FFFFFF; fill-opacity:1.0000; stroke:none;fill-rule:evenodd;"
d="M 31.7225,18.9080
31.7225,20.4320
34.7475,20.4320
34.7475,18.9080
Z" /> 
<path style="fill:#FFFFFF; fill-opacity:1.0000; stroke:none;fill-rule:evenodd;"
d="M 31.7225,16.3680
31.7225,17.8920
34.7475,17.8920
34.7475,16.3680
Z" /> 
<path style="fill:#FFFFFF; fill-opacity:1.0000; stroke:none;fill-rule:evenodd;"
d="M 15.7525,23.9880
15.7525,25.5120
18.7775,25.5120
18.7775,23.9880
Z" /> 
<path style="fill:#FFFFFF; fill-opacity:1.0000; stroke:none;fill-rule:evenodd;"
d="M 31.7225,23.9880
31.7225,25.5120
34.7475,25.5120
34.7475,23.9880
Z" /> 
<path style="fill:#FFFFFF; fill-opacity:1.0000; stroke:none;fill-rule:evenodd;"
d="M 15.7525,21.4480
15.7525,22.9720
18.7775,22.9720
18.7775,21.4480
Z" /> 
<path style="fill:#FFFFFF; fill-opacity:1.0000; stroke:none;fill-rule:evenodd;"
d="M 15.7525,18.9080
15.7525,20.4320
18.7775,20.4320
18.7775,18.9080
Z" /> 
<path style="fill:#FFFFFF; fill-opacity:1.0000; stroke:none;fill-rule:evenodd;"
d="M 15.7525,16.3680
15.7525,17.8920
18.7775,17.8920
18.7775,16.3680
Z" /> 
<path style="fill:#FFFFFF; fill-opacity:1.0000; stroke:none;fill-rule:evenodd;"
d="M 15.7525,13.8280
15.7525,15.3520
18.7775,15.3520
18.7775,13.8280
Z" /> 
<path style="fill:#FFFFFF; fill-opacity:1.0000; stroke:none;fill-rule:evenodd;"
d="M 15.7525,11.2880
15.7525,12.8120
18.7775,12.8120
18.7775,11.2880
Z" /> 
<path style="fill:#FFFFFF; fill-opacity:1.0000; stroke:none;fill-rule:evenodd;"
d="M 15.7525,8.7480
15.7525,10.2720
18.7775,10.2720
18.7775,8.7480
Z" /> 
<path style="fill:#FFFFFF; fill-opacity:1.0000; stroke:none;fill-rule:evenodd;"
d="M 15.7525,6.2080
15.7525,7.7320
18.7775,7.7320
18.7775,6.2080
Z" /> 
<path style="fill:#FFFFFF; fill-opacity:1.0000; stroke:none;fill-rule:evenodd;"
d="M 31.7225,21.4480
31.7225,22.9720
34.7475,22.9720
34.7475,21.4480
Z" /> 
<path style="fill:#FFFFFF; fill-opacity:1.0000; stroke:none;fill-rule:evenodd;"
d="M 44.5590,10.0950
42.7810,10.0950
42.7810,13.9050
44.5590,13.9050
Z" /> 
<path style="fill:#FFFFFF; fill-opacity:1.0000; stroke:none;fill-rule:evenodd;"
d="M 47.0990,10.0950
45.3210,10.0950
45.3210,13.9050
47.0990,13.9050
Z" /> 
<path style="fill:#FFFFFF; fill-opacity:1.0000; stroke:none;fill-rule:evenodd;"
d="M 49.6390,10.0950
47.8610,10.0950
47.8610,13.9050
49.6390,13.9050
Z" /> 
<path style="fill:#FFFFFF; fill-opacity:1.0000; stroke:none;fill-rule:evenodd;"
d="M 57.3250,21.7500
57.2293,21.7690
57.1482,21.8232
57.0940,21.9043
57.0750,22.0000
57.0750,22.5000
57.0940,22.5957
57.1482,22.6768
57.2293,22.7310
57.3250,22.7500
63.1750,22.7500
63.2707,22.7310
63.3518,22.6768
63.4060,22.5957
63.4250,22.5000
63.4250,22.0000
63.4060,21.9043
63.3518,21.8232
63.2707,21.7690
63.1750,21.7500
Z" /> 
<path style="fill:#FFFFFF; fill-opacity:1.0000; stroke:none;fill-rule:evenodd;"
d="M 57.3250,23.7500
57.2293,23.7690
57.1482,23.8232
57.0940,23.9043
57.0750,24.0000
57.0750,24.5000
57.0940,24.5957
57.1482,24.6768
57.2293,24.7310
57.3250,24.7500
63.1750,24.7500
63.2707,24.7310
63.3518,24.6768
63.4060,24.5957
63.4250,24.5000
63.4250,24.0000
63.4060,23.9043
63.3518,23.8232
63.2707,23.7690
63.1750,23.7500
Z" /> 
<path style="fill:#FFFFFF; fill-opacity:1.0000; stroke:none;fill-rule:evenodd;"
d="M 56.7500,19.0500
56.6543,19.0690
56.5732,19.1232
56.5190,19.2043
56.5000,19.3000
56.5000,20.4000
56.5190,20.4957
56.5732,20.5768
56.6543,20.6310
56.7500,20.6500
59.2500,20.6500
59.3457,20.6310
59.4268,20.5768
59.4810,20.4957
59.5000,20.4000
59.5000,19.3000
59.4810,19.2043
59.4268,19.1232
59.3457,19.0690
59.2500,19.0500
Z" /> 
<path style="fill:#FFFFFF; fill-opacity:1.0000; stroke:none;fill-rule:evenodd;"
d="M 56.7500,25.8500
56.6543,25.8690
56.5732,25.9232
56.5190,26.0043
56.5000,26.1000
56.5000,27.2000
56.5190,27.2957
56.5732,27.3768
56.6543,27.4310
56.7500,27.4500
59.2500,27.4500
59.3457,27.4310
59.4268,27.3768
59.4810,27.2957
59.5000,27.2000
59.5000,26.1000
59.4810,26.0043
59.4268,25.9232
59.3457,25.8690
59.2500,25.8500
Z" /> 
<path style="fill:#FFFFFF; fill-opacity:1.0000; stroke:none;fill-rule:evenodd;"
d="M 57.3250,9.5000
57.2293,9.5190
57.1482,9.5732
57.0940,9.6543
57.0750,9.7500
57.0750,10.2500
57.0940,10.3457
57.1482,10.4268
57.2293,10.4810
57.3250,10.5000
63.1750,10.5000
63.2707,10.4810
63.3518,10.4268
63.4060,10.3457
63.4250,10.2500
63.4250,9.7500
63.4060,9.6543
63.3518,9.5732
63.2707,9.5190
63.1750,9.5000
Z" /> 
<path style="fill:#FFFFFF; fill-opacity:1.0000; stroke:none;fill-rule:evenodd;"
d="M 57.3250,11.5000
57.2293,11.5190
57.1482,11.5732
57.0940,11.6543
57.0750,11.7500
57.0750,12.2500
57.0940,12.3457
57.1482,12.4268
57.2293,12.4810
57.3250,12.5000
63.1750,12.5000
63.2707,12.4810
63.3518,12.4268
63.4060,12.3457
63.4250,12.2500
63.4250,11.7500
63.4060,11.6543
63.3518,11.5732
63.2707,11.5190
63.1750,11.5000
Z" /> 
<path style="fill:#FFFFFF; fill-opacity:1.0000; stroke:none;fill-rule:evenodd;"
d="M 56.7500,6.8000
56.6543,6.8190
56.5732,6.8732
56.5190,6.9543
56.5000,7.0500
56.5000,8.1500
56.5190,8.2457
56.5732,8.3268
56.6543,8.3810
56.7500,8.4000
59.2500,8.4000
59.3457,8.3810
59.4268,8.3268
59.4810,8.2457
59.5000,8.1500
59.5000,7.0500
59.4810,6.9543
59.4268,6.8732
59.3457,6.8190
59.2500,6.8000
Z" /> 
<path style="fill:#FFFFFF; fill-opacity:1.0000; stroke:none;fill-rule:evenodd;"
d="M 56.7500,13.6000
56.6543,13.6190
56.5732,13.6732
56.5190,13.7543
56.5000,13.8500
56.5000,14.9500
56.5190,15.0457
56.5732,15.1268
56.6543,15.1810
56.7500,15.2000
59.2500,15.2000
59.3457,15.1810
59.4268,15.1268
59.4810,15.0457
59.5000,14.9500
59.5000,13.8500
59.4810,13.7543
59.4268,13.6732
59.3457,13.6190
59.2500,13.6000
Z" /> 
<path style="fill:#FFFFFF; fill-opacity:1.0000; stroke:none;fill-rule:evenodd;"
d="M 9.3450,16.2310
9.3450,18.0090
13.1550,18.0090
13.1550,16.2310
Z" /> 
<path style="fill:#FFFFFF; fill-opacity:1.0000; stroke:none;fill-rule:evenodd;"
d="M 9.3450,13.6910
9.3450,15.4690
13.1550,15.4690
13.1550,13.6910
Z" /> 
<path style="fill:#FFFFFF; fill-opacity:1.0000; stroke:none;fill-rule:evenodd;"
d="M 9.3450,11.1510
9.3450,12.9290
13.1550,12.9290
13.1550,11.1510
Z" /> 
<path style="fill:#FFFFFF; fill-opacity:1.0000; stroke:none;fill-rule:evenodd;"
d="M 9.3450,8.6110
9.3450,10.3890
13.1550,10.3890
13.1550,8.6110
Z" /> 
<path style="fill:#FFFFFF; fill-opacity:1.0000; stroke:none;fill-rule:evenodd;"
d="M 40.9050,21.0990
40.9050,19.3210
37.0950,19.3210
37.0950,21.0990
Z" /> 
<path style="fill:#FFFFFF; fill-opacity:1.0000; stroke:none;fill-rule:evenodd;"
d="M 40.9050,23.6390
40.9050,21.8610
37.0950,21.8610
37.0950,23.6390
Z" /> 
<path style="fill:#FFFFFF; fill-opacity:1.0000; stroke:none;fill-rule:evenodd;"
d="M 40.9050,26.1790
40.9050,24.4010
37.0950,24.4010
37.0950,26.1790
Z" /> 
</g>
<g style="fill:none; 
stroke:#FFFFFF; stroke-width:1.7780; stroke-opacity:1; 
stroke-linecap:round; stroke-linejoin:round;">
<path d="M54.2500 24.2500
L60.2500 24.2500
" />
<path d="M4.7500 24.2500
L4.7500 12.2500
" />
<path d="M4.9600 12.0400
L11.2500 12.0400
" />
<path d="M54.7500 10.0000
L60.2500 10.0000
" />
<path d="M23.7500 26.0000
L27.5400 22.2100
" />
<path d="M23.7500 29.7500
L23.7500 26.0000
" />
<path d="M4.7500 12.2500
L4.9600 12.0400
" />
<path d="M53.2100 25.2900
L54.2500 24.2500
" />
<path d="M4.7500 6.3710
L9.7500 2.0000
" />
<path d="M51.0000 2.0000
L51.0000 6.0000
" />
<path d="M4.7500 12.2500
L4.7500 6.3710
" />
<path d="M34.5400 29.7500
L39.0000 25.2900
" />
<path d="M9.7500 2.0000
L51.0000 2.0000
" />
<path d="M23.7500 29.7500
L10.2500 29.7500
" />
<path d="M23.7500 29.7500
L34.5400 29.7500
" />
<path d="M51.0000 6.0000
L54.7500 10.0000
" />
<path d="M39.0000 25.2900
L53.2100 25.2900
" />
<path d="M10.2500 29.7500
L4.7500 24.2500
" />
<path d="M27.5400 22.2100
L33.2350 22.2100
" />
<path d="M22.6250 4.6250
L25.0000 7.0000
" />
<path d="M25.0000 16.0000
L28.7500 19.7500
" />
<path d="M13.2500 4.7500
L22.6250 4.6250
" />
<path d="M41.5000 4.7500
L43.7500 8.0000
" />
<path d="M43.7500 8.0000
L43.6700 8.0800
" />
<path d="M28.7500 19.7500
L28.8300 19.6700
" />
<path d="M11.2500 9.5000
L11.2500 6.0000
" />
<path d="M11.2500 6.0000
L13.2500 4.7500
" />
<path d="M28.8300 19.6700
L33.2350 19.6700
" />
<path d="M38.4600 19.6700
L33.2350 19.6700
" />
<path d="M39.0000 20.2100
L38.4600 19.6700
" />
<path d="M25.0000 7.0000
L25.0000 16.0000
" />
<path d="M22.6250 4.6250
L41.5000 4.7500
" />
<path d="M43.6700 8.0800
L43.6700 12.0000
" />
</g>
<g style="fill:none; 
stroke:#FFFFFF; stroke-width:0.7620; stroke-opacity:1; 
stroke-linecap:round; stroke-linejoin:round;">
<path d="M44.5000 22.7500
L44.5000 19.7500
" />
<path d="M39.0000 22.7500
L44.5000 22.7500
" />
<path d="M36.6600 14.5900
L33.2350 14.5900
" />
<path d="M44.5000 19.7500
L40.0000 16.7500
" />
<path d="M40.0000 16.7500
L36.6000 14.5500
" />
<path d="M36.6000 14.5500
L36.6600 14.5900
" />
<path d="M17.1950 14.5200
L17.2650 14.5900
" />
<path d="M17.2550 14.5800
L17.2650 14.5900
" />
<path d="M11.2500 14.5800
L17.2550 14.5800
" />
<path d="M11.2500 17.1200
L17.2550 17.1200
" />
<path d="M17.1950 17.0600
L17.2650 17.1300
" />
<path d="M17.2550 17.1200
L17.2650 17.1300
" />
<path d="M54.5000 13.5000
L54.5000 12.0000
" />
<path d="M47.7500 15.7500
L52.2500 15.7500
" />
<path d="M54.5000 12.0000
L60.2500 12.0000
" />
<path d="M46.2100 14.2100
L47.7500 15.7500
" />
<path d="M46.2100 12.0000
L46.2100 14.2100
" />
<path d="M52.2500 15.7500
L54.5000 13.5000
" />
<path d="M45.2500 16.2500
L51.2500 22.2500
" />
<path d="M51.2500 22.2500
L60.2500 22.2500
" />
<path d="M43.0000 16.2500
L45.2500 16.2500
" />
<path d="M33.2350 12.0500
L37.0500 12.0500
" />
<path d="M37.0500 12.0500
L43.0000 16.2500
" />
<path style="fill:#FFFFFF; fill-opacity:1.0000; stroke:none;fill-rule:evenodd;"
d="M 59.5785,30.9972
59.6608,30.9427
59.7160,30.8609
59.7357,30.7641
59.7169,30.6672
59.7056,30.6441
59.7056,30.6441
59.7020,30.6367
59.6016,30.3944
59.6016,30.3944
59.5337,30.1411
59.5337,30.1411
59.4995,29.8811
59.4995,29.6189
59.5337,29.3589
59.5337,29.3589
59.6016,29.1056
59.6016,29.1056
59.7020,28.8633
59.7020,28.8633
59.7212,28.8300
59.7529,28.7365
59.7465,28.6380
59.7028,28.5495
59.6286,28.4844
59.5351,28.4526
59.4599,28.4570
59.4594,28.4542
59.4489,28.4560
59.3150,28.4665
59.3150,28.4665
56.6850,28.4665
56.6850,28.4665
56.5511,28.4560
56.5511,28.4560
56.3300,28.4003
56.3300,28.4003
56.1225,28.3060
56.1224,28.3060
55.9351,28.1762
55.9350,28.1761
55.7739,28.0150
55.7738,28.0149
55.6440,27.8276
55.6440,27.8275
55.5497,27.6200
55.5497,27.6200
55.4940,27.3989
55.4940,27.3989
55.4835,27.2650
55.4835,26.0350
55.4940,25.9011
55.4940,25.9011
55.5497,25.6800
55.5497,25.6800
55.6440,25.4725
55.6440,25.4724
55.7414,25.3319
55.7738,25.2850
55.9350,25.1238
56.0201,25.0649
56.1224,24.9940
56.1224,24.9940
56.1224,24.9940
56.1225,24.9940
56.3300,24.8997
56.3300,24.8997
56.3300,24.8997
56.3837,24.8862
56.4729,24.8439
56.5391,24.7706
56.5722,24.6776
56.5736,24.6152
56.5670,24.5505
56.5670,24.5040
59.9970,24.5040
60.0938,24.4847
60.1759,24.4299
60.2307,24.3478
60.2500,24.2510
60.2500,24.2490
60.2307,24.1522
60.1759,24.0701
60.0938,24.0153
59.9970,23.9960
56.5670,23.9960
56.5670,23.9495
56.5694,23.9262
56.5601,23.8279
56.5138,23.7407
56.4378,23.6778
56.3434,23.6488
56.3177,23.6475
51.1400,23.6475
50.9228,23.6131
50.7135,23.5451
50.7135,23.5451
50.5176,23.4453
50.5175,23.4452
50.3396,23.3160
50.3396,23.3160
46.3039,19.2803
46.2873,19.2692
46.2737,19.2545
46.2467,19.2420
46.2218,19.2254
46.2022,19.2215
46.1841,19.2132
46.1543,19.2120
46.1250,19.2062
46.1054,19.2101
46.0855,19.2093
46.0575,19.2196
46.0282,19.2254
46.0116,19.2365
45.9928,19.2435
45.9709,19.2637
45.9461,19.2803
45.9350,19.2969
45.9204,19.3105
45.9079,19.3376
45.8913,19.3624
45.8874,19.3820
45.8790,19.4001
45.8785,19.4266
45.8720,19.4592
45.8751,19.4987
45.8759,19.5038
45.8919,19.5838
45.8931,19.6120
45.8943,19.6199
45.8975,19.6400
45.8975,19.7218
45.9008,19.8036
45.8975,19.8317
45.8975,22.8600
45.8631,23.0772
45.7951,23.2865
45.6952,23.4824
45.6947,23.4832
45.5660,23.6604
45.4104,23.8160
45.2325,23.9452
45.2324,23.9453
45.0365,24.0451
45.0365,24.0451
45.0365,24.0451
44.8272,24.1131
44.7856,24.1197
44.6100,24.1475
44.6100,24.1475
41.9223,24.1475
41.8713,24.1576
41.8256,24.1667
41.8255,24.1668
41.8255,24.1668
41.7435,24.2216
41.7347,24.2304
41.6273,24.3613
41.4959,24.4690
41.4871,24.4778
41.4665,24.5087
41.4429,24.5375
41.4392,24.5495
41.4323,24.5599
41.4250,24.5964
41.4142,24.6319
41.4130,24.6567
41.4130,24.6567
41.4130,24.6567
41.4130,24.6567
41.4130,25.0360
36.5870,25.0360
36.5870,24.6567
36.5783,24.6128
36.5712,24.5687
36.5688,24.5654
36.5677,24.5599
36.5194,24.4846
36.5078,24.4720
36.3727,24.3613
36.2457,24.2065
36.2247,24.1671
36.2024,24.1431
36.1884,24.1330
36.1775,24.1197
36.1488,24.1044
36.1224,24.0853
36.1057,24.0813
36.0904,24.0732
36.0581,24.0700
36.0264,24.0624
36.0094,24.0652
35.9922,24.0635
35.9611,24.0729
35.9289,24.0781
35.9142,24.0871
35.8977,24.0921
35.8726,24.1128
35.8449,24.1298
35.8348,24.1438
35.8214,24.1548
35.8061,24.1835
35.7870,24.2098
35.7830,24.2266
35.7749,24.2418
35.7674,24.2922
35.7642,24.3059
35.7648,24.3098
35.7640,24.3153
35.7640,25.3163
38.9365,25.3163
38.9365,25.2637
38.9737,25.2265
39.0263,25.2265
39.0635,25.2637
39.0635,25.3163
39.0263,25.3535
38.9737,25.3535
38.9365,25.3163
35.7640,25.3163
35.7640,25.5619
35.7640,25.5619
35.7595,25.6078
35.7493,25.7113
35.6912,25.9029
35.5968,26.0795
35.4752,26.2276
36.5870,26.2276
36.5870,25.5440
38.7460,25.5440
39.2540,25.5440
41.4130,25.5440
41.4130,26.2276
41.4130,26.2276
41.4065,26.2881
41.4065,26.2881
41.3554,26.4250
41.3554,26.4250
41.2679,26.5419
41.2679,26.5419
41.1510,26.6294
41.1510,26.6294
41.0141,26.6805
41.0141,26.6805
40.9536,26.6870
39.2540,26.6870
39.2540,25.5440
38.7460,25.5440
38.7460,26.6870
37.0464,26.6870
36.9859,26.6805
36.9859,26.6805
36.8490,26.6294
36.8490,26.6294
36.7321,26.5419
36.7321,26.5419
36.6446,26.4250
36.6446,26.4250
36.5935,26.2881
36.5935,26.2881
36.5870,26.2276
35.4752,26.2276
35.4698,26.2343
35.3150,26.3613
35.1384,26.4557
34.9468,26.5138
34.9468,26.5138
34.9468,26.5138
34.7974,26.5285
34.7974,26.5285
31.6726,26.5285
31.6726,26.5285
31.5232,26.5138
31.3316,26.4557
31.3316,26.4557
31.1550,26.3613
31.0002,26.2343
31.0002,26.2343
30.8732,26.0795
30.7788,25.9029
30.7788,25.9029
30.7207,25.7113
30.7060,25.5619
30.7060,23.9381
30.7207,23.7887
30.7788,23.5971
30.7788,23.5971
30.8282,23.5048
30.8732,23.4205
31.0002,23.2657
31.1154,23.1713
31.1220,23.1658
31.1846,23.0895
31.2133,22.9951
31.2145,22.9703
31.2145,22.4640
35.2555,22.4640
35.2555,22.9703
35.2642,23.0142
35.2713,23.0583
35.2737,23.0616
35.2748,23.0671
35.3231,23.1424
35.3347,23.1550
35.4698,23.2657
35.5968,23.4205
35.6178,23.4599
35.6401,23.4839
35.6541,23.4940
35.6650,23.5073
35.6937,23.5226
35.7201,23.5417
35.7368,23.5457
35.7521,23.5538
35.7844,23.5570
35.8161,23.5646
35.8331,23.5618
35.8503,23.5635
35.8814,23.5541
35.9136,23.5489
35.9283,23.5399
35.9448,23.5349
35.9699,23.5142
35.9976,23.4972
36.0077,23.4832
36.0211,23.4722
36.0364,23.4435
36.0555,23.4172
36.0595,23.4004
36.0676,23.3852
36.0751,23.3348
36.0783,23.3211
36.0777,23.3172
36.0785,23.3117
36.0785,21.8285
36.0592,21.7317
36.0044,21.6496
35.9223,21.5948
35.8255,21.5755
35.5085,21.5755
35.4117,21.5948
35.3296,21.6496
35.2748,21.7317
35.2555,21.8285
35.2555,21.9560
31.2145,21.9560
31.2145,21.8285
31.1952,21.7317
31.1404,21.6496
31.0583,21.5948
30.9615,21.5755
29.3327,21.5755
29.2673,21.5841
29.1225,21.6229
28.8749,21.6555
28.8749,21.6555
28.6251,21.6555
28.6251,21.6555
28.3775,21.6229
28.3775,21.6229
28.1362,21.5582
28.0199,21.5101
28.0100,21.5060
27.9054,21.4627
27.7146,21.3525
27.7095,21.3496
27.7095,21.3496
27.6891,21.3378
27.4909,21.1857
23.7409,17.4357
23.5643,17.2591
23.4523,17.1131
23.4523,17.1131
23.4122,17.0609
23.4122,17.0609
23.2873,16.8446
23.2873,16.8446
23.2358,16.7201
23.1918,16.6138
23.1918,16.6138
23.1918,16.6138
23.1271,16.3726
23.1271,16.3725
23.0945,16.1249
23.0945,15.8661
23.0945,15.8661
23.0945,7.8941
23.0752,7.7973
23.0204,7.7152
21.9218,6.6166
21.8397,6.5617
21.7429,6.5425
21.7395,6.5425
20.0436,6.5651
19.9471,6.5856
19.8657,6.6416
19.8120,6.7244
19.7940,6.8181
19.7940,7.7819
19.7940,7.7819
19.7925,7.7975
19.7793,7.9313
19.7212,8.1229
19.7212,8.1229
19.7164,8.1344
19.7180,8.1350
19.6937,8.2152
19.7033,8.3134
19.7166,8.3455
19.7164,8.3456
19.7212,8.3571
19.7212,8.3571
19.7793,8.5487
19.7940,8.6981
19.7940,10.3219
19.7793,10.4713
19.7212,10.6629
19.7212,10.6629
19.7164,10.6744
19.7180,10.6750
19.6937,10.7552
19.7033,10.8534
19.7166,10.8855
19.7164,10.8856
19.7212,10.8971
19.7212,10.8971
19.7793,11.0887
19.7940,11.2381
19.7940,12.8619
19.7793,13.0113
19.7212,13.2029
19.7212,13.2029
19.7164,13.2144
19.7180,13.2150
19.6937,13.2952
19.7033,13.3934
19.7166,13.4255
19.7164,13.4256
19.7212,13.4371
19.7212,13.4371
19.7793,13.6287
19.7940,13.7781
19.7940,15.4019
19.7793,15.5513
19.7212,15.7429
19.7212,15.7429
19.7164,15.7544
19.7180,15.7550
19.6937,15.8352
19.7033,15.9334
19.7166,15.9655
19.7164,15.9656
19.7212,15.9771
19.7212,15.9771
19.7793,16.1687
19.7940,16.3181
19.7940,17.9419
19.7793,18.0913
19.7212,18.2829
19.7212,18.2829
19.7164,18.2944
19.7180,18.2950
19.6937,18.3752
19.7033,18.4734
19.7166,18.5055
19.7164,18.5056
19.7212,18.5171
19.7212,18.5171
19.7793,18.7087
19.7940,18.8581
19.7940,20.4819
19.7793,20.6313
19.7212,20.8229
19.7212,20.8229
19.7164,20.8344
19.7180,20.8350
19.6937,20.9152
19.7033,21.0134
19.7166,21.0455
19.7164,21.0456
19.7212,21.0571
19.7212,21.0571
19.7793,21.2487
19.7940,21.3981
19.7940,23.0219
19.7793,23.1713
19.7212,23.3629
19.7212,23.3629
19.7164,23.3744
19.7180,23.3750
19.6937,23.4552
19.7033,23.5534
19.7166,23.5855
19.7164,23.5856
19.7212,23.5971
19.7212,23.5971
19.7793,23.7887
19.7940,23.9381
19.7940,25.5619
19.7793,25.7113
19.7212,25.9029
19.6268,26.0795
19.4998,26.2343
19.3450,26.3613
19.1684,26.4557
18.9768,26.5138
18.9768,26.5138
18.9768,26.5138
18.8274,26.5285
18.8274,26.5285
15.7026,26.5285
15.7026,26.5285
15.5532,26.5138
15.3616,26.4557
15.3616,26.4557
15.1850,26.3613
15.0302,26.2343
15.0302,26.2343
14.9032,26.0795
14.8088,25.9029
14.8088,25.9029
14.7507,25.7113
14.7360,25.5619
14.7360,23.9381
14.7507,23.7887
14.8088,23.5971
14.8136,23.5856
14.8120,23.5850
14.8363,23.5048
14.8267,23.4066
14.8134,23.3745
14.8136,23.3744
14.8088,23.3629
14.7507,23.1713
14.7360,23.0219
14.7360,21.3981
14.7507,21.2487
14.8088,21.0571
14.8136,21.0456
14.8120,21.0450
14.8363,20.9648
14.8267,20.8666
14.8134,20.8345
14.8136,20.8344
14.8088,20.8229
14.7507,20.6313
14.7360,20.4819
14.7360,18.8581
14.7422,18.7953
14.7410,18.7828
14.7434,18.7705
14.7361,18.7340
14.7325,18.6971
14.7266,18.6860
14.7241,18.6737
14.7035,18.6428
14.6860,18.6100
14.6763,18.6020
14.6693,18.5916
14.6384,18.5710
14.6097,18.5474
14.5977,18.5437
14.5872,18.5368
14.5508,18.5295
14.5152,18.5187
14.4904,18.5175
14.1723,18.5175
14.0755,18.5368
13.9934,18.5916
13.9768,18.6100
13.8773,18.7313
13.8773,18.7313
13.7967,18.7974
13.7225,18.8583
13.5459,18.9527
13.3543,19.0108
13.3543,19.0108
13.3543,19.0108
13.2049,19.0255
13.2049,19.0255
9.2951,19.0255
9.2951,19.0255
9.1457,19.0108
8.9541,18.9527
8.9541,18.9527
8.7775,18.8583
8.6227,18.7313
8.6227,18.7313
8.4957,18.5765
8.4013,18.3999
8.4013,18.3999
8.3432,18.2083
8.3285,18.0589
8.3285,16.1811
8.3432,16.0317
8.3761,15.9234
8.3857,15.8252
8.3761,15.7766
8.3432,15.6683
8.3285,15.5189
8.3285,13.6411
8.3432,13.4917
8.4013,13.3001
8.4013,13.3001
8.4533,13.2029
8.4957,13.1235
8.6227,12.9687
8.7339,12.8776
8.7445,12.8688
8.8071,12.7925
8.8358,12.6981
8.8370,12.6733
8.8370,12.2940
13.6630,12.2940
13.6630,12.6733
13.6630,12.6733
13.6630,12.6733
13.6726,12.7215
13.6823,12.7701
13.6823,12.7701
13.6823,12.7701
13.6824,12.7703
13.7371,12.8522
13.7371,12.8522
13.7459,12.8610
13.8773,12.9687
13.9847,13.0996
13.9935,13.1084
14.0244,13.1291
14.0531,13.1526
14.0651,13.1563
14.0756,13.1633
14.1120,13.1705
14.1475,13.1813
14.1723,13.1825
14.4884,13.1825
14.5852,13.1632
14.6673,13.1084
14.7222,13.0263
14.7414,12.9295
14.7402,12.9047
14.7360,12.8619
14.7360,11.2381
14.7507,11.0887
14.8088,10.8971
14.8136,10.8856
14.8120,10.8850
14.8363,10.8048
14.8267,10.7066
14.8134,10.6745
14.8136,10.6744
14.8088,10.6629
14.7507,10.4713
14.7360,10.3219
14.7360,8.6981
14.7507,8.5487
14.8088,8.3571
14.8136,8.3456
14.8120,8.3450
14.8363,8.2648
14.8267,8.1666
14.8134,8.1345
14.8136,8.1344
14.8088,8.1229
14.7507,7.9313
14.7360,7.7819
14.7360,6.8923
14.7167,6.7954
14.6619,6.7134
14.5798,6.6585
14.4830,6.6393
14.4796,6.6393
13.8789,6.6473
13.7823,6.6678
13.7481,6.6857
13.2744,6.9818
13.2535,7.0015
13.2296,7.0174
13.2179,7.0350
13.2025,7.0494
13.1907,7.0756
13.1748,7.0995
13.1706,7.1202
13.1620,7.1395
13.1555,7.1963
13.1555,7.3620
13.1748,7.4589
13.2296,7.5409
13.3117,7.5958
13.3425,7.6051
13.3424,7.6056
13.3543,7.6092
13.5459,7.6673
13.7225,7.7617
13.8773,7.8887
14.0043,8.0435
14.0987,8.2201
14.1568,8.4117
14.1715,8.5611
14.1715,10.4389
14.1568,10.5883
14.0987,10.7799
14.0043,10.9565
13.8773,11.1113
13.8636,11.1224
13.7555,11.2112
13.6929,11.2875
13.6642,11.3819
13.6630,11.4067
13.6630,11.7860
8.8370,11.7860
8.8370,11.4067
8.8177,11.3099
8.7629,11.2278
8.7445,11.2112
8.6227,11.1113
8.6227,11.1113
8.4957,10.9565
8.4013,10.7799
8.4013,10.7799
8.3432,10.5883
8.3285,10.4389
8.3285,8.5611
8.3432,8.4117
8.4013,8.2201
8.4013,8.2201
8.4522,8.1249
8.4957,8.0435
8.6227,7.8887
8.7775,7.7617
8.9541,7.6673
9.1457,7.6092
9.1576,7.6056
9.1570,7.6035
9.2320,7.5724
9.3019,7.5026
9.3396,7.4114
9.3445,7.3620
9.3445,6.0334
9.3413,5.9419
9.3445,5.9086
9.3445,5.8751
9.3559,5.7887
9.3564,5.7843
9.3652,5.6932
9.3727,5.6606
9.3743,5.6486
9.3743,5.6486
9.3771,5.6275
9.3771,5.6275
9.3996,5.5433
9.4018,5.5347
9.4214,5.4498
9.4288,5.4299
9.4331,5.4185
9.4418,5.3862
9.4768,5.3016
9.4783,5.2975
9.5088,5.2159
9.5088,5.2159
9.5188,5.1970
9.5188,5.1970
9.5245,5.1863
9.5373,5.1554
9.5831,5.0762
9.5852,5.0722
9.6261,4.9953
9.6261,4.9953
9.6385,4.9779
9.6516,4.9576
9.6622,4.9391
9.6622,4.9391
9.7180,4.8665
9.7711,4.7919
9.7939,4.7675
9.8143,4.7409
9.8790,4.6762
9.9415,4.6092
9.9673,4.5880
9.9909,4.5643
10.0267,4.5369
10.0600,4.5113
10.0600,4.5113
10.0635,4.5086
10.1342,4.4503
10.1625,4.4326
10.1891,4.4122
10.2646,4.3687
10.2721,4.3641
11.7566,3.4363
11.9716,3.3019
12.1517,3.1894
12.1680,3.1765
12.2576,3.1232
12.3460,3.0679
12.3523,3.0651
12.3767,3.0523
12.3827,3.0488
12.4760,3.0086
12.4809,3.0065
12.5733,2.9643
12.5799,2.9623
12.5931,2.9583
12.6121,2.9501
12.7125,2.9218
12.8121,2.8913
12.8189,2.8901
12.8459,2.8841
12.8525,2.8822
12.9557,2.8672
13.0585,2.8500
13.0792,2.8493
13.0997,2.8463
13.2039,2.8449
13.3081,2.8413
13.3288,2.8433
22.4726,2.7214
22.4918,2.7200
22.4918,2.7200
22.5001,2.7195
22.5001,2.7195
22.5001,2.7195
22.5060,2.7191
22.5060,2.7191
22.5068,2.7191
22.5069,2.7191
22.5127,2.7187
22.5127,2.7187
22.5127,2.7187
22.5127,2.7187
22.5511,2.7190
22.6160,2.7194
22.6211,2.7194
22.7245,2.7180
22.7245,2.7180
22.7245,2.7180
22.7271,2.7181
22.7405,2.7192
22.7462,2.7195
22.7499,2.7195
22.7518,2.7198
22.7608,2.7202
22.7613,2.7201
22.7707,2.7204
41.4170,2.8439
41.4393,2.8431
41.4685,2.8407
41.5530,2.8448
41.6375,2.8454
41.6776,2.8509
41.7180,2.8529
41.7959,2.8671
41.8065,2.8688
41.8849,2.8796
41.9131,2.8874
41.9350,2.8923
41.9637,2.8976
42.0443,2.9234
42.1258,2.9459
42.1630,2.9616
42.2016,2.9740
42.2780,3.0101
42.3559,3.0430
42.3908,3.0634
42.4274,3.0807
42.4940,3.1236
42.5031,3.1292
42.5679,3.1672
42.5714,3.1693
42.6033,3.1941
42.6373,3.2161
42.7018,3.2708
42.7686,3.3227
42.7891,3.3435
42.8055,3.3587
42.8278,3.3776
42.8810,3.4363
42.8846,3.4403
42.9440,3.5005
42.9684,3.5327
42.9760,3.5410
42.9760,3.5410
42.9956,3.5627
42.9956,3.5627
43.0407,3.6278
43.0469,3.6365
43.0540,3.6458
43.0948,3.6996
43.1092,3.7250
43.1211,3.7440
43.1585,3.7980
45.2901,6.8770
45.3378,6.9391
45.3611,6.9796
45.3878,7.0181
45.4235,7.0877
45.4627,7.1554
45.4806,7.1986
45.5019,7.2402
45.5283,7.3139
45.5582,7.3862
45.5704,7.4314
45.5861,7.4754
45.6013,7.5458
45.6042,7.5578
45.6081,7.5724
45.6229,7.6275
45.6290,7.6738
45.6389,7.7196
45.6453,7.7975
45.6555,7.8751
45.6555,7.9219
45.6593,7.9685
45.6555,8.0466
45.6555,8.1249
45.6494,8.1713
45.6471,8.2180
45.6331,8.2950
45.6229,8.3725
45.6135,8.4078
45.6128,8.4101
45.6106,8.4189
45.6024,8.4637
45.5853,8.5169
45.5835,8.5241
45.5824,8.5429
45.5755,8.5872
45.5755,8.8255
45.5948,8.9223
45.6496,9.0044
45.7317,9.0592
45.8285,9.0785
47.1489,9.0785
47.1489,9.0785
47.2983,9.0932
47.4066,9.1261
47.5048,9.1357
47.5534,9.1261
47.6617,9.0932
47.8111,9.0785
47.8111,9.0785
49.6889,9.0785
49.6889,9.0785
49.8383,9.0932
50.0299,9.1513
50.2065,9.2457
50.3613,9.3727
50.4883,9.5275
50.5827,9.7041
50.6408,9.8957
50.6555,10.0451
50.6555,13.9549
50.6437,14.0747
50.6534,14.1729
50.6999,14.2600
50.7762,14.3226
50.8707,14.3513
50.8955,14.3525
51.5663,14.3525
51.6632,14.3332
51.7452,14.2784
53.0284,12.9952
53.0832,12.9132
53.1025,12.8163
53.1025,11.8900
53.1369,11.6728
53.2049,11.4635
53.2049,11.4635
53.3047,11.2676
53.3048,11.2675
53.4340,11.0896
53.5896,10.9340
53.7123,10.8449
53.7676,10.8048
53.9635,10.7049
54.1728,10.6369
54.3900,10.6025
54.6100,10.6025
56.3177,10.6025
56.4145,10.5832
56.4966,10.5284
56.5514,10.4463
56.5707,10.3495
56.5694,10.3238
56.5670,10.3005
56.5670,10.2540
59.9970,10.2540
60.0938,10.2347
60.1759,10.1799
60.2307,10.0978
60.2500,10.0010
60.2500,9.9990
60.2307,9.9022
60.1759,9.8201
60.0938,9.7653
59.9970,9.7460
56.5670,9.7460
56.5670,9.6995
56.5736,9.6348
56.5643,9.5366
56.5181,9.4493
56.4420,9.3864
56.3837,9.3638
56.3300,9.3503
56.3300,9.3503
56.1225,9.2560
56.1224,9.2560
55.9351,9.1262
55.9350,9.1261
55.7739,8.9650
55.7738,8.9649
55.6440,8.7776
55.6440,8.7775
55.5497,8.5700
55.5497,8.5700
55.4940,8.3489
55.4940,8.3489
55.4835,8.2150
55.4835,6.9850
55.4940,6.8511
55.4940,6.8511
55.5497,6.6300
55.5497,6.6300
55.6440,6.4225
55.6440,6.4224
55.7619,6.2523
55.7738,6.2350
55.9350,6.0738
55.9935,6.0334
56.1224,5.9440
56.1224,5.9440
56.1224,5.9440
56.1225,5.9440
56.3300,5.8497
56.3300,5.8497
56.5511,5.7940
56.5511,5.7940
56.5511,5.7940
56.6741,5.7844
56.6850,5.7835
56.6850,5.7835
59.3150,5.7835
59.3259,5.7844
59.4489,5.7940
59.4489,5.7940
59.4489,5.7940
59.6700,5.8497
59.6700,5.8497
59.6700,5.8497
59.6700,5.8497
59.6700,5.8497
59.7657,5.8932
59.8776,5.9440
60.0649,6.0738
60.2262,6.2350
60.3560,6.4224
60.4190,6.5611
60.4503,6.6300
60.4503,6.6300
60.5060,6.8511
60.5060,6.8511
60.5060,6.8511
60.5165,6.9850
60.5165,8.2150
60.5161,8.2201
60.5145,8.2400
60.5060,8.3489
60.5060,8.3489
60.5060,8.3489
60.4503,8.5700
60.4503,8.5700
60.4210,8.6344
60.3985,8.7305
60.4145,8.8279
60.4665,8.9118
60.5467,8.9694
60.6429,8.9919
60.6514,8.9920
62.5050,8.9920
62.6018,8.9727
62.6839,8.9179
62.7387,8.8358
62.7580,8.7390
62.7574,8.1344
62.7531,4.0239
62.7338,3.9271
62.6788,3.8451
62.5967,3.7904
62.4999,3.7712
62.4031,3.7906
62.3882,3.7973
62.3867,3.7980
62.3867,3.7980
62.3867,3.7980
62.1444,3.8984
62.1444,3.8984
62.1444,3.8984
62.1444,3.8984
61.8911,3.9663
61.6311,4.0005
61.6311,4.0005
61.3689,4.0005
61.3689,4.0005
61.1089,3.9663
61.1089,3.9663
60.8556,3.8984
60.8556,3.8984
60.6133,3.7980
60.3862,3.6669
60.3862,3.6669
60.1781,3.5073
59.9927,3.3219
59.8331,3.1138
59.8331,3.1138
59.7020,2.8867
59.6016,2.6444
59.6016,2.6444
59.5337,2.3911
59.5337,2.3911
59.4995,2.1311
59.4995,1.8689
59.5337,1.6089
59.5337,1.6089
59.6016,1.3556
59.6016,1.3556
59.6034,1.3512
59.6039,1.3489
59.6043,1.3477
59.6041,1.3477
59.6227,1.2544
59.6034,1.1576
59.5486,1.0755
59.4665,1.0207
59.3697,1.0014
59.3696,1.0014
4.4076,1.0244
4.3108,1.0437
4.2288,1.0986
4.1740,1.1807
4.1547,1.2775
4.1740,1.3742
4.2254,1.4983
4.2960,1.7619
4.3316,2.0324
4.3316,2.3053
4.2960,2.5758
4.2943,2.5824
4.2254,2.8394
4.2254,2.8394
4.2254,2.8394
4.1210,3.0915
4.1210,3.0915
4.1210,3.0915
4.0156,3.2740
3.9845,3.3278
3.8184,3.5443
3.6255,3.7373
3.4090,3.9034
3.4090,3.9034
3.1727,4.0398
3.1727,4.0398
2.9206,4.1443
2.9205,4.1443
2.6570,4.2149
2.3864,4.2505
2.1136,4.2505
2.1136,4.2505
1.8430,4.2149
1.8430,4.2149
1.5795,4.1443
1.5794,4.1443
1.3728,4.0587
1.2760,4.0394
1.1792,4.0587
1.0971,4.1135
1.0422,4.1956
1.0230,4.2922
1.0162,12.0663
11.1865,12.0663
11.1865,12.0137
11.2237,11.9765
11.2763,11.9765
11.3135,12.0137
11.3135,12.0663
11.2763,12.1035
11.2237,12.1035
11.1865,12.0663
1.0162,12.0663
1.0029,27.3845
1.0221,27.4814
1.0769,27.5635
1.1589,27.6184
1.2557,27.6378
1.3525,27.6186
1.5794,27.5246
1.5795,27.5246
1.5795,27.5246
1.8430,27.4540
1.8430,27.4540
2.1136,27.4184
2.1136,27.4184
2.3864,27.4184
2.3864,27.4184
2.6570,27.4540
2.9206,27.5246
3.1727,27.6290
3.4090,27.7655
3.6255,27.9316
3.8184,28.1245
3.9845,28.3410
4.1210,28.5773
4.2254,28.8294
4.2254,28.8295
4.2960,29.0930
4.2960,29.0930
4.2960,29.0930
4.3316,29.3636
4.3316,29.6364
4.2960,29.9070
4.2943,29.9135
4.2254,30.1705
4.2254,30.1706
4.2254,30.1706
4.1518,30.3482
4.1240,30.4154
4.1047,30.5123
4.1240,30.6091
4.1788,30.6912
4.2609,30.7460
4.3565,30.7653
59.4816,31.0160
Z" /> 
</g>
<g style="fill:none; 
stroke:#FFFFFF; stroke-width:0.0500; stroke-opacity:1; 
stroke-linecap:round; stroke-linejoin:round;">
<circle cx="61.5000" cy="29.7500" r="1.5000" /> 
<circle cx="61.5000" cy="2.0000" r="1.5000" /> 
<circle cx="2.2500" cy="2.1689" r="1.5811" /> 
<path style="fill:none; 
stroke:#FFFFFF; stroke-width:0.0500; stroke-opacity:1; 
stroke-linecap:round; stroke-linejoin:round;fill:none"
d="M 63.5000,0.0000
0.0000,0.0000
0.0000,31.7500
63.5000,31.7500
Z" /> 
<circle cx="2.2500" cy="29.5000" r="1.5811" /> 
</g>
<g style="fill:#000000; fill-opacity:1.0000; stroke:none;">
<circle cx="43.6700" cy="12.0000" r="0.0635" /> 
</g>
<g style="fill:#000000; fill-opacity:1.0000; stroke:none;">
<circle cx="46.2100" cy="12.0000" r="0.0635" /> 
</g>
<g style="fill:#000000; fill-opacity:1.0000; stroke:none;">
<circle cx="48.7500" cy="12.0000" r="0.0635" /> 
</g>
<g style="fill:#000000; fill-opacity:1.0000; stroke:none;">
<circle cx="11.2500" cy="17.1200" r="0.0635" /> 
</g>
<g style="fill:#000000; fill-opacity:1.0000; stroke:none;">
<circle cx="11.2500" cy="14.5800" r="0.0635" /> 
</g>
<g style="fill:#000000; fill-opacity:1.0000; stroke:none;">
<circle cx="11.2500" cy="12.0400" r="0.0635" /> 
</g>
<g style="fill:#000000; fill-opacity:1.0000; stroke:none;">
<circle cx="11.2500" cy="9.5000" r="0.0635" /> 
</g>
<g style="fill:#000000; fill-opacity:1.0000; stroke:none;">
<circle cx="39.0000" cy="20.2100" r="0.0635" /> 
</g>
<g style="fill:#000000; fill-opacity:1.0000; stroke:none;">
<circle cx="39.0000" cy="22.7500" r="0.0635" /> 
</g>
<g style="fill:#000000; fill-opacity:1.0000; stroke:none;">
<circle cx="39.0000" cy="25.2900" r="0.0635" /> 
</g> 
</svg>
