<?xml version="1.0" standalone="no"?>
 <!DOCTYPE svg PUBLIC "-//W3C//DTD SVG 1.1//EN" 
 "http://www.w3.org/Graphics/SVG/1.1/DTD/svg11.dtd"> 
<svg
  xmlns:svg="http://www.w3.org/2000/svg"
  xmlns="http://www.w3.org/2000/svg"
  xmlns:xlink="http://www.w3.org/1999/xlink"
  version="1.1"
  width="63.5000mm" height="31.7500mm" viewBox="0.0000 0.0000 63.5000 31.7500">
<title>SVG Image created as mask-front.svg date 2025/11/12 19:34:41 </title>
  <desc>Image generated by PCBNEW </desc>
<g style="fill:#000000; fill-opacity:1.0000;stroke:#000000; stroke-opacity:1.0000;
stroke-linecap:round; stroke-linejoin:round;"
 transform="translate(0 0) scale(1 1)">
<path style="fill:#000000; fill-opacity:1.0000; stroke:none;fill-rule:evenodd;"
d="M 31.6205,7.7320
31.6283,7.7710
31.6504,7.8041
31.6835,7.8262
31.7225,7.8340
34.7475,7.8340
34.7865,7.8262
34.8196,7.8041
34.8417,7.7710
34.8495,7.7320
34.8495,6.2080
34.8417,6.1690
34.8196,6.1359
34.7865,6.1138
34.7475,6.1060
31.7225,6.1060
31.6835,6.1138
31.6504,6.1359
31.6283,6.1690
31.6205,6.2080
Z" /> 
<path style="fill:#000000; fill-opacity:1.0000; stroke:none;fill-rule:evenodd;"
d="M 31.6205,10.2720
31.6283,10.3110
31.6504,10.3441
31.6835,10.3662
31.7225,10.3740
34.7475,10.3740
34.7865,10.3662
34.8196,10.3441
34.8417,10.3110
34.8495,10.2720
34.8495,8.7480
34.8417,8.7090
34.8196,8.6759
34.7865,8.6538
34.7475,8.6460
31.7225,8.6460
31.6835,8.6538
31.6504,8.6759
31.6283,8.7090
31.6205,8.7480
Z" /> 
<path style="fill:#000000; fill-opacity:1.0000; stroke:none;fill-rule:evenodd;"
d="M 31.6205,12.8120
31.6283,12.8510
31.6504,12.8841
31.6835,12.9062
31.7225,12.9140
34.7475,12.9140
34.7865,12.9062
34.8196,12.8841
34.8417,12.8510
34.8495,12.8120
34.8495,11.2880
34.8417,11.2490
34.8196,11.2159
34.7865,11.1938
34.7475,11.1860
31.7225,11.1860
31.6835,11.1938
31.6504,11.2159
31.6283,11.2490
31.6205,11.2880
Z" /> 
<path style="fill:#000000; fill-opacity:1.0000; stroke:none;fill-rule:evenodd;"
d="M 31.6205,15.3520
31.6283,15.3910
31.6504,15.4241
31.6835,15.4462
31.7225,15.4540
34.7475,15.4540
34.7865,15.4462
34.8196,15.4241
34.8417,15.3910
34.8495,15.3520
34.8495,13.8280
34.8417,13.7890
34.8196,13.7559
34.7865,13.7338
34.7475,13.7260
31.7225,13.7260
31.6835,13.7338
31.6504,13.7559
31.6283,13.7890
31.6205,13.8280
Z" /> 
<path style="fill:#000000; fill-opacity:1.0000; stroke:none;fill-rule:evenodd;"
d="M 31.6205,20.4320
31.6283,20.4710
31.6504,20.5041
31.6835,20.5262
31.7225,20.5340
34.7475,20.5340
34.7865,20.5262
34.8196,20.5041
34.8417,20.4710
34.8495,20.4320
34.8495,18.9080
34.8417,18.8690
34.8196,18.8359
34.7865,18.8138
34.7475,18.8060
31.7225,18.8060
31.6835,18.8138
31.6504,18.8359
31.6283,18.8690
31.6205,18.9080
Z" /> 
<path style="fill:#000000; fill-opacity:1.0000; stroke:none;fill-rule:evenodd;"
d="M 31.6205,17.8920
31.6283,17.9310
31.6504,17.9641
31.6835,17.9862
31.7225,17.9940
34.7475,17.9940
34.7865,17.9862
34.8196,17.9641
34.8417,17.9310
34.8495,17.8920
34.8495,16.3680
34.8417,16.3290
34.8196,16.2959
34.7865,16.2738
34.7475,16.2660
31.7225,16.2660
31.6835,16.2738
31.6504,16.2959
31.6283,16.3290
31.6205,16.3680
Z" /> 
<path style="fill:#000000; fill-opacity:1.0000; stroke:none;fill-rule:evenodd;"
d="M 15.6505,25.5120
15.6583,25.5510
15.6804,25.5841
15.7135,25.6062
15.7525,25.6140
18.7775,25.6140
18.8165,25.6062
18.8496,25.5841
18.8717,25.5510
18.8795,25.5120
18.8795,23.9880
18.8717,23.9490
18.8496,23.9159
18.8165,23.8938
18.7775,23.8860
15.7525,23.8860
15.7135,23.8938
15.6804,23.9159
15.6583,23.9490
15.6505,23.9880
Z" /> 
<path style="fill:#000000; fill-opacity:1.0000; stroke:none;fill-rule:evenodd;"
d="M 31.6205,25.5120
31.6283,25.5510
31.6504,25.5841
31.6835,25.6062
31.7225,25.6140
34.7475,25.6140
34.7865,25.6062
34.8196,25.5841
34.8417,25.5510
34.8495,25.5120
34.8495,23.9880
34.8417,23.9490
34.8196,23.9159
34.7865,23.8938
34.7475,23.8860
31.7225,23.8860
31.6835,23.8938
31.6504,23.9159
31.6283,23.9490
31.6205,23.9880
Z" /> 
<path style="fill:#000000; fill-opacity:1.0000; stroke:none;fill-rule:evenodd;"
d="M 15.6505,22.9720
15.6583,23.0110
15.6804,23.0441
15.7135,23.0662
15.7525,23.0740
18.7775,23.0740
18.8165,23.0662
18.8496,23.0441
18.8717,23.0110
18.8795,22.9720
18.8795,21.4480
18.8717,21.4090
18.8496,21.3759
18.8165,21.3538
18.7775,21.3460
15.7525,21.3460
15.7135,21.3538
15.6804,21.3759
15.6583,21.4090
15.6505,21.4480
Z" /> 
<path style="fill:#000000; fill-opacity:1.0000; stroke:none;fill-rule:evenodd;"
d="M 15.6505,20.4320
15.6583,20.4710
15.6804,20.5041
15.7135,20.5262
15.7525,20.5340
18.7775,20.5340
18.8165,20.5262
18.8496,20.5041
18.8717,20.4710
18.8795,20.4320
18.8795,18.9080
18.8717,18.8690
18.8496,18.8359
18.8165,18.8138
18.7775,18.8060
15.7525,18.8060
15.7135,18.8138
15.6804,18.8359
15.6583,18.8690
15.6505,18.9080
Z" /> 
<path style="fill:#000000; fill-opacity:1.0000; stroke:none;fill-rule:evenodd;"
d="M 15.6505,17.8920
15.6583,17.9310
15.6804,17.9641
15.7135,17.9862
15.7525,17.9940
18.7775,17.9940
18.8165,17.9862
18.8496,17.9641
18.8717,17.9310
18.8795,17.8920
18.8795,16.3680
18.8717,16.3290
18.8496,16.2959
18.8165,16.2738
18.7775,16.2660
15.7525,16.2660
15.7135,16.2738
15.6804,16.2959
15.6583,16.3290
15.6505,16.3680
Z" /> 
<path style="fill:#000000; fill-opacity:1.0000; stroke:none;fill-rule:evenodd;"
d="M 15.6505,15.3520
15.6583,15.3910
15.6804,15.4241
15.7135,15.4462
15.7525,15.4540
18.7775,15.4540
18.8165,15.4462
18.8496,15.4241
18.8717,15.3910
18.8795,15.3520
18.8795,13.8280
18.8717,13.7890
18.8496,13.7559
18.8165,13.7338
18.7775,13.7260
15.7525,13.7260
15.7135,13.7338
15.6804,13.7559
15.6583,13.7890
15.6505,13.8280
Z" /> 
<path style="fill:#000000; fill-opacity:1.0000; stroke:none;fill-rule:evenodd;"
d="M 15.6505,12.8120
15.6583,12.8510
15.6804,12.8841
15.7135,12.9062
15.7525,12.9140
18.7775,12.9140
18.8165,12.9062
18.8496,12.8841
18.8717,12.8510
18.8795,12.8120
18.8795,11.2880
18.8717,11.2490
18.8496,11.2159
18.8165,11.1938
18.7775,11.1860
15.7525,11.1860
15.7135,11.1938
15.6804,11.2159
15.6583,11.2490
15.6505,11.2880
Z" /> 
<path style="fill:#000000; fill-opacity:1.0000; stroke:none;fill-rule:evenodd;"
d="M 15.6505,10.2720
15.6583,10.3110
15.6804,10.3441
15.7135,10.3662
15.7525,10.3740
18.7775,10.3740
18.8165,10.3662
18.8496,10.3441
18.8717,10.3110
18.8795,10.2720
18.8795,8.7480
18.8717,8.7090
18.8496,8.6759
18.8165,8.6538
18.7775,8.6460
15.7525,8.6460
15.7135,8.6538
15.6804,8.6759
15.6583,8.7090
15.6505,8.7480
Z" /> 
<path style="fill:#000000; fill-opacity:1.0000; stroke:none;fill-rule:evenodd;"
d="M 15.6505,7.7320
15.6583,7.7710
15.6804,7.8041
15.7135,7.8262
15.7525,7.8340
18.7775,7.8340
18.8165,7.8262
18.8496,7.8041
18.8717,7.7710
18.8795,7.7320
18.8795,6.2080
18.8717,6.1690
18.8496,6.1359
18.8165,6.1138
18.7775,6.1060
15.7525,6.1060
15.7135,6.1138
15.6804,6.1359
15.6583,6.1690
15.6505,6.2080
Z" /> 
<path style="fill:#000000; fill-opacity:1.0000; stroke:none;fill-rule:evenodd;"
d="M 31.6205,22.9720
31.6283,23.0110
31.6504,23.0441
31.6835,23.0662
31.7225,23.0740
34.7475,23.0740
34.7865,23.0662
34.8196,23.0441
34.8417,23.0110
34.8495,22.9720
34.8495,21.4480
34.8417,21.4090
34.8196,21.3759
34.7865,21.3538
34.7475,21.3460
31.7225,21.3460
31.6835,21.3538
31.6504,21.3759
31.6283,21.4090
31.6205,21.4480
Z" /> 
<path style="fill:#000000; fill-opacity:1.0000; stroke:none;fill-rule:evenodd;"
d="M 41.0490,7.8950
39.2710,7.8950
39.2710,11.7050
41.0490,11.7050
Z" /> 
<path style="fill:#000000; fill-opacity:1.0000; stroke:none;fill-rule:evenodd;"
d="M 43.5890,7.8950
41.8110,7.8950
41.8110,11.7050
43.5890,11.7050
Z" /> 
<path style="fill:#000000; fill-opacity:1.0000; stroke:none;fill-rule:evenodd;"
d="M 46.1290,7.8950
44.3510,7.8950
44.3510,11.7050
46.1290,11.7050
Z" /> 
<path style="fill:#000000; fill-opacity:1.0000; stroke:none;fill-rule:evenodd;"
d="M 53.2620,8.7083
53.2574,8.6852
53.2443,8.6657
53.2248,8.6526
53.2017,8.6480
51.7683,8.6480
51.7452,8.6526
51.7257,8.6657
51.7126,8.6852
51.7080,8.7083
51.7080,9.3917
51.7126,9.4148
51.7257,9.4343
51.7452,9.4474
51.7683,9.4520
53.2017,9.4520
53.2248,9.4474
53.2443,9.4343
53.2574,9.4148
53.2620,9.3917
Z" /> 
<path style="fill:#000000; fill-opacity:1.0000; stroke:none;fill-rule:evenodd;"
d="M 53.2620,9.6583
53.2574,9.6352
53.2443,9.6157
53.2248,9.6026
53.2017,9.5980
51.7683,9.5980
51.7452,9.6026
51.7257,9.6157
51.7126,9.6352
51.7080,9.6583
51.7080,10.3417
51.7126,10.3648
51.7257,10.3843
51.7452,10.3974
51.7683,10.4020
53.2017,10.4020
53.2248,10.3974
53.2443,10.3843
53.2574,10.3648
53.2620,10.3417
Z" /> 
<path style="fill:#000000; fill-opacity:1.0000; stroke:none;fill-rule:evenodd;"
d="M 53.2620,10.6083
53.2574,10.5852
53.2443,10.5657
53.2248,10.5526
53.2017,10.5480
51.7683,10.5480
51.7452,10.5526
51.7257,10.5657
51.7126,10.5852
51.7080,10.6083
51.7080,11.2917
51.7126,11.3148
51.7257,11.3343
51.7452,11.3474
51.7683,11.3520
53.2017,11.3520
53.2248,11.3474
53.2443,11.3343
53.2574,11.3148
53.2620,11.2917
Z" /> 
<path style="fill:#000000; fill-opacity:1.0000; stroke:none;fill-rule:evenodd;"
d="M 50.8920,10.6083
50.8874,10.5852
50.8743,10.5657
50.8548,10.5526
50.8317,10.5480
49.3983,10.5480
49.3752,10.5526
49.3557,10.5657
49.3426,10.5852
49.3380,10.6083
49.3380,11.2917
49.3426,11.3148
49.3557,11.3343
49.3752,11.3474
49.3983,11.3520
50.8317,11.3520
50.8548,11.3474
50.8743,11.3343
50.8874,11.3148
50.8920,11.2917
Z" /> 
<path style="fill:#000000; fill-opacity:1.0000; stroke:none;fill-rule:evenodd;"
d="M 50.8920,8.7083
50.8874,8.6852
50.8743,8.6657
50.8548,8.6526
50.8317,8.6480
49.3983,8.6480
49.3752,8.6526
49.3557,8.6657
49.3426,8.6852
49.3380,8.7083
49.3380,9.3917
49.3426,9.4148
49.3557,9.4343
49.3752,9.4474
49.3983,9.4520
50.8317,9.4520
50.8548,9.4474
50.8743,9.4343
50.8874,9.4148
50.8920,9.3917
Z" /> 
<path style="fill:#000000; fill-opacity:1.0000; stroke:none;fill-rule:evenodd;"
d="M 52.0750,6.8500
52.0921,6.9361
52.1409,7.0091
52.2139,7.0579
52.3000,7.0750
52.7500,7.0750
52.8361,7.0579
52.9091,7.0091
52.9579,6.9361
52.9750,6.8500
52.9750,6.3500
52.9579,6.2639
52.9091,6.1909
52.8361,6.1421
52.7500,6.1250
52.3000,6.1250
52.2139,6.1421
52.1409,6.1909
52.0921,6.2639
52.0750,6.3500
Z" /> 
<path style="fill:#000000; fill-opacity:1.0000; stroke:none;fill-rule:evenodd;"
d="M 53.6250,6.8500
53.6421,6.9361
53.6909,7.0091
53.7639,7.0579
53.8500,7.0750
54.3000,7.0750
54.3861,7.0579
54.4591,7.0091
54.5079,6.9361
54.5250,6.8500
54.5250,6.3500
54.5079,6.2639
54.4591,6.1909
54.3861,6.1421
54.3000,6.1250
53.8500,6.1250
53.7639,6.1421
53.6909,6.1909
53.6421,6.2639
53.6250,6.3500
Z" /> 
<path style="fill:#000000; fill-opacity:1.0000; stroke:none;fill-rule:evenodd;"
d="M 57.6500,19.7000
57.5543,19.7190
57.4732,19.7732
57.4190,19.8543
57.4000,19.9500
57.4000,20.4500
57.4190,20.5457
57.4732,20.6268
57.5543,20.6810
57.6500,20.7000
62.6500,20.7000
62.7457,20.6810
62.8268,20.6268
62.8810,20.5457
62.9000,20.4500
62.9000,19.9500
62.8810,19.8543
62.8268,19.7732
62.7457,19.7190
62.6500,19.7000
Z" /> 
<path style="fill:#000000; fill-opacity:1.0000; stroke:none;fill-rule:evenodd;"
d="M 57.6500,21.7000
57.5543,21.7190
57.4732,21.7732
57.4190,21.8543
57.4000,21.9500
57.4000,22.4500
57.4190,22.5457
57.4732,22.6268
57.5543,22.6810
57.6500,22.7000
62.6500,22.7000
62.7457,22.6810
62.8268,22.6268
62.8810,22.5457
62.9000,22.4500
62.9000,21.9500
62.8810,21.8543
62.8268,21.7732
62.7457,21.7190
62.6500,21.7000
Z" /> 
<path style="fill:#000000; fill-opacity:1.0000; stroke:none;fill-rule:evenodd;"
d="M 57.6500,23.7000
57.5543,23.7190
57.4732,23.7732
57.4190,23.8543
57.4000,23.9500
57.4000,24.4500
57.4190,24.5457
57.4732,24.6268
57.5543,24.6810
57.6500,24.7000
62.6500,24.7000
62.7457,24.6810
62.8268,24.6268
62.8810,24.5457
62.9000,24.4500
62.9000,23.9500
62.8810,23.8543
62.8268,23.7732
62.7457,23.7190
62.6500,23.7000
Z" /> 
<path style="fill:#000000; fill-opacity:1.0000; stroke:none;fill-rule:evenodd;"
d="M 56.6500,17.0000
56.5543,17.0190
56.4732,17.0732
56.4190,17.1543
56.4000,17.2500
56.4000,18.3500
56.4190,18.4457
56.4732,18.5268
56.5543,18.5810
56.6500,18.6000
59.1500,18.6000
59.2457,18.5810
59.3268,18.5268
59.3810,18.4457
59.4000,18.3500
59.4000,17.2500
59.3810,17.1543
59.3268,17.0732
59.2457,17.0190
59.1500,17.0000
Z" /> 
<path style="fill:#000000; fill-opacity:1.0000; stroke:none;fill-rule:evenodd;"
d="M 56.6500,25.8000
56.5543,25.8190
56.4732,25.8732
56.4190,25.9543
56.4000,26.0500
56.4000,27.1500
56.4190,27.2457
56.4732,27.3268
56.5543,27.3810
56.6500,27.4000
59.1500,27.4000
59.2457,27.3810
59.3268,27.3268
59.3810,27.2457
59.4000,27.1500
59.4000,26.0500
59.3810,25.9543
59.3268,25.8732
59.2457,25.8190
59.1500,25.8000
Z" /> 
<path style="fill:#000000; fill-opacity:1.0000; stroke:none;fill-rule:evenodd;"
d="M 44.1900,5.4500
45.8900,5.4500
45.8900,3.7500
44.1900,3.7500
Z" /> 
</g>
<g style="fill:#000000; fill-opacity:1.0000; stroke:none;">
<circle cx="42.5000" cy="4.6000" r="0.8500" /> 
</g>
<g style="fill:#000000; fill-opacity:1.0000; stroke:none;">
<circle cx="39.9600" cy="4.6000" r="0.8500" /> 
<path style="fill:#000000; fill-opacity:1.0000; stroke:none;fill-rule:evenodd;"
d="M 57.3250,9.5000
57.2293,9.5190
57.1482,9.5732
57.0940,9.6543
57.0750,9.7500
57.0750,10.2500
57.0940,10.3457
57.1482,10.4268
57.2293,10.4810
57.3250,10.5000
63.1750,10.5000
63.2707,10.4810
63.3518,10.4268
63.4060,10.3457
63.4250,10.2500
63.4250,9.7500
63.4060,9.6543
63.3518,9.5732
63.2707,9.5190
63.1750,9.5000
Z" /> 
<path style="fill:#000000; fill-opacity:1.0000; stroke:none;fill-rule:evenodd;"
d="M 57.3250,11.5000
57.2293,11.5190
57.1482,11.5732
57.0940,11.6543
57.0750,11.7500
57.0750,12.2500
57.0940,12.3457
57.1482,12.4268
57.2293,12.4810
57.3250,12.5000
63.1750,12.5000
63.2707,12.4810
63.3518,12.4268
63.4060,12.3457
63.4250,12.2500
63.4250,11.7500
63.4060,11.6543
63.3518,11.5732
63.2707,11.5190
63.1750,11.5000
Z" /> 
<path style="fill:#000000; fill-opacity:1.0000; stroke:none;fill-rule:evenodd;"
d="M 56.7500,6.8000
56.6543,6.8190
56.5732,6.8732
56.5190,6.9543
56.5000,7.0500
56.5000,8.1500
56.5190,8.2457
56.5732,8.3268
56.6543,8.3810
56.7500,8.4000
59.2500,8.4000
59.3457,8.3810
59.4268,8.3268
59.4810,8.2457
59.5000,8.1500
59.5000,7.0500
59.4810,6.9543
59.4268,6.8732
59.3457,6.8190
59.2500,6.8000
Z" /> 
<path style="fill:#000000; fill-opacity:1.0000; stroke:none;fill-rule:evenodd;"
d="M 56.7500,13.6000
56.6543,13.6190
56.5732,13.6732
56.5190,13.7543
56.5000,13.8500
56.5000,14.9500
56.5190,15.0457
56.5732,15.1268
56.6543,15.1810
56.7500,15.2000
59.2500,15.2000
59.3457,15.1810
59.4268,15.1268
59.4810,15.0457
59.5000,14.9500
59.5000,13.8500
59.4810,13.7543
59.4268,13.6732
59.3457,13.6190
59.2500,13.6000
Z" /> 
<path style="fill:#000000; fill-opacity:1.0000; stroke:none;fill-rule:evenodd;"
d="M 9.3450,16.2310
9.3450,18.0090
13.1550,18.0090
13.1550,16.2310
Z" /> 
<path style="fill:#000000; fill-opacity:1.0000; stroke:none;fill-rule:evenodd;"
d="M 9.3450,13.6910
9.3450,15.4690
13.1550,15.4690
13.1550,13.6910
Z" /> 
<path style="fill:#000000; fill-opacity:1.0000; stroke:none;fill-rule:evenodd;"
d="M 9.3450,11.1510
9.3450,12.9290
13.1550,12.9290
13.1550,11.1510
Z" /> 
<path style="fill:#000000; fill-opacity:1.0000; stroke:none;fill-rule:evenodd;"
d="M 9.3450,8.6110
9.3450,10.3890
13.1550,10.3890
13.1550,8.6110
Z" /> 
<path style="fill:#000000; fill-opacity:1.0000; stroke:none;fill-rule:evenodd;"
d="M 52.0750,3.4500
52.0921,3.5361
52.1409,3.6091
52.2139,3.6579
52.3000,3.6750
52.7500,3.6750
52.8361,3.6579
52.9091,3.6091
52.9579,3.5361
52.9750,3.4500
52.9750,2.9500
52.9579,2.8639
52.9091,2.7909
52.8361,2.7421
52.7500,2.7250
52.3000,2.7250
52.2139,2.7421
52.1409,2.7909
52.0921,2.8639
52.0750,2.9500
Z" /> 
<path style="fill:#000000; fill-opacity:1.0000; stroke:none;fill-rule:evenodd;"
d="M 53.6250,3.4500
53.6421,3.5361
53.6909,3.6091
53.7639,3.6579
53.8500,3.6750
54.3000,3.6750
54.3861,3.6579
54.4591,3.6091
54.5079,3.5361
54.5250,3.4500
54.5250,2.9500
54.5079,2.8639
54.4591,2.7909
54.3861,2.7421
54.3000,2.7250
53.8500,2.7250
53.7639,2.7421
53.6909,2.7909
53.6421,2.8639
53.6250,2.9500
Z" /> 
<path style="fill:#000000; fill-opacity:1.0000; stroke:none;fill-rule:evenodd;"
d="M 40.9050,21.0990
40.9050,19.3210
37.0950,19.3210
37.0950,21.0990
Z" /> 
<path style="fill:#000000; fill-opacity:1.0000; stroke:none;fill-rule:evenodd;"
d="M 40.9050,23.6390
40.9050,21.8610
37.0950,21.8610
37.0950,23.6390
Z" /> 
<path style="fill:#000000; fill-opacity:1.0000; stroke:none;fill-rule:evenodd;"
d="M 40.9050,26.1790
40.9050,24.4010
37.0950,24.4010
37.0950,26.1790
Z" /> 
</g>
<g style="fill:none; 
stroke:#000000; stroke-width:0.0500; stroke-opacity:1; 
stroke-linecap:round; stroke-linejoin:round;">
<circle cx="61.5000" cy="29.7500" r="1.5000" /> 
<circle cx="61.5000" cy="2.0000" r="1.5000" /> 
<circle cx="2.2500" cy="2.1689" r="1.5811" /> 
<path style="fill:none; 
stroke:#000000; stroke-width:0.0500; stroke-opacity:1; 
stroke-linecap:round; stroke-linejoin:round;fill:none"
d="M 63.5000,0.0000
0.0000,0.0000
0.0000,31.7500
63.5000,31.7500
Z" /> 
<circle cx="2.2500" cy="29.5000" r="1.5811" /> 
</g>
<g style="fill:#FFFFFF; fill-opacity:1.0000; stroke:none;">
<circle cx="40.1600" cy="9.8000" r="0.0635" /> 
</g>
<g style="fill:#FFFFFF; fill-opacity:1.0000; stroke:none;">
<circle cx="42.7000" cy="9.8000" r="0.0635" /> 
</g>
<g style="fill:#FFFFFF; fill-opacity:1.0000; stroke:none;">
<circle cx="45.2400" cy="9.8000" r="0.0635" /> 
</g>
<g style="fill:#FFFFFF; fill-opacity:1.0000; stroke:none;">
<circle cx="45.0400" cy="4.6000" r="0.5000" /> 
</g>
<g style="fill:#FFFFFF; fill-opacity:1.0000; stroke:none;">
<circle cx="42.5000" cy="4.6000" r="0.5000" /> 
</g>
<g style="fill:#FFFFFF; fill-opacity:1.0000; stroke:none;">
<circle cx="39.9600" cy="4.6000" r="0.5000" /> 
</g>
<g style="fill:#FFFFFF; fill-opacity:1.0000; stroke:none;">
<circle cx="11.2500" cy="17.1200" r="0.0635" /> 
</g>
<g style="fill:#FFFFFF; fill-opacity:1.0000; stroke:none;">
<circle cx="11.2500" cy="14.5800" r="0.0635" /> 
</g>
<g style="fill:#FFFFFF; fill-opacity:1.0000; stroke:none;">
<circle cx="11.2500" cy="12.0400" r="0.0635" /> 
</g>
<g style="fill:#FFFFFF; fill-opacity:1.0000; stroke:none;">
<circle cx="11.2500" cy="9.5000" r="0.0635" /> 
</g>
<g style="fill:#FFFFFF; fill-opacity:1.0000; stroke:none;">
<circle cx="39.0000" cy="20.2100" r="0.0635" /> 
</g>
<g style="fill:#FFFFFF; fill-opacity:1.0000; stroke:none;">
<circle cx="39.0000" cy="22.7500" r="0.0635" /> 
</g>
<g style="fill:#FFFFFF; fill-opacity:1.0000; stroke:none;">
<circle cx="39.0000" cy="25.2900" r="0.0635" /> 
</g> 
</svg>
