<?xml version="1.0" standalone="no"?>
 <!DOCTYPE svg PUBLIC "-//W3C//DTD SVG 1.1//EN" 
 "http://www.w3.org/Graphics/SVG/1.1/DTD/svg11.dtd"> 
<svg
  xmlns:svg="http://www.w3.org/2000/svg"
  xmlns="http://www.w3.org/2000/svg"
  xmlns:xlink="http://www.w3.org/1999/xlink"
  version="1.1"
  width="63.5000mm" height="31.7500mm" viewBox="0.0000 0.0000 63.5000 31.7500">
<title>SVG Image created as mask-back.svg date 2025/11/12 16:54:17 </title>
  <desc>Image generated by PCBNEW </desc>
<g style="fill:#000000; fill-opacity:1.0000;stroke:#000000; stroke-opacity:1.0000;
stroke-linecap:round; stroke-linejoin:round;"
 transform="translate(0 0) scale(1 1)">
<path style="fill:#000000; fill-opacity:1.0000; stroke:none;fill-rule:evenodd;"
d="M 20.7910,6.0950
22.5690,6.0950
22.5690,9.9050
20.7910,9.9050
Z" /> 
<path style="fill:#000000; fill-opacity:1.0000; stroke:none;fill-rule:evenodd;"
d="M 18.2510,6.0950
20.0290,6.0950
20.0290,9.9050
18.2510,9.9050
Z" /> 
<path style="fill:#000000; fill-opacity:1.0000; stroke:none;fill-rule:evenodd;"
d="M 15.7110,6.0950
17.4890,6.0950
17.4890,9.9050
15.7110,9.9050
Z" /> 
<path style="fill:#000000; fill-opacity:1.0000; stroke:none;fill-rule:evenodd;"
d="M 54.1550,16.2310
54.1550,18.0090
50.3450,18.0090
50.3450,16.2310
Z" /> 
<path style="fill:#000000; fill-opacity:1.0000; stroke:none;fill-rule:evenodd;"
d="M 54.1550,13.6910
54.1550,15.4690
50.3450,15.4690
50.3450,13.6910
Z" /> 
<path style="fill:#000000; fill-opacity:1.0000; stroke:none;fill-rule:evenodd;"
d="M 54.1550,11.1510
54.1550,12.9290
50.3450,12.9290
50.3450,11.1510
Z" /> 
<path style="fill:#000000; fill-opacity:1.0000; stroke:none;fill-rule:evenodd;"
d="M 54.1550,8.6110
54.1550,10.3890
50.3450,10.3890
50.3450,8.6110
Z" /> 
<path style="fill:#000000; fill-opacity:1.0000; stroke:none;fill-rule:evenodd;"
d="M 22.5950,21.0990
22.5950,19.3210
26.4050,19.3210
26.4050,21.0990
Z" /> 
<path style="fill:#000000; fill-opacity:1.0000; stroke:none;fill-rule:evenodd;"
d="M 22.5950,23.6390
22.5950,21.8610
26.4050,21.8610
26.4050,23.6390
Z" /> 
<path style="fill:#000000; fill-opacity:1.0000; stroke:none;fill-rule:evenodd;"
d="M 22.5950,26.1790
22.5950,24.4010
26.4050,24.4010
26.4050,26.1790
Z" /> 
</g>
<g style="fill:none; 
stroke:#000000; stroke-width:0.0500; stroke-opacity:1; 
stroke-linecap:round; stroke-linejoin:round;">
<circle cx="2.0000" cy="29.7500" r="1.5000" /> 
<circle cx="2.0000" cy="2.0000" r="1.5000" /> 
<circle cx="61.2500" cy="2.1689" r="1.5811" /> 
<path style="fill:none; 
stroke:#000000; stroke-width:0.0500; stroke-opacity:1; 
stroke-linecap:round; stroke-linejoin:round;fill:none"
d="M 0.0000,0.0000
63.5000,0.0000
63.5000,31.7500
0.0000,31.7500
Z" /> 
<circle cx="61.2500" cy="29.5000" r="1.5811" /> 
</g>
<g style="fill:#FFFFFF; fill-opacity:1.0000; stroke:none;">
<circle cx="21.6800" cy="8.0000" r="0.0635" /> 
</g>
<g style="fill:#FFFFFF; fill-opacity:1.0000; stroke:none;">
<circle cx="19.1400" cy="8.0000" r="0.0635" /> 
</g>
<g style="fill:#FFFFFF; fill-opacity:1.0000; stroke:none;">
<circle cx="16.6000" cy="8.0000" r="0.0635" /> 
</g>
<g style="fill:#FFFFFF; fill-opacity:1.0000; stroke:none;">
<circle cx="52.2500" cy="17.1200" r="0.0635" /> 
</g>
<g style="fill:#FFFFFF; fill-opacity:1.0000; stroke:none;">
<circle cx="52.2500" cy="14.5800" r="0.0635" /> 
</g>
<g style="fill:#FFFFFF; fill-opacity:1.0000; stroke:none;">
<circle cx="52.2500" cy="12.0400" r="0.0635" /> 
</g>
<g style="fill:#FFFFFF; fill-opacity:1.0000; stroke:none;">
<circle cx="52.2500" cy="9.5000" r="0.0635" /> 
</g>
<g style="fill:#FFFFFF; fill-opacity:1.0000; stroke:none;">
<circle cx="24.5000" cy="20.2100" r="0.0635" /> 
</g>
<g style="fill:#FFFFFF; fill-opacity:1.0000; stroke:none;">
<circle cx="24.5000" cy="22.7500" r="0.0635" /> 
</g>
<g style="fill:#FFFFFF; fill-opacity:1.0000; stroke:none;">
<circle cx="24.5000" cy="25.2900" r="0.0635" /> 
</g> 
</svg>
