<?xml version="1.0" standalone="no"?>
 <!DOCTYPE svg PUBLIC "-//W3C//DTD SVG 1.1//EN" 
 "http://www.w3.org/Graphics/SVG/1.1/DTD/svg11.dtd"> 
<svg
  xmlns:svg="http://www.w3.org/2000/svg"
  xmlns="http://www.w3.org/2000/svg"
  xmlns:xlink="http://www.w3.org/1999/xlink"
  version="1.1"
  width="63.5000mm" height="31.7500mm" viewBox="0.0000 0.0000 63.5000 31.7500">
<title>SVG Image created as mask-front.svg date 2025/11/13 19:33:25 </title>
  <desc>Image generated by PCBNEW </desc>
<g style="fill:#000000; fill-opacity:1.0000;stroke:#000000; stroke-opacity:1.0000;
stroke-linecap:round; stroke-linejoin:round;"
 transform="translate(0 0) scale(1 1)">
<path style="fill:#000000; fill-opacity:1.0000; stroke:none;fill-rule:evenodd;"
d="M 31.8795,7.7320
31.8717,7.7710
31.8496,7.8041
31.8165,7.8262
31.7775,7.8340
28.7525,7.8340
28.7135,7.8262
28.6804,7.8041
28.6583,7.7710
28.6505,7.7320
28.6505,6.2080
28.6583,6.1690
28.6804,6.1359
28.7135,6.1138
28.7525,6.1060
31.7775,6.1060
31.8165,6.1138
31.8496,6.1359
31.8717,6.1690
31.8795,6.2080
Z" /> 
<path style="fill:#000000; fill-opacity:1.0000; stroke:none;fill-rule:evenodd;"
d="M 31.8795,10.2720
31.8717,10.3110
31.8496,10.3441
31.8165,10.3662
31.7775,10.3740
28.7525,10.3740
28.7135,10.3662
28.6804,10.3441
28.6583,10.3110
28.6505,10.2720
28.6505,8.7480
28.6583,8.7090
28.6804,8.6759
28.7135,8.6538
28.7525,8.6460
31.7775,8.6460
31.8165,8.6538
31.8496,8.6759
31.8717,8.7090
31.8795,8.7480
Z" /> 
<path style="fill:#000000; fill-opacity:1.0000; stroke:none;fill-rule:evenodd;"
d="M 31.8795,12.8120
31.8717,12.8510
31.8496,12.8841
31.8165,12.9062
31.7775,12.9140
28.7525,12.9140
28.7135,12.9062
28.6804,12.8841
28.6583,12.8510
28.6505,12.8120
28.6505,11.2880
28.6583,11.2490
28.6804,11.2159
28.7135,11.1938
28.7525,11.1860
31.7775,11.1860
31.8165,11.1938
31.8496,11.2159
31.8717,11.2490
31.8795,11.2880
Z" /> 
<path style="fill:#000000; fill-opacity:1.0000; stroke:none;fill-rule:evenodd;"
d="M 31.8795,15.3520
31.8717,15.3910
31.8496,15.4241
31.8165,15.4462
31.7775,15.4540
28.7525,15.4540
28.7135,15.4462
28.6804,15.4241
28.6583,15.3910
28.6505,15.3520
28.6505,13.8280
28.6583,13.7890
28.6804,13.7559
28.7135,13.7338
28.7525,13.7260
31.7775,13.7260
31.8165,13.7338
31.8496,13.7559
31.8717,13.7890
31.8795,13.8280
Z" /> 
<path style="fill:#000000; fill-opacity:1.0000; stroke:none;fill-rule:evenodd;"
d="M 31.8795,20.4320
31.8717,20.4710
31.8496,20.5041
31.8165,20.5262
31.7775,20.5340
28.7525,20.5340
28.7135,20.5262
28.6804,20.5041
28.6583,20.4710
28.6505,20.4320
28.6505,18.9080
28.6583,18.8690
28.6804,18.8359
28.7135,18.8138
28.7525,18.8060
31.7775,18.8060
31.8165,18.8138
31.8496,18.8359
31.8717,18.8690
31.8795,18.9080
Z" /> 
<path style="fill:#000000; fill-opacity:1.0000; stroke:none;fill-rule:evenodd;"
d="M 31.8795,17.8920
31.8717,17.9310
31.8496,17.9641
31.8165,17.9862
31.7775,17.9940
28.7525,17.9940
28.7135,17.9862
28.6804,17.9641
28.6583,17.9310
28.6505,17.8920
28.6505,16.3680
28.6583,16.3290
28.6804,16.2959
28.7135,16.2738
28.7525,16.2660
31.7775,16.2660
31.8165,16.2738
31.8496,16.2959
31.8717,16.3290
31.8795,16.3680
Z" /> 
<path style="fill:#000000; fill-opacity:1.0000; stroke:none;fill-rule:evenodd;"
d="M 47.8495,25.5120
47.8417,25.5510
47.8196,25.5841
47.7865,25.6062
47.7475,25.6140
44.7225,25.6140
44.6835,25.6062
44.6504,25.5841
44.6283,25.5510
44.6205,25.5120
44.6205,23.9880
44.6283,23.9490
44.6504,23.9159
44.6835,23.8938
44.7225,23.8860
47.7475,23.8860
47.7865,23.8938
47.8196,23.9159
47.8417,23.9490
47.8495,23.9880
Z" /> 
<path style="fill:#000000; fill-opacity:1.0000; stroke:none;fill-rule:evenodd;"
d="M 31.8795,25.5120
31.8717,25.5510
31.8496,25.5841
31.8165,25.6062
31.7775,25.6140
28.7525,25.6140
28.7135,25.6062
28.6804,25.5841
28.6583,25.5510
28.6505,25.5120
28.6505,23.9880
28.6583,23.9490
28.6804,23.9159
28.7135,23.8938
28.7525,23.8860
31.7775,23.8860
31.8165,23.8938
31.8496,23.9159
31.8717,23.9490
31.8795,23.9880
Z" /> 
<path style="fill:#000000; fill-opacity:1.0000; stroke:none;fill-rule:evenodd;"
d="M 47.8495,22.9720
47.8417,23.0110
47.8196,23.0441
47.7865,23.0662
47.7475,23.0740
44.7225,23.0740
44.6835,23.0662
44.6504,23.0441
44.6283,23.0110
44.6205,22.9720
44.6205,21.4480
44.6283,21.4090
44.6504,21.3759
44.6835,21.3538
44.7225,21.3460
47.7475,21.3460
47.7865,21.3538
47.8196,21.3759
47.8417,21.4090
47.8495,21.4480
Z" /> 
<path style="fill:#000000; fill-opacity:1.0000; stroke:none;fill-rule:evenodd;"
d="M 47.8495,20.4320
47.8417,20.4710
47.8196,20.5041
47.7865,20.5262
47.7475,20.5340
44.7225,20.5340
44.6835,20.5262
44.6504,20.5041
44.6283,20.4710
44.6205,20.4320
44.6205,18.9080
44.6283,18.8690
44.6504,18.8359
44.6835,18.8138
44.7225,18.8060
47.7475,18.8060
47.7865,18.8138
47.8196,18.8359
47.8417,18.8690
47.8495,18.9080
Z" /> 
<path style="fill:#000000; fill-opacity:1.0000; stroke:none;fill-rule:evenodd;"
d="M 47.8495,17.8920
47.8417,17.9310
47.8196,17.9641
47.7865,17.9862
47.7475,17.9940
44.7225,17.9940
44.6835,17.9862
44.6504,17.9641
44.6283,17.9310
44.6205,17.8920
44.6205,16.3680
44.6283,16.3290
44.6504,16.2959
44.6835,16.2738
44.7225,16.2660
47.7475,16.2660
47.7865,16.2738
47.8196,16.2959
47.8417,16.3290
47.8495,16.3680
Z" /> 
<path style="fill:#000000; fill-opacity:1.0000; stroke:none;fill-rule:evenodd;"
d="M 47.8495,15.3520
47.8417,15.3910
47.8196,15.4241
47.7865,15.4462
47.7475,15.4540
44.7225,15.4540
44.6835,15.4462
44.6504,15.4241
44.6283,15.3910
44.6205,15.3520
44.6205,13.8280
44.6283,13.7890
44.6504,13.7559
44.6835,13.7338
44.7225,13.7260
47.7475,13.7260
47.7865,13.7338
47.8196,13.7559
47.8417,13.7890
47.8495,13.8280
Z" /> 
<path style="fill:#000000; fill-opacity:1.0000; stroke:none;fill-rule:evenodd;"
d="M 47.8495,12.8120
47.8417,12.8510
47.8196,12.8841
47.7865,12.9062
47.7475,12.9140
44.7225,12.9140
44.6835,12.9062
44.6504,12.8841
44.6283,12.8510
44.6205,12.8120
44.6205,11.2880
44.6283,11.2490
44.6504,11.2159
44.6835,11.1938
44.7225,11.1860
47.7475,11.1860
47.7865,11.1938
47.8196,11.2159
47.8417,11.2490
47.8495,11.2880
Z" /> 
<path style="fill:#000000; fill-opacity:1.0000; stroke:none;fill-rule:evenodd;"
d="M 47.8495,10.2720
47.8417,10.3110
47.8196,10.3441
47.7865,10.3662
47.7475,10.3740
44.7225,10.3740
44.6835,10.3662
44.6504,10.3441
44.6283,10.3110
44.6205,10.2720
44.6205,8.7480
44.6283,8.7090
44.6504,8.6759
44.6835,8.6538
44.7225,8.6460
47.7475,8.6460
47.7865,8.6538
47.8196,8.6759
47.8417,8.7090
47.8495,8.7480
Z" /> 
<path style="fill:#000000; fill-opacity:1.0000; stroke:none;fill-rule:evenodd;"
d="M 47.8495,7.7320
47.8417,7.7710
47.8196,7.8041
47.7865,7.8262
47.7475,7.8340
44.7225,7.8340
44.6835,7.8262
44.6504,7.8041
44.6283,7.7710
44.6205,7.7320
44.6205,6.2080
44.6283,6.1690
44.6504,6.1359
44.6835,6.1138
44.7225,6.1060
47.7475,6.1060
47.7865,6.1138
47.8196,6.1359
47.8417,6.1690
47.8495,6.2080
Z" /> 
<path style="fill:#000000; fill-opacity:1.0000; stroke:none;fill-rule:evenodd;"
d="M 31.8795,22.9720
31.8717,23.0110
31.8496,23.0441
31.8165,23.0662
31.7775,23.0740
28.7525,23.0740
28.7135,23.0662
28.6804,23.0441
28.6583,23.0110
28.6505,22.9720
28.6505,21.4480
28.6583,21.4090
28.6804,21.3759
28.7135,21.3538
28.7525,21.3460
31.7775,21.3460
31.8165,21.3538
31.8496,21.3759
31.8717,21.4090
31.8795,21.4480
Z" /> 
<path style="fill:#000000; fill-opacity:1.0000; stroke:none;fill-rule:evenodd;"
d="M 22.4510,7.8950
24.2290,7.8950
24.2290,11.7050
22.4510,11.7050
Z" /> 
<path style="fill:#000000; fill-opacity:1.0000; stroke:none;fill-rule:evenodd;"
d="M 19.9110,7.8950
21.6890,7.8950
21.6890,11.7050
19.9110,11.7050
Z" /> 
<path style="fill:#000000; fill-opacity:1.0000; stroke:none;fill-rule:evenodd;"
d="M 17.3710,7.8950
19.1490,7.8950
19.1490,11.7050
17.3710,11.7050
Z" /> 
<path style="fill:#000000; fill-opacity:1.0000; stroke:none;fill-rule:evenodd;"
d="M 10.2380,8.7083
10.2426,8.6852
10.2557,8.6657
10.2752,8.6526
10.2983,8.6480
11.7317,8.6480
11.7548,8.6526
11.7743,8.6657
11.7874,8.6852
11.7920,8.7083
11.7920,9.3917
11.7874,9.4148
11.7743,9.4343
11.7548,9.4474
11.7317,9.4520
10.2983,9.4520
10.2752,9.4474
10.2557,9.4343
10.2426,9.4148
10.2380,9.3917
Z" /> 
<path style="fill:#000000; fill-opacity:1.0000; stroke:none;fill-rule:evenodd;"
d="M 10.2380,9.6583
10.2426,9.6352
10.2557,9.6157
10.2752,9.6026
10.2983,9.5980
11.7317,9.5980
11.7548,9.6026
11.7743,9.6157
11.7874,9.6352
11.7920,9.6583
11.7920,10.3417
11.7874,10.3648
11.7743,10.3843
11.7548,10.3974
11.7317,10.4020
10.2983,10.4020
10.2752,10.3974
10.2557,10.3843
10.2426,10.3648
10.2380,10.3417
Z" /> 
<path style="fill:#000000; fill-opacity:1.0000; stroke:none;fill-rule:evenodd;"
d="M 10.2380,10.6083
10.2426,10.5852
10.2557,10.5657
10.2752,10.5526
10.2983,10.5480
11.7317,10.5480
11.7548,10.5526
11.7743,10.5657
11.7874,10.5852
11.7920,10.6083
11.7920,11.2917
11.7874,11.3148
11.7743,11.3343
11.7548,11.3474
11.7317,11.3520
10.2983,11.3520
10.2752,11.3474
10.2557,11.3343
10.2426,11.3148
10.2380,11.2917
Z" /> 
<path style="fill:#000000; fill-opacity:1.0000; stroke:none;fill-rule:evenodd;"
d="M 12.6080,10.6083
12.6126,10.5852
12.6257,10.5657
12.6452,10.5526
12.6683,10.5480
14.1017,10.5480
14.1248,10.5526
14.1443,10.5657
14.1574,10.5852
14.1620,10.6083
14.1620,11.2917
14.1574,11.3148
14.1443,11.3343
14.1248,11.3474
14.1017,11.3520
12.6683,11.3520
12.6452,11.3474
12.6257,11.3343
12.6126,11.3148
12.6080,11.2917
Z" /> 
<path style="fill:#000000; fill-opacity:1.0000; stroke:none;fill-rule:evenodd;"
d="M 12.6080,8.7083
12.6126,8.6852
12.6257,8.6657
12.6452,8.6526
12.6683,8.6480
14.1017,8.6480
14.1248,8.6526
14.1443,8.6657
14.1574,8.6852
14.1620,8.7083
14.1620,9.3917
14.1574,9.4148
14.1443,9.4343
14.1248,9.4474
14.1017,9.4520
12.6683,9.4520
12.6452,9.4474
12.6257,9.4343
12.6126,9.4148
12.6080,9.3917
Z" /> 
<path style="fill:#000000; fill-opacity:1.0000; stroke:none;fill-rule:evenodd;"
d="M 11.4250,6.8500
11.4079,6.9361
11.3591,7.0091
11.2861,7.0579
11.2000,7.0750
10.7500,7.0750
10.6639,7.0579
10.5909,7.0091
10.5421,6.9361
10.5250,6.8500
10.5250,6.3500
10.5421,6.2639
10.5909,6.1909
10.6639,6.1421
10.7500,6.1250
11.2000,6.1250
11.2861,6.1421
11.3591,6.1909
11.4079,6.2639
11.4250,6.3500
Z" /> 
<path style="fill:#000000; fill-opacity:1.0000; stroke:none;fill-rule:evenodd;"
d="M 9.8750,6.8500
9.8579,6.9361
9.8091,7.0091
9.7361,7.0579
9.6500,7.0750
9.2000,7.0750
9.1139,7.0579
9.0409,7.0091
8.9921,6.9361
8.9750,6.8500
8.9750,6.3500
8.9921,6.2639
9.0409,6.1909
9.1139,6.1421
9.2000,6.1250
9.6500,6.1250
9.7361,6.1421
9.8091,6.1909
9.8579,6.2639
9.8750,6.3500
Z" /> 
<path style="fill:#000000; fill-opacity:1.0000; stroke:none;fill-rule:evenodd;"
d="M 5.8500,19.7000
5.9457,19.7190
6.0268,19.7732
6.0810,19.8543
6.1000,19.9500
6.1000,20.4500
6.0810,20.5457
6.0268,20.6268
5.9457,20.6810
5.8500,20.7000
0.8500,20.7000
0.7543,20.6810
0.6732,20.6268
0.6190,20.5457
0.6000,20.4500
0.6000,19.9500
0.6190,19.8543
0.6732,19.7732
0.7543,19.7190
0.8500,19.7000
Z" /> 
<path style="fill:#000000; fill-opacity:1.0000; stroke:none;fill-rule:evenodd;"
d="M 5.8500,21.7000
5.9457,21.7190
6.0268,21.7732
6.0810,21.8543
6.1000,21.9500
6.1000,22.4500
6.0810,22.5457
6.0268,22.6268
5.9457,22.6810
5.8500,22.7000
0.8500,22.7000
0.7543,22.6810
0.6732,22.6268
0.6190,22.5457
0.6000,22.4500
0.6000,21.9500
0.6190,21.8543
0.6732,21.7732
0.7543,21.7190
0.8500,21.7000
Z" /> 
<path style="fill:#000000; fill-opacity:1.0000; stroke:none;fill-rule:evenodd;"
d="M 5.8500,23.7000
5.9457,23.7190
6.0268,23.7732
6.0810,23.8543
6.1000,23.9500
6.1000,24.4500
6.0810,24.5457
6.0268,24.6268
5.9457,24.6810
5.8500,24.7000
0.8500,24.7000
0.7543,24.6810
0.6732,24.6268
0.6190,24.5457
0.6000,24.4500
0.6000,23.9500
0.6190,23.8543
0.6732,23.7732
0.7543,23.7190
0.8500,23.7000
Z" /> 
<path style="fill:#000000; fill-opacity:1.0000; stroke:none;fill-rule:evenodd;"
d="M 6.8500,17.0000
6.9457,17.0190
7.0268,17.0732
7.0810,17.1543
7.1000,17.2500
7.1000,18.3500
7.0810,18.4457
7.0268,18.5268
6.9457,18.5810
6.8500,18.6000
4.3500,18.6000
4.2543,18.5810
4.1732,18.5268
4.1190,18.4457
4.1000,18.3500
4.1000,17.2500
4.1190,17.1543
4.1732,17.0732
4.2543,17.0190
4.3500,17.0000
Z" /> 
<path style="fill:#000000; fill-opacity:1.0000; stroke:none;fill-rule:evenodd;"
d="M 6.8500,25.8000
6.9457,25.8190
7.0268,25.8732
7.0810,25.9543
7.1000,26.0500
7.1000,27.1500
7.0810,27.2457
7.0268,27.3268
6.9457,27.3810
6.8500,27.4000
4.3500,27.4000
4.2543,27.3810
4.1732,27.3268
4.1190,27.2457
4.1000,27.1500
4.1000,26.0500
4.1190,25.9543
4.1732,25.8732
4.2543,25.8190
4.3500,25.8000
Z" /> 
<path style="fill:#000000; fill-opacity:1.0000; stroke:none;fill-rule:evenodd;"
d="M 19.2220,6.6320
17.6980,6.6320
17.6980,4.0920
19.2220,4.0920
Z" /> 
<path style="fill:#000000; fill-opacity:1.0000; stroke:none;fill-rule:evenodd;"
d="M 21.7620,6.6320
20.2380,6.6320
20.2380,4.0920
21.7620,4.0920
Z" /> 
<path style="fill:#000000; fill-opacity:1.0000; stroke:none;fill-rule:evenodd;"
d="M 24.3020,6.1240
22.7780,6.1240
22.7780,3.5840
24.3020,3.5840
Z" /> 
<path style="fill:#000000; fill-opacity:1.0000; stroke:none;fill-rule:evenodd;"
d="M 6.1750,9.5000
6.2707,9.5190
6.3518,9.5732
6.4060,9.6543
6.4250,9.7500
6.4250,10.2500
6.4060,10.3457
6.3518,10.4268
6.2707,10.4810
6.1750,10.5000
0.3250,10.5000
0.2293,10.4810
0.1482,10.4268
0.0940,10.3457
0.0750,10.2500
0.0750,9.7500
0.0940,9.6543
0.1482,9.5732
0.2293,9.5190
0.3250,9.5000
Z" /> 
<path style="fill:#000000; fill-opacity:1.0000; stroke:none;fill-rule:evenodd;"
d="M 6.1750,11.5000
6.2707,11.5190
6.3518,11.5732
6.4060,11.6543
6.4250,11.7500
6.4250,12.2500
6.4060,12.3457
6.3518,12.4268
6.2707,12.4810
6.1750,12.5000
0.3250,12.5000
0.2293,12.4810
0.1482,12.4268
0.0940,12.3457
0.0750,12.2500
0.0750,11.7500
0.0940,11.6543
0.1482,11.5732
0.2293,11.5190
0.3250,11.5000
Z" /> 
<path style="fill:#000000; fill-opacity:1.0000; stroke:none;fill-rule:evenodd;"
d="M 6.7500,6.8000
6.8457,6.8190
6.9268,6.8732
6.9810,6.9543
7.0000,7.0500
7.0000,8.1500
6.9810,8.2457
6.9268,8.3268
6.8457,8.3810
6.7500,8.4000
4.2500,8.4000
4.1543,8.3810
4.0732,8.3268
4.0190,8.2457
4.0000,8.1500
4.0000,7.0500
4.0190,6.9543
4.0732,6.8732
4.1543,6.8190
4.2500,6.8000
Z" /> 
<path style="fill:#000000; fill-opacity:1.0000; stroke:none;fill-rule:evenodd;"
d="M 6.7500,13.6000
6.8457,13.6190
6.9268,13.6732
6.9810,13.7543
7.0000,13.8500
7.0000,14.9500
6.9810,15.0457
6.9268,15.1268
6.8457,15.1810
6.7500,15.2000
4.2500,15.2000
4.1543,15.1810
4.0732,15.1268
4.0190,15.0457
4.0000,14.9500
4.0000,13.8500
4.0190,13.7543
4.0732,13.6732
4.1543,13.6190
4.2500,13.6000
Z" /> 
<path style="fill:#000000; fill-opacity:1.0000; stroke:none;fill-rule:evenodd;"
d="M 54.1550,16.2310
54.1550,18.0090
50.3450,18.0090
50.3450,16.2310
Z" /> 
<path style="fill:#000000; fill-opacity:1.0000; stroke:none;fill-rule:evenodd;"
d="M 54.1550,13.6910
54.1550,15.4690
50.3450,15.4690
50.3450,13.6910
Z" /> 
<path style="fill:#000000; fill-opacity:1.0000; stroke:none;fill-rule:evenodd;"
d="M 54.1550,11.1510
54.1550,12.9290
50.3450,12.9290
50.3450,11.1510
Z" /> 
<path style="fill:#000000; fill-opacity:1.0000; stroke:none;fill-rule:evenodd;"
d="M 54.1550,8.6110
54.1550,10.3890
50.3450,10.3890
50.3450,8.6110
Z" /> 
<path style="fill:#000000; fill-opacity:1.0000; stroke:none;fill-rule:evenodd;"
d="M 11.4250,3.4500
11.4079,3.5361
11.3591,3.6091
11.2861,3.6579
11.2000,3.6750
10.7500,3.6750
10.6639,3.6579
10.5909,3.6091
10.5421,3.5361
10.5250,3.4500
10.5250,2.9500
10.5421,2.8639
10.5909,2.7909
10.6639,2.7421
10.7500,2.7250
11.2000,2.7250
11.2861,2.7421
11.3591,2.7909
11.4079,2.8639
11.4250,2.9500
Z" /> 
<path style="fill:#000000; fill-opacity:1.0000; stroke:none;fill-rule:evenodd;"
d="M 9.8750,3.4500
9.8579,3.5361
9.8091,3.6091
9.7361,3.6579
9.6500,3.6750
9.2000,3.6750
9.1139,3.6579
9.0409,3.6091
8.9921,3.5361
8.9750,3.4500
8.9750,2.9500
8.9921,2.8639
9.0409,2.7909
9.1139,2.7421
9.2000,2.7250
9.6500,2.7250
9.7361,2.7421
9.8091,2.7909
9.8579,2.8639
9.8750,2.9500
Z" /> 
<path style="fill:#000000; fill-opacity:1.0000; stroke:none;fill-rule:evenodd;"
d="M 22.5950,21.0990
22.5950,19.3210
26.4050,19.3210
26.4050,21.0990
Z" /> 
<path style="fill:#000000; fill-opacity:1.0000; stroke:none;fill-rule:evenodd;"
d="M 22.5950,23.6390
22.5950,21.8610
26.4050,21.8610
26.4050,23.6390
Z" /> 
<path style="fill:#000000; fill-opacity:1.0000; stroke:none;fill-rule:evenodd;"
d="M 22.5950,26.1790
22.5950,24.4010
26.4050,24.4010
26.4050,26.1790
Z" /> 
</g>
<g style="fill:none; 
stroke:#000000; stroke-width:0.0500; stroke-opacity:1; 
stroke-linecap:round; stroke-linejoin:round;">
<circle cx="2.0000" cy="29.7500" r="1.5000" /> 
<circle cx="2.0000" cy="2.0000" r="1.5000" /> 
<circle cx="61.2500" cy="2.1689" r="1.5811" /> 
<path style="fill:none; 
stroke:#000000; stroke-width:0.0500; stroke-opacity:1; 
stroke-linecap:round; stroke-linejoin:round;fill:none"
d="M 0.0000,0.0000
63.5000,0.0000
63.5000,31.7500
0.0000,31.7500
Z" /> 
<circle cx="61.2500" cy="29.5000" r="1.5811" /> 
</g>
<g style="fill:#FFFFFF; fill-opacity:1.0000; stroke:none;">
<circle cx="23.3400" cy="9.8000" r="0.0635" /> 
</g>
<g style="fill:#FFFFFF; fill-opacity:1.0000; stroke:none;">
<circle cx="20.8000" cy="9.8000" r="0.0635" /> 
</g>
<g style="fill:#FFFFFF; fill-opacity:1.0000; stroke:none;">
<circle cx="18.2600" cy="9.8000" r="0.0635" /> 
</g>
<g style="fill:#FFFFFF; fill-opacity:1.0000; stroke:none;">
<circle cx="18.4600" cy="4.6000" r="0.1270" /> 
</g>
<g style="fill:#FFFFFF; fill-opacity:1.0000; stroke:none;">
<circle cx="21.0000" cy="4.6000" r="0.1270" /> 
</g>
<g style="fill:#FFFFFF; fill-opacity:1.0000; stroke:none;">
<circle cx="23.5400" cy="4.6000" r="0.1270" /> 
</g>
<g style="fill:#FFFFFF; fill-opacity:1.0000; stroke:none;">
<circle cx="52.2500" cy="17.1200" r="0.0635" /> 
</g>
<g style="fill:#FFFFFF; fill-opacity:1.0000; stroke:none;">
<circle cx="52.2500" cy="14.5800" r="0.0635" /> 
</g>
<g style="fill:#FFFFFF; fill-opacity:1.0000; stroke:none;">
<circle cx="52.2500" cy="12.0400" r="0.0635" /> 
</g>
<g style="fill:#FFFFFF; fill-opacity:1.0000; stroke:none;">
<circle cx="52.2500" cy="9.5000" r="0.0635" /> 
</g>
<g style="fill:#FFFFFF; fill-opacity:1.0000; stroke:none;">
<circle cx="24.5000" cy="20.2100" r="0.0635" /> 
</g>
<g style="fill:#FFFFFF; fill-opacity:1.0000; stroke:none;">
<circle cx="24.5000" cy="22.7500" r="0.0635" /> 
</g>
<g style="fill:#FFFFFF; fill-opacity:1.0000; stroke:none;">
<circle cx="24.5000" cy="25.2900" r="0.0635" /> 
</g> 
</svg>
