<?xml version="1.0" standalone="no"?>
 <!DOCTYPE svg PUBLIC "-//W3C//DTD SVG 1.1//EN" 
 "http://www.w3.org/Graphics/SVG/1.1/DTD/svg11.dtd"> 
<svg
  xmlns:svg="http://www.w3.org/2000/svg"
  xmlns="http://www.w3.org/2000/svg"
  xmlns:xlink="http://www.w3.org/1999/xlink"
  version="1.1"
  width="63.5000mm" height="31.7500mm" viewBox="0.0000 0.0000 63.5000 31.7500">
<title>SVG Image created as mask-front.svg date 2025/11/11 20:05:10 </title>
  <desc>Image generated by PCBNEW </desc>
<g style="fill:#000000; fill-opacity:1.0000;stroke:#000000; stroke-opacity:1.0000;
stroke-linecap:round; stroke-linejoin:round;"
 transform="translate(0 0) scale(1 1)">
<path style="fill:#000000; fill-opacity:1.0000; stroke:none;fill-rule:evenodd;"
d="M 31.6205,7.7320
31.6283,7.7710
31.6504,7.8041
31.6835,7.8262
31.7225,7.8340
34.7475,7.8340
34.7865,7.8262
34.8196,7.8041
34.8417,7.7710
34.8495,7.7320
34.8495,6.2080
34.8417,6.1690
34.8196,6.1359
34.7865,6.1138
34.7475,6.1060
31.7225,6.1060
31.6835,6.1138
31.6504,6.1359
31.6283,6.1690
31.6205,6.2080
Z" /> 
<path style="fill:#000000; fill-opacity:1.0000; stroke:none;fill-rule:evenodd;"
d="M 31.6205,10.2720
31.6283,10.3110
31.6504,10.3441
31.6835,10.3662
31.7225,10.3740
34.7475,10.3740
34.7865,10.3662
34.8196,10.3441
34.8417,10.3110
34.8495,10.2720
34.8495,8.7480
34.8417,8.7090
34.8196,8.6759
34.7865,8.6538
34.7475,8.6460
31.7225,8.6460
31.6835,8.6538
31.6504,8.6759
31.6283,8.7090
31.6205,8.7480
Z" /> 
<path style="fill:#000000; fill-opacity:1.0000; stroke:none;fill-rule:evenodd;"
d="M 31.6205,12.8120
31.6283,12.8510
31.6504,12.8841
31.6835,12.9062
31.7225,12.9140
34.7475,12.9140
34.7865,12.9062
34.8196,12.8841
34.8417,12.8510
34.8495,12.8120
34.8495,11.2880
34.8417,11.2490
34.8196,11.2159
34.7865,11.1938
34.7475,11.1860
31.7225,11.1860
31.6835,11.1938
31.6504,11.2159
31.6283,11.2490
31.6205,11.2880
Z" /> 
<path style="fill:#000000; fill-opacity:1.0000; stroke:none;fill-rule:evenodd;"
d="M 31.6205,15.3520
31.6283,15.3910
31.6504,15.4241
31.6835,15.4462
31.7225,15.4540
34.7475,15.4540
34.7865,15.4462
34.8196,15.4241
34.8417,15.3910
34.8495,15.3520
34.8495,13.8280
34.8417,13.7890
34.8196,13.7559
34.7865,13.7338
34.7475,13.7260
31.7225,13.7260
31.6835,13.7338
31.6504,13.7559
31.6283,13.7890
31.6205,13.8280
Z" /> 
<path style="fill:#000000; fill-opacity:1.0000; stroke:none;fill-rule:evenodd;"
d="M 31.6205,20.4320
31.6283,20.4710
31.6504,20.5041
31.6835,20.5262
31.7225,20.5340
34.7475,20.5340
34.7865,20.5262
34.8196,20.5041
34.8417,20.4710
34.8495,20.4320
34.8495,18.9080
34.8417,18.8690
34.8196,18.8359
34.7865,18.8138
34.7475,18.8060
31.7225,18.8060
31.6835,18.8138
31.6504,18.8359
31.6283,18.8690
31.6205,18.9080
Z" /> 
<path style="fill:#000000; fill-opacity:1.0000; stroke:none;fill-rule:evenodd;"
d="M 31.6205,17.8920
31.6283,17.9310
31.6504,17.9641
31.6835,17.9862
31.7225,17.9940
34.7475,17.9940
34.7865,17.9862
34.8196,17.9641
34.8417,17.9310
34.8495,17.8920
34.8495,16.3680
34.8417,16.3290
34.8196,16.2959
34.7865,16.2738
34.7475,16.2660
31.7225,16.2660
31.6835,16.2738
31.6504,16.2959
31.6283,16.3290
31.6205,16.3680
Z" /> 
<path style="fill:#000000; fill-opacity:1.0000; stroke:none;fill-rule:evenodd;"
d="M 15.6505,25.5120
15.6583,25.5510
15.6804,25.5841
15.7135,25.6062
15.7525,25.6140
18.7775,25.6140
18.8165,25.6062
18.8496,25.5841
18.8717,25.5510
18.8795,25.5120
18.8795,23.9880
18.8717,23.9490
18.8496,23.9159
18.8165,23.8938
18.7775,23.8860
15.7525,23.8860
15.7135,23.8938
15.6804,23.9159
15.6583,23.9490
15.6505,23.9880
Z" /> 
<path style="fill:#000000; fill-opacity:1.0000; stroke:none;fill-rule:evenodd;"
d="M 31.6205,25.5120
31.6283,25.5510
31.6504,25.5841
31.6835,25.6062
31.7225,25.6140
34.7475,25.6140
34.7865,25.6062
34.8196,25.5841
34.8417,25.5510
34.8495,25.5120
34.8495,23.9880
34.8417,23.9490
34.8196,23.9159
34.7865,23.8938
34.7475,23.8860
31.7225,23.8860
31.6835,23.8938
31.6504,23.9159
31.6283,23.9490
31.6205,23.9880
Z" /> 
<path style="fill:#000000; fill-opacity:1.0000; stroke:none;fill-rule:evenodd;"
d="M 15.6505,22.9720
15.6583,23.0110
15.6804,23.0441
15.7135,23.0662
15.7525,23.0740
18.7775,23.0740
18.8165,23.0662
18.8496,23.0441
18.8717,23.0110
18.8795,22.9720
18.8795,21.4480
18.8717,21.4090
18.8496,21.3759
18.8165,21.3538
18.7775,21.3460
15.7525,21.3460
15.7135,21.3538
15.6804,21.3759
15.6583,21.4090
15.6505,21.4480
Z" /> 
<path style="fill:#000000; fill-opacity:1.0000; stroke:none;fill-rule:evenodd;"
d="M 15.6505,20.4320
15.6583,20.4710
15.6804,20.5041
15.7135,20.5262
15.7525,20.5340
18.7775,20.5340
18.8165,20.5262
18.8496,20.5041
18.8717,20.4710
18.8795,20.4320
18.8795,18.9080
18.8717,18.8690
18.8496,18.8359
18.8165,18.8138
18.7775,18.8060
15.7525,18.8060
15.7135,18.8138
15.6804,18.8359
15.6583,18.8690
15.6505,18.9080
Z" /> 
<path style="fill:#000000; fill-opacity:1.0000; stroke:none;fill-rule:evenodd;"
d="M 15.6505,17.8920
15.6583,17.9310
15.6804,17.9641
15.7135,17.9862
15.7525,17.9940
18.7775,17.9940
18.8165,17.9862
18.8496,17.9641
18.8717,17.9310
18.8795,17.8920
18.8795,16.3680
18.8717,16.3290
18.8496,16.2959
18.8165,16.2738
18.7775,16.2660
15.7525,16.2660
15.7135,16.2738
15.6804,16.2959
15.6583,16.3290
15.6505,16.3680
Z" /> 
<path style="fill:#000000; fill-opacity:1.0000; stroke:none;fill-rule:evenodd;"
d="M 15.6505,15.3520
15.6583,15.3910
15.6804,15.4241
15.7135,15.4462
15.7525,15.4540
18.7775,15.4540
18.8165,15.4462
18.8496,15.4241
18.8717,15.3910
18.8795,15.3520
18.8795,13.8280
18.8717,13.7890
18.8496,13.7559
18.8165,13.7338
18.7775,13.7260
15.7525,13.7260
15.7135,13.7338
15.6804,13.7559
15.6583,13.7890
15.6505,13.8280
Z" /> 
<path style="fill:#000000; fill-opacity:1.0000; stroke:none;fill-rule:evenodd;"
d="M 15.6505,12.8120
15.6583,12.8510
15.6804,12.8841
15.7135,12.9062
15.7525,12.9140
18.7775,12.9140
18.8165,12.9062
18.8496,12.8841
18.8717,12.8510
18.8795,12.8120
18.8795,11.2880
18.8717,11.2490
18.8496,11.2159
18.8165,11.1938
18.7775,11.1860
15.7525,11.1860
15.7135,11.1938
15.6804,11.2159
15.6583,11.2490
15.6505,11.2880
Z" /> 
<path style="fill:#000000; fill-opacity:1.0000; stroke:none;fill-rule:evenodd;"
d="M 15.6505,10.2720
15.6583,10.3110
15.6804,10.3441
15.7135,10.3662
15.7525,10.3740
18.7775,10.3740
18.8165,10.3662
18.8496,10.3441
18.8717,10.3110
18.8795,10.2720
18.8795,8.7480
18.8717,8.7090
18.8496,8.6759
18.8165,8.6538
18.7775,8.6460
15.7525,8.6460
15.7135,8.6538
15.6804,8.6759
15.6583,8.7090
15.6505,8.7480
Z" /> 
<path style="fill:#000000; fill-opacity:1.0000; stroke:none;fill-rule:evenodd;"
d="M 15.6505,7.7320
15.6583,7.7710
15.6804,7.8041
15.7135,7.8262
15.7525,7.8340
18.7775,7.8340
18.8165,7.8262
18.8496,7.8041
18.8717,7.7710
18.8795,7.7320
18.8795,6.2080
18.8717,6.1690
18.8496,6.1359
18.8165,6.1138
18.7775,6.1060
15.7525,6.1060
15.7135,6.1138
15.6804,6.1359
15.6583,6.1690
15.6505,6.2080
Z" /> 
<path style="fill:#000000; fill-opacity:1.0000; stroke:none;fill-rule:evenodd;"
d="M 31.6205,22.9720
31.6283,23.0110
31.6504,23.0441
31.6835,23.0662
31.7225,23.0740
34.7475,23.0740
34.7865,23.0662
34.8196,23.0441
34.8417,23.0110
34.8495,22.9720
34.8495,21.4480
34.8417,21.4090
34.8196,21.3759
34.7865,21.3538
34.7475,21.3460
31.7225,21.3460
31.6835,21.3538
31.6504,21.3759
31.6283,21.4090
31.6205,21.4480
Z" /> 
<path style="fill:#000000; fill-opacity:1.0000; stroke:none;fill-rule:evenodd;"
d="M 44.5590,10.0950
42.7810,10.0950
42.7810,13.9050
44.5590,13.9050
Z" /> 
<path style="fill:#000000; fill-opacity:1.0000; stroke:none;fill-rule:evenodd;"
d="M 47.0990,10.0950
45.3210,10.0950
45.3210,13.9050
47.0990,13.9050
Z" /> 
<path style="fill:#000000; fill-opacity:1.0000; stroke:none;fill-rule:evenodd;"
d="M 49.6390,10.0950
47.8610,10.0950
47.8610,13.9050
49.6390,13.9050
Z" /> 
<path style="fill:#000000; fill-opacity:1.0000; stroke:none;fill-rule:evenodd;"
d="M 57.3250,21.7500
57.2293,21.7690
57.1482,21.8232
57.0940,21.9043
57.0750,22.0000
57.0750,22.5000
57.0940,22.5957
57.1482,22.6768
57.2293,22.7310
57.3250,22.7500
63.1750,22.7500
63.2707,22.7310
63.3518,22.6768
63.4060,22.5957
63.4250,22.5000
63.4250,22.0000
63.4060,21.9043
63.3518,21.8232
63.2707,21.7690
63.1750,21.7500
Z" /> 
<path style="fill:#000000; fill-opacity:1.0000; stroke:none;fill-rule:evenodd;"
d="M 57.3250,23.7500
57.2293,23.7690
57.1482,23.8232
57.0940,23.9043
57.0750,24.0000
57.0750,24.5000
57.0940,24.5957
57.1482,24.6768
57.2293,24.7310
57.3250,24.7500
63.1750,24.7500
63.2707,24.7310
63.3518,24.6768
63.4060,24.5957
63.4250,24.5000
63.4250,24.0000
63.4060,23.9043
63.3518,23.8232
63.2707,23.7690
63.1750,23.7500
Z" /> 
<path style="fill:#000000; fill-opacity:1.0000; stroke:none;fill-rule:evenodd;"
d="M 56.7500,19.0500
56.6543,19.0690
56.5732,19.1232
56.5190,19.2043
56.5000,19.3000
56.5000,20.4000
56.5190,20.4957
56.5732,20.5768
56.6543,20.6310
56.7500,20.6500
59.2500,20.6500
59.3457,20.6310
59.4268,20.5768
59.4810,20.4957
59.5000,20.4000
59.5000,19.3000
59.4810,19.2043
59.4268,19.1232
59.3457,19.0690
59.2500,19.0500
Z" /> 
<path style="fill:#000000; fill-opacity:1.0000; stroke:none;fill-rule:evenodd;"
d="M 56.7500,25.8500
56.6543,25.8690
56.5732,25.9232
56.5190,26.0043
56.5000,26.1000
56.5000,27.2000
56.5190,27.2957
56.5732,27.3768
56.6543,27.4310
56.7500,27.4500
59.2500,27.4500
59.3457,27.4310
59.4268,27.3768
59.4810,27.2957
59.5000,27.2000
59.5000,26.1000
59.4810,26.0043
59.4268,25.9232
59.3457,25.8690
59.2500,25.8500
Z" /> 
<path style="fill:#000000; fill-opacity:1.0000; stroke:none;fill-rule:evenodd;"
d="M 57.3250,9.5000
57.2293,9.5190
57.1482,9.5732
57.0940,9.6543
57.0750,9.7500
57.0750,10.2500
57.0940,10.3457
57.1482,10.4268
57.2293,10.4810
57.3250,10.5000
63.1750,10.5000
63.2707,10.4810
63.3518,10.4268
63.4060,10.3457
63.4250,10.2500
63.4250,9.7500
63.4060,9.6543
63.3518,9.5732
63.2707,9.5190
63.1750,9.5000
Z" /> 
<path style="fill:#000000; fill-opacity:1.0000; stroke:none;fill-rule:evenodd;"
d="M 57.3250,11.5000
57.2293,11.5190
57.1482,11.5732
57.0940,11.6543
57.0750,11.7500
57.0750,12.2500
57.0940,12.3457
57.1482,12.4268
57.2293,12.4810
57.3250,12.5000
63.1750,12.5000
63.2707,12.4810
63.3518,12.4268
63.4060,12.3457
63.4250,12.2500
63.4250,11.7500
63.4060,11.6543
63.3518,11.5732
63.2707,11.5190
63.1750,11.5000
Z" /> 
<path style="fill:#000000; fill-opacity:1.0000; stroke:none;fill-rule:evenodd;"
d="M 56.7500,6.8000
56.6543,6.8190
56.5732,6.8732
56.5190,6.9543
56.5000,7.0500
56.5000,8.1500
56.5190,8.2457
56.5732,8.3268
56.6543,8.3810
56.7500,8.4000
59.2500,8.4000
59.3457,8.3810
59.4268,8.3268
59.4810,8.2457
59.5000,8.1500
59.5000,7.0500
59.4810,6.9543
59.4268,6.8732
59.3457,6.8190
59.2500,6.8000
Z" /> 
<path style="fill:#000000; fill-opacity:1.0000; stroke:none;fill-rule:evenodd;"
d="M 56.7500,13.6000
56.6543,13.6190
56.5732,13.6732
56.5190,13.7543
56.5000,13.8500
56.5000,14.9500
56.5190,15.0457
56.5732,15.1268
56.6543,15.1810
56.7500,15.2000
59.2500,15.2000
59.3457,15.1810
59.4268,15.1268
59.4810,15.0457
59.5000,14.9500
59.5000,13.8500
59.4810,13.7543
59.4268,13.6732
59.3457,13.6190
59.2500,13.6000
Z" /> 
<path style="fill:#000000; fill-opacity:1.0000; stroke:none;fill-rule:evenodd;"
d="M 9.3450,16.2310
9.3450,18.0090
13.1550,18.0090
13.1550,16.2310
Z" /> 
<path style="fill:#000000; fill-opacity:1.0000; stroke:none;fill-rule:evenodd;"
d="M 9.3450,13.6910
9.3450,15.4690
13.1550,15.4690
13.1550,13.6910
Z" /> 
<path style="fill:#000000; fill-opacity:1.0000; stroke:none;fill-rule:evenodd;"
d="M 9.3450,11.1510
9.3450,12.9290
13.1550,12.9290
13.1550,11.1510
Z" /> 
<path style="fill:#000000; fill-opacity:1.0000; stroke:none;fill-rule:evenodd;"
d="M 9.3450,8.6110
9.3450,10.3890
13.1550,10.3890
13.1550,8.6110
Z" /> 
<path style="fill:#000000; fill-opacity:1.0000; stroke:none;fill-rule:evenodd;"
d="M 40.9050,21.0990
40.9050,19.3210
37.0950,19.3210
37.0950,21.0990
Z" /> 
<path style="fill:#000000; fill-opacity:1.0000; stroke:none;fill-rule:evenodd;"
d="M 40.9050,23.6390
40.9050,21.8610
37.0950,21.8610
37.0950,23.6390
Z" /> 
<path style="fill:#000000; fill-opacity:1.0000; stroke:none;fill-rule:evenodd;"
d="M 40.9050,26.1790
40.9050,24.4010
37.0950,24.4010
37.0950,26.1790
Z" /> 
</g>
<g style="fill:none; 
stroke:#000000; stroke-width:0.0500; stroke-opacity:1; 
stroke-linecap:round; stroke-linejoin:round;">
<circle cx="61.5000" cy="29.7500" r="1.5000" /> 
<circle cx="61.5000" cy="2.0000" r="1.5000" /> 
<circle cx="2.2500" cy="2.1689" r="1.5811" /> 
<path style="fill:none; 
stroke:#000000; stroke-width:0.0500; stroke-opacity:1; 
stroke-linecap:round; stroke-linejoin:round;fill:none"
d="M 63.5000,0.0000
0.0000,0.0000
0.0000,31.7500
63.5000,31.7500
Z" /> 
<circle cx="2.2500" cy="29.5000" r="1.5811" /> 
</g>
<g style="fill:#FFFFFF; fill-opacity:1.0000; stroke:none;">
<circle cx="43.6700" cy="12.0000" r="0.0635" /> 
</g>
<g style="fill:#FFFFFF; fill-opacity:1.0000; stroke:none;">
<circle cx="46.2100" cy="12.0000" r="0.0635" /> 
</g>
<g style="fill:#FFFFFF; fill-opacity:1.0000; stroke:none;">
<circle cx="48.7500" cy="12.0000" r="0.0635" /> 
</g>
<g style="fill:#FFFFFF; fill-opacity:1.0000; stroke:none;">
<circle cx="11.2500" cy="17.1200" r="0.0635" /> 
</g>
<g style="fill:#FFFFFF; fill-opacity:1.0000; stroke:none;">
<circle cx="11.2500" cy="14.5800" r="0.0635" /> 
</g>
<g style="fill:#FFFFFF; fill-opacity:1.0000; stroke:none;">
<circle cx="11.2500" cy="12.0400" r="0.0635" /> 
</g>
<g style="fill:#FFFFFF; fill-opacity:1.0000; stroke:none;">
<circle cx="11.2500" cy="9.5000" r="0.0635" /> 
</g>
<g style="fill:#FFFFFF; fill-opacity:1.0000; stroke:none;">
<circle cx="39.0000" cy="20.2100" r="0.0635" /> 
</g>
<g style="fill:#FFFFFF; fill-opacity:1.0000; stroke:none;">
<circle cx="39.0000" cy="22.7500" r="0.0635" /> 
</g>
<g style="fill:#FFFFFF; fill-opacity:1.0000; stroke:none;">
<circle cx="39.0000" cy="25.2900" r="0.0635" /> 
</g> 
</svg>
