<?xml version="1.0" standalone="no"?>
 <!DOCTYPE svg PUBLIC "-//W3C//DTD SVG 1.1//EN" 
 "http://www.w3.org/Graphics/SVG/1.1/DTD/svg11.dtd"> 
<svg
  xmlns:svg="http://www.w3.org/2000/svg"
  xmlns="http://www.w3.org/2000/svg"
  xmlns:xlink="http://www.w3.org/1999/xlink"
  version="1.1"
  width="63.5000mm" height="31.7500mm" viewBox="0.0000 0.0000 63.5000 31.7500">
<title>SVG Image created as mask-front.svg date 2025/11/14 13:02:16 </title>
  <desc>Image generated by PCBNEW </desc>
<g style="fill:#000000; fill-opacity:1.0000;stroke:#000000; stroke-opacity:1.0000;
stroke-linecap:round; stroke-linejoin:round;"
 transform="translate(0 0) scale(1 1)">
<path style="fill:#000000; fill-opacity:1.0000; stroke:none;fill-rule:evenodd;"
d="M 31.6445,10.9820
31.6367,11.0210
31.6146,11.0541
31.5815,11.0762
31.5425,11.0840
28.5175,11.0840
28.4785,11.0762
28.4454,11.0541
28.4233,11.0210
28.4155,10.9820
28.4155,9.4580
28.4233,9.4190
28.4454,9.3859
28.4785,9.3638
28.5175,9.3560
31.5425,9.3560
31.5815,9.3638
31.6146,9.3859
31.6367,9.4190
31.6445,9.4580
Z" /> 
<path style="fill:#000000; fill-opacity:1.0000; stroke:none;fill-rule:evenodd;"
d="M 31.6445,13.5220
31.6367,13.5610
31.6146,13.5941
31.5815,13.6162
31.5425,13.6240
28.5175,13.6240
28.4785,13.6162
28.4454,13.5941
28.4233,13.5610
28.4155,13.5220
28.4155,11.9980
28.4233,11.9590
28.4454,11.9259
28.4785,11.9038
28.5175,11.8960
31.5425,11.8960
31.5815,11.9038
31.6146,11.9259
31.6367,11.9590
31.6445,11.9980
Z" /> 
<path style="fill:#000000; fill-opacity:1.0000; stroke:none;fill-rule:evenodd;"
d="M 31.6445,16.0620
31.6367,16.1010
31.6146,16.1341
31.5815,16.1562
31.5425,16.1640
28.5175,16.1640
28.4785,16.1562
28.4454,16.1341
28.4233,16.1010
28.4155,16.0620
28.4155,14.5380
28.4233,14.4990
28.4454,14.4659
28.4785,14.4438
28.5175,14.4360
31.5425,14.4360
31.5815,14.4438
31.6146,14.4659
31.6367,14.4990
31.6445,14.5380
Z" /> 
<path style="fill:#000000; fill-opacity:1.0000; stroke:none;fill-rule:evenodd;"
d="M 31.6445,18.6020
31.6367,18.6410
31.6146,18.6741
31.5815,18.6962
31.5425,18.7040
28.5175,18.7040
28.4785,18.6962
28.4454,18.6741
28.4233,18.6410
28.4155,18.6020
28.4155,17.0780
28.4233,17.0390
28.4454,17.0059
28.4785,16.9838
28.5175,16.9760
31.5425,16.9760
31.5815,16.9838
31.6146,17.0059
31.6367,17.0390
31.6445,17.0780
Z" /> 
<path style="fill:#000000; fill-opacity:1.0000; stroke:none;fill-rule:evenodd;"
d="M 31.6445,23.6820
31.6367,23.7210
31.6146,23.7541
31.5815,23.7762
31.5425,23.7840
28.5175,23.7840
28.4785,23.7762
28.4454,23.7541
28.4233,23.7210
28.4155,23.6820
28.4155,22.1580
28.4233,22.1190
28.4454,22.0859
28.4785,22.0638
28.5175,22.0560
31.5425,22.0560
31.5815,22.0638
31.6146,22.0859
31.6367,22.1190
31.6445,22.1580
Z" /> 
<path style="fill:#000000; fill-opacity:1.0000; stroke:none;fill-rule:evenodd;"
d="M 31.6445,21.1420
31.6367,21.1810
31.6146,21.2141
31.5815,21.2362
31.5425,21.2440
28.5175,21.2440
28.4785,21.2362
28.4454,21.2141
28.4233,21.1810
28.4155,21.1420
28.4155,19.6180
28.4233,19.5790
28.4454,19.5459
28.4785,19.5238
28.5175,19.5160
31.5425,19.5160
31.5815,19.5238
31.6146,19.5459
31.6367,19.5790
31.6445,19.6180
Z" /> 
<path style="fill:#000000; fill-opacity:1.0000; stroke:none;fill-rule:evenodd;"
d="M 47.6145,28.7620
47.6067,28.8010
47.5846,28.8341
47.5515,28.8562
47.5125,28.8640
44.4875,28.8640
44.4485,28.8562
44.4154,28.8341
44.3933,28.8010
44.3855,28.7620
44.3855,27.2380
44.3933,27.1990
44.4154,27.1659
44.4485,27.1438
44.4875,27.1360
47.5125,27.1360
47.5515,27.1438
47.5846,27.1659
47.6067,27.1990
47.6145,27.2380
Z" /> 
<path style="fill:#000000; fill-opacity:1.0000; stroke:none;fill-rule:evenodd;"
d="M 31.6445,28.7620
31.6367,28.8010
31.6146,28.8341
31.5815,28.8562
31.5425,28.8640
28.5175,28.8640
28.4785,28.8562
28.4454,28.8341
28.4233,28.8010
28.4155,28.7620
28.4155,27.2380
28.4233,27.1990
28.4454,27.1659
28.4785,27.1438
28.5175,27.1360
31.5425,27.1360
31.5815,27.1438
31.6146,27.1659
31.6367,27.1990
31.6445,27.2380
Z" /> 
<path style="fill:#000000; fill-opacity:1.0000; stroke:none;fill-rule:evenodd;"
d="M 47.6145,26.2220
47.6067,26.2610
47.5846,26.2941
47.5515,26.3162
47.5125,26.3240
44.4875,26.3240
44.4485,26.3162
44.4154,26.2941
44.3933,26.2610
44.3855,26.2220
44.3855,24.6980
44.3933,24.6590
44.4154,24.6259
44.4485,24.6038
44.4875,24.5960
47.5125,24.5960
47.5515,24.6038
47.5846,24.6259
47.6067,24.6590
47.6145,24.6980
Z" /> 
<path style="fill:#000000; fill-opacity:1.0000; stroke:none;fill-rule:evenodd;"
d="M 47.6145,23.6820
47.6067,23.7210
47.5846,23.7541
47.5515,23.7762
47.5125,23.7840
44.4875,23.7840
44.4485,23.7762
44.4154,23.7541
44.3933,23.7210
44.3855,23.6820
44.3855,22.1580
44.3933,22.1190
44.4154,22.0859
44.4485,22.0638
44.4875,22.0560
47.5125,22.0560
47.5515,22.0638
47.5846,22.0859
47.6067,22.1190
47.6145,22.1580
Z" /> 
<path style="fill:#000000; fill-opacity:1.0000; stroke:none;fill-rule:evenodd;"
d="M 47.6145,21.1420
47.6067,21.1810
47.5846,21.2141
47.5515,21.2362
47.5125,21.2440
44.4875,21.2440
44.4485,21.2362
44.4154,21.2141
44.3933,21.1810
44.3855,21.1420
44.3855,19.6180
44.3933,19.5790
44.4154,19.5459
44.4485,19.5238
44.4875,19.5160
47.5125,19.5160
47.5515,19.5238
47.5846,19.5459
47.6067,19.5790
47.6145,19.6180
Z" /> 
<path style="fill:#000000; fill-opacity:1.0000; stroke:none;fill-rule:evenodd;"
d="M 47.6145,18.6020
47.6067,18.6410
47.5846,18.6741
47.5515,18.6962
47.5125,18.7040
44.4875,18.7040
44.4485,18.6962
44.4154,18.6741
44.3933,18.6410
44.3855,18.6020
44.3855,17.0780
44.3933,17.0390
44.4154,17.0059
44.4485,16.9838
44.4875,16.9760
47.5125,16.9760
47.5515,16.9838
47.5846,17.0059
47.6067,17.0390
47.6145,17.0780
Z" /> 
<path style="fill:#000000; fill-opacity:1.0000; stroke:none;fill-rule:evenodd;"
d="M 47.6145,16.0620
47.6067,16.1010
47.5846,16.1341
47.5515,16.1562
47.5125,16.1640
44.4875,16.1640
44.4485,16.1562
44.4154,16.1341
44.3933,16.1010
44.3855,16.0620
44.3855,14.5380
44.3933,14.4990
44.4154,14.4659
44.4485,14.4438
44.4875,14.4360
47.5125,14.4360
47.5515,14.4438
47.5846,14.4659
47.6067,14.4990
47.6145,14.5380
Z" /> 
<path style="fill:#000000; fill-opacity:1.0000; stroke:none;fill-rule:evenodd;"
d="M 47.6145,13.5220
47.6067,13.5610
47.5846,13.5941
47.5515,13.6162
47.5125,13.6240
44.4875,13.6240
44.4485,13.6162
44.4154,13.5941
44.3933,13.5610
44.3855,13.5220
44.3855,11.9980
44.3933,11.9590
44.4154,11.9259
44.4485,11.9038
44.4875,11.8960
47.5125,11.8960
47.5515,11.9038
47.5846,11.9259
47.6067,11.9590
47.6145,11.9980
Z" /> 
<path style="fill:#000000; fill-opacity:1.0000; stroke:none;fill-rule:evenodd;"
d="M 47.6145,10.9820
47.6067,11.0210
47.5846,11.0541
47.5515,11.0762
47.5125,11.0840
44.4875,11.0840
44.4485,11.0762
44.4154,11.0541
44.3933,11.0210
44.3855,10.9820
44.3855,9.4580
44.3933,9.4190
44.4154,9.3859
44.4485,9.3638
44.4875,9.3560
47.5125,9.3560
47.5515,9.3638
47.5846,9.3859
47.6067,9.4190
47.6145,9.4580
Z" /> 
<path style="fill:#000000; fill-opacity:1.0000; stroke:none;fill-rule:evenodd;"
d="M 31.6445,26.2220
31.6367,26.2610
31.6146,26.2941
31.5815,26.3162
31.5425,26.3240
28.5175,26.3240
28.4785,26.3162
28.4454,26.2941
28.4233,26.2610
28.4155,26.2220
28.4155,24.6980
28.4233,24.6590
28.4454,24.6259
28.4785,24.6038
28.5175,24.5960
31.5425,24.5960
31.5815,24.6038
31.6146,24.6259
31.6367,24.6590
31.6445,24.6980
Z" /> 
<path style="fill:#000000; fill-opacity:1.0000; stroke:none;fill-rule:evenodd;"
d="M 15.4110,15.8950
17.1890,15.8950
17.1890,19.7050
15.4110,19.7050
Z" /> 
<path style="fill:#000000; fill-opacity:1.0000; stroke:none;fill-rule:evenodd;"
d="M 12.8710,15.8950
14.6490,15.8950
14.6490,19.7050
12.8710,19.7050
Z" /> 
<path style="fill:#000000; fill-opacity:1.0000; stroke:none;fill-rule:evenodd;"
d="M 10.3310,15.8950
12.1090,15.8950
12.1090,19.7050
10.3310,19.7050
Z" /> 
<path style="fill:#000000; fill-opacity:1.0000; stroke:none;fill-rule:evenodd;"
d="M 13.6230,9.9583
13.6276,9.9352
13.6407,9.9157
13.6602,9.9026
13.6833,9.8980
15.1167,9.8980
15.1398,9.9026
15.1593,9.9157
15.1724,9.9352
15.1770,9.9583
15.1770,10.6417
15.1724,10.6648
15.1593,10.6843
15.1398,10.6974
15.1167,10.7020
13.6833,10.7020
13.6602,10.6974
13.6407,10.6843
13.6276,10.6648
13.6230,10.6417
Z" /> 
<path style="fill:#000000; fill-opacity:1.0000; stroke:none;fill-rule:evenodd;"
d="M 13.6230,10.9083
13.6276,10.8852
13.6407,10.8657
13.6602,10.8526
13.6833,10.8480
15.1167,10.8480
15.1398,10.8526
15.1593,10.8657
15.1724,10.8852
15.1770,10.9083
15.1770,11.5917
15.1724,11.6148
15.1593,11.6343
15.1398,11.6474
15.1167,11.6520
13.6833,11.6520
13.6602,11.6474
13.6407,11.6343
13.6276,11.6148
13.6230,11.5917
Z" /> 
<path style="fill:#000000; fill-opacity:1.0000; stroke:none;fill-rule:evenodd;"
d="M 13.6230,11.8583
13.6276,11.8352
13.6407,11.8157
13.6602,11.8026
13.6833,11.7980
15.1167,11.7980
15.1398,11.8026
15.1593,11.8157
15.1724,11.8352
15.1770,11.8583
15.1770,12.5417
15.1724,12.5648
15.1593,12.5843
15.1398,12.5974
15.1167,12.6020
13.6833,12.6020
13.6602,12.5974
13.6407,12.5843
13.6276,12.5648
13.6230,12.5417
Z" /> 
<path style="fill:#000000; fill-opacity:1.0000; stroke:none;fill-rule:evenodd;"
d="M 15.9930,11.8583
15.9976,11.8352
16.0107,11.8157
16.0302,11.8026
16.0533,11.7980
17.4867,11.7980
17.5098,11.8026
17.5293,11.8157
17.5424,11.8352
17.5470,11.8583
17.5470,12.5417
17.5424,12.5648
17.5293,12.5843
17.5098,12.5974
17.4867,12.6020
16.0533,12.6020
16.0302,12.5974
16.0107,12.5843
15.9976,12.5648
15.9930,12.5417
Z" /> 
<path style="fill:#000000; fill-opacity:1.0000; stroke:none;fill-rule:evenodd;"
d="M 15.9930,9.9583
15.9976,9.9352
16.0107,9.9157
16.0302,9.9026
16.0533,9.8980
17.4867,9.8980
17.5098,9.9026
17.5293,9.9157
17.5424,9.9352
17.5470,9.9583
17.5470,10.6417
17.5424,10.6648
17.5293,10.6843
17.5098,10.6974
17.4867,10.7020
16.0533,10.7020
16.0302,10.6974
16.0107,10.6843
15.9976,10.6648
15.9930,10.6417
Z" /> 
<path style="fill:#000000; fill-opacity:1.0000; stroke:none;fill-rule:evenodd;"
d="M 11.9250,8.3500
11.9079,8.4361
11.8591,8.5091
11.7861,8.5579
11.7000,8.5750
11.2500,8.5750
11.1639,8.5579
11.0909,8.5091
11.0421,8.4361
11.0250,8.3500
11.0250,7.8500
11.0421,7.7639
11.0909,7.6909
11.1639,7.6421
11.2500,7.6250
11.7000,7.6250
11.7861,7.6421
11.8591,7.6909
11.9079,7.7639
11.9250,7.8500
Z" /> 
<path style="fill:#000000; fill-opacity:1.0000; stroke:none;fill-rule:evenodd;"
d="M 10.3750,8.3500
10.3579,8.4361
10.3091,8.5091
10.2361,8.5579
10.1500,8.5750
9.7000,8.5750
9.6139,8.5579
9.5409,8.5091
9.4921,8.4361
9.4750,8.3500
9.4750,7.8500
9.4921,7.7639
9.5409,7.6909
9.6139,7.6421
9.7000,7.6250
10.1500,7.6250
10.2361,7.6421
10.3091,7.6909
10.3579,7.7639
10.3750,7.8500
Z" /> 
<path style="fill:#000000; fill-opacity:1.0000; stroke:none;fill-rule:evenodd;"
d="M 5.8500,19.7000
5.9457,19.7190
6.0268,19.7732
6.0810,19.8543
6.1000,19.9500
6.1000,20.4500
6.0810,20.5457
6.0268,20.6268
5.9457,20.6810
5.8500,20.7000
0.8500,20.7000
0.7543,20.6810
0.6732,20.6268
0.6190,20.5457
0.6000,20.4500
0.6000,19.9500
0.6190,19.8543
0.6732,19.7732
0.7543,19.7190
0.8500,19.7000
Z" /> 
<path style="fill:#000000; fill-opacity:1.0000; stroke:none;fill-rule:evenodd;"
d="M 5.8500,21.7000
5.9457,21.7190
6.0268,21.7732
6.0810,21.8543
6.1000,21.9500
6.1000,22.4500
6.0810,22.5457
6.0268,22.6268
5.9457,22.6810
5.8500,22.7000
0.8500,22.7000
0.7543,22.6810
0.6732,22.6268
0.6190,22.5457
0.6000,22.4500
0.6000,21.9500
0.6190,21.8543
0.6732,21.7732
0.7543,21.7190
0.8500,21.7000
Z" /> 
<path style="fill:#000000; fill-opacity:1.0000; stroke:none;fill-rule:evenodd;"
d="M 5.8500,23.7000
5.9457,23.7190
6.0268,23.7732
6.0810,23.8543
6.1000,23.9500
6.1000,24.4500
6.0810,24.5457
6.0268,24.6268
5.9457,24.6810
5.8500,24.7000
0.8500,24.7000
0.7543,24.6810
0.6732,24.6268
0.6190,24.5457
0.6000,24.4500
0.6000,23.9500
0.6190,23.8543
0.6732,23.7732
0.7543,23.7190
0.8500,23.7000
Z" /> 
<path style="fill:#000000; fill-opacity:1.0000; stroke:none;fill-rule:evenodd;"
d="M 6.8500,17.0000
6.9457,17.0190
7.0268,17.0732
7.0810,17.1543
7.1000,17.2500
7.1000,18.3500
7.0810,18.4457
7.0268,18.5268
6.9457,18.5810
6.8500,18.6000
4.3500,18.6000
4.2543,18.5810
4.1732,18.5268
4.1190,18.4457
4.1000,18.3500
4.1000,17.2500
4.1190,17.1543
4.1732,17.0732
4.2543,17.0190
4.3500,17.0000
Z" /> 
<path style="fill:#000000; fill-opacity:1.0000; stroke:none;fill-rule:evenodd;"
d="M 6.8500,25.8000
6.9457,25.8190
7.0268,25.8732
7.0810,25.9543
7.1000,26.0500
7.1000,27.1500
7.0810,27.2457
7.0268,27.3268
6.9457,27.3810
6.8500,27.4000
4.3500,27.4000
4.2543,27.3810
4.1732,27.3268
4.1190,27.2457
4.1000,27.1500
4.1000,26.0500
4.1190,25.9543
4.1732,25.8732
4.2543,25.8190
4.3500,25.8000
Z" /> 
<path style="fill:#000000; fill-opacity:1.0000; stroke:none;fill-rule:evenodd;"
d="M 24.9320,9.3180
24.9320,10.8420
22.3920,10.8420
22.3920,9.3180
Z" /> 
<path style="fill:#000000; fill-opacity:1.0000; stroke:none;fill-rule:evenodd;"
d="M 24.9320,6.7780
24.9320,8.3020
22.3920,8.3020
22.3920,6.7780
Z" /> 
<path style="fill:#000000; fill-opacity:1.0000; stroke:none;fill-rule:evenodd;"
d="M 24.4240,4.2380
24.4240,5.7620
21.8840,5.7620
21.8840,4.2380
Z" /> 
<path style="fill:#000000; fill-opacity:1.0000; stroke:none;fill-rule:evenodd;"
d="M 6.1750,9.5000
6.2707,9.5190
6.3518,9.5732
6.4060,9.6543
6.4250,9.7500
6.4250,10.2500
6.4060,10.3457
6.3518,10.4268
6.2707,10.4810
6.1750,10.5000
0.3250,10.5000
0.2293,10.4810
0.1482,10.4268
0.0940,10.3457
0.0750,10.2500
0.0750,9.7500
0.0940,9.6543
0.1482,9.5732
0.2293,9.5190
0.3250,9.5000
Z" /> 
<path style="fill:#000000; fill-opacity:1.0000; stroke:none;fill-rule:evenodd;"
d="M 6.1750,11.5000
6.2707,11.5190
6.3518,11.5732
6.4060,11.6543
6.4250,11.7500
6.4250,12.2500
6.4060,12.3457
6.3518,12.4268
6.2707,12.4810
6.1750,12.5000
0.3250,12.5000
0.2293,12.4810
0.1482,12.4268
0.0940,12.3457
0.0750,12.2500
0.0750,11.7500
0.0940,11.6543
0.1482,11.5732
0.2293,11.5190
0.3250,11.5000
Z" /> 
<path style="fill:#000000; fill-opacity:1.0000; stroke:none;fill-rule:evenodd;"
d="M 6.7500,6.8000
6.8457,6.8190
6.9268,6.8732
6.9810,6.9543
7.0000,7.0500
7.0000,8.1500
6.9810,8.2457
6.9268,8.3268
6.8457,8.3810
6.7500,8.4000
4.2500,8.4000
4.1543,8.3810
4.0732,8.3268
4.0190,8.2457
4.0000,8.1500
4.0000,7.0500
4.0190,6.9543
4.0732,6.8732
4.1543,6.8190
4.2500,6.8000
Z" /> 
<path style="fill:#000000; fill-opacity:1.0000; stroke:none;fill-rule:evenodd;"
d="M 6.7500,13.6000
6.8457,13.6190
6.9268,13.6732
6.9810,13.7543
7.0000,13.8500
7.0000,14.9500
6.9810,15.0457
6.9268,15.1268
6.8457,15.1810
6.7500,15.2000
4.2500,15.2000
4.1543,15.1810
4.0732,15.1268
4.0190,15.0457
4.0000,14.9500
4.0000,13.8500
4.0190,13.7543
4.0732,13.6732
4.1543,13.6190
4.2500,13.6000
Z" /> 
<path style="fill:#000000; fill-opacity:1.0000; stroke:none;fill-rule:evenodd;"
d="M 54.1550,16.2310
54.1550,18.0090
50.3450,18.0090
50.3450,16.2310
Z" /> 
<path style="fill:#000000; fill-opacity:1.0000; stroke:none;fill-rule:evenodd;"
d="M 54.1550,13.6910
54.1550,15.4690
50.3450,15.4690
50.3450,13.6910
Z" /> 
<path style="fill:#000000; fill-opacity:1.0000; stroke:none;fill-rule:evenodd;"
d="M 54.1550,11.1510
54.1550,12.9290
50.3450,12.9290
50.3450,11.1510
Z" /> 
<path style="fill:#000000; fill-opacity:1.0000; stroke:none;fill-rule:evenodd;"
d="M 54.1550,8.6110
54.1550,10.3890
50.3450,10.3890
50.3450,8.6110
Z" /> 
<path style="fill:#000000; fill-opacity:1.0000; stroke:none;fill-rule:evenodd;"
d="M 11.9250,5.4500
11.9079,5.5361
11.8591,5.6091
11.7861,5.6579
11.7000,5.6750
11.2500,5.6750
11.1639,5.6579
11.0909,5.6091
11.0421,5.5361
11.0250,5.4500
11.0250,4.9500
11.0421,4.8639
11.0909,4.7909
11.1639,4.7421
11.2500,4.7250
11.7000,4.7250
11.7861,4.7421
11.8591,4.7909
11.9079,4.8639
11.9250,4.9500
Z" /> 
<path style="fill:#000000; fill-opacity:1.0000; stroke:none;fill-rule:evenodd;"
d="M 10.3750,5.4500
10.3579,5.5361
10.3091,5.6091
10.2361,5.6579
10.1500,5.6750
9.7000,5.6750
9.6139,5.6579
9.5409,5.6091
9.4921,5.5361
9.4750,5.4500
9.4750,4.9500
9.4921,4.8639
9.5409,4.7909
9.6139,4.7421
9.7000,4.7250
10.1500,4.7250
10.2361,4.7421
10.3091,4.7909
10.3579,4.8639
10.3750,4.9500
Z" /> 
<path style="fill:#000000; fill-opacity:1.0000; stroke:none;fill-rule:evenodd;"
d="M 21.8950,24.0890
21.8950,22.3110
25.7050,22.3110
25.7050,24.0890
Z" /> 
<path style="fill:#000000; fill-opacity:1.0000; stroke:none;fill-rule:evenodd;"
d="M 21.8950,26.6290
21.8950,24.8510
25.7050,24.8510
25.7050,26.6290
Z" /> 
<path style="fill:#000000; fill-opacity:1.0000; stroke:none;fill-rule:evenodd;"
d="M 21.8950,29.1690
21.8950,27.3910
25.7050,27.3910
25.7050,29.1690
Z" /> 
</g>
<g style="fill:none; 
stroke:#000000; stroke-width:0.0500; stroke-opacity:1; 
stroke-linecap:round; stroke-linejoin:round;">
<circle cx="2.0000" cy="29.7500" r="1.5000" /> 
<circle cx="2.0000" cy="2.0000" r="1.5000" /> 
<circle cx="61.2500" cy="2.1689" r="1.5811" /> 
<path style="fill:none; 
stroke:#000000; stroke-width:0.0500; stroke-opacity:1; 
stroke-linecap:round; stroke-linejoin:round;fill:none"
d="M 0.0000,0.0000
63.5000,0.0000
63.5000,31.7500
0.0000,31.7500
Z" /> 
<circle cx="61.2500" cy="29.5000" r="1.5811" /> 
</g>
<g style="fill:#FFFFFF; fill-opacity:1.0000; stroke:none;">
<circle cx="16.3000" cy="17.8000" r="0.0635" /> 
</g>
<g style="fill:#FFFFFF; fill-opacity:1.0000; stroke:none;">
<circle cx="13.7600" cy="17.8000" r="0.0635" /> 
</g>
<g style="fill:#FFFFFF; fill-opacity:1.0000; stroke:none;">
<circle cx="11.2200" cy="17.8000" r="0.0635" /> 
</g>
<g style="fill:#FFFFFF; fill-opacity:1.0000; stroke:none;">
<circle cx="22.9000" cy="10.0800" r="0.1270" /> 
</g>
<g style="fill:#FFFFFF; fill-opacity:1.0000; stroke:none;">
<circle cx="22.9000" cy="7.5400" r="0.1270" /> 
</g>
<g style="fill:#FFFFFF; fill-opacity:1.0000; stroke:none;">
<circle cx="22.9000" cy="5.0000" r="0.1270" /> 
</g>
<g style="fill:#FFFFFF; fill-opacity:1.0000; stroke:none;">
<circle cx="52.2500" cy="17.1200" r="0.0635" /> 
</g>
<g style="fill:#FFFFFF; fill-opacity:1.0000; stroke:none;">
<circle cx="52.2500" cy="14.5800" r="0.0635" /> 
</g>
<g style="fill:#FFFFFF; fill-opacity:1.0000; stroke:none;">
<circle cx="52.2500" cy="12.0400" r="0.0635" /> 
</g>
<g style="fill:#FFFFFF; fill-opacity:1.0000; stroke:none;">
<circle cx="52.2500" cy="9.5000" r="0.0635" /> 
</g>
<g style="fill:#FFFFFF; fill-opacity:1.0000; stroke:none;">
<circle cx="23.8000" cy="23.2000" r="0.0635" /> 
</g>
<g style="fill:#FFFFFF; fill-opacity:1.0000; stroke:none;">
<circle cx="23.8000" cy="25.7400" r="0.0635" /> 
</g>
<g style="fill:#FFFFFF; fill-opacity:1.0000; stroke:none;">
<circle cx="23.8000" cy="28.2800" r="0.0635" /> 
</g> 
</svg>
